<svg xmlns="http://www.w3.org/2000/svg" xmlns:xlink="http://www.w3.org/1999/xlink" width="1030" height="748.6" viewBox="0 0 1030 748.6">
  <defs>
    <clipPath id="clip-path">
      <rect id="Rectángulo_9016" data-name="Rectángulo 9016" width="1030" height="748.6" fill="none"/>
    </clipPath>
    <clipPath id="clip-path-3">
      <rect id="Rectángulo_8960" data-name="Rectángulo 8960" width="122.47" height="67.7" fill="none"/>
    </clipPath>
    <clipPath id="clip-path-5">
      <rect id="Rectángulo_9008" data-name="Rectángulo 9008" width="5.072" height="4.909" fill="none"/>
    </clipPath>
    <clipPath id="clip-path-6">
      <rect id="Rectángulo_9009" data-name="Rectángulo 9009" width="65.006" height="6.685" fill="none"/>
    </clipPath>
    <clipPath id="clip-path-7">
      <rect id="Rectángulo_9010" data-name="Rectángulo 9010" width="4.404" height="4.33" fill="none"/>
    </clipPath>
    <clipPath id="clip-path-8">
      <rect id="Rectángulo_9011" data-name="Rectángulo 9011" width="46.432" height="39.571" fill="none"/>
    </clipPath>
    <clipPath id="clip-path-9">
      <rect id="Rectángulo_9012" data-name="Rectángulo 9012" width="70.786" height="30.58" fill="none"/>
    </clipPath>
    <clipPath id="clip-path-11">
      <rect id="Rectángulo_9014" data-name="Rectángulo 9014" width="40.825" height="13.228" fill="none"/>
    </clipPath>
  </defs>
  <g id="Grupo_72232" data-name="Grupo 72232" transform="translate(-285 -1464)">
    <g id="Grupo_71864" data-name="Grupo 71864" transform="translate(285 1464)">
      <g id="Grupo_71863" data-name="Grupo 71863" clip-path="url(#clip-path)">
        <rect id="Rectángulo_8959" data-name="Rectángulo 8959" width="162.301" height="32.833" transform="translate(64.304 714.686)" fill="#1c9873"/>
        <path id="Trazado_159949" data-name="Trazado 159949" d="M46.861,182.281,83.93,201.053,137.4,165.706l18.148,21.872L98.67,233.133l-40.279.273L33.074,197.975Z" transform="translate(22.043 110.438)" fill="#e1e1e1"/>
        <path id="Trazado_159950" data-name="Trazado 159950" d="M58.391,233.461l-.01-.015L33.047,197.993l.018-.023L46.87,182.255l.025.012,37.051,18.764,53.477-35.354.02.025,18.171,21.9-.028.023L98.7,233.187h-.013ZM33.139,198l25.289,35.392,40.249-.273,56.835-45.523-18.1-21.819L83.951,201.114l-.02-.01L46.887,182.345Z" transform="translate(22.025 110.418)" fill="#1a2e35"/>
        <g id="Grupo_71839" data-name="Grupo 71839">
          <g id="Grupo_71838" data-name="Grupo 71838" clip-path="url(#clip-path)">
            <g id="Grupo_71837" data-name="Grupo 71837" transform="translate(55.117 276.144)" opacity="0.3">
              <g id="Grupo_71836" data-name="Grupo 71836">
                <g id="Grupo_71835" data-name="Grupo 71835" clip-path="url(#clip-path-3)">
                  <path id="Trazado_159951" data-name="Trazado 159951" d="M46.861,182.281,83.93,201.053,137.4,165.706l18.148,21.872L98.67,233.133l-40.279.273L33.074,197.975Z" transform="translate(-33.074 -165.706)"/>
                </g>
              </g>
            </g>
          </g>
        </g>
        <rect id="Rectángulo_8962" data-name="Rectángulo 8962" width="157.838" height="141.21" transform="translate(180.357 57.79)" fill="#c6faed"/>
        <g id="Grupo_71862" data-name="Grupo 71862">
          <g id="Grupo_71861" data-name="Grupo 71861" clip-path="url(#clip-path)">
            <path id="Trazado_159952" data-name="Trazado 159952" d="M266.233,176.057s-.027-.9-.04-2.621c-.01-1.733-.023-4.266-.042-7.566-.022-6.629-.052-16.321-.092-28.665-.045-24.672-.108-59.928-.185-102.358l.358.357c-45.456.02-99.7.042-157.823.065H108.4l.422-.422c-.018,51.374-.035,99.716-.05,141.21l-.372-.372c47.086.078,86.5.142,114.16.188l32.2.1,8.524.045,2.2.02c.495.007.758.022.758.022s-.235.013-.715.022l-2.158.02-8.452.043-32.115.1-114.4.188h-.37v-.372c-.015-41.493-.033-89.836-.052-141.21v-.423h.437c58.12.025,112.367.047,157.823.065h.358v.358c-.077,42.525-.14,77.857-.185,102.584-.04,12.31-.072,21.974-.092,28.585-.018,3.27-.032,5.781-.042,7.5-.013,1.69-.04,2.543-.04,2.543" transform="translate(71.961 22.942)" fill="#b2e1d5"/>
            <path id="Trazado_159953" data-name="Trazado 159953" d="M159.385,49.9c0,.233-8.307.422-18.553.422s-18.556-.188-18.556-.422,8.306-.422,18.556-.422,18.553.188,18.553.422" transform="translate(81.493 32.977)" fill="#b2e1d5"/>
            <path id="Trazado_159954" data-name="Trazado 159954" d="M225.448,56.265c0,.233-22.826.422-50.972.422S123.5,56.5,123.5,56.265s22.819-.422,50.976-.422,50.972.188,50.972.422" transform="translate(82.309 37.218)" fill="#b2e1d5"/>
            <rect id="Rectángulo_8963" data-name="Rectángulo 8963" width="6.649" height="6.649" transform="translate(204.041 111.443)" fill="#b2e1d5"/>
            <rect id="Rectángulo_8964" data-name="Rectángulo 8964" width="6.649" height="6.649" transform="translate(220.409 111.443)" fill="#b2e1d5"/>
            <rect id="Rectángulo_8965" data-name="Rectángulo 8965" width="6.649" height="6.649" transform="translate(237.08 111.142)" fill="#b2e1d5"/>
            <rect id="Rectángulo_8966" data-name="Rectángulo 8966" width="6.649" height="6.649" transform="translate(253.146 111.443)" fill="#b2e1d5"/>
            <rect id="Rectángulo_8967" data-name="Rectángulo 8967" width="6.649" height="6.649" transform="translate(269.514 111.443)" fill="#b2e1d5"/>
            <rect id="Rectángulo_8968" data-name="Rectángulo 8968" width="6.649" height="6.649" transform="translate(285.882 111.443)" fill="#b2e1d5"/>
            <rect id="Rectángulo_8969" data-name="Rectángulo 8969" width="6.649" height="6.649" transform="translate(302.25 111.443)" fill="#bbecdf"/>
            <rect id="Rectángulo_8970" data-name="Rectángulo 8970" width="6.649" height="6.649" transform="translate(204.041 125.58)" fill="#bbecdf"/>
            <rect id="Rectángulo_8971" data-name="Rectángulo 8971" width="6.649" height="6.649" transform="translate(220.409 125.58)" fill="#b2e1d5"/>
            <rect id="Rectángulo_8972" data-name="Rectángulo 8972" width="6.649" height="6.649" transform="translate(236.778 125.58)" fill="#bbecdf"/>
            <rect id="Rectángulo_8973" data-name="Rectángulo 8973" width="6.649" height="6.649" transform="translate(253.146 125.58)" fill="#b2e1d5"/>
            <rect id="Rectángulo_8974" data-name="Rectángulo 8974" width="6.649" height="6.649" transform="translate(269.514 125.58)" fill="#b2e1d5"/>
            <rect id="Rectángulo_8975" data-name="Rectángulo 8975" width="6.649" height="6.649" transform="translate(286.184 125.278)" fill="#b2e1d5"/>
            <rect id="Rectángulo_8976" data-name="Rectángulo 8976" width="6.649" height="6.649" transform="translate(302.25 125.58)" fill="#b2e1d5"/>
            <rect id="Rectángulo_8977" data-name="Rectángulo 8977" width="6.649" height="6.649" transform="translate(204.041 139.717)" fill="#b2e1d5"/>
            <rect id="Rectángulo_8978" data-name="Rectángulo 8978" width="6.649" height="6.649" transform="translate(220.712 139.415)" fill="#b2e1d5"/>
            <rect id="Rectángulo_8979" data-name="Rectángulo 8979" width="6.649" height="6.649" transform="translate(236.778 139.717)" fill="#b2e1d5"/>
            <rect id="Rectángulo_8980" data-name="Rectángulo 8980" width="6.649" height="6.649" transform="translate(253.146 139.717)" fill="#bbecdf"/>
            <rect id="Rectángulo_8981" data-name="Rectángulo 8981" width="6.649" height="6.649" transform="translate(269.514 139.717)" fill="#b2e1d5"/>
            <rect id="Rectángulo_8982" data-name="Rectángulo 8982" width="6.649" height="6.649" transform="translate(285.882 139.717)" fill="#b2e1d5"/>
            <rect id="Rectángulo_8983" data-name="Rectángulo 8983" width="6.649" height="6.649" transform="translate(302.25 139.717)" fill="#b2e1d5"/>
            <rect id="Rectángulo_8984" data-name="Rectángulo 8984" width="6.649" height="6.649" transform="translate(204.041 153.853)" fill="#b2e1d5"/>
            <rect id="Rectángulo_8985" data-name="Rectángulo 8985" width="6.649" height="6.649" transform="translate(220.409 153.853)" fill="#b2e1d5"/>
            <rect id="Rectángulo_8986" data-name="Rectángulo 8986" width="6.649" height="6.649" transform="translate(236.778 153.853)" fill="#b2e1d5"/>
            <rect id="Rectángulo_8987" data-name="Rectángulo 8987" width="6.649" height="6.649" transform="translate(253.448 153.552)" fill="#b2e1d5"/>
            <rect id="Rectángulo_8988" data-name="Rectángulo 8988" width="6.649" height="6.649" transform="translate(269.514 153.853)" fill="#b2e1d5"/>
            <rect id="Rectángulo_8989" data-name="Rectángulo 8989" width="6.649" height="6.649" transform="translate(285.882 153.853)" fill="#bbecdf"/>
            <rect id="Rectángulo_8990" data-name="Rectángulo 8990" width="6.649" height="6.649" transform="translate(302.25 153.853)" fill="#b2e1d5"/>
            <rect id="Rectángulo_8991" data-name="Rectángulo 8991" width="6.649" height="6.649" transform="translate(204.041 167.99)" fill="#b2e1d5"/>
            <rect id="Rectángulo_8992" data-name="Rectángulo 8992" width="6.649" height="6.649" transform="translate(220.409 167.99)" fill="#bbecdf"/>
            <rect id="Rectángulo_8993" data-name="Rectángulo 8993" width="6.649" height="6.649" transform="translate(236.778 167.99)" fill="#b2e1d5"/>
            <rect id="Rectángulo_8994" data-name="Rectángulo 8994" width="6.649" height="6.649" transform="translate(253.146 167.99)" fill="#b2e1d5"/>
            <rect id="Rectángulo_8995" data-name="Rectángulo 8995" width="6.649" height="6.649" transform="translate(269.514 167.99)" fill="#b2e1d5"/>
            <rect id="Rectángulo_8996" data-name="Rectángulo 8996" width="6.649" height="6.649" transform="translate(286.184 167.688)" fill="#b2e1d5"/>
            <rect id="Rectángulo_8997" data-name="Rectángulo 8997" width="6.649" height="6.649" transform="translate(302.25 167.99)" fill="#b2e1d5"/>
            <path id="Trazado_159955" data-name="Trazado 159955" d="M302.324,49.634a53.112,53.112,0,1,1,49.517,56.478,53.111,53.111,0,0,1-49.517-56.478" transform="translate(201.412 0)" fill="#bbecdf"/>
            <path id="Trazado_159956" data-name="Trazado 159956" d="M358.452,45.371a10.819,10.819,0,0,1-1.876.125l-5.163.1c-4.379.06-10.482.1-17.371.113H333.7v-.342c0-1.1,0-2.265,0-3.445,0-7.694.038-14.658.1-19.7.043-2.43.082-4.441.108-5.969a13.217,13.217,0,0,1,.135-2.188,13.564,13.564,0,0,1,.133,2.188c.028,1.528.065,3.54.108,5.969.063,5.041.1,12.005.1,19.7,0,1.18,0,2.343,0,3.445l-.34-.342c6.889.012,12.992.053,17.371.113,2.1.042,3.835.077,5.163.1a10.741,10.741,0,0,1,1.876.123" transform="translate(222.398 9.377)" fill="#c6faed"/>
            <path id="Trazado_159957" data-name="Trazado 159957" d="M334.138,5.236c.19,0,.343,2,.343,4.461s-.153,4.461-.343,4.461-.343-2-.343-4.461.153-4.461.343-4.461" transform="translate(222.463 3.49)" fill="#c6faed"/>
            <path id="Trazado_159958" data-name="Trazado 159958" d="M351.014,9.54c.135.135-1.15,1.635-2.866,3.353s-3.218,3-3.353,2.866,1.15-1.635,2.866-3.353,3.22-3,3.353-2.866" transform="translate(229.788 6.352)" fill="#c6faed"/>
            <path id="Trazado_159959" data-name="Trazado 159959" d="M360.021,18.821c.087.173-1.6,1.187-3.66,2.443s-3.741,2.281-3.855,2.125,1.4-1.443,3.5-2.713,3.935-2.021,4.016-1.855" transform="translate(234.931 12.528)" fill="#c6faed"/>
            <path id="Trazado_159960" data-name="Trazado 159960" d="M366.856,32.713c0,.19-2.725.343-6.084.343s-6.083-.153-6.083-.343,2.723-.343,6.083-.343,6.084.153,6.084.343" transform="translate(236.389 21.574)" fill="#c6faed"/>
            <path id="Trazado_159961" data-name="Trazado 159961" d="M315.963,32.226c0,.19-2.573.343-5.746.343s-5.746-.153-5.746-.343,2.573-.343,5.746-.343,5.746.153,5.746.343" transform="translate(202.92 21.249)" fill="#c6faed"/>
            <path id="Trazado_159962" data-name="Trazado 159962" d="M318.594,42.341c.125.143-1.82,1.906-4.341,3.938s-4.66,3.556-4.773,3.4,1.83-1.916,4.341-3.94,4.648-3.546,4.773-3.4" transform="translate(206.255 28.212)" fill="#c6faed"/>
            <path id="Trazado_159963" data-name="Trazado 159963" d="M326.223,50.264c.158.115-1.283,2.333-2.955,5.123s-2.96,5.1-3.136,5.013.85-2.55,2.546-5.368,3.4-4.878,3.544-4.768" transform="translate(213.346 33.496)" fill="#c6faed"/>
            <path id="Trazado_159964" data-name="Trazado 159964" d="M334.138,65.35c-.19,0-.343-2.725-.343-6.084s.153-6.083.343-6.083.343,2.723.343,6.083-.153,6.084-.343,6.084" transform="translate(222.463 35.445)" fill="#c6faed"/>
            <path id="Trazado_159965" data-name="Trazado 159965" d="M353.383,58.8c-.1.153-2.476-1.215-5.016-3.436s-4.228-4.384-4.09-4.5,2.035,1.8,4.541,3.983,4.674,3.79,4.564,3.955" transform="translate(229.444 33.892)" fill="#c6faed"/>
            <path id="Trazado_159966" data-name="Trazado 159966" d="M360.154,50.7c-.135.133-1.938-1.451-4.028-3.543s-3.678-3.895-3.543-4.028,1.938,1.451,4.028,3.543,3.678,3.893,3.543,4.028" transform="translate(234.98 28.737)" fill="#c6faed"/>
            <path id="Trazado_159967" data-name="Trazado 159967" d="M317.265,24.926c-.135.135-1.726-1.24-3.555-3.07s-3.2-3.421-3.07-3.555,1.725,1.24,3.555,3.07,3.2,3.421,3.07,3.555" transform="translate(207.026 12.191)" fill="#c6faed"/>
            <path id="Trazado_159968" data-name="Trazado 159968" d="M326.331,15.265c-.135.135-1.7-1.207-3.495-2.995s-3.143-3.346-3.01-3.48,1.7,1.2,3.495,2.993,3.143,3.346,3.01,3.481" transform="translate(213.148 5.853)" fill="#c6faed"/>
            <rect id="Rectángulo_8998" data-name="Rectángulo 8998" width="155.335" height="225.151" transform="translate(722.497 21.964)" fill="#b2e1d5"/>
            <rect id="Rectángulo_8999" data-name="Rectángulo 8999" width="155.335" height="225.151" transform="translate(714.716 21.964)" fill="#c2f5e8"/>
            <rect id="Rectángulo_9000" data-name="Rectángulo 9000" width="116.736" height="176.381" transform="translate(734.016 46.349)" fill="#fff"/>
            <path id="Trazado_159969" data-name="Trazado 159969" d="M557.367,204.362s-.015-.3-.023-.863c-.005-.582-.013-1.413-.022-2.5-.012-2.218-.027-5.463-.048-9.676-.023-8.452-.058-20.773-.1-36.332-.047-31.1-.113-75.144-.192-127.01l.388.388L440.645,28.4h-.013l.422-.423c-.032,66.539-.062,127.886-.085,176.381l-.337-.337,84.968.177,23.476.087,6.161.037c1.4.013,2.131.037,2.131.037s-.687.023-2.06.037l-6.1.037-23.4.087-85.178.177h-.337v-.337c-.025-48.494-.053-109.842-.087-176.381V27.56h.437l116.723.035h.388l0,.387c-.077,51.969-.143,96.1-.19,127.263-.045,15.525-.08,27.813-.1,36.246-.022,4.18-.037,7.4-.048,9.6-.01,1.068-.017,1.885-.022,2.458-.008.548-.023.817-.023.817" transform="translate(293.384 18.368)" fill="#b2e1d5"/>
            <path id="Trazado_159970" data-name="Trazado 159970" d="M530.815,13.181a26.934,26.934,0,0,1-2.768,4.023c-1.8,2.413-4.366,5.7-7.289,9.244s-5.656,6.693-7.677,8.927a26.761,26.761,0,0,1-3.418,3.486,29.224,29.224,0,0,1,2.965-3.876c2.083-2.526,4.644-5.636,7.479-9.074s5.389-6.549,7.471-9.077a29.028,29.028,0,0,1,3.238-3.653" transform="translate(339.67 8.783)" fill="#b2e1d5"/>
            <path id="Trazado_159971" data-name="Trazado 159971" d="M510.869,133.313a144.549,144.549,0,0,0,20.361,25.464" transform="translate(340.477 88.849)" fill="#fff"/>
            <path id="Trazado_159972" data-name="Trazado 159972" d="M531.231,158.777a23.116,23.116,0,0,1-3.55-3.23,113.739,113.739,0,0,1-14.442-18.061,23.217,23.217,0,0,1-2.37-4.173,31.989,31.989,0,0,1,2.865,3.838c1.711,2.4,4.118,5.691,6.926,9.207s5.488,6.581,7.456,8.781a31.923,31.923,0,0,1,3.115,3.638" transform="translate(340.474 88.848)" fill="#b2e1d5"/>
            <path id="Trazado_159973" data-name="Trazado 159973" d="M428.867,158.22q10.174-12.551,20.346-25.1" transform="translate(285.826 88.717)" fill="#fff"/>
            <path id="Trazado_159974" data-name="Trazado 159974" d="M449.217,133.117c.18.147-4.228,5.886-9.845,12.817s-10.319,12.434-10.5,12.287,4.228-5.884,9.846-12.818,10.319-12.432,10.5-12.285" transform="translate(285.824 88.716)" fill="#b2e1d5"/>
            <path id="Trazado_159975" data-name="Trazado 159975" d="M428.883,13.181c.183-.145,4.6,5.141,9.875,11.805s9.4,12.187,9.214,12.33-4.6-5.139-9.877-11.805-9.4-12.185-9.212-12.33" transform="translate(285.833 8.783)" fill="#b2e1d5"/>
            <rect id="Rectángulo_9001" data-name="Rectángulo 9001" width="39.089" height="110.982" transform="translate(775.292 82.162)" fill="#b2e1d5"/>
            <path id="Trazado_159976" data-name="Trazado 159976" d="M389.28,353.917a57.815,57.815,0,0,0-24.735-8.514c-4.041-.415-8.457-.3-11.7,2.151a2.407,2.407,0,0,0-1.2,2.136,2.614,2.614,0,0,0,1.145,1.461c10.064,7.677,25.287,8.647,36.5,2.765" transform="translate(234.342 230.077)" fill="#d1fff1"/>
            <path id="Trazado_159977" data-name="Trazado 159977" d="M384.351,365.527c-5.6-4.369-11.232-8.769-15.977-14.057s-8.6-11.564-10.015-18.523c-.43-2.111-.563-4.524.792-6.2,12.735,9.945,22.737,22.809,25.2,38.779" transform="translate(238.636 217.767)" fill="#d1fff1"/>
            <path id="Trazado_159978" data-name="Trazado 159978" d="M374.464,365.691c-.96-6.966-1.3-14.127.295-20.976s5.326-13.4,11.174-17.308c2.2,5.144,1.255,11.069-.295,16.445a79.935,79.935,0,0,1-11.079,23.326" transform="translate(249.027 218.206)" fill="#d1fff1"/>
            <path id="Trazado_159979" data-name="Trazado 159979" d="M394.1,363.8c-7.577.922-14.178,4.916-19.836,10.04a37.513,37.513,0,0,0-11.347,19.478c7.432-.46,13.738-5.7,18.313-11.579s7.742-12.327,12.767-17.825" transform="translate(241.873 242.463)" fill="#d1fff1"/>
            <path id="Trazado_159980" data-name="Trazado 159980" d="M384.621,384.458a48.92,48.92,0,0,1,5.649-46.278c4.318,15.356,2.731,32.7-5.649,46.278" transform="translate(254.064 225.386)" fill="#d1fff1"/>
            <path id="Trazado_159981" data-name="Trazado 159981" d="M406.888,377.763a35.38,35.38,0,0,0-33.826,19.471c-.42.838-.79,1.9-.228,2.653a2.513,2.513,0,0,0,2.243.66c6.666-.432,12.575-4.443,17.449-9.011s9.122-9.844,14.51-13.793" transform="translate(248.292 251.722)" fill="#d1fff1"/>
            <path id="Trazado_159982" data-name="Trazado 159982" d="M393.972,395.839a63,63,0,0,1-.628-35.192c1.24-4.531,3.321-9.3,7.509-11.424a1.473,1.473,0,0,1,1.15-.2,1.518,1.518,0,0,1,.727.842,21.2,21.2,0,0,1,1.77,10.1,63.305,63.305,0,0,1-1.581,10.222c-1.32,6.246-2.021,12.96-5.448,18.348a37.09,37.09,0,0,0-2.178,4.029c-.648,1.368-.653,1.851-1.248,2.94" transform="translate(260.682 232.575)" fill="#d1fff1"/>
            <path id="Trazado_159983" data-name="Trazado 159983" d="M419.525,396.5c-3.235-12.305.2-27.222,7.952-37.309.572-.743,1.328-1.54,2.261-1.453,1.428.133,1.8,2.035,1.733,3.468A67.409,67.409,0,0,1,419.525,396.5" transform="translate(278.791 238.418)" fill="#d1fff1"/>
            <path id="Trazado_159984" data-name="Trazado 159984" d="M421.4,387.771c14.95,3.89,32.1.108,44.533-9.057a36.057,36.057,0,0,0-24.107-2.96c-8.054,1.843-15.413,5.451-20.426,12.017" transform="translate(280.851 249.84)" fill="#d1fff1"/>
            <path id="Trazado_159985" data-name="Trazado 159985" d="M423.394,387.042c8.372-13.65,24.424-22.559,40.417-23.371-1.841,6.5-7.187,11.56-13.218,14.615s-12.765,4.386-19.4,5.674c-2.581.5-6.123,1.053-7.8,3.081" transform="translate(282.178 242.376)" fill="#d1fff1"/>
            <path id="Trazado_159986" data-name="Trazado 159986" d="M421.861,372.67c2.266-7.767,4.546-15.6,5.169-23.671s-.528-16.49-4.714-23.414c-7.821,15.133-8.612,32.816-.69,47.9" transform="translate(277.287 216.992)" fill="#d1fff1"/>
            <path id="Trazado_159987" data-name="Trazado 159987" d="M435.339,358.556c9.146-16.623,27.8-29.9,46.686-31.761-7.284,18.136-27.147,32.151-46.686,31.761" transform="translate(290.139 217.798)" fill="#d1fff1"/>
            <path id="Trazado_159988" data-name="Trazado 159988" d="M431.886,348.9c13.64,2.078,25.26,10.789,38.007,16.07,2.726,1.13,5.668,2.03,8.592,1.646s5.813-2.346,6.468-5.223a7.5,7.5,0,0,0-2.256-6.676,18.384,18.384,0,0,0-6.241-3.786c-13.883-5.779-28.772-5.924-43.4-2.42" transform="translate(287.838 230.713)" fill="#d1fff1"/>
            <path id="Trazado_159989" data-name="Trazado 159989" d="M427.15,353.813c3.088.885,4.143,2.483,6.588,4.566a71.089,71.089,0,0,0,28.822,14.8c1.1.273,2.546.383,3.091-.612.477-.87-.127-1.921-.745-2.7-4.431-5.544-10.752-9.336-17.4-11.812s-12.414-5.463-20.353-4.823" transform="translate(284.681 235.365)" fill="#d1fff1"/>
            <path id="Trazado_159990" data-name="Trazado 159990" d="M421.8,319.468A54.552,54.552,0,0,0,463.623,333.7a2.873,2.873,0,0,0,1.9-.685c1.053-1.145-.21-2.911-1.436-3.868-12.3-9.586-27.187-13.56-42.285-9.676" transform="translate(281.119 211.931)" fill="#d1fff1"/>
            <path id="Trazado_159991" data-name="Trazado 159991" d="M428.142,321.1a58.284,58.284,0,0,1,52.18-8.611c-6.571,6.478-15.688,9.962-24.865,10.917a78.7,78.7,0,0,1-27.315-2.306" transform="translate(285.343 206.434)" fill="#d1fff1"/>
            <path id="Trazado_159992" data-name="Trazado 159992" d="M428.443,315.385c-1.208-12.272-.423-21.959-1.275-34.288-.068-.985-.28-2.17-1.2-2.525-1.283-.495-2.353,1.083-2.775,2.391a39.308,39.308,0,0,0,5.233,34.151" transform="translate(280.845 185.598)" fill="#d1fff1"/>
            <path id="Trazado_159993" data-name="Trazado 159993" d="M425.094,316.869c8.317-5.144,14.557-11.862,20.328-19.758,4.015-5.493,7.4-12.074,6.488-18.818-5.638-.112-11,3-14.663,7.282s-5.848,9.639-7.476,15.038-2.766,10.949-4.676,16.255" transform="translate(283.311 185.471)" fill="#d1fff1"/>
            <path id="Trazado_159994" data-name="Trazado 159994" d="M437.183,310.4a163.934,163.934,0,0,0,50.026-29.5c-5.976-2.406-12.817-.967-18.791,1.445-13.65,5.509-24.8,14.81-31.5,27.92" transform="translate(291.194 186.388)" fill="#d1fff1"/>
            <path id="Trazado_159995" data-name="Trazado 159995" d="M428.464,311.255c9.232,1.01,18.614,1.666,27.777.135,9.006-1.5,17.516-5.074,25.932-8.616a3.05,3.05,0,0,0,1.763-1.338,2.028,2.028,0,0,0-.632-2.22,5.353,5.353,0,0,0-2.21-1.037c-9.151-2.558-19.024-1.36-28.027,1.675a130,130,0,0,0-24.6,11.4" transform="translate(285.557 197.798)" fill="#d1fff1"/>
            <path id="Trazado_159996" data-name="Trazado 159996" d="M398.672,335.393c-6.3-12.718-5.891-27.56-.448-40.667,3.831,5.838,4.3,13.272,3.6,20.219s-2.815,14.1-2.953,21.079" transform="translate(262.617 196.425)" fill="#d1fff1"/>
            <path id="Trazado_159997" data-name="Trazado 159997" d="M398.573,311.516a56.725,56.725,0,0,0-42.148,17.955c7.852,1.233,15.938-.792,23.079-4.278s13.488-8.381,19.779-13.238" transform="translate(237.546 207.609)" fill="#d1fff1"/>
            <path id="Trazado_159998" data-name="Trazado 159998" d="M387.419,308.412c-7.7-.623-15.1-1.576-22.5.69s-14.133,7.414-17.15,14.542c7.2.812,14.5-.993,21.094-3.983s12.6-7.131,18.554-11.249" transform="translate(231.777 205.053)" fill="#d1fff1"/>
            <path id="Trazado_159999" data-name="Trazado 159999" d="M404.64,313c-6.922-4.536-14.032-9.156-22.092-11.034s-17.4-.492-23.024,5.584c6.526,3.83,14.442,4.281,22.007,4.276s16.841-.092,23.974,2.431" transform="translate(239.611 200.728)" fill="#d1fff1"/>
            <path id="Trazado_160000" data-name="Trazado 160000" d="M391.994,327.842c-11.835-11.622-16.321-32.5-11.56-48.389a73.722,73.722,0,0,1,11.56,48.389" transform="translate(252.299 186.246)" fill="#d1fff1"/>
            <path id="Trazado_160001" data-name="Trazado 160001" d="M406.151,304c2.231-5.189,3.8-10.635,5.8-15.918s4.491-10.479,8.276-14.673,9.017-7.317,14.658-7.6a59.035,59.035,0,0,1-28.448,38.272" transform="translate(270.686 177.156)" fill="#d1fff1"/>
            <path id="Trazado_160002" data-name="Trazado 160002" d="M414.861,301.19c-3.695-5.084-7.961-11.985-12.97-15.781s-11.532-6.091-17.646-4.634a41.1,41.1,0,0,0,30.616,20.416" transform="translate(256.087 186.832)" fill="#d1fff1"/>
            <path id="Trazado_160003" data-name="Trazado 160003" d="M405.83,304.235c-2.421-6.153-4.859-12.37-5.839-18.908s-.383-13.523,2.961-19.228c6.5,12.282,8.589,25.464,3.21,38.275" transform="translate(266.297 177.347)" fill="#d1fff1"/>
            <path id="Trazado_160004" data-name="Trazado 160004" d="M406.187,276.511c3.68-12.175,14.828-21.139,26.863-25.252a10.025,10.025,0,0,1,4.709-.707,4.089,4.089,0,0,1,3.471,2.9c.44,2.071-1.272,3.926-2.881,5.3a91.424,91.424,0,0,1-32.163,17.758" transform="translate(270.71 166.938)" fill="#d1fff1"/>
            <path id="Trazado_160005" data-name="Trazado 160005" d="M406.344,276.491c.468-7.849.958-15.813,3.511-23.251s7.473-14.415,14.632-17.67c1.218,7.927-2.28,15.816-6.5,22.637s-9.3,13.262-11.837,20.872" transform="translate(270.686 157)" fill="#d1fff1"/>
            <path id="Trazado_160006" data-name="Trazado 160006" d="M415.281,280.436c-3.041-8.872-3.356-20.143-8.669-27.872-3.715-5.4-9.661-9.084-12.862-14.807-2.125,5.344-1.475,11.5.748,16.808s5.9,9.872,9.829,14.072,7.3,7.357,10.954,11.8" transform="translate(261.557 158.458)" fill="#d1fff1"/>
            <path id="Trazado_160007" data-name="Trazado 160007" d="M406.371,525.894c-.237,0-.442-59.188-.458-132.184-.017-73.021.163-132.2.4-132.2s.442,59.175.458,132.2c.017,73-.162,132.184-.4,132.184" transform="translate(270.527 174.29)" fill="#d1fff1"/>
            <path id="Trazado_160008" data-name="Trazado 160008" d="M457.941,313.774a12.6,12.6,0,0,1-2.225.835c-1.6.54-3.656,1.235-6.124,2.066-5.164,1.76-12.259,4.308-19.958,7.462-7.624,3.27-14.813,5.926-18.908,9.472a13.919,13.919,0,0,0-3.8,5.026c-.587,1.39-.692,2.241-.77,2.225a1.731,1.731,0,0,1,.025-.62,9.55,9.55,0,0,1,.435-1.725,13.364,13.364,0,0,1,3.708-5.358,33.213,33.213,0,0,1,8.2-5.1c3.281-1.531,6.919-3.13,10.78-4.716,7.722-3.165,14.871-5.629,20.094-7.246,2.61-.813,4.74-1.413,6.216-1.81a12.658,12.658,0,0,1,2.321-.517" transform="translate(270.68 209.113)" fill="#d1fff1"/>
            <path id="Trazado_160009" data-name="Trazado 160009" d="M473.267,288.781a3.757,3.757,0,0,1-.623.667l-1.9,1.783-7.091,6.441c-6.123,5.451-14.425,12.845-23.6,21.012-9.212,8.2-17.173,16.036-22.691,21.936-2.763,2.945-4.938,5.386-6.423,7.089l-1.715,1.96a3.547,3.547,0,0,1-.64.648,3.617,3.617,0,0,1,.507-.757c.358-.477.88-1.185,1.593-2.065,1.408-1.773,3.52-4.279,6.233-7.286a298.973,298.973,0,0,1,22.566-22.164c9.244-8.181,17.656-15.53,23.769-20.828,3-2.575,5.461-4.686,7.271-6.238l2-1.663a3.681,3.681,0,0,1,.738-.537" transform="translate(272.308 192.462)" fill="#d1fff1"/>
            <path id="Trazado_160010" data-name="Trazado 160010" d="M421.509,319.923c-.242-.107,1.683-4.551,3.6-10.17,1.936-5.619,2.846-10.36,3.093-10.32.223.022-.322,4.9-2.281,10.594a68.969,68.969,0,0,1-2.866,7.114,11.08,11.08,0,0,1-1.545,2.783" transform="translate(280.908 199.561)" fill="#d1fff1"/>
            <path id="Trazado_160011" data-name="Trazado 160011" d="M419.939,350.51a10.483,10.483,0,0,1-1.42-1.648l-3.636-4.663c-3.055-3.949-7.277-9.4-12.012-15.363s-9.086-11.317-12.239-15.188c-1.485-1.84-2.731-3.381-3.716-4.6a10.575,10.575,0,0,1-1.282-1.757,10.631,10.631,0,0,1,1.535,1.54c.948,1.028,2.29,2.54,3.926,4.428,3.275,3.775,7.7,9.071,12.447,15.043s8.891,11.489,11.824,15.533c1.468,2.021,2.636,3.673,3.421,4.829a10.562,10.562,0,0,1,1.152,1.845" transform="translate(257.011 204.799)" fill="#d1fff1"/>
            <path id="Trazado_160012" data-name="Trazado 160012" d="M401.768,331.645c-.14.15-3.166-3.44-4.751-8.894a25.422,25.422,0,0,1-1.078-8.969l.378.032c-.168.685-.293,1.047-.36,1.035s-.072-.392-.015-1.1l.378.032a40.909,40.909,0,0,0,1.516,8.722c1.532,5.286,4.161,8.994,3.931,9.139" transform="translate(263.842 209.105)" fill="#d1fff1"/>
            <path id="Trazado_160013" data-name="Trazado 160013" d="M400.874,314.891a15.283,15.283,0,0,0-3.318-1.926c-2.215-.858-5.549-1.047-9.209-.733a57.03,57.03,0,0,0-9.276,1.5,28.179,28.179,0,0,1-3.816.917,13.316,13.316,0,0,1,3.655-1.5,42.369,42.369,0,0,1,9.372-1.768c3.7-.318,7.211-.033,9.5,1.025,2.321,1.028,3.166,2.468,3.09,2.488" transform="translate(250.095 207.441)" fill="#d1fff1"/>
            <path id="Trazado_160014" data-name="Trazado 160014" d="M402.942,312.934c-.065.133-1.931-.775-5.083-1.851a51.135,51.135,0,0,0-25.61-1.951c-3.276.587-5.259,1.2-5.3,1.058a4.838,4.838,0,0,1,1.348-.573,31.338,31.338,0,0,1,3.838-1.078,45.19,45.19,0,0,1,25.937,1.976,31.735,31.735,0,0,1,3.63,1.648,4.787,4.787,0,0,1,1.245.772" transform="translate(244.556 204.934)" fill="#d1fff1"/>
            <path id="Trazado_160015" data-name="Trazado 160015" d="M408.795,309.814c-.228.058-1.888-5.706-3.706-12.874s-3.106-13.028-2.878-13.087,1.888,5.706,3.706,12.875,3.106,13.027,2.878,13.085" transform="translate(268.043 189.179)" fill="#d1fff1"/>
            <path id="Trazado_160016" data-name="Trazado 160016" d="M410.355,305.016c-.255.083-1.322-3.77-4.108-7.707-2.711-4.023-6.173-6.041-6.046-6.241a5.647,5.647,0,0,1,2.333,1.2,18.814,18.814,0,0,1,4.413,4.544c2.893,4.1,3.615,8.184,3.408,8.2" transform="translate(266.719 193.978)" fill="#d1fff1"/>
            <path id="Trazado_160017" data-name="Trazado 160017" d="M427.873,435.778c-.092.013-.267-1.423-.933-3.936a56.1,56.1,0,0,0-3.956-10.247c-4.088-8.357-11.53-18.953-20.984-29.566-4.686-5.353-9.231-10.4-13.09-15.237a107.217,107.217,0,0,1-9.359-13.5,64.711,64.711,0,0,1-4.724-10.019c-.435-1.233-.753-2.2-.928-2.865a4.86,4.86,0,0,1-.243-1.022c.077-.025.507,1.355,1.482,3.768a73.374,73.374,0,0,0,4.936,9.831,113.292,113.292,0,0,0,9.452,13.31c3.873,4.784,8.426,9.807,13.118,15.17,9.48,10.64,16.9,21.371,20.886,29.865a51.112,51.112,0,0,1,3.735,10.43,29.032,29.032,0,0,1,.523,2.968,4.947,4.947,0,0,1,.087,1.048" transform="translate(249.025 232.855)" fill="#d1fff1"/>
            <path id="Trazado_160018" data-name="Trazado 160018" d="M452.928,369.551a21.251,21.251,0,0,1-2.45,1.375,53.606,53.606,0,0,0-6.354,4.2,72.92,72.92,0,0,0-8.344,7.611c-2.928,3.093-5.946,6.686-9.024,10.535C420.6,401,414.843,407.833,411.4,413.289c-1.751,2.706-3.025,4.988-3.858,6.587a20.853,20.853,0,0,1-1.348,2.466,2.382,2.382,0,0,1,.227-.695c.183-.44.43-1.1.823-1.918a62.236,62.236,0,0,1,3.645-6.764c3.348-5.588,9.059-12.515,15.2-20.228,3.086-3.858,6.139-7.457,9.124-10.547a67.819,67.819,0,0,1,8.551-7.549,44.536,44.536,0,0,1,6.563-4.011c.81-.407,1.473-.657,1.911-.847a2.337,2.337,0,0,1,.692-.233" transform="translate(270.708 246.29)" fill="#d1fff1"/>
            <path id="Trazado_160019" data-name="Trazado 160019" d="M447.7,379.851a35.549,35.549,0,0,1-5.178.752,68.511,68.511,0,0,0-12.278,2.418,36.938,36.938,0,0,0-11,5.771c-2.535,1.958-3.73,3.578-3.848,3.483a4.024,4.024,0,0,1,.768-1.191,19.512,19.512,0,0,1,2.7-2.76,33.31,33.31,0,0,1,11.115-6.116A55.481,55.481,0,0,1,442.464,380a28.562,28.562,0,0,1,5.238-.15" transform="translate(276.85 253.116)" fill="#d1fff1"/>
            <path id="Trazado_160020" data-name="Trazado 160020" d="M416.317,393.167c-.27-.153,2.063-3.718,3.873-8.511,1.7-4.838,2.1-9.079,2.4-9.031a8.244,8.244,0,0,1-.087,2.778,29.848,29.848,0,0,1-1.51,6.544,31.712,31.712,0,0,1-3,6,8.345,8.345,0,0,1-1.675,2.216" transform="translate(277.447 250.342)" fill="#d1fff1"/>
            <path id="Trazado_160021" data-name="Trazado 160021" d="M468.058,341.96a3.966,3.966,0,0,1-.828.44l-2.433,1.107c-1.066.457-2.36,1.036-3.818,1.8s-3.17,1.531-4.946,2.6q-1.355.77-2.825,1.607c-.98.563-1.948,1.232-2.98,1.876-2.083,1.263-4.168,2.82-6.394,4.408a109.691,109.691,0,0,0-24.629,25.484c-1.511,2.28-2.995,4.418-4.186,6.543-.61,1.053-1.245,2.045-1.775,3.041s-1.027,1.96-1.508,2.878c-1.007,1.813-1.725,3.546-2.428,5.034s-1.253,2.795-1.675,3.875c-.413,1-.752,1.818-1.022,2.47a3.909,3.909,0,0,1-.412.843,3.767,3.767,0,0,1,.25-.9c.23-.668.52-1.5.873-2.531.375-1.1.867-2.438,1.546-3.946s1.348-3.273,2.326-5.113q.7-1.4,1.468-2.921c.517-1.013,1.141-2.02,1.743-3.086,1.173-2.155,2.645-4.323,4.149-6.631a105.706,105.706,0,0,1,24.807-25.67c2.256-1.583,4.371-3.128,6.484-4.373,1.047-.638,2.031-1.3,3.025-1.848l2.87-1.568c1.806-1.038,3.541-1.783,5.031-2.5s2.8-1.268,3.891-1.68l2.5-.96a3.82,3.82,0,0,1,.892-.28" transform="translate(270.716 227.902)" fill="#d1fff1"/>
            <path id="Trazado_160022" data-name="Trazado 160022" d="M421.123,359.3a5.95,5.95,0,0,1,2.035-3.03,12.843,12.843,0,0,1,8.194-3.145,22.434,22.434,0,0,1,8.626,1.685,12.288,12.288,0,0,1,3.26,1.585,20.178,20.178,0,0,1-3.46-1.013,26.034,26.034,0,0,0-8.4-1.4,13.34,13.34,0,0,0-7.829,2.746,24.239,24.239,0,0,0-2.428,2.571" transform="translate(280.659 235.344)" fill="#d1fff1"/>
            <path id="Trazado_160023" data-name="Trazado 160023" d="M417.809,366.442c-.235-.13,1.851-3.19,2.326-7.571.547-4.375-.78-7.831-.522-7.9a5,5,0,0,1,.962,2.2,15.653,15.653,0,0,1-1.323,11.345c-.723,1.308-1.362,1.985-1.443,1.925" transform="translate(278.444 233.907)" fill="#d1fff1"/>
            <path id="Trazado_160024" data-name="Trazado 160024" d="M381.656,406.317c1.275,22.619,8.092,45.625,18.576,68.882h45.591c10-23.027,16.345-46,17.473-68.882Z" transform="translate(254.361 270.797)" fill="#d1fff1"/>
            <path id="Trazado_160025" data-name="Trazado 160025" d="M453.028,428.452c0,.237-15.011.428-33.524.428s-33.528-.192-33.528-.428,15.008-.428,33.528-.428,33.524.192,33.524.428" transform="translate(257.24 285.264)" fill="#d1fff1"/>
            <path id="Trazado_160026" data-name="Trazado 160026" d="M450.74,433.369c0,.237-14.073.428-31.428.428s-31.431-.192-31.431-.428,14.07-.428,31.431-.428,31.428.192,31.428.428" transform="translate(258.51 288.541)" fill="#d1fff1"/>
            <path id="Trazado_160027" data-name="Trazado 160027" d="M393.416,415.229c.237,0,.428,4.7.428,10.5s-.192,10.5-.428,10.5-.428-4.7-.428-10.5.192-10.5.428-10.5" transform="translate(261.914 276.737)" fill="#d1fff1"/>
            <path id="Trazado_160028" data-name="Trazado 160028" d="M408.074,415.229c.237,0,.428,4.869.428,10.875s-.192,10.875-.428,10.875-.428-4.868-.428-10.875.192-10.875.428-10.875" transform="translate(271.683 276.737)" fill="#d1fff1"/>
            <path id="Trazado_160029" data-name="Trazado 160029" d="M421.835,415.118c.237,0,.428,4.966.428,11.092s-.192,11.092-.428,11.092-.428-4.964-.428-11.092.192-11.092.428-11.092" transform="translate(280.854 276.663)" fill="#d1fff1"/>
            <path id="Trazado_160030" data-name="Trazado 160030" d="M461.229,415.4c0,.237-17.606.428-39.32.428s-39.324-.192-39.324-.428,17.6-.428,39.324-.428,39.32.192,39.32.428" transform="translate(254.98 276.565)" fill="#d1fff1"/>
            <path id="Trazado_160031" data-name="Trazado 160031" d="M803.336,449c0,.24-154.656.433-345.387.433-190.8,0-345.419-.193-345.419-.433s154.621-.433,345.419-.433c190.731,0,345.387.193,345.387.433" transform="translate(74.998 298.954)" fill="#1a2e35"/>
            <path id="Trazado_160032" data-name="Trazado 160032" d="M280.555,352.5l-.275-43.786A7.466,7.466,0,0,0,273,301.293h-.012c-.2-.005-.4,0-.61.013l-4.868.113s-9.1,4.984-14.5,4.888c-16.6-.292-28.563-12.878-29.54-29.453-1.087-18.438,11.689-34.374,29.92-34.489,6.239-.038,16.4,6.753,16.4,6.753l4.951-.107a5.1,5.1,0,0,0,5.136-5.136l-.3-48.194a11.929,11.929,0,0,0-12-11.854l-44.876.282a5.585,5.585,0,0,1-5.048-8.052,32.009,32.009,0,0,0-36.6-45.118c-10.557,2.531-21.141,13.485-23.362,24.11a32.239,32.239,0,0,0,2.84,21.6,5.413,5.413,0,0,1-4.789,7.884l-45.156.285a11.922,11.922,0,0,0-11.847,12l.987,157.27a11.649,11.649,0,0,0,11.722,11.575l157.1-.987a12.1,12.1,0,0,0,12.019-12.17" transform="translate(65.802 86.635)" fill="#c85f5e"/>
            <path id="Trazado_160033" data-name="Trazado 160033" d="M154.8,155.115a32.231,32.231,0,0,0,2.84,21.6,5.413,5.413,0,0,1-4.789,7.884l-45.156.283a11.925,11.925,0,0,0-11.849,12l.988,157.269a11.647,11.647,0,0,0,11.72,11.575l157.1-.987a12.093,12.093,0,0,0,12.019-12.169l-.275-43.788a7.446,7.446,0,0,0-11.075-6.463,31.976,31.976,0,1,1,2.643-54.162,5.1,5.1,0,0,0,8.026-4.211l-.3-48.2a11.928,11.928,0,0,0-12-11.852l-44.88.282a5.585,5.585,0,0,1-5.046-8.052,32.012,32.012,0,0,0-36.6-45.12c-10.557,2.533-21.141,13.485-23.362,24.112" transform="translate(63.88 86.678)" fill="#eb9595"/>
            <path id="Trazado_160034" data-name="Trazado 160034" d="M404.768,281.636a32.328,32.328,0,0,1-21.669,2.723c-10.642-2.288-21.562-12.963-24.04-23.562a32.1,32.1,0,0,1,45.45-36.436,5.544,5.544,0,0,0,3,.567l.117-50.042a12.091,12.091,0,0,0-6.064-10.51l2.093-.13-5.833-1.268-.048,0a12.275,12.275,0,0,0-2.215-.21l-3.425-.008-40.364-.093a7.447,7.447,0,0,0-6.558,11.02,31.976,31.976,0,1,1-54.137-3.108,5.087,5.087,0,0,0-.192-6.174l2.488-.608-5.211-1.13a5.242,5.242,0,0,0-1.228-.15l-48.2-.112a11.928,11.928,0,0,0-11.955,11.9l-.1,44.88a5.586,5.586,0,0,1-8.1,4.978,32.011,32.011,0,0,0-45.431,36.209c2.441,10.577,13.3,21.256,23.91,23.567a32.231,32.231,0,0,0,21.619-2.653,5.411,5.411,0,0,1,7.842,4.856l-.1,45.156a11.92,11.92,0,0,0,11.894,11.95l157.273.365a11.651,11.651,0,0,0,11.675-11.624l.118-50.936a5.338,5.338,0,0,0-2.616.587" transform="translate(114.816 108.234)" fill="#1c9873"/>
            <path id="Trazado_160035" data-name="Trazado 160035" d="M410.524,286.022a5.427,5.427,0,0,0-7.877-4.848,32.317,32.317,0,0,1-21.669,2.723c-10.642-2.288-21.564-12.962-24.04-23.562A32.093,32.093,0,0,1,402.385,223.9a5.6,5.6,0,0,0,8.1-5.014l-.023-45c0-.33.023-.655.048-.978a12.092,12.092,0,0,0-11.767-9.452l-43.788-.1a7.447,7.447,0,0,0-6.558,11.02,31.976,31.976,0,1,1-54.139-3.108,5.1,5.1,0,0,0-4.141-8.062l-48.2-.112a11.93,11.93,0,0,0-11.955,11.9l-.1,44.878a5.586,5.586,0,0,1-8.1,4.978,32.011,32.011,0,0,0-45.431,36.209c2.441,10.579,13.3,21.256,23.91,23.567a32.242,32.242,0,0,0,21.619-2.653,5.411,5.411,0,0,1,7.842,4.856l-.1,45.158a11.924,11.924,0,0,0,11.9,11.95l157.273.363a11.651,11.651,0,0,0,11.675-11.624l.082-35.151Z" transform="translate(116.938 108.696)" fill="#8bebce"/>
            <path id="Trazado_160036" data-name="Trazado 160036" d="M517.811,281.636a32.328,32.328,0,0,1-21.669,2.723C485.5,282.071,474.58,271.4,472.1,260.8a32.1,32.1,0,0,1,45.45-36.436,5.544,5.544,0,0,0,3,.567l.117-50.042a12.091,12.091,0,0,0-6.064-10.51l2.093-.13-5.833-1.268-.048,0a12.276,12.276,0,0,0-2.215-.21l-3.425-.008-40.364-.093a7.447,7.447,0,0,0-6.557,11.02,31.976,31.976,0,1,1-54.137-3.108,5.087,5.087,0,0,0-.192-6.174l2.488-.608-5.211-1.13a5.241,5.241,0,0,0-1.228-.15l-48.2-.112a11.928,11.928,0,0,0-11.955,11.9l-.1,44.88a5.586,5.586,0,0,1-8.1,4.978A32.011,32.011,0,0,0,286.2,260.367c2.441,10.577,13.3,21.256,23.91,23.567a32.23,32.23,0,0,0,21.619-2.653,5.411,5.411,0,0,1,7.842,4.856l-.1,45.156a11.92,11.92,0,0,0,11.894,11.95l157.273.365a11.651,11.651,0,0,0,11.675-11.624l.118-50.936a5.338,5.338,0,0,0-2.616.587" transform="translate(190.156 108.234)" fill="#c85f5e"/>
            <path id="Trazado_160037" data-name="Trazado 160037" d="M523.567,286.022a5.427,5.427,0,0,0-7.877-4.848,32.318,32.318,0,0,1-21.669,2.723c-10.642-2.288-21.564-12.962-24.04-23.562A32.093,32.093,0,0,1,515.428,223.9a5.6,5.6,0,0,0,8.1-5.014l-.023-45c0-.33.023-.655.048-.978a12.092,12.092,0,0,0-11.767-9.452l-43.788-.1a7.447,7.447,0,0,0-6.558,11.02,31.976,31.976,0,1,1-54.138-3.108,5.1,5.1,0,0,0-4.141-8.062l-48.2-.112a11.93,11.93,0,0,0-11.955,11.9l-.1,44.878a5.586,5.586,0,0,1-8.1,4.978,32.011,32.011,0,0,0-45.431,36.209c2.441,10.579,13.3,21.256,23.91,23.567a32.242,32.242,0,0,0,21.619-2.653,5.411,5.411,0,0,1,7.842,4.856l-.105,45.158a11.924,11.924,0,0,0,11.9,11.95l157.273.363a11.651,11.651,0,0,0,11.675-11.624l.082-35.151Z" transform="translate(192.277 108.696)" fill="#eb9595"/>
            <path id="Trazado_160038" data-name="Trazado 160038" d="M617.615,162.406h-43.9a7.466,7.466,0,0,0-6.549,11.064c2.653,4.8-6.683,46.408-26.349,47.493a32.062,32.062,0,0,1-27.94-50.482,5.116,5.116,0,0,0-4.171-8.074H460.375a11.959,11.959,0,0,0-11.958,11.96s-4.381,51.869-8.106,50.007a31.876,31.876,0,0,0-12.637-3.32v0h-.043c-.54-.027-1.082-.043-1.628-.043s-8.5-.135-8.5-.135l-1.207,64.1,6.908.073c6.568-.195,12.27-.81,17.341-3.395a5.426,5.426,0,0,1,7.874,4.851v45.276a11.955,11.955,0,0,0,11.955,11.955H618.062a11.68,11.68,0,0,0,11.68-11.68V174.533a12.127,12.127,0,0,0-12.127-12.127" transform="translate(277.446 108.238)" fill="#1c9873"/>
            <path id="Trazado_160039" data-name="Trazado 160039" d="M422.707,284.277a32.322,32.322,0,0,0,21.671-2.711,5.427,5.427,0,0,1,7.876,4.851v45.278a11.954,11.954,0,0,0,11.954,11.955H621.9a11.68,11.68,0,0,0,11.68-11.68V174.452a12.127,12.127,0,0,0-12.127-12.127h-43.9A7.467,7.467,0,0,0,571,173.389a32.061,32.061,0,1,1-54.289-2.99,5.115,5.115,0,0,0-4.171-8.074H464.212a11.958,11.958,0,0,0-11.959,11.959v45a5.6,5.6,0,0,1-8.106,5.009A32.1,32.1,0,0,0,398.68,260.7c2.471,10.6,13.387,21.282,24.027,23.576" transform="translate(265.107 108.184)" fill="#8bebce"/>
            <path id="Trazado_160040" data-name="Trazado 160040" d="M535.055,307.578l11.589,25.839s-30.5,11.942-30.75,17.618l59.363-1.073L575.185,345l-13.093-42.623Z" transform="translate(343.826 201.526)" fill="#ff735d"/>
            <path id="Trazado_160041" data-name="Trazado 160041" d="M545.927,318.256a2.424,2.424,0,0,1,1.726,2.736,2.329,2.329,0,0,1-2.7,1.735,2.558,2.558,0,0,1-1.813-2.908,2.417,2.417,0,0,1,3-1.493" transform="translate(361.936 212.046)" fill="#e1e1e1"/>
            <path id="Trazado_160042" data-name="Trazado 160042" d="M575.269,332.914l-.073-4.958-57,2.978s-2.623,1.2-2.29,3.055Z" transform="translate(343.815 218.572)" fill="#1a2e35"/>
            <path id="Trazado_160043" data-name="Trazado 160043" d="M533.767,320.947c.015.29,1.466.395,2.91,1.3,1.466.868,2.225,2.11,2.49,1.991.267-.062-.2-1.786-1.965-2.853-1.756-1.083-3.5-.7-3.435-.44" transform="translate(355.737 213.71)" fill="#1a2e35"/>
            <path id="Trazado_160044" data-name="Trazado 160044" d="M530.058,322.5c-.062.282,1.2.752,2.21,1.96,1.042,1.18,1.315,2.5,1.6,2.483.273.04.443-1.661-.838-3.14-1.266-1.49-2.973-1.58-2.975-1.3" transform="translate(353.265 214.85)" fill="#1a2e35"/>
            <path id="Trazado_160045" data-name="Trazado 160045" d="M528.979,328.941c.265.057.642-1.4-.132-2.973s-2.14-2.181-2.258-1.938c-.16.242.737,1.078,1.352,2.38.645,1.287.75,2.508,1.038,2.531" transform="translate(350.942 215.92)" fill="#1a2e35"/>
            <path id="Trazado_160046" data-name="Trazado 160046" d="M532.472,317.228c.127.262,1.45-.162,3.088-.08,1.643.048,2.928.575,3.075.323.165-.212-1.1-1.263-3.033-1.332-1.935-.085-3.276.863-3.13,1.088" transform="translate(354.868 210.693)" fill="#1a2e35"/>
            <path id="Trazado_160047" data-name="Trazado 160047" d="M599.268,355.634l1.321,49.272-25.91-.072-1.39-48.078Z" transform="translate(382.078 237.018)" fill="#ff735d"/>
            <path id="Trazado_160048" data-name="Trazado 160048" d="M582.292,402.476c-.217,0-.542-10.5-.728-23.462s-.16-23.472.057-23.476.542,10.5.728,23.464.16,23.471-.057,23.474" transform="translate(387.51 236.954)" fill="#1a2e35"/>
            <path id="Trazado_160049" data-name="Trazado 160049" d="M573.858,379.146a3.48,3.48,0,0,1,.638-1.063,17.909,17.909,0,0,1,2.253-2.521,17.6,17.6,0,0,1,4.118-2.9,13.786,13.786,0,0,1,16.2,2.623,11.866,11.866,0,0,1,1.96,2.773,3.408,3.408,0,0,1,.44,1.163,27.208,27.208,0,0,0-2.793-3.546,13.8,13.8,0,0,0-9.8-3.763,15.855,15.855,0,0,0-9.76,4.065c-2.126,1.816-3.15,3.26-3.26,3.171" transform="translate(382.454 247.341)" fill="#1a2e35"/>
            <path id="Trazado_160050" data-name="Trazado 160050" d="M600,387.606l-25.792-.118-.192-5.824,26.01.118Z" transform="translate(382.566 254.366)" fill="#1a2e35"/>
            <path id="Trazado_160051" data-name="Trazado 160051" d="M645.158,224.639l-56.672-9.789-.223,6.084C574.581,231.9,538.119,263.243,516.1,284.71c0,0-8.171,10.822-4.929,20.807l30.543,78.341,35.056-8.084-21.391-66.257,65.79-30.723c12.792-4.733,24.314-20.879,27.037-30.133,2.328-7.916-2.7-13.887-3.046-24.022" transform="translate(340.171 143.19)" fill="#1a2e35"/>
            <path id="Trazado_160052" data-name="Trazado 160052" d="M564.2,267.459l13.493,180.952,33.489.85s5.756-53.444,5.046-87.576-.762-117.8-.762-117.8Z" transform="translate(376.017 162.544)" fill="#1a2e35"/>
            <path id="Trazado_160053" data-name="Trazado 160053" d="M608.808,220.724l17.71,3.2s.64,43.411-.608,47.776-11.815,16.838-11.815,16.838l-49.144,9.39V259.094Z" transform="translate(376.521 147.105)" fill="#1a2e35"/>
            <path id="Trazado_160054" data-name="Trazado 160054" d="M594.439,234.551l1.275,12.22h13.45l-2.288-12.22Z" transform="translate(396.175 156.321)" fill="#1a2e35"/>
            <path id="Trazado_160055" data-name="Trazado 160055" d="M622.631,241.884a5.438,5.438,0,0,1-.425.927,25.338,25.338,0,0,1-1.41,2.565,36.115,36.115,0,0,1-6.864,8.277,61.88,61.88,0,0,1-13.239,8.9c-5.326,2.8-11.405,5.359-17.671,8.277l-32.2,14.753c-4.081,1.831-7.409,3.325-9.794,4.4l-2.678,1.162a5.641,5.641,0,0,1-.955.362,5.251,5.251,0,0,1,.893-.493q.992-.485,2.62-1.283l9.7-4.6,32.121-14.946c6.271-2.921,12.352-5.464,17.661-8.211a63.2,63.2,0,0,0,13.2-8.687,38.037,38.037,0,0,0,6.968-8.049c1.373-2.118,2-3.38,2.071-3.341" transform="translate(358.155 161.207)" fill="#375a64"/>
            <path id="Trazado_160056" data-name="Trazado 160056" d="M603.957,259.972c.105.168-4.591,3.291-10.489,6.974S582.7,273.48,582.6,273.312s4.59-3.291,10.489-6.976,10.764-6.533,10.869-6.364" transform="translate(388.282 173.258)" fill="#375a64"/>
            <path id="Trazado_160057" data-name="Trazado 160057" d="M606.888,234.551a21.267,21.267,0,0,1,.847,3.391c.462,2.151,1.08,5.2,1.773,8.766l.078.4-.408,0-6.653.023c-2.395-.01-4.688-.017-6.8-.025h-.3l-.028-.3c-.348-3.581-.622-6.641-.788-8.807a20.992,20.992,0,0,1-.153-3.448,20.834,20.834,0,0,1,.563,3.4c.283,2.155.647,5.2,1.047,8.781l-.335-.3,6.8-.023c2.343.008,4.586.015,6.653.023l-.332.4c-.645-3.58-1.172-6.643-1.52-8.814a21.542,21.542,0,0,1-.438-3.468" transform="translate(396.161 156.321)" fill="#375a64"/>
            <path id="Trazado_160058" data-name="Trazado 160058" d="M564.944,229.585a2.642,2.642,0,0,1,.59.068l1.772.3,6.7,1.208,23.3,4.384.323.062-.048.328c-.572,3.828-1.186,7.954-1.825,12.222l-.057.383-.378-.087-.378-.087c-13.435-3.075-25.467-5.879-33.466-7.787l-.252-.06.08-.242c1.112-3.328,2-6.008,2.65-7.942.3-.852.533-1.536.72-2.075a3.724,3.724,0,0,1,.268-.677,5.642,5.642,0,0,1-.195.787c-.162.558-.368,1.272-.623,2.156-.578,1.923-1.378,4.586-2.371,7.894l-.172-.3c8.032,1.761,20.086,4.471,33.523,7.547l.377.087-.435.3,1.851-12.217.275.39c-9.241-1.868-17.238-3.483-23.022-4.651l-6.736-1.413c-.74-.163-1.34-.3-1.821-.4a4.322,4.322,0,0,1-.65-.173" transform="translate(374.039 153.007)" fill="#375a64"/>
            <path id="Trazado_160059" data-name="Trazado 160059" d="M523.707,270.263a14.415,14.415,0,0,1,3.714-.717,40.631,40.631,0,0,1,9.136-.012,37.666,37.666,0,0,1,8.9,2.081,14.228,14.228,0,0,1,3.418,1.623,31.557,31.557,0,0,1-3.583-1.143,47.409,47.409,0,0,0-8.815-1.846,52.289,52.289,0,0,0-9.012-.2,31.108,31.108,0,0,1-3.758.21" transform="translate(349.033 179.468)" fill="#375a64"/>
            <path id="Trazado_160060" data-name="Trazado 160060" d="M562.913,220.488c-.2-.032-.207-.985-.022-2.13s.492-2.048.688-2.016.207.985.022,2.13-.492,2.048-.688,2.016" transform="translate(375.06 144.185)" fill="#375a64"/>
            <path id="Trazado_160061" data-name="Trazado 160061" d="M564.557,221.282c-.2-.035-.16-1.145.078-2.48s.59-2.388.785-2.355.16,1.147-.078,2.481-.59,2.388-.785,2.353" transform="translate(376.175 144.255)" fill="#375a64"/>
            <path id="Trazado_160062" data-name="Trazado 160062" d="M578.324,223.421c-.2-.028-.207-1.058-.025-2.3s.492-2.223.688-2.195.207,1.058.023,2.3-.49,2.221-.687,2.193" transform="translate(385.331 145.908)" fill="#375a64"/>
            <path id="Trazado_160063" data-name="Trazado 160063" d="M579.888,224.492c-.2-.025-.2-1.245-.013-2.721s.5-2.656.7-2.631.2,1.243.015,2.723-.5,2.655-.7,2.63" transform="translate(386.375 146.049)" fill="#375a64"/>
            <path id="Trazado_160064" data-name="Trazado 160064" d="M593.169,226.7c-.2-.02-.242-1.195-.1-2.625s.422-2.573.62-2.553.24,1.195.095,2.625-.42,2.573-.617,2.553" transform="translate(395.206 147.638)" fill="#375a64"/>
            <path id="Trazado_160065" data-name="Trazado 160065" d="M595.194,227.5c-.2-.012-.282-1.335-.187-2.956s.332-2.925.53-2.913.282,1.335.187,2.956-.332,2.925-.53,2.913" transform="translate(396.527 147.708)" fill="#375a64"/>
            <path id="Trazado_160066" data-name="Trazado 160066" d="M612.208,119.816l-6.633,53.557c-.948,9.171-2.4,22.739-16.826,20.579-12.377-2.818-14.327-15.072-13.433-23.627.425-4.058.77-7.444.785-7.862,0,0-13.592-2.711-13.178-16.4.2-6.616,1.722-20.206,3.24-32.484a25.509,25.509,0,0,1,26.407-22.339l1.32.057c14.2,1.438,20.149,14.365,18.32,28.518" transform="translate(375.163 60.794)" fill="#ffceb3"/>
            <path id="Trazado_160067" data-name="Trazado 160067" d="M570.939,135.769a33.061,33.061,0,0,0,18.036-4.506s-4.769,9.807-18.369,7.994Z" transform="translate(380.29 87.482)" fill="#ff9d65"/>
            <path id="Trazado_160068" data-name="Trazado 160068" d="M577.852,110.782c.29.115,1.755-.758,4.02-1.075s4.045.075,4.26-.112c.107-.085-.213-.32-.993-.508a9.625,9.625,0,0,0-3.448-.1,8.646,8.646,0,0,0-3.161,1.043c-.637.393-.818.7-.677.748" transform="translate(385.089 72.567)" fill="#1a2e35"/>
            <path id="Trazado_160069" data-name="Trazado 160069" d="M578.08,113.638a1.85,1.85,0,0,0,1.7,1.94,1.768,1.768,0,0,0,1.975-1.585,1.851,1.851,0,0,0-1.7-1.941,1.771,1.771,0,0,0-1.978,1.586" transform="translate(385.268 74.673)" fill="#1a2e35"/>
            <path id="Trazado_160070" data-name="Trazado 160070" d="M575.77,125.629a14,14,0,0,0-3.388-.762c-.535-.078-1.038-.207-1.113-.577a2.741,2.741,0,0,1,.427-1.576q.84-1.915,1.761-4.02c2.453-5.726,4.253-10.444,4.021-10.54s-2.408,4.466-4.859,10.192q-.89,2.117-1.7,4.048a3.1,3.1,0,0,0-.368,2.095,1.344,1.344,0,0,0,.848.822,3.693,3.693,0,0,0,.907.167,13.654,13.654,0,0,0,3.461.152" transform="translate(380.204 72.08)" fill="#1a2e35"/>
            <path id="Trazado_160071" data-name="Trazado 160071" d="M579.343,105.019c.162.53,2.023.362,4.186.725,2.172.318,3.9,1.052,4.206.6.138-.218-.147-.722-.833-1.257a6.943,6.943,0,0,0-3.083-1.267,6.838,6.838,0,0,0-3.311.26c-.813.3-1.233.692-1.165.942" transform="translate(386.108 69.131)" fill="#1a2e35"/>
            <path id="Trazado_160072" data-name="Trazado 160072" d="M566.11,106.046c.19.438,2.015.188,4.169.37,2.16.145,3.906.665,4.183.262.123-.192-.188-.6-.9-1.015a7.583,7.583,0,0,0-3.116-.893,7.794,7.794,0,0,0-3.248.412c-.783.3-1.172.657-1.09.865" transform="translate(377.287 69.81)" fill="#1a2e35"/>
            <path id="Trazado_160073" data-name="Trazado 160073" d="M592.16,114.647c.252-.088,10.052-2.236,9.066,7.546s-10.6,6.773-10.594,6.489,1.528-14.035,1.528-14.035" transform="translate(393.637 76.235)" fill="#ffceb3"/>
            <path id="Trazado_160074" data-name="Trazado 160074" d="M592.655,123.947c.046-.027.158.137.433.3a1.72,1.72,0,0,0,1.272.155c1.071-.277,2.106-1.828,2.333-3.586a5.672,5.672,0,0,0-.232-2.488,1.978,1.978,0,0,0-1.15-1.438.874.874,0,0,0-1.053.367c-.158.26-.115.462-.168.473-.03.022-.2-.185-.075-.582a1.1,1.1,0,0,1,.447-.575,1.3,1.3,0,0,1,.968-.153,2.408,2.408,0,0,1,1.627,1.7,5.826,5.826,0,0,1,.317,2.786c-.263,1.965-1.458,3.706-2.913,3.973a1.834,1.834,0,0,1-1.533-.417c-.278-.272-.307-.495-.271-.51" transform="translate(394.977 77.567)" fill="#ff9d65"/>
            <path id="Trazado_160075" data-name="Trazado 160075" d="M572.994,123.974c0-.257,1.9-.063,3.749-1.16a10.459,10.459,0,0,0,2.131-1.763c.512-.523.865-.838.947-.768s-.12.478-.543,1.1a6.866,6.866,0,0,1-2.158,2.068,5.6,5.6,0,0,1-2.91.777c-.77-.005-1.225-.173-1.216-.257" transform="translate(381.882 80.158)" fill="#1a2e35"/>
            <path id="Trazado_160076" data-name="Trazado 160076" d="M565.971,108.435c.192.242,1.883.285,3.981,1.192,2.1.887,3.433,2.133,3.709,2.093.133-.015-.023-.368-.6-.922a10.131,10.131,0,0,0-2.91-1.846,9.038,9.038,0,0,0-3.23-.775c-.743-.01-1.05.145-.953.258" transform="translate(377.19 72.096)" fill="#1a2e35"/>
            <path id="Trazado_160077" data-name="Trazado 160077" d="M566.831,112.655a1.849,1.849,0,0,0,1.7,1.94,1.768,1.768,0,0,0,1.975-1.585,1.851,1.851,0,0,0-1.7-1.941,1.771,1.771,0,0,0-1.978,1.586" transform="translate(377.771 74.018)" fill="#1a2e35"/>
            <path id="Trazado_160078" data-name="Trazado 160078" d="M554.747,102.678a2.206,2.206,0,0,1,1.18-1.162,6.777,6.777,0,0,1,3.53-.162,19.638,19.638,0,0,0,8.724-1.145,9.761,9.761,0,0,1-2.29-2.04,5.852,5.852,0,0,1-1-5.974,1.291,1.291,0,0,1,.83-.8c.622-.115,1.08.537,1.446,1.053a5.04,5.04,0,0,0,4.479,2.543,8.3,8.3,0,0,0,3.643-.633c.045-.037.087-.08.132-.117.54-.44,1.065-.862,1.581-1.267l0,0,0,0c3.886-3.053,7.161-5.1,10.39-5.984,4.734-1.3,12.384-1.157,16.956.627s8.364,6.1,8.459,11.01c2.9-1.93,6.873-1.45,9.942.218l.085-.027c3.44,1.695,5.038,5.721,5.673,9.5.033.207.062.415.092.623a14.323,14.323,0,0,0,4.281,5.274c.323.242.692.535.688.94s-.376.688-.727.883a7.186,7.186,0,0,1-3.043.87,16.137,16.137,0,0,0,.9,2.658c.327.733.712,1.61.275,2.283a1.522,1.522,0,0,1-1.663.5,4.486,4.486,0,0,1-1.583-.948q.435,1.5.868,3.013a8.549,8.549,0,0,1-3.873-.713,94.939,94.939,0,0,1-3.676,9.814c-1.5-.178-2.878-.693-3.9.03-1.387.985-2.195,3.045-4.19,2-1.015-.535-1.727-2.876-1.956-4a53.275,53.275,0,0,1,.307-22.657,17.09,17.09,0,0,0-4.811-4.4l.145.163c-3.636-1.755-7.771-3.546-11.57-2.185-2.948,1.055-4.923,3.758-7.274,5.824a20.229,20.229,0,0,1-15.446,5.283c-1,4.028-1.17,9.267-1.811,13.06l-2.815-6.564-.005.03c-.212-.477-.377-.953-.535-1.43l-.057-.145,0-.018a24.007,24.007,0,0,0-.822-2.295l-.042.028a2.4,2.4,0,0,1-3.113-3.593,5.43,5.43,0,0,1,1.287-1.025,3.8,3.8,0,0,1-3.7.515,2.978,2.978,0,0,1-1.753-3.17,2.53,2.53,0,0,1,1.735-1.845,8.547,8.547,0,0,1-4.711-1.626c-.891-.655-1.725-1.66-1.262-2.823" transform="translate(369.632 57.402)" fill="#1a2e35"/>
            <path id="Trazado_160079" data-name="Trazado 160079" d="M586.867,94.263a11.9,11.9,0,0,1,1.216,1.4,9.794,9.794,0,0,1,1.558,4.743,17.235,17.235,0,0,1-.053,3.486c-.138,1.25-.395,2.575-.653,3.973a36,36,0,0,0-.618,4.434,15.8,15.8,0,0,0,.035,2.38,4.916,4.916,0,0,0,.692,2.386,2.061,2.061,0,0,0,1.84.865,3.047,3.047,0,0,0,1.833-.773,7.056,7.056,0,0,0,1.706-3.295l-.288,0a11.483,11.483,0,0,0,1.32,3.031,4.068,4.068,0,0,0,2.471,1.741,2.616,2.616,0,0,0,1.426-.082,2.258,2.258,0,0,0,1.058-.827,2.347,2.347,0,0,0,.428-1.168,1.7,1.7,0,0,0-.313-1.1l-.158.112a8.811,8.811,0,0,0,2.658,2.523,8.15,8.15,0,0,0,.862.455,1.543,1.543,0,0,0,.315.118,1.8,1.8,0,0,0-.292-.167c-.192-.107-.477-.262-.828-.495a9.073,9.073,0,0,1-2.555-2.543l-.158.112a1.75,1.75,0,0,1-.143,2.025,2.044,2.044,0,0,1-.955.728,2.381,2.381,0,0,1-1.292.06,3.808,3.808,0,0,1-2.29-1.65,11.266,11.266,0,0,1-1.266-2.963l-.143-.457-.145.458a6.822,6.822,0,0,1-1.626,3.15,2.763,2.763,0,0,1-1.641.692,1.742,1.742,0,0,1-1.563-.733,4.672,4.672,0,0,1-.637-2.231,15.624,15.624,0,0,1-.037-2.333,36.535,36.535,0,0,1,.593-4.4c.252-1.4.5-2.73.628-4a17.2,17.2,0,0,0,.015-3.536,9.647,9.647,0,0,0-1.683-4.793,5.556,5.556,0,0,0-1.316-1.33" transform="translate(391.126 62.823)" fill="#375a64"/>
            <path id="Trazado_160080" data-name="Trazado 160080" d="M560.78,106.013c0,.005.03.042.1.107s.185.172.31.287a4.44,4.44,0,0,0,.532.435,7.354,7.354,0,0,0,.775.53,12.088,12.088,0,0,0,5.681,1.716,15.458,15.458,0,0,0,8.534-2.073,26.781,26.781,0,0,0,7.969-7.286c1.177-1.528,2.175-3.118,3.241-4.569a18.15,18.15,0,0,1,3.508-3.778,9.38,9.38,0,0,1,4.183-1.918,6.733,6.733,0,0,1,2.086,0,7.194,7.194,0,0,1,1.845.582,7.9,7.9,0,0,1,3.93,4.191,9.442,9.442,0,0,1,.463,2.115.414.414,0,0,0,.007-.143c-.005-.115-.01-.253-.017-.423a6.839,6.839,0,0,0-.336-1.59,7.761,7.761,0,0,0-1.28-2.235,7.992,7.992,0,0,0-2.668-2.118,7.558,7.558,0,0,0-1.9-.622,6.949,6.949,0,0,0-2.17-.02,9.551,9.551,0,0,0-4.319,1.946,18.286,18.286,0,0,0-3.581,3.823c-1.078,1.463-2.078,3.05-3.243,4.561a26.812,26.812,0,0,1-7.861,7.226,15.377,15.377,0,0,1-8.377,2.1,12.264,12.264,0,0,1-5.629-1.6,18.06,18.06,0,0,1-1.778-1.25" transform="translate(373.741 59.4)" fill="#375a64"/>
            <path id="Trazado_160081" data-name="Trazado 160081" d="M560.454,95.6c-.013.018.147.157.447.395a10.621,10.621,0,0,0,1.355.9,14.076,14.076,0,0,0,2.193,1.013,14.828,14.828,0,0,0,5.828.865,13.976,13.976,0,0,0,2.393-.332,10.544,10.544,0,0,0,1.558-.465,2.056,2.056,0,0,0,.542-.248c-.02-.057-.813.242-2.145.493a16.173,16.173,0,0,1-2.36.258,15.985,15.985,0,0,1-5.719-.848,16.171,16.171,0,0,1-2.181-.935c-1.2-.627-1.875-1.143-1.91-1.095" transform="translate(373.524 63.713)" fill="#375a64"/>
            <path id="Trazado_160082" data-name="Trazado 160082" d="M627.081,185.728c-1.29-5.551-4.414-10.474-7.486-15.275a66.14,66.14,0,0,1-15.863,7.114l1.63,28.745c6.4.2,13.507-.152,18.069-4.638,4.065-4,4.94-10.4,3.65-15.946" transform="translate(402.368 113.601)" fill="#ffceb3"/>
            <path id="Trazado_160083" data-name="Trazado 160083" d="M548.385,336.216c0,2.621,65.162,186.384,65.162,186.384H629.93L564.878,336.216Z" transform="translate(365.481 224.077)" fill="#375a64"/>
            <rect id="Rectángulo_9002" data-name="Rectángulo 9002" width="16.331" height="193.54" transform="translate(855.558 555.06)" fill="#375a64"/>
            <rect id="Rectángulo_9003" data-name="Rectángulo 9003" width="98.442" height="11.575" transform="translate(863.723 595.354)" fill="#375a64"/>
            <rect id="Rectángulo_9004" data-name="Rectángulo 9004" width="90.399" height="11.574" transform="translate(855.559 553.004)" fill="#375a64"/>
            <rect id="Rectángulo_9005" data-name="Rectángulo 9005" width="46.693" height="11.575" transform="translate(931.702 637.704)" fill="#375a64"/>
            <rect id="Rectángulo_9006" data-name="Rectángulo 9006" width="47.609" height="11.575" transform="translate(946.373 678.322)" fill="#375a64"/>
            <rect id="Rectángulo_9007" data-name="Rectángulo 9007" width="49.429" height="11.575" transform="translate(960.143 718.941)" fill="#375a64"/>
            <path id="Trazado_160084" data-name="Trazado 160084" d="M604.389,339.146c0,.188-20.394.34-45.544.34s-45.55-.152-45.55-.34,20.389-.34,45.55-.34,45.544.152,45.544.34" transform="translate(342.094 225.803)" fill="#1a2e35"/>
            <path id="Trazado_160085" data-name="Trazado 160085" d="M523.526,522.661c-.188,0-.34-101.086-.34-130.458s.152-53.194.34-53.194.34,23.81.34,53.194-.152,130.458-.34,130.458" transform="translate(348.686 225.939)" fill="#1a2e35"/>
            <path id="Trazado_160086" data-name="Trazado 160086" d="M611.116,149.241l-13.977,31.7a51.89,51.89,0,0,1,11.852,17.868,83.05,83.05,0,0,0,22.549-16.255c-6.857-9.534-14.8-28.857-20.424-33.318" transform="translate(397.974 99.464)" fill="#1c9873"/>
            <path id="Trazado_160087" data-name="Trazado 160087" d="M566.865,151.864,553.647,257.478a10.252,10.252,0,0,0,7.662,11.212L629.5,280.5a6.679,6.679,0,0,0,7.819-6.5c.17-14.547.766-46.013,2.831-65.622,2.276-21.617,8.066-39.267,0-49.572s-22.139-17.5-22.139-17.5l-1.486-6.423s-29.435.043-34.509,4.443L578.9,144.74Z" transform="translate(368.934 89.897)" fill="#13a87b"/>
            <path id="Trazado_160088" data-name="Trazado 160088" d="M609.59,159.66a2.44,2.44,0,0,1,.013.682c-.027.527-.062,1.168-.1,1.943-.128,1.8-.3,4.206-.507,7.134-.46,6.024-1.145,14.34-1.945,23.521s-1.565,17.495-2.153,23.506c-.3,2.92-.55,5.323-.735,7.114-.095.768-.172,1.407-.237,1.93a.343.343,0,1,1-.143-.015c.027-.528.062-1.168.1-1.943.127-1.8.3-4.208.507-7.138.46-6.023,1.143-14.338,1.945-23.519s1.563-17.486,2.153-23.5l.735-7.116c.093-.77.172-1.406.235-1.931a2.419,2.419,0,0,1,.132-.67" transform="translate(402.395 106.408)" fill="#1a2e35"/>
            <path id="Trazado_160089" data-name="Trazado 160089" d="M607.858,138.8a6.444,6.444,0,0,1-1.54.155l-4.2.207c-3.541.173-8.427.482-13.813.978s-10.254,1.063-13.778,1.47l-4.178.47a6.484,6.484,0,0,1-1.545.083,6.418,6.418,0,0,1,1.5-.362c.977-.187,2.395-.425,4.15-.695,3.511-.537,8.379-1.188,13.782-1.683s10.309-.727,13.862-.77c1.778-.025,3.216-.015,4.21.022a6.391,6.391,0,0,1,1.543.125" transform="translate(379.092 92.402)" fill="#1a2e35"/>
            <path id="Trazado_160090" data-name="Trazado 160090" d="M546.627,203.243,588.694,215.4s6.416-23.732,9.5-37.725c3.373-15.315.667-23.271-9.537-30.378A17.3,17.3,0,0,0,580.9,144.3a18.469,18.469,0,0,0-19.041,11.1,164.64,164.64,0,0,0-6.8,19.324c-4.024,13.585-8.429,28.523-8.429,28.523" transform="translate(364.309 96.074)" fill="#13a87b"/>
            <path id="Trazado_160091" data-name="Trazado 160091" d="M598.365,173.174a3.761,3.761,0,0,1-.108.723c-.105.522-.242,1.21-.415,2.076-.387,1.811-.971,4.456-1.763,7.791-1.577,6.673-3.94,16.108-6.894,27.22l-.087.322-.32-.092L562.292,203.6c-5.408-1.566-10.659-3.088-15.588-4.514l-.338-.1.1-.337c4.149-13.85,7.644-25.909,10.389-34.436,1.4-4.253,2.67-7.6,3.606-9.864.47-1.133.855-2,1.123-2.58a5.631,5.631,0,0,1,.445-.868,6.017,6.017,0,0,1-.332.917q-.375.972-1.013,2.62c-.867,2.29-2.066,5.649-3.406,9.914-2.62,8.541-6.033,20.638-10.144,34.5l-.237-.433,15.595,4.493,26.467,7.679-.407.23c3.008-11.09,5.459-20.5,7.144-27.143l1.941-7.744c.215-.857.385-1.536.515-2.053a3.709,3.709,0,0,1,.212-.7" transform="translate(364.135 100.57)" fill="#1a2e35"/>
            <path id="Trazado_160092" data-name="Trazado 160092" d="M585.29,154.32c-.1.072-.937-1.188-2.658-2.866a22.047,22.047,0,0,0-17.006-6.3c-2.4.152-3.851.563-3.883.443a2.9,2.9,0,0,1,.992-.392,17.121,17.121,0,0,1,2.848-.558A20.617,20.617,0,0,1,583,151.1a17.019,17.019,0,0,1,1.795,2.278c.372.577.537.918.5.943" transform="translate(374.383 96.316)" fill="#1a2e35"/>
            <path id="Trazado_160093" data-name="Trazado 160093" d="M569.58,184.57l-2.125,7.063-40.242-17.411-8.7,13.358s32.52,22.8,43.345,28.875c11.792,6.619,20.676,6,25.79-3.736a113.229,113.229,0,0,0,8.244-20.438Z" transform="translate(345.574 116.113)" fill="#ffceb3"/>
            <path id="Trazado_160094" data-name="Trazado 160094" d="M552.191,193.466c-.212.038-.69-2.118-1.89-4.521-1.177-2.415-2.593-4.108-2.436-4.251.123-.137,1.846,1.406,3.081,3.933,1.252,2.518,1.427,4.824,1.245,4.839" transform="translate(365.126 123.086)" fill="#ff9d65"/>
            <path id="Trazado_160095" data-name="Trazado 160095" d="M543.062,186.89l-5.318-3.673c-2.828-8.4-8.084-23.637-9.637-23.181-1.711.5-2.423,2-1.931,5.241,1.175,7.757-.752,11.174-5.281,10.15-1.558-.353-15.11-2.52-15.11-2.52s-3.74,2.141.02,5.8c0,0-1.828,4.779,3.161,5.934,0,0,.622,5.413,4.37,5.634a97.825,97.825,0,0,0,12.417,5.346l6.749,4.049Z" transform="translate(335.985 106.653)" fill="#ffceb3"/>
            <path id="Trazado_160096" data-name="Trazado 160096" d="M515.429,174.276c-.048.26-2.693-.327-5.768-1.4-1.11-.365-2.143-.71-3-.917l.107-.6.515.108-.113.548a6.2,6.2,0,0,1-2.085-.815,6.2,6.2,0,0,1,2.221.272l-.115.548-.522-.063.107-.6a21.5,21.5,0,0,1,3.106.828,45.575,45.575,0,0,1,5.543,2.081" transform="translate(336.624 114.076)" fill="#ff9d65"/>
            <path id="Trazado_160097" data-name="Trazado 160097" d="M515.168,177.989c-.053.2-2.008-.222-4.268-1.123-2.27-.878-3.991-1.9-3.891-2.083.088-.163,1.9.542,4.155,1.415,2.241.893,4.051,1.611,4,1.791" transform="translate(337.902 116.471)" fill="#ff9d65"/>
            <path id="Trazado_160098" data-name="Trazado 160098" d="M55.715,398.94l-1.033,50.751,64.971,1.573c-.225-6.039-33.528-18.963-33.528-18.963l2.036-32.489Z" transform="translate(36.444 265.88)" fill="#375a64"/>
            <g id="Grupo_71842" data-name="Grupo 71842" transform="translate(100.594 694.866)" opacity="0.6">
              <g id="Grupo_71841" data-name="Grupo 71841">
                <g id="Grupo_71840" data-name="Grupo 71840" clip-path="url(#clip-path-5)">
                  <path id="Trazado_160099" data-name="Trazado 160099" d="M62.319,417.062a2.579,2.579,0,0,0-1.91,2.9,2.552,2.552,0,0,0,2.94,1.865,2.72,2.72,0,0,0,2.006-3.078,2.668,2.668,0,0,0-3.28-1.611" transform="translate(-60.364 -416.97)" fill="#fff"/>
                </g>
              </g>
            </g>
            <g id="Grupo_71845" data-name="Grupo 71845" transform="translate(91.125 710.46)" opacity="0.6">
              <g id="Grupo_71844" data-name="Grupo 71844">
                <g id="Grupo_71843" data-name="Grupo 71843" clip-path="url(#clip-path-6)">
                  <path id="Trazado_160100" data-name="Trazado 160100" d="M54.681,431.438l.31-5.111,62.178,3.42s2.863,1.293,2.485,3.265Z" transform="translate(-54.682 -426.327)" fill="#fff"/>
                </g>
              </g>
            </g>
            <path id="Trazado_160101" data-name="Trazado 160101" d="M76.59,418.906c-.018.308-1.608.41-3.195,1.363-1.613.913-2.451,2.228-2.74,2.1-.292-.067.23-1.9,2.171-3.02,1.93-1.138,3.84-.725,3.763-.443" transform="translate(47.04 278.98)" fill="#1a2e35"/>
            <path id="Trazado_160102" data-name="Trazado 160102" d="M80,420.578c.065.3-1.323.792-2.433,2.07-1.15,1.245-1.458,2.65-1.773,2.628-.3.042-.473-1.77.94-3.333,1.4-1.575,3.268-1.66,3.266-1.365" transform="translate(50.375 280.212)" fill="#1a2e35"/>
            <path id="Trazado_160103" data-name="Trazado 160103" d="M80.576,427.441c-.29.058-.692-1.493.167-3.161s2.358-2.3,2.486-2.045c.173.258-.813,1.142-1.5,2.521-.717,1.365-.84,2.661-1.157,2.685" transform="translate(53.467 281.368)" fill="#1a2e35"/>
            <path id="Trazado_160104" data-name="Trazado 160104" d="M76.663,414.781c-.14.278-1.585-.182-3.381-.108-1.8.04-3.208.592-3.366.323-.178-.228,1.213-1.335,3.331-1.395,2.115-.075,3.578.942,3.416,1.18" transform="translate(46.586 275.649)" fill="#1a2e35"/>
            <path id="Trazado_160105" data-name="Trazado 160105" d="M77.059,411.9c0,.128-1.258.288-3.253-.095a14.92,14.92,0,0,1-3.38-1.1,15.435,15.435,0,0,1-1.843-1.01,3.958,3.958,0,0,1-.963-.767,1.313,1.313,0,0,1-.1-1.643,1.754,1.754,0,0,1,1.408-.672,4.363,4.363,0,0,1,1.215.193,11.8,11.8,0,0,1,2.006.723,11.441,11.441,0,0,1,2.951,1.986c1.473,1.393,1.958,2.556,1.848,2.613-.147.1-.855-.883-2.361-2.041a13.062,13.062,0,0,0-2.861-1.658,12.322,12.322,0,0,0-1.853-.6c-.683-.193-1.27-.212-1.453.082-.067.112-.077.157.063.355a3.166,3.166,0,0,0,.708.562,17.355,17.355,0,0,0,1.693,1A18.284,18.284,0,0,0,74,411.073c1.848.55,3.071.665,3.061.832" transform="translate(44.835 270.999)" fill="#1a2e35"/>
            <path id="Trazado_160106" data-name="Trazado 160106" d="M73.2,414.038c-.113.045-.715-1.075-.78-3.075a10.02,10.02,0,0,1,.533-3.451,10.173,10.173,0,0,1,.877-1.9,2.684,2.684,0,0,1,2.118-1.546,1.521,1.521,0,0,1,1.337.915,4.2,4.2,0,0,1,.3,1.168,6.85,6.85,0,0,1-.052,2.128,7.177,7.177,0,0,1-1.475,3.233c-1.312,1.607-2.645,1.941-2.668,1.836-.1-.157,1.02-.725,2.031-2.273a7.17,7.17,0,0,0,1.1-2.946,6.361,6.361,0,0,0-.013-1.83c-.083-.673-.328-1.22-.59-1.158-.322-.013-.885.48-1.163,1.008a10.408,10.408,0,0,0-.852,1.695,11.06,11.06,0,0,0-.71,3.14c-.137,1.851.172,3.013,0,3.056" transform="translate(48.265 269.297)" fill="#1a2e35"/>
            <path id="Trazado_160107" data-name="Trazado 160107" d="M29.408,386.415,2.853,422.334l45.9,36.066c2.91-4.463-14.452-31.656-14.452-31.656l17.986-22.257Z" transform="translate(1.901 257.533)" fill="#375a64"/>
            <g id="Grupo_71848" data-name="Grupo 71848" transform="translate(20.447 671.02)" opacity="0.6">
              <g id="Grupo_71847" data-name="Grupo 71847">
                <g id="Grupo_71846" data-name="Grupo 71846" clip-path="url(#clip-path-7)">
                  <path id="Trazado_160108" data-name="Trazado 160108" d="M15.271,402.835a2.2,2.2,0,0,0-2.846,1.056,2.359,2.359,0,0,0,1.163,2.92,2.322,2.322,0,0,0,3.008-1.133,2.467,2.467,0,0,0-1.536-2.921" transform="translate(-12.269 -402.66)" fill="#fff"/>
                </g>
              </g>
            </g>
            <g id="Grupo_71851" data-name="Grupo 71851" transform="translate(4.755 676.36)" opacity="0.6">
              <g id="Grupo_71850" data-name="Grupo 71850">
                <g id="Grupo_71849" data-name="Grupo 71849" clip-path="url(#clip-path-8)">
                  <path id="Trazado_160109" data-name="Trazado 160109" d="M2.853,409.371l2.823-3.506,42.948,35.889s1.4,2.468.125,3.683Z" transform="translate(-2.853 -405.864)" fill="#fff"/>
                </g>
              </g>
            </g>
            <path id="Trazado_160110" data-name="Trazado 160110" d="M24.685,411.526c-.17.212-1.363-.57-2.99-.738-1.623-.212-2.895.283-3.036.037-.175-.2,1.13-1.242,3.1-1,1.966.22,3.128,1.543,2.93,1.7" transform="translate(12.425 273.109)" fill="#1a2e35"/>
            <path id="Trazado_160111" data-name="Trazado 160111" d="M26.473,414.6c-.107.25-1.353-.142-2.8.178-1.46.278-2.395,1.122-2.611.937-.237-.132.56-1.527,2.37-1.89,1.806-.382,3.193.563,3.043.775" transform="translate(14.009 275.743)" fill="#1a2e35"/>
            <path id="Trazado_160112" data-name="Trazado 160112" d="M23.449,419.952c-.238-.113.262-1.445,1.726-2.183s2.868-.388,2.828-.132c-.007.278-1.165.382-2.358,1.007-1.208.6-1.958,1.461-2.2,1.308" transform="translate(15.59 278.131)" fill="#1a2e35"/>
            <path id="Trazado_160113" data-name="Trazado 160113" d="M26.364,408.942c-.242.125-1.047-.983-2.375-1.895-1.313-.938-2.606-1.3-2.585-1.58-.012-.258,1.551-.307,3.1.79s2.093,2.6,1.855,2.685" transform="translate(14.265 270.128)" fill="#1a2e35"/>
            <path id="Trazado_160114" data-name="Trazado 160114" d="M28.207,407.209c-.065.092-1.052-.47-2.29-1.818a13.809,13.809,0,0,1-1.87-2.606,14.223,14.223,0,0,1-.812-1.716,3.628,3.628,0,0,1-.3-1.068,1.143,1.143,0,0,1,.762-1.236,1.544,1.544,0,0,1,1.353.273,4,4,0,0,1,.775.793,10.988,10.988,0,0,1,1.073,1.6,10.7,10.7,0,0,1,1.112,3.015c.35,1.793.107,2.891,0,2.873-.155-.008-.165-1.1-.658-2.736a12.2,12.2,0,0,0-1.212-2.731,11.668,11.668,0,0,0-1.025-1.432c-.393-.507-.8-.835-1.087-.723-.1.045-.135.072-.137.29a2.966,2.966,0,0,0,.225.783,16.059,16.059,0,0,0,.71,1.628,17.173,17.173,0,0,0,1.6,2.571,21.11,21.11,0,0,1,1.778,2.243" transform="translate(15.276 265.723)" fill="#1a2e35"/>
            <path id="Trazado_160115" data-name="Trazado 160115" d="M25.79,406.264c-.1-.028.033-1.157,1-2.63a8.528,8.528,0,0,1,3.735-3.086,2.317,2.317,0,0,1,2.308.027,1.4,1.4,0,0,1,.495,1.375,3.645,3.645,0,0,1-.375,1,5.887,5.887,0,0,1-1.12,1.5,6.082,6.082,0,0,1-2.7,1.53c-1.76.45-2.89-.027-2.853-.115a22.432,22.432,0,0,0,2.616-.542,6.062,6.062,0,0,0,2.293-1.523,5.517,5.517,0,0,0,.922-1.322c.282-.53.383-1.055.165-1.15a1.59,1.59,0,0,0-1.35.1,8.87,8.87,0,0,0-1.473.76,9.506,9.506,0,0,0-2.108,1.875c-1.038,1.257-1.408,2.26-1.555,2.2" transform="translate(17.168 266.751)" fill="#1a2e35"/>
            <path id="Trazado_160116" data-name="Trazado 160116" d="M25.45,271.94l4.526,27.11A43.2,43.2,0,0,0,40.545,317c5.094,5.178,11.09,11.317,12.069,12.525l23.979,80L71.015,516.183l41.313,2.88s16.251-108.92,13.63-125.768-23.371-130.649-23.371-130.649l-.3-6.446Z" transform="translate(16.962 170.748)" fill="#1a2e35"/>
            <path id="Trazado_160117" data-name="Trazado 160117" d="M67.736,306.872,63.548,385.46,8.6,462.261,43.04,486.414l74.126-88.979.733-102.956Z" transform="translate(5.729 196.261)" fill="#1a2e35"/>
            <path id="Trazado_160118" data-name="Trazado 160118" d="M41.751,300.2a1.715,1.715,0,0,1,.152.368c.1.285.227.65.385,1.1.343,1.025.818,2.458,1.426,4.286,1.232,3.791,2.986,9.214,5.171,15.951,4.346,13.615,10.387,32.534,17.231,53.98l.022.067,0,.072c-.232,4.591-.473,9.4-.718,14.3-1.353,25.919-2.58,49.377-3.471,66.415-.478,8.459-.867,15.32-1.138,20.123-.147,2.335-.263,4.168-.347,5.469-.047.59-.082,1.058-.11,1.421a1.986,1.986,0,0,1-.063.482,2.514,2.514,0,0,1-.013-.487c.008-.363.02-.833.035-1.425.05-1.3.12-3.138.2-5.476.217-4.806.522-11.672.9-20.136.833-17.041,1.981-40.505,3.248-66.427.25-4.9.495-9.71.728-14.3l.018.138C58.659,354.649,52.7,335.7,48.417,322.064c-2.093-6.768-3.78-12.215-4.956-16.023-.557-1.846-.992-3.293-1.3-4.328-.133-.463-.238-.835-.322-1.127a1.538,1.538,0,0,1-.085-.39" transform="translate(27.824 200.071)" fill="#375a64"/>
            <path id="Trazado_160119" data-name="Trazado 160119" d="M50.886,143.107A6.595,6.595,0,0,0,50.15,130a6.862,6.862,0,0,0-8.856-9.551,8.208,8.208,0,0,0-13.727-3.175A9.235,9.235,0,0,0,16.55,120.1a6.566,6.566,0,0,0-2.606,12.284" transform="translate(7.047 76.494)" fill="#1a2e35"/>
            <path id="Trazado_160120" data-name="Trazado 160120" d="M55.791,139.515a27.979,27.979,0,0,0-33.734-17.38l-1.395.385C5.844,127.558,1.843,142.956,7.29,157.629l16.028,49.549.8,2.4L60.8,206.95l-3.578-12.77s13.857-6.248,10.039-20.772c-1.845-7.014-6.816-21.151-11.465-33.893" transform="translate(3.31 80.722)" fill="#c17560"/>
            <path id="Trazado_160121" data-name="Trazado 160121" d="M44.588,165.055a36.426,36.426,0,0,1-20.5-.315s7.336,9.186,21.421,3.895Z" transform="translate(16.055 109.794)" fill="#7c4236"/>
            <path id="Trazado_160122" data-name="Trazado 160122" d="M37.03,141.245a2.146,2.146,0,0,1-1.416,2.636,2.052,2.052,0,0,1-2.646-1.277,2.146,2.146,0,0,1,1.415-2.636,2.054,2.054,0,0,1,2.648,1.277" transform="translate(21.91 93.207)" fill="#1a2e35"/>
            <path id="Trazado_160123" data-name="Trazado 160123" d="M38.056,137.432c-.182.34-2.068-.387-4.291.233-2.23.588-3.546,2.183-3.861,1.978-.153-.088-.027-.648.542-1.361a5.9,5.9,0,0,1,3-1.916,5.658,5.658,0,0,1,3.51.152c.828.335,1.195.76,1.1.915" transform="translate(19.89 90.746)" fill="#1a2e35"/>
            <path id="Trazado_160124" data-name="Trazado 160124" d="M24.881,144.645a2.144,2.144,0,0,1-1.42,2.635A2.048,2.048,0,0,1,20.817,146a2.146,2.146,0,0,1,1.415-2.636,2.054,2.054,0,0,1,2.65,1.277" transform="translate(13.813 95.473)" fill="#1a2e35"/>
            <path id="Trazado_160125" data-name="Trazado 160125" d="M25,141.3c-.182.34-2.07-.385-4.291.235-2.23.587-3.546,2.181-3.863,1.976-.152-.088-.027-.647.543-1.36a5.882,5.882,0,0,1,3-1.916,5.66,5.66,0,0,1,3.51.15c.827.337,1.193.76,1.1.915" transform="translate(11.19 93.327)" fill="#1a2e35"/>
            <path id="Trazado_160126" data-name="Trazado 160126" d="M31.755,156.659a15.274,15.274,0,0,1,3.433-1.65c.552-.215,1.058-.477,1.047-.892a3,3,0,0,0-.843-1.578q-1.37-1.84-2.875-3.861c-4.033-5.514-7.119-10.112-6.9-10.272s3.673,4.178,7.706,9.692q1.472,2.045,2.811,3.908a3.41,3.41,0,0,1,.91,2.146,1.473,1.473,0,0,1-.7,1.09,4.006,4.006,0,0,1-.927.4,15.115,15.115,0,0,1-3.661,1.017" transform="translate(17.068 92.24)" fill="#1a2e35"/>
            <path id="Trazado_160127" data-name="Trazado 160127" d="M25.016,138.192c-.138.645-2.213.56-4.581,1.132-2.381.52-4.236,1.508-4.613.98-.17-.253.108-.875.828-1.56a7.317,7.317,0,0,1,3.318-1.713,7.039,7.039,0,0,1,3.686.105c.923.307,1.418.752,1.361,1.057" transform="translate(10.513 91.198)" fill="#1a2e35"/>
            <path id="Trazado_160128" data-name="Trazado 160128" d="M37,131.932c-.33.635-2.31.617-4.524,1.2-2.231.52-3.985,1.465-4.559,1.057-.26-.205-.1-.793.58-1.5a7.448,7.448,0,0,1,3.44-1.84,7.3,7.3,0,0,1,3.88.022c.923.3,1.323.753,1.185,1.057" transform="translate(18.524 87.044)" fill="#1a2e35"/>
            <path id="Trazado_160129" data-name="Trazado 160129" d="M54.266,134.262s-6.321-8.011-11.277-8.919c-6-1.1-6.673,5.336-12.105,5.319s-11.162-1.08-15.24,4.241c-4.463,5.824-.993,8.089.432,14.608,5.776,26.43,3.055,35.106-1.685,23.214-.52-1.3-4.544-1.341-6.664-6.866-2.75-7.164-5.5-16.025-5.3-21.7.17-4.786,1.84-8.521,5.416-13.118,5.646-7.257,15.376-10.065,22.191-11.23s21.7,2.938,24.232,14.455" transform="translate(1.611 79.721)" fill="#1a2e35"/>
            <path id="Trazado_160130" data-name="Trazado 160130" d="M13.823,152.246a4.075,4.075,0,0,0-5.288-2.615c-2.63,1-5.208,3.363-3.491,8.894,3.048,9.809,12.267,4.724,12.2,4.438-.048-.2-2.106-6.624-3.418-10.717" transform="translate(2.992 99.552)" fill="#c17560"/>
            <path id="Trazado_160131" data-name="Trazado 160131" d="M12.49,158.612c-.053-.017-.133.173-.382.4a1.791,1.791,0,0,1-1.268.423C9.685,159.374,8.3,158,7.7,156.244a5.9,5.9,0,0,1-.282-2.595,2.063,2.063,0,0,1,.878-1.71.908.908,0,0,1,1.153.157c.217.232.215.447.273.447.035.017.158-.23-.047-.61a1.149,1.149,0,0,0-.577-.495,1.358,1.358,0,0,0-1.022.043,2.521,2.521,0,0,0-1.313,2.076,6.1,6.1,0,0,0,.257,2.92c.678,1.956,2.265,3.493,3.81,3.461a1.923,1.923,0,0,0,1.483-.745c.228-.337.212-.573.172-.582" transform="translate(4.462 100.875)" fill="#7c4236"/>
            <path id="Trazado_160132" data-name="Trazado 160132" d="M11.715,153.89a9.732,9.732,0,0,0,4.726.778c1.591-.275,3.116-1.653,2.955-3.26-.073-.722-.462-1.473-.157-2.131.365-.783,1.416-.86,2.271-1a6.555,6.555,0,0,0,5.306-6.339c1.037.9,2.736.375,3.65-.647a14.76,14.76,0,0,0,1.9-3.626,4.222,4.222,0,0,1,2.928-2.638,10.166,10.166,0,0,0,2.283-.12c1.268-.475,1.483-2.171,1.323-3.516s-.422-2.891.485-3.9c.84-.932,2.266-.92,3.511-1.075s2.711-.862,2.695-2.115a2.436,2.436,0,0,0-.938-1.673,6.65,6.65,0,0,0-8.236-.338,9.237,9.237,0,0,0-9.122-4.124,9.237,9.237,0,0,0-7.3,6.848,9.147,9.147,0,0,0-13.205,7.106,6.791,6.791,0,0,0-6.051,4.109,6.793,6.793,0,0,0,1.411,7.176c-1.5,1.508-2.533,3.7-2,5.754s3.088,3.548,4.916,2.465a3.809,3.809,0,0,0,2.68,4.264,3.808,3.808,0,0,0,4.416-2.425" transform="translate(0 78.68)" fill="#1a2e35"/>
            <path id="Trazado_160133" data-name="Trazado 160133" d="M37.367,122.224a.525.525,0,0,1,.048.182c.018.123.062.3.082.547a6.417,6.417,0,0,1-.192,2.1A7.362,7.362,0,0,1,35.757,128a6.84,6.84,0,0,1-3.735,2.275l.107-.265a3.711,3.711,0,0,1,.557,2.786,10.677,10.677,0,0,1-1.022,2.9,7.623,7.623,0,0,1-.795,1.441,3.579,3.579,0,0,1-1.408,1.015,3.744,3.744,0,0,1-3.5-.262l.34-.208a7.7,7.7,0,0,1-1.73,6.006,5.615,5.615,0,0,1-2.956,1.961,10.138,10.138,0,0,1-3.4.182l.232-.19a8.066,8.066,0,0,1-1.5,3.7,4.307,4.307,0,0,1-3.188,1.891,5.656,5.656,0,0,1-5.376-3.108l.253.043a5.3,5.3,0,0,1-3.263,1.438,5.738,5.738,0,0,1-2.663-.4,4.961,4.961,0,0,1-1.44-.9,2.46,2.46,0,0,1-.393-.443,6.169,6.169,0,0,0,1.895,1.187,5.694,5.694,0,0,0,2.578.315,5.061,5.061,0,0,0,3.063-1.411l.157-.157.1.2a5.333,5.333,0,0,0,5.064,2.856A3.907,3.907,0,0,0,16.62,149.1a7.708,7.708,0,0,0,1.4-3.506l.027-.2.2.015a9.815,9.815,0,0,0,3.248-.177,5.185,5.185,0,0,0,2.728-1.82,7.284,7.284,0,0,0,1.641-5.661l-.068-.487.408.278a3.331,3.331,0,0,0,3.091.23,3.194,3.194,0,0,0,1.252-.888,7.507,7.507,0,0,0,.75-1.352,10.428,10.428,0,0,0,1.013-2.786,3.364,3.364,0,0,0-.468-2.533l-.145-.213.253-.053a6.589,6.589,0,0,0,3.595-2.12,7.3,7.3,0,0,0,1.57-2.816,7.926,7.926,0,0,0,.247-2.781" transform="translate(0.588 81.458)" fill="#375a64"/>
            <path id="Trazado_160134" data-name="Trazado 160134" d="M36.078,153.714c.058.087-.415.553-1.38,1.007a8.67,8.67,0,0,1-7.989-.522c-.9-.573-1.3-1.1-1.237-1.176.147-.213,2.191,1.386,5.224,1.548,3.028.233,5.263-1.087,5.381-.857" transform="translate(16.972 101.972)" fill="#1a2e35"/>
            <path id="Trazado_160135" data-name="Trazado 160135" d="M114.932,189.56a17.811,17.811,0,0,1,2.693-7.249c2.4-3.8,8.877-8.139,8.989-11.122s3.446-1.7,3.831,1.861c.242,2.268-2.485,9.224-2.485,9.224s5.583-.262,8.437-3.291,13.872-10.25,15.671-8.949c2.038,1.472-.935,3.063-2.063,4.243-.858.9-7.692,7.306-7.692,7.306s15.831-5.364,18.076-5.209c2.438.168.778,2.778-.218,3.123-.627.217,1.975,1.288.578,3.683-.95,1.625-7.072,5.036-8.867,5.606l-3.7,1.173,11.652-2.215s2.488,1.2.053,2.946c-1.088.78-33.836,16.021-36.446,16.976-4.508,1.65-11.012,3.77-11.012,3.77L106.6,192.416Z" transform="translate(71.043 112.984)" fill="#c17560"/>
            <path id="Trazado_160136" data-name="Trazado 160136" d="M146.2,175.513c.1.182-3.881,2.6-9.031,5.129-5.138,2.566-9.532,4.163-9.609,3.951a14.3,14.3,0,0,1,2.693-1.42q2.945-1.432,6.583-3.206,3.627-1.79,6.569-3.24a13.21,13.21,0,0,1,2.795-1.215" transform="translate(85.014 116.967)" fill="#7c4236"/>
            <path id="Trazado_160137" data-name="Trazado 160137" d="M20.006,175.22S6.434,196.307,9.055,214c1.323,8.936,19.3,90.861,19.3,90.861l1.953,16.516a9.047,9.047,0,0,0,9.742,7.954l71.518-13.675c3.851-.6,4.651-8.992,3.591-12.743l-7.017-24.85L86.561,201.64,59.394,173.245Z" transform="translate(5.811 115.462)" fill="#e1e1e1"/>
            <g id="Grupo_71854" data-name="Grupo 71854" transform="translate(35.616 336.195)" opacity="0.3">
              <g id="Grupo_71853" data-name="Grupo 71853">
                <g id="Grupo_71852" data-name="Grupo 71852" clip-path="url(#clip-path-9)">
                  <path id="Trazado_160138" data-name="Trazado 160138" d="M21.372,201.741s42.9,30.588,57.97,30.215l12.817.367-1.966-6.959Z" transform="translate(-21.373 -201.741)"/>
                </g>
              </g>
            </g>
            <path id="Trazado_160139" data-name="Trazado 160139" d="M18.887,212.554s57.858,34.984,84.813,28.028,81.237-31.468,81.237-31.468l-12.53-29.28L100.222,205.8s-51.68-24.154-62.776-27.542c-16.308-4.981-38.47,16.513-18.559,34.294" transform="translate(7.335 118.318)" fill="#e1e1e1"/>
            <path id="Trazado_160140" data-name="Trazado 160140" d="M41.481,177.989,77.66,280.308s11.95,7.664,12,7.829.625-13.307.625-13.307-28.518-69.94-36.1-83.632-10.592-15.293-10.592-15.293Z" transform="translate(27.646 117.236)" fill="#eb9595"/>
            <path id="Trazado_160141" data-name="Trazado 160141" d="M18.942,212.65s-.155-.122-.442-.385c-.3-.282-.725-.673-1.273-1.185a25.43,25.43,0,0,1-4.076-5.373,17.105,17.105,0,0,1-2.083-10.517,19.781,19.781,0,0,1,7.251-12.4,23.521,23.521,0,0,1,7.5-4.238,20.087,20.087,0,0,1,4.521-1.03,17.422,17.422,0,0,1,4.841.07,18.084,18.084,0,0,1,2.446.535l2.4.815c1.583.608,3.208,1.2,4.829,1.876,3.261,1.308,6.6,2.728,10.044,4.211,13.752,5.948,29.045,12.9,45.528,20.554l-.263-.012,72.175-26,.333-.12.14.327c.608,1.42,1.265,2.956,1.925,4.5,3.631,8.491,7.207,16.85,10.6,24.785l.145.338-.335.148c-11.492,5.138-22.736,9.934-33.616,14.38s-21.4,8.551-31.533,12.042c-5.069,1.736-10.029,3.365-14.925,4.664a37.586,37.586,0,0,1-14.657.94c-9.454-1.057-17.886-3.79-25.4-6.466A273.855,273.855,0,0,1,30.8,219.451c-3.89-2.095-6.858-3.793-8.854-4.963-.98-.585-1.73-1.035-2.258-1.352-.5-.31-.75-.487-.75-.487s.27.135.787.427c.537.3,1.3.732,2.29,1.292,2.018,1.13,5.006,2.788,8.914,4.843a283.331,283.331,0,0,0,34.253,15.432c7.5,2.638,15.921,5.329,25.29,6.348a36.965,36.965,0,0,0,14.435-.962c4.869-1.3,9.814-2.94,14.87-4.683,10.107-3.5,20.606-7.634,31.478-12.079s22.1-9.261,33.581-14.4l-.19.487c-3.4-7.934-6.974-16.293-10.609-24.782-.66-1.54-1.317-3.076-1.925-4.5l.475.2-72.2,25.939-.133.048-.13-.06c-16.465-7.674-31.741-14.665-45.465-20.651-3.431-1.493-6.768-2.921-10.017-4.239-1.616-.678-3.23-1.277-4.806-1.886l-2.366-.817a18.111,18.111,0,0,0-2.371-.528A16.89,16.89,0,0,0,30.392,178a19.643,19.643,0,0,0-4.426.988,23.146,23.146,0,0,0-7.381,4.121,19.458,19.458,0,0,0-7.2,12.122A16.933,16.933,0,0,0,13.346,205.6a26.366,26.366,0,0,0,3.963,5.4c.53.527.935.93,1.228,1.22.273.277.4.43.4.43" transform="translate(7.28 118.222)" fill="#1a2e35"/>
            <path id="Trazado_160142" data-name="Trazado 160142" d="M54.69,185.814s.263.077.767.262,1.258.457,2.231.857c1.951.773,4.809,1.985,8.482,3.593,7.337,3.228,17.918,8.082,31.01,14.3l-.2-.01,72.15-26.064.323-.117.135.317,12.542,29.275.147.342-.338.148-10.5,4.636c-10.552,4.593-20.919,8.922-31,12.938-10.087,4-19.876,7.721-29.371,10.792-2.388.728-4.719,1.53-7.076,2.148l-3.5.965a31.017,31.017,0,0,1-3.553.618,50.154,50.154,0,0,1-13.767-.592,128.18,128.18,0,0,1-23.717-6.811,279.288,279.288,0,0,1-32.374-15.062c-3.706-2.008-6.548-3.636-8.461-4.763l-2.163-1.3c-.483-.3-.72-.472-.72-.472s.262.128.758.407c.522.292,1.252.7,2.2,1.235,1.938,1.083,4.8,2.67,8.524,4.636a291.972,291.972,0,0,0,32.424,14.822,128.755,128.755,0,0,0,23.629,6.693,49.64,49.64,0,0,0,13.588.55,30,30,0,0,0,3.468-.612l3.475-.967c2.341-.62,4.668-1.425,7.046-2.156,9.464-3.08,19.239-6.814,29.313-10.817,10.069-4.021,20.431-8.352,30.973-12.943l10.5-4.629-.193.49c-4.3-10.065-8.491-19.861-12.518-29.285l.457.2-72.22,25.869-.1.037-.1-.047c-13.057-6.281-23.6-11.205-30.9-14.513-3.651-1.648-6.489-2.9-8.422-3.718l-2.2-.922c-.5-.208-.742-.332-.742-.332" transform="translate(10.487 119.056)" fill="#1a2e35"/>
            <g id="Grupo_71857" data-name="Grupo 71857" transform="translate(35.616 336.195)" opacity="0.3">
              <g id="Grupo_71856" data-name="Grupo 71856">
                <g id="Grupo_71855" data-name="Grupo 71855" clip-path="url(#clip-path-9)">
                  <path id="Trazado_160143" data-name="Trazado 160143" d="M21.372,201.741s42.9,30.588,57.97,30.215l12.817.367-1.966-6.959Z" transform="translate(-21.373 -201.741)"/>
                </g>
              </g>
            </g>
            <path id="Trazado_160144" data-name="Trazado 160144" d="M18.887,212.554s57.858,34.984,84.813,28.028,81.237-31.468,81.237-31.468l-12.53-29.28L100.222,205.8s-51.68-24.154-62.776-27.542c-16.308-4.981-38.47,16.513-18.559,34.294" transform="translate(7.335 118.318)" fill="#e1e1e1"/>
            <path id="Trazado_160145" data-name="Trazado 160145" d="M18.942,212.65s-.155-.122-.442-.385c-.3-.282-.725-.673-1.273-1.185a25.43,25.43,0,0,1-4.076-5.373,17.105,17.105,0,0,1-2.083-10.517,19.781,19.781,0,0,1,7.251-12.4,23.521,23.521,0,0,1,7.5-4.238,20.087,20.087,0,0,1,4.521-1.03,17.422,17.422,0,0,1,4.841.07,18.084,18.084,0,0,1,2.446.535l2.4.815c1.583.608,3.208,1.2,4.829,1.876,3.261,1.308,6.6,2.728,10.044,4.211,13.752,5.948,29.045,12.9,45.528,20.554l-.263-.012,72.175-26,.333-.12.14.327c.608,1.42,1.265,2.956,1.925,4.5,3.631,8.491,7.207,16.85,10.6,24.785l.145.338-.335.148c-11.492,5.138-22.736,9.934-33.616,14.38s-21.4,8.551-31.533,12.042c-5.069,1.736-10.029,3.365-14.925,4.664a37.586,37.586,0,0,1-14.657.94c-9.454-1.057-17.886-3.79-25.4-6.466A273.855,273.855,0,0,1,30.8,219.451c-3.89-2.095-6.858-3.793-8.854-4.963-.98-.585-1.73-1.035-2.258-1.352-.5-.31-.75-.487-.75-.487s.27.135.787.427c.537.3,1.3.732,2.29,1.292,2.018,1.13,5.006,2.788,8.914,4.843a283.331,283.331,0,0,0,34.253,15.432c7.5,2.638,15.921,5.329,25.29,6.348a36.965,36.965,0,0,0,14.435-.962c4.869-1.3,9.814-2.94,14.87-4.683,10.107-3.5,20.606-7.634,31.478-12.079s22.1-9.261,33.581-14.4l-.19.487c-3.4-7.934-6.974-16.293-10.609-24.782-.66-1.54-1.317-3.076-1.925-4.5l.475.2-72.2,25.939-.133.048-.13-.06c-16.465-7.674-31.741-14.665-45.465-20.651-3.431-1.493-6.768-2.921-10.017-4.239-1.616-.678-3.23-1.277-4.806-1.886l-2.366-.817a18.111,18.111,0,0,0-2.371-.528A16.89,16.89,0,0,0,30.392,178a19.643,19.643,0,0,0-4.426.988,23.146,23.146,0,0,0-7.381,4.121,19.458,19.458,0,0,0-7.2,12.122A16.933,16.933,0,0,0,13.346,205.6a26.366,26.366,0,0,0,3.963,5.4c.53.527.935.93,1.228,1.22.273.277.4.43.4.43" transform="translate(7.28 118.222)" fill="#1a2e35"/>
            <path id="Trazado_160146" data-name="Trazado 160146" d="M54.69,185.814s.263.077.767.262,1.258.457,2.231.857c1.951.773,4.809,1.985,8.482,3.593,7.337,3.228,17.918,8.082,31.01,14.3l-.2-.01,72.15-26.064.323-.117.135.317,12.542,29.275.147.342-.338.148-10.5,4.636c-10.552,4.593-20.919,8.922-31,12.938-10.087,4-19.876,7.721-29.371,10.792-2.388.728-4.719,1.53-7.076,2.148l-3.5.965a31.017,31.017,0,0,1-3.553.618,50.154,50.154,0,0,1-13.767-.592,128.18,128.18,0,0,1-23.717-6.811,279.288,279.288,0,0,1-32.374-15.062c-3.706-2.008-6.548-3.636-8.461-4.763l-2.163-1.3c-.483-.3-.72-.472-.72-.472s.262.128.758.407c.522.292,1.252.7,2.2,1.235,1.938,1.083,4.8,2.67,8.524,4.636a291.972,291.972,0,0,0,32.424,14.822,128.755,128.755,0,0,0,23.629,6.693,49.64,49.64,0,0,0,13.588.55,30,30,0,0,0,3.468-.612l3.475-.967c2.341-.62,4.668-1.425,7.046-2.156,9.464-3.08,19.239-6.814,29.313-10.817,10.069-4.021,20.431-8.352,30.973-12.943l10.5-4.629-.193.49c-4.3-10.065-8.491-19.861-12.518-29.285l.457.2-72.22,25.869-.1.037-.1-.047c-13.057-6.281-23.6-11.205-30.9-14.513-3.651-1.648-6.489-2.9-8.422-3.718l-2.2-.922c-.5-.208-.742-.332-.742-.332" transform="translate(10.487 119.056)" fill="#1a2e35"/>
            <path id="Trazado_160147" data-name="Trazado 160147" d="M15.835,178.526c.253-1.283-1.237-6.691-1.237-6.691l39.46-1.626,5.339,9.157Z" transform="translate(9.729 113.439)" fill="#e1e1e1"/>
            <path id="Trazado_160148" data-name="Trazado 160148" d="M53.764,170.209a17.961,17.961,0,0,1,.45,3.163c.215,2.016.487,4.9.788,8.381l.035.395-.4,0a138.081,138.081,0,0,1-14.073-.838c-7.064-.737-13.423-1.566-18.043-2l-5.474-.485a9.03,9.03,0,0,1-2.008-.237,8.975,8.975,0,0,1,2.023-.1c1.3,0,3.186.062,5.509.21,4.648.283,11.035,1.018,18.08,1.753,5.166.538,9.98.893,13.993.975l-.365.4c-.225-3.5-.393-6.4-.483-8.431a17.6,17.6,0,0,1-.032-3.18" transform="translate(10.023 113.439)" fill="#1a2e35"/>
            <g id="Grupo_71860" data-name="Grupo 71860" transform="translate(28.302 286.527)" opacity="0.3">
              <g id="Grupo_71859" data-name="Grupo 71859">
                <g id="Grupo_71858" data-name="Grupo 71858" clip-path="url(#clip-path-11)">
                  <path id="Trazado_160149" data-name="Trazado 160149" d="M16.983,177.556l40.825,7.609-5.183-13.228.462,8.254Z" transform="translate(-16.983 -171.937)"/>
                </g>
              </g>
            </g>
            <path id="Trazado_160150" data-name="Trazado 160150" d="M39.055,179.589l4.461,2.486,2.841-.992L41.065,172a1.63,1.63,0,0,0-1.37-.745H38.427Z" transform="translate(25.61 114.139)" fill="#eb9595"/>
          </g>
        </g>
        <text id="C" transform="translate(191.006 422.918)" fill="#fff" font-size="129" font-family="Roboto-Black, Roboto" font-weight="800"><tspan x="0" y="0">C</tspan></text>
        <text id="C-2" data-name="C" transform="translate(187.54 422.918)" fill="#964747" font-size="129" font-family="Roboto-Black, Roboto" font-weight="800"><tspan x="0" y="0">C</tspan></text>
        <text id="R" transform="translate(368.428 423.918)" fill="#fff" font-size="130" font-family="Roboto-Black, Roboto" font-weight="800"><tspan x="0" y="0">R</tspan></text>
        <text id="R-2" data-name="R" transform="translate(364.829 423.918)" fill="#1c9873" font-size="130" font-family="Roboto-Black, Roboto" font-weight="800"><tspan x="0" y="0">R</tspan></text>
        <text id="U" transform="translate(555.847 422.918)" fill="#fff" font-size="129" font-family="Roboto-Black, Roboto" font-weight="800"><tspan x="0" y="0">U</tspan></text>
        <text id="U-2" data-name="U" transform="translate(551.981 422.918)" fill="#964747" font-size="129" font-family="Roboto-Black, Roboto" font-weight="800"><tspan x="0" y="0">U</tspan></text>
        <text id="D" transform="translate(741.933 423.918)" fill="#fff" font-size="130" font-family="Roboto-Black, Roboto" font-weight="800"><tspan x="0" y="0">D</tspan></text>
        <text id="D-2" data-name="D" transform="translate(738.733 423.918)" fill="#1c9873" font-size="130" font-family="Roboto-Black, Roboto" font-weight="800"><tspan x="0" y="0">D</tspan></text>
      </g>
    </g>
    <circle id="Elipse_24" data-name="Elipse 24" cx="14.5" cy="14.5" r="14.5" transform="translate(571 1898)" fill="#964747"/>
    <circle id="Elipse_26" data-name="Elipse 26" cx="14.5" cy="14.5" r="14.5" transform="translate(895 1898)" fill="#964747"/>
    <circle id="Elipse_25" data-name="Elipse 25" cx="14.5" cy="14.5" r="14.5" transform="translate(746 1898)" fill="#1c9873"/>
    <circle id="Elipse_27" data-name="Elipse 27" cx="14.5" cy="14.5" r="14.5" transform="translate(1070 1898)" fill="#1c9873"/>
  </g>
</svg>
