<svg id="Grupo_72142" data-name="Grupo 72142" xmlns="http://www.w3.org/2000/svg" xmlns:xlink="http://www.w3.org/1999/xlink" width="431.349" height="294.452" viewBox="0 0 431.349 294.452">
  <defs>
    <clipPath id="clip-path">
      <rect id="Rectángulo_9229" data-name="Rectángulo 9229" width="431.349" height="294.452" fill="none"/>
    </clipPath>
    <clipPath id="clip-path-3">
      <rect id="Rectángulo_9223" data-name="Rectángulo 9223" width="13.214" height="2.716" fill="none"/>
    </clipPath>
    <clipPath id="clip-path-4">
      <rect id="Rectángulo_9224" data-name="Rectángulo 9224" width="1.995" height="1.986" fill="none"/>
    </clipPath>
    <clipPath id="clip-path-5">
      <rect id="Rectángulo_9225" data-name="Rectángulo 9225" width="25.689" height="2.07" fill="none"/>
    </clipPath>
    <clipPath id="clip-path-6">
      <rect id="Rectángulo_9226" data-name="Rectángulo 9226" width="12.703" height="2.608" fill="none"/>
    </clipPath>
    <clipPath id="clip-path-7">
      <rect id="Rectángulo_9227" data-name="Rectángulo 9227" width="20.278" height="12.808" fill="none"/>
    </clipPath>
  </defs>
  <g id="Grupo_72141" data-name="Grupo 72141" clip-path="url(#clip-path)">
    <g id="Grupo_72140" data-name="Grupo 72140">
      <g id="Grupo_72139" data-name="Grupo 72139" clip-path="url(#clip-path)">
        <path id="Trazado_160920" data-name="Trazado 160920" d="M254.429,98.852l4.114-3.049a1.134,1.134,0,0,1,1.18-.094q.726.372,1.494.688a19.03,19.03,0,0,0,2.872.935,1.118,1.118,0,0,1,.857.927l.813,5.289a1.1,1.1,0,0,0,1.168.935l4.882-.322a1.087,1.087,0,0,0,1.012-1.033l.208-4.923a1.092,1.092,0,0,1,.82-1.022,19.8,19.8,0,0,0,5.679-2.58,1.127,1.127,0,0,1,1.369.11l2.212,2.023a1.138,1.138,0,0,0,1.5.015l3.635-3.222a.991.991,0,0,0,.192-.217,1.092,1.092,0,0,0-.032-1.27l-2.274-3.076-.556-.749a19.477,19.477,0,0,0,1.232-2.477,19.827,19.827,0,0,0,1.085-3.529,1.092,1.092,0,0,1,.906-.866l4.261-.649a1.131,1.131,0,0,0,.957-1.195l-.245-3.733L293.7,74.7a1.146,1.146,0,0,0-1.093-1.073l-4.114-.177a1.09,1.09,0,0,1-1.019-.782,19.626,19.626,0,0,0-1.633-3.869,3.5,3.5,0,0,0-.168-.311.589.589,0,0,1-.052-.106,1.116,1.116,0,0,1,.2-1.222l3.277-3.6a.776.776,0,0,0,.1-.127,1.135,1.135,0,0,0-.088-1.371L285.9,58.431a1.13,1.13,0,0,0-1.517-.16l-4.29,3.182a1.092,1.092,0,0,1-1.236.053,19.9,19.9,0,0,0-2.713-1.365q-.759-.313-1.529-.557a1.15,1.15,0,0,1-.786-.922l-.782-5.084a1.1,1.1,0,0,0-1.158-.93l-4.829.326a1.148,1.148,0,0,0-1.074,1.1l-.166,3.9a1.129,1.129,0,0,1-.9,1.061A19.738,19.738,0,0,0,259.2,61.1a1.12,1.12,0,0,1-1.309-.152l-3.242-2.955a1.16,1.16,0,0,0-1.542-.013l-3.617,3.193a1.109,1.109,0,0,0-.156,1.495l.131.18,2.644,3.572a1.133,1.133,0,0,1,.042,1.292l0,.005a19.65,19.65,0,0,0-1.6,3.086c-.24.584-.446,1.17-.63,1.765a1.112,1.112,0,0,1-.9.785l-4.326.659a1.151,1.151,0,0,0-.977,1.212l.322,4.809a1.231,1.231,0,0,0,.1.384,1.147,1.147,0,0,0,.981.67l3.286.132a1.145,1.145,0,0,1,.949.6,1.214,1.214,0,0,1,.107.3,19.682,19.682,0,0,0,3,7.171,1.107,1.107,0,0,1,.019,1.216,1.18,1.18,0,0,1-.117.151l-2.655,2.912a1.125,1.125,0,0,0-.013,1.5l.074.085,3.122,3.54a1.145,1.145,0,0,0,1.537.155m20.908-28.833a13.12,13.12,0,0,1,1.777,1.686,10.335,10.335,0,0,1,2.166,5.2c.013.175.021.347.028.519.332,10.493-11.88,15.452-18.972,7.51a10.721,10.721,0,0,1-2.113-4.406,6.943,6.943,0,0,1-.146-1.027,12.169,12.169,0,0,1,.424-4.109,10.607,10.607,0,0,1,16.836-5.375" transform="translate(-64.497 -13.932)" fill="#f7c5b9"/>
        <path id="Trazado_160921" data-name="Trazado 160921" d="M300.734,34.249l3.532-1.914a.889.889,0,0,1,.928.057q.523.368,1.084.7a14.978,14.978,0,0,0,2.128,1.043.879.879,0,0,1,.563.815l.047,4.2a.863.863,0,0,0,.8.854l3.828.289a.854.854,0,0,0,.9-.691l.705-3.8a.858.858,0,0,1,.75-.7,15.488,15.488,0,0,0,4.7-1.377.886.886,0,0,1,1.052.237l1.495,1.816a.893.893,0,0,0,1.167.178l3.18-2.1a.8.8,0,0,0,.173-.147.856.856,0,0,0,.115-.991l-1.427-2.641-.349-.643a15.372,15.372,0,0,0,1.23-1.788,15.635,15.635,0,0,0,1.232-2.622.856.856,0,0,1,.8-.572l3.383-.035a.886.886,0,0,0,.875-.822l.222-2.927.061-.839a.9.9,0,0,0-.731-.954L330,18.274a.854.854,0,0,1-.705-.72,15.4,15.4,0,0,0-.842-3.186,2.737,2.737,0,0,0-.1-.26.55.55,0,0,1-.029-.089.876.876,0,0,1,.292-.927l2.943-2.434a.619.619,0,0,0,.092-.088.89.89,0,0,0,.083-1.075l-2.09-3.173a.887.887,0,0,0-1.161-.291l-3.684,2a.858.858,0,0,1-.966-.1,15.565,15.565,0,0,0-1.957-1.36q-.555-.328-1.126-.6a.9.9,0,0,1-.51-.8L320.2,1.132a.863.863,0,0,0-.8-.85L315.613,0a.9.9,0,0,0-.956.735l-.56,3.008a.884.884,0,0,1-.818.724,15.486,15.486,0,0,0-4.671.98.88.88,0,0,1-1-.263l-2.193-2.653a.909.909,0,0,0-1.2-.18l-3.162,2.081a.87.87,0,0,0-.287,1.144l.082.155,1.66,3.066a.89.89,0,0,1-.11,1.009l0,0a15.452,15.452,0,0,0-1.586,2.22c-.251.427-.475.86-.684,1.3a.872.872,0,0,1-.784.51l-3.433.035a.9.9,0,0,0-.892.833l-.281,3.772a.993.993,0,0,0,.032.309.9.9,0,0,0,.688.629l2.538.465a.9.9,0,0,1,.671.573.942.942,0,0,1,.05.243,15.431,15.431,0,0,0,1.543,5.9.868.868,0,0,1-.12.947.853.853,0,0,1-.107.1l-2.384,1.969a.882.882,0,0,0-.176,1.163l.048.074,2.035,3.094a.9.9,0,0,0,1.177.29m19.425-20.092a10.3,10.3,0,0,1,1.194,1.506,8.116,8.116,0,0,1,1.109,4.28c-.01.137-.022.271-.035.406a8.383,8.383,0,0,1-16.724.085,5.45,5.45,0,0,1,0-.813,9.526,9.526,0,0,1,.782-3.146,8.323,8.323,0,0,1,13.673-2.317" transform="translate(-77.999 0)" fill="#f7c5b9"/>
        <path id="Trazado_160922" data-name="Trazado 160922" d="M515.523,244.917l4.361-2.364a1.1,1.1,0,0,1,1.146.071q.645.456,1.338.863A18.459,18.459,0,0,0,525,244.775a1.084,1.084,0,0,1,.7,1.006l.059,5.184a1.064,1.064,0,0,0,.993,1.055l4.727.357a1.053,1.053,0,0,0,1.111-.854l.871-4.694a1.057,1.057,0,0,1,.925-.868,19.169,19.169,0,0,0,5.8-1.7,1.093,1.093,0,0,1,1.3.293l1.846,2.242a1.1,1.1,0,0,0,1.441.219l3.926-2.6a.983.983,0,0,0,.214-.182,1.058,1.058,0,0,0,.141-1.223l-1.762-3.261-.431-.793a19.023,19.023,0,0,0,1.519-2.209,19.313,19.313,0,0,0,1.521-3.237,1.056,1.056,0,0,1,.987-.707l4.177-.043a1.1,1.1,0,0,0,1.081-1.016l.274-3.614.076-1.036a1.11,1.11,0,0,0-.9-1.177l-3.922-.732a1.056,1.056,0,0,1-.871-.889,19.041,19.041,0,0,0-1.039-3.934,3.329,3.329,0,0,0-.119-.321.6.6,0,0,1-.036-.11,1.083,1.083,0,0,1,.36-1.145l3.633-3.005a.854.854,0,0,0,.115-.109,1.1,1.1,0,0,0,.1-1.328l-2.582-3.917a1.1,1.1,0,0,0-1.433-.36l-4.548,2.468a1.059,1.059,0,0,1-1.194-.118,19.361,19.361,0,0,0-2.416-1.679q-.686-.4-1.391-.743a1.114,1.114,0,0,1-.628-.992l-.058-4.983a1.064,1.064,0,0,0-.984-1.05l-4.676-.346a1.113,1.113,0,0,0-1.181.907l-.69,3.714a1.094,1.094,0,0,1-1.01.894,19.124,19.124,0,0,0-5.768,1.21,1.084,1.084,0,0,1-1.235-.324l-2.708-3.276a1.124,1.124,0,0,0-1.477-.222l-3.9,2.57a1.073,1.073,0,0,0-.354,1.412l.1.192,2.049,3.786a1.1,1.1,0,0,1-.136,1.246l0,0a19.1,19.1,0,0,0-1.958,2.741c-.31.527-.587,1.062-.845,1.607a1.076,1.076,0,0,1-.967.631l-4.24.043a1.115,1.115,0,0,0-1.1,1.029l-.346,4.657a1.207,1.207,0,0,0,.039.382,1.11,1.11,0,0,0,.85.776l3.134.576a1.108,1.108,0,0,1,.828.707,1.172,1.172,0,0,1,.062.3,19.064,19.064,0,0,0,1.9,7.288,1.071,1.071,0,0,1-.148,1.169,1.05,1.05,0,0,1-.132.129l-2.944,2.431a1.092,1.092,0,0,0-.217,1.437l.06.091,2.513,3.821a1.11,1.11,0,0,0,1.453.359m23.985-24.809a12.7,12.7,0,0,1,1.474,1.86,10.011,10.011,0,0,1,1.369,5.284c-.011.169-.027.335-.044.5-1.112,10.11-13.5,13.2-19.222,4.619a10.394,10.394,0,0,1-1.427-4.514,6.743,6.743,0,0,1,0-1,11.772,11.772,0,0,1,.967-3.884,10.276,10.276,0,0,1,16.882-2.861" transform="translate(-134.468 -53.623)" fill="#f7c5b9"/>
        <path id="Trazado_160923" data-name="Trazado 160923" d="M551.85,190.517l2.333-1.265a.589.589,0,0,1,.613.038q.345.244.716.462a9.775,9.775,0,0,0,1.405.689.58.58,0,0,1,.372.538l.032,2.774a.571.571,0,0,0,.531.565l2.529.19a.563.563,0,0,0,.595-.457l.466-2.511a.567.567,0,0,1,.5-.465,10.221,10.221,0,0,0,3.1-.91.585.585,0,0,1,.694.157l.988,1.2a.59.59,0,0,0,.771.118l2.1-1.388a.529.529,0,0,0,.115-.1.566.566,0,0,0,.076-.654l-.943-1.744-.231-.425a10.153,10.153,0,0,0,.813-1.181,10.278,10.278,0,0,0,.813-1.732.566.566,0,0,1,.529-.378l2.234-.023a.587.587,0,0,0,.579-.543l.146-1.933.04-.554a.593.593,0,0,0-.482-.63l-2.1-.391a.565.565,0,0,1-.466-.476,10.208,10.208,0,0,0-.556-2.1c-.018-.061-.041-.115-.064-.172a.318.318,0,0,1-.019-.058.578.578,0,0,1,.193-.613l1.944-1.608a.38.38,0,0,0,.061-.058.589.589,0,0,0,.055-.71l-1.381-2.1a.586.586,0,0,0-.767-.193l-2.433,1.321a.567.567,0,0,1-.638-.063,10.376,10.376,0,0,0-1.293-.9c-.244-.144-.493-.276-.744-.4a.6.6,0,0,1-.337-.531l-.031-2.666a.569.569,0,0,0-.526-.562l-2.5-.185a.6.6,0,0,0-.632.485l-.369,1.986a.583.583,0,0,1-.54.479,10.222,10.222,0,0,0-3.086.648.581.581,0,0,1-.66-.174l-1.449-1.752a.6.6,0,0,0-.79-.118l-2.089,1.374a.574.574,0,0,0-.189.756l.054.1,1.1,2.026a.587.587,0,0,1-.073.666v0a10.14,10.14,0,0,0-1.048,1.467c-.165.282-.314.568-.452.86a.576.576,0,0,1-.518.337l-2.269.024a.6.6,0,0,0-.589.55l-.186,2.491a.656.656,0,0,0,.021.2.593.593,0,0,0,.454.415l1.677.308a.592.592,0,0,1,.443.378.611.611,0,0,1,.033.161,10.193,10.193,0,0,0,1.019,3.9.573.573,0,0,1-.079.625.568.568,0,0,1-.071.069l-1.575,1.3a.582.582,0,0,0-.116.768l.032.049,1.344,2.044a.594.594,0,0,0,.777.192m12.832-13.273a6.855,6.855,0,0,1,.789.995,5.362,5.362,0,0,1,.732,2.827c-.006.09-.015.179-.024.268a5.537,5.537,0,0,1-11.047.056,3.643,3.643,0,0,1,0-.538,6.31,6.31,0,0,1,.517-2.078,5.5,5.5,0,0,1,9.032-1.53" transform="translate(-144.993 -44.431)" fill="#f7c5b9"/>
        <path id="Trazado_160924" data-name="Trazado 160924" d="M23.521,190.376l2.558-1.387a.644.644,0,0,1,.671.042q.379.267.785.506a10.819,10.819,0,0,0,1.541.756.636.636,0,0,1,.408.59l.034,3.041a.626.626,0,0,0,.583.619l2.772.209a.618.618,0,0,0,.652-.5l.51-2.753a.621.621,0,0,1,.543-.51,11.236,11.236,0,0,0,3.4-1,.639.639,0,0,1,.761.171l1.083,1.315a.646.646,0,0,0,.845.129l2.3-1.522a.568.568,0,0,0,.126-.107.621.621,0,0,0,.083-.717l-1.034-1.913-.253-.465a11.147,11.147,0,0,0,.891-1.3,11.311,11.311,0,0,0,.893-1.9.619.619,0,0,1,.579-.415l2.45-.025a.642.642,0,0,0,.634-.6l.16-2.12.044-.607a.651.651,0,0,0-.529-.691l-2.3-.429a.62.62,0,0,1-.511-.522,11.164,11.164,0,0,0-.61-2.308,1.981,1.981,0,0,0-.07-.188.341.341,0,0,1-.021-.064.633.633,0,0,1,.21-.671l2.132-1.763a.46.46,0,0,0,.067-.064.645.645,0,0,0,.06-.779l-1.514-2.3a.643.643,0,0,0-.841-.211l-2.668,1.447a.62.62,0,0,1-.7-.068,11.314,11.314,0,0,0-1.418-.985q-.4-.236-.816-.435a.654.654,0,0,1-.368-.582l-.034-2.923a.625.625,0,0,0-.577-.616l-2.744-.2a.652.652,0,0,0-.692.532l-.405,2.179a.641.641,0,0,1-.592.524,11.223,11.223,0,0,0-3.383.71.636.636,0,0,1-.724-.19L26.912,167.4a.658.658,0,0,0-.866-.13l-2.291,1.507a.63.63,0,0,0-.207.828l.06.113,1.2,2.222a.642.642,0,0,1-.079.73v0a11.2,11.2,0,0,0-1.149,1.608c-.182.309-.344.622-.5.942a.629.629,0,0,1-.567.37l-2.487.026a.653.653,0,0,0-.646.6l-.2,2.732a.7.7,0,0,0,.023.224.65.65,0,0,0,.5.455l1.838.338a.649.649,0,0,1,.485.415.691.691,0,0,1,.037.176,11.165,11.165,0,0,0,1.117,4.275.625.625,0,0,1-.165.762l-1.727,1.426a.64.64,0,0,0-.127.843l.035.054,1.474,2.241a.652.652,0,0,0,.853.21M37.59,175.824a7.453,7.453,0,0,1,.865,1.091,5.868,5.868,0,0,1,.8,3.1c-.007.1-.016.2-.026.294a6.071,6.071,0,0,1-12.112.062,3.935,3.935,0,0,1,0-.59,6.881,6.881,0,0,1,.567-2.278,6.028,6.028,0,0,1,9.9-1.678" transform="translate(-5.075 -43.816)" fill="#f7c5b9"/>
        <path id="Trazado_160925" data-name="Trazado 160925" d="M336.58,114.958l6.576-4.706a1.791,1.791,0,0,1,1.867-.117q1.136.606,2.339,1.124a30.057,30.057,0,0,0,4.51,1.552A1.768,1.768,0,0,1,353.2,114.3l1.144,8.373a1.735,1.735,0,0,0,1.82,1.506l7.716-.379a1.716,1.716,0,0,0,1.624-1.605l.46-7.768a1.723,1.723,0,0,1,1.321-1.592,31.237,31.237,0,0,0,9.035-3.924,1.779,1.779,0,0,1,2.158.21l3.44,3.253a1.8,1.8,0,0,0,2.374.063l5.825-4.992a1.576,1.576,0,0,0,.309-.338,1.726,1.726,0,0,0-.018-2.007l-3.51-4.916-.858-1.2a30.866,30.866,0,0,0,2.01-3.88,31.385,31.385,0,0,0,1.805-5.543,1.723,1.723,0,0,1,1.454-1.343l6.745-.914a1.787,1.787,0,0,0,1.544-1.861l-.29-5.9-.088-1.69a1.809,1.809,0,0,0-1.7-1.722l-6.492-.389a1.721,1.721,0,0,1-1.588-1.262,31.045,31.045,0,0,0-2.477-6.152c-.078-.177-.165-.33-.257-.495a.944.944,0,0,1-.081-.17,1.764,1.764,0,0,1,.35-1.924l5.268-5.6a1.326,1.326,0,0,0,.163-.2,1.793,1.793,0,0,0-.1-2.168l-4.967-5.814a1.784,1.784,0,0,0-2.391-.292l-6.856,4.911a1.724,1.724,0,0,1-1.953.051,31.6,31.6,0,0,0-4.247-2.227q-1.191-.513-2.4-.919a1.818,1.818,0,0,1-1.218-1.477l-1.1-8.048a1.734,1.734,0,0,0-1.8-1.5l-7.634.387a1.813,1.813,0,0,0-1.725,1.706l-.365,6.146a1.781,1.781,0,0,1-1.452,1.651,31.158,31.158,0,0,0-9.083,3.125,1.771,1.771,0,0,1-2.063-.275l-5.042-4.75a1.832,1.832,0,0,0-2.434-.06l-5.8,4.947a1.75,1.75,0,0,0-.286,2.355l.2.289,4.081,5.71a1.788,1.788,0,0,1,.032,2.041l0,.008a31.012,31.012,0,0,0-2.612,4.83c-.395.916-.735,1.836-1.041,2.77a1.755,1.755,0,0,1-1.437,1.216l-6.848.927a1.816,1.816,0,0,0-1.573,1.887l.381,7.6a1.968,1.968,0,0,0,.141.608,1.809,1.809,0,0,0,1.531,1.084l5.187.3a1.8,1.8,0,0,1,1.482.975,1.966,1.966,0,0,1,.161.474,31.033,31.033,0,0,0,4.556,11.4,1.749,1.749,0,0,1,0,1.921,1.708,1.708,0,0,1-.188.236l-4.269,4.528a1.778,1.778,0,0,0-.06,2.367l.115.136,4.837,5.67a1.808,1.808,0,0,0,2.422.287M370.351,69.98a20.711,20.711,0,0,1,2.761,2.71,16.328,16.328,0,0,1,3.284,8.268c.015.276.023.548.03.821.247,16.576-19.164,24.085-30.153,11.359a16.943,16.943,0,0,1-3.221-7.011,11.049,11.049,0,0,1-.2-1.625,19.194,19.194,0,0,1,.777-6.477,16.75,16.75,0,0,1,26.725-8.044" transform="translate(-84.76 -11.237)" fill="#f7c5b9"/>
        <path id="Trazado_160926" data-name="Trazado 160926" d="M253.385,175.7l-9.263,110.138s-.971,6.676,4,6.688c8.165.02,40.64,0,40.64,0s-6.145-1.39-6.07-4.517c.087-3.686,10.826-113.351,10.826-113.351Z" transform="translate(-64.584 -46.222)" fill="#e84847"/>
        <path id="Trazado_160927" data-name="Trazado 160927" d="M292.354,289.811c-1.606,0-32.624.1-40.576,0-3.466-.043-4.073-3.081-4.1-5.048a9.813,9.813,0,0,1,.105-1.64l.24-2.862.614-7.3.543-6.446.7-8.283.588-6.992,6.581-78.261,40.129-1.041s-4.523,45.895-7.722,79.3c-.357,3.722-.7,7.291-1.011,10.623q-.153,1.6-.295,3.116c-.3,3.161-.568,6.063-.8,8.626-.125,1.351-.24,2.606-.343,3.755-.408,4.506-.647,7.382-.65,7.929a4.553,4.553,0,0,0,.078.891c.659,3.511,5.325,3.625,5.928,3.625" transform="translate(-65.545 -45.503)" fill="#f08484"/>
        <path id="Trazado_160928" data-name="Trazado 160928" d="M124.217,94.576l22.562,90.63,3.089,12.412,10.509,42.213H355.611L316.878,94.576Z" transform="translate(-32.873 -25.029)" fill="#f08484"/>
        <path id="Trazado_160929" data-name="Trazado 160929" d="M123.092,94.576l-3.127,1.042L155.1,242.984l4.158-3.152Z" transform="translate(-31.747 -25.029)" fill="#e84847"/>
        <path id="Trazado_160930" data-name="Trazado 160930" d="M167.738,295.258H361.77l5.359-3.152H171.9Z" transform="translate(-44.39 -77.303)" fill="#e84847"/>
        <rect id="Rectángulo_9218" data-name="Rectángulo 9218" width="42.01" height="1.997" transform="translate(191.486 244.352)" fill="#e84847"/>
        <path id="Trazado_160931" data-name="Trazado 160931" d="M124.217,94.576H316.878L347.9,211.315H153.29Z" transform="translate(-32.873 -25.029)" fill="#dbd5db"/>
        <path id="Trazado_160932" data-name="Trazado 160932" d="M134.776,100.216l27.676,106.343H341.364l-27.98-105.118Z" transform="translate(-35.667 -26.521)" fill="#f5eef6"/>
        <rect id="Rectángulo_9219" data-name="Rectángulo 9219" width="67.674" height="42.699" transform="translate(163.873 137.334)" fill="#91372b"/>
        <rect id="Rectángulo_9220" data-name="Rectángulo 9220" width="67.672" height="42.698" transform="translate(197.711 137.336)" fill="#a54c3b"/>
        <path id="Trazado_160933" data-name="Trazado 160933" d="M217.373,186.757l-15.215,14.682h33.857l15.193-14.682Z" transform="translate(-53.499 -49.423)" fill="#a54c3b"/>
        <path id="Trazado_160934" data-name="Trazado 160934" d="M336.534,188.272l-67.672-1.513v5.409h0v.884l12.583,13.8h55.09V193.116l-.349-.41h.349Z" transform="translate(-71.151 -49.424)" fill="#91372b"/>
        <path id="Trazado_160935" data-name="Trazado 160935" d="M268.861,186.757l13.39,14.682h66.777l-12.5-14.682Z" transform="translate(-71.151 -49.423)" fill="#a54c3b"/>
        <path id="Trazado_160936" data-name="Trazado 160936" d="M124.937,257.633l-1.006-2.491a7.066,7.066,0,0,0-6.551-4.419H98.824v62.041h76.758V262.5H132.146a7.775,7.775,0,0,1-7.209-4.864" transform="translate(-26.153 -66.351)" fill="#f5eef6"/>
        <path id="Trazado_160937" data-name="Trazado 160937" d="M114.569,297.945v-4.472l15.686-6.871v4.57l-10.955,4.5,10.955,4.5v4.634Z" transform="translate(-30.319 -75.846)" fill="#91372b"/>
        <path id="Trazado_160938" data-name="Trazado 160938" d="M152.9,279.33h4.181l-14.356,30.01h-4.181Z" transform="translate(-36.664 -73.922)" fill="#91372b"/>
        <path id="Trazado_160939" data-name="Trazado 160939" d="M181.817,293.473v4.472l-15.686,6.87v-4.57l10.955-4.5-10.955-4.5V286.6Z" transform="translate(-43.965 -75.846)" fill="#91372b"/>
        <path id="Trazado_160940" data-name="Trazado 160940" d="M430.778,336.145H.571a.571.571,0,1,1,0-1.141H430.778a.571.571,0,1,1,0,1.141" transform="translate(0 -88.655)" fill="#30262a"/>
        <path id="Trazado_160941" data-name="Trazado 160941" d="M164.529,145.888c-.218-.9.176-1.605,1.01-1.607a1.961,1.961,0,0,1,1.777,1.6c.218.9-.172,1.605-1.01,1.607a1.952,1.952,0,0,1-1.777-1.6m2.079,0c-.136-.563-.517-.988-.929-.987s-.581.413-.442.989.513.988.93.988.58-.418.442-.99" transform="translate(-43.525 -38.182)" fill="#a54c3b"/>
        <path id="Trazado_160942" data-name="Trazado 160942" d="M147.884,114.512l-.515.134-.278-.558.836-.268h.471l.756,3.125h-.681Z" transform="translate(-38.926 -30.121)" fill="#f08484"/>
        <path id="Trazado_160943" data-name="Trazado 160943" d="M151.473,115.378c-.218-.9.176-1.605,1.01-1.607a1.962,1.962,0,0,1,1.777,1.6c.218.9-.172,1.605-1.01,1.607a1.952,1.952,0,0,1-1.777-1.6m2.079,0c-.136-.563-.517-.988-.93-.987s-.581.413-.442.989.513.988.929.987.58-.418.442-.989" transform="translate(-40.07 -30.108)" fill="#f08484"/>
        <path id="Trazado_160944" data-name="Trazado 160944" d="M225.87,114.37l-.515.134-.278-.558.836-.268h.471l.756,3.125h-.681Z" transform="translate(-59.564 -30.084)" fill="#f08484"/>
        <path id="Trazado_160945" data-name="Trazado 160945" d="M229.459,115.236c-.218-.9.176-1.605,1.01-1.607a1.962,1.962,0,0,1,1.777,1.6c.218.9-.172,1.605-1.01,1.607a1.952,1.952,0,0,1-1.777-1.6m2.079,0c-.136-.563-.517-.988-.929-.987s-.581.413-.442.989.513.988.93.987.58-.418.442-.989" transform="translate(-60.708 -30.071)" fill="#f08484"/>
        <path id="Trazado_160946" data-name="Trazado 160946" d="M235.125,115.227c-.218-.9.176-1.605,1.01-1.607a1.961,1.961,0,0,1,1.777,1.6c.218.9-.172,1.605-1.01,1.607a1.952,1.952,0,0,1-1.777-1.6m2.079,0c-.136-.563-.517-.988-.93-.988s-.581.414-.442.99.513.988.929.987.58-.418.442-.989" transform="translate(-62.208 -30.068)" fill="#f08484"/>
        <path id="Trazado_160947" data-name="Trazado 160947" d="M264.106,115.236c-.218-.9.176-1.605,1.01-1.607a1.961,1.961,0,0,1,1.777,1.6c.218.9-.172,1.605-1.01,1.607a1.953,1.953,0,0,1-1.777-1.6m2.079,0c-.136-.563-.517-.988-.93-.987s-.581.413-.442.989.513.988.93.987.58-.418.442-.989" transform="translate(-69.877 -30.071)" fill="#f08484"/>
        <path id="Trazado_160948" data-name="Trazado 160948" d="M269.773,115.227c-.218-.9.176-1.605,1.009-1.607a1.961,1.961,0,0,1,1.778,1.6c.218.9-.172,1.605-1.01,1.607a1.952,1.952,0,0,1-1.777-1.6m2.079,0c-.136-.563-.517-.988-.93-.988s-.581.414-.442.99.513.988.929.987.58-.418.442-.989" transform="translate(-71.377 -30.068)" fill="#f08484"/>
        <path id="Trazado_160949" data-name="Trazado 160949" d="M275.439,115.217c-.218-.9.176-1.605,1.01-1.607a1.961,1.961,0,0,1,1.777,1.6c.218.9-.172,1.605-1.01,1.607a1.952,1.952,0,0,1-1.777-1.6m2.079,0c-.136-.563-.517-.988-.929-.987s-.581.413-.441.989.513.988.929.988.58-.418.442-.99" transform="translate(-72.876 -30.066)" fill="#f08484"/>
        <path id="Trazado_160950" data-name="Trazado 160950" d="M314.834,115.121c-.218-.9.176-1.605,1.01-1.607a1.961,1.961,0,0,1,1.777,1.6c.218.9-.172,1.605-1.01,1.607a1.953,1.953,0,0,1-1.777-1.6m2.079,0c-.136-.563-.517-.988-.929-.987s-.581.413-.441.989.513.988.929.987.58-.418.442-.989" transform="translate(-83.302 -30.04)" fill="#f08484"/>
        <path id="Trazado_160951" data-name="Trazado 160951" d="M320.257,115.112c-.218-.9.176-1.605,1.01-1.607a1.962,1.962,0,0,1,1.777,1.6c.218.9-.172,1.605-1.01,1.607a1.952,1.952,0,0,1-1.777-1.6m2.079,0c-.136-.563-.517-.988-.93-.987s-.581.413-.441.989.513.988.929.987.58-.418.442-.989" transform="translate(-84.737 -30.038)" fill="#f08484"/>
        <path id="Trazado_160952" data-name="Trazado 160952" d="M326.155,115.1c-.218-.9.176-1.605,1.01-1.607a1.961,1.961,0,0,1,1.777,1.6c.218.9-.172,1.605-1.01,1.607a1.953,1.953,0,0,1-1.777-1.6m2.079,0c-.136-.563-.517-.988-.93-.987s-.581.413-.442.989.513.988.929.987.58-.418.442-.989" transform="translate(-86.298 -30.035)" fill="#f08484"/>
        <path id="Trazado_160953" data-name="Trazado 160953" d="M335.788,115.085c-.218-.9.176-1.605,1.01-1.607a1.961,1.961,0,0,1,1.777,1.6c.218.9-.172,1.605-1.01,1.607a1.953,1.953,0,0,1-1.777-1.6m2.079,0c-.136-.563-.517-.988-.93-.987s-.581.413-.441.989.513.988.929.987.58-.418.442-.989" transform="translate(-88.847 -30.031)" fill="#f08484"/>
        <path id="Trazado_160954" data-name="Trazado 160954" d="M341.625,114.2l-.515.134-.279-.558.837-.268h.47l.757,3.125h-.681Z" transform="translate(-90.197 -30.039)" fill="#f08484"/>
        <path id="Trazado_160955" data-name="Trazado 160955" d="M345.214,115.069c-.218-.9.176-1.6,1.01-1.607a1.962,1.962,0,0,1,1.777,1.6c.218.9-.172,1.605-1.01,1.607a1.953,1.953,0,0,1-1.777-1.6m2.079,0c-.136-.562-.517-.988-.93-.986s-.581.413-.441.989.513.987.929.986.58-.418.442-.989" transform="translate(-91.341 -30.027)" fill="#f08484"/>
        <path id="Trazado_160956" data-name="Trazado 160956" d="M354.657,115.044c-.218-.9.176-1.605,1.009-1.607a1.96,1.96,0,0,1,1.777,1.6c.218.9-.171,1.605-1.009,1.607a1.952,1.952,0,0,1-1.777-1.6m2.079,0c-.136-.563-.517-.988-.93-.987s-.581.413-.442.989.513.988.929.987.58-.418.442-.989" transform="translate(-93.84 -30.02)" fill="#f08484"/>
        <path id="Trazado_160957" data-name="Trazado 160957" d="M191.243,124.5c-.218-.9.176-1.605,1.01-1.607a1.961,1.961,0,0,1,1.777,1.6c.218.9-.172,1.605-1.01,1.607a1.953,1.953,0,0,1-1.777-1.6m2.079,0c-.136-.563-.517-.988-.93-.987s-.581.413-.441.989.513.988.929.987.58-.418.442-.989" transform="translate(-50.595 -32.522)" fill="#f08484"/>
        <path id="Trazado_160958" data-name="Trazado 160958" d="M196.909,124.489c-.218-.9.176-1.605,1.01-1.607a1.962,1.962,0,0,1,1.777,1.6c.218.9-.172,1.605-1.01,1.607a1.952,1.952,0,0,1-1.777-1.6m2.079,0c-.136-.563-.517-.988-.93-.987s-.581.413-.442.989.513.988.929.988.58-.418.442-.99" transform="translate(-52.094 -32.519)" fill="#f08484"/>
        <path id="Trazado_160959" data-name="Trazado 160959" d="M338.012,124.269c-.218-.9.176-1.605,1.01-1.607a1.961,1.961,0,0,1,1.777,1.6c.218.9-.172,1.605-1.01,1.607a1.953,1.953,0,0,1-1.777-1.6m2.079,0c-.136-.563-.517-.988-.93-.987s-.581.413-.441.989.513.988.929.987.58-.418.442-.989" transform="translate(-89.436 -32.461)" fill="#f08484"/>
        <path id="Trazado_160960" data-name="Trazado 160960" d="M343.849,123.387l-.515.134-.279-.558.837-.268h.47l.757,3.125h-.681Z" transform="translate(-90.786 -32.47)" fill="#f08484"/>
        <path id="Trazado_160961" data-name="Trazado 160961" d="M347.438,124.253c-.218-.9.176-1.605,1.01-1.607a1.961,1.961,0,0,1,1.777,1.6c.218.9-.171,1.605-1.01,1.607a1.953,1.953,0,0,1-1.777-1.6m2.079,0c-.136-.563-.517-.988-.93-.987s-.581.413-.442.989.513.988.93.987.58-.418.442-.989" transform="translate(-91.93 -32.457)" fill="#f08484"/>
        <path id="Trazado_160962" data-name="Trazado 160962" d="M368.214,124.208c-.218-.9.176-1.6,1.01-1.606A1.96,1.96,0,0,1,371,124.2c.218.9-.172,1.605-1.01,1.607a1.953,1.953,0,0,1-1.777-1.6m2.079,0c-.136-.563-.517-.987-.929-.987s-.581.413-.441.99.513.988.929.986.58-.417.442-.989" transform="translate(-97.428 -32.445)" fill="#f08484"/>
        <path id="Trazado_160963" data-name="Trazado 160963" d="M374.051,123.327l-.515.134-.279-.558.837-.268h.47l.757,3.125h-.681Z" transform="translate(-98.779 -32.454)" fill="#f08484"/>
        <path id="Trazado_160964" data-name="Trazado 160964" d="M186.475,174.079c-.217-.9.176-1.605,1.01-1.607a1.961,1.961,0,0,1,1.777,1.6c.218.9-.172,1.605-1.01,1.607a1.953,1.953,0,0,1-1.777-1.6m2.08,0c-.137-.563-.518-.988-.93-.987s-.58.413-.441.989.513.988.929.987.58-.418.443-.989" transform="translate(-49.333 -45.643)" fill="#f08484"/>
        <path id="Trazado_160965" data-name="Trazado 160965" d="M192.142,174.07c-.218-.9.176-1.605,1.01-1.607a1.962,1.962,0,0,1,1.777,1.6c.218.9-.172,1.605-1.01,1.607a1.952,1.952,0,0,1-1.777-1.6m2.079,0c-.136-.563-.517-.988-.929-.987s-.581.413-.442.989.513.988.929.988.58-.418.442-.99" transform="translate(-50.833 -45.64)" fill="#f08484"/>
        <path id="Trazado_160966" data-name="Trazado 160966" d="M197.979,173.188l-.515.134-.279-.558.837-.268h.47l.757,3.125h-.681Z" transform="translate(-52.183 -45.649)" fill="#f08484"/>
        <path id="Trazado_160967" data-name="Trazado 160967" d="M207.235,174.044c-.218-.9.176-1.605,1.01-1.607a1.961,1.961,0,0,1,1.777,1.6c.218.9-.172,1.605-1.01,1.607a1.953,1.953,0,0,1-1.777-1.6m2.079,0c-.136-.563-.517-.988-.93-.987s-.581.413-.441.989.513.988.929.987.58-.418.442-.989" transform="translate(-54.827 -45.634)" fill="#f08484"/>
        <path id="Trazado_160968" data-name="Trazado 160968" d="M212.9,174.035c-.218-.9.176-1.605,1.01-1.607a1.961,1.961,0,0,1,1.777,1.6c.218.9-.172,1.605-1.01,1.607a1.952,1.952,0,0,1-1.777-1.6m2.079,0c-.136-.563-.517-.988-.929-.987s-.581.413-.442.989.513.988.93.987.58-.418.442-.989" transform="translate(-56.326 -45.631)" fill="#f08484"/>
        <path id="Trazado_160969" data-name="Trazado 160969" d="M218.568,174.025c-.218-.9.176-1.605,1.01-1.607a1.961,1.961,0,0,1,1.777,1.6c.218.9-.172,1.605-1.01,1.607a1.952,1.952,0,0,1-1.777-1.6m2.079,0c-.136-.563-.517-.988-.929-.987s-.581.413-.442.989.513.988.93.988.58-.418.442-.99" transform="translate(-57.826 -45.629)" fill="#f08484"/>
        <path id="Trazado_160970" data-name="Trazado 160970" d="M289.31,174.079c-.218-.9.176-1.605,1.01-1.607a1.961,1.961,0,0,1,1.777,1.6c.218.9-.172,1.605-1.01,1.607a1.952,1.952,0,0,1-1.777-1.6m2.079,0c-.136-.563-.517-.988-.929-.987s-.581.413-.441.989.513.988.929.987.58-.418.442-.989" transform="translate(-76.547 -45.643)" fill="#f08484"/>
        <path id="Trazado_160971" data-name="Trazado 160971" d="M294.977,174.07c-.218-.9.176-1.605,1.009-1.607a1.962,1.962,0,0,1,1.778,1.6c.218.9-.172,1.605-1.01,1.607a1.952,1.952,0,0,1-1.777-1.6m2.079,0c-.136-.563-.517-.988-.93-.987s-.581.413-.442.989.513.988.929.988.58-.418.442-.99" transform="translate(-78.047 -45.64)" fill="#f08484"/>
        <path id="Trazado_160972" data-name="Trazado 160972" d="M300.814,173.188l-.515.134-.278-.558.836-.268h.471l.756,3.125H301.4Z" transform="translate(-79.397 -45.649)" fill="#f08484"/>
        <path id="Trazado_160973" data-name="Trazado 160973" d="M327.3,174.079c-.218-.9.176-1.605,1.01-1.607a1.961,1.961,0,0,1,1.777,1.6c.218.9-.172,1.605-1.01,1.607a1.953,1.953,0,0,1-1.777-1.6m2.079,0c-.136-.563-.517-.988-.929-.987s-.581.413-.441.989.513.988.929.987.58-.418.442-.989" transform="translate(-86.601 -45.643)" fill="#f08484"/>
        <path id="Trazado_160974" data-name="Trazado 160974" d="M332.967,174.07c-.218-.9.176-1.605,1.01-1.607a1.961,1.961,0,0,1,1.777,1.6c.218.9-.172,1.605-1.01,1.607a1.952,1.952,0,0,1-1.777-1.6m2.079,0c-.136-.563-.517-.988-.93-.987s-.581.413-.441.989.513.988.929.988.58-.418.442-.99" transform="translate(-88.1 -45.64)" fill="#f08484"/>
        <path id="Trazado_160975" data-name="Trazado 160975" d="M338.8,173.188l-.514.134-.279-.558.836-.268h.47l.757,3.125h-.681Z" transform="translate(-89.451 -45.649)" fill="#f08484"/>
        <path id="Trazado_160976" data-name="Trazado 160976" d="M310.069,174.044c-.218-.9.176-1.605,1.01-1.607a1.961,1.961,0,0,1,1.777,1.6c.218.9-.172,1.605-1.01,1.607a1.953,1.953,0,0,1-1.777-1.6m2.079,0c-.136-.563-.517-.988-.929-.987s-.581.413-.441.989.513.988.929.987.58-.418.442-.989" transform="translate(-82.041 -45.634)" fill="#f08484"/>
        <path id="Trazado_160977" data-name="Trazado 160977" d="M315.736,174.035c-.218-.9.176-1.605,1.01-1.607a1.961,1.961,0,0,1,1.777,1.6c.218.9-.172,1.605-1.01,1.607a1.953,1.953,0,0,1-1.777-1.6m2.079,0c-.136-.563-.517-.988-.93-.987s-.581.413-.441.989.513.988.929.987.58-.418.442-.989" transform="translate(-83.54 -45.631)" fill="#f08484"/>
        <path id="Trazado_160978" data-name="Trazado 160978" d="M321.4,174.025c-.218-.9.176-1.605,1.01-1.607a1.962,1.962,0,0,1,1.777,1.6c.218.9-.172,1.605-1.01,1.607a1.952,1.952,0,0,1-1.777-1.6m2.079,0c-.136-.563-.517-.988-.929-.987s-.581.413-.441.989.512.988.929.988.58-.418.442-.99" transform="translate(-85.04 -45.629)" fill="#f08484"/>
        <path id="Trazado_160979" data-name="Trazado 160979" d="M237.947,173.93c-.217-.9.176-1.605,1.01-1.607a1.961,1.961,0,0,1,1.777,1.6c.218.9-.172,1.605-1.01,1.607a1.953,1.953,0,0,1-1.777-1.6m2.08,0c-.137-.563-.518-.988-.93-.987s-.58.413-.442.989.513.988.93.987.58-.418.443-.989" transform="translate(-62.955 -45.603)" fill="#f08484"/>
        <path id="Trazado_160980" data-name="Trazado 160980" d="M243.784,173.048l-.515.134-.279-.558.837-.268h.471l.756,3.125h-.681Z" transform="translate(-64.305 -45.612)" fill="#f08484"/>
        <path id="Trazado_160981" data-name="Trazado 160981" d="M247.374,173.914c-.218-.9.176-1.605,1.01-1.607a1.962,1.962,0,0,1,1.777,1.6c.218.9-.172,1.605-1.01,1.607a1.952,1.952,0,0,1-1.777-1.6m2.079,0c-.136-.563-.517-.988-.93-.988s-.581.414-.442.99.513.988.929.987.58-.418.442-.989" transform="translate(-65.449 -45.599)" fill="#f08484"/>
        <path id="Trazado_160982" data-name="Trazado 160982" d="M359.453,173.8c-.218-.9.176-1.605,1.01-1.607a1.962,1.962,0,0,1,1.777,1.6c.218.9-.172,1.605-1.01,1.607a1.952,1.952,0,0,1-1.777-1.6m2.079,0c-.136-.563-.517-.988-.929-.987s-.581.413-.441.989.513.988.929.987.58-.418.442-.989" transform="translate(-95.11 -45.568)" fill="#f08484"/>
        <path id="Trazado_160983" data-name="Trazado 160983" d="M365.29,172.915l-.515.134-.278-.558.836-.268h.471l.756,3.125h-.681Z" transform="translate(-96.46 -45.577)" fill="#f08484"/>
        <path id="Trazado_160984" data-name="Trazado 160984" d="M368.879,173.78c-.218-.9.176-1.605,1.01-1.607a1.961,1.961,0,0,1,1.777,1.6c.218.9-.172,1.605-1.01,1.607a1.953,1.953,0,0,1-1.777-1.6m2.079,0c-.136-.563-.517-.988-.93-.987s-.581.413-.441.989.513.988.929.987.58-.418.442-.989" transform="translate(-97.604 -45.564)" fill="#f08484"/>
        <path id="Trazado_160985" data-name="Trazado 160985" d="M152.691,134.364l-.515.134-.278-.558.836-.268h.471l.756,3.125h-.681Z" transform="translate(-40.198 -35.375)" fill="#f08484"/>
        <path id="Trazado_160986" data-name="Trazado 160986" d="M156.28,135.229c-.218-.9.176-1.605,1.01-1.607a1.961,1.961,0,0,1,1.777,1.6c.218.9-.172,1.605-1.01,1.607a1.953,1.953,0,0,1-1.777-1.6m2.079,0c-.136-.563-.517-.988-.93-.987s-.581.413-.442.989.513.988.93.988.58-.418.442-.99" transform="translate(-41.342 -35.362)" fill="#f08484"/>
        <path id="Trazado_160987" data-name="Trazado 160987" d="M188.372,135.175c-.218-.9.176-1.605,1.01-1.607a1.961,1.961,0,0,1,1.777,1.6c.218.9-.172,1.605-1.01,1.607a1.953,1.953,0,0,1-1.777-1.6m2.079,0c-.136-.563-.517-.988-.93-.987s-.581.413-.442.989.513.988.93.988.58-.418.442-.99" transform="translate(-49.835 -35.347)" fill="#f08484"/>
        <path id="Trazado_160988" data-name="Trazado 160988" d="M194.039,135.166c-.218-.9.176-1.605,1.01-1.607a1.961,1.961,0,0,1,1.777,1.6c.218.9-.172,1.605-1.01,1.607a1.952,1.952,0,0,1-1.777-1.6m2.079,0c-.136-.563-.517-.988-.93-.987s-.581.413-.442.989.513.988.929.988.58-.418.442-.99" transform="translate(-51.335 -35.345)" fill="#f08484"/>
        <path id="Trazado_160989" data-name="Trazado 160989" d="M199.7,135.156c-.218-.9.176-1.605,1.01-1.607a1.961,1.961,0,0,1,1.777,1.6c.218.9-.172,1.605-1.01,1.607a1.952,1.952,0,0,1-1.777-1.6m2.079,0c-.136-.563-.517-.988-.929-.987s-.581.413-.442.989.513.988.929.987.58-.418.442-.989" transform="translate(-52.834 -35.342)" fill="#f08484"/>
        <path id="Trazado_160990" data-name="Trazado 160990" d="M205.542,134.274l-.515.134-.278-.558.836-.268h.471l.756,3.125h-.681Z" transform="translate(-54.185 -35.351)" fill="#f08484"/>
        <path id="Trazado_160991" data-name="Trazado 160991" d="M209.332,134.268l-.515.134-.278-.558.836-.268h.471l.756,3.125h-.681Z" transform="translate(-55.188 -35.349)" fill="#f08484"/>
        <path id="Trazado_160992" data-name="Trazado 160992" d="M212.922,135.134c-.218-.9.176-1.605,1.01-1.607a1.961,1.961,0,0,1,1.777,1.6c.218.9-.172,1.605-1.01,1.607a1.953,1.953,0,0,1-1.777-1.6m2.079,0c-.136-.563-.517-.988-.93-.987s-.581.413-.442.989.513.988.929.987.58-.418.442-.989" transform="translate(-56.332 -35.336)" fill="#f08484"/>
        <path id="Trazado_160993" data-name="Trazado 160993" d="M359.464,134.9c-.218-.9.176-1.605,1.01-1.607a1.961,1.961,0,0,1,1.777,1.6c.218.9-.172,1.605-1.01,1.607a1.952,1.952,0,0,1-1.777-1.6m2.079,0c-.136-.563-.517-.988-.929-.987s-.581.413-.441.989.512.988.929.988.58-.418.442-.99" transform="translate(-95.112 -35.274)" fill="#a54c3b"/>
        <path id="Trazado_160994" data-name="Trazado 160994" d="M365.13,134.886c-.218-.9.176-1.605,1.01-1.607a1.961,1.961,0,0,1,1.777,1.6c.218.9-.172,1.605-1.01,1.607a1.953,1.953,0,0,1-1.777-1.6m2.079,0c-.136-.563-.517-.988-.93-.987s-.581.413-.442.989.513.988.93.987.58-.418.442-.989" transform="translate(-96.612 -35.271)" fill="#a54c3b"/>
        <path id="Trazado_160995" data-name="Trazado 160995" d="M370.8,134.876c-.218-.9.176-1.605,1.01-1.607a1.962,1.962,0,0,1,1.777,1.6c.218.9-.172,1.605-1.01,1.607a1.952,1.952,0,0,1-1.777-1.6m2.079,0c-.136-.563-.517-.988-.929-.987s-.581.413-.442.989.513.988.93.987.58-.418.442-.989" transform="translate(-98.112 -35.268)" fill="#f08484"/>
        <path id="Trazado_160996" data-name="Trazado 160996" d="M376.634,133.995l-.515.134-.278-.558.836-.268h.471l.756,3.125h-.681Z" transform="translate(-99.462 -35.277)" fill="#f08484"/>
        <path id="Trazado_160997" data-name="Trazado 160997" d="M155.274,145.031l-.515.134-.278-.558.836-.268h.471l.756,3.125h-.681Z" transform="translate(-40.882 -38.198)" fill="#f08484"/>
        <path id="Trazado_160998" data-name="Trazado 160998" d="M158.863,145.9c-.218-.9.176-1.605,1.01-1.607a1.961,1.961,0,0,1,1.777,1.6c.218.9-.172,1.605-1.01,1.607a1.952,1.952,0,0,1-1.777-1.6m2.079,0c-.136-.563-.517-.988-.929-.988s-.581.414-.442.99.513.988.93.987.58-.418.442-.989" transform="translate(-42.026 -38.185)" fill="#f08484"/>
        <path id="Trazado_160999" data-name="Trazado 160999" d="M185.289,145.853c-.218-.9.176-1.605,1.01-1.607a1.961,1.961,0,0,1,1.777,1.6c.218.9-.172,1.605-1.01,1.607a1.952,1.952,0,0,1-1.777-1.6m2.079,0c-.136-.563-.517-.988-.93-.987s-.581.413-.441.989.513.988.929.987.58-.418.442-.989" transform="translate(-49.019 -38.173)" fill="#f08484"/>
        <path id="Trazado_161000" data-name="Trazado 161000" d="M190.955,145.843c-.218-.9.176-1.605,1.01-1.607a1.961,1.961,0,0,1,1.777,1.6c.218.9-.172,1.605-1.01,1.607a1.952,1.952,0,0,1-1.777-1.6m2.079,0c-.136-.563-.517-.988-.929-.987s-.581.413-.442.989.513.988.929.988.58-.418.442-.99" transform="translate(-50.518 -38.171)" fill="#f08484"/>
        <path id="Trazado_161001" data-name="Trazado 161001" d="M169.464,166.495c-.218-.9.176-1.605,1.01-1.607a1.962,1.962,0,0,1,1.777,1.6c.218.9-.172,1.605-1.01,1.607a1.952,1.952,0,0,1-1.777-1.6m2.08,0c-.137-.563-.518-.988-.93-.987s-.581.413-.442.989.513.988.929.987.58-.418.443-.989" transform="translate(-44.831 -43.636)" fill="#a54c3b"/>
        <path id="Trazado_161002" data-name="Trazado 161002" d="M175.3,165.613l-.515.134-.279-.558.837-.268h.471l.756,3.125h-.681Z" transform="translate(-46.182 -43.644)" fill="#a54c3b"/>
        <path id="Trazado_161003" data-name="Trazado 161003" d="M157.626,154.971l-.515.134-.278-.558.836-.268h.471l.756,3.125h-.681Z" transform="translate(-41.504 -40.828)" fill="#f08484"/>
        <path id="Trazado_161004" data-name="Trazado 161004" d="M161.215,155.836c-.218-.9.176-1.605,1.01-1.607a1.962,1.962,0,0,1,1.777,1.6c.218.9-.172,1.605-1.01,1.607a1.952,1.952,0,0,1-1.777-1.6m2.079,0c-.136-.563-.517-.988-.929-.987s-.581.413-.442.989.513.988.93.988.58-.418.442-.99" transform="translate(-42.648 -40.815)" fill="#f08484"/>
        <path id="Trazado_161005" data-name="Trazado 161005" d="M166.881,155.827c-.218-.9.176-1.605,1.01-1.607a1.961,1.961,0,0,1,1.777,1.6c.218.9-.172,1.605-1.01,1.607a1.953,1.953,0,0,1-1.777-1.6m2.079,0c-.136-.563-.517-.988-.93-.987s-.581.413-.441.989.513.988.929.987.58-.418.442-.989" transform="translate(-44.148 -40.813)" fill="#f08484"/>
        <path id="Trazado_161006" data-name="Trazado 161006" d="M172.718,154.945l-.515.134-.278-.558.836-.268h.471l.756,3.125h-.681Z" transform="translate(-45.498 -40.821)" fill="#f08484"/>
        <path id="Trazado_161007" data-name="Trazado 161007" d="M176.308,155.811c-.218-.9.176-1.605,1.01-1.607a1.961,1.961,0,0,1,1.777,1.6c.218.9-.172,1.605-1.01,1.607a1.953,1.953,0,0,1-1.777-1.6m2.079,0c-.136-.563-.517-.988-.93-.987s-.581.413-.441.989.513.988.929.987.58-.418.442-.989" transform="translate(-46.642 -40.808)" fill="#f08484"/>
        <path id="Trazado_161008" data-name="Trazado 161008" d="M181.974,155.8c-.218-.9.176-1.605,1.01-1.607a1.962,1.962,0,0,1,1.777,1.6c.218.9-.172,1.605-1.01,1.607a1.952,1.952,0,0,1-1.777-1.6m2.079,0c-.136-.563-.517-.988-.93-.987s-.581.413-.442.989.513.988.93.987.58-.418.442-.989" transform="translate(-48.142 -40.806)" fill="#f08484"/>
        <path id="Trazado_161009" data-name="Trazado 161009" d="M187.641,155.792c-.218-.9.176-1.605,1.01-1.607a1.962,1.962,0,0,1,1.777,1.6c.218.9-.172,1.605-1.01,1.607a1.952,1.952,0,0,1-1.777-1.6m2.079,0c-.136-.563-.517-.988-.929-.987s-.581.413-.442.989.513.988.93.988.58-.418.442-.99" transform="translate(-49.641 -40.803)" fill="#f08484"/>
        <path id="Trazado_161010" data-name="Trazado 161010" d="M193.307,155.782c-.217-.9.176-1.605,1.01-1.607a1.961,1.961,0,0,1,1.777,1.6c.218.9-.172,1.605-1.01,1.607a1.952,1.952,0,0,1-1.777-1.6m2.08,0c-.137-.563-.518-.988-.93-.987s-.58.413-.442.989.513.988.93.987.58-.418.443-.989" transform="translate(-51.141 -40.801)" fill="#f08484"/>
        <path id="Trazado_161011" data-name="Trazado 161011" d="M198.974,155.773c-.218-.9.176-1.605,1.01-1.607a1.961,1.961,0,0,1,1.777,1.6c.218.9-.172,1.605-1.01,1.607a1.952,1.952,0,0,1-1.777-1.6m2.079,0c-.136-.563-.517-.988-.93-.987s-.581.413-.442.989.513.988.929.988.58-.418.442-.99" transform="translate(-52.641 -40.798)" fill="#f08484"/>
        <path id="Trazado_161012" data-name="Trazado 161012" d="M204.64,155.763c-.218-.9.176-1.605,1.01-1.607a1.961,1.961,0,0,1,1.777,1.6c.218.9-.172,1.605-1.01,1.607a1.953,1.953,0,0,1-1.777-1.6m2.079,0c-.136-.563-.517-.988-.93-.987s-.581.413-.441.989.513.988.929.987.58-.418.442-.989" transform="translate(-54.14 -40.796)" fill="#f08484"/>
        <path id="Trazado_161013" data-name="Trazado 161013" d="M210.477,154.882l-.515.134-.278-.558.836-.268h.471l.756,3.125h-.681Z" transform="translate(-55.491 -40.804)" fill="#f08484"/>
        <path id="Trazado_161014" data-name="Trazado 161014" d="M214.267,154.875l-.515.134-.278-.558.836-.268h.471l.756,3.125h-.681Z" transform="translate(-56.494 -40.803)" fill="#f08484"/>
        <path id="Trazado_161015" data-name="Trazado 161015" d="M217.857,155.741c-.218-.9.176-1.605,1.01-1.607a1.962,1.962,0,0,1,1.777,1.6c.218.9-.172,1.605-1.01,1.607a1.952,1.952,0,0,1-1.777-1.6m2.079,0c-.136-.563-.517-.988-.93-.988s-.581.414-.442.99.513.988.929.987.58-.418.442-.989" transform="translate(-57.638 -40.79)" fill="#f08484"/>
        <path id="Trazado_161016" data-name="Trazado 161016" d="M160.208,165.638l-.515.134-.279-.558.837-.268h.47l.757,3.125H160.8Z" transform="translate(-42.187 -43.651)" fill="#f08484"/>
        <path id="Trazado_161017" data-name="Trazado 161017" d="M163.8,166.5c-.218-.9.176-1.605,1.009-1.607a1.961,1.961,0,0,1,1.778,1.6c.218.9-.172,1.605-1.01,1.607a1.952,1.952,0,0,1-1.777-1.6m2.079,0c-.136-.563-.517-.988-.929-.988s-.581.414-.442.99.513.988.929.987.58-.418.442-.989" transform="translate(-43.332 -43.638)" fill="#f08484"/>
        <path id="Trazado_161018" data-name="Trazado 161018" d="M178.891,166.479c-.218-.9.176-1.605,1.01-1.607a1.962,1.962,0,0,1,1.777,1.6c.218.9-.172,1.605-1.01,1.607a1.953,1.953,0,0,1-1.777-1.6m2.079,0c-.136-.563-.517-.988-.929-.988s-.581.414-.442.99.513.988.929.987.58-.418.442-.989" transform="translate(-47.326 -43.632)" fill="#f08484"/>
        <path id="Trazado_161019" data-name="Trazado 161019" d="M184.557,166.469c-.218-.9.176-1.605,1.01-1.607a1.961,1.961,0,0,1,1.777,1.6c.218.9-.172,1.605-1.01,1.607a1.953,1.953,0,0,1-1.777-1.6m2.079,0c-.136-.563-.517-.988-.929-.987s-.581.413-.441.989.513.988.929.987.58-.418.442-.989" transform="translate(-48.825 -43.629)" fill="#f08484"/>
        <path id="Trazado_161020" data-name="Trazado 161020" d="M174.475,190.148c-.218-.9.176-1.605,1.01-1.607a1.962,1.962,0,0,1,1.777,1.6c.218.9-.172,1.605-1.01,1.607a1.953,1.953,0,0,1-1.777-1.6m2.079,0c-.136-.563-.517-.988-.929-.987s-.581.413-.441.989.513.988.929.988.58-.418.442-.99" transform="translate(-46.157 -49.895)" fill="#f08484"/>
        <path id="Trazado_161021" data-name="Trazado 161021" d="M180.312,189.267l-.515.134-.278-.558.836-.268h.471l.756,3.125H180.9Z" transform="translate(-47.508 -49.904)" fill="#f08484"/>
        <path id="Trazado_161022" data-name="Trazado 161022" d="M165.219,189.292l-.515.134-.279-.558.837-.268h.471l.756,3.125h-.681Z" transform="translate(-43.514 -49.911)" fill="#f08484"/>
        <path id="Trazado_161023" data-name="Trazado 161023" d="M168.809,190.158c-.218-.9.176-1.605,1.01-1.607a1.962,1.962,0,0,1,1.777,1.6c.218.9-.172,1.605-1.01,1.607a1.952,1.952,0,0,1-1.777-1.6m2.079,0c-.136-.563-.517-.988-.93-.987s-.581.413-.442.989.513.988.929.987.58-.418.442-.989" transform="translate(-44.658 -49.898)" fill="#f08484"/>
        <path id="Trazado_161024" data-name="Trazado 161024" d="M183.9,190.133c-.218-.9.176-1.605,1.01-1.607a1.961,1.961,0,0,1,1.777,1.6c.218.9-.172,1.605-1.01,1.607a1.953,1.953,0,0,1-1.777-1.6m2.079,0c-.136-.563-.517-.988-.929-.987s-.581.413-.441.989.513.988.929.988.58-.418.442-.99" transform="translate(-48.652 -49.891)" fill="#a54c3b"/>
        <path id="Trazado_161025" data-name="Trazado 161025" d="M189.568,190.123c-.218-.9.176-1.605,1.01-1.607a1.961,1.961,0,0,1,1.777,1.6c.218.9-.172,1.605-1.01,1.607a1.953,1.953,0,0,1-1.777-1.6m2.079,0c-.136-.563-.517-.988-.93-.988s-.581.414-.441.99.513.988.929.987.58-.418.442-.989" transform="translate(-50.151 -49.889)" fill="#a54c3b"/>
        <path id="Trazado_161026" data-name="Trazado 161026" d="M167.474,197.757c-.218-.9.176-1.605,1.01-1.607a1.962,1.962,0,0,1,1.777,1.6c.218.9-.172,1.605-1.01,1.607a1.952,1.952,0,0,1-1.777-1.6m2.079,0c-.136-.563-.517-.988-.929-.987s-.581.413-.441.989.513.988.929.987.58-.418.442-.989" transform="translate(-44.304 -51.909)" fill="#f08484"/>
        <path id="Trazado_161027" data-name="Trazado 161027" d="M173.31,196.875l-.515.134-.279-.558.837-.268h.471l.756,3.125H173.9Z" transform="translate(-45.655 -51.918)" fill="#f08484"/>
        <path id="Trazado_161028" data-name="Trazado 161028" d="M176.9,197.741c-.218-.9.176-1.605,1.01-1.607a1.961,1.961,0,0,1,1.777,1.6c.218.9-.172,1.605-1.01,1.607a1.953,1.953,0,0,1-1.777-1.6m2.079,0c-.136-.563-.517-.988-.93-.987s-.581.413-.441.989.513.988.929.987.58-.418.442-.989" transform="translate(-46.799 -51.905)" fill="#f08484"/>
        <path id="Trazado_161029" data-name="Trazado 161029" d="M182.566,197.732c-.218-.9.176-1.605,1.01-1.607a1.961,1.961,0,0,1,1.777,1.6c.218.9-.172,1.605-1.01,1.607a1.953,1.953,0,0,1-1.777-1.6m2.079,0c-.136-.563-.517-.988-.929-.987s-.581.413-.442.989.513.988.93.988.58-.418.442-.99" transform="translate(-48.298 -51.902)" fill="#f08484"/>
        <path id="Trazado_161030" data-name="Trazado 161030" d="M190.224,166.46c-.218-.9.176-1.605,1.01-1.607a1.961,1.961,0,0,1,1.777,1.6c.218.9-.172,1.605-1.01,1.607a1.952,1.952,0,0,1-1.777-1.6m2.079,0c-.136-.563-.517-.988-.93-.987s-.581.413-.442.989.513.988.93.988.58-.418.442-.99" transform="translate(-50.325 -43.627)" fill="#f08484"/>
        <path id="Trazado_161031" data-name="Trazado 161031" d="M195.891,166.45c-.218-.9.176-1.605,1.01-1.607a1.961,1.961,0,0,1,1.777,1.6c.218.9-.172,1.605-1.01,1.607a1.952,1.952,0,0,1-1.777-1.6m2.079,0c-.136-.563-.517-.988-.929-.987s-.581.413-.442.989.513.988.93.987.58-.418.442-.989" transform="translate(-51.825 -43.624)" fill="#f08484"/>
        <path id="Trazado_161032" data-name="Trazado 161032" d="M181.672,217.671c-.218-.9.176-1.605,1.01-1.607a1.961,1.961,0,0,1,1.777,1.6c.218.9-.172,1.605-1.01,1.607a1.953,1.953,0,0,1-1.777-1.6m2.079,0c-.136-.563-.517-.988-.93-.987s-.581.413-.442.989.513.988.93.988.58-.418.442-.99" transform="translate(-48.062 -57.179)" fill="#a54c3b"/>
        <path id="Trazado_161033" data-name="Trazado 161033" d="M187.509,216.79l-.515.134-.278-.558.836-.268h.471l.756,3.125H188.1Z" transform="translate(-49.412 -57.188)" fill="#a54c3b"/>
        <path id="Trazado_161034" data-name="Trazado 161034" d="M169.833,206.147l-.515.134-.279-.558.837-.268h.47l.757,3.125h-.681Z" transform="translate(-44.735 -54.371)" fill="#f08484"/>
        <path id="Trazado_161035" data-name="Trazado 161035" d="M173.422,207.013c-.218-.9.176-1.605,1.01-1.607a1.962,1.962,0,0,1,1.777,1.6c.218.9-.172,1.605-1.01,1.607a1.952,1.952,0,0,1-1.777-1.6m2.079,0c-.136-.563-.517-.988-.93-.987s-.581.413-.442.989.513.988.93.987.58-.418.442-.989" transform="translate(-45.878 -54.358)" fill="#f08484"/>
        <path id="Trazado_161036" data-name="Trazado 161036" d="M179.089,207c-.218-.9.176-1.605,1.01-1.607a1.962,1.962,0,0,1,1.777,1.6c.218.9-.172,1.606-1.01,1.607a1.953,1.953,0,0,1-1.777-1.6m2.079,0c-.136-.563-.517-.987-.929-.987s-.581.413-.442.989.513.988.929.988.58-.418.442-.991" transform="translate(-47.378 -54.356)" fill="#f08484"/>
        <path id="Trazado_161037" data-name="Trazado 161037" d="M184.926,206.122l-.515.134-.278-.558.836-.268h.471l.756,3.125h-.681Z" transform="translate(-48.729 -54.365)" fill="#f08484"/>
        <path id="Trazado_161038" data-name="Trazado 161038" d="M172.416,216.815l-.515.134-.279-.558.837-.268h.471l.756,3.125h-.681Z" transform="translate(-45.418 -57.195)" fill="#f08484"/>
        <path id="Trazado_161039" data-name="Trazado 161039" d="M176,217.681c-.218-.9.176-1.605,1.01-1.607a1.961,1.961,0,0,1,1.777,1.6c.218.9-.172,1.605-1.01,1.607a1.952,1.952,0,0,1-1.777-1.6m2.08,0c-.137-.563-.518-.988-.93-.987s-.581.413-.441.989.513.988.929.987.58-.418.443-.989" transform="translate(-46.562 -57.182)" fill="#f08484"/>
        <path id="Trazado_161040" data-name="Trazado 161040" d="M191.1,217.656c-.218-.9.176-1.605,1.01-1.607a1.961,1.961,0,0,1,1.777,1.6c.218.9-.172,1.605-1.01,1.607a1.952,1.952,0,0,1-1.777-1.6m2.079,0c-.136-.563-.517-.988-.929-.987s-.581.413-.442.989.513.988.93.987.58-.418.442-.989" transform="translate(-50.556 -57.175)" fill="#f08484"/>
        <path id="Trazado_161041" data-name="Trazado 161041" d="M196.765,217.646c-.218-.9.176-1.605,1.01-1.607a1.962,1.962,0,0,1,1.777,1.6c.218.9-.172,1.605-1.01,1.607a1.952,1.952,0,0,1-1.777-1.6m2.079,0c-.136-.563-.517-.988-.929-.988s-.581.414-.441.99.513.988.929.987.58-.418.442-.989" transform="translate(-52.056 -57.172)" fill="#f08484"/>
        <path id="Trazado_161042" data-name="Trazado 161042" d="M183.857,225.2c-.218-.9.176-1.605,1.01-1.607a1.961,1.961,0,0,1,1.777,1.6c.218.9-.172,1.605-1.01,1.607a1.953,1.953,0,0,1-1.777-1.6m2.079,0c-.136-.563-.517-.988-.93-.987s-.581.413-.442.989.513.988.929.988.58-.418.442-.99" transform="translate(-48.64 -59.172)" fill="#a54c3b"/>
        <path id="Trazado_161043" data-name="Trazado 161043" d="M189.694,224.322l-.515.134-.279-.558.836-.268h.471l.756,3.124h-.681Z" transform="translate(-49.99 -59.181)" fill="#a54c3b"/>
        <path id="Trazado_161044" data-name="Trazado 161044" d="M178.19,225.213c-.218-.9.176-1.605,1.01-1.607a1.961,1.961,0,0,1,1.777,1.6c.218.9-.172,1.605-1.01,1.607a1.953,1.953,0,0,1-1.777-1.6m2.079,0c-.136-.563-.517-.988-.929-.987s-.581.413-.442.989.513.988.93.987.58-.418.442-.989" transform="translate(-47.14 -59.175)" fill="#f08484"/>
        <path id="Trazado_161045" data-name="Trazado 161045" d="M193.283,225.188c-.218-.9.176-1.605,1.01-1.607a1.96,1.96,0,0,1,1.777,1.6c.218.9-.172,1.606-1.01,1.607a1.953,1.953,0,0,1-1.777-1.6m2.079,0c-.136-.563-.517-.987-.929-.986s-.581.413-.442.989.513.988.929.988.58-.418.442-.991" transform="translate(-51.135 -59.168)" fill="#f08484"/>
        <path id="Trazado_161046" data-name="Trazado 161046" d="M198.95,225.178c-.218-.9.176-1.605,1.01-1.607a1.961,1.961,0,0,1,1.777,1.6c.218.9-.172,1.605-1.01,1.607a1.952,1.952,0,0,1-1.777-1.6m2.079,0c-.136-.563-.517-.988-.93-.987s-.581.413-.442.989.513.988.93.988.58-.418.442-.99" transform="translate(-52.634 -59.166)" fill="#f08484"/>
        <path id="Trazado_161047" data-name="Trazado 161047" d="M202.431,217.637c-.218-.9.176-1.605,1.01-1.607a1.961,1.961,0,0,1,1.777,1.6c.218.9-.172,1.605-1.01,1.607a1.953,1.953,0,0,1-1.777-1.6m2.079,0c-.136-.563-.517-.988-.93-.987s-.581.413-.442.989.513.988.929.987.58-.418.442-.989" transform="translate(-53.555 -57.17)" fill="#f08484"/>
        <path id="Trazado_161048" data-name="Trazado 161048" d="M208.1,217.627c-.218-.9.176-1.605,1.009-1.607a1.962,1.962,0,0,1,1.778,1.6c.218.9-.172,1.605-1.01,1.607a1.952,1.952,0,0,1-1.777-1.6m2.079,0c-.136-.563-.517-.988-.929-.987s-.581.413-.442.989.513.988.929.988.58-.418.442-.99" transform="translate(-55.055 -57.167)" fill="#f08484"/>
        <path id="Trazado_161049" data-name="Trazado 161049" d="M358.458,144.7l-.515.134-.278-.558.836-.268h.471l.756,3.125h-.681Z" transform="translate(-94.652 -38.109)" fill="#f08484"/>
        <path id="Trazado_161050" data-name="Trazado 161050" d="M362.047,145.563c-.218-.9.176-1.605,1.01-1.607a1.961,1.961,0,0,1,1.777,1.6c.218.9-.172,1.605-1.01,1.607a1.953,1.953,0,0,1-1.777-1.6m2.079,0c-.136-.563-.517-.988-.93-.987s-.581.413-.441.989.513.988.929.987.58-.418.442-.989" transform="translate(-95.796 -38.096)" fill="#f08484"/>
        <path id="Trazado_161051" data-name="Trazado 161051" d="M367.713,145.554c-.218-.9.176-1.605,1.01-1.607a1.962,1.962,0,0,1,1.777,1.6c.218.9-.172,1.605-1.01,1.607a1.952,1.952,0,0,1-1.777-1.6m2.079,0c-.136-.563-.517-.988-.93-.987s-.581.413-.441.989.513.988.929.987.58-.418.442-.989" transform="translate(-97.295 -38.094)" fill="#f08484"/>
        <path id="Trazado_161052" data-name="Trazado 161052" d="M373.38,145.544c-.218-.9.176-1.605,1.01-1.607a1.961,1.961,0,0,1,1.777,1.6c.218.9-.172,1.605-1.01,1.607a1.952,1.952,0,0,1-1.777-1.6m2.079,0c-.136-.563-.517-.988-.93-.987s-.581.413-.442.989.513.988.93.987.58-.418.442-.989" transform="translate(-98.795 -38.091)" fill="#f08484"/>
        <path id="Trazado_161053" data-name="Trazado 161053" d="M379.217,144.663l-.515.134-.278-.558.836-.268h.471l.756,3.125h-.681Z" transform="translate(-100.146 -38.1)" fill="#f08484"/>
        <path id="Trazado_161054" data-name="Trazado 161054" d="M352.62,155.753c-.218-.9.176-1.605,1.01-1.607a1.962,1.962,0,0,1,1.777,1.6c.218.9-.172,1.606-1.009,1.607a1.953,1.953,0,0,1-1.778-1.6m2.08,0c-.137-.563-.517-.987-.93-.987s-.581.413-.441.989.513.988.929.987.58-.417.443-.989" transform="translate(-93.301 -40.793)" fill="#f08484"/>
        <path id="Trazado_161055" data-name="Trazado 161055" d="M358.458,154.872l-.515.134-.278-.558.836-.268h.471l.756,3.125h-.681Z" transform="translate(-94.652 -40.802)" fill="#f08484"/>
        <path id="Trazado_161056" data-name="Trazado 161056" d="M362.047,155.738c-.218-.9.176-1.605,1.01-1.607a1.961,1.961,0,0,1,1.777,1.6c.218.9-.172,1.605-1.01,1.607a1.953,1.953,0,0,1-1.777-1.6m2.079,0c-.136-.563-.517-.988-.93-.987s-.581.413-.441.989.513.988.929.987.58-.418.442-.989" transform="translate(-95.796 -40.789)" fill="#a54c3b"/>
        <path id="Trazado_161057" data-name="Trazado 161057" d="M367.713,155.728c-.218-.9.176-1.605,1.01-1.607a1.962,1.962,0,0,1,1.777,1.6c.218.9-.172,1.605-1.01,1.607a1.952,1.952,0,0,1-1.777-1.6m2.079,0c-.136-.563-.517-.988-.93-.987s-.581.413-.441.989.513.988.929.988.58-.418.442-.99" transform="translate(-97.295 -40.786)" fill="#a54c3b"/>
        <path id="Trazado_161058" data-name="Trazado 161058" d="M373.38,155.719c-.218-.9.176-1.605,1.01-1.607a1.961,1.961,0,0,1,1.777,1.6c.218.9-.172,1.605-1.01,1.607a1.952,1.952,0,0,1-1.777-1.6m2.079,0c-.136-.563-.517-.988-.93-.987s-.581.413-.442.989.513.988.93.987.58-.418.442-.989" transform="translate(-98.795 -40.784)" fill="#a54c3b"/>
        <path id="Trazado_161059" data-name="Trazado 161059" d="M379.217,154.837l-.515.134-.278-.558.836-.268h.471l.756,3.125h-.681Z" transform="translate(-100.146 -40.793)" fill="#a54c3b"/>
        <path id="Trazado_161060" data-name="Trazado 161060" d="M378.065,213.624l-.515.134-.278-.558.836-.268h.471l.756,3.125h-.681Z" transform="translate(-99.841 -56.35)" fill="#f08484"/>
        <path id="Trazado_161061" data-name="Trazado 161061" d="M381.654,214.49c-.218-.9.176-1.605,1.01-1.607a1.962,1.962,0,0,1,1.777,1.6c.218.9-.172,1.605-1.01,1.607a1.952,1.952,0,0,1-1.777-1.6m2.079,0c-.136-.563-.517-.988-.93-.987s-.581.413-.442.989.513.988.93.987.58-.418.442-.989" transform="translate(-100.985 -56.337)" fill="#f08484"/>
        <path id="Trazado_161062" data-name="Trazado 161062" d="M387.321,214.48c-.218-.9.176-1.605,1.01-1.607a1.961,1.961,0,0,1,1.777,1.6c.218.9-.172,1.605-1.01,1.607a1.952,1.952,0,0,1-1.777-1.6m2.079,0c-.136-.563-.517-.988-.93-.987s-.581.413-.442.989.513.988.93.987.58-.418.442-.989" transform="translate(-102.485 -56.335)" fill="#f08484"/>
        <path id="Trazado_161063" data-name="Trazado 161063" d="M372.5,220.54l-.515.134-.279-.558.836-.268h.471l.756,3.125h-.681Z" transform="translate(-98.367 -58.18)" fill="#f08484"/>
        <path id="Trazado_161064" data-name="Trazado 161064" d="M376.087,221.406c-.218-.9.176-1.605,1.01-1.607a1.962,1.962,0,0,1,1.777,1.6c.218.9-.172,1.605-1.01,1.607a1.952,1.952,0,0,1-1.777-1.6m2.079,0c-.136-.563-.517-.988-.93-.987s-.581.413-.442.989.513.988.93.987.58-.418.442-.989" transform="translate(-99.512 -58.167)" fill="#f08484"/>
        <path id="Trazado_161065" data-name="Trazado 161065" d="M381.753,221.4c-.218-.9.176-1.605,1.01-1.607a1.961,1.961,0,0,1,1.777,1.6c.218.9-.172,1.605-1.01,1.607a1.953,1.953,0,0,1-1.777-1.6m2.079,0c-.136-.563-.517-.988-.93-.987s-.581.413-.441.989.513.988.929.988.58-.418.442-.99" transform="translate(-101.011 -58.165)" fill="#f08484"/>
        <path id="Trazado_161066" data-name="Trazado 161066" d="M392.987,214.471c-.218-.9.176-1.605,1.01-1.607a1.961,1.961,0,0,1,1.777,1.6c.218.9-.172,1.6-1.01,1.606a1.953,1.953,0,0,1-1.777-1.6m2.079,0c-.136-.563-.517-.988-.929-.987s-.581.413-.441.989.513.988.929.988.58-.418.442-.99" transform="translate(-103.984 -56.332)" fill="#f08484"/>
        <path id="Trazado_161067" data-name="Trazado 161067" d="M398.824,213.589l-.515.134-.278-.558.836-.268h.471l.756,3.125h-.681Z" transform="translate(-105.335 -56.341)" fill="#f08484"/>
        <path id="Trazado_161068" data-name="Trazado 161068" d="M459.446,88.592,458.8,86.22a6.467,6.467,0,0,0-5.481-4.721l-16.867-1.992-1.264,10.7-5.4,45.693,69.774,8.241,5.4-45.692-39.484-4.664a7.116,7.116,0,0,1-6.031-5.2" transform="translate(-113.739 -21.041)" fill="#f5eef6"/>
        <path id="Trazado_161069" data-name="Trazado 161069" d="M447.652,124.729l.48-4.065,15-4.561-.491,4.154L452.2,123.175l9.474,5.27-.5,4.213Z" transform="translate(-118.466 -30.725)" fill="#91372b"/>
        <path id="Trazado_161070" data-name="Trazado 161070" d="M483.773,111.872l3.8.449L471.3,138.059l-3.8-.449Z" transform="translate(-123.719 -29.606)" fill="#91372b"/>
        <path id="Trazado_161071" data-name="Trazado 161071" d="M509,127.278l-.48,4.065-15,4.561.491-4.153,10.441-2.919-9.474-5.27.5-4.213Z" transform="translate(-130.605 -31.584)" fill="#91372b"/>
        <path id="Trazado_161072" data-name="Trazado 161072" d="M226.479,146.185l26.5,11.605V147.464l-13.8-5.676,13.8-5.677v-10.23l-26.5,11.6Z" transform="translate(-59.935 -33.313)" fill="#e84847"/>
        <path id="Trazado_161073" data-name="Trazado 161073" d="M287.4,116.155,264.5,164.011h9.677l22.894-47.855Z" transform="translate(-69.997 -30.739)" fill="#e84847"/>
        <path id="Trazado_161074" data-name="Trazado 161074" d="M311.2,125.88v10.326l13.8,5.677-13.8,5.677v10.23l26.5-11.605v-8.7Z" transform="translate(-82.357 -33.313)" fill="#e84847"/>
        <rect id="Rectángulo_9221" data-name="Rectángulo 9221" width="9.677" height="2.733" transform="translate(194.504 130.539)" fill="#e84847"/>
        <rect id="Rectángulo_9222" data-name="Rectángulo 9222" width="4.52" height="2.732" transform="translate(222.554 82.684)" fill="#30262a"/>
        <path id="Trazado_161075" data-name="Trazado 161075" d="M226.479,142.469l26.5,11.605V143.748l-13.8-5.676,13.8-5.677v-10.23l-26.5,11.605Z" transform="translate(-59.935 -32.33)" fill="#f08484"/>
        <path id="Trazado_161076" data-name="Trazado 161076" d="M287.4,112.439,264.5,160.294h9.677l22.894-47.855Z" transform="translate(-69.997 -29.756)" fill="#f08484"/>
        <path id="Trazado_161077" data-name="Trazado 161077" d="M311.2,122.164V132.49l13.8,5.677-13.8,5.677v10.23l26.5-11.605v-8.7Z" transform="translate(-82.357 -32.33)" fill="#f08484"/>
        <path id="Trazado_161078" data-name="Trazado 161078" d="M348.008,211.255h-1.613l-13.207-50.393L316.211,96.08h-189.6l28.72,115.174-2.05.021L124.218,94.517l193.328-.168.169.645,16.971,65.129Z" transform="translate(-32.873 -24.969)" fill="#f08484"/>
        <path id="Trazado_161079" data-name="Trazado 161079" d="M423.5,236.049l-1.557.209-13.556-51.726,1.5-.739Z" transform="translate(-108.076 -48.639)" fill="#f08484"/>
        <path id="Trazado_161080" data-name="Trazado 161080" d="M191.964,55.37l1.691-.671a4.033,4.033,0,0,1,1.566-.052c.549.172,1.923.154,1.929.379s-1.566.927-1.566.927l-.05-.019c.6,1.353,3.586,2.126,3.73,2.622.175.6-1.215.913-1.972,1.1a4.179,4.179,0,0,1-3.528-.795c-.668-.705-1.8-1.675-1.8-1.675Z" transform="translate(-50.801 -14.445)" fill="#e89880"/>
        <path id="Trazado_161081" data-name="Trazado 161081" d="M167.129,52.046,184.4,53.365a5.386,5.386,0,0,1-.753,3.575s-15.583,3.046-19.65,1.49-3.608-8.893-3.608-8.893Z" transform="translate(-42.442 -13.109)" fill="#a54c3b"/>
        <path id="Trazado_161082" data-name="Trazado 161082" d="M173.746,29.033l-.546-1.351a3.83,3.83,0,0,0-3.552-2.4h-10.06V58.924h41.618V31.67H177.655a4.215,4.215,0,0,1-3.909-2.637" transform="translate(-42.233 -6.692)" fill="#f5eef6"/>
        <path id="Trazado_161083" data-name="Trazado 161083" d="M168.125,50.89V48.465l8.5-3.725v2.477L170.69,49.66l5.939,2.443v2.513Z" transform="translate(-44.492 -11.84)" fill="#30262a"/>
        <path id="Trazado_161084" data-name="Trazado 161084" d="M188.907,40.8h2.267L183.39,57.068h-2.267Z" transform="translate(-47.932 -10.797)" fill="#30262a"/>
        <path id="Trazado_161085" data-name="Trazado 161085" d="M204.586,48.465V50.89l-8.5,3.725V52.137l5.939-2.442-5.939-2.443V44.74Z" transform="translate(-51.891 -11.84)" fill="#30262a"/>
        <path id="Trazado_161086" data-name="Trazado 161086" d="M195.592,378.463l-4,14.793,13,1.187,2.733-14.084Z" transform="translate(-50.702 -100.156)" fill="#e8505b"/>
        <path id="Trazado_161087" data-name="Trazado 161087" d="M205.15,398.007a9.182,9.182,0,0,1-1.9-.064c-1.171-.094-2.786-.274-4.562-.5l-4.545-.61a10.661,10.661,0,0,1-1.875-.324,9.232,9.232,0,0,1,1.9.07c1.171.1,2.786.277,4.562.506l4.545.605a10.793,10.793,0,0,1,1.877.319" transform="translate(-50.88 -104.925)" fill="#1a2e35"/>
        <g id="Grupo_72126" data-name="Grupo 72126" transform="translate(140.889 291.571)" opacity="0.6">
          <g id="Grupo_72125" data-name="Grupo 72125">
            <g id="Grupo_72124" data-name="Grupo 72124" clip-path="url(#clip-path-3)">
              <path id="Trazado_161088" data-name="Trazado 161088" d="M191.591,398.03l13,1.187.21-1.085L191.967,396.5l-.363,1.382" transform="translate(-191.591 -396.501)" fill="#fff"/>
            </g>
          </g>
        </g>
        <path id="Trazado_161089" data-name="Trazado 161089" d="M200.373,393.633a110.048,110.048,0,0,1,2.769-11.264,109.906,109.906,0,0,1-2.769,11.264" transform="translate(-53.024 -101.19)" fill="#1a2e35"/>
        <path id="Trazado_161090" data-name="Trazado 161090" d="M204.859,395.854a6.242,6.242,0,0,0,.03-2.749,5.472,5.472,0,0,0-1.423-2.574,5.325,5.325,0,0,0-3.236-1.487,5.544,5.544,0,0,0-3.483.791,6.029,6.029,0,0,0-2.025,2.152,7.7,7.7,0,0,0-.821,2.638c-.011,0-.017-.068-.019-.2a3.959,3.959,0,0,1,.03-.563,5.922,5.922,0,0,1,.619-1.981A6.072,6.072,0,0,1,196.6,389.6a5.728,5.728,0,0,1,3.664-.857,5.364,5.364,0,0,1,4.839,4.318,5.138,5.138,0,0,1,.005,2.077,3.554,3.554,0,0,1-.16.542c-.046.121-.075.182-.085.178" transform="translate(-51.308 -102.868)" fill="#1a2e35"/>
        <path id="Trazado_161091" data-name="Trazado 161091" d="M265.269,372.914l-.871,13.143s13.081,4.342,13.157,6.786L252,393.028l.516-20.535Z" transform="translate(-66.688 -98.576)" fill="#e8505b"/>
        <g id="Grupo_72129" data-name="Grupo 72129" transform="translate(189.071 286.098)" opacity="0.6">
          <g id="Grupo_72128" data-name="Grupo 72128">
            <g id="Grupo_72127" data-name="Grupo 72127" clip-path="url(#clip-path-4)">
              <path id="Trazado_161092" data-name="Trazado 161092" d="M257.886,389.095a1.044,1.044,0,0,0-.757,1.168,1,1,0,0,0,1.152.761,1.1,1.1,0,0,0,.8-1.242,1.04,1.04,0,0,0-1.285-.658" transform="translate(-257.113 -389.058)" fill="#fff"/>
            </g>
          </g>
        </g>
        <g id="Grupo_72132" data-name="Grupo 72132" transform="translate(185.308 292.382)" opacity="0.6">
          <g id="Grupo_72131" data-name="Grupo 72131">
            <g id="Grupo_72130" data-name="Grupo 72130" clip-path="url(#clip-path-5)">
              <path id="Trazado_161093" data-name="Trazado 161093" d="M252,399.673l.052-2.07,24.686.682a1.766,1.766,0,0,1,.951,1.388Z" transform="translate(-251.996 -397.603)" fill="#fff"/>
            </g>
          </g>
        </g>
        <path id="Trazado_161094" data-name="Trazado 161094" d="M268.577,390.733c-.008.124-.633.163-1.259.545-.636.366-.969.9-1.082.844-.114-.028.094-.768.86-1.218s1.511-.285,1.481-.171" transform="translate(-70.449 -103.369)" fill="#1a2e35"/>
        <path id="Trazado_161095" data-name="Trazado 161095" d="M272.4,392.376c.025.121-.522.318-.961.832-.455.5-.579,1.069-.7,1.06-.118.016-.182-.717.376-1.346s1.288-.665,1.288-.546" transform="translate(-71.626 -103.824)" fill="#1a2e35"/>
        <path id="Trazado_161096" data-name="Trazado 161096" d="M274.916,396.055c-.114.023-.269-.605.072-1.279s.932-.927.982-.822c.067.1-.323.46-.594,1.017s-.336,1.075-.46,1.084" transform="translate(-72.718 -104.25)" fill="#1a2e35"/>
        <path id="Trazado_161097" data-name="Trazado 161097" d="M268.291,386.5c-.056.112-.623-.077-1.33-.051s-1.263.232-1.324.124c-.069-.093.48-.538,1.313-.557s1.405.388,1.341.485" transform="translate(-70.296 -102.155)" fill="#1a2e35"/>
        <g id="Grupo_72135" data-name="Grupo 72135" transform="translate(185.702 276.675)" opacity="0.3">
          <g id="Grupo_72134" data-name="Grupo 72134">
            <g id="Grupo_72133" data-name="Grupo 72133" clip-path="url(#clip-path-6)">
              <path id="Trazado_161098" data-name="Trazado 161098" d="M265.235,376.51l-.152,2.342-12.551-.494.048-2.113Z" transform="translate(-252.532 -376.245)"/>
            </g>
          </g>
        </g>
        <path id="Trazado_161099" data-name="Trazado 161099" d="M268.038,382.289a2.4,2.4,0,0,1-1.28-.046,5.718,5.718,0,0,1-1.326-.452,6.05,6.05,0,0,1-.723-.412,1.582,1.582,0,0,1-.377-.313.544.544,0,0,1-.037-.665.685.685,0,0,1,.555-.268,1.653,1.653,0,0,1,.478.081,4.571,4.571,0,0,1,.787.3,4.51,4.51,0,0,1,1.156.81c.577.567.765,1.039.721,1.062-.058.039-.335-.36-.924-.831a5.1,5.1,0,0,0-1.121-.678,4.8,4.8,0,0,0-.727-.249c-.268-.079-.5-.088-.572.03-.026.046-.03.063.024.144a1.258,1.258,0,0,0,.277.229,6.845,6.845,0,0,0,.664.407,7.1,7.1,0,0,0,1.222.511,8.8,8.8,0,0,1,1.2.343" transform="translate(-69.917 -100.598)" fill="#1a2e35"/>
        <path id="Trazado_161100" data-name="Trazado 161100" d="M269.084,381.852a2.039,2.039,0,0,1-.3-1.246,4.144,4.144,0,0,1,.566-2.163,1.056,1.056,0,0,1,.835-.621.6.6,0,0,1,.524.373,1.7,1.7,0,0,1,.117.473,2.845,2.845,0,0,1-.025.862,2.936,2.936,0,0,1-.586,1.3c-.519.647-1.044.78-1.054.738-.04-.064.4-.291.8-.915a2.95,2.95,0,0,0,.441-1.19,2.628,2.628,0,0,0,0-.74c-.032-.273-.126-.495-.229-.47-.127-.006-.349.192-.46.405a4.3,4.3,0,0,0-.338.684,4.605,4.605,0,0,0-.287,1.269c-.057.749.062,1.22-.007,1.237" transform="translate(-71.13 -99.987)" fill="#1a2e35"/>
        <path id="Trazado_161101" data-name="Trazado 161101" d="M249.259,217.683l-38.943-.293L191.5,340.989l16.162,2.052,20.714-101.628,6.2,101.989.016.3,17.48-.305Z" transform="translate(-50.678 -57.53)" fill="#1a2e35"/>
        <path id="Trazado_161102" data-name="Trazado 161102" d="M245.909,231.273a6.545,6.545,0,0,1,.8-.052l2.343-.086,8.416-.238.16,0v.162c.007,2.442.013,5.174.02,8.073v.078l-.058.053-1.466,1.348-4.322,3.96-.114.105-.115-.1-5.762-5.135-.047-.042v-.062c.03-2.455.055-4.471.073-5.923.015-.66.026-1.191.035-1.6a3.413,3.413,0,0,1,.03-.537,5.1,5.1,0,0,1,.03.591c.009.413.021.953.035,1.626.018,1.431.043,3.419.073,5.839l-.046-.1,5.8,5.085-.229,0,4.312-3.97L257.356,239l-.057.131c.007-2.9.014-5.631.02-8.073l.16.158-8.318.078-2.38,0-.639-.007a1.348,1.348,0,0,1-.232-.014" transform="translate(-65.04 -61.103)" fill="#375a64"/>
        <path id="Trazado_161103" data-name="Trazado 161103" d="M220.63,230.68a5.263,5.263,0,0,1,.718.037l2.1.171,7.573.687.157.014-.019.159c-.285,2.388-.61,5.111-.957,8.015l-.007.071-.058.046c-.535.428-1.1.882-1.679,1.341l-4.142,3.3-.135.108-.107-.135-4.528-5.724-.037-.048.008-.057c.327-2.424.6-4.422.791-5.865.095-.654.171-1.18.23-1.584a3.293,3.293,0,0,1,.1-.531,5.288,5.288,0,0,1-.042.593c-.041.414-.1.954-.163,1.623-.156,1.427-.372,3.4-.635,5.8l-.029-.1,4.577,5.685-.242-.027,4.134-3.305,1.68-1.339-.065.117c.363-2.9.7-5.623,1-8.01l.138.172-7.46-.832-2.122-.255a7.3,7.3,0,0,1-.774-.114" transform="translate(-58.089 -61.046)" fill="#375a64"/>
        <path id="Trazado_161104" data-name="Trazado 161104" d="M249.128,254.043a11.766,11.766,0,0,1-1.766-.858c-1.072-.56-2.552-1.333-4.2-2.158s-3.159-1.541-4.252-2.06a11.7,11.7,0,0,1-1.747-.894,9.894,9.894,0,0,1,1.849.664c1.121.461,2.652,1.146,4.309,1.971s3.122,1.638,4.166,2.256a9.842,9.842,0,0,1,1.643,1.078" transform="translate(-62.762 -65.649)" fill="#375a64"/>
        <path id="Trazado_161105" data-name="Trazado 161105" d="M250.349,257.908a4.021,4.021,0,0,1-1.328-.5,11.36,11.36,0,0,1-4.829-4.757,3.976,3.976,0,0,1-.52-1.32,15.27,15.27,0,0,0,6.677,6.577" transform="translate(-64.484 -66.512)" fill="#375a64"/>
        <path id="Trazado_161106" data-name="Trazado 161106" d="M262.735,308.842a2.106,2.106,0,0,1-.177.646,8.718,8.718,0,0,1-.812,1.635,9.883,9.883,0,0,1-10.5,4.428,8.694,8.694,0,0,1-1.738-.559,2.118,2.118,0,0,1-.585-.324,24.157,24.157,0,0,0,2.372.636,10.127,10.127,0,0,0,10.237-4.32,24.308,24.308,0,0,0,1.2-2.142" transform="translate(-65.876 -81.732)" fill="#375a64"/>
        <path id="Trazado_161107" data-name="Trazado 161107" d="M260.315,307.406a4.78,4.78,0,0,1-1.488.657,14.6,14.6,0,0,1-3.873.64,20.565,20.565,0,0,1-3.914-.23,6.152,6.152,0,0,1-1.582-.365c.017-.122,2.458.352,5.482.239a18.516,18.516,0,0,0,3.818-.525,15.635,15.635,0,0,1,1.557-.415" transform="translate(-66.016 -81.35)" fill="#375a64"/>
        <path id="Trazado_161108" data-name="Trazado 161108" d="M220.754,308.408a6.238,6.238,0,0,1-1.355,1.227,15.731,15.731,0,0,1-8.195,3.051,6.231,6.231,0,0,1-1.827-.042,17.951,17.951,0,0,1,1.8-.209,18.554,18.554,0,0,0,8.074-3.006,17.972,17.972,0,0,1,1.5-1.021" transform="translate(-55.409 -81.616)" fill="#375a64"/>
        <path id="Trazado_161109" data-name="Trazado 161109" d="M217.667,308a11.145,11.145,0,0,1-7.051-.562c.032-.1,1.563.352,3.508.5s3.528-.045,3.543.062" transform="translate(-55.737 -81.355)" fill="#375a64"/>
        <path id="Trazado_161110" data-name="Trazado 161110" d="M236.726,251.215a7.668,7.668,0,0,1-1.752.793,24.41,24.41,0,0,1-9.126,1.461,7.724,7.724,0,0,1-1.911-.207,15.2,15.2,0,0,1,1.913-.045,31.623,31.623,0,0,0,9.043-1.448,15.334,15.334,0,0,1,1.832-.555" transform="translate(-59.263 -66.48)" fill="#375a64"/>
        <path id="Trazado_161111" data-name="Trazado 161111" d="M239.822,245.791c.1,0,.182.3.188.682s-.071.685-.169.687-.182-.3-.187-.682.071-.686.169-.687" transform="translate(-63.422 -65.046)" fill="#375a64"/>
        <path id="Trazado_161112" data-name="Trazado 161112" d="M239.822,242.068c.1,0,.176.308.174.685s-.084.684-.182.684-.176-.307-.174-.686.084-.685.182-.683" transform="translate(-63.418 -64.061)" fill="#375a64"/>
        <path id="Trazado_161113" data-name="Trazado 161113" d="M239.893,238.345c.1,0,.171.312.161.689s-.1.682-.2.679-.171-.31-.161-.689.1-.682.2-.679" transform="translate(-63.433 -63.075)" fill="#375a64"/>
        <path id="Trazado_161114" data-name="Trazado 161114" d="M240.037,234.624c.1.006.164.316.147.693s-.11.679-.208.675-.165-.313-.148-.691.11-.681.209-.677" transform="translate(-63.467 -62.091)" fill="#375a64"/>
        <path id="Trazado_161115" data-name="Trazado 161115" d="M240.252,230.908c.1.007.158.318.134.694s-.124.678-.221.672-.159-.317-.134-.695.124-.678.221-.671" transform="translate(-63.52 -61.107)" fill="#375a64"/>
        <path id="Trazado_161116" data-name="Trazado 161116" d="M240.538,227.2c.1.009.152.321.121.7s-.137.675-.235.667-.152-.32-.121-.7.137-.676.235-.667" transform="translate(-63.591 -60.125)" fill="#375a64"/>
        <path id="Trazado_161117" data-name="Trazado 161117" d="M240.839,224.156c.1.01.157.214.133.454s-.124.428-.223.418-.157-.213-.132-.454.124-.429.222-.418" transform="translate(-63.675 -59.32)" fill="#375a64"/>
        <path id="Trazado_161118" data-name="Trazado 161118" d="M210.854,384.573c.1.019.114.335.04.706s-.213.656-.308.636-.115-.335-.041-.706.213-.655.31-.636" transform="translate(-55.706 -101.773)" fill="#375a64"/>
        <path id="Trazado_161119" data-name="Trazado 161119" d="M211.584,380.922c.1.019.115.335.04.706s-.213.656-.309.636-.115-.335-.04-.706.213-.655.309-.636" transform="translate(-55.9 -100.807)" fill="#375a64"/>
        <path id="Trazado_161120" data-name="Trazado 161120" d="M212.314,377.271c.1.019.115.335.04.706s-.213.656-.309.636-.115-.335-.04-.706.213-.655.309-.636" transform="translate(-56.093 -99.84)" fill="#375a64"/>
        <path id="Trazado_161121" data-name="Trazado 161121" d="M213.045,373.62c.1.019.115.335.04.706s-.213.656-.309.636-.115-.335-.04-.706.213-.655.309-.636" transform="translate(-56.286 -98.874)" fill="#375a64"/>
        <path id="Trazado_161122" data-name="Trazado 161122" d="M213.775,369.969c.1.019.115.335.04.706s-.213.656-.309.636-.115-.335-.04-.706.213-.655.309-.636" transform="translate(-56.48 -97.908)" fill="#375a64"/>
        <path id="Trazado_161123" data-name="Trazado 161123" d="M214.505,366.319c.1.019.115.335.04.706s-.213.656-.309.636-.115-.335-.04-.706.213-.655.309-.636" transform="translate(-56.673 -96.942)" fill="#375a64"/>
        <path id="Trazado_161124" data-name="Trazado 161124" d="M215.236,362.668c.1.019.115.335.04.706s-.213.656-.309.636-.115-.335-.04-.706.212-.655.309-.636" transform="translate(-56.866 -95.976)" fill="#375a64"/>
        <path id="Trazado_161125" data-name="Trazado 161125" d="M215.966,359.017c.1.019.115.335.04.706s-.213.656-.309.636-.115-.335-.04-.706.213-.655.309-.636" transform="translate(-57.059 -95.01)" fill="#375a64"/>
        <path id="Trazado_161126" data-name="Trazado 161126" d="M216.7,355.366c.1.019.115.335.04.706s-.213.656-.309.636-.115-.335-.04-.706.213-.655.309-.636" transform="translate(-57.253 -94.043)" fill="#375a64"/>
        <path id="Trazado_161127" data-name="Trazado 161127" d="M217.427,351.715c.1.019.114.335.04.706s-.213.656-.309.636-.115-.335-.04-.706.213-.655.31-.636" transform="translate(-57.446 -93.077)" fill="#375a64"/>
        <path id="Trazado_161128" data-name="Trazado 161128" d="M218.157,348.065c.1.019.115.335.04.706s-.213.656-.309.636-.115-.335-.04-.706.213-.655.309-.636" transform="translate(-57.639 -92.111)" fill="#375a64"/>
        <path id="Trazado_161129" data-name="Trazado 161129" d="M218.887,344.414c.1.019.115.335.04.706s-.213.656-.309.636-.115-.335-.04-.706.213-.655.309-.636" transform="translate(-57.832 -91.145)" fill="#375a64"/>
        <path id="Trazado_161130" data-name="Trazado 161130" d="M219.617,340.763c.1.019.115.335.04.706s-.213.656-.309.636-.115-.335-.04-.706.213-.655.309-.636" transform="translate(-58.026 -90.179)" fill="#375a64"/>
        <path id="Trazado_161131" data-name="Trazado 161131" d="M220.348,337.112c.1.019.115.335.04.706s-.213.656-.309.636-.115-.335-.04-.706.213-.655.309-.636" transform="translate(-58.219 -89.213)" fill="#375a64"/>
        <path id="Trazado_161132" data-name="Trazado 161132" d="M221.078,333.461c.1.019.115.335.04.706s-.213.656-.309.636-.115-.335-.04-.706.213-.655.309-.636" transform="translate(-58.412 -88.247)" fill="#375a64"/>
        <path id="Trazado_161133" data-name="Trazado 161133" d="M221.808,329.811c.1.019.115.335.04.706s-.213.656-.309.636-.115-.335-.04-.706.213-.655.309-.636" transform="translate(-58.605 -87.281)" fill="#375a64"/>
        <path id="Trazado_161134" data-name="Trazado 161134" d="M222.539,326.16c.1.019.115.335.04.706s-.213.656-.309.636-.115-.335-.04-.706.213-.655.309-.636" transform="translate(-58.799 -86.314)" fill="#375a64"/>
        <path id="Trazado_161135" data-name="Trazado 161135" d="M223.269,322.509c.1.019.115.335.04.706s-.213.656-.309.636-.115-.335-.04-.706.213-.655.309-.636" transform="translate(-58.992 -85.348)" fill="#375a64"/>
        <path id="Trazado_161136" data-name="Trazado 161136" d="M224,318.858c.1.019.114.335.04.706s-.213.656-.309.636-.115-.335-.04-.706.213-.655.31-.636" transform="translate(-59.185 -84.382)" fill="#375a64"/>
        <path id="Trazado_161137" data-name="Trazado 161137" d="M224.73,315.207c.1.019.115.335.04.706s-.213.656-.309.636-.115-.335-.04-.706.213-.655.309-.636" transform="translate(-59.379 -83.416)" fill="#375a64"/>
        <path id="Trazado_161138" data-name="Trazado 161138" d="M225.46,311.557c.1.019.115.335.04.706s-.213.656-.309.636-.115-.335-.04-.706.213-.655.309-.636" transform="translate(-59.572 -82.45)" fill="#375a64"/>
        <path id="Trazado_161139" data-name="Trazado 161139" d="M226.19,307.906c.1.019.115.335.04.706s-.213.656-.309.636-.115-.335-.04-.706.213-.655.309-.636" transform="translate(-59.765 -81.484)" fill="#375a64"/>
        <path id="Trazado_161140" data-name="Trazado 161140" d="M226.921,304.255c.1.019.115.335.04.706s-.213.656-.309.636-.115-.335-.04-.706.213-.655.309-.636" transform="translate(-59.959 -80.517)" fill="#375a64"/>
        <path id="Trazado_161141" data-name="Trazado 161141" d="M227.651,300.6c.1.019.115.335.04.706s-.213.656-.309.636-.115-.335-.04-.706.213-.655.309-.636" transform="translate(-60.152 -79.551)" fill="#375a64"/>
        <path id="Trazado_161142" data-name="Trazado 161142" d="M228.382,296.953c.1.019.114.335.04.706s-.213.656-.308.636-.115-.335-.041-.706.212-.655.31-.636" transform="translate(-60.345 -78.585)" fill="#375a64"/>
        <path id="Trazado_161143" data-name="Trazado 161143" d="M229.112,293.3c.1.019.115.335.04.706s-.213.656-.309.636-.115-.335-.04-.706.212-.655.309-.636" transform="translate(-60.538 -77.619)" fill="#375a64"/>
        <path id="Trazado_161144" data-name="Trazado 161144" d="M229.842,289.652c.1.019.115.335.04.706s-.213.656-.309.636-.115-.335-.04-.706.213-.655.309-.636" transform="translate(-60.732 -76.653)" fill="#375a64"/>
        <path id="Trazado_161145" data-name="Trazado 161145" d="M230.572,286c.1.019.115.335.04.706s-.213.656-.309.636-.115-.335-.04-.706.213-.655.309-.636" transform="translate(-60.925 -75.687)" fill="#375a64"/>
        <path id="Trazado_161146" data-name="Trazado 161146" d="M231.3,282.35c.1.019.115.335.04.706s-.213.656-.309.636-.115-.335-.04-.706.213-.655.309-.636" transform="translate(-61.118 -74.721)" fill="#375a64"/>
        <path id="Trazado_161147" data-name="Trazado 161147" d="M232.033,278.7c.1.019.115.335.04.706s-.213.656-.309.636-.115-.335-.04-.706.213-.655.309-.636" transform="translate(-61.311 -73.754)" fill="#375a64"/>
        <path id="Trazado_161148" data-name="Trazado 161148" d="M232.763,275.049c.1.019.115.335.04.706s-.213.656-.309.636-.115-.335-.04-.706.213-.655.309-.636" transform="translate(-61.505 -72.788)" fill="#375a64"/>
        <path id="Trazado_161149" data-name="Trazado 161149" d="M233.494,271.4c.1.019.115.335.04.706s-.213.656-.309.636-.115-.335-.04-.706.213-.655.309-.636" transform="translate(-61.698 -71.822)" fill="#375a64"/>
        <path id="Trazado_161150" data-name="Trazado 161150" d="M234.224,267.747c.1.019.115.335.04.706s-.213.656-.309.636-.115-.335-.04-.706.213-.655.309-.636" transform="translate(-61.891 -70.856)" fill="#375a64"/>
        <path id="Trazado_161151" data-name="Trazado 161151" d="M234.955,264.1c.1.019.114.335.04.706s-.213.656-.309.636-.115-.335-.04-.706.213-.655.31-.636" transform="translate(-62.084 -69.89)" fill="#375a64"/>
        <path id="Trazado_161152" data-name="Trazado 161152" d="M235.685,260.445c.1.019.115.336.04.707s-.213.656-.309.636-.115-.336-.04-.706.213-.655.309-.637" transform="translate(-62.278 -68.924)" fill="#375a64"/>
        <path id="Trazado_161153" data-name="Trazado 161153" d="M236.415,256.795c.1.019.115.335.04.706s-.213.656-.309.636-.115-.335-.04-.706.213-.655.309-.636" transform="translate(-62.471 -67.958)" fill="#375a64"/>
        <path id="Trazado_161154" data-name="Trazado 161154" d="M237.145,253.144c.1.019.115.335.04.706s-.213.656-.309.636-.115-.335-.04-.706.213-.655.309-.636" transform="translate(-62.664 -66.992)" fill="#375a64"/>
        <path id="Trazado_161155" data-name="Trazado 161155" d="M310.275,135.584s4.557-6.832,4.678-6.891c0,0,4.114-6.927,5.481-6.929s.874,1.4-.538,3.886a9.876,9.876,0,0,0-1.363,3.533l3.378,2.04s2.256-.873,2.35,1.23a14.594,14.594,0,0,1-.389,2.857c-.137.749-.476,1.547-1.182,1.266a.888.888,0,0,1-.605-.846c-.043-1.245.19-1.7.03-1.7-.2,0-2.431,6.528-2.431,6.528Z" transform="translate(-82.111 -32.224)" fill="#ffc19d"/>
        <path id="Trazado_161156" data-name="Trazado 161156" d="M322.787,132.954a6.628,6.628,0,0,1,1.084-.646,2.2,2.2,0,0,1,1.23-.191,1.1,1.1,0,0,1,.685.364,1.12,1.12,0,0,1,.129,1.038,3.289,3.289,0,0,1-.554.93" transform="translate(-85.422 -34.957)" fill="#ffc19d"/>
        <path id="Trazado_161157" data-name="Trazado 161157" d="M320.691,131.1a6.3,6.3,0,0,1,1.027-.609,2.1,2.1,0,0,1,1.166-.18.933.933,0,0,1,.771,1.32,8.777,8.777,0,0,1-1.05,1.351" transform="translate(-84.867 -34.479)" fill="#ffc19d"/>
        <path id="Trazado_161158" data-name="Trazado 161158" d="M310.064,135.313,303.48,149.4l7.259,7.419,3.783-10.5s2.027.4,2.854-.941a35.121,35.121,0,0,0,2.134-5.838Z" transform="translate(-80.313 -35.809)" fill="#ffc19d"/>
        <path id="Trazado_161159" data-name="Trazado 161159" d="M318.826,133.647a3.585,3.585,0,0,1,.779-1.947,3.477,3.477,0,0,1,1.129-1c.338-.184.568-.246.59-.205.063.105-.788.527-1.431,1.416s-.956,1.783-1.066,1.736" transform="translate(-84.37 -34.531)" fill="#ff9c6a"/>
        <path id="Trazado_161160" data-name="Trazado 161160" d="M327.473,134.688c-.031.046-.256-.076-.638-.142a2.228,2.228,0,0,0-1.438.22,3.516,3.516,0,0,0-1.069,1.06c-.236.329-.391.537-.436.512s.033-.269.221-.643a2.89,2.89,0,0,1,1.113-1.241,2.124,2.124,0,0,1,1.673-.152c.416.143.6.354.576.386" transform="translate(-85.711 -35.514)" fill="#ff9c6a"/>
        <path id="Trazado_161161" data-name="Trazado 161161" d="M324.438,132.149a9.423,9.423,0,0,0-1.547.91c-.737.651-1.1,1.415-1.2,1.365a2.49,2.49,0,0,1,.964-1.633,2.834,2.834,0,0,1,1.213-.635c.345-.076.564-.05.569-.006" transform="translate(-85.128 -34.961)" fill="#ff9c6a"/>
        <path id="Trazado_161162" data-name="Trazado 161162" d="M327.274,136.3c.093-.036.265.51-.08,1.056s-.909.631-.916.532c-.03-.1.355-.293.614-.721s.282-.852.382-.867" transform="translate(-86.345 -36.07)" fill="#ff9c6a"/>
        <path id="Trazado_161163" data-name="Trazado 161163" d="M310.288,138.182s-.229-4.2.786-5.153,3.926.037,3.926.037" transform="translate(-82.109 -35.095)" fill="#ffc19d"/>
        <path id="Trazado_161164" data-name="Trazado 161164" d="M316.074,130.5a22.446,22.446,0,0,1-3.3,4.581,22.448,22.448,0,0,1,3.3-4.581" transform="translate(-82.77 -34.535)" fill="#ff9c6a"/>
        <path id="Trazado_161165" data-name="Trazado 161165" d="M215.73,130.714c.1-.563.238-1.22.434-1.986a5.97,5.97,0,0,1,.832-1.844,9.088,9.088,0,0,1,1.611-1.939.783.783,0,0,0-.343-1.439c-.706,0-2.457,1.235-3.661,3.427s-1.911-1.679-2.194-3.085-1.363-5.716-1.864-5.971c-.735-.374-1.272.344-.957,1.741.32,1.415.966,5.656.217,5.77s-2.083-7.065-2.083-7.065-.039-1.581-.91-1.479c-1.571.185.42,7.71.627,8.422.144.494-.666.647-.793.108-.129-.555-1.173-7.191-2.775-7.018-1.228.133,1.58,6.2,1.031,7.7s-1.661-4.822-2.829-4.647c-.435.065-.751.174.413,3.711.564,1.716,2.753,9.753,2.753,9.753l-1.256,6.588,10,2.533Z" transform="translate(-53.373 -30.92)" fill="#ffc19d"/>
        <path id="Trazado_161166" data-name="Trazado 161166" d="M237.954,85.721l-.1,32.794,14.07.671.407-7.976s5,.992,6.287-3.649c.824-2.964.618-25.876.618-25.876Z" transform="translate(-62.945 -21.617)" fill="#ffc19d"/>
        <path id="Trazado_161167" data-name="Trazado 161167" d="M259.4,82.346c-2.216.635-2.7,4.256-2.7,4.256l-3.476,7.677c-1.771-1.386-4.148-1.307-4.6,1.8-.325,2.249,2.47,2.7,2.47,2.7a40.766,40.766,0,0,1-5.1,7.644c-2.565,2.851-4,3.139-6.783,3.185h-3.067s-1.5-4.873-4.281-17.06c-3.085-13.521,12.9-11.78,15.868-15.231,4.828-5.62,18.652,3.022,11.666,5.021" transform="translate(-61.256 -19.968)" fill="#1a2e35"/>
        <path id="Trazado_161168" data-name="Trazado 161168" d="M231.591,92.548c-2.591-1.741-2.825-6.612-1.313-9.532a9.386,9.386,0,0,1,7.982-4.964,3.776,3.776,0,0,0,1.3-.146,3.61,3.61,0,0,0,1.4-1.328c2.316-3.012,4.592-5.97,8.91-5.97a4.913,4.913,0,0,1,2.714.673,4.263,4.263,0,0,1,1.63,2.158,9.236,9.236,0,0,1,2.525-.908,3.115,3.115,0,0,1,2.533.618,1.909,1.909,0,0,1,.4,2.427,3.069,3.069,0,0,1,3.063,2.552c.229,1.44-1.834,2.452-2.049,2.564a2.851,2.851,0,0,1-1.568,3.792,3.24,3.24,0,0,1-2.662-.2" transform="translate(-60.692 -18.685)" fill="#1a2e35"/>
        <path id="Trazado_161169" data-name="Trazado 161169" d="M245.979,104.732a6.619,6.619,0,0,1-1.075,4.774c-.094-.047.357-1.052.647-2.363s.323-2.409.428-2.411" transform="translate(-64.808 -27.716)" fill="#375a64"/>
        <path id="Trazado_161170" data-name="Trazado 161170" d="M248.362,102.543a9.263,9.263,0,0,1-.874,4.681,12.907,12.907,0,0,1,.393-2.349,12.869,12.869,0,0,1,.481-2.332" transform="translate(-65.49 -27.137)" fill="#375a64"/>
        <path id="Trazado_161171" data-name="Trazado 161171" d="M254.017,95.182c.034.047-.365.338-.871.93a9.009,9.009,0,0,0-1.516,2.617,22.014,22.014,0,0,0-.841,2.949,4.931,4.931,0,0,1-.349,1.241,4.426,4.426,0,0,1,.1-1.287A14.507,14.507,0,0,1,251.3,98.6a7.647,7.647,0,0,1,1.663-2.66,2.667,2.667,0,0,1,1.056-.759" transform="translate(-66.271 -25.188)" fill="#375a64"/>
        <path id="Trazado_161172" data-name="Trazado 161172" d="M257.464,90.172a1.834,1.834,0,0,1,.273.888,5.906,5.906,0,0,1-1.071,4.272c-.346.461-.628.682-.659.654a12.307,12.307,0,0,0,1.262-2.773,12.282,12.282,0,0,0,.195-3.04" transform="translate(-67.748 -23.863)" fill="#375a64"/>
        <path id="Trazado_161173" data-name="Trazado 161173" d="M234.524,100.949c-.049.086-.479-.063-.963-.333s-.836-.559-.788-.645.479.063.963.333.836.559.789.645" transform="translate(-61.6 -26.45)" fill="#375a64"/>
        <path id="Trazado_161174" data-name="Trazado 161174" d="M243.865,96.549c.093.013.035.708-.4,1.427s-1.021,1.1-1.076,1.02.376-.541.771-1.2.607-1.265.707-1.242" transform="translate(-64.143 -25.55)" fill="#375a64"/>
        <path id="Trazado_161175" data-name="Trazado 161175" d="M246.537,95.023a2.814,2.814,0,0,1-.626,1.7c-.564.856-1.274,1.316-1.328,1.24s.5-.632,1.031-1.437a14.446,14.446,0,0,1,.923-1.507" transform="translate(-64.725 -25.147)" fill="#375a64"/>
        <path id="Trazado_161176" data-name="Trazado 161176" d="M254.619,75.856c-.025.028-.264-.2-.771-.489a5.2,5.2,0,0,0-2.358-.61,6.32,6.32,0,0,0-3.458.93,8.57,8.57,0,0,0-2.946,3.281,14.748,14.748,0,0,0-1.2,3.075l-.056.207-.189-.1a7.018,7.018,0,0,0-3.139-.8,7.415,7.415,0,0,0-2.555.386,10.848,10.848,0,0,0-2.086,1.043,2.169,2.169,0,0,1,.471-.417,6.485,6.485,0,0,1,1.544-.829,7.285,7.285,0,0,1,2.631-.476,7.146,7.146,0,0,1,3.3.793l-.245.107a14.528,14.528,0,0,1,1.211-3.156,8.7,8.7,0,0,1,3.09-3.393,6.423,6.423,0,0,1,3.639-.9,5,5,0,0,1,2.417.742,3.656,3.656,0,0,1,.541.429c.113.11.168.171.16.179" transform="translate(-62.419 -19.714)" fill="#375a64"/>
        <path id="Trazado_161177" data-name="Trazado 161177" d="M265.368,78.607c-.025-.007.391-.105.807.365A1.4,1.4,0,0,1,266.5,80a1.6,1.6,0,0,1-.818,1.168,2.319,2.319,0,0,1-1.709.235,4.947,4.947,0,0,1-1.763-.854,17.253,17.253,0,0,0-1.725-1.182,7.173,7.173,0,0,0-2.078-.731,8.788,8.788,0,0,0-4.242.29,11.6,11.6,0,0,0-3.136,1.594,32.151,32.151,0,0,0-2.5,2.118,3.574,3.574,0,0,1,.556-.693,13.54,13.54,0,0,1,1.8-1.628,11.242,11.242,0,0,1,3.182-1.7,8.89,8.89,0,0,1,4.41-.329,7.382,7.382,0,0,1,2.18.774A16.586,16.586,0,0,1,262.4,80.28a4.753,4.753,0,0,0,1.638.835,2.072,2.072,0,0,0,1.519-.166,1.394,1.394,0,0,0,.745-.974,1.277,1.277,0,0,0-.235-.917,1.237,1.237,0,0,0-.7-.451" transform="translate(-65.769 -20.68)" fill="#375a64"/>
        <path id="Trazado_161178" data-name="Trazado 161178" d="M212.181,133.949,194.987,164.69a8.72,8.72,0,0,0,1.327,8.17l-.355-.511a7.34,7.34,0,0,0,5.708,2.725h.325a7.34,7.34,0,0,0,6.73-4.411l4.037-6.126Z" transform="translate(-51.472 -35.448)" fill="#eb9595"/>
        <path id="Trazado_161179" data-name="Trazado 161179" d="M254.717,130.009a23.084,23.084,0,0,0-10.337-2.218c-4.232-.124-10.2-.716-14.756-.23,0,0-13.9-.426-13.959,10.343l1.838,41.34-2.975,17.719,41.637,1.257-.3-20.9c.514-10.877-.583-26.277-.583-26.277.641-5.846,3.84-8.479,4.294-12.281a9.353,9.353,0,0,0-4.86-8.751" transform="translate(-56.773 -33.708)" fill="#eb9595"/>
        <path id="Trazado_161180" data-name="Trazado 161180" d="M246.128,198.729a3.33,3.33,0,0,1-.613.58,13.423,13.423,0,0,1-1.9,1.3,15.166,15.166,0,0,1-14.625.259,13.432,13.432,0,0,1-1.943-1.233,3.373,3.373,0,0,1-.632-.558c.041-.057.963.724,2.689,1.566a15.7,15.7,0,0,0,14.389-.254c1.7-.9,2.589-1.716,2.633-1.66" transform="translate(-59.919 -52.591)" fill="#1a2e35"/>
        <path id="Trazado_161181" data-name="Trazado 161181" d="M216.066,141.694a1.749,1.749,0,0,1,.049.407c.018.306.042.693.071,1.169.049,1.063.117,2.52.2,4.3.154,3.674.363,8.668.593,14.187.25,5.52.477,10.513.643,14.186.09,1.779.165,3.236.219,4.3.02.477.037.863.049,1.169a1.77,1.77,0,0,1-.007.41,1.767,1.767,0,0,1-.065-.4c-.031-.305-.069-.69-.117-1.166-.1-1.012-.205-2.479-.332-4.292-.246-3.627-.513-8.643-.747-14.185s-.4-10.56-.49-14.193c-.035-1.782-.065-3.24-.087-4.3,0-.477,0-.864,0-1.171a1.765,1.765,0,0,1,.024-.409" transform="translate(-57.173 -37.498)" fill="#1a2e35"/>
        <path id="Trazado_161182" data-name="Trazado 161182" d="M201.68,146.549s-1.576,4.625-1.855,5.251c0,0-3.888,11.241-5.155,18.83L207.1,148.182c.107.013-5.254-1.586-5.421-1.633" transform="translate(-51.518 -38.783)" fill="#eb9595"/>
        <path id="Trazado_161183" data-name="Trazado 161183" d="M207.7,144.7a1.336,1.336,0,0,1-.143.326l-.472.9c-.42.777-1.045,1.891-1.846,3.25-1.581,2.732-3.958,6.39-6.359,10.549-1.2,2.078-2.219,4.134-3.1,6.014a11.043,11.043,0,0,0-1.21,5.277,8.469,8.469,0,0,0,.964,3.531c.413.772.753,1.131.724,1.155-.01.008-.1-.079-.252-.252a5.98,5.98,0,0,1-.592-.834,8.187,8.187,0,0,1-1.095-3.583,11.092,11.092,0,0,1,1.162-5.427c.873-1.9,1.883-3.965,3.091-6.056,2.412-4.175,4.819-7.807,6.453-10.5l1.942-3.189L207.5,145a1.323,1.323,0,0,1,.206-.29" transform="translate(-51.417 -38.295)" fill="#1a2e35"/>
        <path id="Trazado_161184" data-name="Trazado 161184" d="M302.488,152.093l-9.635-6.3-6.081,10.534s-8.431-11.718-12.26-18.583c-3.525-6.319-8.085-8.021-10.285-8.479a.977.977,0,0,0-1.168,1.066l3.323,22.785c.418,1.186,7.373,11.267,11.259,16.34,6.487,8.467,16.043,3.049,18.667-2.877,2.083-4.7,5.325-11.85,6.178-14.484" transform="translate(-69.614 -34.203)" fill="#eb9595"/>
        <path id="Trazado_161185" data-name="Trazado 161185" d="M298.112,175.5a6.843,6.843,0,0,1-.185-1.5,28.833,28.833,0,0,0-.465-3.588,11.868,11.868,0,0,0-1.23-3.363c-.453-.8-.838-1.236-.793-1.275a3.608,3.608,0,0,1,1.009,1.144,10.055,10.055,0,0,1,1.363,3.419,19.152,19.152,0,0,1,.368,3.65,6.031,6.031,0,0,1-.067,1.516" transform="translate(-78.184 -43.869)" fill="#1a2e35"/>
        <path id="Trazado_161186" data-name="Trazado 161186" d="M300.87,170.629c-.057,0-.1-.489-.342-1.233a6.8,6.8,0,0,0-1.541-2.584,4.04,4.04,0,0,0-2.562-1.4,3.6,3.6,0,0,0-1.221.215c-.036-.021.368-.438,1.224-.468a3.965,3.965,0,0,1,2.816,1.407,6.111,6.111,0,0,1,1.527,2.762,2.737,2.737,0,0,1,.1,1.3" transform="translate(-78.122 -43.706)" fill="#1a2e35"/>
        <path id="Trazado_161187" data-name="Trazado 161187" d="M262.583,133.1a1.335,1.335,0,0,1-.231.268l-.3.3-.369.445a9.412,9.412,0,0,0-1.668,3.239,12.671,12.671,0,0,0-.366,5.378,11.927,11.927,0,0,0,.828,3.082,33.751,33.751,0,0,0,1.557,3.094c2.359,4.142,4.786,7.726,6.543,10.311l2.115,3.041a11.436,11.436,0,0,1,.766,1.124c-.01.008-.093-.081-.242-.257s-.367-.438-.635-.785c-.543-.688-1.3-1.706-2.211-2.98a122.387,122.387,0,0,1-6.648-10.281,32.78,32.78,0,0,1-1.569-3.133,12.036,12.036,0,0,1-.831-3.172,12.613,12.613,0,0,1,.451-5.5,9.019,9.019,0,0,1,1.8-3.253l.4-.429.324-.282a1.312,1.312,0,0,1,.28-.215" transform="translate(-68.598 -35.223)" fill="#1a2e35"/>
        <g id="Grupo_72138" data-name="Grupo 72138" transform="translate(168.546 137.067)" opacity="0.3">
          <g id="Grupo_72137" data-name="Grupo 72137">
            <g id="Grupo_72136" data-name="Grupo 72136" clip-path="url(#clip-path-7)">
              <path id="Trazado_161188" data-name="Trazado 161188" d="M243.89,197.322a9.514,9.514,0,0,0,5.588-7.867,3.247,3.247,0,0,0-.755-2.434,3.126,3.126,0,0,0-3.575-.138c-1.861.978-3.079,2.814-4.386,4.461s-2.967,3.265-5.061,3.464a13.171,13.171,0,0,1-2.691-.2,4.571,4.571,0,0,0-2.644.32,2,2,0,0,0-1.093,2.236,14.4,14.4,0,0,0,7.52,2.017,21.659,21.659,0,0,0,7.1-1.857" transform="translate(-229.202 -186.394)"/>
            </g>
          </g>
        </g>
        <path id="Trazado_161189" data-name="Trazado 161189" d="M252.715,215.423a1.1,1.1,0,0,1-.294.127l-.865.3c-.377.13-.84.279-1.385.425s-1.162.337-1.858.487a47.433,47.433,0,0,1-4.918.9,48.589,48.589,0,0,1-12.226.035,47.6,47.6,0,0,1-4.924-.875c-.7-.146-1.314-.331-1.86-.477s-1.011-.289-1.388-.417l-.867-.294a.162.162,0,1,1,.021-.068l.885.229c.382.107.85.234,1.4.357s1.168.294,1.864.423c1.385.3,3.05.574,4.908.795a52.055,52.055,0,0,0,12.147-.035c1.857-.232,3.52-.515,4.9-.823.7-.133,1.315-.3,1.862-.433s1.016-.256,1.4-.365l.883-.235a1.1,1.1,0,0,1,.316-.059" transform="translate(-58.706 -57.008)" fill="#1a2e35"/>
      </g>
    </g>
  </g>
</svg>
