<svg xmlns="http://www.w3.org/2000/svg" width="650" height="443" viewBox="0 0 650 443">
  <g id="Grupo_72226" data-name="Grupo 72226" transform="translate(3126 873.104)">
    <rect id="Rectángulo_9102" data-name="Rectángulo 9102" width="650" height="443" transform="translate(-3126 -873.104)" fill="#0c0c0c"/>
    <text id="app.put_pqrs_:id_req_res_collection.findOneAndUpdate_asunto:_req.params.id_set:_estado:_req.body.estado_respuesta:_req.body.respuesta_" data-name="app.put(&apos;/pqrs/:id&apos;, (req, res) =&gt; {
    collection.findOneAndUpdate(
        { asunto: req.params.id },
        {
            $set: {
                estado: req.body.estado,
                respuesta: req.body.respuesta
            }
        },
        {" transform="translate(-2977 -839.104)" fill="#34b3e1" font-size="18" font-family="Roboto-Black, Roboto" font-weight="800"><tspan x="0" y="17">app</tspan><tspan y="17" fill="#f4f7ad">.put</tspan><tspan y="17" fill="#fff">(</tspan><tspan y="17" fill="#eb9595">&apos;/pqrs/:id&apos;</tspan><tspan y="17" fill="#fff">,</tspan><tspan y="17"> </tspan><tspan y="17" fill="#f6f6f6">(</tspan><tspan y="17" fill="#b2e5f7">req, res</tspan><tspan y="17" fill="#fff">)</tspan><tspan y="17"> =&gt; </tspan><tspan y="17" fill="#fff">{</tspan><tspan x="0" y="42">    </tspan><tspan y="42" fill="#b2e5f7">collection</tspan><tspan y="42" fill="#f4f7ad">.findOneAndUpdate</tspan><tspan y="42" fill="#fff">(</tspan><tspan x="0" y="67">       </tspan><tspan y="67" fill="#fff"> {</tspan><tspan y="67"> </tspan><tspan y="67" fill="#b2e5f7">asunto: req.params.id </tspan><tspan y="67" fill="#fff">},</tspan><tspan x="0" y="92">       </tspan><tspan y="92" fill="#fff"> {</tspan><tspan x="0" y="117">           </tspan><tspan y="117" fill="#b2e5f7"> $set:</tspan><tspan y="117"> </tspan><tspan y="117" fill="#fff">{</tspan><tspan x="0" y="142">                </tspan><tspan y="142" fill="#b2e5f7">estado: req.body.estado,</tspan><tspan fill="#b2e5f7"><tspan x="0" y="167">                respuesta: req.body.respuesta</tspan></tspan><tspan x="0" y="192">       </tspan><tspan y="192" fill="#fff">     }</tspan><tspan fill="#fff"><tspan x="0" y="217">        },</tspan><tspan x="0" y="242">        {</tspan></tspan><tspan x="0" y="267">            </tspan><tspan y="267" fill="#b2e5f7">upsert:</tspan><tspan y="267"> true</tspan><tspan x="0" y="292">        </tspan><tspan y="292" fill="#fff">}</tspan><tspan x="0" y="317">    </tspan><tspan y="317" fill="#fff">)</tspan><tspan y="317" fill="#f4f7ad">.then</tspan><tspan y="317" fill="#fff">(</tspan><tspan y="317" fill="#b2e5f7">result</tspan><tspan y="317"> =&gt; </tspan><tspan y="317" fill="#fff">{</tspan><tspan y="317"> </tspan><tspan y="317" fill="#b2e5f7">res.</tspan><tspan y="317" fill="#f4f7ad">json</tspan><tspan y="317" fill="#fff">(</tspan><tspan y="317" fill="#eb9595">&apos;Actualizado&apos;</tspan><tspan y="317" fill="#fff">) })</tspan><tspan x="0" y="342">       </tspan><tspan y="342" fill="#f4f7ad"> .catch</tspan><tspan y="342" fill="#fff">(</tspan><tspan y="342" fill="#b2e5f7">error</tspan><tspan y="342"> =&gt; </tspan><tspan y="342" fill="#b2e5f7">console</tspan><tspan y="342" fill="#f4f7ad">.error</tspan><tspan y="342" fill="#fff">(</tspan><tspan y="342" fill="#b2e5f7">error</tspan><tspan y="342" fill="#fff">))</tspan><tspan fill="#fff"><tspan x="0" y="367">});</tspan></tspan></text>
  </g>
</svg>
