<svg xmlns="http://www.w3.org/2000/svg" xmlns:xlink="http://www.w3.org/1999/xlink" width="190" height="66" viewBox="0 0 190 66">
  <defs>
    <clipPath id="clip-path">
      <rect id="Rect치ngulo_8067" data-name="Rect치ngulo 8067" width="55.552" height="64.975" transform="translate(0 0)" fill="none"/>
    </clipPath>
  </defs>
  <g id="Grupo_72056" data-name="Grupo 72056" transform="translate(-1105 -7236.833)">
    <path id="Trazado_160817" data-name="Trazado 160817" d="M6.786,0H183.214C186.962,0,190,2.239,190,5V35c0,2.761-3.038,5-6.786,5H6.786C3.038,40,0,37.761,0,35V5C0,2.239,3.038,0,6.786,0Z" transform="translate(1105 7252.958)" fill="#eb9595"/>
    <path id="Trazado_161542" data-name="Trazado 161542" d="M7.368-4.636H3.149v2.871H8.1V0H.952V-10.664H8.086v1.78H3.149v2.542H7.368ZM11.5-7.925l.066.916a2.767,2.767,0,0,1,2.278-1.062,2.3,2.3,0,0,1,1.875.74,3.451,3.451,0,0,1,.63,2.212V0H14.231V-5.08a1.379,1.379,0,0,0-.293-.98,1.31,1.31,0,0,0-.974-.3,1.456,1.456,0,0,0-1.34.763V0H9.507V-7.925ZM20.485,0H18.361V-11.25h2.124Zm6.635,0a2.351,2.351,0,0,1-.212-.71,2.561,2.561,0,0,1-2,.857,2.814,2.814,0,0,1-1.93-.674,2.167,2.167,0,0,1-.765-1.7,2.24,2.24,0,0,1,.934-1.934,4.608,4.608,0,0,1,2.7-.681h.974V-5.3a1.306,1.306,0,0,0-.282-.879,1.109,1.109,0,0,0-.89-.33,1.261,1.261,0,0,0-.839.256.871.871,0,0,0-.3.7H22.389a2.126,2.126,0,0,1,.425-1.274,2.808,2.808,0,0,1,1.2-.919,4.378,4.378,0,0,1,1.743-.333,3.459,3.459,0,0,1,2.325.736,2.575,2.575,0,0,1,.861,2.069v3.435a3.789,3.789,0,0,0,.315,1.707V0ZM25.37-1.472a1.823,1.823,0,0,0,.864-.209,1.371,1.371,0,0,0,.586-.56V-3.6h-.791q-1.589,0-1.692,1.1l-.007.125a.847.847,0,0,0,.278.652A1.081,1.081,0,0,0,25.37-1.472Zm8.8-.088a1.388,1.388,0,0,0,.952-.322,1.129,1.129,0,0,0,.381-.857h1.985a2.715,2.715,0,0,1-.439,1.476,2.9,2.9,0,0,1-1.183,1.04A3.7,3.7,0,0,1,34.2.146a3.44,3.44,0,0,1-2.681-1.08,4.275,4.275,0,0,1-.981-2.985v-.139a4.226,4.226,0,0,1,.974-2.922,3.4,3.4,0,0,1,2.673-1.091,3.333,3.333,0,0,1,2.384.846,3,3,0,0,1,.912,2.252H35.5a1.455,1.455,0,0,0-.381-1.005,1.27,1.27,0,0,0-.967-.387,1.275,1.275,0,0,0-1.117.539,3.125,3.125,0,0,0-.377,1.749v.22A3.164,3.164,0,0,0,33.031-2.1,1.291,1.291,0,0,0,34.166-1.56ZM42.64.146A3.89,3.89,0,0,1,39.8-.923a3.8,3.8,0,0,1-1.095-2.849v-.205a4.787,4.787,0,0,1,.461-2.135,3.386,3.386,0,0,1,1.307-1.45,3.669,3.669,0,0,1,1.93-.509,3.289,3.289,0,0,1,2.56,1.025A4.167,4.167,0,0,1,45.9-4.138v.864H40.853a1.966,1.966,0,0,0,.619,1.245,1.871,1.871,0,0,0,1.307.469,2.285,2.285,0,0,0,1.912-.886l1.04,1.165A3.178,3.178,0,0,1,44.442-.231,4.229,4.229,0,0,1,42.64.146ZM42.4-6.365a1.323,1.323,0,0,0-1.022.427,2.209,2.209,0,0,0-.5,1.221h2.944v-.169a1.576,1.576,0,0,0-.381-1.092A1.365,1.365,0,0,0,42.4-6.365Zm15.93,3.486,1.04-5.046h2.043L59.39,0H57.618l-1.5-4.988L54.615,0H52.85L50.828-7.925h2.043L53.9-2.886l1.45-5.039h1.531ZM66.406.146A3.89,3.89,0,0,1,63.568-.923a3.8,3.8,0,0,1-1.095-2.849v-.205a4.787,4.787,0,0,1,.461-2.135,3.386,3.386,0,0,1,1.307-1.45,3.669,3.669,0,0,1,1.93-.509,3.289,3.289,0,0,1,2.56,1.025,4.167,4.167,0,0,1,.934,2.908v.864H64.619a1.966,1.966,0,0,0,.619,1.245,1.871,1.871,0,0,0,1.307.469,2.285,2.285,0,0,0,1.912-.886L69.5-1.282A3.178,3.178,0,0,1,68.208-.231,4.229,4.229,0,0,1,66.406.146Zm-.242-6.511a1.323,1.323,0,0,0-1.022.427,2.209,2.209,0,0,0-.5,1.221h2.944v-.169A1.576,1.576,0,0,0,67.2-5.979,1.365,1.365,0,0,0,66.165-6.365ZM78.308-3.889a4.8,4.8,0,0,1-.813,2.97A2.693,2.693,0,0,1,75.224.146a2.474,2.474,0,0,1-2.058-.989l-.1.842h-1.9V-11.25h2.117v4.036a2.411,2.411,0,0,1,1.926-.857,2.715,2.715,0,0,1,2.274,1.066,4.806,4.806,0,0,1,.824,3Zm-2.117-.161a3.17,3.17,0,0,0-.381-1.76,1.287,1.287,0,0,0-1.135-.555,1.4,1.4,0,0,0-1.392.83V-2.4a1.415,1.415,0,0,0,1.406.837,1.307,1.307,0,0,0,1.348-1.014A5.245,5.245,0,0,0,76.191-4.051Z" transform="translate(1130 7277.958)" fill="#fff"/>
    <g id="Grupo_72056-2" data-name="Grupo 72056" transform="translate(85 1048.833)">
      <g id="Grupo_70164" data-name="Grupo 70164" transform="translate(1140 6188.638)">
        <g id="Grupo_70163" data-name="Grupo 70163" clip-path="url(#clip-path)">
          <path id="Trazado_156561" data-name="Trazado 156561" d="M8.406,2.417H27.323c7.051-4.76,25.808,7.163,25.808,16V62.856H8.406Z" fill="#fff"/>
          <path id="Trazado_156562" data-name="Trazado 156562" d="M39.375,0H11.986A5.358,5.358,0,0,0,6.668,5.384V59.591a5.358,5.358,0,0,0,5.318,5.384H50.234a5.358,5.358,0,0,0,5.318-5.384V16.373ZM52.56,59.591a2.348,2.348,0,0,1-2.33,2.359H11.987a2.348,2.348,0,0,1-2.33-2.359V5.384a2.348,2.348,0,0,1,2.33-2.36H38.134l.015.015V17.617h14.4l.009.009Z" fill="#ac5d5d"/>
          <path id="Trazado_156563" data-name="Trazado 156563" d="M3.48,21.466H35.958a3.44,3.44,0,0,1,3.48,3.4V52.056a3.44,3.44,0,0,1-3.48,3.4H3.48A3.44,3.44,0,0,1,0,52.056V24.865a3.44,3.44,0,0,1,3.48-3.4" fill="#ac5d5d"/>
          <path id="Trazado_156564" data-name="Trazado 156564" d="M14.152,48.456a6.539,6.539,0,0,1-4.679-11.1l2.338-2.338a1.279,1.279,0,1,1,1.809,1.809l-2.314,2.314A3.98,3.98,0,1,0,17,44.7l2.243-2.243a1.279,1.279,0,0,1,1.809,1.809l-2.232,2.232a6.485,6.485,0,0,1-4.588,1.961h-.083m10.463-8.283a1.28,1.28,0,0,1-.9-2.185l2.32-2.321a3.979,3.979,0,0,0-.077-5.622,4.056,4.056,0,0,0-2.828-1.129,3.956,3.956,0,0,0-2.8,1.2l-2.244,2.244a1.279,1.279,0,0,1-1.809-1.809l2.232-2.232a6.539,6.539,0,0,1,9.353,9.141L25.52,39.8a1.275,1.275,0,0,1-.9.375" transform="translate(1.054 1.054)" fill="#fff"/>
          <path id="Trazado_156565" data-name="Trazado 156565" d="M16.339,42.309a1.28,1.28,0,0,1-.9-2.185l5.949-5.949a1.279,1.279,0,0,1,1.809,1.809l-5.949,5.949a1.275,1.275,0,0,1-.9.375" transform="translate(0.406 0.406)" fill="#fff"/>
        </g>
      </g>
      <rect id="Rect치ngulo_8068" data-name="Rect치ngulo 8068" width="85" height="66" transform="translate(1125 6188)" fill="none"/>
    </g>
  </g>
</svg>
