<svg xmlns="http://www.w3.org/2000/svg" xmlns:xlink="http://www.w3.org/1999/xlink" width="274" height="82.351" viewBox="0 0 274 82.351">
  <defs>
    <clipPath id="clip-path">
      <rect id="Rectángulo_9104" data-name="Rectángulo 9104" width="63.953" height="63.954" fill="none"/>
    </clipPath>
  </defs>
  <g id="Grupo_72218" data-name="Grupo 72218" transform="translate(-600 -7271.546)">
    <rect id="Rectángulo_9105" data-name="Rectángulo 9105" width="274" height="51" rx="8" transform="translate(600 7302.896)" fill="#26cb99"/>
    <path id="Trazado_161545" data-name="Trazado 161545" d="M3.289,14h-2.2V3.336h2.2ZM7.434,6.075l.066.916A2.767,2.767,0,0,1,9.778,5.929a2.3,2.3,0,0,1,1.875.74,3.451,3.451,0,0,1,.63,2.212V14H10.166V8.92a1.379,1.379,0,0,0-.293-.98,1.31,1.31,0,0,0-.974-.3,1.456,1.456,0,0,0-1.34.763V14H5.442V6.075ZM18.478,11.81a.682.682,0,0,0-.385-.612,4.368,4.368,0,0,0-1.234-.4q-2.827-.593-2.827-2.4a2.178,2.178,0,0,1,.875-1.761A3.531,3.531,0,0,1,17.2,5.929a3.8,3.8,0,0,1,2.413.71,2.239,2.239,0,0,1,.9,1.846H18.4a1.024,1.024,0,0,0-.293-.751,1.24,1.24,0,0,0-.916-.3,1.267,1.267,0,0,0-.828.242.763.763,0,0,0-.293.615.652.652,0,0,0,.333.568,3.428,3.428,0,0,0,1.124.374,9.183,9.183,0,0,1,1.333.355,2.19,2.19,0,0,1,1.677,2.131,2.067,2.067,0,0,1-.93,1.754,4.013,4.013,0,0,1-2.4.67,4.191,4.191,0,0,1-1.769-.355,2.968,2.968,0,0,1-1.212-.974,2.263,2.263,0,0,1-.439-1.337H15.79a1.105,1.105,0,0,0,.417.864,1.656,1.656,0,0,0,1.04.3,1.533,1.533,0,0,0,.919-.231A.718.718,0,0,0,18.478,11.81Zm6.255-7.683V6.075h1.355V7.628H24.733v3.955a.944.944,0,0,0,.168.63.846.846,0,0,0,.645.19,3.376,3.376,0,0,0,.623-.051v1.6a4.358,4.358,0,0,1-1.282.19A2.021,2.021,0,0,1,22.616,11.9V7.628H21.459V6.075h1.157V4.127ZM32.159,14a2.351,2.351,0,0,1-.212-.71,2.561,2.561,0,0,1-2,.857,2.814,2.814,0,0,1-1.93-.674,2.167,2.167,0,0,1-.765-1.7,2.24,2.24,0,0,1,.934-1.934,4.608,4.608,0,0,1,2.7-.681h.974V8.7a1.306,1.306,0,0,0-.282-.879,1.109,1.109,0,0,0-.89-.33,1.261,1.261,0,0,0-.839.256.871.871,0,0,0-.3.7H27.428a2.126,2.126,0,0,1,.425-1.274,2.808,2.808,0,0,1,1.2-.919A4.378,4.378,0,0,1,30.8,5.929a3.459,3.459,0,0,1,2.325.736,2.575,2.575,0,0,1,.861,2.069v3.435a3.789,3.789,0,0,0,.315,1.707V14Zm-1.75-1.472a1.823,1.823,0,0,0,.864-.209,1.371,1.371,0,0,0,.586-.56V10.4h-.791q-1.589,0-1.692,1.1l-.007.125a.847.847,0,0,0,.278.652A1.081,1.081,0,0,0,30.409,12.528ZM38.143,14H36.019V2.75h2.124Zm6.635,0a2.351,2.351,0,0,1-.212-.71,2.561,2.561,0,0,1-2,.857,2.814,2.814,0,0,1-1.93-.674,2.167,2.167,0,0,1-.765-1.7,2.24,2.24,0,0,1,.934-1.934,4.608,4.608,0,0,1,2.7-.681h.974V8.7a1.306,1.306,0,0,0-.282-.879,1.109,1.109,0,0,0-.89-.33,1.261,1.261,0,0,0-.839.256.871.871,0,0,0-.3.7H40.047a2.126,2.126,0,0,1,.425-1.274,2.808,2.808,0,0,1,1.2-.919,4.378,4.378,0,0,1,1.743-.333,3.459,3.459,0,0,1,2.325.736A2.575,2.575,0,0,1,46.6,8.734v3.435a3.789,3.789,0,0,0,.315,1.707V14Zm-1.75-1.472a1.823,1.823,0,0,0,.864-.209,1.371,1.371,0,0,0,.586-.56V10.4h-.791Q42.1,10.4,42,11.5l-.007.125a.847.847,0,0,0,.278.652A1.081,1.081,0,0,0,43.028,12.528Zm8.8-.088a1.388,1.388,0,0,0,.952-.322,1.129,1.129,0,0,0,.381-.857h1.985a2.715,2.715,0,0,1-.439,1.476,2.9,2.9,0,0,1-1.183,1.04,3.7,3.7,0,0,1-1.659.37,3.44,3.44,0,0,1-2.681-1.08,4.275,4.275,0,0,1-.981-2.985V9.942a4.226,4.226,0,0,1,.974-2.922,3.4,3.4,0,0,1,2.673-1.091,3.333,3.333,0,0,1,2.384.846,3,3,0,0,1,.912,2.252H53.157a1.455,1.455,0,0,0-.381-1.005,1.416,1.416,0,0,0-2.084.153,3.125,3.125,0,0,0-.377,1.749v.22a3.164,3.164,0,0,0,.374,1.761A1.291,1.291,0,0,0,51.824,12.44ZM58.884,14H56.76V6.075h2.124ZM56.636,4.024a1.042,1.042,0,0,1,.319-.784,1.373,1.373,0,0,1,1.732,0,1.036,1.036,0,0,1,.322.784,1.039,1.039,0,0,1-.326.791,1.358,1.358,0,0,1-1.721,0A1.039,1.039,0,0,1,56.636,4.024ZM60.6,9.964a4.7,4.7,0,0,1,.454-2.1,3.324,3.324,0,0,1,1.307-1.428,3.814,3.814,0,0,1,1.981-.505,3.609,3.609,0,0,1,2.618.981,3.939,3.939,0,0,1,1.132,2.666l.015.542a4.142,4.142,0,0,1-1.018,2.926,3.946,3.946,0,0,1-5.468,0A4.215,4.215,0,0,1,60.6,10.06Zm2.117.15a2.962,2.962,0,0,0,.425,1.727,1.526,1.526,0,0,0,2.417.007,3.241,3.241,0,0,0,.432-1.889,2.933,2.933,0,0,0-.432-1.716,1.4,1.4,0,0,0-1.216-.609,1.382,1.382,0,0,0-1.2.605A3.3,3.3,0,0,0,62.715,10.115ZM64.758,2.75h2.307L65.036,5.021H63.315Zm6.9,3.325.066.916A2.767,2.767,0,0,1,74,5.929a2.3,2.3,0,0,1,1.875.74,3.451,3.451,0,0,1,.63,2.212V14H74.389V8.92a1.379,1.379,0,0,0-.293-.98,1.31,1.31,0,0,0-.974-.3,1.456,1.456,0,0,0-1.34.763V14H69.665V6.075ZM85.4,11l1.465-4.929H89.14L85.954,15.23l-.176.417A2.416,2.416,0,0,1,83.434,17.2a3.33,3.33,0,0,1-.937-.139v-1.6l.322.007a1.741,1.741,0,0,0,.9-.183,1.2,1.2,0,0,0,.465-.608l.249-.652L81.654,6.075h2.278Zm11.242-.762V14h-2.2V3.336h4.16a4.813,4.813,0,0,1,2.113.439,3.238,3.238,0,0,1,1.4,1.249,3.482,3.482,0,0,1,.491,1.842,3.062,3.062,0,0,1-1.073,2.472,4.469,4.469,0,0,1-2.97.9Zm0-1.78h1.963a1.93,1.93,0,0,0,1.329-.41,1.492,1.492,0,0,0,.458-1.172,1.759,1.759,0,0,0-.461-1.267,1.724,1.724,0,0,0-1.274-.5H96.646Zm12.092-.4A5.751,5.751,0,0,0,107.977,8a1.55,1.55,0,0,0-1.575.813V14h-2.117V6.075h2l.059.945a1.961,1.961,0,0,1,1.765-1.091,2.218,2.218,0,0,1,.659.1Zm4.826,6.086a3.89,3.89,0,0,1-2.838-1.069,3.8,3.8,0,0,1-1.095-2.849v-.205a4.787,4.787,0,0,1,.461-2.135,3.386,3.386,0,0,1,1.307-1.45,3.669,3.669,0,0,1,1.93-.509,3.289,3.289,0,0,1,2.56,1.025,4.167,4.167,0,0,1,.934,2.908v.864h-5.046a1.966,1.966,0,0,0,.619,1.245,1.871,1.871,0,0,0,1.307.469,2.285,2.285,0,0,0,1.912-.886l1.04,1.165a3.178,3.178,0,0,1-1.289,1.051A4.229,4.229,0,0,1,113.565,14.146Zm-.242-6.511a1.323,1.323,0,0,0-1.022.427,2.209,2.209,0,0,0-.5,1.221h2.944V9.114a1.576,1.576,0,0,0-.381-1.092A1.365,1.365,0,0,0,113.323,7.635Zm12.136,2.476a4.753,4.753,0,0,1-.831,2.933,2.665,2.665,0,0,1-2.245,1.1,2.469,2.469,0,0,1-1.941-.835v3.735h-2.117V6.075h1.963l.073.776a2.488,2.488,0,0,1,2.007-.923,2.683,2.683,0,0,1,2.278,1.084A4.882,4.882,0,0,1,125.459,10Zm-2.117-.161a3.136,3.136,0,0,0-.392-1.712,1.275,1.275,0,0,0-1.139-.6,1.385,1.385,0,0,0-1.37.764v3.255a1.409,1.409,0,0,0,1.384.786Q123.342,12.44,123.342,9.949ZM131.662,14a2.351,2.351,0,0,1-.212-.71,2.561,2.561,0,0,1-2,.857,2.814,2.814,0,0,1-1.93-.674,2.167,2.167,0,0,1-.765-1.7,2.24,2.24,0,0,1,.934-1.934,4.608,4.608,0,0,1,2.7-.681h.974V8.7a1.306,1.306,0,0,0-.282-.879,1.109,1.109,0,0,0-.89-.33,1.261,1.261,0,0,0-.839.256.871.871,0,0,0-.3.7h-2.117a2.126,2.126,0,0,1,.425-1.274,2.808,2.808,0,0,1,1.2-.919,4.378,4.378,0,0,1,1.743-.333,3.459,3.459,0,0,1,2.325.736,2.575,2.575,0,0,1,.861,2.069v3.435a3.789,3.789,0,0,0,.315,1.707V14Zm-1.75-1.472a1.823,1.823,0,0,0,.864-.209,1.371,1.371,0,0,0,.586-.56V10.4h-.791q-1.589,0-1.692,1.1l-.007.125a.847.847,0,0,0,.278.652A1.081,1.081,0,0,0,129.912,12.528Zm9.953-4.468A5.751,5.751,0,0,0,139.1,8a1.55,1.55,0,0,0-1.575.813V14h-2.117V6.075h2l.059.945a1.961,1.961,0,0,1,1.765-1.091,2.218,2.218,0,0,1,.659.1ZM145.556,14a2.351,2.351,0,0,1-.212-.71,2.561,2.561,0,0,1-2,.857,2.814,2.814,0,0,1-1.93-.674,2.167,2.167,0,0,1-.765-1.7,2.24,2.24,0,0,1,.934-1.934,4.608,4.608,0,0,1,2.7-.681h.974V8.7a1.306,1.306,0,0,0-.282-.879,1.109,1.109,0,0,0-.89-.33,1.261,1.261,0,0,0-.839.256.871.871,0,0,0-.3.7h-2.117a2.126,2.126,0,0,1,.425-1.274,2.808,2.808,0,0,1,1.2-.919,4.378,4.378,0,0,1,1.743-.333,3.459,3.459,0,0,1,2.325.736,2.575,2.575,0,0,1,.861,2.069v3.435a3.789,3.789,0,0,0,.315,1.707V14Zm-1.75-1.472a1.823,1.823,0,0,0,.864-.209,1.371,1.371,0,0,0,.586-.56V10.4h-.791q-1.589,0-1.692,1.1l-.007.125a.847.847,0,0,0,.278.652A1.081,1.081,0,0,0,143.805,12.528Zm8.8-.088a1.388,1.388,0,0,0,.952-.322,1.129,1.129,0,0,0,.381-.857h1.985a2.715,2.715,0,0,1-.439,1.476,2.9,2.9,0,0,1-1.183,1.04,3.7,3.7,0,0,1-1.659.37,3.44,3.44,0,0,1-2.681-1.08,4.275,4.275,0,0,1-.981-2.985V9.942a4.226,4.226,0,0,1,.974-2.922,3.4,3.4,0,0,1,2.673-1.091,3.333,3.333,0,0,1,2.384.846,3,3,0,0,1,.912,2.252h-1.985a1.455,1.455,0,0,0-.381-1.005,1.416,1.416,0,0,0-2.084.153,3.125,3.125,0,0,0-.377,1.749v.22a3.164,3.164,0,0,0,.374,1.761A1.291,1.291,0,0,0,152.6,12.44Zm7.06,1.56h-2.124V6.075h2.124Zm-2.249-9.976a1.042,1.042,0,0,1,.319-.784,1.373,1.373,0,0,1,1.732,0,1.036,1.036,0,0,1,.322.784,1.039,1.039,0,0,1-.326.791,1.358,1.358,0,0,1-1.721,0A1.039,1.039,0,0,1,157.413,4.024Zm3.962,5.94a4.7,4.7,0,0,1,.454-2.1,3.324,3.324,0,0,1,1.307-1.428,3.814,3.814,0,0,1,1.981-.505,3.609,3.609,0,0,1,2.618.981,3.939,3.939,0,0,1,1.132,2.666l.015.542a4.142,4.142,0,0,1-1.018,2.926,3.946,3.946,0,0,1-5.468,0,4.215,4.215,0,0,1-1.022-2.988Zm2.117.15a2.962,2.962,0,0,0,.425,1.727,1.526,1.526,0,0,0,2.417.007,3.241,3.241,0,0,0,.432-1.889,2.933,2.933,0,0,0-.432-1.716,1.4,1.4,0,0,0-1.216-.609,1.382,1.382,0,0,0-1.2.605A3.3,3.3,0,0,0,163.492,10.115Zm2.043-7.365h2.307l-2.029,2.271h-1.721Zm6.9,3.325.066.916a2.767,2.767,0,0,1,2.278-1.062,2.3,2.3,0,0,1,1.875.74,3.451,3.451,0,0,1,.63,2.212V14h-2.117V8.92a1.379,1.379,0,0,0-.293-.98,1.31,1.31,0,0,0-.974-.3,1.456,1.456,0,0,0-1.34.763V14h-2.117V6.075ZM3.149,30.243V34H.952V23.336h4.16a4.813,4.813,0,0,1,2.113.439,3.238,3.238,0,0,1,1.4,1.249,3.482,3.482,0,0,1,.491,1.842,3.062,3.062,0,0,1-1.073,2.472,4.469,4.469,0,0,1-2.97.9Zm0-1.78H5.112a1.93,1.93,0,0,0,1.329-.41A1.492,1.492,0,0,0,6.9,26.881a1.759,1.759,0,0,0-.461-1.267,1.724,1.724,0,0,0-1.274-.5H3.149Zm7.214,1.5a4.7,4.7,0,0,1,.454-2.1,3.324,3.324,0,0,1,1.307-1.428,3.814,3.814,0,0,1,1.981-.505,3.609,3.609,0,0,1,2.618.981,3.939,3.939,0,0,1,1.132,2.666l.015.542a4.142,4.142,0,0,1-1.018,2.926,3.539,3.539,0,0,1-2.732,1.1,3.556,3.556,0,0,1-2.736-1.1,4.215,4.215,0,0,1-1.022-2.988Zm2.117.15a2.962,2.962,0,0,0,.425,1.727,1.526,1.526,0,0,0,2.417.007,3.241,3.241,0,0,0,.432-1.889,2.933,2.933,0,0,0-.432-1.716,1.4,1.4,0,0,0-1.216-.609,1.382,1.382,0,0,0-1.2.605A3.3,3.3,0,0,0,12.48,30.115Zm11.286,1.7a.682.682,0,0,0-.385-.612,4.368,4.368,0,0,0-1.234-.4q-2.827-.593-2.827-2.4a2.178,2.178,0,0,1,.875-1.761,3.531,3.531,0,0,1,2.289-.707,3.8,3.8,0,0,1,2.413.71,2.239,2.239,0,0,1,.9,1.846H23.686a1.024,1.024,0,0,0-.293-.751,1.24,1.24,0,0,0-.916-.3,1.267,1.267,0,0,0-.828.242.763.763,0,0,0-.293.615.652.652,0,0,0,.333.568,3.428,3.428,0,0,0,1.124.374,9.183,9.183,0,0,1,1.333.355,2.19,2.19,0,0,1,1.677,2.131,2.067,2.067,0,0,1-.93,1.754,4.013,4.013,0,0,1-2.4.67,4.191,4.191,0,0,1-1.769-.355,2.968,2.968,0,0,1-1.212-.974,2.263,2.263,0,0,1-.439-1.337h2.007a1.105,1.105,0,0,0,.417.864,1.656,1.656,0,0,0,1.04.3,1.533,1.533,0,0,0,.919-.231A.718.718,0,0,0,23.767,31.81Zm5.705-5.735.066.886a2.785,2.785,0,0,1,2.278-1.033,2.114,2.114,0,0,1,2.1,1.208,2.721,2.721,0,0,1,2.38-1.208,2.364,2.364,0,0,1,1.919.751,3.451,3.451,0,0,1,.63,2.26V34H36.723V28.935a1.515,1.515,0,0,0-.264-.987,1.167,1.167,0,0,0-.93-.312,1.321,1.321,0,0,0-1.318.91L34.218,34H32.1V28.942a1.5,1.5,0,0,0-.271-1,1.178,1.178,0,0,0-.923-.308,1.371,1.371,0,0,0-1.3.749V34H27.487V26.075ZM45.365,34a2.351,2.351,0,0,1-.212-.71,2.561,2.561,0,0,1-2,.857,2.814,2.814,0,0,1-1.93-.674,2.167,2.167,0,0,1-.765-1.7,2.24,2.24,0,0,1,.934-1.934,4.608,4.608,0,0,1,2.7-.681h.974V28.7a1.306,1.306,0,0,0-.282-.879,1.109,1.109,0,0,0-.89-.33,1.261,1.261,0,0,0-.839.256.871.871,0,0,0-.3.7H40.634a2.126,2.126,0,0,1,.425-1.274,2.808,2.808,0,0,1,1.2-.919A4.378,4.378,0,0,1,44,25.929a3.459,3.459,0,0,1,2.325.736,2.575,2.575,0,0,1,.861,2.069v3.435a3.789,3.789,0,0,0,.315,1.707V34Zm-1.75-1.472a1.823,1.823,0,0,0,.864-.209,1.371,1.371,0,0,0,.586-.56V30.4h-.791q-1.589,0-1.692,1.1l-.007.125a.847.847,0,0,0,.278.652A1.081,1.081,0,0,0,43.615,32.528Zm7.448-6.453.066.916a2.767,2.767,0,0,1,2.278-1.062,2.3,2.3,0,0,1,1.875.74,3.451,3.451,0,0,1,.63,2.212V34H53.795V28.92a1.379,1.379,0,0,0-.293-.98,1.31,1.31,0,0,0-.974-.3,1.456,1.456,0,0,0-1.34.763V34H49.071V26.075Zm6.862,6.885a1.066,1.066,0,0,1,.341-.82,1.323,1.323,0,0,1,1.714,0,1.066,1.066,0,0,1,.341.82,1.051,1.051,0,0,1-.337.809,1.345,1.345,0,0,1-1.721,0A1.051,1.051,0,0,1,57.925,32.96Zm6.533-6.885.066.886A2.785,2.785,0,0,1,66.8,25.929a2.114,2.114,0,0,1,2.1,1.208,2.721,2.721,0,0,1,2.38-1.208,2.364,2.364,0,0,1,1.919.751,3.451,3.451,0,0,1,.63,2.26V34H71.709V28.935a1.515,1.515,0,0,0-.264-.987,1.167,1.167,0,0,0-.93-.312,1.321,1.321,0,0,0-1.318.91L69.2,34H67.088V28.942a1.5,1.5,0,0,0-.271-1,1.178,1.178,0,0,0-.923-.308,1.371,1.371,0,0,0-1.3.749V34H62.474V26.075Zm14.179,4.746-.762.762V34H75.759V22.75h2.117v6.233l.41-.527,2.029-2.38h2.542l-2.864,3.3L83.106,34H80.674Zm8.4.593,1.472-5.339h2.212L88.049,34H86.028l-2.673-7.925h2.212Z" transform="translate(608.568 7307.459)" fill="#fff"/>
    <g id="Grupo_72058" data-name="Grupo 72058" transform="translate(-336 1201.546)">
      <rect id="Rectángulo_8069" data-name="Rectángulo 8069" width="85" height="65" transform="translate(1125 6070)" fill="none"/>
      <g id="Grupo_72060" data-name="Grupo 72060" transform="translate(1133.926 6071.045)">
        <g id="Grupo_72060-2" data-name="Grupo 72060" clip-path="url(#clip-path)">
          <path id="Trazado_160819" data-name="Trazado 160819" d="M63.943,83.721q0,15.951.009,31.9,0,6.927,0,13.853a3.229,3.229,0,0,1-3.27,3.29q-28.706,0-57.412,0A3.232,3.232,0,0,1,0,129.611Q0,106.8,0,83.987c0-.089,0-.178.008-.266.2.006.4.016.6.016H63.345c.2,0,.4-.01.6-.016M31.909,117.846H56.085c1.145,0,1.472-.323,1.472-1.453q0-13.453,0-26.907c0-1.176-.313-1.484-1.506-1.484H7.9c-1.194,0-1.5.306-1.5,1.485q0,13.42,0,26.84c0,1.221.3,1.52,1.539,1.52H31.909m6.134,6.4H55.956c.2,0,.4.011.6-.007a1.061,1.061,0,0,0-.032-2.12c-.2-.015-.4,0-.6,0q-17.979,0-35.959.015c-.639,0-.838-.141-.8-.793.058-.892-.374-1.374-1.075-1.359-.673.014-1.094.484-1.022,1.341.06.718-.216.817-.848.809-2.885-.033-5.771-.018-8.657-.012-.872,0-1.321.5-1.181,1.287.1.567.493.84,1.243.84q4.129.005,8.257,0c1.088,0,1.088,0,1.168,1.056a1.063,1.063,0,0,0,2.126.021,1.624,1.624,0,0,0,0-.4c-.095-.557.129-.693.682-.691,6.06.021,12.119.013,18.179.013" transform="translate(0 -68.814)" fill="#fff"/>
          <path id="Trazado_160820" data-name="Trazado 160820" d="M63.944,14.907c-.2.006-.4.016-.6.016H.607c-.2,0-.4-.01-.6-.016,0-3.884-.014-7.768,0-11.652A3.183,3.183,0,0,1,3.312,0q7.99-.01,15.98,0H60.307c2.4,0,3.646,1.252,3.645,3.654q0,5.626-.009,11.252M47.965,10.66q5.224,0,10.448,0c.876,0,1.267-.384,1.273-1.25q.015-1.93,0-3.86c-.005-.9-.388-1.282-1.308-1.282q-10.415,0-20.83,0c-.92,0-1.3.379-1.307,1.284-.007,1.242,0,2.484,0,3.727,0,1.036.356,1.382,1.409,1.382q5.157,0,10.315,0M10.658,7.477A3.254,3.254,0,0,0,7.509,4.265,3.249,3.249,0,0,0,4.264,7.447,3.255,3.255,0,0,0,7.413,10.66a3.25,3.25,0,0,0,3.245-3.183M24.5,10.66a3.254,3.254,0,0,0,3.21-3.152,3.2,3.2,0,0,0-6.395-.092A3.25,3.25,0,0,0,24.5,10.66M19.185,7.478a3.2,3.2,0,0,0-6.394-.039,3.2,3.2,0,1,0,6.394.039" transform="translate(0 0)" fill="#1c9873"/>
          <path id="Trazado_160821" data-name="Trazado 160821" d="M61.428,137.6H37.451c-1.237,0-1.538-.3-1.539-1.52q0-13.42,0-26.84c0-1.179.311-1.485,1.5-1.485H85.569c1.193,0,1.506.308,1.506,1.484q0,13.453,0,26.907c0,1.13-.327,1.453-1.472,1.453H61.428m-5.263-14.924c0,1.709.006,3.417,0,5.126a1.147,1.147,0,0,0,.552,1.127,1.131,1.131,0,0,0,1.247-.118c2.7-1.7,5.419-3.379,8.121-5.08,1.014-.638,1.007-1.478-.013-2.118-2.685-1.687-5.381-3.357-8.065-5.045a1.092,1.092,0,0,0-1.24-.118,1.213,1.213,0,0,0-.607,1.167c.022,1.686.008,3.373.008,5.06" transform="translate(-29.518 -88.57)" fill="#26cb99"/>
          <path id="Trazado_160822" data-name="Trazado 160822" d="M67.411,291.583c-6.06,0-12.119.008-18.179-.013-.553,0-.777.135-.682.691a1.625,1.625,0,0,1,0,.4,1.063,1.063,0,0,1-2.126-.021c-.081-1.056-.081-1.056-1.168-1.056q-4.128,0-8.257,0c-.75,0-1.141-.273-1.243-.84-.14-.782.308-1.286,1.181-1.287,2.886-.006,5.771-.021,8.657.012.632.007.908-.091.848-.809-.072-.857.349-1.327,1.022-1.341.7-.015,1.133.467,1.075,1.359-.042.651.157.794.8.793q17.979-.032,35.959-.016c.2,0,.4-.01.6,0a1.061,1.061,0,0,1,.032,2.12c-.2.018-.4.007-.6.007H67.411" transform="translate(-29.368 -236.156)" fill="#26cb99"/>
          <path id="Trazado_160823" data-name="Trazado 160823" d="M215.24,30.345q-5.158,0-10.315,0c-1.053,0-1.406-.346-1.409-1.382,0-1.242-.006-2.485,0-3.727,0-.905.387-1.284,1.308-1.284q10.415,0,20.83,0c.92,0,1.3.377,1.308,1.282q.011,1.93,0,3.86c-.007.865-.4,1.249-1.273,1.25q-5.224.007-10.448,0" transform="translate(-167.275 -19.685)" fill="#d1fff1"/>
          <path id="Trazado_160824" data-name="Trazado 160824" d="M30.339,27.165a3.2,3.2,0,1,1-3.149-3.212,3.25,3.25,0,0,1,3.149,3.212" transform="translate(-19.681 -19.688)" fill="#26cb99"/>
          <path id="Trazado_160825" data-name="Trazado 160825" d="M122.905,30.348a3.2,3.2,0,1,1,3.21-3.152,3.25,3.25,0,0,1-3.21,3.152" transform="translate(-98.403 -19.688)" fill="#26cb99"/>
          <path id="Trazado_160826" data-name="Trazado 160826" d="M78.228,27.166a3.2,3.2,0,1,1-3.145-3.213,3.258,3.258,0,0,1,3.145,3.213" transform="translate(-59.043 -19.688)" fill="#26cb99"/>
          <path id="Trazado_160827" data-name="Trazado 160827" d="M149.61,162.138c0-1.687.014-3.373-.008-5.06a1.213,1.213,0,0,1,.607-1.167,1.092,1.092,0,0,1,1.24.118c2.684,1.688,5.38,3.358,8.065,5.045,1.02.641,1.027,1.48.013,2.118-2.7,1.7-5.417,3.382-8.121,5.08a1.131,1.131,0,0,1-1.247.118,1.148,1.148,0,0,1-.552-1.127c.01-1.709,0-3.417,0-5.126" transform="translate(-122.964 -128.03)" fill="#fff"/>
        </g>
      </g>
    </g>
  </g>
</svg>
