<svg xmlns="http://www.w3.org/2000/svg" xmlns:xlink="http://www.w3.org/1999/xlink" width="100.514" height="100.438" viewBox="0 0 100.514 100.438">
  <defs>
    <clipPath id="clip-path">
      <rect id="Rectángulo_9433" data-name="Rectángulo 9433" width="100.514" height="100.438" fill="none"/>
    </clipPath>
  </defs>
  <g id="Grupo_72197" data-name="Grupo 72197" transform="translate(0 0)">
    <g id="Grupo_72196" data-name="Grupo 72196" transform="translate(0 0)" clip-path="url(#clip-path)">
      <path id="Trazado_161488" data-name="Trazado 161488" d="M.133,100.416c.076-1.062-.466-2.485.214-3.083.6-.525,1.989-.164,3.029-.165q16.419-.005,32.835.02c.9,0,1.213-.142,1.189-1.135-.076-3.168-.043-6.339-.022-9.508A6.954,6.954,0,0,0,36.453,83c-1.728-3.066-3.338-6.2-5.159-9.212a12.388,12.388,0,0,1-2-7.9c.093-.885-.185-1.14-1.1-1.134-6.305.045-12.61.009-18.916.041-.808,0-1.1-.117-1.1-1.039q.05-27.305,0-54.609c0-.869.206-1.088,1.073-1.072,3.169.057,6.339,0,9.507.039.649.007.81-.179.8-.81-.039-2.157,0-4.314-.028-6.471-.009-.6.1-.833.779-.83,5.651.031,11.3-.047,16.956.036a14.312,14.312,0,0,1,12.6,7.142c.118.191.238.379.412.656.533-.764.99-1.5,1.522-2.171A14.255,14.255,0,0,1,63.351.036C69-.025,74.655.032,80.307,0c.658,0,.8.192.794.816-.038,2.123.015,4.249-.031,6.372-.016.7.115.939.885.927,3.2-.052,6.4,0,9.6-.037.668-.007.886.147.885.855q-.029,27.5,0,55c0,.707-.216.855-.88.852-6.4-.024-12.807,0-19.21-.033-.805,0-1.1.2-1.018,1.019a15.062,15.062,0,0,1-1.72,8.208c-1.475,3.009-2.739,6.121-4.109,9.183a6.7,6.7,0,0,0-.634,2.742c-.007,3.5.01,6.993-.016,10.491,0,.6.16.778.766.777q17.2-.024,34.4-.015a2.861,2.861,0,0,0,.475-.079c0,.98-.02,1.961.01,2.941.011.341-.061.46-.4.4a2.781,2.781,0,0,0-.489-.006ZM77.819,29.14c0-8.3-.009-16.6.015-24.9,0-.733-.137-.995-.943-.987-4.379.044-8.756.011-13.134.029a13.73,13.73,0,0,0-2.535.193,11.318,11.318,0,0,0-9.3,11.348c-.033,3.464-.007,6.928-.007,10.393,0,2.336,0,2.3-2.307,2.339-.731.013-.923-.171-.915-.91.041-3.856.028-7.713.017-11.568-.02-6.9-4.87-11.767-11.779-11.8-4.377-.02-8.756.021-13.133-.024-.833-.009-1.008.227-1.005,1.028.029,9.836.018,19.673.018,29.51,0,6.8.011,13.6-.016,20.392,0,.716.145.97.908.932,1.4-.068,2.809-.008,4.214-.022,1.583-.015,1.361.227,1.365-1.319.011-4.346-.01-8.693.011-13.04a3.212,3.212,0,0,1,3.595-3.45A9.808,9.808,0,0,1,42.235,47.1c.038,2.353.046,4.707-.014,7.059-.02.805.242.975.986.948,1.5-.056,3.008-.065,4.507,0,.817.037,1.025-.207,1.02-1.02-.033-7.026-.018-14.052-.018-21.078,0-2.222,0-2.182,2.207-2.238.8-.021,1.021.169,1.017,1-.037,7.419-.007,14.837-.041,22.254,0,.839.16,1.093,1.056,1.087q11.908-.062,23.818,0c.87,0,1.071-.214,1.067-1.073-.036-8.3-.021-16.6-.021-24.9M32.5,54.51c0,4.248.009,8.5,0,12.745a7.207,7.207,0,0,0,.941,3.642q2.947,5.244,5.84,10.521a8.481,8.481,0,0,1,.838,1.864,1.074,1.074,0,0,0,1.266.943c6.077-.036,12.153-.015,18.231-.026.711,0,1.557.28,2.094-.14.4-.314.379-1.132.624-1.691,1.491-3.4,2.906-6.844,4.546-10.174a13.456,13.456,0,0,0,1.28-6.731c-.025-.584-.223-.7-.748-.7q-4.264.029-8.527,0c-.48,0-.663.167-.81.615a7.858,7.858,0,0,1-7.184,5.827c-.354.036-.705.06-.6.534.273,1.188-.4,1.278-1.291,1.174a3.867,3.867,0,0,0-.978,0c-.769.11-1-.194-1.023-.963a17.006,17.006,0,0,0-2.509-8.332,28.088,28.088,0,0,0-4.875-5.6,2.034,2.034,0,0,1-.659-1.623c.025-3.269.065-6.538-.025-9.8a6.373,6.373,0,0,0-5.565-6.015c-.672-.063-.886.072-.88.787.033,4.378.016,8.758.016,13.138M44.682,58.3c.028.184.018.259.049.3a4.461,4.461,0,0,0,.31.379,20.245,20.245,0,0,1,4.424,8.187c.218.812.633.927,1.349.826a4.94,4.94,0,0,0,4.373-5.157c.023-1.268.023-1.268,1.31-1.268,10.517,0,21.034-.011,31.551.021.887,0,1.126-.211,1.124-1.114q-.05-16.906-.022-33.814c0-4.77-.024-9.541.023-14.31.008-.85-.25-1.017-1.037-.995-1.99.057-3.986.075-5.975-.006-.933-.038-1.095.277-1.094,1.134q.04,22.247.018,44.5c0,1.317,0,1.317-1.364,1.317H44.682ZM19.549,34.891c0-7.515-.009-15.03.014-22.545,0-.716-.107-1.02-.933-.994-2.088.068-4.181.062-6.27,0-.774-.022-.893.244-.892.94q.029,24.162,0,48.324c0,.77.2.974.969.969,4.833-.037,9.668-.018,14.5-.018,2.392,0,2.364,0,2.369-2.408,0-.689-.2-.886-.882-.877-2.646.037-5.292-.017-7.937.034-.792.016-.959-.227-.956-.98.028-7.482.017-14.965.017-22.446M51.106,97.163h8.323c2.239,0,2.2,0,2.255-2.222.021-.813-.19-1.037-1.011-1.018-2.291.055-2.254.014-2.3-2.235-.018-.817.223-1.04,1.032-1.025,2.271.045,2.23.008,2.283-2.27.02-.815-.262-.942-.988-.939-5.94.026-11.881.015-17.821.015-2.315,0-2.287,0-2.294,2.355,0,.688.2.879.879.873,3.753-.031,7.508-.015,11.262-.015,2.516,0,2.489,0,2.489,2.477,0,.665-.213.8-.832.8-3.819-.026-7.638-.013-11.457-.013-2.351,0-2.319,0-2.341,2.306-.007.734.2.939.929.929,3.2-.04,6.4-.017,9.6-.017" transform="translate(0 0)" fill="#1c9873"/>
      <path id="Trazado_161489" data-name="Trazado 161489" d="M74.864,28.719c0,8.3-.014,16.6.021,24.9,0,.859-.2,1.078-1.067,1.073Q61.909,54.637,50,54.7c-.9.006-1.06-.248-1.056-1.087.033-7.417,0-14.836.04-22.254,0-.831-.214-1.02-1.017-1-2.2.056-2.207.016-2.207,2.238,0,7.026-.014,14.052.02,21.078,0,.813-.2,1.057-1.02,1.02-1.5-.067-3.007-.059-4.507,0-.743.028-1.006-.142-.986-.948.059-2.352.052-4.706.014-7.059a9.809,9.809,0,0,0-9.344-9.822,3.213,3.213,0,0,0-3.595,3.451c-.022,4.346,0,8.693-.01,13.039,0,1.546.217,1.3-1.366,1.319-1.405.014-2.813-.046-4.213.022-.763.038-.911-.216-.908-.932.026-6.8.016-13.594.016-20.392q0-14.755-.02-29.51c0-.8.172-1.037,1.005-1.028,4.377.045,8.756,0,13.134.024,6.907.032,11.759,4.9,11.777,11.8.011,3.857.024,7.713-.016,11.568-.008.739.184.923.913.91,2.307-.037,2.308,0,2.308-2.339,0-3.465-.028-6.929.006-10.393a11.319,11.319,0,0,1,9.3-11.348A13.71,13.71,0,0,1,60.8,2.858c4.378-.017,8.757.015,13.134-.029.807-.008.946.254.943.987-.024,8.3-.015,16.6-.015,24.9M32.741,14.156h7.447c2.316,0,2.282,0,2.323-2.322.013-.744-.194-.906-.916-.9-5.39.033-10.779.018-16.169.018-2.415,0-2.39,0-2.376,2.464,0,.618.183.759.772.754,2.972-.029,5.944-.013,8.918-.013m29.227,0h7.447c2.253,0,2.209,0,2.266-2.291.021-.828-.283-.933-.993-.929-5.356.026-10.714.015-16.07.015-2.424,0-2.394,0-2.4,2.435,0,.681.233.788.835.784,2.972-.028,5.944-.013,8.917-.013m-.1,3.27H54.518c-2.3,0-2.261,0-2.3,2.337-.015.777.241.889.935.886,5.39-.028,10.779-.015,16.17-.015,2.367,0,2.333,0,2.359-2.393.008-.728-.247-.836-.89-.83-2.972.032-5.946.015-8.918.015M32.758,27.112h7.45c2.3,0,2.259,0,2.306-2.345.015-.779-.246-.886-.934-.882-5.359.028-10.717.015-16.074.015-2.5,0-2.474,0-2.455,2.484,0,.64.223.744.789.74,2.973-.025,5.947-.011,8.919-.011m29.111,0h7.547c2.245,0,2.186,0,2.268-2.2.036-.926-.288-1.036-1.091-1.032-5.325.034-10.65.017-15.976.017-2.423,0-2.394,0-2.4,2.436,0,.673.221.8.831.789,2.94-.029,5.881-.013,8.821-.013M32.857,30.375H25.325c-2.265,0-2.232,0-2.275,2.261-.014.753.168.98.954.974,5.347-.038,10.694-.02,16.042-.02,2.489,0,2.455,0,2.466-2.468,0-.715-.284-.762-.851-.758-2.934.022-5.869.01-8.8.01m29.11,8.073h7.35c2.37,0,2.338,0,2.361-2.384.007-.724-.242-.839-.89-.835-5.39.024-10.779.014-16.169.014-2.423,0-2.393,0-2.4,2.437,0,.682.236.786.834.78,2.972-.026,5.944-.011,8.917-.011m0,9.747H54.522c-2.3,0-2.263,0-2.309,2.336-.015.78.248.887.936.884,5.356-.028,10.712-.016,16.069-.016,2.5,0,2.475,0,2.459-2.483,0-.647-.233-.735-.792-.732-2.972.024-5.944.011-8.917.011M26.377,20.634c1.569,0,1.569,0,1.569-1.49,0-1.718,0-1.718-1.726-1.718-1.54,0-1.54,0-1.54,1.529,0,1.679,0,1.679,1.7,1.679m6.443-3.208c-1.662,0-1.662,0-1.662,1.506,0,1.7,0,1.7,1.673,1.7,1.589,0,1.589,0,1.589-1.563,0-1.645,0-1.645-1.6-1.645m8.071,1.606c0-1.606,0-1.606-1.634-1.606h-.1c-1.525,0-1.525,0-1.525,1.545,0,1.662,0,1.662,1.613,1.662,1.643,0,1.643,0,1.643-1.6M55.452,41.72c-1.619,0-1.619,0-1.619,1.526,0,1.679,0,1.679,1.66,1.679,1.6,0,1.6,0,1.6-1.572,0-1.633,0-1.633-1.638-1.633m6.46,3.2c1.656,0,1.656,0,1.656-1.514,0-1.69,0-1.69-1.679-1.69-1.583,0-1.583,0-1.583,1.566,0,1.638,0,1.638,1.606,1.638m6.456,0c1.676,0,1.676,0,1.676-1.591,0-1.613,0-1.613-1.658-1.613-1.607,0-1.607,0-1.607,1.643,0,1.561,0,1.561,1.589,1.561" transform="translate(2.955 0.421)" fill="#fff"/>
      <path id="Trazado_161490" data-name="Trazado 161490" d="M28.289,49.251c0-4.38.016-8.758-.016-13.137-.006-.716.208-.851.88-.787a6.37,6.37,0,0,1,5.564,6.015c.092,3.265.052,6.535.026,9.8a2.034,2.034,0,0,0,.659,1.625,28.056,28.056,0,0,1,4.875,5.6A17.01,17.01,0,0,1,42.787,66.7c.018.767.253,1.073,1.021.962a3.823,3.823,0,0,1,.979,0c.893.1,1.565.014,1.291-1.175-.11-.475.242-.5.6-.533a7.862,7.862,0,0,0,7.184-5.828c.147-.448.33-.618.81-.615q4.262.033,8.526,0c.525,0,.724.113.749.7a13.454,13.454,0,0,1-1.28,6.731c-1.641,3.33-3.055,6.772-4.546,10.174-.245.56-.223,1.378-.625,1.691-.537.421-1.383.139-2.094.14-6.077.013-12.153-.008-18.23.026a1.073,1.073,0,0,1-1.266-.942,8.494,8.494,0,0,0-.839-1.865q-2.9-5.27-5.839-10.521A7.205,7.205,0,0,1,28.283,62c.015-4.248.006-8.5.006-12.745" transform="translate(4.21 5.259)" fill="#eeceb2"/>
      <path id="Trazado_161491" data-name="Trazado 161491" d="M38.891,56.827H73.93c1.365,0,1.365,0,1.365-1.318q0-22.249-.018-44.5c0-.856.161-1.171,1.094-1.133,1.989.08,3.984.063,5.975.006.786-.023,1.044.145,1.036.995-.046,4.769-.022,9.539-.022,14.31q0,16.906.021,33.814c0,.9-.237,1.117-1.124,1.114-10.517-.032-21.034-.021-31.551-.021-1.287,0-1.287,0-1.309,1.268a4.942,4.942,0,0,1-4.374,5.157c-.716.1-1.131-.014-1.349-.826a20.231,20.231,0,0,0-4.424-8.187,4.634,4.634,0,0,1-.309-.379c-.032-.045-.022-.119-.051-.3" transform="translate(5.791 1.471)" fill="#d1fff1"/>
      <path id="Trazado_161492" data-name="Trazado 161492" d="M18.063,33.42c0,7.483.011,14.965-.017,22.446,0,.753.165,1,.956.981,2.645-.053,5.292,0,7.937-.036.685-.009.885.187.884.877,0,2.408.022,2.408-2.37,2.408-4.833,0-9.668-.018-14.5.018-.772.006-.97-.2-.969-.969q.034-24.163,0-48.324c0-.7.117-.962.892-.939,2.089.06,4.182.065,6.271,0,.825-.026.934.278.932.994-.023,7.515-.014,15.03-.014,22.545" transform="translate(1.486 1.471)" fill="#d1fff1"/>
      <path id="Trazado_161493" data-name="Trazado 161493" d="M45.846,85.828c-3.2,0-6.4-.023-9.6.017-.733.009-.936-.2-.929-.929.023-2.306-.009-2.306,2.341-2.306,3.819,0,7.638-.014,11.457.013.619,0,.832-.132.832-.8,0-2.477.028-2.477-2.489-2.477-3.753,0-7.508-.016-11.262.015-.68.006-.881-.185-.879-.873.007-2.355-.021-2.355,2.294-2.355,5.94,0,11.881.011,17.821-.015.726,0,1.008.125.988.939-.053,2.278-.011,2.315-2.283,2.27-.809-.015-1.05.208-1.032,1.025.048,2.248.011,2.29,2.3,2.235.821-.02,1.032.2,1.011,1.018-.056,2.221-.016,2.222-2.255,2.222H45.846" transform="translate(5.26 11.335)" fill="#d1fff1"/>
      <path id="Trazado_161494" data-name="Trazado 161494" d="M32.325,13.106c-2.972,0-5.944-.015-8.917.013-.589.006-.769-.136-.773-.754C22.622,9.9,22.6,9.9,25.011,9.9c5.39,0,10.779.015,16.169-.018.723,0,.929.157.916.9-.041,2.32-.006,2.321-2.323,2.321H32.325" transform="translate(3.37 1.472)" fill="#1c9873"/>
      <path id="Trazado_161495" data-name="Trazado 161495" d="M57.772,13.105c-2.972,0-5.944-.015-8.917.013-.6.006-.838-.1-.835-.784C48.028,9.9,48,9.9,50.421,9.9c5.357,0,10.714.011,16.071-.014.71,0,1.013.1.993.928-.057,2.29-.013,2.291-2.266,2.291H57.772" transform="translate(7.151 1.472)" fill="#1c9873"/>
      <path id="Trazado_161496" data-name="Trazado 161496" d="M57.674,15.536c2.972,0,5.946.018,8.918-.014.643-.008.9.1.89.83-.025,2.392.008,2.392-2.359,2.392-5.39,0-10.78-.013-16.17.016-.693,0-.95-.11-.935-.887.045-2.336,0-2.337,2.306-2.337h7.35" transform="translate(7.15 2.312)" fill="#1c9873"/>
      <path id="Trazado_161497" data-name="Trazado 161497" d="M32.343,24.383c-2.973,0-5.947-.013-8.919.011-.566,0-.785-.1-.789-.739-.02-2.484-.046-2.484,2.454-2.484,5.359,0,10.717.013,16.074-.016.689,0,.949.1.934.882-.046,2.344-.006,2.345-2.3,2.345h-7.45" transform="translate(3.37 3.151)" fill="#1c9873"/>
      <path id="Trazado_161498" data-name="Trazado 161498" d="M57.673,24.384c-2.94,0-5.881-.016-8.821.013-.61.007-.833-.116-.831-.789.007-2.435-.022-2.435,2.4-2.435,5.325,0,10.65.016,15.976-.018.8,0,1.127.107,1.093,1.032-.083,2.2-.024,2.2-2.269,2.2H57.673" transform="translate(7.151 3.15)" fill="#1c9873"/>
      <path id="Trazado_161499" data-name="Trazado 161499" d="M32.441,26.806c2.934,0,5.869.011,8.8-.01.568,0,.855.044.851.758-.01,2.468.024,2.468-2.466,2.468-5.348,0-10.7-.017-16.042.02-.786.006-.967-.222-.954-.974.043-2.26.01-2.261,2.275-2.261Z" transform="translate(3.37 3.99)" fill="#1c9873"/>
      <path id="Trazado_161500" data-name="Trazado 161500" d="M57.771,34.249c-2.972,0-5.944-.015-8.917.013-.6,0-.838-.1-.834-.781.009-2.437-.022-2.437,2.4-2.437,5.39,0,10.779.01,16.169-.014.648,0,.9.111.889.835-.022,2.384.01,2.384-2.36,2.384h-7.35" transform="translate(7.151 4.621)" fill="#1c9873"/>
      <path id="Trazado_161501" data-name="Trazado 161501" d="M57.772,42.318c2.972,0,5.944.013,8.917-.011.558,0,.787.084.792.732.016,2.483.045,2.483-2.459,2.483-5.356,0-10.712-.011-16.069.016-.689,0-.951-.1-.936-.884.046-2.335.006-2.336,2.308-2.336h7.447" transform="translate(7.15 6.3)" fill="#1c9873"/>
      <path id="Trazado_161502" data-name="Trazado 161502" d="M25.75,18.742c-1.7,0-1.7,0-1.7-1.677,0-1.53,0-1.53,1.541-1.53,1.726,0,1.726,0,1.726,1.718,0,1.49,0,1.49-1.569,1.49" transform="translate(3.582 2.313)" fill="#1c9873"/>
      <path id="Trazado_161503" data-name="Trazado 161503" d="M31.353,15.534c1.6,0,1.6,0,1.6,1.645,0,1.563,0,1.563-1.589,1.563-1.672,0-1.672,0-1.672-1.7,0-1.506,0-1.506,1.661-1.506" transform="translate(4.421 2.313)" fill="#1c9873"/>
      <path id="Trazado_161504" data-name="Trazado 161504" d="M38.586,17.14c0,1.6,0,1.6-1.645,1.6-1.612,0-1.612,0-1.612-1.664,0-1.544,0-1.544,1.523-1.544h.1c1.635,0,1.635,0,1.635,1.606" transform="translate(5.261 2.313)" fill="#1c9873"/>
      <path id="Trazado_161505" data-name="Trazado 161505" d="M51.047,36.679c1.638,0,1.638,0,1.638,1.633,0,1.572,0,1.572-1.6,1.572-1.66,0-1.66,0-1.66-1.679,0-1.526,0-1.526,1.619-1.526" transform="translate(7.36 5.462)" fill="#1c9873"/>
      <path id="Trazado_161506" data-name="Trazado 161506" d="M56.668,39.883c-1.606,0-1.606,0-1.606-1.638,0-1.566,0-1.566,1.583-1.566,1.679,0,1.679,0,1.679,1.69,0,1.514,0,1.514-1.656,1.514" transform="translate(8.199 5.462)" fill="#1c9873"/>
      <path id="Trazado_161507" data-name="Trazado 161507" d="M62.285,39.883c-1.589,0-1.589,0-1.589-1.561,0-1.643,0-1.643,1.607-1.643,1.658,0,1.658,0,1.658,1.613,0,1.591,0,1.591-1.676,1.591" transform="translate(9.038 5.462)" fill="#1c9873"/>
    </g>
  </g>
</svg>
