<svg id="Grupo_72191" data-name="Grupo 72191" xmlns="http://www.w3.org/2000/svg" xmlns:xlink="http://www.w3.org/1999/xlink" width="100.336" height="100.337" viewBox="0 0 100.336 100.337">
  <defs>
    <clipPath id="clip-path">
      <rect id="Rectángulo_9431" data-name="Rectángulo 9431" width="100.336" height="100.337" transform="translate(0 0)" fill="none"/>
    </clipPath>
  </defs>
  <g id="Grupo_72191-2" data-name="Grupo 72191" clip-path="url(#clip-path)">
    <path id="Trazado_161459" data-name="Trazado 161459" d="M100.336,50.17A50.168,50.168,0,1,1,50.168,0a50.167,50.167,0,0,1,50.168,50.17" fill="#26cb99"/>
    <rect id="Rectángulo_9396" data-name="Rectángulo 9396" width="51.008" height="45.665" transform="translate(24.856 27.778)" fill="#fff"/>
    <rect id="Rectángulo_9397" data-name="Rectángulo 9397" width="50.042" height="6.594" transform="translate(25.339 27.617)" fill="#ed6b5a"/>
    <path id="Trazado_161460" data-name="Trazado 161460" d="M76.426,34.773H24.132V26.894H76.426ZM25.58,33.327h49.4V28.341H25.58Z" fill="#0c2c48"/>
    <rect id="Rectángulo_9398" data-name="Rectángulo 9398" width="11.293" height="32.641" transform="translate(27.027 36.698)" fill="#0c2c48"/>
    <rect id="Rectángulo_9399" data-name="Rectángulo 9399" width="8.398" height="29.748" transform="translate(28.474 38.144)" fill="#f1cc4b"/>
    <rect id="Rectángulo_9400" data-name="Rectángulo 9400" width="33.122" height="8.01" transform="translate(40.502 36.833)" fill="#0c2c48"/>
    <rect id="Rectángulo_9401" data-name="Rectángulo 9401" width="30.228" height="5.116" transform="translate(41.948 38.281)" fill="#a3b9c4"/>
    <path id="Trazado_161461" data-name="Trazado 161461" d="M27.591,30.835a.69.69,0,0,1,.694-.729.675.675,0,0,1,.683.729.688.688,0,0,1-.706.729.68.68,0,0,1-.671-.729" fill="#0c2c48"/>
    <path id="Trazado_161462" data-name="Trazado 161462" d="M29.987,30.835a.69.69,0,0,1,.695-.729.675.675,0,0,1,.682.729.688.688,0,0,1-.706.729.68.68,0,0,1-.671-.729" fill="#0c2c48"/>
    <path id="Trazado_161463" data-name="Trazado 161463" d="M32.383,30.835a.69.69,0,0,1,.695-.729.674.674,0,0,1,.682.729.69.69,0,1,1-1.377,0" fill="#0c2c48"/>
    <path id="Trazado_161464" data-name="Trazado 161464" d="M44.484,40.717a.692.692,0,0,1,.695-.729.675.675,0,0,1,.682.729.69.69,0,1,1-1.377,0" fill="#0c2c48"/>
    <path id="Trazado_161465" data-name="Trazado 161465" d="M46.88,40.717a.692.692,0,0,1,.695-.729.676.676,0,0,1,.682.729.687.687,0,0,1-.706.729.68.68,0,0,1-.671-.729" fill="#0c2c48"/>
    <path id="Trazado_161466" data-name="Trazado 161466" d="M49.276,40.717a.692.692,0,0,1,.695-.729.675.675,0,0,1,.682.729.69.69,0,1,1-1.377,0" fill="#0c2c48"/>
    <rect id="Rectángulo_9402" data-name="Rectángulo 9402" width="32.48" height="2.381" transform="translate(40.662 46.481)" fill="#a3b9c4"/>
    <rect id="Rectángulo_9403" data-name="Rectángulo 9403" width="32.48" height="2.382" transform="translate(40.662 51.143)" fill="#a3b9c4"/>
    <rect id="Rectángulo_9404" data-name="Rectángulo 9404" width="28.38" height="2.382" transform="translate(40.662 55.807)" fill="#a3b9c4"/>
    <rect id="Rectángulo_9405" data-name="Rectángulo 9405" width="23.966" height="2.381" transform="translate(40.661 60.47)" fill="#a3b9c4"/>
    <path id="Trazado_161467" data-name="Trazado 161467" d="M18.3,34.767l-3.512-11.2-3.514,11.2Z" fill="#ffd6ba"/>
    <path id="Trazado_161468" data-name="Trazado 161468" d="M16.163,28l-1.372-4.373L13.419,28Z" fill="#332319"/>
    <path id="Trazado_161469" data-name="Trazado 161469" d="M17.127,33.54c-.573,0-1.029.571-1.106,1.3H15.9c-.078-.73-.532-1.3-1.108-1.3s-1.028.568-1.107,1.3h-.123c-.077-.729-.533-1.3-1.107-1.3s-1.03.571-1.108,1.3H11.3V75.523a1.129,1.129,0,0,0,.943,1.247l5.1,0a1.126,1.126,0,0,0,.945-1.243V34.84h-.053c-.078-.729-.533-1.3-1.107-1.3" fill="#50646f"/>
    <path id="Trazado_161470" data-name="Trazado 161470" d="M17.342,76.768a1.126,1.126,0,0,0,.945-1.243V71.5H11.3v4.024a1.127,1.127,0,0,0,.943,1.246" fill="#fff"/>
    <rect id="Rectángulo_9406" data-name="Rectángulo 9406" width="7.435" height="9.513" transform="translate(11.073 62.963)" fill="#a6d1d9"/>
    <rect id="Rectángulo_9407" data-name="Rectángulo 9407" width="7.411" height="0.658" transform="translate(11.086 69.971)" fill="#628185"/>
    <rect id="Rectángulo_9408" data-name="Rectángulo 9408" width="7.41" height="0.657" transform="translate(11.086 67.391)" fill="#628185"/>
    <rect id="Rectángulo_9409" data-name="Rectángulo 9409" width="7.411" height="0.658" transform="translate(11.086 64.811)" fill="#628185"/>
    <rect id="Rectángulo_9410" data-name="Rectángulo 9410" width="8.587" height="46.837" transform="translate(80.677 26.75)" fill="#6eb9e0"/>
    <rect id="Rectángulo_9411" data-name="Rectángulo 9411" width="4.059" height="1.093" transform="translate(80.677 28.779)" fill="#50646f"/>
    <rect id="Rectángulo_9412" data-name="Rectángulo 9412" width="2.46" height="1.093" transform="translate(80.677 31.063)" fill="#50646f"/>
    <rect id="Rectángulo_9413" data-name="Rectángulo 9413" width="2.46" height="1.093" transform="translate(80.677 33.346)" fill="#50646f"/>
    <rect id="Rectángulo_9414" data-name="Rectángulo 9414" width="2.46" height="1.093" transform="translate(80.677 35.629)" fill="#50646f"/>
    <rect id="Rectángulo_9415" data-name="Rectángulo 9415" width="2.46" height="1.093" transform="translate(80.677 37.913)" fill="#50646f"/>
    <rect id="Rectángulo_9416" data-name="Rectángulo 9416" width="4.059" height="1.093" transform="translate(80.677 40.151)" fill="#50646f"/>
    <rect id="Rectángulo_9417" data-name="Rectángulo 9417" width="2.46" height="1.093" transform="translate(80.677 42.434)" fill="#50646f"/>
    <rect id="Rectángulo_9418" data-name="Rectángulo 9418" width="2.46" height="1.093" transform="translate(80.677 44.718)" fill="#50646f"/>
    <rect id="Rectángulo_9419" data-name="Rectángulo 9419" width="2.46" height="1.093" transform="translate(80.677 47.001)" fill="#50646f"/>
    <rect id="Rectángulo_9420" data-name="Rectángulo 9420" width="2.46" height="1.093" transform="translate(80.677 49.284)" fill="#50646f"/>
    <rect id="Rectángulo_9421" data-name="Rectángulo 9421" width="4.059" height="1.093" transform="translate(80.677 51.521)" fill="#50646f"/>
    <rect id="Rectángulo_9422" data-name="Rectángulo 9422" width="2.46" height="1.093" transform="translate(80.677 53.804)" fill="#50646f"/>
    <rect id="Rectángulo_9423" data-name="Rectángulo 9423" width="2.46" height="1.093" transform="translate(80.677 56.088)" fill="#50646f"/>
    <rect id="Rectángulo_9424" data-name="Rectángulo 9424" width="2.46" height="1.093" transform="translate(80.677 58.371)" fill="#50646f"/>
    <rect id="Rectángulo_9425" data-name="Rectángulo 9425" width="2.46" height="1.093" transform="translate(80.677 60.654)" fill="#50646f"/>
    <rect id="Rectángulo_9426" data-name="Rectángulo 9426" width="4.059" height="1.093" transform="translate(80.677 62.893)" fill="#50646f"/>
    <rect id="Rectángulo_9427" data-name="Rectángulo 9427" width="2.46" height="1.093" transform="translate(80.677 65.176)" fill="#50646f"/>
    <rect id="Rectángulo_9428" data-name="Rectángulo 9428" width="2.46" height="1.093" transform="translate(80.677 67.459)" fill="#50646f"/>
    <rect id="Rectángulo_9429" data-name="Rectángulo 9429" width="2.46" height="1.093" transform="translate(80.677 69.743)" fill="#50646f"/>
    <rect id="Rectángulo_9430" data-name="Rectángulo 9430" width="2.46" height="1.093" transform="translate(80.677 72.026)" fill="#50646f"/>
  </g>
</svg>
