<svg xmlns="http://www.w3.org/2000/svg" xmlns:xlink="http://www.w3.org/1999/xlink" width="10.67" height="10.669" viewBox="0 0 10.67 10.669">
  <defs>
    <clipPath id="clip-path">
      <rect id="Rectángulo_8419" data-name="Rectángulo 8419" width="10.67" height="10.669" transform="translate(0 0)" fill="none"/>
    </clipPath>
  </defs>
  <g id="Grupo_70794" data-name="Grupo 70794" transform="translate(0)">
    <g id="Grupo_70793" data-name="Grupo 70793" transform="translate(0)" clip-path="url(#clip-path)">
      <path id="Trazado_158133" data-name="Trazado 158133" d="M10.67,5.334q0,2.1,0,4.2a1.13,1.13,0,0,1-1.137,1.136h-8.4A1.13,1.13,0,0,1,0,9.54q0-4.2,0-8.409A1.13,1.13,0,0,1,1.132,0h8.41a1.13,1.13,0,0,1,1.128,1.124q0,2.105,0,4.21M5.337,2.658q-2.31,0-4.621,0c-.088,0-.126.011-.125.116q.005,3.35,0,6.7a.55.55,0,0,0,.6.6H9.475a.721.721,0,0,0,.217-.028.551.551,0,0,0,.383-.582q0-3.345,0-6.689c0-.1-.025-.121-.121-.121q-2.31,0-4.621,0m0-.6q2.315,0,4.629,0c.091,0,.119-.019.116-.114-.007-.255,0-.511,0-.766A.552.552,0,0,0,9.486.592h-8.3a.552.552,0,0,0-.591.59c0,.255.005.511,0,.766,0,.1.029.113.117.113q2.315,0,4.629,0" transform="translate(0 0)" fill="#2d6e5e"/>
      <path id="Trazado_158134" data-name="Trazado 158134" d="M7.732,4.466q-2.315,0-4.629,0c-.089,0-.12-.016-.117-.113.008-.255,0-.511,0-.766A.552.552,0,0,1,3.579,3h8.3a.552.552,0,0,1,.592.589c0,.255,0,.511,0,.766,0,.1-.025.114-.116.114q-2.315,0-4.63,0M6.46,4.029H8.886c.042,0,.084,0,.126,0a.284.284,0,0,0,.259-.27.293.293,0,0,0-.313-.316h-5l-.042,0a.293.293,0,0,0-.264.321c.012.166.137.267.339.267H6.46m4.679,0c.123,0,.245,0,.367,0a.287.287,0,0,0,.3-.293.29.29,0,0,0-.3-.3q-.368-.005-.735,0a.29.29,0,0,0-.3.29.287.287,0,0,0,.3.3c.122,0,.245,0,.367,0" transform="translate(-2.396 -2.407)" fill="#8bebce"/>
      <path id="Trazado_158135" data-name="Trazado 158135" d="M10.123,22.7q-2.011,0-4.022,0c-.1,0-.127-.028-.127-.128q.005-1.917,0-3.833c0-.112.035-.135.136-.13a1.721,1.721,0,0,0,.356-.007.282.282,0,0,0,.265-.317.293.293,0,0,0-.3-.274q-.184-.005-.368,0c-.063,0-.089-.017-.085-.083a2.012,2.012,0,0,0,0-.241c0-.068.026-.081.086-.08.294,0,.588,0,.882,0a.3.3,0,0,0,.137-.556.337.337,0,0,0-.173-.034c-.277,0-.553,0-.83,0-.076,0-.108-.017-.1-.1.006-.126,0-.252,0-.378,0-.053.016-.079.072-.074.021,0,.042,0,.063,0h8.023c.14,0,.14,0,.14.142v5.943c0,.143,0,.143-.139.143H10.123M9.5,22.15c.162,0,.254-.088.308-.287q.255-.934.512-1.867.354-1.287.708-2.573a.3.3,0,0,0-.195-.394.3.3,0,0,0-.375.239q-.331,1.2-.662,2.391-.292,1.059-.58,2.12a.287.287,0,0,0,.283.371m-.592-3.877a.293.293,0,0,0-.174-.254.273.273,0,0,0-.312.046c-.068.059-.13.127-.195.191q-.549.549-1.1,1.1a.3.3,0,0,0-.026.431q.649.656,1.3,1.306a.26.26,0,0,0,.229.079.284.284,0,0,0,.252-.192.294.294,0,0,0-.08-.325q-.481-.483-.964-.965c-.119-.12-.12-.087,0-.2q.47-.472.942-.942a.355.355,0,0,0,.125-.268m2.436,2.656a.277.277,0,0,0,.171.219.28.28,0,0,0,.344-.071q.636-.633,1.268-1.268a.289.289,0,0,0,.008-.437q-.638-.645-1.283-1.284A.284.284,0,0,0,11.609,18a.28.28,0,0,0-.247.2.3.3,0,0,0,.084.316c.331.331.661.664,1,.993.063.062.06.1,0,.155-.327.321-.649.647-.973.97a.363.363,0,0,0-.118.295" transform="translate(-4.795 -13.221)" fill="#26cb99"/>
      <path id="Trazado_158136" data-name="Trazado 158136" d="M9.181,5.817H6.714c-.2,0-.326-.1-.339-.267a.293.293,0,0,1,.264-.321l.042,0h5a.293.293,0,0,1,.313.316.284.284,0,0,1-.259.27c-.042,0-.084,0-.126,0H9.181" transform="translate(-5.117 -4.195)" fill="#13a87b"/>
      <path id="Trazado_158137" data-name="Trazado 158137" d="M41.62,5.809c-.123,0-.245,0-.367,0a.287.287,0,0,1-.3-.3.29.29,0,0,1,.3-.289q.367-.006.735,0a.291.291,0,0,1,.3.3.287.287,0,0,1-.3.293c-.122,0-.245,0-.367,0" transform="translate(-32.877 -4.188)" fill="#13a87b"/>
      <path id="Trazado_158138" data-name="Trazado 158138" d="M22.674,24.374A.287.287,0,0,1,22.391,24q.287-1.061.58-2.12.329-1.2.662-2.391a.3.3,0,0,1,.375-.239.3.3,0,0,1,.195.394q-.352,1.287-.708,2.573-.257.934-.512,1.868c-.054.2-.146.286-.308.286" transform="translate(-17.965 -15.446)" fill="#2d6e5e"/>
      <path id="Trazado_158139" data-name="Trazado 158139" d="M13.2,24.458a.357.357,0,0,1-.125.268q-.472.47-.942.942c-.116.117-.115.084,0,.2q.481.483.964.965a.3.3,0,0,1,.08.326.284.284,0,0,1-.252.192.26.26,0,0,1-.229-.079c-.436-.435-.872-.869-1.3-1.306a.3.3,0,0,1,.026-.431q.547-.55,1.1-1.1c.064-.064.126-.131.195-.191a.273.273,0,0,1,.312-.046.293.293,0,0,1,.174.254" transform="translate(-9.079 -19.406)" fill="#2d6e5e"/>
      <path id="Trazado_158140" data-name="Trazado 158140" d="M33.211,27.153a.363.363,0,0,1,.118-.295c.324-.324.646-.649.973-.97.062-.06.065-.093,0-.155-.335-.328-.664-.661-1-.993a.3.3,0,0,1-.084-.316.28.28,0,0,1,.247-.2.284.284,0,0,1,.248.086q.643.64,1.283,1.284a.289.289,0,0,1-.008.437q-.632.636-1.268,1.268a.28.28,0,0,1-.344.071.277.277,0,0,1-.171-.219" transform="translate(-26.658 -19.445)" fill="#2d6e5e"/>
    </g>
  </g>
</svg>
