<svg id="Grupo_70691" data-name="Grupo 70691" xmlns="http://www.w3.org/2000/svg" xmlns:xlink="http://www.w3.org/1999/xlink" width="57.147" height="67.389" viewBox="0 0 57.147 67.389">
  <defs>
    <clipPath id="clip-path">
      <rect id="Rectángulo_8347" data-name="Rectángulo 8347" width="57.147" height="67.389" fill="none"/>
    </clipPath>
    <clipPath id="clip-path-2">
      <rect id="Rectángulo_8346" data-name="Rectángulo 8346" width="57.147" height="67.389" transform="translate(0 0)" fill="none"/>
    </clipPath>
    <clipPath id="clip-path-3">
      <rect id="Rectángulo_8344" data-name="Rectángulo 8344" width="12.624" height="46.606" transform="translate(44.523 20.778)" fill="none"/>
    </clipPath>
    <clipPath id="clip-path-4">
      <rect id="Rectángulo_8345" data-name="Rectángulo 8345" width="45.611" height="26.404" transform="translate(10.51 0.006)" fill="none"/>
    </clipPath>
  </defs>
  <g id="Grupo_70685" data-name="Grupo 70685" clip-path="url(#clip-path)">
    <g id="Grupo_70684" data-name="Grupo 70684">
      <g id="Grupo_70683" data-name="Grupo 70683" clip-path="url(#clip-path-2)">
        <path id="Trazado_157924" data-name="Trazado 157924" d="M19.947,27.224V15.838L10.335,15a.691.691,0,0,0-.4.081c-.372.2-9.472,5.41-9.591,5.481a.706.706,0,0,0-.156,1.085l10.19,11.045Z" fill="#00f2cf"/>
        <path id="Trazado_157925" data-name="Trazado 157925" d="M10.379,32.692.189,21.646a.7.7,0,0,1,.578-1.178l9.612.838Z" fill="#5ae6bc"/>
        <path id="Trazado_157926" data-name="Trazado 157926" d="M19.943,15.833l-9.564,5.476L.765,20.467a.74.74,0,0,0-.331.049c.768-.453,9.151-5.249,9.5-5.436a.665.665,0,0,1,.405-.08Z" fill="#00f2cf"/>
        <path id="Trazado_157927" data-name="Trazado 157927" d="M19.943,15.833l-9.564,5.476L.765,20.467a.74.74,0,0,0-.331.049c.768-.453,9.151-5.249,9.5-5.436a.665.665,0,0,1,.405-.08Z" fill="#4ecea3"/>
        <path id="Trazado_157928" data-name="Trazado 157928" d="M10.4,8.459a7.657,7.657,0,0,1,3.465-6L16.683.829a7.656,7.656,0,0,1,6.929,0l30.07,17.362a7.66,7.66,0,0,1,3.465,6V58.93a7.661,7.661,0,0,1-3.465,6l-2.821,1.629a7.664,7.664,0,0,1-6.93,0l-8.877-5.126L23.515,54.769,13.861,49.2a7.654,7.654,0,0,1-3.464-6Z" fill="#5ae6bc"/>
        <g id="Grupo_70679" data-name="Grupo 70679" opacity="0.2">
          <g id="Grupo_70678" data-name="Grupo 70678">
            <g id="Grupo_70677" data-name="Grupo 70677" clip-path="url(#clip-path-3)">
              <path id="Trazado_157929" data-name="Trazado 157929" d="M57.147,58.93a7.657,7.657,0,0,1-3.465,6L50.861,66.56a7.741,7.741,0,0,1-6.338.279c1.631.617,2.873-.3,2.873-2.279V29.822a7.092,7.092,0,0,0-1.014-3.415l9.75-5.629a7.079,7.079,0,0,1,1.015,3.414Z"/>
            </g>
          </g>
        </g>
        <g id="Grupo_70682" data-name="Grupo 70682" opacity="0.5">
          <g id="Grupo_70681" data-name="Grupo 70681">
            <g id="Grupo_70680" data-name="Grupo 70680" clip-path="url(#clip-path-4)">
              <path id="Trazado_157930" data-name="Trazado 157930" d="M10.51,7.474c.4-1.471,1.746-1.94,3.346-1.018L43.933,23.824a6.871,6.871,0,0,1,2.441,2.586l9.747-5.625A6.988,6.988,0,0,0,53.68,18.2L23.619.83a7.706,7.706,0,0,0-6.935,0L13.856,2.463A7.64,7.64,0,0,0,10.51,7.474" fill="#fff"/>
            </g>
          </g>
        </g>
        <path id="Trazado_157931" data-name="Trazado 157931" d="M28.894,21.144l-11.45-1.6,1.6,21.121,9.85,12.795Z" fill="#5f7d7c"/>
        <path id="Trazado_157932" data-name="Trazado 157932" d="M28.894,21.144,40.344,32.77l-1.6,19.272-9.85,1.422Z" fill="#21675d"/>
        <path id="Trazado_157933" data-name="Trazado 157933" d="M33.611,48.638l2.622,1.514L28.918,24.367,21.6,41.705l2.622,1.514,1.58-3.759,6.226,3.6ZM26.757,37.2l2.161-5.147,2.163,7.644Z" fill="#fdfdfd"/>
      </g>
    </g>
  </g>
</svg>
