<svg xmlns="http://www.w3.org/2000/svg" xmlns:xlink="http://www.w3.org/1999/xlink" width="473.161" height="440.045" viewBox="0 0 473.161 440.045">
  <defs>
    <clipPath id="clip-path">
      <rect id="Rectángulo_8322" data-name="Rectángulo 8322" width="473.161" height="440.045" fill="none"/>
    </clipPath>
    <clipPath id="clip-path-3">
      <rect id="Rectángulo_8298" data-name="Rectángulo 8298" width="473.161" height="273.18" transform="translate(0 166.865)" fill="none"/>
    </clipPath>
    <clipPath id="clip-path-4">
      <rect id="Rectángulo_8299" data-name="Rectángulo 8299" width="96.427" height="98.311" transform="translate(129.822 213.968)" fill="none"/>
    </clipPath>
    <clipPath id="clip-path-5">
      <rect id="Rectángulo_8300" data-name="Rectángulo 8300" width="13.265" height="56.334" transform="translate(129.817 239.813)" fill="none"/>
    </clipPath>
    <clipPath id="clip-path-6">
      <rect id="Rectángulo_8301" data-name="Rectángulo 8301" width="92.618" height="87.587" transform="translate(133.631 220.296)" fill="none"/>
    </clipPath>
    <clipPath id="clip-path-7">
      <rect id="Rectángulo_8302" data-name="Rectángulo 8302" width="64.788" height="71.463" transform="translate(133.631 220.296)" fill="none"/>
    </clipPath>
    <clipPath id="clip-path-9">
      <rect id="Rectángulo_8304" data-name="Rectángulo 8304" width="47.779" height="32.283" transform="translate(178.464 279.965)" fill="none"/>
    </clipPath>
    <clipPath id="clip-path-10">
      <rect id="Rectángulo_8305" data-name="Rectángulo 8305" width="228.831" height="325.569" transform="translate(41.266)" fill="none"/>
    </clipPath>
    <clipPath id="clip-path-11">
      <rect id="Rectángulo_8306" data-name="Rectángulo 8306" width="221.451" height="320.416" transform="translate(48.648 4.702)" fill="none"/>
    </clipPath>
    <clipPath id="clip-path-12">
      <rect id="Rectángulo_8307" data-name="Rectángulo 8307" width="10.74" height="28.55" transform="translate(41.264 297.019)" fill="none"/>
    </clipPath>
    <clipPath id="clip-path-13">
      <rect id="Rectángulo_8308" data-name="Rectángulo 8308" width="221.45" height="151.686" transform="translate(48.648 173.432)" fill="none"/>
    </clipPath>
    <clipPath id="clip-path-14">
      <rect id="Rectángulo_8309" data-name="Rectángulo 8309" width="7.383" height="9.534" transform="translate(155.679 245.378)" fill="none"/>
    </clipPath>
    <clipPath id="clip-path-15">
      <rect id="Rectángulo_8310" data-name="Rectángulo 8310" width="8.541" height="174.071" transform="translate(41.264 127.219)" fill="none"/>
    </clipPath>
    <clipPath id="clip-path-16">
      <rect id="Rectángulo_8311" data-name="Rectángulo 8311" width="211.575" height="127.546" transform="translate(128.63 267.036)" fill="none"/>
    </clipPath>
    <clipPath id="clip-path-17">
      <rect id="Rectángulo_8312" data-name="Rectángulo 8312" width="211.574" height="122.154" transform="translate(128.63 267.036)" fill="none"/>
    </clipPath>
    <clipPath id="clip-path-18">
      <rect id="Rectángulo_8313" data-name="Rectángulo 8313" width="54.145" height="36.626" transform="translate(128.636 357.939)" fill="none"/>
    </clipPath>
    <clipPath id="clip-path-19">
      <rect id="Rectángulo_8315" data-name="Rectángulo 8315" width="206.266" height="272.029" transform="translate(78.793 19.966)" fill="none"/>
    </clipPath>
    <clipPath id="clip-path-21">
      <rect id="Rectángulo_8316" data-name="Rectángulo 8316" width="208.242" height="120.624" transform="translate(75.792 17.738)" fill="none"/>
    </clipPath>
    <clipPath id="clip-path-22">
      <rect id="Rectángulo_8317" data-name="Rectángulo 8317" width="4.867" height="15.404" transform="translate(74.852 136.093)" fill="none"/>
    </clipPath>
    <clipPath id="clip-path-23">
      <rect id="Rectángulo_8318" data-name="Rectángulo 8318" width="5.07" height="142.525" transform="translate(74.856 149.186)" fill="none"/>
    </clipPath>
    <clipPath id="clip-path-24">
      <rect id="Rectángulo_8319" data-name="Rectángulo 8319" width="14.171" height="15.618" transform="translate(372.157 347.669)" fill="none"/>
    </clipPath>
    <clipPath id="clip-path-25">
      <rect id="Rectángulo_8320" data-name="Rectángulo 8320" width="23.649" height="12.938" transform="translate(347.079 367.542)" fill="none"/>
    </clipPath>
  </defs>
  <g id="Grupo_70619" data-name="Grupo 70619" clip-path="url(#clip-path)">
    <g id="Grupo_70618" data-name="Grupo 70618">
      <g id="Grupo_70617" data-name="Grupo 70617" clip-path="url(#clip-path)">
        <g id="Grupo_70550" data-name="Grupo 70550" style="mix-blend-mode: multiply;isolation: isolate">
          <g id="Grupo_70549" data-name="Grupo 70549">
            <g id="Grupo_70548" data-name="Grupo 70548" clip-path="url(#clip-path-3)">
              <path id="Trazado_157660" data-name="Trazado 157660" d="M403.869,206.871c92.39,53.341,92.39,139.825,0,193.167s-242.185,53.342-334.576,0-92.389-139.826,0-193.167,242.186-53.342,334.576,0" fill="#f0f0f0"/>
            </g>
          </g>
        </g>
        <path id="Trazado_157661" data-name="Trazado 157661" d="M53.52,344.961,14.251,322.289c-1.386-.8-1.386-2.1,0-2.9L230.677,194.437a5.546,5.546,0,0,1,5.021,0l39.27,22.671c1.387.8,1.387,2.1,0,2.9L58.541,344.961a5.546,5.546,0,0,1-5.021,0" fill="#f3f3f3"/>
        <path id="Trazado_157662" data-name="Trazado 157662" d="M189.727,309.456l31.619-18.282c3.259-1.882,4.889-4.348,4.889-6.814s.014-4.4.014-4.4L188.2,258.4a6.959,6.959,0,0,1-3.147-5.452V213.968l-55.227,31.913,0,38.984a6.956,6.956,0,0,0,3.147,5.451l33.152,19.14c6.518,3.764,17.087,3.763,23.606,0" fill="#00f2cf"/>
        <g id="Grupo_70553" data-name="Grupo 70553" opacity="0.5">
          <g id="Grupo_70552" data-name="Grupo 70552">
            <g id="Grupo_70551" data-name="Grupo 70551" clip-path="url(#clip-path-4)">
              <path id="Trazado_157663" data-name="Trazado 157663" d="M189.727,309.456l31.619-18.282c3.259-1.882,4.889-4.348,4.889-6.814s.014-4.4.014-4.4L188.2,258.4a6.959,6.959,0,0,1-3.147-5.452V213.968l-55.227,31.913,0,38.984a6.956,6.956,0,0,0,3.147,5.451l33.152,19.14c6.518,3.764,17.087,3.763,23.606,0"/>
            </g>
          </g>
        </g>
        <path id="Trazado_157664" data-name="Trazado 157664" d="M143.082,291.768v4.379l-10.122-5.833a6.963,6.963,0,0,1-3.144-5.451v-38.98l10.522-6.069c.218,2.671.454,5.433.672,8.123l-7.378,4.27v30.457a6.913,6.913,0,0,0,3.145,5.451Z" fill="#00f2cf"/>
        <g id="Grupo_70556" data-name="Grupo 70556" opacity="0.7">
          <g id="Grupo_70555" data-name="Grupo 70555">
            <g id="Grupo_70554" data-name="Grupo 70554" clip-path="url(#clip-path-5)">
              <path id="Trazado_157665" data-name="Trazado 157665" d="M143.082,291.768v4.379l-10.122-5.833a6.963,6.963,0,0,1-3.144-5.451v-38.98l10.522-6.069c.218,2.671.454,5.433.672,8.123l-7.378,4.27v30.457a6.913,6.913,0,0,0,3.145,5.451Z"/>
            </g>
          </g>
        </g>
        <path id="Trazado_157666" data-name="Trazado 157666" d="M133.631,282.67a6.957,6.957,0,0,0,3.148,5.452l29.337,16.937c6.519,3.764,17.089,3.765,23.608,0l31.635-18.281c6.519-3.762,6.52-9.863,0-13.626l-29.353-16.948a6.956,6.956,0,0,1-3.147-5.451V220.295l-55.229,31.913Z" fill="#00f2cf"/>
        <g id="Grupo_70559" data-name="Grupo 70559" opacity="0.3">
          <g id="Grupo_70558" data-name="Grupo 70558">
            <g id="Grupo_70557" data-name="Grupo 70557" clip-path="url(#clip-path-6)">
              <path id="Trazado_157667" data-name="Trazado 157667" d="M133.631,282.67a6.957,6.957,0,0,0,3.148,5.452l29.337,16.937c6.519,3.764,17.089,3.765,23.608,0l31.635-18.281c6.519-3.762,6.52-9.863,0-13.626l-29.353-16.948a6.956,6.956,0,0,1-3.147-5.451V220.295l-55.229,31.913Z"/>
            </g>
          </g>
        </g>
        <g id="Grupo_70562" data-name="Grupo 70562" opacity="0.7">
          <g id="Grupo_70561" data-name="Grupo 70561">
            <g id="Grupo_70560" data-name="Grupo 70560" clip-path="url(#clip-path-7)">
              <path id="Trazado_157668" data-name="Trazado 157668" d="M198.419,259.914v-.005l-6.411-3.7a6.957,6.957,0,0,1-3.147-5.451V220.3l-55.228,31.913v30.462a6.956,6.956,0,0,0,3.147,5.451l6.3,3.638Z" fill="#00f2cf"/>
            </g>
          </g>
        </g>
        <g id="Grupo_70565" data-name="Grupo 70565" opacity="0.6">
          <g id="Grupo_70564" data-name="Grupo 70564">
            <g id="Grupo_70563" data-name="Grupo 70563" clip-path="url(#clip-path-7)">
              <path id="Trazado_157669" data-name="Trazado 157669" d="M198.419,259.914v-.005l-6.411-3.7a6.957,6.957,0,0,1-3.147-5.451V220.3l-55.228,31.913v30.462a6.956,6.956,0,0,0,3.147,5.451l6.3,3.638Z"/>
            </g>
          </g>
        </g>
        <path id="Trazado_157670" data-name="Trazado 157670" d="M226.243,279.965v4.4c0,2.471-1.635,4.924-4.888,6.814l-31.624,18.272a23.678,23.678,0,0,1-11.267,2.8v-4.38a23.666,23.666,0,0,0,11.267-2.8l31.624-18.29c3.253-1.872,4.888-4.344,4.888-6.815" fill="#00f2cf"/>
        <g id="Grupo_70568" data-name="Grupo 70568" opacity="0.2">
          <g id="Grupo_70567" data-name="Grupo 70567">
            <g id="Grupo_70566" data-name="Grupo 70566" clip-path="url(#clip-path-9)">
              <path id="Trazado_157671" data-name="Trazado 157671" d="M226.243,279.965v4.4c0,2.471-1.635,4.924-4.888,6.814l-31.624,18.272a23.678,23.678,0,0,1-11.267,2.8v-4.38a23.666,23.666,0,0,0,11.267-2.8l31.624-18.29c3.253-1.872,4.888-4.344,4.888-6.815"/>
            </g>
          </g>
        </g>
        <path id="Trazado_157672" data-name="Trazado 157672" d="M44.956,324.726a8.437,8.437,0,0,0,7.625-.141L266.164,201.276a8.693,8.693,0,0,0,3.933-6.814V7.516A8.436,8.436,0,0,0,266.406.842a8.441,8.441,0,0,0-7.625.141L45.2,124.293a8.7,8.7,0,0,0-3.934,6.814l0,186.945a8.438,8.438,0,0,0,3.691,6.674" fill="#00f2cf"/>
        <g id="Grupo_70571" data-name="Grupo 70571" opacity="0.3">
          <g id="Grupo_70570" data-name="Grupo 70570">
            <g id="Grupo_70569" data-name="Grupo 70569" clip-path="url(#clip-path-10)">
              <path id="Trazado_157673" data-name="Trazado 157673" d="M44.956,324.726a8.437,8.437,0,0,0,7.625-.141L266.164,201.276a8.693,8.693,0,0,0,3.933-6.814V7.516A8.436,8.436,0,0,0,266.406.842a8.441,8.441,0,0,0-7.625.141L45.2,124.293a8.7,8.7,0,0,0-3.934,6.814l0,186.945a8.438,8.438,0,0,0,3.691,6.674"/>
            </g>
          </g>
        </g>
        <path id="Trazado_157674" data-name="Trazado 157674" d="M52.583,324.58,266.164,201.271a8.692,8.692,0,0,0,3.935-6.814V7.511c0-2.509-1.761-3.526-3.935-2.272L52.586,128.549a8.7,8.7,0,0,0-3.935,6.814l0,186.946c0,2.508,1.761,3.525,3.934,2.271" fill="#00f2cf"/>
        <path id="Trazado_157675" data-name="Trazado 157675" d="M52.583,324.58,266.164,201.271a8.692,8.692,0,0,0,3.935-6.814V7.511c0-2.509-1.761-3.526-3.935-2.272L52.586,128.549a8.7,8.7,0,0,0-3.935,6.814l0,186.946c0,2.508,1.761,3.525,3.934,2.271" fill="#00f2cf"/>
        <g id="Grupo_70574" data-name="Grupo 70574" opacity="0.5">
          <g id="Grupo_70573" data-name="Grupo 70573">
            <g id="Grupo_70572" data-name="Grupo 70572" clip-path="url(#clip-path-11)">
              <path id="Trazado_157676" data-name="Trazado 157676" d="M52.583,324.58,266.164,201.271a8.692,8.692,0,0,0,3.935-6.814V7.511c0-2.509-1.761-3.526-3.935-2.272L52.586,128.549a8.7,8.7,0,0,0-3.935,6.814l0,186.946c0,2.508,1.761,3.525,3.934,2.271"/>
            </g>
          </g>
        </g>
        <path id="Trazado_157677" data-name="Trazado 157677" d="M52,324.877a8.5,8.5,0,0,1-7.052-.145,8.45,8.45,0,0,1-3.688-6.688V297.019l7.379,4.271v21.025c0,2.289,1.453,3.325,3.361,2.562" fill="#00f2cf"/>
        <g id="Grupo_70577" data-name="Grupo 70577" opacity="0.7">
          <g id="Grupo_70576" data-name="Grupo 70576">
            <g id="Grupo_70575" data-name="Grupo 70575" clip-path="url(#clip-path-12)">
              <path id="Trazado_157678" data-name="Trazado 157678" d="M52,324.877a8.5,8.5,0,0,1-7.052-.145,8.45,8.45,0,0,1-3.688-6.688V297.019l7.379,4.271v21.025c0,2.289,1.453,3.325,3.361,2.562"/>
            </g>
          </g>
        </g>
        <path id="Trazado_157679" data-name="Trazado 157679" d="M48.648,301.284v21.025c0,2.508,1.762,3.525,3.934,2.271L266.164,201.272a8.7,8.7,0,0,0,3.934-6.815V173.431Z" fill="#00f2cf"/>
        <g id="Grupo_70580" data-name="Grupo 70580" opacity="0.5">
          <g id="Grupo_70579" data-name="Grupo 70579">
            <g id="Grupo_70578" data-name="Grupo 70578" clip-path="url(#clip-path-13)">
              <path id="Trazado_157680" data-name="Trazado 157680" d="M48.648,301.284v21.025c0,2.508,1.762,3.525,3.934,2.271L266.164,201.272a8.7,8.7,0,0,0,3.934-6.815V173.431Z"/>
            </g>
          </g>
        </g>
        <path id="Trazado_157681" data-name="Trazado 157681" d="M56.028,285.774l0-147.961a5.217,5.217,0,0,1,2.36-4.088l201.961-116.6c1.3-.753,2.361-.142,2.361,1.363l.007,147.964a5.219,5.219,0,0,1-2.361,4.089L58.389,287.137c-1.3.753-2.361.143-2.361-1.363" fill="#fdfdfd"/>
        <path id="Trazado_157682" data-name="Trazado 157682" d="M159.37,245.883a8.16,8.16,0,0,0-3.692,6.394c0,2.354,1.653,3.308,3.692,2.131a8.16,8.16,0,0,0,3.692-6.394c0-2.354-1.653-3.308-3.692-2.131" fill="#00f2cf"/>
        <g id="Grupo_70583" data-name="Grupo 70583" opacity="0.5">
          <g id="Grupo_70582" data-name="Grupo 70582">
            <g id="Grupo_70581" data-name="Grupo 70581" clip-path="url(#clip-path-14)">
              <path id="Trazado_157683" data-name="Trazado 157683" d="M159.37,245.883a8.16,8.16,0,0,0-3.692,6.394c0,2.354,1.653,3.308,3.692,2.131a8.16,8.16,0,0,0,3.692-6.394c0-2.354-1.653-3.308-3.692-2.131" fill="#fff"/>
            </g>
          </g>
        </g>
        <path id="Trazado_157684" data-name="Trazado 157684" d="M49.805,131.471a8.36,8.36,0,0,0-1.163,3.889V301.29l-7.378-4.271V131.108a8.141,8.141,0,0,1,1.163-3.889Z" fill="#00f2cf"/>
        <g id="Grupo_70586" data-name="Grupo 70586" opacity="0.7">
          <g id="Grupo_70585" data-name="Grupo 70585">
            <g id="Grupo_70584" data-name="Grupo 70584" clip-path="url(#clip-path-15)">
              <path id="Trazado_157685" data-name="Trazado 157685" d="M49.805,131.471a8.36,8.36,0,0,0-1.163,3.889V301.29l-7.378-4.271V131.108a8.141,8.141,0,0,1,1.163-3.889Z"/>
            </g>
          </g>
        </g>
        <path id="Trazado_157686" data-name="Trazado 157686" d="M126.428,367.35l53.367,30.9a6.6,6.6,0,0,0,5.979.006l157.662-90.9c1.652-.953,1.654-2.5,0-3.455L290.073,273a6.605,6.605,0,0,0-5.98,0l-157.662,90.9c-1.652.953-1.654,2.5,0,3.455" fill="#f3f3f3"/>
        <path id="Trazado_157687" data-name="Trazado 157687" d="M340.2,298.419a2.1,2.1,0,0,0-1.239-1.727l-50.136-28.941a6.6,6.6,0,0,0-5.98,0L129.867,356.222a2.1,2.1,0,0,0-1.237,1.726c0,.624,0,4.634,0,5.257a2.1,2.1,0,0,0,1.242,1.727l50.11,28.939a6.626,6.626,0,0,0,5.984-.006l153-88.328a2.105,2.105,0,0,0,1.239-1.72c0-.627,0-4.773,0-5.4" fill="#00f2cf"/>
        <g id="Grupo_70589" data-name="Grupo 70589" opacity="0.5">
          <g id="Grupo_70588" data-name="Grupo 70588">
            <g id="Grupo_70587" data-name="Grupo 70587" clip-path="url(#clip-path-16)">
              <path id="Trazado_157688" data-name="Trazado 157688" d="M340.2,298.419a2.1,2.1,0,0,0-1.239-1.727l-50.136-28.941a6.6,6.6,0,0,0-5.98,0L129.867,356.222a2.1,2.1,0,0,0-1.237,1.726c0,.624,0,4.634,0,5.257a2.1,2.1,0,0,0,1.242,1.727l50.11,28.939a6.626,6.626,0,0,0,5.984-.006l153-88.328a2.105,2.105,0,0,0,1.239-1.72c0-.627,0-4.773,0-5.4"/>
            </g>
          </g>
        </g>
        <path id="Trazado_157689" data-name="Trazado 157689" d="M179.982,388.479l-50.111-28.807c-1.653-.951-1.655-2.495,0-3.45l152.982-88.469a6.6,6.6,0,0,1,5.98,0l50.136,28.941c1.652.953,1.652,2.5,0,3.453l-153,88.328a6.626,6.626,0,0,1-5.984.006" fill="#00f2cf"/>
        <g id="Grupo_70592" data-name="Grupo 70592" opacity="0.3">
          <g id="Grupo_70591" data-name="Grupo 70591">
            <g id="Grupo_70590" data-name="Grupo 70590" clip-path="url(#clip-path-17)">
              <path id="Trazado_157690" data-name="Trazado 157690" d="M179.982,388.479l-50.111-28.807c-1.653-.951-1.655-2.495,0-3.45l152.982-88.469a6.6,6.6,0,0,1,5.98,0l50.136,28.941c1.652.953,1.652,2.5,0,3.453l-153,88.328a6.626,6.626,0,0,1-5.984.006"/>
            </g>
          </g>
        </g>
        <path id="Trazado_157691" data-name="Trazado 157691" d="M182.781,389.19v5.375a6.183,6.183,0,0,1-2.809-.69l-50.093-28.938a2.114,2.114,0,0,1-1.243-1.726v-5.272a2.116,2.116,0,0,0,1.243,1.727l50.093,28.822a6.177,6.177,0,0,0,2.809.7" fill="#00f2cf"/>
        <g id="Grupo_70595" data-name="Grupo 70595" opacity="0.7">
          <g id="Grupo_70594" data-name="Grupo 70594">
            <g id="Grupo_70593" data-name="Grupo 70593" clip-path="url(#clip-path-18)">
              <path id="Trazado_157692" data-name="Trazado 157692" d="M182.781,389.19v5.375a6.183,6.183,0,0,1-2.809-.69l-50.093-28.938a2.114,2.114,0,0,1-1.243-1.726v-5.272a2.116,2.116,0,0,0,1.243,1.727l50.093,28.822a6.177,6.177,0,0,0,2.809.7"/>
            </g>
          </g>
        </g>
        <path id="Trazado_157693" data-name="Trazado 157693" d="M246.772,305.012l5.712,3.3a.765.765,0,0,0,.364.089l5.266-2.932-6.143-3.454Z" fill="#21675d"/>
        <path id="Trazado_157694" data-name="Trazado 157694" d="M253.647,301.045l5.735,3.311a.772.772,0,0,0,.339.073l.213-.013,5.053-2.918-6.144-3.455Z" fill="#21675d"/>
        <path id="Trazado_157695" data-name="Trazado 157695" d="M235.2,311.7l5.733,3.311a.772.772,0,0,0,.336.074l8.525-4.811-6.142-3.455Z" fill="#21675d"/>
        <path id="Trazado_157696" data-name="Trazado 157696" d="M228.329,315.664l5.727,3.308a.759.759,0,0,0,.342.076l5.271-2.931-6.144-3.454Z" fill="#21675d"/>
        <path id="Trazado_157697" data-name="Trazado 157697" d="M196.935,367.586l5.266-2.932-6.142-3.451-5.2,3,5.737,3.311a.774.774,0,0,0,.338.073" fill="#21675d"/>
        <path id="Trazado_157698" data-name="Trazado 157698" d="M221.456,319.632l5.7,3.292a.743.743,0,0,0,.37.092l5.268-2.93-6.144-3.455Z" fill="#21675d"/>
        <path id="Trazado_157699" data-name="Trazado 157699" d="M259.741,306.5l-5.2,3,5.722,3.3a.755.755,0,0,0,.352.08l5.268-2.934Z" fill="#21675d"/>
        <path id="Trazado_157700" data-name="Trazado 157700" d="M240.531,333.448l5.269-2.931-6.144-3.454-5.2,3,5.726,3.306a.749.749,0,0,0,.349.081" fill="#21675d"/>
        <path id="Trazado_157701" data-name="Trazado 157701" d="M267.489,308.914l5.268-2.932-6.147-3.454-5.192,3,5.732,3.312a.779.779,0,0,0,.339.073" fill="#21675d"/>
        <path id="Trazado_157702" data-name="Trazado 157702" d="M233.658,337.416l5.269-2.931-6.145-3.454-5.2,3,5.7,3.293a.735.735,0,0,0,.37.093" fill="#21675d"/>
        <path id="Trazado_157703" data-name="Trazado 157703" d="M226.788,341.384l5.266-2.931L225.91,335l-5.2,3,5.736,3.312a.787.787,0,0,0,.341.075" fill="#21675d"/>
        <path id="Trazado_157704" data-name="Trazado 157704" d="M254.276,325.512l11.051-6.273-13.9-7.939-5.925,3.418,7.268,4.193a.362.362,0,0,1,.206.3.323.323,0,0,1-.179.266l-4.587,2.647,5.7,3.289a.723.723,0,0,0,.374.1" fill="#21675d"/>
        <path id="Trazado_157705" data-name="Trazado 157705" d="M207.709,327.566l5.73,3.311a.77.77,0,0,0,.342.076l5.27-2.931-6.144-3.455Z" fill="#21675d"/>
        <path id="Trazado_157706" data-name="Trazado 157706" d="M247.4,329.48l5.271-2.931-6.144-3.455-5.2,3,5.695,3.288a.738.738,0,0,0,.376.1" fill="#21675d"/>
        <path id="Trazado_157707" data-name="Trazado 157707" d="M169.1,365.718l5.268-2.932-6.144-3.454-5.2,3,5.705,3.292a.75.75,0,0,0,.37.093" fill="#21675d"/>
        <path id="Trazado_157708" data-name="Trazado 157708" d="M152.728,359.31l5.749,3.318a.8.8,0,0,0,.325.066l.213-.013,5.053-2.918-6.144-3.452Z" fill="#21675d"/>
        <path id="Trazado_157709" data-name="Trazado 157709" d="M178.678,369.157l.213-.014,5.053-2.918-6.144-3.451-5.2,3,5.736,3.311a.768.768,0,0,0,.338.073" fill="#21675d"/>
        <path id="Trazado_157710" data-name="Trazado 157710" d="M183.19,375.522l5.268-2.932-6.146-3.454-5.2,3,5.7,3.292a.75.75,0,0,0,.37.093" fill="#21675d"/>
        <path id="Trazado_157711" data-name="Trazado 157711" d="M159.6,355.341l5.735,3.311a.782.782,0,0,0,.339.074l5.266-2.932-6.144-3.452Z" fill="#21675d"/>
        <path id="Trazado_157712" data-name="Trazado 157712" d="M190.064,371.556l5.263-2.934-6.141-3.451-5.2,3,5.73,3.308a.78.78,0,0,0,.347.079" fill="#21675d"/>
        <path id="Trazado_157713" data-name="Trazado 157713" d="M180.218,343.437l5.73,3.309a.769.769,0,0,0,.345.076l5.268-2.929-6.144-3.454Z" fill="#21675d"/>
        <path id="Trazado_157714" data-name="Trazado 157714" d="M187.09,339.469l5.717,3.3a.757.757,0,0,0,.36.086l5.266-2.931-6.144-3.454Z" fill="#21675d"/>
        <path id="Trazado_157715" data-name="Trazado 157715" d="M193.964,335.5l5.7,3.294a.743.743,0,0,0,.37.092l5.269-2.931L199.16,332.5Z" fill="#21675d"/>
        <path id="Trazado_157716" data-name="Trazado 157716" d="M173.345,347.406l5.705,3.293a.731.731,0,0,0,.367.094l5.271-2.931-6.144-3.455Z" fill="#21675d"/>
        <path id="Trazado_157717" data-name="Trazado 157717" d="M200.839,331.536l5.73,3.309a.774.774,0,0,0,.341.075l5.268-2.931-6.147-3.454Z" fill="#21675d"/>
        <path id="Trazado_157718" data-name="Trazado 157718" d="M166.473,351.374l5.73,3.308a.773.773,0,0,0,.346.079l5.267-2.931-6.147-3.454Z" fill="#21675d"/>
        <path id="Trazado_157719" data-name="Trazado 157719" d="M214.581,323.6l5.743,3.318a.783.783,0,0,0,.329.069l5.27-2.931L219.78,320.6Z" fill="#21675d"/>
        <path id="Trazado_157720" data-name="Trazado 157720" d="M231.752,322.653l5.712,3.3a.746.746,0,0,0,.365.088l.211-.014,5.051-2.917-6.14-3.451Z" fill="#21675d"/>
        <path id="Trazado_157721" data-name="Trazado 157721" d="M268.84,292.275l5.709,3.3a.754.754,0,0,0,.362.088l5.269-2.931-6.144-3.454Z" fill="#21675d"/>
        <path id="Trazado_157722" data-name="Trazado 157722" d="M275.712,288.307l5.714,3.295a.718.718,0,0,0,.357.089l5.27-2.931-6.145-3.455Z" fill="#21675d"/>
        <path id="Trazado_157723" data-name="Trazado 157723" d="M224.882,326.622l5.716,3.3a.752.752,0,0,0,.358.085l5.266-2.931-6.144-3.455Z" fill="#21675d"/>
        <path id="Trazado_157724" data-name="Trazado 157724" d="M282.586,284.339l5.708,3.3a.769.769,0,0,0,.362.088l5.27-2.93-6.145-3.455Z" fill="#21675d"/>
        <path id="Trazado_157725" data-name="Trazado 157725" d="M244.7,322.07l.213-.014,5.053-2.915-6.143-3.454-5.2,3,5.713,3.3a.745.745,0,0,0,.364.088" fill="#21675d"/>
        <path id="Trazado_157726" data-name="Trazado 157726" d="M276.6,296.757l5.7,3.288a.723.723,0,0,0,.376.1l5.266-2.932-6.143-3.453Z" fill="#21675d"/>
        <path id="Trazado_157727" data-name="Trazado 157727" d="M290.349,288.821l5.7,3.288a.735.735,0,0,0,.374.1l5.269-2.932-6.144-3.454Z" fill="#21675d"/>
        <path id="Trazado_157728" data-name="Trazado 157728" d="M289.554,296.176l5.267-2.931-6.145-3.454-5.2,3,5.731,3.3a.729.729,0,0,0,.347.081" fill="#21675d"/>
        <path id="Trazado_157729" data-name="Trazado 157729" d="M310.741,292.656a.809.809,0,0,0,.325.066l.213-.013,5.052-2.917-13.907-7.939-5.2,3Z" fill="#21675d"/>
        <path id="Trazado_157730" data-name="Trazado 157730" d="M218.007,330.589l5.711,3.3a.743.743,0,0,0,.363.088l.213-.013,5.055-2.918-6.144-3.454Z" fill="#21675d"/>
        <path id="Trazado_157731" data-name="Trazado 157731" d="M297.321,300.659l.214-.014,5.052-2.918-6.143-3.451-5.2,3,5.713,3.3a.75.75,0,0,0,.364.089" fill="#21675d"/>
        <path id="Trazado_157732" data-name="Trazado 157732" d="M304.194,296.691l5.269-2.932-6.147-3.451-5.2,3,5.7,3.286a.734.734,0,0,0,.381.1" fill="#21675d"/>
        <path id="Trazado_157733" data-name="Trazado 157733" d="M183.644,350.429l5.705,3.291a.745.745,0,0,0,.372.094l5.266-2.932-6.144-3.455Z" fill="#21675d"/>
        <path id="Trazado_157734" data-name="Trazado 157734" d="M169.9,358.365l5.7,3.292a.74.74,0,0,0,.369.092l.213-.013,5.056-2.918-6.144-3.454Z" fill="#21675d"/>
        <path id="Trazado_157735" data-name="Trazado 157735" d="M192.425,361.224l5.267-2.931-6.147-3.454-5.2,3,5.741,3.312a.758.758,0,0,0,.336.075" fill="#21675d"/>
        <path id="Trazado_157736" data-name="Trazado 157736" d="M185.55,365.19l5.268-2.929-6.146-3.454-5.2,3,5.736,3.312a.771.771,0,0,0,.338.073" fill="#21675d"/>
        <path id="Trazado_157737" data-name="Trazado 157737" d="M199.3,357.254l.212-.014,5.055-2.915-6.142-3.454-5.2,3,5.705,3.291a.751.751,0,0,0,.371.093" fill="#21675d"/>
        <path id="Trazado_157738" data-name="Trazado 157738" d="M211.134,334.558l5.719,3.3a.732.732,0,0,0,.356.085l.213-.013,5.052-2.918-6.141-3.452Z" fill="#21675d"/>
        <path id="Trazado_157739" data-name="Trazado 157739" d="M213.041,349.32l5.268-2.931-6.143-3.454-5.2,3,5.705,3.294a.75.75,0,0,0,.37.093" fill="#21675d"/>
        <path id="Trazado_157740" data-name="Trazado 157740" d="M206.171,353.288l5.267-2.931-6.146-3.454-5.2,3,5.736,3.311a.788.788,0,0,0,.342.075" fill="#21675d"/>
        <path id="Trazado_157741" data-name="Trazado 157741" d="M197.389,342.494l5.7,3.291a.742.742,0,0,0,.372.093l5.266-2.931-6.144-3.454Z" fill="#21675d"/>
        <path id="Trazado_157742" data-name="Trazado 157742" d="M176.772,354.4l5.7,3.291a.743.743,0,0,0,.373.093l5.265-2.931-6.143-3.454Z" fill="#21675d"/>
        <path id="Trazado_157743" data-name="Trazado 157743" d="M204.262,338.526l5.711,3.3a.75.75,0,0,0,.365.088l5.266-2.931-6.144-3.454Z" fill="#21675d"/>
        <path id="Trazado_157744" data-name="Trazado 157744" d="M190.519,346.462l5.7,3.292a.747.747,0,0,0,.372.092l.213-.013,5.053-2.918-6.144-3.454Z" fill="#21675d"/>
        <path id="Trazado_157745" data-name="Trazado 157745" d="M219.911,345.352l5.271-2.931-6.145-3.454-5.2,3,5.726,3.306a.74.74,0,0,0,.347.08" fill="#21675d"/>
        <path id="Trazado_157746" data-name="Trazado 157746" d="M260.519,297.077l5.736,3.311a.777.777,0,0,0,.338.073l5.266-2.931-6.143-3.454Z" fill="#21675d"/>
        <path id="Trazado_157747" data-name="Trazado 157747" d="M151.051,360.279l-5.2,3,5.739,3.311a.765.765,0,0,0,.338.073l.213-.014,5.056-2.918Z" fill="#21675d"/>
        <path id="Trazado_157748" data-name="Trazado 157748" d="M161.353,363.3l-7.73,4.462,5.736,3.312a.777.777,0,0,0,.338.073l.213-.014,7.587-4.379Z" fill="#21675d"/>
        <path id="Trazado_157749" data-name="Trazado 157749" d="M142.711,354.209l-6.285,3.626,5.712,3.3a.753.753,0,0,0,.365.089l6.352-3.556Z" fill="#21675d"/>
        <path id="Trazado_157750" data-name="Trazado 157750" d="M175.441,373.1l-6.282,3.628,5.7,3.292a.75.75,0,0,0,.37.093l6.354-3.559Z" fill="#21675d"/>
        <path id="Trazado_157751" data-name="Trazado 157751" d="M170.927,366.742l-9.538,5.505,5.736,3.312a.772.772,0,0,0,.339.073l.212-.014,9.4-5.425Z" fill="#21675d"/>
        <path id="Trazado_157752" data-name="Trazado 157752" d="M153.449,354.9l5.268-2.932-6.144-3.454-5.2,3,5.705,3.3a.735.735,0,0,0,.37.093" fill="#21675d"/>
        <path id="Trazado_157753" data-name="Trazado 157753" d="M176.927,381.218l5.71,3.3a.735.735,0,0,0,.36.088l7.8-4.395-6.141-3.452Z" fill="#21675d"/>
        <path id="Trazado_157754" data-name="Trazado 157754" d="M160.324,350.932,165.59,348l-6.144-3.454-5.195,3,5.733,3.311a.777.777,0,0,0,.34.073" fill="#21675d"/>
        <path id="Trazado_157755" data-name="Trazado 157755" d="M190.8,333.333l.213-.014,5.056-2.918-6.144-3.454-5.2,3,5.716,3.3a.743.743,0,0,0,.356.085" fill="#21675d"/>
        <path id="Trazado_157756" data-name="Trazado 157756" d="M197.677,329.365l5.266-2.932-6.144-3.454-5.2,3,5.718,3.3a.75.75,0,0,0,.358.085" fill="#21675d"/>
        <path id="Trazado_157757" data-name="Trazado 157757" d="M183.929,337.3l.213-.014,5.056-2.918-6.145-3.454-5.2,3,5.7,3.291a.753.753,0,0,0,.37.093" fill="#21675d"/>
        <path id="Trazado_157758" data-name="Trazado 157758" d="M174.067,343l.213-.014,5.055-2.918-6.144-3.454-5.2,3,5.715,3.3a.75.75,0,0,0,.357.085" fill="#21675d"/>
        <path id="Trazado_157759" data-name="Trazado 157759" d="M167.194,346.964l5.268-2.932-6.144-3.454-5.195,3,5.726,3.308a.759.759,0,0,0,.345.077" fill="#21675d"/>
        <path id="Trazado_157760" data-name="Trazado 157760" d="M313.658,302.276l5.745,3.318a.809.809,0,0,0,.325.066l.213-.013L325,302.729l-6.144-3.454Z" fill="#21675d"/>
        <path id="Trazado_157761" data-name="Trazado 157761" d="M277.842,322.95l5.7,3.29a.718.718,0,0,0,.37.1l5.269-2.931-6.144-3.455Z" fill="#21675d"/>
        <path id="Trazado_157762" data-name="Trazado 157762" d="M299.909,310.213l5.711,3.295a.761.761,0,0,0,.363.089l.213-.013,11.928-6.886-6.143-3.454Z" fill="#21675d"/>
        <path id="Trazado_157763" data-name="Trazado 157763" d="M284.715,318.983l5.7,3.288a.733.733,0,0,0,.377.1l5.267-2.928-6.145-3.455Z" fill="#21675d"/>
        <path id="Trazado_157764" data-name="Trazado 157764" d="M291.589,315.015l5.679,3.277a.721.721,0,0,0,.4.109l5.266-2.931-6.144-3.454Z" fill="#21675d"/>
        <path id="Trazado_157765" data-name="Trazado 157765" d="M204.547,325.4l.213-.014,5.055-2.918-6.144-3.454-5.2,3,5.7,3.291a.735.735,0,0,0,.37.093" fill="#21675d"/>
        <path id="Trazado_157766" data-name="Trazado 157766" d="M317.959,290.821l-5.2,3,13.515,7.8a.792.792,0,0,0,.327.066l.212-.013,5.051-2.917Z" fill="#21675d"/>
        <path id="Trazado_157767" data-name="Trazado 157767" d="M194.29,371.193l5.7,3.291a.747.747,0,0,0,.369.093l6.352-3.558-6.141-3.455Z" fill="#21675d"/>
        <path id="Trazado_157768" data-name="Trazado 157768" d="M202.248,366.6l5.693,3.286a.727.727,0,0,0,.379.1l.213-.013,39.056-22.546-6.144-3.457Z" fill="#21675d"/>
        <path id="Trazado_157769" data-name="Trazado 157769" d="M203.808,363.618l5.268-2.929-6.144-3.454-5.2,3,5.73,3.308a.759.759,0,0,0,.345.077" fill="#21675d"/>
        <path id="Trazado_157770" data-name="Trazado 157770" d="M186.331,375.786l5.705,3.294a.728.728,0,0,0,.367.093l6.354-3.559-6.144-3.454Z" fill="#21675d"/>
        <path id="Trazado_157771" data-name="Trazado 157771" d="M243.119,343l5.712,3.3a.745.745,0,0,0,.364.088l.213-.013,6.14-3.543-6.147-3.454Z" fill="#21675d"/>
        <path id="Trazado_157772" data-name="Trazado 157772" d="M259.036,333.811l5.723,3.3a.771.771,0,0,0,.351.079l.213-.013,6.139-3.545-6.144-3.455Z" fill="#21675d"/>
        <path id="Trazado_157773" data-name="Trazado 157773" d="M251.078,338.4l5.735,3.311a.787.787,0,0,0,.341.076l6.353-3.561-6.147-3.452Z" fill="#21675d"/>
        <path id="Trazado_157774" data-name="Trazado 157774" d="M266.992,329.216l5.712,3.3a.745.745,0,0,0,.364.088l.213-.013,7.584-4.379-6.143-3.455Z" fill="#21675d"/>
        <path id="Trazado_157775" data-name="Trazado 157775" d="M274.361,304.946l.213-.014,5.055-2.918-6.143-3.454-5.2,3,5.723,3.3a.754.754,0,0,0,.351.08" fill="#21675d"/>
        <path id="Trazado_157776" data-name="Trazado 157776" d="M283.023,317.884l.213-.014,5.055-2.918-6.143-3.453-5.2,3,5.723,3.307a.758.758,0,0,0,.351.08" fill="#21675d"/>
        <path id="Trazado_157777" data-name="Trazado 157777" d="M258.791,331.877l14.308-8.154-6.144-3.454-14.24,8.221,5.74,3.312a.781.781,0,0,0,.336.075" fill="#21675d"/>
        <path id="Trazado_157778" data-name="Trazado 157778" d="M298.216,309.112l.213-.014,5.055-2.921-6.145-3.45-5.2,3,5.735,3.311a.779.779,0,0,0,.339.073" fill="#21675d"/>
        <path id="Trazado_157779" data-name="Trazado 157779" d="M305.089,305.144l.212-.014,5.053-2.917-6.143-3.455-5.2,3,5.722,3.3a.766.766,0,0,0,.353.08" fill="#21675d"/>
        <path id="Trazado_157780" data-name="Trazado 157780" d="M251.913,335.844l5.272-2.931-6.144-3.454-5.2,3,5.71,3.3a.734.734,0,0,0,.361.089" fill="#21675d"/>
        <path id="Trazado_157781" data-name="Trazado 157781" d="M290.449,304.627l.213-.014,5.054-2.917-6.145-3.452-5.2,3,5.7,3.286a.739.739,0,0,0,.381.1" fill="#21675d"/>
        <path id="Trazado_157782" data-name="Trazado 157782" d="M217.553,355.682l5.266-2.932-6.142-3.451-5.2,3,5.73,3.307a.759.759,0,0,0,.345.077" fill="#21675d"/>
        <path id="Trazado_157783" data-name="Trazado 157783" d="M245.046,339.812l5.262-2.934-6.141-3.451-5.2,3,5.748,3.318a.816.816,0,0,0,.329.068" fill="#21675d"/>
        <path id="Trazado_157784" data-name="Trazado 157784" d="M210.68,359.65l.213-.014,5.052-2.918-6.141-3.451-5.2,3,5.737,3.312a.771.771,0,0,0,.338.073" fill="#21675d"/>
        <path id="Trazado_157785" data-name="Trazado 157785" d="M224.427,351.716l5.266-2.931-6.143-3.454-5.2,3,5.754,3.318a.772.772,0,0,0,.323.069" fill="#21675d"/>
        <path id="Trazado_157786" data-name="Trazado 157786" d="M231.3,347.746l.213-.014,5.052-2.918-6.141-3.451-5.2,3,5.7,3.291a.735.735,0,0,0,.37.093" fill="#21675d"/>
        <path id="Trazado_157787" data-name="Trazado 157787" d="M238.171,343.778l.212-.014,5.056-2.915-6.145-3.454-5.2,3,5.737,3.312a.769.769,0,0,0,.339.073" fill="#21675d"/>
        <path id="Trazado_157788" data-name="Trazado 157788" d="M221.285,315.735l5.266-2.932-6.144-3.451-5.2,3,5.7,3.292a.745.745,0,0,0,.373.093" fill="#21675d"/>
        <path id="Trazado_157789" data-name="Trazado 157789" d="M311.961,301.176l.213-.014,5.056-2.918-6.147-3.454-5.2,3,5.735,3.311a.779.779,0,0,0,.339.073" fill="#21675d"/>
        <path id="Trazado_157790" data-name="Trazado 157790" d="M235.03,307.8l5.266-2.932-6.144-3.451-5.2,3,5.7,3.291a.745.745,0,0,0,.373.093" fill="#21675d"/>
        <path id="Trazado_157791" data-name="Trazado 157791" d="M250.294,298.986l5.266-2.932-6.144-3.454-5.2,3,5.712,3.3a.759.759,0,0,0,.364.088" fill="#21675d"/>
        <path id="Trazado_157792" data-name="Trazado 157792" d="M243.422,302.954l5.265-2.932-6.143-3.454-5.2,3,5.712,3.3a.76.76,0,0,0,.365.088" fill="#21675d"/>
        <path id="Trazado_157793" data-name="Trazado 157793" d="M214.412,319.7l5.266-2.932-6.144-3.454-5.2,3,5.716,3.3a.75.75,0,0,0,.358.085" fill="#21675d"/>
        <path id="Trazado_157794" data-name="Trazado 157794" d="M228.157,311.767l.212-.014,5.054-2.918-6.144-3.451-5.2,3,5.705,3.291a.74.74,0,0,0,.372.093" fill="#21675d"/>
        <path id="Trazado_157795" data-name="Trazado 157795" d="M257.168,295.018l5.265-2.932-6.143-3.454-5.2,3,5.712,3.295a.751.751,0,0,0,.365.089" fill="#21675d"/>
        <path id="Trazado_157796" data-name="Trazado 157796" d="M284.111,277.161l5.264-2.934-3.34-1.8-5.2,3,2.925,1.652a.776.776,0,0,0,.354.082" fill="#21675d"/>
        <path id="Trazado_157797" data-name="Trazado 157797" d="M295.53,283.755l5.268-2.931-6.144-3.455-5.2,3,5.708,3.295a.757.757,0,0,0,.364.089" fill="#21675d"/>
        <path id="Trazado_157798" data-name="Trazado 157798" d="M263.491,289.063l.214-.014,5.049-2.917-3.337-1.8-5.2,3,2.909,1.644a.744.744,0,0,0,.364.088" fill="#21675d"/>
        <path id="Trazado_157799" data-name="Trazado 157799" d="M270.364,285.1l.213-.014,5.049-2.917-3.336-1.8-5.2,3,2.937,1.658a.774.774,0,0,0,.338.073" fill="#21675d"/>
        <path id="Trazado_157800" data-name="Trazado 157800" d="M277.236,281.127,282.5,278.2l-3.337-1.8-5.2,3,2.935,1.659a.791.791,0,0,0,.338.073" fill="#21675d"/>
        <g id="Grupo_70601" data-name="Grupo 70601" opacity="0.8">
          <g id="Grupo_70600" data-name="Grupo 70600">
            <g id="Grupo_70599" data-name="Grupo 70599" clip-path="url(#clip-path-19)">
              <path id="Trazado_157801" data-name="Trazado 157801" d="M285.058,22.162V170.617a6.819,6.819,0,0,1-3.086,5.343L81.879,291.7a1.982,1.982,0,0,1-1.022.293,1.772,1.772,0,0,1-.394-.05,1.228,1.228,0,0,1-.264-.091c-.06-.031-.111-.061-.161-.091l-.183-.122a1.177,1.177,0,0,1-.171-.152,2.4,2.4,0,0,1-.567-.809,3.856,3.856,0,0,1-.324-1.559V141.414a6.834,6.834,0,0,1,3.086-5.343L281.972,20.381a2.238,2.238,0,0,1,2.074-.263,1.331,1.331,0,0,1,.263.152l.02.02a.972.972,0,0,1,.2.2.5.5,0,0,1,.091.112.537.537,0,0,1,.1.162,1.386,1.386,0,0,1,.182.394,1.09,1.09,0,0,1,.071.273c.01.021.02.041.01.061a1.286,1.286,0,0,1,.051.284c.01.121.02.252.02.384" fill="#5f7d7c"/>
              <path id="Trazado_157802" data-name="Trazado 157802" d="M283.34,20.966a.658.658,0,0,1,.3.066l.029.014h0l.064.049.082.108,0,.005.075.113a.316.316,0,0,1,.025.043l-.016.03.1.29,0,.035.024.047.007.023a.561.561,0,0,1,.009.073c.008.1.017.2.017.3V170.618a5.813,5.813,0,0,1-2.587,4.477L81.382,290.833a1,1,0,0,1-.519.162h-.006a.994.994,0,0,1-.209-.035c-.027-.014-.051-.028-.075-.042l-.1-.071-.022-.015-.024-.019-.014-.016-.049-.045a1.462,1.462,0,0,1-.329-.479,2.857,2.857,0,0,1-.237-1.152V141.414a5.81,5.81,0,0,1,2.587-4.477L282.466,21.251a1.855,1.855,0,0,1,.874-.285m0-1a2.809,2.809,0,0,0-1.369.416L81.879,136.072a6.83,6.83,0,0,0-3.086,5.342V289.121a3.848,3.848,0,0,0,.324,1.558,2.438,2.438,0,0,0,.566.81,1.256,1.256,0,0,0,.173.152l.181.121c.051.03.1.061.162.091a1.112,1.112,0,0,0,.264.091,1.71,1.71,0,0,0,.394.051H80.9a2.009,2.009,0,0,0,.979-.3l200.092-115.74a6.817,6.817,0,0,0,3.087-5.343V22.163c0-.132-.01-.264-.02-.385a1.349,1.349,0,0,0-.051-.283.068.068,0,0,0-.01-.061,1.09,1.09,0,0,0-.071-.273,1.391,1.391,0,0,0-.182-.395.549.549,0,0,0-.1-.162.519.519,0,0,0-.091-.111.949.949,0,0,0-.2-.2l-.02-.021a1.377,1.377,0,0,0-.263-.151,1.633,1.633,0,0,0-.706-.153" fill="#5f7d7c"/>
              <g id="Grupo_70598" data-name="Grupo 70598" opacity="0.7">
                <g id="Grupo_70597" data-name="Grupo 70597">
                  <g id="Grupo_70596" data-name="Grupo 70596" clip-path="url(#clip-path-19)">
                    <path id="Trazado_157803" data-name="Trazado 157803" d="M285.058,22.162V170.617a6.819,6.819,0,0,1-3.086,5.343L81.879,291.7a1.982,1.982,0,0,1-1.022.293,1.772,1.772,0,0,1-.394-.05,1.228,1.228,0,0,1-.264-.091c-.06-.031-.111-.061-.161-.091l-.183-.122a1.177,1.177,0,0,1-.171-.152,2.4,2.4,0,0,1-.567-.809,3.856,3.856,0,0,1-.324-1.559V141.414a6.834,6.834,0,0,1,3.086-5.343L281.972,20.381a2.238,2.238,0,0,1,2.074-.263,1.331,1.331,0,0,1,.263.152l.02.02a.972.972,0,0,1,.2.2.5.5,0,0,1,.091.112.537.537,0,0,1,.1.162,1.386,1.386,0,0,1,.182.394,1.09,1.09,0,0,1,.071.273c.01.021.02.041.01.061a1.286,1.286,0,0,1,.051.284c.01.121.02.252.02.384" fill="#5f7d7c"/>
                  </g>
                </g>
              </g>
            </g>
          </g>
        </g>
        <path id="Trazado_157804" data-name="Trazado 157804" d="M284.046,20.118a2.238,2.238,0,0,0-2.074.263L81.879,136.071a6.834,6.834,0,0,0-3.086,5.343v10.079l-3.936-2.308V139.178a6.805,6.805,0,0,1,3.076-5.333l200.1-115.69a2.147,2.147,0,0,1,2.237-.182c.556.334,3.116,1.8,3.774,2.145" fill="#26cb99"/>
        <path id="Trazado_157805" data-name="Trazado 157805" d="M285.051,22.142c-.012-1.947-1.385-2.735-3.08-1.756L81.877,136.075a6.814,6.814,0,0,0-3.082,5.339l0,10.083L285.051,32.26Z" fill="#5ae6bc"/>
        <g id="Grupo_70604" data-name="Grupo 70604" opacity="0.4">
          <g id="Grupo_70603" data-name="Grupo 70603">
            <g id="Grupo_70602" data-name="Grupo 70602" clip-path="url(#clip-path-21)">
              <path id="Trazado_157806" data-name="Trazado 157806" d="M281.969,20.384,81.881,136.073a6.333,6.333,0,0,0-2.172,2.289l-3.917-2.269a6.16,6.16,0,0,1,2.145-2.251l200.1-115.689a2.168,2.168,0,0,1,2.24-.183c.553.339,3.112,1.794,3.762,2.143a2.228,2.228,0,0,0-2.065.271" fill="#fff"/>
            </g>
          </g>
        </g>
        <g id="Grupo_70607" data-name="Grupo 70607" opacity="0.15">
          <g id="Grupo_70606" data-name="Grupo 70606">
            <g id="Grupo_70605" data-name="Grupo 70605" clip-path="url(#clip-path-22)">
              <path id="Trazado_157807" data-name="Trazado 157807" d="M74.852,149.2l0-10.022a6.356,6.356,0,0,1,.938-3.083l3.927,2.258a6.237,6.237,0,0,0-.921,3.064V151.5Z"/>
            </g>
          </g>
        </g>
        <g id="Grupo_70610" data-name="Grupo 70610" opacity="0.9">
          <g id="Grupo_70609" data-name="Grupo 70609">
            <g id="Grupo_70608" data-name="Grupo 70608" clip-path="url(#clip-path-23)">
              <path id="Trazado_157808" data-name="Trazado 157808" d="M79.926,291.711c-.111-.071-.243-.142-.385-.223-.283-.172-.607-.354-.951-.536l-.01-.01c-.172-.1-.344-.2-.516-.293a.071.071,0,0,0-.041-.021c-.283-.162-.556-.324-.809-.465s-.5-.283-.678-.385-.324-.182-.385-.212a1.761,1.761,0,0,1-.526-.425,2.348,2.348,0,0,1-.415-.628,3.822,3.822,0,0,1-.354-1.629v-137.7l3.937,2.308V289.121a4.608,4.608,0,0,0,.323,1.558,2.436,2.436,0,0,0,.567.809.5.5,0,0,0,.172.152.229.229,0,0,0,.071.071" fill="#21675d"/>
            </g>
          </g>
        </g>
        <path id="Trazado_157809" data-name="Trazado 157809" d="M145.686,202.877s-7.284-4.71-8.226-4.74l-20.692-.65,8.225,4.378v.362Z" fill="#144e45"/>
        <path id="Trazado_157810" data-name="Trazado 157810" d="M110.2,217.065V204.1L145.685,160v17.2l-20.692,24.667v.361l20.692.651v17.2Z" fill="#fdfdfd"/>
        <path id="Trazado_157811" data-name="Trazado 157811" d="M145.686,160l-8.226-4.74-35.484,44.106,8.226,4.74Z" fill="#5f7d7c"/>
        <path id="Trazado_157812" data-name="Trazado 157812" d="M101.976,199.365v12.961l8.226,4.74V204.1Z" fill="#21675d"/>
        <path id="Trazado_157813" data-name="Trazado 157813" d="M167.164,211.554l-11.015,6.359,27.459-100.644,10.622-6.132Z" fill="#fdfdfd"/>
        <path id="Trazado_157814" data-name="Trazado 157814" d="M194.23,111.137,186,106.4l-10.622,6.133,8.226,4.74Z" fill="#5f7d7c"/>
        <path id="Trazado_157815" data-name="Trazado 157815" d="M175.383,112.53l8.226,4.74-27.46,100.643-8.226-4.739Z" fill="#21675d"/>
        <path id="Trazado_157816" data-name="Trazado 157816" d="M196.468,164.07l8.226,4.739L225.385,143.9l-8.226-4.74Z" fill="#144e45"/>
        <path id="Trazado_157817" data-name="Trazado 157817" d="M225.385,143.9l-20.691-.772v-17.2l35.483,3.133v12.961L204.694,186.01v-17.2l20.691-24.544Z" fill="#fdfdfd"/>
        <path id="Trazado_157818" data-name="Trazado 157818" d="M196.468,121.191l8.226,4.74,35.483,3.132-8.225-4.739Z" fill="#5f7d7c"/>
        <path id="Trazado_157819" data-name="Trazado 157819" d="M204.694,125.93v17.2l-8.226-4.739v-17.2" fill="#21675d"/>
        <path id="Trazado_157820" data-name="Trazado 157820" d="M196.468,164.07l8.226,4.739v17.2l-8.226-4.74Z" fill="#21675d"/>
        <path id="Trazado_157821" data-name="Trazado 157821" d="M380.646,233.623c3.908.76,5.689,2.091,7.912,7.512s6.185,18.625,7.109,22.247c.414,1.623-9.859,16.144-9.418,15.929.135-.066-4.011-7-4.011-7l5.041-9.646-3.589-8.772Z" fill="#ffaaa8"/>
        <path id="Trazado_157822" data-name="Trazado 157822" d="M379.321,233.708s3.567-.639,5.926,1.322,2.72,3.264,4.313,7.291,4.218,12.394,4.218,12.394-.754,4.5-8.085,5.389l-6.284-14.151s-2.187-8.557-.088-12.245" fill="#00f2cf"/>
        <path id="Trazado_157823" data-name="Trazado 157823" d="M371.959,349.813a8.423,8.423,0,0,0,.23,3.809,8.6,8.6,0,0,0,3.082,3.714,15.115,15.115,0,0,1,2.559,3.1,13.022,13.022,0,0,0,2.671,3.338c.834.724,3.182.788,4.315.312s1.512-.9,1.442-2.711c-.068-1.767-5.553-2.425-5.553-2.425Z" fill="#5f7d7c"/>
        <path id="Trazado_157824" data-name="Trazado 157824" d="M385.549,355.983c.468.177.586,1.068.657,2.84.054,1.34.617,3.3-1.23,4.148a4.511,4.511,0,0,1-4.876-1.036c-1.256-1.577-2.105-2.965-3.9-4.889-1.555-1.669-3.174-2.232-3.864-5.568-.444-2.145-.1-3.034,1.348-3.649,1.985-.845,5.1,1.918,6.658,2.353,1.339.375,4.737,5.624,5.205,5.8" fill="#00f2cf"/>
        <g id="Grupo_70613" data-name="Grupo 70613" opacity="0.2">
          <g id="Grupo_70612" data-name="Grupo 70612">
            <g id="Grupo_70611" data-name="Grupo 70611" clip-path="url(#clip-path-24)">
              <path id="Trazado_157825" data-name="Trazado 157825" d="M385.549,355.983c.468.177.586,1.068.657,2.84.054,1.34.617,3.3-1.23,4.148a4.511,4.511,0,0,1-4.876-1.036c-1.256-1.577-2.105-2.965-3.9-4.889-1.555-1.669-3.174-2.232-3.864-5.568-.444-2.145-.1-3.034,1.348-3.649,1.985-.845,5.1,1.918,6.658,2.353,1.339.375,4.737,5.624,5.205,5.8"/>
            </g>
          </g>
        </g>
        <path id="Trazado_157826" data-name="Trazado 157826" d="M380.344,350.182c-.083-.023-.172-.056-.264-.092a5.117,5.117,0,0,0-4.3,2.818c-.265.584.551,1.038,1.036.584a5.462,5.462,0,0,1,4.294-2.8,2.276,2.276,0,0,0-.769-.509" fill="#fdfdfd"/>
        <path id="Trazado_157827" data-name="Trazado 157827" d="M381.627,351.192a5.079,5.079,0,0,0-3.992,2.794c-.265.584.551,1.038,1.037.584a5.231,5.231,0,0,1,3.58-2.674c-.213-.251-.423-.49-.625-.7" fill="#fdfdfd"/>
        <path id="Trazado_157828" data-name="Trazado 157828" d="M347.016,377.224c-.3,1.5.24,2.285,2.178,3.4a10.811,10.811,0,0,0,8.178.572c3.2-.931,4.729-2.327,6.058-2.66s4.619-.361,5.933-.745,1.294-1.059,1.287-2.639Z" fill="#5f7d7c"/>
        <path id="Trazado_157829" data-name="Trazado 157829" d="M369.363,367.542s.624,1.892.961,3.546c.267,1.315.65,3.513.189,4.5s-2.257,1.628-5.041,1.606c-1.8-.013-4.615,1.211-6.54,2.285a10,10,0,0,1-6.246.867c-2.478-.291-5.045-1.728-5.446-2.754s-.5-1.8,5.335-4.284c.054-.023,6.776-2.5,9.6-5.621Z" fill="#00f2cf"/>
        <g id="Grupo_70616" data-name="Grupo 70616" opacity="0.2">
          <g id="Grupo_70615" data-name="Grupo 70615">
            <g id="Grupo_70614" data-name="Grupo 70614" clip-path="url(#clip-path-25)">
              <path id="Trazado_157830" data-name="Trazado 157830" d="M369.363,367.542s.624,1.892.961,3.546c.267,1.315.65,3.513.189,4.5s-2.257,1.628-5.041,1.606c-1.8-.013-4.615,1.211-6.54,2.285a10,10,0,0,1-6.246.867c-2.478-.291-5.045-1.728-5.446-2.754s-.5-1.8,5.335-4.284c.054-.023,6.776-2.5,9.6-5.621Z"/>
            </g>
          </g>
        </g>
        <path id="Trazado_157831" data-name="Trazado 157831" d="M358.136,379.864s-.5-5.014-4.576-6.448c-3.684-1.3-6.9,1.434-6.543,3.807.241,1.6,4.726,5.222,11.119,2.641" fill="#fdfdfd"/>
        <path id="Trazado_157832" data-name="Trazado 157832" d="M354.591,372.477a4.751,4.751,0,0,1,2.782,1.235c1.175.989,1.209,1.646,1.209,1.646a.618.618,0,0,0,1.063-.508s-.274-2.529-3.6-3.047a1.355,1.355,0,0,0-1.452.674" fill="#fdfdfd"/>
        <path id="Trazado_157833" data-name="Trazado 157833" d="M356.922,371.361a4.167,4.167,0,0,1,2.809,1.116c1.175.989,1.182,1.765,1.182,1.765a.618.618,0,0,0,1.063-.508s-.274-2.529-3.6-3.047a1.355,1.355,0,0,0-1.452.674" fill="#fdfdfd"/>
        <path id="Trazado_157834" data-name="Trazado 157834" d="M359.234,370.041a4.167,4.167,0,0,1,2.878.921c1.24.907,1.3,1.681,1.3,1.681a.618.618,0,0,0,1.026-.58s-.445-2.5-3.8-2.793a1.356,1.356,0,0,0-1.4.771" fill="#fdfdfd"/>
        <path id="Trazado_157835" data-name="Trazado 157835" d="M385.549,353.117v3.4a5.324,5.324,0,0,1-5.5.149c-.1-.21-.371-3.55-.371-3.55Z" fill="#ffaaa8"/>
        <path id="Trazado_157836" data-name="Trazado 157836" d="M369.363,365.19s-.008,1.614,0,2.537-1.081,2.3-3.9,2.2c-1.981-.071-3.364-.6-3.285-2.234v-2.352Z" fill="#ffaaa8"/>
        <path id="Trazado_157837" data-name="Trazado 157837" d="M389.217,324.254c-.184-7.174-1.659-10.322-1.659-10.322s.549-8.861,1.741-19.711c1.815-16.517.98-19.718-2.279-27.149,0,0-27.8-2.818-28.651,8.736-1.056,14.39-1.181,43.658-.8,48.741s.376.386,1.611,10.676c.976,8.138,2.995,30.112,2.995,30.112a7.63,7.63,0,0,0,7.187-.147s2.273-26.888,2.035-32.753a66.319,66.319,0,0,0-.7-8.985s3.251-23.185,3.754-26.918c0,0,.453,6.681.835,11.764s.35,9.177,1.421,19.692c.839,8.247,2.874,26.052,2.874,26.052a6.827,6.827,0,0,0,6.064-.446s3.718-23.537,3.569-29.342" fill="#5f7d7c"/>
        <path id="Trazado_157838" data-name="Trazado 157838" d="M373.249,353.947s.155-3.971,5.522-4.523l.308.174a4.634,4.634,0,0,0-2.64-2.039,3.653,3.653,0,0,0-4.13,1.187c-.938,1.207.013,4.427.94,5.2" fill="#fdfdfd"/>
        <path id="Trazado_157839" data-name="Trazado 157839" d="M366.405,229.883l1.306,10.743,9.446-.853-1.08-11.925Z" fill="#ffaaa8"/>
        <path id="Trazado_157840" data-name="Trazado 157840" d="M386.369,238.821c-1.038-2.826-3.417-5.787-7.048-5.112-.946.175-1.778.313-2.668.493-.082,2.474-4.746,3.756-9.4,2.254q-2.1.6-3.839,1.224c-3.324,1.187-4.661,6.71-4.734,15.948s-1.372,27.789-1.372,27.789,6.99,3.711,20.074,1.34,12.854-6.818,12.854-6.818-.262-5.419-6.158-14.521c5.007-13.319,3.827-18.4,2.286-22.6" fill="#21675d"/>
        <path id="Trazado_157841" data-name="Trazado 157841" d="M359.387,216.236a8.287,8.287,0,0,1,.711-7.986c3.171-4.979,9.284-5.828,16.528-3.886a12.851,12.851,0,0,1,9.061,11.666c.347,5.312-14.468,9.23-14.129,12.869Z" fill="#144e45"/>
        <path id="Trazado_157842" data-name="Trazado 157842" d="M359.068,218.253s-2.01,3.224-1.728,3.552a5.025,5.025,0,0,0,1.624.648Z" fill="#ee8686"/>
        <path id="Trazado_157843" data-name="Trazado 157843" d="M365.2,208.044c-2.008,1.107-5.476,3.147-6.179,10.674-.721,7.727,1.065,10.357,2.142,11.339.728.662,4.392.81,6.283.167,2.367-.806,7.469-3.5,9.787-7.541,2.726-4.754,3.147-11-.211-13.358a12.3,12.3,0,0,0-11.822-1.281" fill="#ffaaa8"/>
        <path id="Trazado_157844" data-name="Trazado 157844" d="M365.3,217.138a7.654,7.654,0,0,1-4.9-6.174c-.759-4.9,5.365-6.978,5.365-6.978Z" fill="#144e45"/>
        <path id="Trazado_157845" data-name="Trazado 157845" d="M364.607,208.382s-1.586,7.074.661,11.457c0,0,1.171-2.775,3.549-2.052,2.394.728,2.262,3.9.439,5.565a3.535,3.535,0,0,1-3.658.88,15.879,15.879,0,0,0,3.534,5.336s7.04,3.138,13.137-3.743c5.532-6.244,4.5-17.134-3.969-19.7s-13.693,2.26-13.693,2.26" fill="#144e45"/>
        <path id="Trazado_157846" data-name="Trazado 157846" d="M393.778,236.1h0a9.614,9.614,0,0,1-9.615-9.614v-16.1A9.615,9.615,0,0,1,393.778,220Z" fill="#144e45"/>
        <path id="Trazado_157847" data-name="Trazado 157847" d="M385.236,208.3a1.66,1.66,0,0,0-1.073,2.088l3.161-1.015a1.659,1.659,0,0,0-2.088-1.073" fill="#144e45"/>
        <path id="Trazado_157848" data-name="Trazado 157848" d="M339.515,254.7c-1.371-1.566-1.6-5.026-3.426-7.406-1.784-2.325-1.493-4.779-2.64-3.711-1.226,1.141-.29,4.97-.29,4.97s-2.126,3.946-2.307,5.965,5.164,7.092,5.164,7.092Z" fill="#ffaaa8"/>
        <path id="Trazado_157849" data-name="Trazado 157849" d="M333.449,248.279s-2.164,3.026-11.913-.926c-2.692-1.092-.875,4.7,2.427,7.094,3.056,2.22,6.882,2.907,9.94,4.978.007-.295-.454-11.146-.454-11.146" fill="#ffaaa8"/>
        <path id="Trazado_157850" data-name="Trazado 157850" d="M364.246,237.4c-2.777.967-5.207,2.085-7.8,6.955-3.33,6.258-9.386,18.517-9.386,18.517l-7.546-8.17s-1.1-1.548-3.141,1.828-1.14,4.309-1.14,4.309,8.78,11.76,10.392,13.257,4.259.333,5.986-2.021,10.662-18.535,10.662-18.535,5.9-10.223,1.972-16.14" fill="#ffaaa8"/>
        <path id="Trazado_157851" data-name="Trazado 157851" d="M365.593,236.954a10.622,10.622,0,0,0-8.464,5.628c-3.319,6.005-6.815,12.779-6.815,12.779s2.4,5.8,8.54,6.246c.011-.6,5.023-9.495,6.908-13.309s1.706-9.63-.169-11.344" fill="#00f2cf"/>
        <path id="Trazado_157852" data-name="Trazado 157852" d="M374.454,296.535l.526-5.62a21.215,21.215,0,0,0,8.482-3.209s-1.8,2.894-6.762,4.212l-1.119,5.475-.292,10.906Z" fill="#21675d"/>
        <path id="Trazado_157853" data-name="Trazado 157853" d="M266.482,33.62a4.593,4.593,0,0,0-1.742,3.687c0,1.481.78,2.232,1.742,1.676a4.593,4.593,0,0,0,1.742-3.687c0-1.481-.78-2.231-1.742-1.676" fill="#5f7d7c"/>
        <path id="Trazado_157854" data-name="Trazado 157854" d="M272.753,29.993a4.593,4.593,0,0,0-1.742,3.687c0,1.481.78,2.232,1.742,1.676a4.593,4.593,0,0,0,1.742-3.687c0-1.481-.78-2.231-1.742-1.676" fill="#5f7d7c"/>
        <path id="Trazado_157855" data-name="Trazado 157855" d="M279.024,26.366a4.594,4.594,0,0,0-1.742,3.687c0,1.481.78,2.232,1.742,1.676a4.593,4.593,0,0,0,1.742-3.687c0-1.481-.78-2.231-1.742-1.676" fill="#5f7d7c"/>
      </g>
    </g>
  </g>
</svg>
