<svg id="Grupo_70690" data-name="Grupo 70690" xmlns="http://www.w3.org/2000/svg" xmlns:xlink="http://www.w3.org/1999/xlink" width="57.147" height="67.389" viewBox="0 0 57.147 67.389">
  <defs>
    <clipPath id="clip-path">
      <rect id="Rectángulo_8343" data-name="Rectángulo 8343" width="57.147" height="67.389" fill="none"/>
    </clipPath>
    <clipPath id="clip-path-2">
      <rect id="Rectángulo_8342" data-name="Rectángulo 8342" width="57.147" height="67.389" transform="translate(0 0)" fill="none"/>
    </clipPath>
    <clipPath id="clip-path-3">
      <rect id="Rectángulo_8341" data-name="Rectángulo 8341" width="22.901" height="34.759" transform="translate(17.444 16.874)" fill="none"/>
    </clipPath>
  </defs>
  <g id="Grupo_70675" data-name="Grupo 70675" clip-path="url(#clip-path)">
    <g id="Grupo_70674" data-name="Grupo 70674">
      <g id="Grupo_70673" data-name="Grupo 70673" clip-path="url(#clip-path-2)">
        <path id="Trazado_157914" data-name="Trazado 157914" d="M19.947,27.224V15.837L10.335,15a.683.683,0,0,0-.4.081c-.372.2-9.472,5.41-9.591,5.481a.705.705,0,0,0-.156,1.084l10.19,11.046Z" fill="#00f2cf"/>
        <path id="Trazado_157915" data-name="Trazado 157915" d="M10.379,32.692.189,21.646a.7.7,0,0,1,.578-1.178l9.612.838Z" fill="#f7f7f7"/>
        <path id="Trazado_157916" data-name="Trazado 157916" d="M19.943,15.833l-9.564,5.476L.765,20.467a.727.727,0,0,0-.331.049c.768-.453,9.151-5.249,9.5-5.436A.672.672,0,0,1,10.338,15Z" fill="#00f2cf"/>
        <path id="Trazado_157917" data-name="Trazado 157917" d="M19.943,15.833l-9.564,5.476L.765,20.467a.727.727,0,0,0-.331.049c.768-.453,9.151-5.249,9.5-5.436A.672.672,0,0,1,10.338,15Z" fill="#fbfbfb"/>
        <path id="Trazado_157918" data-name="Trazado 157918" d="M10.4,8.459a7.657,7.657,0,0,1,3.465-6L16.683.829a7.656,7.656,0,0,1,6.929,0l30.07,17.362a7.66,7.66,0,0,1,3.465,6V58.93a7.661,7.661,0,0,1-3.465,6l-2.821,1.629a7.664,7.664,0,0,1-6.93,0l-8.877-5.126L23.515,54.769,13.861,49.2a7.654,7.654,0,0,1-3.464-6Z" fill="#f7f7f7"/>
        <path id="Trazado_157919" data-name="Trazado 157919" d="M57.147,58.93a7.657,7.657,0,0,1-3.465,6L50.861,66.56a7.741,7.741,0,0,1-6.338.279c1.631.617,2.873-.3,2.873-2.279V29.822a7.092,7.092,0,0,0-1.014-3.415l9.75-5.629a7.08,7.08,0,0,1,1.015,3.415Z" fill="#f3f3f3"/>
        <path id="Trazado_157920" data-name="Trazado 157920" d="M10.51,7.474c.4-1.471,1.746-1.94,3.346-1.018L43.933,23.824a6.864,6.864,0,0,1,2.441,2.586l9.747-5.625A6.988,6.988,0,0,0,53.68,18.2L23.619.83a7.706,7.706,0,0,0-6.935,0L13.856,2.463A7.64,7.64,0,0,0,10.51,7.474" fill="#fbfbfb"/>
        <path id="Trazado_157921" data-name="Trazado 157921" d="M28.894,29.7l2.527-4.753L40.344,30.1,28.894,51.633,17.444,16.874l8.923,5.152Z" fill="#00f2cf"/>
        <g id="Grupo_70672" data-name="Grupo 70672" opacity="0.15">
          <g id="Grupo_70671" data-name="Grupo 70671">
            <g id="Grupo_70670" data-name="Grupo 70670" clip-path="url(#clip-path-3)">
              <path id="Trazado_157922" data-name="Trazado 157922" d="M28.894,29.7l2.527-4.753L40.344,30.1,28.894,51.633,17.444,16.874l8.923,5.152Z"/>
            </g>
          </g>
        </g>
        <path id="Trazado_157923" data-name="Trazado 157923" d="M28.894,29.7l-2.527-7.671-3.978-2.3,6.5,19.748,6.5-12.236-3.978-2.3Z" fill="#21675d"/>
      </g>
    </g>
  </g>
</svg>
