<svg id="Grupo_70688" data-name="Grupo 70688" xmlns="http://www.w3.org/2000/svg" xmlns:xlink="http://www.w3.org/1999/xlink" width="95.4" height="207.725" viewBox="0 0 95.4 207.725">
  <defs>
    <clipPath id="clip-path">
      <rect id="Rectángulo_8337" data-name="Rectángulo 8337" width="95.4" height="207.725" fill="none"/>
    </clipPath>
    <clipPath id="clip-path-3">
      <rect id="Rectángulo_8324" data-name="Rectángulo 8324" width="91.459" height="205.496" transform="translate(3.941 2.229)" fill="none"/>
    </clipPath>
    <clipPath id="clip-path-5">
      <rect id="Rectángulo_8325" data-name="Rectángulo 8325" width="93.436" height="54.091" transform="translate(0.952)" fill="none"/>
    </clipPath>
    <clipPath id="clip-path-6">
      <rect id="Rectángulo_8326" data-name="Rectángulo 8326" width="4.867" height="15.404" transform="translate(0 51.823)" fill="none"/>
    </clipPath>
    <clipPath id="clip-path-7">
      <rect id="Rectángulo_8327" data-name="Rectángulo 8327" width="5.07" height="142.526" transform="translate(0.005 64.915)" fill="none"/>
    </clipPath>
    <clipPath id="clip-path-8">
      <rect id="Rectángulo_8328" data-name="Rectángulo 8328" width="32.08" height="19.959" transform="translate(11.354 80.058)" fill="none"/>
    </clipPath>
    <clipPath id="clip-path-9">
      <rect id="Rectángulo_8329" data-name="Rectángulo 8329" width="12.331" height="8.551" transform="translate(11.354 100.941)" fill="none"/>
    </clipPath>
    <clipPath id="clip-path-10">
      <rect id="Rectángulo_8330" data-name="Rectángulo 8330" width="12.331" height="8.551" transform="translate(11.354 110.433)" fill="none"/>
    </clipPath>
    <clipPath id="clip-path-11">
      <rect id="Rectángulo_8331" data-name="Rectángulo 8331" width="12.331" height="8.551" transform="translate(11.354 119.924)" fill="none"/>
    </clipPath>
    <clipPath id="clip-path-12">
      <rect id="Rectángulo_8332" data-name="Rectángulo 8332" width="12.331" height="8.551" transform="translate(11.354 129.416)" fill="none"/>
    </clipPath>
    <clipPath id="clip-path-13">
      <rect id="Rectángulo_8333" data-name="Rectángulo 8333" width="15.188" height="10.17" transform="translate(45.489 70.126)" fill="none"/>
    </clipPath>
    <clipPath id="clip-path-14">
      <rect id="Rectángulo_8334" data-name="Rectángulo 8334" width="32.08" height="19.959" transform="translate(27.795 80.041)" fill="none"/>
    </clipPath>
    <clipPath id="clip-path-15">
      <rect id="Rectángulo_8335" data-name="Rectángulo 8335" width="15.188" height="10.169" transform="translate(61.931 70.109)" fill="none"/>
    </clipPath>
  </defs>
  <g id="Grupo_70661" data-name="Grupo 70661" clip-path="url(#clip-path)">
    <g id="Grupo_70660" data-name="Grupo 70660">
      <g id="Grupo_70659" data-name="Grupo 70659" clip-path="url(#clip-path)">
        <g id="Grupo_70625" data-name="Grupo 70625" opacity="0.8">
          <g id="Grupo_70624" data-name="Grupo 70624">
            <g id="Grupo_70623" data-name="Grupo 70623" clip-path="url(#clip-path-3)">
              <path id="Trazado_157856" data-name="Trazado 157856" d="M95.4,4.425V152.88a6.815,6.815,0,0,1-3.086,5.343L7.027,207.431a1.982,1.982,0,0,1-1.022.293,1.765,1.765,0,0,1-.394-.05,1.21,1.21,0,0,1-.264-.091c-.06-.031-.111-.061-.162-.091L5,207.37a1.238,1.238,0,0,1-.172-.152,2.419,2.419,0,0,1-.566-.809,3.856,3.856,0,0,1-.324-1.559V57.144A6.834,6.834,0,0,1,7.027,51.8L92.314,2.644a2.238,2.238,0,0,1,2.074-.263,1.331,1.331,0,0,1,.263.152l.02.02a.972.972,0,0,1,.2.2.5.5,0,0,1,.091.112.537.537,0,0,1,.1.162,1.385,1.385,0,0,1,.182.394,1.049,1.049,0,0,1,.071.273c.01.021.02.041.01.061a1.232,1.232,0,0,1,.051.283c.01.122.02.253.02.385" fill="#5f7d7c"/>
              <path id="Trazado_157857" data-name="Trazado 157857" d="M93.683,3.229a.654.654,0,0,1,.3.066.265.265,0,0,1,.029.014h0l.065.048.081.108,0,0,.075.113a.267.267,0,0,1,.025.043l-.016.029.1.29,0,.037.025.048.007.021c0,.029.007.059.009.069.007.1.016.2.016.305V152.88a5.81,5.81,0,0,1-2.586,4.477L6.531,206.563a1.017,1.017,0,0,1-.519.162H6.005a1.042,1.042,0,0,1-.209-.036c-.03-.015-.055-.031-.056-.031l0,0-.084-.056-.064-.044-.022-.017-.014-.017-.051-.047A1.425,1.425,0,0,1,5.179,206a2.853,2.853,0,0,1-.238-1.153V57.144a5.808,5.808,0,0,1,2.586-4.476L92.808,3.514a1.862,1.862,0,0,1,.875-.285m0-1a2.809,2.809,0,0,0-1.369.416L7.027,51.8a6.833,6.833,0,0,0-3.086,5.342V204.85a3.861,3.861,0,0,0,.324,1.558,2.444,2.444,0,0,0,.567.811A1.183,1.183,0,0,0,5,207.37l.182.122c.05.029.1.061.162.091a1.121,1.121,0,0,0,.263.091,1.782,1.782,0,0,0,.394.051h.043a2.009,2.009,0,0,0,.979-.3l85.287-49.207A6.815,6.815,0,0,0,95.4,152.88V4.426c0-.132-.01-.264-.02-.385a1.232,1.232,0,0,0-.051-.283c.011-.021,0-.041-.01-.061a1.049,1.049,0,0,0-.071-.273,1.391,1.391,0,0,0-.182-.395.53.53,0,0,0-.1-.162.491.491,0,0,0-.091-.111.944.944,0,0,0-.2-.2l-.02-.021a1.472,1.472,0,0,0-.263-.152,1.647,1.647,0,0,0-.706-.152" fill="#5f7d7c"/>
              <g id="Grupo_70622" data-name="Grupo 70622" opacity="0.8">
                <g id="Grupo_70621" data-name="Grupo 70621">
                  <g id="Grupo_70620" data-name="Grupo 70620" clip-path="url(#clip-path-3)">
                    <path id="Trazado_157858" data-name="Trazado 157858" d="M95.4,4.425V152.88a6.815,6.815,0,0,1-3.086,5.343L7.027,207.431a1.982,1.982,0,0,1-1.022.293,1.765,1.765,0,0,1-.394-.05,1.21,1.21,0,0,1-.264-.091c-.06-.031-.111-.061-.162-.091L5,207.37a1.238,1.238,0,0,1-.172-.152,2.419,2.419,0,0,1-.566-.809,3.856,3.856,0,0,1-.324-1.559V57.144A6.834,6.834,0,0,1,7.027,51.8L92.314,2.644a2.238,2.238,0,0,1,2.074-.263,1.331,1.331,0,0,1,.263.152l.02.02a.972.972,0,0,1,.2.2.5.5,0,0,1,.091.112.537.537,0,0,1,.1.162,1.385,1.385,0,0,1,.182.394,1.049,1.049,0,0,1,.071.273c.01.021.02.041.01.061a1.232,1.232,0,0,1,.051.283c.01.122.02.253.02.385" fill="#5f7d7c"/>
                  </g>
                </g>
              </g>
            </g>
          </g>
        </g>
        <path id="Trazado_157859" data-name="Trazado 157859" d="M94.388,2.381a2.238,2.238,0,0,0-2.074.263L7.027,51.8a6.834,6.834,0,0,0-3.086,5.343V67.223L0,64.915V54.908a6.805,6.805,0,0,1,3.076-5.333L88.377.418A2.147,2.147,0,0,1,90.614.236c.556.334,3.116,1.8,3.774,2.145" fill="#26cb99"/>
        <path id="Trazado_157860" data-name="Trazado 157860" d="M95.393,4.405c-.012-1.947-1.385-2.735-3.08-1.756L7.025,51.805a6.814,6.814,0,0,0-3.082,5.339l0,10.083,91.447-52.7Z" fill="#5ae6bc"/>
        <g id="Grupo_70628" data-name="Grupo 70628" opacity="0.4">
          <g id="Grupo_70627" data-name="Grupo 70627">
            <g id="Grupo_70626" data-name="Grupo 70626" clip-path="url(#clip-path-5)">
              <path id="Trazado_157861" data-name="Trazado 157861" d="M92.323,2.647,7.04,51.8a6.336,6.336,0,0,0-2.171,2.288L.952,51.823A6.16,6.16,0,0,1,3.1,49.572L88.386.415a2.17,2.17,0,0,1,2.24-.182c.553.339,3.112,1.794,3.762,2.143a2.228,2.228,0,0,0-2.065.271" fill="#fff"/>
            </g>
          </g>
        </g>
        <g id="Grupo_70631" data-name="Grupo 70631" opacity="0.15">
          <g id="Grupo_70630" data-name="Grupo 70630">
            <g id="Grupo_70629" data-name="Grupo 70629" clip-path="url(#clip-path-6)">
              <path id="Trazado_157862" data-name="Trazado 157862" d="M0,64.928,0,54.9A6.355,6.355,0,0,1,.94,51.823l3.927,2.258a6.234,6.234,0,0,0-.921,3.064V67.227Z"/>
            </g>
          </g>
        </g>
        <path id="Trazado_157863" data-name="Trazado 157863" d="M76.825,15.883a4.593,4.593,0,0,0-1.742,3.687c0,1.481.78,2.232,1.742,1.676a4.593,4.593,0,0,0,1.742-3.687c0-1.481-.78-2.231-1.742-1.676" fill="#5f7d7c"/>
        <path id="Trazado_157864" data-name="Trazado 157864" d="M83.1,12.255a4.593,4.593,0,0,0-1.742,3.687c0,1.481.78,2.232,1.742,1.676a4.593,4.593,0,0,0,1.742-3.687c0-1.481-.78-2.231-1.742-1.676" fill="#5f7d7c"/>
        <path id="Trazado_157865" data-name="Trazado 157865" d="M89.366,8.628a4.6,4.6,0,0,0-1.742,3.687c0,1.481.78,2.232,1.742,1.676A4.593,4.593,0,0,0,91.108,10.3c0-1.481-.78-2.231-1.742-1.676" fill="#5f7d7c"/>
        <g id="Grupo_70634" data-name="Grupo 70634" opacity="0.9">
          <g id="Grupo_70633" data-name="Grupo 70633">
            <g id="Grupo_70632" data-name="Grupo 70632" clip-path="url(#clip-path-7)">
              <path id="Trazado_157866" data-name="Trazado 157866" d="M5.074,207.441c-.111-.071-.243-.142-.385-.223-.283-.172-.607-.354-.951-.536l-.01-.01c-.172-.1-.344-.2-.516-.293a.071.071,0,0,0-.04-.021c-.284-.162-.557-.324-.81-.465s-.5-.284-.678-.385-.324-.182-.385-.212a1.73,1.73,0,0,1-.525-.425,2.328,2.328,0,0,1-.416-.628A3.822,3.822,0,0,1,0,202.614V64.915l3.937,2.308V204.851a4.583,4.583,0,0,0,.324,1.558,2.409,2.409,0,0,0,.566.809A.5.5,0,0,0,5,207.37a.229.229,0,0,0,.071.071" fill="#21675d"/>
            </g>
          </g>
        </g>
        <path id="Trazado_157867" data-name="Trazado 157867" d="M11.516,75.6a1.232,1.232,0,0,1,.157-.576l2.217-4.587a.444.444,0,0,1,.1-.135l.057-.042a.134.134,0,0,1,.174.013.3.3,0,0,1,.073.225V72.04a1.981,1.981,0,0,1-.046.475,2.239,2.239,0,0,1-.157.42l-1.169,2.424,1.169,1.074a.589.589,0,0,1,.157.238,1.38,1.38,0,0,1,.046.424v1.541a.736.736,0,0,1-.073.311.481.481,0,0,1-.174.213l-.057.024a.107.107,0,0,1-.1-.02l-2.217-2.028a.458.458,0,0,1-.157-.394Z" fill="#5ae6bc"/>
        <path id="Trazado_157868" data-name="Trazado 157868" d="M19.624,64.1a2.357,2.357,0,0,1,.168-.452.806.806,0,0,1,.326-.352l.832-.481a.134.134,0,0,1,.175.012.3.3,0,0,1,.072.226.775.775,0,0,1-.022.169l-3.8,16.2a2.126,2.126,0,0,1-.158.437.813.813,0,0,1-.337.368l-.8.461a.131.131,0,0,1-.173-.012.3.3,0,0,1-.074-.227.782.782,0,0,1,.022-.168Z" fill="#5ae6bc"/>
        <path id="Trazado_157869" data-name="Trazado 157869" d="M25.5,68.666a1.228,1.228,0,0,1-.157.575l-2.216,4.586a.448.448,0,0,1-.1.137c-.03.023-.049.037-.056.041a.134.134,0,0,1-.175-.012.308.308,0,0,1-.072-.227v-1.54a2.039,2.039,0,0,1,.045-.476,2.258,2.258,0,0,1,.157-.42l1.17-2.424-1.17-1.074a.6.6,0,0,1-.157-.238,1.42,1.42,0,0,1-.045-.424V65.629a.727.727,0,0,1,.072-.31.476.476,0,0,1,.175-.213c.007,0,.026-.012.056-.024a.112.112,0,0,1,.1.019l2.216,2.028a.461.461,0,0,1,.157.4Z" fill="#5ae6bc"/>
        <path id="Trazado_157870" data-name="Trazado 157870" d="M31.667,67.6a.165.165,0,0,1,.214.015.371.371,0,0,1,.09.277v1.7a.889.889,0,0,1-.09.381.582.582,0,0,1-.214.262l-1.045.6a.162.162,0,0,1-.214-.015.369.369,0,0,1-.09-.277v-1.7a.885.885,0,0,1,.09-.381.558.558,0,0,1,.214-.262Z" fill="#5ae6bc"/>
        <path id="Trazado_157871" data-name="Trazado 157871" d="M35.165,65.582a.164.164,0,0,1,.214.015.37.37,0,0,1,.089.277v1.7a.887.887,0,0,1-.089.381.582.582,0,0,1-.214.262l-1.047.6A.161.161,0,0,1,33.9,68.8a.369.369,0,0,1-.09-.277v-1.7a.885.885,0,0,1,.09-.381.568.568,0,0,1,.213-.262Z" fill="#5ae6bc"/>
        <path id="Trazado_157872" data-name="Trazado 157872" d="M38.662,63.563a.165.165,0,0,1,.214.015.372.372,0,0,1,.09.277v1.7a.889.889,0,0,1-.09.381.582.582,0,0,1-.214.262l-1.046.6a.162.162,0,0,1-.213-.014.373.373,0,0,1-.09-.278v-1.7a.885.885,0,0,1,.09-.381.562.562,0,0,1,.213-.262Z" fill="#5ae6bc"/>
        <path id="Trazado_157873" data-name="Trazado 157873" d="M12.45,87.972,63.693,58.386c.6-.349,1.1-.1,1.1.555a2.347,2.347,0,0,1-1.1,1.818L12.45,90.345c-.606.349-1.1.1-1.1-.554a2.347,2.347,0,0,1,1.1-1.819" fill="#5ae6bc"/>
        <path id="Trazado_157874" data-name="Trazado 157874" d="M28.891,106.956,80.135,77.37c.6-.349,1.1-.1,1.1.555a2.35,2.35,0,0,1-1.1,1.819L28.891,109.329c-.605.349-1.1.1-1.1-.554a2.348,2.348,0,0,1,1.1-1.819" fill="#f3f3f3"/>
        <path id="Trazado_157875" data-name="Trazado 157875" d="M28.891,116.449,53.418,102.3c.6-.349,1.1-.1,1.1.554a2.348,2.348,0,0,1-1.1,1.819l-24.527,14.15c-.605.35-1.1.1-1.1-.554a2.348,2.348,0,0,1,1.1-1.819" fill="#f3f3f3"/>
        <path id="Trazado_157876" data-name="Trazado 157876" d="M28.891,125.941l24.527-14.15c.6-.349,1.1-.1,1.1.554a2.348,2.348,0,0,1-1.1,1.819l-24.527,14.15c-.605.349-1.1.1-1.1-.554a2.348,2.348,0,0,1,1.1-1.819" fill="#f3f3f3"/>
        <path id="Trazado_157877" data-name="Trazado 157877" d="M67.939,55.934,88.355,44.1c.6-.349,1.095-.1,1.095.554a2.347,2.347,0,0,1-1.095,1.819L67.939,58.307c-.605.35-1.1.1-1.1-.554a2.348,2.348,0,0,1,1.1-1.819" fill="#5ae6bc"/>
        <path id="Trazado_157878" data-name="Trazado 157878" d="M12.45,192.379l51.243-29.586c.6-.349,1.1-.1,1.1.555a2.35,2.35,0,0,1-1.1,1.819L12.45,194.752c-.606.35-1.1.1-1.1-.554a2.347,2.347,0,0,1,1.1-1.819" fill="#5ae6bc"/>
        <path id="Trazado_157879" data-name="Trazado 157879" d="M67.939,160.341,88.355,148.51c.6-.349,1.095-.1,1.095.554a2.347,2.347,0,0,1-1.095,1.819L67.939,162.714c-.605.35-1.1.1-1.1-.554a2.348,2.348,0,0,1,1.1-1.819" fill="#5ae6bc"/>
        <path id="Trazado_157880" data-name="Trazado 157880" d="M67.939,131.915l20.416-11.831c.6-.349,1.095-.1,1.095.555a2.35,2.35,0,0,1-1.095,1.819l-20.416,11.83c-.605.35-1.1.1-1.1-.554a2.348,2.348,0,0,1,1.1-1.819" fill="#5ae6bc"/>
        <path id="Trazado_157881" data-name="Trazado 157881" d="M67.939,141.4l20.416-11.831c.6-.349,1.095-.1,1.095.554a2.347,2.347,0,0,1-1.095,1.819L67.939,143.778c-.605.349-1.1.1-1.1-.554a2.348,2.348,0,0,1,1.1-1.819" fill="#5ae6bc"/>
        <path id="Trazado_157882" data-name="Trazado 157882" d="M12.45,182.9l51.243-29.586c.6-.349,1.1-.1,1.1.554a2.347,2.347,0,0,1-1.1,1.819L12.45,185.27c-.606.349-1.1.1-1.1-.554a2.347,2.347,0,0,1,1.1-1.819" fill="#fbfbfb"/>
        <path id="Trazado_157883" data-name="Trazado 157883" d="M50.531,141.937,62,135.315c.6-.349,1.1-.1,1.1.554a2.348,2.348,0,0,1-1.1,1.819L50.531,144.31c-.6.35-1.095.1-1.095-.554a2.348,2.348,0,0,1,1.095-1.819" fill="#5ae6bc"/>
        <path id="Trazado_157884" data-name="Trazado 157884" d="M12.45,97.486,42.339,80.217c.6-.35,1.095-.1,1.095.554a2.351,2.351,0,0,1-1.095,1.819L12.45,99.859c-.606.349-1.1.1-1.1-.554a2.347,2.347,0,0,1,1.1-1.819" fill="#9bf9da"/>
        <g id="Grupo_70637" data-name="Grupo 70637" opacity="0.6">
          <g id="Grupo_70636" data-name="Grupo 70636">
            <g id="Grupo_70635" data-name="Grupo 70635" clip-path="url(#clip-path-8)">
              <path id="Trazado_157885" data-name="Trazado 157885" d="M12.45,97.486,42.339,80.217c.6-.35,1.095-.1,1.095.554a2.351,2.351,0,0,1-1.095,1.819L12.45,99.859c-.606.349-1.1.1-1.1-.554a2.347,2.347,0,0,1,1.1-1.819" fill="#9bf9da"/>
            </g>
          </g>
        </g>
        <path id="Trazado_157886" data-name="Trazado 157886" d="M12.45,106.96,22.59,101.1c.6-.35,1.095-.1,1.095.554a2.353,2.353,0,0,1-1.095,1.819l-10.14,5.861c-.606.349-1.1.1-1.1-.554a2.347,2.347,0,0,1,1.1-1.819" fill="#9bf9da"/>
        <g id="Grupo_70640" data-name="Grupo 70640" opacity="0.6">
          <g id="Grupo_70639" data-name="Grupo 70639">
            <g id="Grupo_70638" data-name="Grupo 70638" clip-path="url(#clip-path-9)">
              <path id="Trazado_157887" data-name="Trazado 157887" d="M12.45,106.96,22.59,101.1c.6-.35,1.095-.1,1.095.554a2.353,2.353,0,0,1-1.095,1.819l-10.14,5.861c-.606.349-1.1.1-1.1-.554a2.347,2.347,0,0,1,1.1-1.819" fill="#9bf9da"/>
            </g>
          </g>
        </g>
        <path id="Trazado_157888" data-name="Trazado 157888" d="M12.45,116.452l10.14-5.861c.6-.35,1.095-.1,1.095.554a2.353,2.353,0,0,1-1.095,1.819l-10.14,5.861c-.606.349-1.1.1-1.1-.554a2.347,2.347,0,0,1,1.1-1.819" fill="#9bf9da"/>
        <g id="Grupo_70643" data-name="Grupo 70643" opacity="0.6">
          <g id="Grupo_70642" data-name="Grupo 70642">
            <g id="Grupo_70641" data-name="Grupo 70641" clip-path="url(#clip-path-10)">
              <path id="Trazado_157889" data-name="Trazado 157889" d="M12.45,116.452l10.14-5.861c.6-.35,1.095-.1,1.095.554a2.353,2.353,0,0,1-1.095,1.819l-10.14,5.861c-.606.349-1.1.1-1.1-.554a2.347,2.347,0,0,1,1.1-1.819" fill="#9bf9da"/>
            </g>
          </g>
        </g>
        <path id="Trazado_157890" data-name="Trazado 157890" d="M12.45,125.944l10.14-5.861c.6-.35,1.095-.1,1.095.554a2.351,2.351,0,0,1-1.095,1.819l-10.14,5.861c-.606.35-1.1.1-1.1-.554a2.347,2.347,0,0,1,1.1-1.819" fill="#9bf9da"/>
        <g id="Grupo_70646" data-name="Grupo 70646" opacity="0.6">
          <g id="Grupo_70645" data-name="Grupo 70645">
            <g id="Grupo_70644" data-name="Grupo 70644" clip-path="url(#clip-path-11)">
              <path id="Trazado_157891" data-name="Trazado 157891" d="M12.45,125.944l10.14-5.861c.6-.35,1.095-.1,1.095.554a2.351,2.351,0,0,1-1.095,1.819l-10.14,5.861c-.606.35-1.1.1-1.1-.554a2.347,2.347,0,0,1,1.1-1.819" fill="#9bf9da"/>
            </g>
          </g>
        </g>
        <path id="Trazado_157892" data-name="Trazado 157892" d="M12.45,135.436l10.14-5.861c.6-.35,1.095-.1,1.095.554a2.353,2.353,0,0,1-1.095,1.819l-10.14,5.861c-.606.349-1.1.1-1.1-.554a2.347,2.347,0,0,1,1.1-1.819" fill="#9bf9da"/>
        <g id="Grupo_70649" data-name="Grupo 70649" opacity="0.6">
          <g id="Grupo_70648" data-name="Grupo 70648">
            <g id="Grupo_70647" data-name="Grupo 70647" clip-path="url(#clip-path-12)">
              <path id="Trazado_157893" data-name="Trazado 157893" d="M12.45,135.436l10.14-5.861c.6-.35,1.095-.1,1.095.554a2.353,2.353,0,0,1-1.095,1.819l-10.14,5.861c-.606.349-1.1.1-1.1-.554a2.347,2.347,0,0,1,1.1-1.819" fill="#9bf9da"/>
            </g>
          </g>
        </g>
        <path id="Trazado_157894" data-name="Trazado 157894" d="M46.585,77.764l13-7.48c.6-.349,1.1-.1,1.1.554a2.351,2.351,0,0,1-1.1,1.819l-13,7.48c-.6.349-1.095.1-1.095-.554a2.348,2.348,0,0,1,1.095-1.819" fill="#9bf9da"/>
        <g id="Grupo_70652" data-name="Grupo 70652" opacity="0.6">
          <g id="Grupo_70651" data-name="Grupo 70651">
            <g id="Grupo_70650" data-name="Grupo 70650" clip-path="url(#clip-path-13)">
              <path id="Trazado_157895" data-name="Trazado 157895" d="M46.585,77.764l13-7.48c.6-.349,1.1-.1,1.1.554a2.351,2.351,0,0,1-1.1,1.819l-13,7.48c-.6.349-1.095.1-1.095-.554a2.348,2.348,0,0,1,1.095-1.819" fill="#9bf9da"/>
            </g>
          </g>
        </g>
        <path id="Trazado_157896" data-name="Trazado 157896" d="M41.222,128.3l29.889-17.269c.605-.35,1.1-.1,1.1.554a2.35,2.35,0,0,1-1.1,1.819L41.222,130.673c-.6.35-1.1.1-1.1-.554a2.348,2.348,0,0,1,1.1-1.819" fill="#fbfbfb"/>
        <path id="Trazado_157897" data-name="Trazado 157897" d="M58.466,127.875l29.889-17.269c.606-.35,1.1-.1,1.1.554a2.347,2.347,0,0,1-1.1,1.819L58.466,130.248c-.6.349-1.1.1-1.1-.554a2.348,2.348,0,0,1,1.1-1.819" fill="#fbfbfb"/>
        <path id="Trazado_157898" data-name="Trazado 157898" d="M75.358,108.579l13-7.48c.6-.349,1.095-.1,1.095.554a2.348,2.348,0,0,1-1.095,1.819l-13,7.48c-.605.349-1.1.1-1.1-.554a2.348,2.348,0,0,1,1.1-1.819" fill="#fbfbfb"/>
        <path id="Trazado_157899" data-name="Trazado 157899" d="M28.89,97.468,58.779,80.2c.6-.35,1.1-.1,1.1.554a2.35,2.35,0,0,1-1.1,1.819L28.89,99.841c-.6.349-1.095.1-1.095-.554a2.348,2.348,0,0,1,1.095-1.819" fill="#9bf9da"/>
        <g id="Grupo_70655" data-name="Grupo 70655" opacity="0.6">
          <g id="Grupo_70654" data-name="Grupo 70654">
            <g id="Grupo_70653" data-name="Grupo 70653" clip-path="url(#clip-path-14)">
              <path id="Trazado_157900" data-name="Trazado 157900" d="M28.89,97.468,58.779,80.2c.6-.35,1.1-.1,1.1.554a2.35,2.35,0,0,1-1.1,1.819L28.89,99.841c-.6.349-1.095.1-1.095-.554a2.348,2.348,0,0,1,1.095-1.819" fill="#9bf9da"/>
            </g>
          </g>
        </g>
        <path id="Trazado_157901" data-name="Trazado 157901" d="M63.026,77.747l13-7.48c.6-.349,1.1-.1,1.1.554a2.348,2.348,0,0,1-1.1,1.819l-13,7.48c-.6.35-1.1.1-1.1-.554a2.348,2.348,0,0,1,1.1-1.819" fill="#9bf9da"/>
        <g id="Grupo_70658" data-name="Grupo 70658" opacity="0.6">
          <g id="Grupo_70657" data-name="Grupo 70657">
            <g id="Grupo_70656" data-name="Grupo 70656" clip-path="url(#clip-path-15)">
              <path id="Trazado_157902" data-name="Trazado 157902" d="M63.026,77.747l13-7.48c.6-.349,1.1-.1,1.1.554a2.348,2.348,0,0,1-1.1,1.819l-13,7.48c-.6.35-1.1.1-1.1-.554a2.348,2.348,0,0,1,1.1-1.819" fill="#9bf9da"/>
            </g>
          </g>
        </g>
      </g>
    </g>
  </g>
</svg>
