<svg id="Grupo_70689" data-name="Grupo 70689" xmlns="http://www.w3.org/2000/svg" xmlns:xlink="http://www.w3.org/1999/xlink" width="57.147" height="67.389" viewBox="0 0 57.147 67.389">
  <defs>
    <clipPath id="clip-path">
      <rect id="Rectángulo_8340" data-name="Rectángulo 8340" width="57.147" height="67.389" fill="none"/>
    </clipPath>
    <clipPath id="clip-path-2">
      <rect id="Rectángulo_8339" data-name="Rectángulo 8339" width="57.147" height="67.389" transform="translate(0 0)" fill="none"/>
    </clipPath>
    <clipPath id="clip-path-3">
      <rect id="Rectángulo_8338" data-name="Rectángulo 8338" width="23.153" height="33.386" transform="translate(17.318 19.713)" fill="none"/>
    </clipPath>
  </defs>
  <g id="Grupo_70668" data-name="Grupo 70668" clip-path="url(#clip-path)">
    <g id="Grupo_70667" data-name="Grupo 70667">
      <g id="Grupo_70666" data-name="Grupo 70666" clip-path="url(#clip-path-2)">
        <path id="Trazado_157903" data-name="Trazado 157903" d="M19.947,27.223V15.837L10.335,15a.683.683,0,0,0-.4.081c-.372.2-9.472,5.41-9.591,5.481a.705.705,0,0,0-.156,1.084l10.19,11.046Z" fill="#00f2cf"/>
        <path id="Trazado_157904" data-name="Trazado 157904" d="M10.379,32.692.189,21.646a.7.7,0,0,1,.578-1.178l9.612.838Z" fill="#21675d"/>
        <path id="Trazado_157905" data-name="Trazado 157905" d="M19.943,15.833l-9.564,5.476L.765,20.467a.727.727,0,0,0-.331.049c.768-.453,9.151-5.249,9.5-5.436A.672.672,0,0,1,10.338,15Z" fill="#00f2cf"/>
        <path id="Trazado_157906" data-name="Trazado 157906" d="M19.943,15.833l-9.564,5.476L.765,20.467a.727.727,0,0,0-.331.049c.768-.453,9.151-5.249,9.5-5.436A.672.672,0,0,1,10.338,15Z" fill="#5f7d7c"/>
        <path id="Trazado_157907" data-name="Trazado 157907" d="M10.4,8.459a7.66,7.66,0,0,1,3.465-6L16.683.829a7.656,7.656,0,0,1,6.929,0l30.07,17.362a7.659,7.659,0,0,1,3.465,6V58.93a7.661,7.661,0,0,1-3.465,6l-2.821,1.629a7.664,7.664,0,0,1-6.93,0l-8.877-5.126L23.515,54.769,13.861,49.2a7.656,7.656,0,0,1-3.464-6Z" fill="#21675d"/>
        <path id="Trazado_157908" data-name="Trazado 157908" d="M57.147,58.93a7.657,7.657,0,0,1-3.465,6L50.861,66.56a7.741,7.741,0,0,1-6.338.279c1.631.617,2.873-.3,2.873-2.279V29.822a7.092,7.092,0,0,0-1.014-3.415l9.75-5.629a7.083,7.083,0,0,1,1.015,3.415Z" fill="#144e45"/>
        <path id="Trazado_157909" data-name="Trazado 157909" d="M10.51,7.474c.4-1.471,1.746-1.94,3.346-1.018L43.933,23.824a6.871,6.871,0,0,1,2.441,2.586l9.747-5.625A6.988,6.988,0,0,0,53.68,18.2L23.619.83a7.706,7.706,0,0,0-6.935,0L13.856,2.463A7.64,7.64,0,0,0,10.51,7.474" fill="#5f7d7c"/>
        <path id="Trazado_157910" data-name="Trazado 157910" d="M35.592,34.992c.71-3.6.415-6.907-1-8.786a3.333,3.333,0,0,0-2.716-1.44c-.083,0-.166,0-.249.008a5.415,5.415,0,0,0-2.654,1.043c-2.03-3.776-4.016-6.1-5.433-6.1a1.254,1.254,0,0,0-.2.017,1.308,1.308,0,0,0-.908.682c-.685,1.145-.724,3.631-.2,6.906a5.608,5.608,0,0,0-3.743.265,2.363,2.363,0,0,0-1.16,2.182c0,2.17,1.912,5.151,4.879,7.993-.71,3.6-.416,6.908,1,8.787a3.805,3.805,0,0,0,1.126,1.021,3.123,3.123,0,0,0,1.586.422,3.99,3.99,0,0,0,1.06-.152,6.337,6.337,0,0,0,1.907-.961c1.613,3.016,3.215,5.176,4.508,5.923a1.963,1.963,0,0,0,.967.3,1.158,1.158,0,0,0,.2-.018,1.308,1.308,0,0,0,.908-.682c.687-1.149.725-3.647.2-6.936a9.008,9.008,0,0,0,1.594.163,4.083,4.083,0,0,0,2.049-.458,2.362,2.362,0,0,0,1.161-2.182c0-2.17-1.911-5.152-4.878-7.994m-3.431,5.794a19.9,19.9,0,0,1-1.1,1.751c-.663-.318-1.361-.682-2.1-1.11s-1.445-.873-2.123-1.332q-.586-1.506-1.147-3.159-.547-1.625-.978-3.115c.275-.62.577-1.241.918-1.856a20.512,20.512,0,0,1,1.094-1.75c.667.32,1.365.679,2.11,1.109Q30,32,31.063,32.728q.578,1.494,1.14,3.147.516,1.525.929,2.938c-.288.659-.609,1.319-.971,1.973m.981-5.11c-.224-.662-.454-1.308-.686-1.943.671.508,1.3,1.024,1.891,1.542-.175.693-.391,1.4-.649,2.115-.177-.565-.36-1.135-.556-1.714m-4.185-5.64c-.508-.293-1.006-.557-1.5-.808a12.282,12.282,0,0,1,1.423-1.5c.471.952.948,2,1.426,3.134-.443-.283-.892-.56-1.351-.825m-4.251.882c-.182.328-.353.661-.518,1-.269-1.044-.5-2.032-.678-2.946a18.109,18.109,0,0,1,1.955.685c-.259.4-.514.822-.759,1.265m.043,6.216c.227.671.462,1.327.7,1.976-.716-.537-1.386-1.085-2.01-1.634a22.383,22.383,0,0,1,.695-2.247c.194.627.4,1.261.614,1.9m4.082,5.581c.5.291,1,.554,1.489.8a12.955,12.955,0,0,1-1.356,1.452q-.682-1.388-1.371-3.005.61.385,1.238.75m4.25-.882q.3-.549.577-1.112c.287,1.1.527,2.136.717,3.094a18.27,18.27,0,0,1-2.057-.714c.261-.4.517-.823.763-1.268M31.723,31.816c-.678-1.7-1.377-3.278-2.08-4.692a5.6,5.6,0,0,1,1.671-.837,3.2,3.2,0,0,1,.859-.123,2.257,2.257,0,0,1,1.141.29,2.284,2.284,0,0,1,.68.611c.956,1.266,1.211,3.916.616,7.025a35.013,35.013,0,0,0-2.887-2.274m-5.538-3.189a20.289,20.289,0,0,0-2.928-1.068c-.5-3.1-.438-5.231.059-6.062a.674.674,0,0,1,.449-.36.562.562,0,0,1,.092-.007,1.123,1.123,0,0,1,.542.177c.948.547,2.317,2.33,3.808,5.111a13.74,13.74,0,0,0-2.022,2.209m-2.622,4.665a23.877,23.877,0,0,0-1.1,3.282c-2.567-2.476-4.091-4.88-4.091-6.347a1.45,1.45,0,0,1,.762-1.339,3.429,3.429,0,0,1,1.7-.357,8.689,8.689,0,0,1,1.636.181c.275,1.42.643,2.958,1.1,4.58m2.619,7.726c.656,1.64,1.34,3.173,2.031,4.565a4.817,4.817,0,0,1-2.4,1,2.206,2.206,0,0,1-2.018-.9c-.957-1.266-1.212-3.916-.616-7.026a35.1,35.1,0,0,0,3,2.358M31.6,44.131a20.246,20.246,0,0,0,3.028,1.1c.5,3.111.443,5.25-.055,6.083a.68.68,0,0,1-.451.36c-.9.159-2.616-1.867-4.491-5.393a13.786,13.786,0,0,0,1.969-2.15m2.672-4.8a23.8,23.8,0,0,0,1.05-3.154c2.568,2.477,4.091,4.88,4.091,6.346a1.449,1.449,0,0,1-.762,1.339,4.955,4.955,0,0,1-3.236.2c-.284-1.462-.669-3.052-1.143-4.728" fill="#00f2cf"/>
        <path id="Trazado_157911" data-name="Trazado 157911" d="M30.927,37.549c0,1.5-.911,2.185-2.034,1.537A4.869,4.869,0,0,1,26.861,35.2c0-1.5.91-2.185,2.032-1.536a4.866,4.866,0,0,1,2.034,3.883" fill="#00f2cf"/>
        <g id="Grupo_70665" data-name="Grupo 70665" opacity="0.65">
          <g id="Grupo_70664" data-name="Grupo 70664">
            <g id="Grupo_70663" data-name="Grupo 70663" clip-path="url(#clip-path-3)">
              <path id="Trazado_157912" data-name="Trazado 157912" d="M35.592,34.992c.71-3.6.415-6.907-1-8.786a3.333,3.333,0,0,0-2.716-1.44c-.083,0-.166,0-.249.008a5.415,5.415,0,0,0-2.654,1.043c-2.03-3.776-4.016-6.1-5.433-6.1a1.254,1.254,0,0,0-.2.017,1.308,1.308,0,0,0-.908.682c-.685,1.145-.724,3.631-.2,6.906a5.608,5.608,0,0,0-3.743.265,2.363,2.363,0,0,0-1.16,2.182c0,2.17,1.912,5.151,4.879,7.993-.71,3.6-.416,6.908,1,8.787a3.805,3.805,0,0,0,1.126,1.021,3.123,3.123,0,0,0,1.586.422,3.99,3.99,0,0,0,1.06-.152,6.337,6.337,0,0,0,1.907-.961c1.613,3.016,3.215,5.176,4.508,5.923a1.963,1.963,0,0,0,.967.3,1.158,1.158,0,0,0,.2-.018,1.308,1.308,0,0,0,.908-.682c.687-1.149.725-3.647.2-6.936a9.008,9.008,0,0,0,1.594.163,4.083,4.083,0,0,0,2.049-.458,2.362,2.362,0,0,0,1.161-2.182c0-2.17-1.911-5.152-4.878-7.994m-3.431,5.794a19.9,19.9,0,0,1-1.1,1.751c-.663-.318-1.361-.682-2.1-1.11s-1.445-.873-2.123-1.332q-.586-1.506-1.147-3.159-.547-1.625-.978-3.115c.275-.62.577-1.241.918-1.856a20.512,20.512,0,0,1,1.094-1.75c.667.32,1.365.679,2.11,1.109Q30,32,31.063,32.728q.578,1.494,1.14,3.147.516,1.525.929,2.938c-.288.659-.609,1.319-.971,1.973m.981-5.11c-.224-.662-.454-1.308-.686-1.943.671.508,1.3,1.024,1.891,1.542-.175.693-.391,1.4-.649,2.115-.177-.565-.36-1.135-.556-1.714m-4.185-5.64c-.508-.293-1.006-.557-1.5-.808a12.282,12.282,0,0,1,1.423-1.5c.471.952.948,2,1.426,3.134-.443-.283-.892-.56-1.351-.825m-4.251.882c-.182.328-.353.661-.518,1-.269-1.044-.5-2.032-.678-2.946a18.109,18.109,0,0,1,1.955.685c-.259.4-.514.822-.759,1.265m.043,6.216c.227.671.462,1.327.7,1.976-.716-.537-1.386-1.085-2.01-1.634a22.383,22.383,0,0,1,.695-2.247c.194.627.4,1.261.614,1.9m4.082,5.581c.5.291,1,.554,1.489.8a12.955,12.955,0,0,1-1.356,1.452q-.682-1.388-1.371-3.005.61.385,1.238.75m4.25-.882q.3-.549.577-1.112c.287,1.1.527,2.136.717,3.094a18.27,18.27,0,0,1-2.057-.714c.261-.4.517-.823.763-1.268M31.723,31.816c-.678-1.7-1.377-3.278-2.08-4.692a5.6,5.6,0,0,1,1.671-.837,3.2,3.2,0,0,1,.859-.123,2.257,2.257,0,0,1,1.141.29,2.284,2.284,0,0,1,.68.611c.956,1.266,1.211,3.916.616,7.025a35.013,35.013,0,0,0-2.887-2.274m-5.538-3.189a20.289,20.289,0,0,0-2.928-1.068c-.5-3.1-.438-5.231.059-6.062a.674.674,0,0,1,.449-.36.562.562,0,0,1,.092-.007,1.123,1.123,0,0,1,.542.177c.948.547,2.317,2.33,3.808,5.111a13.74,13.74,0,0,0-2.022,2.209m-2.622,4.665a23.877,23.877,0,0,0-1.1,3.282c-2.567-2.476-4.091-4.88-4.091-6.347a1.45,1.45,0,0,1,.762-1.339,3.429,3.429,0,0,1,1.7-.357,8.689,8.689,0,0,1,1.636.181c.275,1.42.643,2.958,1.1,4.58m2.619,7.726c.656,1.64,1.34,3.173,2.031,4.565a4.817,4.817,0,0,1-2.4,1,2.206,2.206,0,0,1-2.018-.9c-.957-1.266-1.212-3.916-.616-7.026a35.1,35.1,0,0,0,3,2.358M31.6,44.131a20.246,20.246,0,0,0,3.028,1.1c.5,3.111.443,5.25-.055,6.083a.68.68,0,0,1-.451.36c-.9.159-2.616-1.867-4.491-5.393a13.786,13.786,0,0,0,1.969-2.15m2.672-4.8a23.8,23.8,0,0,0,1.05-3.154c2.568,2.477,4.091,4.88,4.091,6.346a1.449,1.449,0,0,1-.762,1.339,4.955,4.955,0,0,1-3.236.2c-.284-1.462-.669-3.052-1.143-4.728" fill="#fff"/>
              <path id="Trazado_157913" data-name="Trazado 157913" d="M30.927,37.549c0,1.5-.911,2.185-2.034,1.537A4.869,4.869,0,0,1,26.861,35.2c0-1.5.91-2.185,2.032-1.536a4.866,4.866,0,0,1,2.034,3.883" fill="#fff"/>
            </g>
          </g>
        </g>
      </g>
    </g>
  </g>
</svg>
