<svg id="Grupo_71280" data-name="Grupo 71280" xmlns="http://www.w3.org/2000/svg" xmlns:xlink="http://www.w3.org/1999/xlink" width="210.001" height="189.136" viewBox="0 0 210.001 189.136">
  <defs>
    <clipPath id="clip-path">
      <rect id="Rectángulo_8622" data-name="Rectángulo 8622" width="210.001" height="189.136" fill="none"/>
    </clipPath>
    <clipPath id="clip-path-2">
      <rect id="Rectángulo_8601" data-name="Rectángulo 8601" width="210" height="176.66" transform="translate(0 12.476)" fill="none"/>
    </clipPath>
    <clipPath id="clip-path-4">
      <rect id="Rectángulo_8602" data-name="Rectángulo 8602" width="136.123" height="79.604" transform="translate(44.334 81.764)" fill="none"/>
    </clipPath>
    <clipPath id="clip-path-5">
      <rect id="Rectángulo_8604" data-name="Rectángulo 8604" width="74.736" height="47.775" transform="translate(67.679 103.268)" fill="none"/>
    </clipPath>
    <clipPath id="clip-path-6">
      <rect id="Rectángulo_8603" data-name="Rectángulo 8603" width="74.718" height="30.336" transform="translate(67.697 103.268)" fill="none"/>
    </clipPath>
    <clipPath id="clip-path-7">
      <path id="Trazado_158737" data-name="Trazado 158737" d="M70.985,7.464,56.5,79.887,154.69,136.7l15.046-73.365Z" fill="none"/>
    </clipPath>
    <linearGradient id="linear-gradient" x1="-0.228" y1="1.215" x2="-0.222" y2="1.215" gradientUnits="objectBoundingBox">
      <stop offset="0" stop-color="#1bb274"/>
      <stop offset="1" stop-color="#1c9271"/>
    </linearGradient>
    <clipPath id="clip-path-9">
      <rect id="Rectángulo_8619" data-name="Rectángulo 8619" width="92.407" height="111.475" transform="translate(64.293 17.553)" fill="none"/>
    </clipPath>
    <clipPath id="clip-path-11">
      <rect id="Rectángulo_8607" data-name="Rectángulo 8607" width="16.142" height="11.741" transform="translate(82.749 23.771)" fill="none"/>
    </clipPath>
    <clipPath id="clip-path-12">
      <rect id="Rectángulo_8608" data-name="Rectángulo 8608" width="36.533" height="23.368" transform="translate(78.596 35.225)" fill="none"/>
    </clipPath>
    <clipPath id="clip-path-13">
      <rect id="Rectángulo_8609" data-name="Rectángulo 8609" width="21.955" height="14.566" transform="translate(125.11 66.593)" fill="none"/>
    </clipPath>
    <clipPath id="clip-path-14">
      <rect id="Rectángulo_8610" data-name="Rectángulo 8610" width="21.961" height="14.572" transform="translate(126.215 61.68)" fill="none"/>
    </clipPath>
    <clipPath id="clip-path-15">
      <rect id="Rectángulo_8611" data-name="Rectángulo 8611" width="36.534" height="23.368" transform="translate(77.267 41.118)" fill="none"/>
    </clipPath>
    <clipPath id="clip-path-16">
      <rect id="Rectángulo_8612" data-name="Rectángulo 8612" width="39.81" height="25.406" transform="translate(113.265 41.387)" fill="none"/>
    </clipPath>
    <clipPath id="clip-path-18">
      <rect id="Rectángulo_8614" data-name="Rectángulo 8614" width="34.032" height="33.194" transform="translate(74.402 52.502)" fill="none"/>
    </clipPath>
    <clipPath id="clip-path-19">
      <rect id="Rectángulo_8615" data-name="Rectángulo 8615" width="24.953" height="27.848" transform="translate(116.354 92.12)" fill="none"/>
    </clipPath>
    <clipPath id="clip-path-20">
      <rect id="Rectángulo_8617" data-name="Rectángulo 8617" width="21.957" height="14.574" transform="translate(123.78 72.478)" fill="none"/>
    </clipPath>
    <clipPath id="clip-path-21">
      <rect id="Rectángulo_8618" data-name="Rectángulo 8618" width="21.958" height="14.572" transform="translate(122.672 77.39)" fill="none"/>
    </clipPath>
  </defs>
  <g id="Grupo_71279" data-name="Grupo 71279" clip-path="url(#clip-path)">
    <g id="Grupo_71222" data-name="Grupo 71222">
      <g id="Grupo_71221" data-name="Grupo 71221" clip-path="url(#clip-path-2)">
        <path id="Trazado_158725" data-name="Trazado 158725" d="M13.466,46.763A81.731,81.731,0,0,0,1.221,77.417c-7.746,44.216,22.43,79.838,60.283,97.8,19.612,9.308,41.3,14.764,62.986,13.807s43.343-8.606,59.579-23.016,26.579-35.8,25.9-57.5-13.079-43.092-32.447-52.9c-16.753-8.482-36.731-8.067-54.06-15.3a95.468,95.468,0,0,1-22.068-13.032C86.96,16,72.12,8.376,53.623,14.856A80.381,80.381,0,0,0,13.466,46.763" fill="#d1fff1"/>
      </g>
    </g>
    <g id="Grupo_71233" data-name="Grupo 71233">
      <g id="Grupo_71232" data-name="Grupo 71232" clip-path="url(#clip-path)">
        <g id="Grupo_71225" data-name="Grupo 71225" opacity="0.1">
          <g id="Grupo_71224" data-name="Grupo 71224">
            <g id="Grupo_71223" data-name="Grupo 71223" clip-path="url(#clip-path-4)">
              <path id="Trazado_158726" data-name="Trazado 158726" d="M180.457,137.461l-41.138,23.907-94.985-54.84L86.465,81.764Z"/>
            </g>
          </g>
        </g>
        <g id="Grupo_71231" data-name="Grupo 71231" style="isolation: isolate">
          <g id="Grupo_71230" data-name="Grupo 71230">
            <g id="Grupo_71229" data-name="Grupo 71229" clip-path="url(#clip-path-5)">
              <path id="Trazado_158727" data-name="Trazado 158727" d="M142.415,133.6l-.012,4.553-22.18,12.885.024-4.552Z" fill="#96deb8"/>
              <path id="Trazado_158728" data-name="Trazado 158728" d="M120.247,146.49l-.023,4.553L67.68,120.715l.018-4.562Z" fill="#aaeac6"/>
              <path id="Trazado_158729" data-name="Trazado 158729" d="M142.415,133.6l-22.168,12.886L67.7,116.154,89.87,103.269Z" fill="#dfffec"/>
              <g id="Grupo_71228" data-name="Grupo 71228" opacity="0.5">
                <g id="Grupo_71227" data-name="Grupo 71227">
                  <g id="Grupo_71226" data-name="Grupo 71226" clip-path="url(#clip-path-6)">
                    <path id="Trazado_158730" data-name="Trazado 158730" d="M142.415,133.6,67.7,116.154,89.87,103.269Z" fill="#dfffec"/>
                  </g>
                </g>
              </g>
            </g>
          </g>
        </g>
      </g>
    </g>
    <path id="Trazado_158731" data-name="Trazado 158731" d="M121.932,138.006l3.947-2.291.114-40.992-3.935,2.286Z" fill="#96deb8"/>
    <path id="Trazado_158732" data-name="Trazado 158732" d="M122.057,97.008l3.936-2.285L90.3,74.109,86.361,76.4Z" fill="#c1d1ce"/>
    <path id="Trazado_158733" data-name="Trazado 158733" d="M86.362,76.4l-.126,41,35.7,20.6.126-41Z" fill="#aaeac6"/>
    <path id="Trazado_158734" data-name="Trazado 158734" d="M157.876,142.686l3.812-1.063,16.3-80.4-3.8,1.062Z" fill="#96deb8"/>
    <path id="Trazado_158735" data-name="Trazado 158735" d="M71.943,0l-3.8,1.057L174.187,62.283l3.8-1.063Z" fill="#aaeac6"/>
    <path id="Trazado_158736" data-name="Trazado 158736" d="M68.146,1.056,51.831,81.462l106.044,61.223,16.313-80.4Z" fill="#dfffec"/>
    <g id="Grupo_71235" data-name="Grupo 71235">
      <g id="Grupo_71234" data-name="Grupo 71234" clip-path="url(#clip-path-7)">
        <rect id="Rectángulo_8606" data-name="Rectángulo 8606" width="155.391" height="163.678" transform="translate(9.224 28.029) rotate(-23.51)" fill="url(#linear-gradient)"/>
      </g>
    </g>
    <g id="Grupo_71276" data-name="Grupo 71276">
      <g id="Grupo_71275" data-name="Grupo 71275" clip-path="url(#clip-path)">
        <g id="Grupo_71274" data-name="Grupo 71274">
          <g id="Grupo_71273" data-name="Grupo 71273">
            <g id="Grupo_71272" data-name="Grupo 71272" clip-path="url(#clip-path-9)">
              <g id="Grupo_71265" data-name="Grupo 71265" style="isolation: isolate">
                <g id="Grupo_71264" data-name="Grupo 71264">
                  <g id="Grupo_71263" data-name="Grupo 71263" clip-path="url(#clip-path-9)">
                    <g id="Grupo_71238" data-name="Grupo 71238">
                      <g id="Grupo_71237" data-name="Grupo 71237">
                        <g id="Grupo_71236" data-name="Grupo 71236" clip-path="url(#clip-path-11)">
                          <path id="Trazado_158738" data-name="Trazado 158738" d="M83.379,23.771l-.63,2.782,15.516,8.959.627-2.781Z" fill="#65d5aa"/>
                        </g>
                      </g>
                    </g>
                    <path id="Trazado_158739" data-name="Trazado 158739" d="M104.585,102.7,68.642,81.952l7.813-34.62L112.4,68.088ZM74.4,68.079,104.918,85.7l3.516-15.574L77.918,52.5Z" fill="#65d5aa"/>
                    <g id="Grupo_71241" data-name="Grupo 71241">
                      <g id="Grupo_71240" data-name="Grupo 71240">
                        <g id="Grupo_71239" data-name="Grupo 71239" clip-path="url(#clip-path-12)">
                          <path id="Trazado_158740" data-name="Trazado 158740" d="M79.186,35.225,78.6,37.84l35.942,20.753.59-2.615Z" fill="#65d5aa"/>
                        </g>
                      </g>
                    </g>
                    <g id="Grupo_71244" data-name="Grupo 71244">
                      <g id="Grupo_71243" data-name="Grupo 71243">
                        <g id="Grupo_71242" data-name="Grupo 71242" clip-path="url(#clip-path-13)">
                          <path id="Trazado_158741" data-name="Trazado 158741" d="M125.6,66.593l-.49,2.173,21.466,12.393.488-2.177Z" fill="#65d5aa"/>
                        </g>
                      </g>
                    </g>
                    <g id="Grupo_71247" data-name="Grupo 71247">
                      <g id="Grupo_71246" data-name="Grupo 71246">
                        <g id="Grupo_71245" data-name="Grupo 71245" clip-path="url(#clip-path-14)">
                          <path id="Trazado_158742" data-name="Trazado 158742" d="M126.707,61.68l-.492,2.182,21.466,12.39.495-2.179Z" fill="#65d5aa"/>
                        </g>
                      </g>
                    </g>
                    <path id="Trazado_158743" data-name="Trazado 158743" d="M139.414,124.551,112,108.723l12-53.175,27.411,15.828Zm-23.06-16.978,21.465,12.4,3.488-15.453-21.47-12.4Zm6.318-28,21.466,12.39.493-2.183L123.162,77.391Zm3.543-15.71,21.466,12.39.495-2.18L126.707,61.681Zm-2.435,10.8,21.467,12.392.49-2.182L124.274,72.478Zm1.33-5.894L146.577,81.16l.488-2.177L125.6,66.594Z" fill="#90eac3"/>
                    <g id="Grupo_71250" data-name="Grupo 71250">
                      <g id="Grupo_71249" data-name="Grupo 71249">
                        <g id="Grupo_71248" data-name="Grupo 71248" clip-path="url(#clip-path-15)">
                          <path id="Trazado_158744" data-name="Trazado 158744" d="M77.855,41.118l-.588,2.615,35.942,20.753.592-2.615Z" fill="#65d5aa"/>
                        </g>
                      </g>
                    </g>
                    <g id="Grupo_71253" data-name="Grupo 71253">
                      <g id="Grupo_71252" data-name="Grupo 71252">
                        <g id="Grupo_71251" data-name="Grupo 71251" clip-path="url(#clip-path-16)">
                          <path id="Trazado_158745" data-name="Trazado 158745" d="M113.894,41.387l-.63,2.782,39.183,22.623.627-2.781Z" fill="#65d5aa"/>
                        </g>
                      </g>
                    </g>
                    <g id="Grupo_71256" data-name="Grupo 71256" opacity="0.8">
                      <g id="Grupo_71255" data-name="Grupo 71255">
                        <g id="Grupo_71254" data-name="Grupo 71254" clip-path="url(#clip-path-9)">
                          <path id="Trazado_158746" data-name="Trazado 158746" d="M64.294,84.38l77.329,44.648L156.7,62.2,79.371,17.553ZM77.267,43.734l.589-2.616L113.8,61.871l-.592,2.616L90.423,51.329Zm1.92-8.509,35.942,20.753-.59,2.615L78.6,37.84Zm.513-2.289.6-2.621,35.941,20.753-.589,2.618Zm74.743,30.195-1.327,5.9L80.961,27.364l1.329-5.888Zm-15.029,61.42L112,108.723l12-53.175,27.411,15.828ZM112.4,68.089,104.585,102.7,68.642,81.952l7.814-34.619Z" fill="#65d5aa"/>
                        </g>
                      </g>
                    </g>
                    <g id="Grupo_71259" data-name="Grupo 71259">
                      <g id="Grupo_71258" data-name="Grupo 71258">
                        <g id="Grupo_71257" data-name="Grupo 71257" clip-path="url(#clip-path-18)">
                          <path id="Trazado_158747" data-name="Trazado 158747" d="M74.4,68.079,77.918,52.5l30.516,17.62L104.918,85.7Z" fill="#90eac3"/>
                        </g>
                      </g>
                    </g>
                    <path id="Trazado_158748" data-name="Trazado 158748" d="M80.295,30.315l-.6,2.621,35.947,20.75.589-2.618Z" fill="#65d5aa"/>
                    <g id="Grupo_71262" data-name="Grupo 71262">
                      <g id="Grupo_71261" data-name="Grupo 71261">
                        <g id="Grupo_71260" data-name="Grupo 71260" clip-path="url(#clip-path-19)">
                          <path id="Trazado_158749" data-name="Trazado 158749" d="M119.837,92.12l-3.483,15.453,21.465,12.395,3.488-15.452Z" fill="#65d5aa"/>
                        </g>
                      </g>
                    </g>
                    <path id="Trazado_158750" data-name="Trazado 158750" d="M153.116,69.027,80.961,27.363l1.329-5.887L154.442,63.13ZM113.265,44.169l39.183,22.624.627-2.782-39.18-22.624ZM82.749,26.552l15.516,8.96.626-2.782L83.379,23.77Z" fill="#90eac3"/>
                  </g>
                </g>
              </g>
              <g id="Grupo_71268" data-name="Grupo 71268">
                <g id="Grupo_71267" data-name="Grupo 71267">
                  <g id="Grupo_71266" data-name="Grupo 71266" clip-path="url(#clip-path-20)">
                    <path id="Trazado_158751" data-name="Trazado 158751" d="M124.274,72.478l-.494,2.182,21.467,12.393.49-2.182Z" fill="#65d5aa"/>
                  </g>
                </g>
              </g>
              <g id="Grupo_71271" data-name="Grupo 71271">
                <g id="Grupo_71270" data-name="Grupo 71270">
                  <g id="Grupo_71269" data-name="Grupo 71269" clip-path="url(#clip-path-21)">
                    <path id="Trazado_158752" data-name="Trazado 158752" d="M123.162,77.39l-.49,2.182,21.466,12.39.491-2.182Z" fill="#65d5aa"/>
                  </g>
                </g>
              </g>
            </g>
          </g>
        </g>
      </g>
    </g>
    <path id="Trazado_158753" data-name="Trazado 158753" d="M76.177,10.3,71.935,31.216l11.8,6.681,5.4-1.641,3.618-1.186,2.777-13.588Z" fill="#ffa203"/>
    <path id="Trazado_158754" data-name="Trazado 158754" d="M92.757,35.07l-6.866-3.012L83.735,37.9Z" fill="#ea6401"/>
    <path id="Trazado_158755" data-name="Trazado 158755" d="M78.731,16.1l-.253,1.25,12.055,7.117.286-1.387Z" fill="#dfffec"/>
    <path id="Trazado_158756" data-name="Trazado 158756" d="M77.818,19.917l-.258,1.25,12.06,7.12L89.9,26.9Z" fill="#dfffec"/>
    <path id="Trazado_158757" data-name="Trazado 158757" d="M76.638,23.522l-.253,1.247,12.055,7.12.285-1.393Z" fill="#dfffec"/>
    <g id="Grupo_71278" data-name="Grupo 71278">
      <g id="Grupo_71277" data-name="Grupo 71277" clip-path="url(#clip-path)">
        <path id="Trazado_158758" data-name="Trazado 158758" d="M54.768,31.41Q42.2,76.947,29.624,122.489c-.675,2.446,3.115,3.481,3.789,1.041Q45.982,77.994,58.556,32.454c.674-2.445-3.116-3.484-3.788-1.044" fill="#dfffec"/>
        <path id="Trazado_158759" data-name="Trazado 158759" d="M74.616,41.548q-12.57,45.537-25.143,91.076c-.675,2.449,3.116,3.487,3.788,1.044Q65.834,88.131,78.406,42.592c.675-2.449-3.116-3.487-3.79-1.044" fill="#dfffec"/>
        <path id="Trazado_158760" data-name="Trazado 158760" d="M52.151,46.406q9.688,5.921,19.377,11.838c2.138,1.308,4.084-2.043,1.956-3.344Q63.8,48.979,54.106,43.061c-2.137-1.307-4.083,2.043-1.955,3.345" fill="#dfffec"/>
        <path id="Trazado_158761" data-name="Trazado 158761" d="M48.484,61.735Q57.558,67.55,66.63,73.371c2.11,1.353,4.051-2,1.956-3.345L50.44,58.39c-2.11-1.353-4.051,2-1.956,3.345" fill="#dfffec"/>
        <path id="Trazado_158762" data-name="Trazado 158762" d="M44.642,78.877l18,10.625c2.156,1.274,4.1-2.077,1.955-3.345L46.6,75.532c-2.157-1.274-4.1,2.077-1.956,3.345" fill="#dfffec"/>
        <path id="Trazado_158763" data-name="Trazado 158763" d="M40.2,91.82q9.05,5.689,18.1,11.372c2.122,1.335,4.066-2.019,1.956-3.344q-9.051-5.685-18.1-11.373C40.038,87.143,38.094,90.5,40.2,91.82" fill="#dfffec"/>
        <path id="Trazado_158764" data-name="Trazado 158764" d="M36.269,107.66,54.14,118.394c2.148,1.289,4.094-2.062,1.956-3.345L38.224,104.315c-2.147-1.289-4.094,2.061-1.955,3.345" fill="#dfffec"/>
        <path id="Trazado_158765" data-name="Trazado 158765" d="M76.668,47.717l.374.775-1.261-.908-.372-.775Z" fill="#0d4535"/>
        <path id="Trazado_158766" data-name="Trazado 158766" d="M47.3,101.7s2.16.557,1.5,1.768-3.385,2.875-3.8,3.644-2.767,3.412-3.4,3.079-2.412-.115-1.879-3.354,4.672-5.573,7.582-5.137" fill="#111114"/>
        <path id="Trazado_158767" data-name="Trazado 158767" d="M49.925,113.884s-1.389,3.015,1.2,4.02,1.959-.736,7.6,1.32,6.464-.872,6.543-1.55c.178-1.562-3.8-2.27-5.03-2.734a29.522,29.522,0,0,1-3.626-1.976l-6.8-.03Z" fill="#111114"/>
        <path id="Trazado_158768" data-name="Trazado 158768" d="M44.544,58.46s-1.967,18.882-2.185,21.013-4.307,18.644-3.631,26.114c0,0,3.7,4.547,7.763.793,0,0,3.308-20.865,4.851-25.49S54,61.738,54,61.738Z" fill="#2b4b3e"/>
        <path id="Trazado_158769" data-name="Trazado 158769" d="M51.494,61.886s-.307,12.293-.574,24.485c0,0-1.855,24.065-1.639,27.576,0,0,7.547,2.715,8.691-.857,0,0,1.969-21.137,2.612-25.532S62.945,70.891,61.931,63.6s-10.437-1.719-10.437-1.719" fill="#2b4b3e"/>
        <path id="Trazado_158770" data-name="Trazado 158770" d="M49.281,113.947c-.216-3.511,1.639-27.576,1.639-27.576.179-8.212.38-16.458.49-20.974l4.665,1.659s2.518,9.4.6,22.92c-1.477,10.459-2.707,20.778-3.185,24.912a19.289,19.289,0,0,1-4.211-.941" fill="#315646"/>
        <path id="Trazado_158771" data-name="Trazado 158771" d="M38.728,105.587c-.676-7.47,3.413-23.989,3.631-26.114.207-2.025,2-19.245,2.17-20.88l3.828,3.623s-.061,13.643-2.168,21.2c-1.918,6.875-2.538,20.578-3.523,24.422a6.65,6.65,0,0,1-3.938-2.252" fill="#315646"/>
        <path id="Trazado_158772" data-name="Trazado 158772" d="M56.045,20.877s-3.651-1.317-5.306,4.882c-1.331,5-2.226,13.089-1.587,16.513A104.827,104.827,0,0,0,52.394,52.99s4.5.621,4.535-2.219l-2.36-11.018s5.768-18.3,1.476-18.876" fill="#9b4aea"/>
        <path id="Trazado_158773" data-name="Trazado 158773" d="M55.743,20.737s-4.453.548-4.592,7.74-.108,11.884-1.077,14.236-4.724,10.1-5.817,11.563c0,0-2.505,5.064,8.473,12.514,0,0,9.6,4.546,10.289-2.588s3.816-17.951,4.968-20.381,4.448-6.935-.645-12.574-7.475-9.326-11.6-10.51" fill="#b662ff"/>
        <path id="Trazado_158774" data-name="Trazado 158774" d="M67.987,43.821c-1.152,2.43-4.276,13.243-4.968,20.381-.476,4.946-5.235,4.277-8.109,3.4.128-3.245,3.515-7.919,3.684-15.05.2-8.818,2.425-13.9,5.307-17.614,1.866-2.407,3.535-1.9,4.834-1.865,2.992,4.786.268,8.582-.748,10.746" fill="#9b4aea"/>
        <path id="Trazado_158775" data-name="Trazado 158775" d="M61.347,19.154s-.792,3.5-2.691,5.194c-1.725,1.535,5.571,6.085,6.383,4.383a8.077,8.077,0,0,1,2.725-6.359c1.639-1.444-6.417-3.218-6.417-3.218" fill="#ef8e86"/>
        <path id="Trazado_158776" data-name="Trazado 158776" d="M58.656,24.479a10.566,10.566,0,0,0,2.527-4.592l4.761,4.919a.021.021,0,0,1-.011.015c-.229-.021-4.481-.418-6.319,2.086-1.018-.9-1.586-1.871-.958-2.428" fill="#dd6e6a"/>
        <path id="Trazado_158777" data-name="Trazado 158777" d="M72.849,13.191a15.28,15.28,0,0,1-1.03,6.024c-1.267,2.733-1.05,3.453-1.674,4.652a3.224,3.224,0,0,1-1.3,1.62c-1.173.529-3.08.2-5.2-1.55-2.563-2.128-4.228-7.28-1.674-10.48s7.5-4.81,10.877-.266" fill="#ef8e86"/>
        <path id="Trazado_158778" data-name="Trazado 158778" d="M60.7,17.447c2.346-2.858,6.674-5.745,6.719-5.966a10.02,10.02,0,0,1,2.558-.657,7.035,7.035,0,0,1,2.868,2.367,16.794,16.794,0,0,1-.089,2.179c-.98.539-2.728.924-3.18,1.514a9.083,9.083,0,0,0-1.528,5.088c.094,1.217-2.344,2.086-2.276,3.155a.216.216,0,0,1-.031.133,8.831,8.831,0,0,1-2.1-1.323,9.057,9.057,0,0,1-2.942-6.49" fill="#e67f79"/>
        <path id="Trazado_158779" data-name="Trazado 158779" d="M74.166,12.25a4,4,0,0,1-3.526,3.112c-1.817.208-2.566,2.757-2.654,3.244a12.577,12.577,0,0,1-.665,2.952c-.552.39-1.185-1.659-1.8-1.747-1.567-.242-1.483,1.329-.659,3.239.879,2.019-3.07,1.323-4.349-.551-.684-.989-.875-1.507-1.226-4.325-.514-4.111.887-8.331,5.8-9.1s6.161,3.281,9.08,3.175" fill="#13241d"/>
        <path id="Trazado_158780" data-name="Trazado 158780" d="M60.514,22.5c-.684-.99-.875-1.507-1.225-4.326-.515-4.11.887-8.33,5.8-9.1s6.162,3.282,9.08,3.176a3.921,3.921,0,0,1-.395,1.044c-1.381-.254-5.2-.817-6.674.39-1.806,1.49-2.844.433-3.59,2.816-.714,2.3-2.351,5.061,1,7.688-1.776.515-3.5-.959-3.992-1.689" fill="#1d332b"/>
        <path id="Trazado_158781" data-name="Trazado 158781" d="M64.969,27.53l1.806,3.085s-8.84-.551-9.8-5.319a2.434,2.434,0,0,1,2.454-2.252s-.86,3.3,5.535,4.486" fill="#dff9eb"/>
        <path id="Trazado_158782" data-name="Trazado 158782" d="M77.067,41.194s-.16-1.913.307-2.358A13.092,13.092,0,0,0,79.044,36c.113-.4.872-1.017,1.028-.669a15.869,15.869,0,0,1-.275,3.332c-.095.464,2.028-.293,2.483-1.053s1.082-1.592,1.281-1.335a4.111,4.111,0,0,1-.48,4.441,10.336,10.336,0,0,1-3.793,2.906Z" fill="#ef8e86"/>
        <path id="Trazado_158783" data-name="Trazado 158783" d="M66.091,32.4c1.166-.209,3.2.39,3.619,3.075S68.4,49.066,68.4,49.066l8.281-8.575s3.315,1.459,3,3.778c0,0-12.747,14.986-14.4,14.817-4.453-.46-5.332-25.593.813-26.683" fill="#9b4aea"/>
        <path id="Trazado_158784" data-name="Trazado 158784" d="M65.277,59.086c1.659.169,14.4-14.817,14.4-14.817a2.394,2.394,0,0,0-.154-1.193l-.355-.642c-.034-.045-.067-.093-.1-.142-.346.361-10.577,10.931-13.583,13-2.812,1.944.446-19.509.979-22.92a2.13,2.13,0,0,0-.378.03c-6.145,1.09-5.265,26.223-.813,26.683" fill="#b662ff"/>
      </g>
    </g>
  </g>
</svg>
