<svg id="Grupo_71307" data-name="Grupo 71307" xmlns="http://www.w3.org/2000/svg" xmlns:xlink="http://www.w3.org/1999/xlink" width="210.001" height="201.185" viewBox="0 0 210.001 201.185">
  <defs>
    <clipPath id="clip-path">
      <rect id="Rectángulo_8633" data-name="Rectángulo 8633" width="210.001" height="201.185" fill="none"/>
    </clipPath>
    <clipPath id="clip-path-2">
      <rect id="Rectángulo_8623" data-name="Rectángulo 8623" width="210" height="176.66" transform="translate(0 24.525)" fill="none"/>
    </clipPath>
    <clipPath id="clip-path-4">
      <rect id="Rectángulo_8624" data-name="Rectángulo 8624" width="130.783" height="76.484" transform="translate(16.607 90.314)" fill="none"/>
    </clipPath>
    <clipPath id="clip-path-5">
      <rect id="Rectángulo_8625" data-name="Rectángulo 8625" width="99.901" height="58.424" transform="translate(70.732 40.033)" fill="none"/>
    </clipPath>
    <clipPath id="clip-path-7">
      <rect id="Rectángulo_8627" data-name="Rectángulo 8627" width="74.139" height="100.747" transform="translate(96.494)" fill="none"/>
    </clipPath>
    <clipPath id="clip-path-9">
      <rect id="Rectángulo_8629" data-name="Rectángulo 8629" width="94.385" height="128.262" transform="translate(54.66 41.6)" fill="none"/>
    </clipPath>
    <clipPath id="clip-path-11">
      <rect id="Rectángulo_8631" data-name="Rectángulo 8631" width="43.882" height="25.42" transform="translate(149.511 123.841)" fill="none"/>
    </clipPath>
  </defs>
  <g id="Grupo_71306" data-name="Grupo 71306" clip-path="url(#clip-path)">
    <g id="Grupo_71282" data-name="Grupo 71282">
      <g id="Grupo_71281" data-name="Grupo 71281" clip-path="url(#clip-path-2)">
        <path id="Trazado_158785" data-name="Trazado 158785" d="M13.466,58.812A81.731,81.731,0,0,0,1.221,89.466c-7.746,44.216,22.43,79.838,60.283,97.8,19.612,9.308,41.3,14.764,62.986,13.807s43.343-8.606,59.579-23.016,26.579-35.8,25.9-57.5-13.079-43.092-32.447-52.9c-16.753-8.482-36.731-8.067-54.06-15.3a95.468,95.468,0,0,1-22.068-13.032C86.96,28.047,72.12,20.425,53.623,26.905A80.381,80.381,0,0,0,13.466,58.812" fill="#d1fff1"/>
      </g>
    </g>
    <g id="Grupo_71290" data-name="Grupo 71290">
      <g id="Grupo_71289" data-name="Grupo 71289" clip-path="url(#clip-path)">
        <g id="Grupo_71285" data-name="Grupo 71285" opacity="0.1">
          <g id="Grupo_71284" data-name="Grupo 71284">
            <g id="Grupo_71283" data-name="Grupo 71283" clip-path="url(#clip-path-4)">
              <path id="Trazado_158786" data-name="Trazado 158786" d="M16.607,143.828,56.129,166.8,147.39,114.11l-40.476-23.8Z"/>
            </g>
          </g>
        </g>
        <g id="Grupo_71288" data-name="Grupo 71288" opacity="0.1">
          <g id="Grupo_71287" data-name="Grupo 71287">
            <g id="Grupo_71286" data-name="Grupo 71286" clip-path="url(#clip-path-5)">
              <path id="Trazado_158787" data-name="Trazado 158787" d="M70.732,80.911l30.19,17.546L170.634,58.21l-30.92-18.177Z"/>
            </g>
          </g>
        </g>
      </g>
    </g>
    <path id="Trazado_158788" data-name="Trazado 158788" d="M122.042,50.285l0,1.894L101.511,64.037l-.006-1.9Z" fill="#91fddd"/>
    <path id="Trazado_158789" data-name="Trazado 158789" d="M165.1,30.64l.038,13.528L135.952,61.021l-.04-13.526Z" fill="#91fddd"/>
    <path id="Trazado_158790" data-name="Trazado 158790" d="M132.932,45.9,167.324,26.04l.084,30.056L133.015,75.951Zm32.21-1.727L165.1,30.641,135.912,47.495l.04,13.527Z" fill="#5fc6a1"/>
    <path id="Trazado_158791" data-name="Trazado 158791" d="M167.309,20.639l0,2.275L132.923,42.77l-.006-2.276Z" fill="#5fc6a1"/>
    <path id="Trazado_158792" data-name="Trazado 158792" d="M122.09,67.343l.036,13.415L101.592,92.616,101.55,79.2Z" fill="#91fddd"/>
    <path id="Trazado_158793" data-name="Trazado 158793" d="M99.24,50.538,125.47,35.4l.131,46.179L99.375,96.718Zm22.885,30.221-.036-13.416L101.55,79.2l.042,13.417ZM122.02,42.8l-.006-1.9L101.478,52.759l0,1.9Zm.024,9.379,0-1.894L101.5,62.142l.006,1.9Zm.014,4.267,0-1.9L101.518,66.408l0,1.894Zm-.03-9.383,0-1.894L101.494,57.025v1.894Z" fill="#5fc6a1"/>
    <g id="Grupo_71295" data-name="Grupo 71295">
      <g id="Grupo_71294" data-name="Grupo 71294" clip-path="url(#clip-path)">
        <g id="Grupo_71293" data-name="Grupo 71293" opacity="0.7">
          <g id="Grupo_71292" data-name="Grupo 71292">
            <g id="Grupo_71291" data-name="Grupo 71291" clip-path="url(#clip-path-7)">
              <path id="Trazado_158794" data-name="Trazado 158794" d="M96.494,42.711,170.47,0l.163,58.037L96.661,100.747ZM125.6,81.575,125.469,35.4,99.24,50.539l.134,46.18ZM167.408,56.1l-.084-30.056L132.932,45.9l.083,30.055Zm-.136-47.4-.016-5.116L98.231,43.434l.014,5.118Zm.014,4.833,0-2.276L132.89,31.112l.005,2.274ZM167.3,17.8l-.005-2.274L132.9,35.379l.007,2.273Zm.014,5.118,0-2.275L132.916,40.495l.007,2.276Z" fill="#91fddd"/>
            </g>
          </g>
        </g>
      </g>
    </g>
    <path id="Trazado_158795" data-name="Trazado 158795" d="M167.293,15.523l0,2.274L132.907,37.652l-.006-2.273Z" fill="#5fc6a1"/>
    <path id="Trazado_158796" data-name="Trazado 158796" d="M99.232,46.559l37.483-21.642-.008-2.415L99.221,44.144Z" fill="#91fddd"/>
    <path id="Trazado_158797" data-name="Trazado 158797" d="M167.271,8.7l-.014-5.115L98.23,43.433l.015,5.119ZM165.9,5.649l.01,2.414-14.844,8.569-.009-2.415ZM136.708,22.5l.007,2.415L99.233,46.559l-.011-2.415Z" fill="#68ffbc"/>
    <path id="Trazado_158798" data-name="Trazado 158798" d="M165.9,5.649l.009,2.414-14.843,8.569-.009-2.415Z" fill="#91fddd"/>
    <path id="Trazado_158799" data-name="Trazado 158799" d="M167.281,11.255l0,2.275L132.895,33.386l-.005-2.275Z" fill="#5fc6a1"/>
    <path id="Trazado_158800" data-name="Trazado 158800" d="M122.053,54.551l0,1.9L101.522,68.3l0-1.894Z" fill="#91fddd"/>
    <path id="Trazado_158801" data-name="Trazado 158801" d="M122.026,45.169l0,1.894L101.5,58.919l0-1.894Z" fill="#91fddd"/>
    <path id="Trazado_158802" data-name="Trazado 158802" d="M122.015,40.9l0,1.9L101.48,54.656l0-1.9Z" fill="#91fddd"/>
    <path id="Trazado_158803" data-name="Trazado 158803" d="M87.181,105.619l.007,2.412L61.045,123.125l-.007-2.412Z" fill="#91fddd"/>
    <path id="Trazado_158804" data-name="Trazado 158804" d="M142.008,80.61l.049,17.223-37.164,21.456-.049-17.223Z" fill="#91fddd"/>
    <path id="Trazado_158805" data-name="Trazado 158805" d="M101.048,100.031l43.785-25.28.105,38.266-43.782,25.278Zm41.007-2.2-.047-17.223-37.164,21.456.049,17.223Z" fill="#5fc6a1"/>
    <path id="Trazado_158806" data-name="Trazado 158806" d="M144.812,67.876l.007,2.9L101.036,96.052l-.009-2.9Z" fill="#5fc6a1"/>
    <path id="Trazado_158807" data-name="Trazado 158807" d="M87.243,127.336l.049,17.08L61.146,159.51,61.1,142.431Z" fill="#91fddd"/>
    <path id="Trazado_158808" data-name="Trazado 158808" d="M58.155,105.94,91.548,86.663l.166,58.792L58.322,164.733Zm29.136,38.475-.049-17.079L61.1,142.431l.049,17.078ZM87.155,96.09l-.01-2.417L61,108.767l.007,2.416Zm.033,11.941-.007-2.412L61.038,120.713l.007,2.412Zm.016,5.431L87.2,111.05,61.051,126.145l.008,2.411Zm-.035-11.946L87.162,99.1,61.021,114.2l.005,2.412Z" fill="#5fc6a1"/>
    <g id="Grupo_71300" data-name="Grupo 71300">
      <g id="Grupo_71299" data-name="Grupo 71299" clip-path="url(#clip-path)">
        <g id="Grupo_71298" data-name="Grupo 71298" opacity="0.7">
          <g id="Grupo_71297" data-name="Grupo 71297">
            <g id="Grupo_71296" data-name="Grupo 71296" clip-path="url(#clip-path-9)">
              <path id="Trazado_158809" data-name="Trazado 158809" d="M54.66,95.975,148.838,41.6l.207,73.889L54.868,169.862Zm37.054,49.48-.166-58.791L58.155,105.94l.167,58.793Zm53.223-32.438-.1-38.266L101.048,100.03l.108,38.265Zm-.17-60.343-.02-6.514L56.869,96.9l.017,6.514Zm.017,6.153,0-2.9L100.994,81.208l.01,2.9Zm.017,5.431-.008-2.9L101.007,86.64l.011,2.9Zm.018,6.515-.007-2.9L101.027,93.154l.008,2.9Z" fill="#91fddd"/>
            </g>
          </g>
        </g>
      </g>
    </g>
    <path id="Trazado_158810" data-name="Trazado 158810" d="M144.793,61.362l.008,2.9L101.018,89.535l-.011-2.9Z" fill="#5fc6a1"/>
    <path id="Trazado_158811" data-name="Trazado 158811" d="M58.142,100.876l47.722-27.554-.008-3.074L58.133,97.8Z" fill="#91fddd"/>
    <path id="Trazado_158812" data-name="Trazado 158812" d="M144.767,52.673l-.019-6.513L56.87,96.9l.017,6.514Zm-1.746-3.881.009,3.073-18.895,10.91-.011-3.075ZM105.856,70.248l.008,3.074L58.142,100.876,58.133,97.8Z" fill="#68ffbc"/>
    <path id="Trazado_158813" data-name="Trazado 158813" d="M143.021,48.791l.009,3.075-18.9,10.909-.01-3.075Z" fill="#91fddd"/>
    <path id="Trazado_158814" data-name="Trazado 158814" d="M144.779,55.93l0,2.9L101,84.1l-.011-2.9Z" fill="#5fc6a1"/>
    <path id="Trazado_158815" data-name="Trazado 158815" d="M87.2,111.05l.008,2.412L61.059,128.556l-.007-2.412Z" fill="#91fddd"/>
    <path id="Trazado_158816" data-name="Trazado 158816" d="M87.162,99.1l.007,2.412-26.143,15.1-.005-2.412Z" fill="#91fddd"/>
    <path id="Trazado_158817" data-name="Trazado 158817" d="M87.145,93.673l.011,2.417L61.01,111.183,61,108.767Z" fill="#91fddd"/>
    <g id="Grupo_71305" data-name="Grupo 71305">
      <g id="Grupo_71304" data-name="Grupo 71304" clip-path="url(#clip-path)">
        <path id="Trazado_158818" data-name="Trazado 158818" d="M142.083,69.739s-2.758-1.2-3.025-1.928-1.362-.585-.963.248A4.511,4.511,0,0,0,139.34,69.5s-3.4-.971-3.361-2.05-1.248,2.486.017,3.673,2.43,2.727,6.6,1.4a3.339,3.339,0,0,0-.518-2.788" fill="#f1b287"/>
        <path id="Trazado_158819" data-name="Trazado 158819" d="M155.365,50.591a23.507,23.507,0,0,0-2.3-3.511c-.6-.461-3.075-2.479-5.592-1.89-1.362.315-.082,1.35,1.727,2.353.821.453,1.526.614,1.97,2.134A10.742,10.742,0,0,0,153,52.914c.557.641,2.361-2.323,2.361-2.323" fill="#efb185"/>
        <path id="Trazado_158820" data-name="Trazado 158820" d="M152.874,52.807c-.558-.642-1.345-2.161-2.326-2.757-1.169-.723-.528-2.054-1.349-2.507-1.406-.781-2.5-1.627-2.267-2.077,1.024.675,2.419-.265,4.413,2.22a20.008,20.008,0,0,1,2.37,4.712c-.508.456-.623.659-.841.409" fill="#e6a376"/>
        <path id="Trazado_158821" data-name="Trazado 158821" d="M153.794,52.267s-3.433-1.928-4.384-2.669-1.315-1.647-1.02-1.681,3.236,1.994,3.645.787c.219-.643,1.329,3.176,1.759,3.563" fill="#efb185"/>
        <path id="Trazado_158822" data-name="Trazado 158822" d="M181.454,56.485s1.422,4.13-4.24,4.877-16.366.888-18.568-1.061-6.169-8.023-6.169-8.023,2.815-.223,2.888-2.624l7.458,6.45s17.7-2.526,18.631.381" fill="#779f29"/>
        <path id="Trazado_158823" data-name="Trazado 158823" d="M181.454,56.485c-.933-2.907-18.631-.381-18.631-.381l-7.458-6.45a2.364,2.364,0,0,1-.929,1.873,45.851,45.851,0,0,0,5.252,6.657c2.2,1.952,12.9,1.811,18.569,1.062A5.951,5.951,0,0,0,181.6,57.92a3.937,3.937,0,0,0-.142-1.435" fill="#9cbc35"/>
        <g id="Grupo_71303" data-name="Grupo 71303" opacity="0.1">
          <g id="Grupo_71302" data-name="Grupo 71302">
            <g id="Grupo_71301" data-name="Grupo 71301" clip-path="url(#clip-path-11)">
              <path id="Trazado_158824" data-name="Trazado 158824" d="M186.916,127.56c8.6,4.965,8.641,13.015.1,17.979s-22.43,4.963-31.03,0-8.638-13.012-.1-17.969,22.436-4.968,31.029-.008"/>
            </g>
          </g>
        </g>
        <path id="Trazado_158825" data-name="Trazado 158825" d="M172.99,127.965s-2.069.315-1.567,1.505,2.881,3.008,3.194,3.762,2.256,3.446,2.883,3.2,2.256.124,2.068-2.946-3.821-5.641-6.578-5.516" fill="#111114"/>
        <path id="Trazado_158826" data-name="Trazado 158826" d="M169.044,139.244s1,2.946-1.5,3.636-1.757-.877-7.206.5-6.079-1.437-5.953-2.067,3.757-1.755,4.95-2.068,3.445-.877,3.445-.877h6.462Z" fill="#111114"/>
        <path id="Trazado_158827" data-name="Trazado 158827" d="M179.342,87.532s.033,17.791.033,19.794,2.238,17.788.893,24.682c0,0-3.879,3.889-7.31,0,0,0-1.1-19.759-2.089-24.221s-.659-18.1-.659-18.1Z" fill="#24323d"/>
        <path id="Trazado_158828" data-name="Trazado 158828" d="M172.537,90.061s-.884,11.486-1.8,22.877c0,0-.573,22.608-1.106,25.862,0,0-7.292,1.809-8.019-1.626,0,0,.183-19.9,0-24.054s-.614-15.757,1.03-22.449,9.891-.61,9.891-.61" fill="#2b3c4b"/>
        <path id="Trazado_158829" data-name="Trazado 158829" d="M169.634,138.8c.533-3.253,1.106-25.862,1.106-25.862.615-7.668,1.213-15.375,1.539-19.6l-4.5,1.108s-3.244,8.52-2.75,21.3c.384,9.892.544,19.623.6,23.526a18.288,18.288,0,0,0,4.012-.476" fill="#314656"/>
        <path id="Trazado_158830" data-name="Trazado 158830" d="M180.268,132.008c1.344-6.894-.894-22.679-.894-24.682,0-1.909-.028-18.13-.032-19.665l-3.915,3.011s-1.245,12.719,0,19.964c1.132,6.59.4,19.422.954,23.1a6.232,6.232,0,0,0,3.887-1.729" fill="#2a3944"/>
        <path id="Trazado_158831" data-name="Trazado 158831" d="M180.432,55.225s3.76,1.879,1.628,8.27-3.634,10.526-3.51,12.906a105.249,105.249,0,0,0,1.506,12.031s.625,5.264-11.4,8.4c0,0-9.9,1-8.272-5.515a86.1,86.1,0,0,0,2.006-19.549c-.251-2.506-1.755-7.518,4.51-10.9s9.526-5.888,13.535-5.639" fill="#9cbc35"/>
        <path id="Trazado_158832" data-name="Trazado 158832" d="M162.387,71.766a86.1,86.1,0,0,1-2.007,19.549c-1.125,4.516,3.282,5.42,6.1,5.549.9-2.908-.621-8.1,1.468-14.446,2.58-7.847,2.217-13.031.834-17.21-.895-2.712-2.524-2.784-3.681-3.165-4.143,3.285-2.932,7.5-2.709,9.723" fill="#779f29"/>
        <path id="Trazado_158833" data-name="Trazado 158833" d="M180.056,88.432A105.2,105.2,0,0,1,178.55,76.4c-.124-2.381,1.434-6.5,3.51-12.906,1.963-6.059-.333-7.644-1.628-8.271-.661,3.132-11.516,4.463-11.257,6.557.292,2.332,3.193,4.51,3.362,8.689a61.64,61.64,0,0,1-1.1,13.45c-.639,2.686-.321,9.177.282,11.973,8.855-3.141,8.341-7.462,8.341-7.462" fill="#9cbc35"/>
        <path id="Trazado_158834" data-name="Trazado 158834" d="M175.982,52.069s-.4,3.339.748,5.43c1.041,1.9-6.83,3.625-7.013,1.869A7.546,7.546,0,0,0,169.3,52.9c-.993-1.784,6.677-.828,6.677-.828" fill="#efb185"/>
        <path id="Trazado_158835" data-name="Trazado 158835" d="M176.688,57.613a9.833,9.833,0,0,1-.791-4.844l-5.745,2.851,0,.012c.209.054,4.088,1.036,4.926,3.826,1.184-.484,1.985-1.154,1.607-1.845" fill="#dd9569"/>
        <path id="Trazado_158836" data-name="Trazado 158836" d="M167.7,43.2a14.333,14.333,0,0,0-.978,5.642c.259,2.812-.158,3.379.019,4.627a3,3,0,0,0,.635,1.843c.871.838,2.656,1.146,5.08.261,2.93-1.072,6.016-5.1,4.762-8.722s-5.11-6.6-9.518-3.651" fill="#efb185"/>
        <path id="Trazado_158837" data-name="Trazado 158837" d="M177.083,50.765c-1.174-3.259-4.089-7.169-4.063-7.375a9.177,9.177,0,0,0-2.052-1.382A6.594,6.594,0,0,0,167.7,43.2a16.017,16.017,0,0,0-.609,1.953c.7.782,2.122,1.67,2.336,2.334a8.5,8.5,0,0,1-.246,4.97c-.466,1.043,1.414,2.574,1.019,3.5a.215.215,0,0,0-.011.124,8.3,8.3,0,0,0,2.267-.507,8.482,8.482,0,0,0,4.63-4.806" fill="#e6a376"/>
        <path id="Trazado_158838" data-name="Trazado 158838" d="M166.828,41.955a3.749,3.749,0,0,0,2.139,3.853c1.538.753,1.4,3.232,1.326,3.693a11.426,11.426,0,0,0-.337,2.819c.362.516,1.564-1.093,2.138-.982,1.453.283.885,1.639-.438,3.066-1.407,1.509,2.3,2.131,4.012.883.91-.664,1.242-1.06,2.438-3.439,1.741-3.466,1.829-7.629-2.271-9.852s-6.463.968-9.007-.041" fill="#221101"/>
        <path id="Trazado_158839" data-name="Trazado 158839" d="M175.668,55.287c.909-.664,1.242-1.059,2.437-3.439,1.742-3.465,1.829-7.629-2.27-9.851s-6.463.967-9.007-.042A3.759,3.759,0,0,0,166.85,43c1.3.21,4.853.908,5.77,2.437,1.127,1.88,2.379,1.274,2.284,3.611-.091,2.255.492,5.2-3.291,6.475,1.407,1.01,3.389.248,4.055-.237" fill="#341c09"/>
        <path id="Trazado_158840" data-name="Trazado 158840" d="M170.16,58.328,167.6,60.486s7.978,2.286,10.315-1.625a2.277,2.277,0,0,0-1.461-2.757s-.271,3.184-6.289,2.224" fill="#def0f9"/>
        <path id="Trazado_158841" data-name="Trazado 158841" d="M167.3,62.13s3.178,2.763-1.19,6.121-12.04,8.684-14.821,8.12-10.271-3.047-10.271-3.047,2.037-1.856.938-3.895l10.163,1.143s13-10.42,15.181-8.442" fill="#779f29"/>
        <path id="Trazado_158842" data-name="Trazado 158842" d="M167.3,62.13c-2.184-1.978-15.181,8.442-15.181,8.442l-10.163-1.143a2.606,2.606,0,0,1,.32,1.292c3.3.711,9.43,1.962,10.848,1.771,1.732-.229,12.439-7.532,14.966-9.272a3.715,3.715,0,0,0-.79-1.09" fill="#9cbc35"/>
      </g>
    </g>
  </g>
</svg>
