<svg id="Grupo_71403" data-name="Grupo 71403" xmlns="http://www.w3.org/2000/svg" xmlns:xlink="http://www.w3.org/1999/xlink" width="226.07" height="239.662" viewBox="0 0 226.07 239.662">
  <defs>
    <clipPath id="clip-path">
      <rect id="Rectángulo_8679" data-name="Rectángulo 8679" width="226.07" height="239.662" fill="none"/>
    </clipPath>
    <clipPath id="clip-path-3">
      <rect id="Rectángulo_8656" data-name="Rectángulo 8656" width="100.92" height="58.413" fill="none"/>
    </clipPath>
    <clipPath id="clip-path-4">
      <rect id="Rectángulo_8657" data-name="Rectángulo 8657" width="35.725" height="20.698" fill="none"/>
    </clipPath>
    <clipPath id="clip-path-5">
      <path id="Trazado_159079" data-name="Trazado 159079" d="M114.634,70.106l4.3,22.144h.065c.3,1.755,1.608,3.467,3.943,4.813,5.32,3.073,13.9,3.073,19.166.006,2.316-1.346,3.614-3.06,3.888-4.82h.015l4.345-22.706Z" transform="translate(-114.634 -69.544)" fill="none"/>
    </clipPath>
    <linearGradient id="linear-gradient" x1="-5.136" y1="4.125" x2="-5.091" y2="4.125" gradientUnits="objectBoundingBox">
      <stop offset="0" stop-color="#ffdf02"/>
      <stop offset="0.121" stop-color="#f8d401"/>
      <stop offset="0.441" stop-color="#ebbc00"/>
      <stop offset="0.742" stop-color="#e3ae00"/>
      <stop offset="1" stop-color="#e1aa00"/>
    </linearGradient>
    <clipPath id="clip-path-7">
      <rect id="Rectángulo_8660" data-name="Rectángulo 8660" width="175.427" height="102.593" fill="none"/>
    </clipPath>
    <clipPath id="clip-path-8">
      <rect id="Rectángulo_8662" data-name="Rectángulo 8662" width="96.318" height="61.567" fill="none"/>
    </clipPath>
    <clipPath id="clip-path-9">
      <rect id="Rectángulo_8661" data-name="Rectángulo 8661" width="96.292" height="39.093" fill="none"/>
    </clipPath>
    <clipPath id="clip-path-10">
      <rect id="Rectángulo_8663" data-name="Rectángulo 8663" width="51.236" height="82.346" fill="none"/>
    </clipPath>
    <clipPath id="clip-path-11">
      <rect id="Rectángulo_8676" data-name="Rectángulo 8676" width="119.094" height="143.667" fill="none"/>
    </clipPath>
    <clipPath id="clip-path-13">
      <rect id="Rectángulo_8664" data-name="Rectángulo 8664" width="20.802" height="15.127" fill="none"/>
    </clipPath>
    <clipPath id="clip-path-14">
      <rect id="Rectángulo_8665" data-name="Rectángulo 8665" width="47.084" height="30.116" fill="none"/>
    </clipPath>
    <clipPath id="clip-path-15">
      <rect id="Rectángulo_8666" data-name="Rectángulo 8666" width="28.295" height="18.773" fill="none"/>
    </clipPath>
    <clipPath id="clip-path-16">
      <rect id="Rectángulo_8667" data-name="Rectángulo 8667" width="28.301" height="18.786" fill="none"/>
    </clipPath>
    <clipPath id="clip-path-17">
      <rect id="Rectángulo_8668" data-name="Rectángulo 8668" width="47.082" height="30.115" fill="none"/>
    </clipPath>
    <clipPath id="clip-path-18">
      <rect id="Rectángulo_8669" data-name="Rectángulo 8669" width="51.309" height="32.74" fill="none"/>
    </clipPath>
    <clipPath id="clip-path-20">
      <rect id="Rectángulo_8671" data-name="Rectángulo 8671" width="43.857" height="42.779" fill="none"/>
    </clipPath>
    <clipPath id="clip-path-21">
      <rect id="Rectángulo_8672" data-name="Rectángulo 8672" width="32.156" height="35.887" fill="none"/>
    </clipPath>
    <clipPath id="clip-path-22">
      <rect id="Rectángulo_8674" data-name="Rectángulo 8674" width="28.297" height="18.787" fill="none"/>
    </clipPath>
    <clipPath id="clip-path-23">
      <rect id="Rectángulo_8675" data-name="Rectángulo 8675" width="28.295" height="18.782" fill="none"/>
    </clipPath>
    <clipPath id="clip-path-24">
      <rect id="Rectángulo_8677" data-name="Rectángulo 8677" width="51.264" height="29.694" fill="none"/>
    </clipPath>
  </defs>
  <g id="Grupo_71402" data-name="Grupo 71402" clip-path="url(#clip-path)">
    <g id="Grupo_71343" data-name="Grupo 71343">
      <g id="Grupo_71342" data-name="Grupo 71342" clip-path="url(#clip-path)">
        <g id="Grupo_71338" data-name="Grupo 71338" transform="translate(61.01 181.25)" opacity="0.1">
          <g id="Grupo_71337" data-name="Grupo 71337">
            <g id="Grupo_71336" data-name="Grupo 71336" clip-path="url(#clip-path-3)">
              <path id="Trazado_159077" data-name="Trazado 159077" d="M75.762,112.29l62.955,36.352L100.761,170.7,37.8,134.35Z" transform="translate(-37.798 -112.29)"/>
            </g>
          </g>
        </g>
        <g id="Grupo_71341" data-name="Grupo 71341" transform="translate(181.601 122.327)" opacity="0.1">
          <g id="Grupo_71340" data-name="Grupo 71340">
            <g id="Grupo_71339" data-name="Grupo 71339" clip-path="url(#clip-path-4)">
              <path id="Trazado_159078" data-name="Trazado 159078" d="M142.948,78.8c7.021,4.05,7.041,10.61.094,14.645s-18.24,4.048-25.261-.011c-7-4.037-7.031-10.584-.082-14.619s18.261-4.047,25.25-.015" transform="translate(-112.508 -75.786)"/>
            </g>
          </g>
        </g>
      </g>
    </g>
    <g id="Grupo_71345" data-name="Grupo 71345" transform="translate(185.033 112.252)">
      <g id="Grupo_71344" data-name="Grupo 71344" clip-path="url(#clip-path-5)">
        <rect id="Rectángulo_8659" data-name="Rectángulo 8659" width="36.002" height="30.925" transform="translate(-0.286 0.003) rotate(-0.536)" fill="url(#linear-gradient)"/>
      </g>
    </g>
    <g id="Grupo_71401" data-name="Grupo 71401">
      <g id="Grupo_71400" data-name="Grupo 71400" clip-path="url(#clip-path)">
        <path id="Trazado_159080" data-name="Trazado 159080" d="M145.075,66.157c7.018,4.051,7.041,10.61.094,14.648s-18.243,4.035-25.261-.016-7.036-10.581-.087-14.616,18.262-4.047,25.254-.016" transform="translate(70.397 38.775)" fill="#ffe85f"/>
        <path id="Trazado_159081" data-name="Trazado 159081" d="M139.557,67.071c5.136,2.962,5.136,7.741.053,10.7s-13.329,2.949-18.457-.011-5.144-7.73-.068-10.692c5.084-2.939,13.358-2.947,18.472,0" transform="translate(72.034 39.834)" fill="#4d9b12"/>
        <path id="Trazado_159082" data-name="Trazado 159082" d="M120.072,86.611s-14.238-18.009-.241-50.4c0,0,12.3,15.513,5.252,55.266,0,0-2.739-1.025-5.012-4.868" transform="translate(69.808 22.239)" fill="#73c139"/>
        <path id="Trazado_159083" data-name="Trazado 159083" d="M117.593,36.356c.266,12.469.97,34.124,2.688,53.424a8.514,8.514,0,0,0,2.4,1.611c6.565-37.073-3.659-53.045-5.084-55.035" transform="translate(72.216 22.327)" fill="#4d9b12"/>
        <path id="Trazado_159084" data-name="Trazado 159084" d="M123.3,85.05s-11.417-19.928,7.251-49.879c0,0,9.864,17.171-3.03,55.442,0,0-2.552-1.425-4.221-5.562" transform="translate(73.597 21.599)" fill="#73c139"/>
        <path id="Trazado_159085" data-name="Trazado 159085" d="M128.86,35.171c-1.587,12.377-5.107,33.866-6.269,53.208a8.683,8.683,0,0,0,2.134,1.958c14-33.425,5.238-52.988,4.135-55.166" transform="translate(75.285 21.599)" fill="#4d9b12"/>
        <path id="Trazado_159086" data-name="Trazado 159086" d="M130.548,83.7s-17.077-6.032-21.34-33.538c0,0,14.722,5.181,26.735,34.694a8.9,8.9,0,0,1-5.394-1.156" transform="translate(67.066 30.808)" fill="#73c139"/>
        <path id="Trazado_159087" data-name="Trazado 159087" d="M109.336,50.216c5.425,8.224,14.974,22.383,24.249,34.54a6.909,6.909,0,0,0,2.281.073c-11.192-27.509-24.738-33.875-26.53-34.613" transform="translate(67.145 30.838)" fill="#4d9b12"/>
        <path id="Trazado_159088" data-name="Trazado 159088" d="M128.876,80.872s-9.141-10.445-1.658-30.421c0,0,7.888,8.992,4.841,33.207a6.741,6.741,0,0,1-3.183-2.786" transform="translate(76.319 30.983)" fill="#73c139"/>
        <path id="Trazado_159089" data-name="Trazado 159089" d="M126.166,50.531c.536,7.53,1.609,20.585,3.22,32.181a5.151,5.151,0,0,0,1.511.9c2.842-22.569-3.813-31.918-4.731-33.08" transform="translate(77.481 31.032)" fill="#4d9b12"/>
        <path id="Trazado_159090" data-name="Trazado 159090" d="M130.6,80.082s-8.739-15.868,6.352-39.254c0,0,7.557,13.68-3.093,43.684a8.844,8.844,0,0,1-3.259-4.431" transform="translate(78.657 25.073)" fill="#73c139"/>
        <path id="Trazado_159091" data-name="Trazado 159091" d="M135.491,40.957c-1.417,9.741-3.7,26.678-4.852,41.912a6.7,6.7,0,0,0,1.646,1.564c9.928-27.989,4.05-41.736,3.206-43.476" transform="translate(80.228 25.152)" fill="#4d9b12"/>
        <path id="Trazado_159092" data-name="Trazado 159092" d="M131.063,76.837s-2.069-13.37,14.49-25.908c0,0,1.822,11.512-13.339,29.858a6.7,6.7,0,0,1-1.151-3.95" transform="translate(80.437 31.276)" fill="#73c139"/>
        <path id="Trazado_159093" data-name="Trazado 159093" d="M145.4,51.03c-3.5,6.468-9.41,17.778-14.124,28.173a5,5,0,0,0,.751,1.522c14.124-17.1,13.512-28.253,13.373-29.695" transform="translate(80.621 31.338)" fill="#4d9b12"/>
        <g id="Grupo_71348" data-name="Grupo 71348" transform="translate(0 105.376)" opacity="0.1">
          <g id="Grupo_71347" data-name="Grupo 71347">
            <g id="Grupo_71346" data-name="Grupo 71346" clip-path="url(#clip-path-7)">
              <path id="Trazado_159094" data-name="Trazado 159094" d="M0,137.067l53.017,30.81L175.427,97.2,121.133,65.284Z" transform="translate(0 -65.284)"/>
            </g>
          </g>
        </g>
        <g id="Grupo_71354" data-name="Grupo 71354" transform="translate(49.026 133.095)" style="isolation: isolate">
          <g id="Grupo_71353" data-name="Grupo 71353">
            <g id="Grupo_71352" data-name="Grupo 71352" clip-path="url(#clip-path-8)">
              <path id="Trazado_159095" data-name="Trazado 159095" d="M30.373,106.677l.015,5.869,28.584,16.6-.029-5.871Z" transform="translate(-30.373 -67.583)" fill="#95c4de"/>
              <path id="Trazado_159096" data-name="Trazado 159096" d="M48.074,131.835l.029,5.871,67.719-39.089-.027-5.871Z" transform="translate(-19.503 -76.138)" fill="#a9d6ea"/>
              <path id="Trazado_159097" data-name="Trazado 159097" d="M30.373,121.551l28.57,16.6,67.722-39.089L98.092,82.457Z" transform="translate(-30.373 -82.457)" fill="#def6ff"/>
              <g id="Grupo_71351" data-name="Grupo 71351" opacity="0.5">
                <g id="Grupo_71350" data-name="Grupo 71350">
                  <g id="Grupo_71349" data-name="Grupo 71349" clip-path="url(#clip-path-9)">
                    <path id="Trazado_159098" data-name="Trazado 159098" d="M30.373,121.551l96.292-22.486L98.092,82.457Z" transform="translate(-30.373 -82.457)" fill="#def6ff"/>
                  </g>
                </g>
              </g>
            </g>
          </g>
        </g>
        <g id="Grupo_71357" data-name="Grupo 71357" transform="translate(70.192 95.513)" style="isolation: isolate">
          <g id="Grupo_71356" data-name="Grupo 71356">
            <g id="Grupo_71355" data-name="Grupo 71355" clip-path="url(#clip-path-10)">
              <path id="Trazado_159099" data-name="Trazado 159099" d="M48.718,131.413l-5.083-2.947-.148-52.835,5.07,2.947Z" transform="translate(-43.486 -49.067)" fill="#95c4de"/>
              <path id="Trazado_159100" data-name="Trazado 159100" d="M48.557,88.685l-5.07-2.947,46-26.564,5.075,2.952Z" transform="translate(-43.486 -59.173)" fill="#c0c5d1"/>
              <path id="Trazado_159101" data-name="Trazado 159101" d="M92.633,61l.16,52.84-46,26.554-.161-52.835Z" transform="translate(-41.557 -58.05)" fill="#a9d6ea"/>
            </g>
          </g>
        </g>
        <path id="Trazado_159102" data-name="Trazado 159102" d="M27.888,153.873l-4.91-1.372L1.969,48.88l4.9,1.372Z" transform="translate(1.209 30.018)" fill="#95c4de"/>
        <path id="Trazado_159103" data-name="Trazado 159103" d="M6.871,80.27,1.968,78.9,138.639,0l4.9,1.361Z" transform="translate(1.209 0)" fill="#a9d6ea"/>
        <path id="Trazado_159104" data-name="Trazado 159104" d="M141.67.843,162.692,104.47l-136.669,78.9L5.006,79.753Z" transform="translate(3.074 0.518)" fill="#def6ff"/>
        <path id="Trazado_159105" data-name="Trazado 159105" d="M135.828,5.963,154.5,99.3,27.954,172.514,8.559,77.965Z" transform="translate(5.256 3.662)" fill="#26cb99"/>
        <g id="Grupo_71396" data-name="Grupo 71396" transform="translate(30.616 22.62)">
          <g id="Grupo_71395" data-name="Grupo 71395">
            <g id="Grupo_71394" data-name="Grupo 71394" clip-path="url(#clip-path-11)">
              <g id="Grupo_71387" data-name="Grupo 71387" style="isolation: isolate">
                <g id="Grupo_71386" data-name="Grupo 71386">
                  <g id="Grupo_71385" data-name="Grupo 71385" clip-path="url(#clip-path-11)">
                    <g id="Grupo_71360" data-name="Grupo 71360" transform="translate(74.503 8.019)">
                      <g id="Grupo_71359" data-name="Grupo 71359">
                        <g id="Grupo_71358" data-name="Grupo 71358" clip-path="url(#clip-path-13)">
                          <path id="Trazado_159106" data-name="Trazado 159106" d="M85.115,18.982l.812,3.582-20,11.546-.807-3.585Z" transform="translate(-65.125 -18.982)" fill="#67d5a5"/>
                        </g>
                      </g>
                    </g>
                    <path id="Trazado_159107" data-name="Trazado 159107" d="M54.34,64.541l46.325-26.746L110.731,82.4,64.406,109.152Zm48.967-.011L98.775,44.456,59.45,67.164l4.529,20.072Z" transform="translate(2.755 0.59)" fill="#67d5a5"/>
                    <g id="Grupo_71363" data-name="Grupo 71363" transform="translate(53.577 22.78)">
                      <g id="Grupo_71362" data-name="Grupo 71362">
                        <g id="Grupo_71361" data-name="Grupo 71361" clip-path="url(#clip-path-14)">
                          <path id="Trazado_159108" data-name="Trazado 159108" d="M98.481,28.127l.763,3.372L52.919,58.243l-.759-3.37Z" transform="translate(-52.16 -28.127)" fill="#67d5a5"/>
                        </g>
                      </g>
                    </g>
                    <g id="Grupo_71366" data-name="Grupo 71366" transform="translate(12.417 63.204)">
                      <g id="Grupo_71365" data-name="Grupo 71365">
                        <g id="Grupo_71364" data-name="Grupo 71364" clip-path="url(#clip-path-15)">
                          <path id="Trazado_159109" data-name="Trazado 159109" d="M54.325,53.171l.63,2.8L27.29,71.943l-.63-2.8Z" transform="translate(-26.66 -53.171)" fill="#67d5a5"/>
                        </g>
                      </g>
                    </g>
                    <g id="Grupo_71369" data-name="Grupo 71369" transform="translate(10.987 56.871)">
                      <g id="Grupo_71368" data-name="Grupo 71368">
                        <g id="Grupo_71367" data-name="Grupo 71367" clip-path="url(#clip-path-16)">
                          <path id="Trazado_159110" data-name="Trazado 159110" d="M53.441,49.247l.634,2.813L26.411,68.034l-.638-2.815Z" transform="translate(-25.774 -49.247)" fill="#67d5a5"/>
                        </g>
                      </g>
                    </g>
                    <path id="Trazado_159111" data-name="Trazado 159111" d="M23.188,64.751l35.328-20.4,15.465,68.534-35.328,20.4ZM68.372,111.4,63.883,91.487l-27.668,15.97,4.492,19.918ZM60.229,75.316,59.6,72.5,31.93,88.475l.638,2.812ZM55.662,55.067l-.633-2.812L27.362,68.226,28,71.04ZM58.8,68.985l-.633-2.813L30.5,82.143l.633,2.815Zm-1.713-7.6-.63-2.8L28.792,74.559l.63,2.8Z" transform="translate(-16.375 4.617)" fill="#92eabf"/>
                    <g id="Grupo_71372" data-name="Grupo 71372" transform="translate(55.289 30.374)">
                      <g id="Grupo_71371" data-name="Grupo 71371">
                        <g id="Grupo_71370" data-name="Grupo 71370" clip-path="url(#clip-path-17)">
                          <path id="Trazado_159112" data-name="Trazado 159112" d="M99.546,32.832,100.3,36.2,53.982,62.947l-.762-3.369Z" transform="translate(-53.221 -32.832)" fill="#67d5a5"/>
                        </g>
                      </g>
                    </g>
                    <g id="Grupo_71375" data-name="Grupo 71375" transform="translate(4.673 30.723)">
                      <g id="Grupo_71374" data-name="Grupo 71374">
                        <g id="Grupo_71373" data-name="Grupo 71373" clip-path="url(#clip-path-18)">
                          <path id="Trazado_159113" data-name="Trazado 159113" d="M72.358,33.048l.814,3.585-50.5,29.154L21.862,62.2Z" transform="translate(-21.863 -33.048)" fill="#67d5a5"/>
                        </g>
                      </g>
                    </g>
                    <g id="Grupo_71378" data-name="Grupo 71378" opacity="0.8">
                      <g id="Grupo_71377" data-name="Grupo 71377">
                        <g id="Grupo_71376" data-name="Grupo 71376" clip-path="url(#clip-path-11)">
                          <path id="Trazado_159114" data-name="Trazado 159114" d="M118.626,14.015,18.967,71.553,38.4,157.679l99.662-57.535Zm2.712,33.743-16.953,9.79L75.017,74.5l-.762-3.369L120.58,44.388Zm-2.473-10.965.763,3.372L73.3,66.91l-.76-3.37Zm-.662-2.952L71.874,60.587l-.759-3.378,46.319-26.748ZM21.874,72.761l92.992-53.69,1.714,7.593L23.588,80.352Zm19.371,79.155L25.779,83.382l35.33-20.4,15.465,68.534ZM76.063,79.145,122.388,52.4l10.066,44.609L86.129,123.756Z" transform="translate(-18.968 -14.013)" fill="#8bebce"/>
                        </g>
                      </g>
                    </g>
                    <g id="Grupo_71381" data-name="Grupo 71381" transform="translate(62.206 45.047)">
                      <g id="Grupo_71380" data-name="Grupo 71380">
                        <g id="Grupo_71379" data-name="Grupo 71379" clip-path="url(#clip-path-20)">
                          <path id="Trazado_159115" data-name="Trazado 159115" d="M101.364,62,96.831,41.922,57.506,64.629,62.036,84.7Z" transform="translate(-57.506 -41.922)" fill="#92eabf"/>
                        </g>
                      </g>
                    </g>
                    <path id="Trazado_159116" data-name="Trazado 159116" d="M97.594,24.2l.768,3.38L52.034,54.329l-.759-3.378Z" transform="translate(0.874 -7.756)" fill="#67d5a5"/>
                    <g id="Grupo_71384" data-name="Grupo 71384" transform="translate(19.841 96.105)">
                      <g id="Grupo_71383" data-name="Grupo 71383" transform="translate(0 0)">
                        <g id="Grupo_71382" data-name="Grupo 71382" clip-path="url(#clip-path-21)">
                          <path id="Trazado_159117" data-name="Trazado 159117" d="M58.926,73.554l4.489,19.915L35.75,109.441,31.26,89.524Z" transform="translate(-31.259 -73.554)" fill="#67d5a5"/>
                        </g>
                      </g>
                    </g>
                    <path id="Trazado_159118" data-name="Trazado 159118" d="M20.768,70.837,113.76,17.148l1.714,7.593L22.482,78.43ZM73.843,46.4l-.814-3.585L22.534,71.97l.809,3.583Zm39.323-22.707-.812-3.582L92.364,31.652l.807,3.585Z" transform="translate(-17.862 -12.089)" fill="#92eabf"/>
                  </g>
                </g>
              </g>
              <g id="Grupo_71390" data-name="Grupo 71390" transform="translate(14.129 70.788)">
                <g id="Grupo_71389" data-name="Grupo 71389" transform="translate(0 0)">
                  <g id="Grupo_71388" data-name="Grupo 71388" clip-path="url(#clip-path-22)">
                    <path id="Trazado_159119" data-name="Trazado 159119" d="M55.384,57.869l.634,2.813L28.354,76.656l-.633-2.815Z" transform="translate(-27.721 -57.869)" fill="#7fd5a7"/>
                  </g>
                </g>
              </g>
              <g id="Grupo_71393" data-name="Grupo 71393" transform="translate(15.559 77.121)">
                <g id="Grupo_71392" data-name="Grupo 71392" transform="translate(0 0)">
                  <g id="Grupo_71391" data-name="Grupo 71391" clip-path="url(#clip-path-23)">
                    <path id="Trazado_159120" data-name="Trazado 159120" d="M56.268,61.793,56.9,64.6,29.241,80.575l-.634-2.81Z" transform="translate(-28.607 -61.793)" fill="#7fd5a7"/>
                  </g>
                </g>
              </g>
            </g>
          </g>
        </g>
        <path id="Trazado_159121" data-name="Trazado 159121" d="M38.713,38.715l5.47,26.948-15.211,8.61-6.963-2.113-4.663-1.524L13.767,53.119Z" transform="translate(8.455 23.776)" fill="#ff4caa"/>
        <path id="Trazado_159122" data-name="Trazado 159122" d="M15.984,59.971l8.852-3.89,2.776,7.527Z" transform="translate(9.816 34.44)" fill="#e53399"/>
        <path id="Trazado_159123" data-name="Trazado 159123" d="M33.11,43.338l.328,1.613L17.9,54.124l-.37-1.793Z" transform="translate(10.767 26.615)" fill="#def6ff"/>
        <path id="Trazado_159124" data-name="Trazado 159124" d="M33.84,46.389,34.168,48,18.629,57.176l-.366-1.793Z" transform="translate(11.215 28.488)" fill="#def6ff"/>
        <path id="Trazado_159125" data-name="Trazado 159125" d="M34.783,49.266l.326,1.613L19.573,60.05l-.37-1.79Z" transform="translate(11.793 30.255)" fill="#def6ff"/>
        <g id="Grupo_71399" data-name="Grupo 71399" transform="translate(128.668 164.035)" opacity="0.1">
          <g id="Grupo_71398" data-name="Grupo 71398">
            <g id="Grupo_71397" data-name="Grupo 71397" clip-path="url(#clip-path-24)">
              <path id="Trazado_159126" data-name="Trazado 159126" d="M123.414,105.974c10.045,5.8,10.091,15.2.116,20.995s-26.207,5.8-36.248,0-10.1-15.2-.119-21,26.207-5.795,36.251,0" transform="translate(-79.714 -101.625)"/>
            </g>
          </g>
        </g>
        <path id="Trazado_159127" data-name="Trazado 159127" d="M110.038,51.419s-.407-4.636-6.984-4.3a115.337,115.337,0,0,0-13.145,1.55L79.039,38.057s-2.838.6-3.349,2.524c0,0,7.512,12.856,12.9,14.918,0,0,23.7,6.082,21.448-4.08" transform="translate(46.482 23.371)" fill="#def0f9"/>
        <path id="Trazado_159128" data-name="Trazado 159128" d="M80.418,40.6s-.555-3.33-1.488-4.511a5.966,5.966,0,0,0-2.25-1.871c-.391-.139.442,1.412.73,1.9s.148,1.884-2.547-.392-2.289-1.472-2.318-1.175,1.808,5.977,5.214,8.051a4.841,4.841,0,0,1,2.66-2.006" transform="translate(44.547 20.987)" fill="#efb185"/>
        <path id="Trazado_159129" data-name="Trazado 159129" d="M88.589,55.036c-5.388-2.061-12.9-14.918-12.9-14.918a2.7,2.7,0,0,1,.872-1.307c1.8,2.436,7.1,9.523,10.527,13.234,4.174,4.521,22.991.888,23.059.734-.931,7.546-21.56,2.257-21.56,2.257" transform="translate(46.483 23.834)" fill="#c1dbe5"/>
        <path id="Trazado_159130" data-name="Trazado 159130" d="M96.019,102.006s-2.6.625-1.822,2.09,4,3.495,4.482,4.423,3.256,4.126,4.024,3.742,2.884-.1,2.3-3.982-5.488-6.745-8.981-6.272" transform="translate(57.759 62.612)" fill="#111114"/>
        <path id="Trazado_159131" data-name="Trazado 159131" d="M104.192,107.582s1.979,3.443-.985,4.92-2.42-.67-8.907,2.4-7.964-.3-7.962-1.119,4.274-3.133,5.69-3.809,4.1-1.951,4.1-1.951l8.1-1.593Z" transform="translate(53.022 65.361)" fill="#111114"/>
        <path id="Trazado_159132" data-name="Trazado 159132" d="M101.8,69.685s2.037,22.622,2.263,25.169,4.834,22.376,3.9,31.3c0,0-4.5,5.38-9.3.82,0,0-3.606-25.016-5.37-30.571s-2.865-22.948-2.865-22.948Z" transform="translate(55.532 42.795)" fill="#13a87b"/>
        <path id="Trazado_159133" data-name="Trazado 159133" d="M97.671,69.5s1.727,14.608,3.388,29.1c0,0,4.86,28.463,4.991,32.681,0,0-8.689,4.05-10.45-.066,0,0-4.671-24.974-5.925-30.136s-5.714-21.245-5.3-30.034,13.3-1.546,13.3-1.546" transform="translate(51.798 40.96)" fill="#13a87b"/>
        <path id="Trazado_159134" data-name="Trazado 159134" d="M103.2,129.247c-.131-4.219-4.992-32.681-4.992-32.681-1.117-9.757-2.463-21.184-3.086-26.551l-5.956,2.416a100.414,100.414,0,0,0,2.579,29.062c2.912,12.3,5.515,24.455,6.544,29.327a23.617,23.617,0,0,0,4.912-1.574" transform="translate(54.648 42.997)" fill="#26cb99"/>
        <path id="Trazado_159135" data-name="Trazado 159135" d="M105.4,125.626c.931-8.92-3.682-28.749-3.9-31.3-.215-2.426-1.262-21.833-1.432-23.79L94.6,73.591s-.15,16.315,2.234,25.39c2.182,8.258,2.692,24.66,3.8,29.272a7.988,7.988,0,0,0,4.754-2.628" transform="translate(58.097 43.319)" fill="#26cb99"/>
        <path id="Trazado_159136" data-name="Trazado 159136" d="M103.935,43.7s5.041,1.85,3.251,10.263-3.1,13.873-2.608,16.871,2.531,14.1,3.4,16.1c0,0,.755,3.432-12.006,6.642,0,0-11.538,2.673-10.408-5.816,1.14-8.506-1.475-17.347-2.148-20.49s-3.306-9.289,4.166-14.479,11.237-8.832,16.357-9.091" transform="translate(50.609 26.839)" fill="#def0f9"/>
        <path id="Trazado_159137" data-name="Trazado 159137" d="M95.209,41.618s-.031,4.292,1.722,6.781c1.592,2.255-8.146,5.577-8.626,3.375a9.641,9.641,0,0,0-1.449-8.153c-1.511-2.123,8.353-2,8.353-2" transform="translate(53.243 25.558)" fill="#efb185"/>
        <path id="Trazado_159138" data-name="Trazado 159138" d="M96.282,48.213a12.575,12.575,0,0,1-1.7-6.037L87.7,46.613c0,.008,0,.011.01.018.27.034,5.33.73,6.8,4.147,1.427-.783,2.352-1.743,1.774-2.565" transform="translate(53.859 25.901)" fill="#dd9569"/>
        <path id="Trazado_159139" data-name="Trazado 159139" d="M84.923,36.172a18.126,18.126,0,0,0-.434,7.3c.733,3.528.281,4.308.688,5.869a3.763,3.763,0,0,0,1.075,2.244c1.215.939,3.528,1.078,6.476-.391,3.561-1.782,6.9-7.336,4.791-11.749s-7.425-7.646-12.595-3.269" transform="translate(51.748 20.937)" fill="#efb185"/>
        <path id="Trazado_159140" data-name="Trazado 159140" d="M97.852,44.388c-1.96-3.966-6.211-8.511-6.206-8.776a11.947,11.947,0,0,0-2.8-1.458,8.383,8.383,0,0,0-3.982,1.977,20.871,20.871,0,0,0-.5,2.563c1,.891,2.931,1.818,3.3,2.628a10.77,10.77,0,0,1,.4,6.339c-.442,1.388,2.166,3.065,1.795,4.3a.252.252,0,0,0,0,.158,10.072,10.072,0,0,0,7.992-7.728" transform="translate(51.809 20.975)" fill="#e6a376"/>
        <path id="Trazado_159141" data-name="Trazado 159141" d="M83.881,35.193a4.788,4.788,0,0,0,3.264,4.582c2.058.736,2.239,3.9,2.208,4.5s-.3,3.311-.021,3.625c.528.6,1.822-1.613,2.562-1.553,1.895.148,1.367,1.953-.107,3.951C90.215,52.412,95,52.672,97,50.841c1.065-.968,1.428-1.522,2.607-4.71,1.713-4.645,1.23-9.94-4.289-12.174S87.253,36.1,83.881,35.193" transform="translate(51.512 20.461)" fill="#221101"/>
        <path id="Trazado_159142" data-name="Trazado 159142" d="M97,50.841c1.065-.97,1.428-1.522,2.608-4.712,1.711-4.644,1.228-9.938-4.29-12.172S87.253,36.1,83.881,35.193a4.721,4.721,0,0,0,.176,1.322c1.68.079,6.285.46,7.662,2.269,1.706,2.226,3.2,1.275,3.417,4.255.211,2.873,1.37,6.529-3.243,8.684,1.927,1.083,4.331-.166,5.1-.881" transform="translate(51.512 20.461)" fill="#341c09"/>
        <path id="Trazado_159143" data-name="Trazado 159143" d="M89.069,48.465l-2.946,3.1s10.448,1.766,12.858-3.532a2.9,2.9,0,0,0-2.253-3.282s.113,4.071-7.659,3.714" transform="translate(52.89 27.482)" fill="#c1dbe5"/>
        <path id="Trazado_159144" data-name="Trazado 159144" d="M84.78,83.965c1.136-8.506-.7-17.068-1.37-20.21-.671-3.114-3.236-9.168,3.958-14.322,2.859,1.324,7.115,4.379,5.591,10.539-1.889,7.615-1,23.568-.754,30.489-3.251,0-8.121-1.277-7.425-6.5" transform="translate(50.612 30.358)" fill="#c1dbe5"/>
        <path id="Trazado_159145" data-name="Trazado 159145" d="M75.364,43.655s.321-2.487-.452-3.32-2.465-4.269-3.186-4.734-.442.907-.223,1.816.086,2.679-.229,2.458-1.764.825-1.5,2.1,2.337,3.346,2.378,3.622,3.21-1.945,3.21-1.945" transform="translate(42.831 21.805)" fill="#efb185"/>
        <path id="Trazado_159146" data-name="Trazado 159146" d="M97.918,60.443s.868-4.11-4.915-5.553a104.523,104.523,0,0,0-11.764-2.119L74.633,40.747s-2.613-.221-3.558,1.3c0,0,3.114,13.086,7.231,16.283,0,0,18.895,11.489,19.612,2.11" transform="translate(43.648 25.017)" fill="#def0f9"/>
        <path id="Trazado_159147" data-name="Trazado 159147" d="M90.077,129.975s-3.662,3.075-2.9,6.289c0,0,1.227,1.3,2.374-1s2.358-5.365.521-5.293" transform="translate(53.475 79.819)" fill="#0a1014"/>
        <path id="Trazado_159148" data-name="Trazado 159148" d="M87.141,139.293s5.54,1.906,6.471.1a16.894,16.894,0,0,1,2.633-3.9c.681-.655,5.247-8.339,3.75-9.565s-3.695.954-4.35,1.487-7.62,5.94-7.62,5.94Z" transform="translate(53.515 77.107)" fill="#111114"/>
        <path id="Trazado_159149" data-name="Trazado 159149" d="M66.277,114.9s19.4,11.121,23.8,14.9c3.641,3.131,23.826,12.787,23.826,12.787a23.881,23.881,0,0,0-1.638,6.245s-18.441-.266-30.045-10.921c0,0-38.936-8.111-35.612-28.2,0,0,12.837,2.313,19.671,5.183" transform="translate(28.498 67.379)" fill="#131c24"/>
        <path id="Trazado_159150" data-name="Trazado 159150" d="M94.724,135.118c.605-.583,4.282-6.731,4-8.931a2.049,2.049,0,0,0-2.3,1.453,68.888,68.888,0,0,1-4.229,7.933c-.437.554-2.949,2.978-2.541,4.206,1.106.066,2.089-.089,2.432-.762a16.857,16.857,0,0,1,2.633-3.9" transform="translate(55.034 77.479)" fill="#1d1d21"/>
        <path id="Trazado_159151" data-name="Trazado 159151" d="M81.944,145.027s6.274.985,6.934-.659a14.846,14.846,0,0,1,1.966-3.6c.536-.62,3.877-7.638,2.474-8.581s-3.117,1.122-3.645,1.638-6.256,5.683-6.256,5.683Z" transform="translate(50.323 81.032)" fill="#161619"/>
        <path id="Trazado_159152" data-name="Trazado 159152" d="M89.009,140.48c.476-.552,3.169-6.177,2.75-8.053a1.781,1.781,0,0,0-1.872,1.446,60.776,60.776,0,0,1-3.031,7.209c-.333.512-2.31,2.82-1.856,3.851.957-.034,1.8-.252,2.043-.855a14.864,14.864,0,0,1,1.966-3.6" transform="translate(52.158 81.324)" fill="#1d1d21"/>
        <path id="Trazado_159153" data-name="Trazado 159153" d="M54.868,90.6a4.2,4.2,0,0,0-3.53,4.634c.147,4.177,4.008,22.226,8.445,25.811S64.12,116.1,64.12,116.1,61.4,89.686,54.868,90.6" transform="translate(31.525 55.628)" fill="#c85f5e"/>
        <path id="Trazado_159154" data-name="Trazado 159154" d="M66.124,111.832s-3.225,9.559-4.891,11.643c0,0,19.4,11.126,23.794,14.91,3.645,3.13,24.267,12.6,24.267,12.6a17.53,17.53,0,0,0-2.081,6.426S88.775,157.148,77.17,146.5c0,0-38.936-8.111-35.612-28.2,0,0,12.882,5.125,24.567-6.463" transform="translate(25.398 68.678)" fill="#1d2833"/>
        <path id="Trazado_159155" data-name="Trazado 159155" d="M51.253,92.193s-10.527,5.916-10.76,6.637-1.449,1.283,2.008,9.476a26.358,26.358,0,0,1,.938,16.127c-1.349,5.154-1.133,6.9-1.133,6.9s4.089,8.763,15.721,4.484c2.347-.865,8.908-7.121,10.1-9.7,0,0-3.7-4.552-2.247-13.436s2.278-20.42-2.765-21.955c0,0-1.282-1.548-11.864,1.467" transform="translate(24.625 55.472)" fill="#eb9595"/>
        <path id="Trazado_159156" data-name="Trazado 159156" d="M49.037,89.717s6.781,3.567,3.756,8.681l3.193,1.756s3.125-8.945-6.949-10.437" transform="translate(30.114 55.097)" fill="#feffff"/>
        <path id="Trazado_159157" data-name="Trazado 159157" d="M46.342,87.486s2.851,4.336.594,7.255c-1.264,1.635,1.714,5.512,6.786,5.2,0,0,2.274-.555,2.042-1.377-.526-1.871.224-2.923,1.035-4.357s-10.456-6.723-10.456-6.723" transform="translate(28.459 53.727)" fill="#efb185"/>
        <path id="Trazado_159158" data-name="Trazado 159158" d="M46.812,94.638a1.37,1.37,0,0,0-.268.671c1.9-1.935,5.562-2.079,5.562-2.079l-4.831-5.339c-.187-.09-.347-.168-.487-.237l-.148.476c.7,1.369,1.855,4.332.173,6.508" transform="translate(28.583 53.83)" fill="#dd9569"/>
        <path id="Trazado_159159" data-name="Trazado 159159" d="M53.4,96.716c-.481-2.967.224-2.923,1.035-4.355.218-.391-.473-1.073-1.583-1.863a3.638,3.638,0,0,0-.83.933c-1.964,3.033-1.951,5.4-1.719,6.663a5.016,5.016,0,0,0,1.056,0c.61-.092,2.189-.463,2.042-1.378" transform="translate(30.825 55.576)" fill="#f2b78f"/>
        <path id="Trazado_159160" data-name="Trazado 159160" d="M45.827,89.5s1.238,5.73,5.181,8.33c3.491,2.307,7.562,3.821,8.308-.352.6-3.317,2.227-11.757-.7-13.455-3.774-2.181-5.159-4.876-9.522-3.267,0,0-4.989,2.294-3.265,8.744" transform="translate(27.921 49.291)" fill="#efb185"/>
        <path id="Trazado_159161" data-name="Trazado 159161" d="M45.826,88.8a12.878,12.878,0,0,0,5.165,8.41,16.214,16.214,0,0,0,3.3,1.755,15.622,15.622,0,0,1-3.449-3.428c-1.424-1.658,2.121-1.019-.3-5.259-.823-1.446,3.219.418,4.122.392,5.38-.137,4.976-3.21,5.08-4.515A9.4,9.4,0,0,0,59.3,84.56l-.51-.978c-.06-.089-.121-.179-.181-.261A18.513,18.513,0,0,0,56.87,81.4c-2.3.05-8.852.192-8.984.226-.089.021-1.214,1.551-2.257,3a8.829,8.829,0,0,0,.2,4.164" transform="translate(27.921 49.991)" fill="#e6a376"/>
        <path id="Trazado_159162" data-name="Trazado 159162" d="M48.351,95.149s-4.352-4-2.841-9.736a6.709,6.709,0,0,1,5.938-5.225c2.442-.289,7.147-.139,9.016,4.8.581,1.543.187,4.921-5.866,3.346-.868-.226-3.169-.529-3.982.208a3.157,3.157,0,0,0-.512,3.285c.344,1.027-.56,1.136-.688.917s-1.288-3.144-2.382-2c-.986,1.036,1.212,4.211,1.316,4.408" transform="translate(27.753 49.19)" fill="#341c09"/>
        <path id="Trazado_159163" data-name="Trazado 159163" d="M48.351,94.383c-.1-.2-2.3-3.372-1.316-4.408,1.094-1.143,2.258,1.785,2.382,2s1.031.11.688-.917a3.157,3.157,0,0,1,.512-3.285c.736-.67,2.755-.331,3.982-.208-1-.641-3.005-.868-3.719-2.542a5.944,5.944,0,0,0-3.567-3.679,6.942,6.942,0,0,0-1.8,3.3c-1.511,5.738,2.841,9.736,2.841,9.736" transform="translate(27.753 49.956)" fill="#221101"/>
        <path id="Trazado_159164" data-name="Trazado 159164" d="M47.7,91.112a8.834,8.834,0,0,0,6.81,6.429l-1.653,4.039s-10.377-5.2-5.157-10.468" transform="translate(28.394 55.953)" fill="#feffff"/>
        <path id="Trazado_159165" data-name="Trazado 159165" d="M59.737,85.024s.893,5.52-6.134,3.52a8.077,8.077,0,0,1-4.926-4.2,3.2,3.2,0,0,0-2.3-1.968s1.869-2.657,6.705-2.313c2.278.161,4.641,2.374,5.225,2.734s-.362,2.667,1.43,2.221" transform="translate(28.481 49.153)" fill="#341c09"/>
        <path id="Trazado_159166" data-name="Trazado 159166" d="M69.03,110.983s5.063.947,8.518-.491,2.625-1.551,2.358-2.076c-.579-1.138-5.139-.823-5.984-1.046s.7-.889,1.048-1.47,1.144-1.259.865-1.449-.973-.384-2.258.638a27.76,27.76,0,0,1-4.523,2.411Z" transform="translate(42.392 64.052)" fill="#efb185"/>
        <path id="Trazado_159167" data-name="Trazado 159167" d="M77.687,106.7a8.631,8.631,0,0,0-.271,2.25,5.079,5.079,0,0,0,.726,2.6s-16.519,3.315-20.714,1.186c0,0-4.058-6.253,2.148-7.917Z" transform="translate(34.467 64.368)" fill="#c85f5e"/>
        <path id="Trazado_159168" data-name="Trazado 159168" d="M49.96,119.057l-.071.841,12.3,8.728.071-.846Z" transform="translate(30.638 73.115)" fill="#b4b9bc"/>
        <path id="Trazado_159169" data-name="Trazado 159169" d="M57.58,128.486l-.071.846,22.9-10.584.081-.843Z" transform="translate(35.317 72.408)" fill="#7d8183"/>
        <path id="Trazado_159170" data-name="Trazado 159170" d="M49.933,123.083l12.3,8.723,22.911-10.581-12.3-8.724Z" transform="translate(30.665 69.089)" fill="#e3e5e5"/>
        <path id="Trazado_159171" data-name="Trazado 159171" d="M61.608,115.775l-.914-.849-3.8,15.347.915.846Z" transform="translate(34.941 70.578)" fill="#bdbbbb"/>
        <path id="Trazado_159172" data-name="Trazado 159172" d="M84.108,108.918l-.915-.844L59.249,119.132l.914.849Z" transform="translate(36.386 66.37)" fill="#d2d0d0"/>
        <path id="Trazado_159173" data-name="Trazado 159173" d="M61.259,119.661,57.463,135l23.945-11.062L85.2,108.6Z" transform="translate(35.289 66.691)" fill="#d5dfe6"/>
        <path id="Trazado_159174" data-name="Trazado 159174" d="M59.815,119.661h0l20.149,4.282,3.8-15.345Z" transform="translate(36.733 66.691)" fill="#e9f0f4"/>
        <path id="Trazado_159175" data-name="Trazado 159175" d="M54.556,118.924s5.585,4.612,11.052,3.532c0,0-.006-1.422-2.434-1.953a4.28,4.28,0,0,1-3.341-2.671c.018-.287,1.924-.449,2.776-.487s1.879-1.207-.2-1.338-5.624-.922-7.644-.483c0,0-2.011,2.153-.211,3.4" transform="translate(33.044 70.864)" fill="#efb185"/>
        <path id="Trazado_159176" data-name="Trazado 159176" d="M44.895,94.925a4.2,4.2,0,0,0-4.762,3.359c-1.107,4.032-2.825,22.41.333,27.156s23.742,7.243,23.742,7.243a5.631,5.631,0,0,1,.621-5.714l-17.775-7.431S51.4,96,44.895,94.925" transform="translate(23.742 58.269)" fill="#c85f5e"/>
        <path id="Trazado_159177" data-name="Trazado 159177" d="M44.534,118.739l17.775,7.433a6.241,6.241,0,0,0-.93,1.948c-4.042-1.286-18.956-3.5-18.608-6.718,1.787-16.559,1.951-25.219,1.951-25.219l.662,1.972c1.654,7-.851,20.583-.851,20.583" transform="translate(26.263 59.068)" fill="#efaaaa"/>
      </g>
    </g>
  </g>
</svg>
