<svg id="Grupo_71334" data-name="Grupo 71334" xmlns="http://www.w3.org/2000/svg" xmlns:xlink="http://www.w3.org/1999/xlink" width="470.391" height="295.669" viewBox="0 0 470.391 295.669">
  <defs>
    <clipPath id="clip-path">
      <rect id="Rectángulo_8653" data-name="Rectángulo 8653" width="470.391" height="295.669" fill="none"/>
    </clipPath>
    <clipPath id="clip-path-3">
      <rect id="Rectángulo_8634" data-name="Rectángulo 8634" width="5.06" height="21.481" fill="none"/>
    </clipPath>
    <clipPath id="clip-path-4">
      <rect id="Rectángulo_8635" data-name="Rectángulo 8635" width="3.008" height="12.008" fill="none"/>
    </clipPath>
    <clipPath id="clip-path-5">
      <rect id="Rectángulo_8636" data-name="Rectángulo 8636" width="4.527" height="4.15" fill="none"/>
    </clipPath>
    <clipPath id="clip-path-6">
      <rect id="Rectángulo_8637" data-name="Rectángulo 8637" width="43.719" height="14.291" fill="none"/>
    </clipPath>
    <clipPath id="clip-path-7">
      <path id="Trazado_159032" data-name="Trazado 159032" d="M436.408,255.456a2.739,2.739,0,0,0-2.674,2.182l-3.756,19.48a2.459,2.459,0,0,0,2.4,2.982l7.984.009a7.126,7.126,0,0,0,7.08-5.571q.06-.3.094-.611l1.791-16.192a2.053,2.053,0,0,0-2.039-2.279Z" transform="translate(-429.92 -255.456)" fill="none"/>
    </clipPath>
    <clipPath id="clip-path-8">
      <rect id="Rectángulo_8647" data-name="Rectángulo 8647" width="121.151" height="1.298" fill="none"/>
    </clipPath>
  </defs>
  <g id="Grupo_71333" data-name="Grupo 71333" clip-path="url(#clip-path)">
    <g id="Grupo_71325" data-name="Grupo 71325">
      <g id="Grupo_71324" data-name="Grupo 71324" clip-path="url(#clip-path)">
        <path id="Trazado_158843" data-name="Trazado 158843" d="M24.974,77.24s-8.257,3.13.789,20.713,15.3,26.283,15.3,26.283,1.608,4.083-1.832,4.73-11.023-.536-12.543,3.681c-1.575,4.374,1.612,8.484,8.057,12.078s20.279,11.984,21.527,12.748c1.226.749,2.458,2.648.185,3.464S37.145,163.589,38.5,171.623s20.957,15.094,23.085,15.907,2.639,1.713,2.47,2.88-5.955,1.244-10.781,1.966-10.295,2.4-9.124,6.973,12.8,14.14,40.969,16.8l13.133.38,7.109-11.119c13.763-24.722,12.465-39.726,9.363-43.28s-7.587,0-10.915,3.568-6.671,8.293-7.728,7.77-1.508-1.452-.973-3.666,5.824-22.366-.029-28.035S78.059,149.1,76.1,150.515s-2.826-.681-2.75-2.116c.078-1.461,1-17.613,1.692-24.961s-.891-12.3-5.387-13.482c-4.336-1.137-7.657,5.782-10.14,8.25s-4.936-1.17-4.936-1.17-3.624-10.083-12.988-27.5S24.812,77.315,24.812,77.315" transform="translate(-3.295 -11.722)" fill="#c6ffd5"/>
        <path id="Trazado_158844" data-name="Trazado 158844" d="M101.026,222.586c-6.826-12.818-18.578-35.8-28.769-55.485s-19.428-37.479-26.189-50.33l-8.023-15.21-2.178-4.138q-.358-.695-.558-1.081c-.123-.245-.177-.375-.177-.375s.079.117.214.355l.593,1.062,2.246,4.1c1.947,3.564,4.727,8.741,8.138,15.151,6.826,12.818,16.109,30.6,26.3,50.278s21.9,42.686,28.662,55.537" transform="translate(-5.377 -14.687)" fill="#f7f7f7"/>
        <path id="Trazado_158845" data-name="Trazado 158845" d="M40.07,145.234a4.248,4.248,0,0,1,.916.252c.583.185,1.416.477,2.443.847,2.052.745,4.86,1.846,7.937,3.118l7.865,3.283,2.388.979a4.268,4.268,0,0,1,.864.395,4.209,4.209,0,0,1-.918-.245c-.582-.187-1.417-.479-2.44-.861-2.045-.766-4.838-1.9-7.914-3.174L43.327,146.6l-2.394-.967a4.325,4.325,0,0,1-.862-.4" transform="translate(-6.132 -22.227)" fill="#f7f7f7"/>
        <path id="Trazado_158846" data-name="Trazado 158846" d="M67.59,149.988c-.106-.038,1.909-5.928,4.5-13.153s4.779-13.054,4.885-13.016-1.908,5.926-4.5,13.154S67.7,150.026,67.59,149.988" transform="translate(-10.344 -18.95)" fill="#f7f7f7"/>
        <path id="Trazado_158847" data-name="Trazado 158847" d="M84.457,187.529a4.423,4.423,0,0,1,.531-.813l1.548-2.133c1.3-1.8,3.1-4.3,4.972-7.13s3.5-5.441,4.65-7.344l1.369-2.254a4.5,4.5,0,0,1,.543-.8,4.347,4.347,0,0,1-.4.883c-.285.555-.711,1.35-1.259,2.321-1.092,1.944-2.671,4.592-4.559,7.425s-3.715,5.315-5.08,7.076c-.687.878-1.251,1.583-1.654,2.058a4.491,4.491,0,0,1-.656.716" transform="translate(-12.925 -25.566)" fill="#f7f7f7"/>
        <path id="Trazado_158848" data-name="Trazado 158848" d="M57.677,188.129a3.823,3.823,0,0,1,.9.012l2.431.185c2.051.174,4.882.441,8.005.762s5.95.634,7.994.882l2.417.313a3.79,3.79,0,0,1,.881.17,3.825,3.825,0,0,1-.9-.012l-2.431-.185c-2.051-.174-4.882-.441-8.006-.762s-5.949-.634-7.992-.882l-2.418-.313a3.805,3.805,0,0,1-.881-.17" transform="translate(-8.827 -28.789)" fill="#f7f7f7"/>
        <path id="Trazado_158849" data-name="Trazado 158849" d="M68.471,222.255a6.2,6.2,0,0,1,1.148.027l3.117.224c2.629.208,6.26.523,10.267.9s7.634.733,10.257,1.015l3.1.354a6.228,6.228,0,0,1,1.132.185,6.2,6.2,0,0,1-1.148-.027l-3.116-.224c-2.63-.208-6.26-.523-10.268-.9s-7.633-.733-10.256-1.015l-3.1-.354a6.226,6.226,0,0,1-1.133-.185" transform="translate(-10.479 -34.013)" fill="#f7f7f7"/>
        <path id="Trazado_158850" data-name="Trazado 158850" d="M101.944,220.362a7.116,7.116,0,0,1,.646-1.046c.481-.717,1.109-1.651,1.866-2.776,1.573-2.346,3.733-5.594,6.015-9.247s4.274-7.009,5.693-9.45l1.684-2.891a7.091,7.091,0,0,1,.659-1.038,7.136,7.136,0,0,1-.519,1.115c-.358.706-.892,1.718-1.573,2.957-1.357,2.48-3.306,5.868-5.6,9.525s-4.488,6.887-6.123,9.194c-.821,1.151-1.494,2.076-1.973,2.7a7.116,7.116,0,0,1-.776.955" transform="translate(-15.602 -29.677)" fill="#f7f7f7"/>
        <path id="Trazado_158851" data-name="Trazado 158851" d="M395.65,250.349c-18.923-12.363-23.871-36.249-23.81-57.861.01-3.607-.5-7.394,1.111-10.609s5.549-5.5,8.823-4.082c2.715,1.176,3.979,4.253,5.556,6.782a21.092,21.092,0,0,0,8.7,7.809c2.332,1.12,5.194,1.759,7.419.44,3.055-1.812,3.288-6.118,3.155-9.7q-.376-10.019-.749-20.036c-.134-3.583-.258-7.242.75-10.678s3.373-6.673,6.754-7.734,7.657.773,8.487,4.259a33.2,33.2,0,0,1,.241,4.46c.146,1.485.89,3.109,2.316,3.479,1.443.376,2.846-.684,3.885-1.767,3.587-3.734,5.952-8.475,8.154-13.184s4.331-9.526,7.565-13.578,7.78-7.324,12.9-7.774,10.692,2.548,12.146,7.546-1.331,10.231-4.411,14.421a80.058,80.058,0,0,1-16.164,16.4,6.588,6.588,0,0,0-2.693,3.083c-.7,2.414,1.634,4.716,4.018,5.428,2.7.807,5.589.44,8.394.681s5.871,1.381,7.01,3.989c1.582,3.618-1.363,7.553-4.3,10.162a68.584,68.584,0,0,1-19.919,12.34c-2.607,1.046-5.355,1.979-7.424,3.9s-3.251,5.18-1.889,7.664,4.686,3.193,7.432,2.594,5.171-2.174,7.772-3.249c4.867-2.012,11.239-1.871,14.526,2.288,2.161,2.733,2.465,6.624,1.519,9.992a26.172,26.172,0,0,1-5.158,9.028c-7.607,9.507-17.48,17.278-28.784,21.6s-21.856,5.719-33.34,1.919" transform="translate(-56.897 -18.446)" fill="#c6ffd5"/>
        <path id="Trazado_158852" data-name="Trazado 158852" d="M406.048,237.155a321.055,321.055,0,0,1,11.673-34.973q1.788-4.563,3.531-9.011c1.165-2.954,2.321-5.885,3.628-8.68a160.431,160.431,0,0,1,8.435-15.636c2.923-4.845,5.874-9.334,8.663-13.512s5.482-8.015,8.077-11.411a127.186,127.186,0,0,1,13.423-15.1c1.718-1.653,3.092-2.891,4.036-3.717l1.079-.934a2.673,2.673,0,0,1,.382-.3,2.612,2.612,0,0,1-.337.351l-1.035.982c-.913.859-2.259,2.127-3.949,3.805a134.561,134.561,0,0,0-13.229,15.2c-2.564,3.4-5.218,7.252-7.994,11.434s-5.7,8.682-8.6,13.522a162.421,162.421,0,0,0-8.366,15.593c-1.3,2.782-2.438,5.688-3.6,8.651s-2.335,5.966-3.527,9.007a329.48,329.48,0,0,0-11.7,34.888" transform="translate(-62.144 -18.959)" fill="#f7f7f7"/>
        <path id="Trazado_158853" data-name="Trazado 158853" d="M427.336,188.309a7.3,7.3,0,0,1-.4-1.518c-.219-.985-.489-2.419-.8-4.2-.617-3.553-1.3-8.488-2.039-13.932s-1.489-10.359-2.159-13.893c-.331-1.768-.612-3.2-.82-4.181a7.184,7.184,0,0,1-.248-1.55,7.178,7.178,0,0,1,.5,1.489c.285.967.637,2.385,1.026,4.147.79,3.522,1.621,8.443,2.356,13.9.712,5.375,1.356,10.237,1.847,13.952.233,1.677.43,3.09.589,4.224a7.131,7.131,0,0,1,.145,1.563" transform="translate(-64.411 -22.81)" fill="#f7f7f7"/>
        <path id="Trazado_158854" data-name="Trazado 158854" d="M474.318,183.539a9.922,9.922,0,0,1-1.831.277c-1.179.142-2.886.339-4.988.649-4.206.587-9.988,1.6-16.319,3s-12,2.93-16.075,4.148c-2.042.594-3.68,1.12-4.815,1.476a10,10,0,0,1-1.785.5,9.788,9.788,0,0,1,1.7-.744c1.111-.431,2.732-1.027,4.762-1.682,4.048-1.337,9.723-2.933,16.072-4.348A162.817,162.817,0,0,1,467.44,184c2.116-.251,3.835-.377,5.025-.439a9.831,9.831,0,0,1,1.852-.019" transform="translate(-65.581 -28.085)" fill="#f7f7f7"/>
        <path id="Trazado_158855" data-name="Trazado 158855" d="M402.162,246.1a2.359,2.359,0,0,1-.334-.552l-.839-1.642c-.723-1.43-1.716-3.526-2.908-6.131-2.388-5.21-5.459-12.51-8.739-20.611s-6.282-15.424-8.557-20.676c-1.115-2.553-2.032-4.652-2.713-6.213-.292-.678-.532-1.236-.729-1.695a2.367,2.367,0,0,1-.213-.611,2.418,2.418,0,0,1,.334.554l.84,1.641c.722,1.43,1.715,3.525,2.907,6.131,2.388,5.21,5.459,12.51,8.741,20.615s6.28,15.42,8.555,20.672c1.115,2.552,2.032,4.653,2.713,6.212.292.678.532,1.237.729,1.7a2.4,2.4,0,0,1,.213.611" transform="translate(-57.717 -28.767)" fill="#f7f7f7"/>
        <path id="Trazado_158856" data-name="Trazado 158856" d="M467.306,231.05a2.467,2.467,0,0,1-.6.269l-1.76.651-6.491,2.329c-5.481,1.968-13.019,4.773-21.345,7.883s-15.9,5.85-21.423,7.7c-2.761.928-5,1.657-6.562,2.128l-1.8.533a2.418,2.418,0,0,1-.641.142,2.48,2.48,0,0,1,.6-.271l1.76-.65,6.489-2.329c5.481-1.967,13.02-4.773,21.348-7.884s15.9-5.848,21.419-7.7c2.761-.929,5-1.657,6.563-2.128l1.8-.534a2.411,2.411,0,0,1,.641-.141" transform="translate(-62.241 -35.36)" fill="#f7f7f7"/>
        <path id="Trazado_158857" data-name="Trazado 158857" d="M74.811,39.2c.572-4.155-5.292-7.573-9.7-7.928-2.1-.169-4.284.152-6.274-.542-4.314-1.5-6.036-7.075-10.245-8.851-3.146-1.326-6.769-.146-9.819,1.39S32.709,26.74,29.3,26.958c-2.964.19-6.184-.91-8.777.539C18.593,28.576,17.58,30.8,15.8,32.116c-1.742,1.286-4.015,1.558-6.178,1.675s-4.4.14-6.369,1.041-3.6,2.983-3.19,5.11Z" transform="translate(0 -3.261)" fill="#c6ffd5"/>
        <path id="Trazado_158858" data-name="Trazado 158858" d="M420.419,84.043c.592-4.3-5.476-7.836-10.035-8.2-2.175-.175-4.433.157-6.493-.561-4.463-1.556-6.245-7.321-10.6-9.158-3.256-1.373-7-.151-10.159,1.438s-6.275,3.588-9.8,3.813c-3.067.2-6.4-.941-9.081.557-2,1.116-3.047,3.421-4.89,4.78-1.8,1.33-4.155,1.611-6.392,1.733s-4.553.144-6.591,1.077-3.722,3.086-3.3,5.287Z" transform="translate(-52.496 -10.028)" fill="#c6ffd5"/>
        <path id="Trazado_158859" data-name="Trazado 158859" d="M533.26,107.612c.364-2.648-3.372-4.825-6.179-5.051a15.881,15.881,0,0,1-4-.346c-2.748-.958-3.845-4.507-6.527-5.638-2-.846-4.313-.093-6.256.885s-3.864,2.209-6.035,2.348c-1.889.121-3.939-.579-5.592.343-1.231.688-1.876,2.106-3.011,2.943a7.178,7.178,0,0,1-3.936,1.067,11.1,11.1,0,0,0-4.059.663,3.206,3.206,0,0,0-2.031,3.256Z" transform="translate(-74.318 -14.724)" fill="#c6ffd5"/>
        <path id="Trazado_158860" data-name="Trazado 158860" d="M510.081,34.493c.663-4.817-6.135-8.78-11.244-9.192-2.437-.2-4.967.176-7.275-.628-5-1.743-7-8.2-11.878-10.262-3.648-1.538-7.848-.169-11.384,1.611s-7.031,4.02-10.982,4.273c-3.437.22-7.169-1.054-10.176.624-2.24,1.251-3.414,3.833-5.479,5.356-2.021,1.49-4.657,1.806-7.163,1.942s-5.1.162-7.385,1.207-4.171,3.459-3.7,5.924Z" transform="translate(-64.791 -2.103)" fill="#c6ffd5"/>
        <path id="Trazado_158861" data-name="Trazado 158861" d="M192.987,59.09c1.951-.84,4.035.944,5.1,2.781s1.92,4.056,3.866,4.908c1.512.662,3.249.285,4.9.35,5.074.2,9.007,4.575,11.283,9.115,1.414,2.82,2.45,6.092,1.508,9.1-.832,2.654-3.059,4.627-5.39,6.143a26.679,26.679,0,0,1-15.836,4.5A20.448,20.448,0,0,1,183.8,88.851,24.193,24.193,0,0,1,178.989,77a72.277,72.277,0,0,1-.351-12.925" transform="translate(-27.321 -9.011)" fill="#25414b"/>
        <path id="Trazado_158862" data-name="Trazado 158862" d="M217.233,82.365c-.036,0,0-.455-.082-1.263a9.825,9.825,0,0,0-.944-3.273,10.6,10.6,0,0,0-3.2-3.856,13.29,13.29,0,0,0-5.659-2.394c-2.167-.388-4.324-.193-6.256-.6a9.823,9.823,0,0,1-4.575-2.367,15.544,15.544,0,0,1-2.313-2.6c-.237-.335-.412-.6-.524-.785a1.114,1.114,0,0,1-.156-.291,12.313,12.313,0,0,1,.8.99,17.642,17.642,0,0,0,2.368,2.485,9.757,9.757,0,0,0,4.472,2.231c1.869.384,4.019.179,6.253.574a13.375,13.375,0,0,1,5.8,2.487,10.613,10.613,0,0,1,3.231,4.015,9.237,9.237,0,0,1,.85,3.373,6.3,6.3,0,0,1-.011.947,1.13,1.13,0,0,1-.049.327" transform="translate(-29.618 -9.938)" fill="#436e7a"/>
        <path id="Trazado_158863" data-name="Trazado 158863" d="M221.649,74.584l-7.469,27.961-15.16-16.317a39.528,39.528,0,0,0-23.55-6.379l-23.594-1.1L138.857,83.44a47.772,47.772,0,0,0-8.981,4.366l-25.383,17.512c-5.371,3.878-9.778,6.839-10.814,12.768-1.367,7.819,2.591,16.548,10.807,17.989l35.9.438,1.1,22.73,56.434-5.292-1.51-34.249c11.519,8.87,16.929,12.328,25.6,10.639a12.179,12.179,0,0,0,8.359-8.092c4.784-16.035,5.6-41.248,5.6-41.248Zm-88.492,40.124,3.279-.927.206,1.182Z" transform="translate(-14.296 -11.415)" fill="#41d3a0"/>
        <path id="Trazado_158864" data-name="Trazado 158864" d="M105.863,143.111a1.829,1.829,0,0,1,.3-.018l.89-.017,3.423-.027,12.611-.033,41.758.029-.184.176c.018-.407.038-.847.058-1.288.264-5.638.518-11.1.756-16.163l.161.185c-12.7-1.183-23.587-3.013-31.358-4-3.886-.508-6.99-.853-9.118-1.1l-2.441-.272-.63-.078a1.131,1.131,0,0,1-.213-.037,1.121,1.121,0,0,1,.216.006l.632.047,2.449.213c2.132.208,5.241.517,9.132,1,7.789.923,18.674,2.706,31.364,3.866l.169.016-.008.169c-.233,5.068-.484,10.525-.741,16.164-.021.441-.042.882-.06,1.288l-.008.177h-.176l-41.759-.139-12.61-.084-3.423-.042-.89-.019a1.917,1.917,0,0,1-.3-.019" transform="translate(-16.202 -18.437)" fill="#25414b"/>
        <path id="Trazado_158865" data-name="Trazado 158865" d="M106.712,118.325a2.122,2.122,0,0,1,.576-.284,11.706,11.706,0,0,1,1.659-.546,16.552,16.552,0,0,1,11.286,1.132,11.67,11.67,0,0,1,1.519.866c.34.232.521.37.507.392-.036.057-.8-.436-2.135-1.021a18.2,18.2,0,0,0-11.116-1.115c-1.423.309-2.272.639-2.3.577" transform="translate(-16.332 -17.904)" fill="#25414b"/>
        <path id="Trazado_158866" data-name="Trazado 158866" d="M115.935,110.871a6.677,6.677,0,0,1,1.543.819,28.707,28.707,0,0,1,3.4,2.5,10.871,10.871,0,0,1,2.835,3.146,2.728,2.728,0,0,1,.285,1.276.847.847,0,0,1-.106.467,3.705,3.705,0,0,0-.412-1.625,12.47,12.47,0,0,0-2.842-2.982c-1.241-1.06-2.43-1.94-3.3-2.56a10.519,10.519,0,0,1-1.4-1.037" transform="translate(-17.743 -16.968)" fill="#25414b"/>
        <path id="Trazado_158867" data-name="Trazado 158867" d="M143.978,119.7a14.6,14.6,0,0,1-.639-2.216c-.352-1.378-.817-3.286-1.391-5.374s-1.176-3.954-1.661-5.288a21.172,21.172,0,0,1-.766-2.171,2.053,2.053,0,0,1,.315.536c.184.355.423.881.7,1.541a46.032,46.032,0,0,1,1.773,5.282c.577,2.1,1,4.02,1.29,5.415a14.01,14.01,0,0,1,.384,2.274" transform="translate(-21.352 -16.016)" fill="#25414b"/>
        <path id="Trazado_158868" data-name="Trazado 158868" d="M215.617,139.734c-.1,0-.51-8.52-.91-19.036s-.643-19.047-.541-19.051.51,8.518.91,19.038.643,19.045.541,19.05" transform="translate(-32.773 -15.556)" fill="#25414b"/>
        <g id="Grupo_71314" data-name="Grupo 71314" transform="translate(181.702 89.997)" opacity="0.3">
          <g id="Grupo_71313" data-name="Grupo 71313">
            <g id="Grupo_71312" data-name="Grupo 71312" clip-path="url(#clip-path-3)">
              <path id="Trazado_158869" data-name="Trazado 158869" d="M214.536,106.259c.584,3.665,2.156,7.083,3.395,10.581s2.158,7.274,1.374,10.9l-4.241-3.415" transform="translate(-214.536 -106.259)"/>
            </g>
          </g>
        </g>
        <path id="Trazado_158870" data-name="Trazado 158870" d="M239.7,122.577a2.038,2.038,0,0,1-.324-.534c-.19-.353-.438-.878-.721-1.536a33.89,33.89,0,0,1-2.614-10.852c-.047-.716-.065-1.295-.058-1.7a2.053,2.053,0,0,1,.045-.623,20.9,20.9,0,0,1,.273,2.3,43.863,43.863,0,0,0,2.6,10.778,21.45,21.45,0,0,1,.8,2.168" transform="translate(-36.117 -16.427)" fill="#25414b"/>
        <g id="Grupo_71317" data-name="Grupo 71317" transform="translate(119.131 90.949)" opacity="0.3">
          <g id="Grupo_71316" data-name="Grupo 71316">
            <g id="Grupo_71315" data-name="Grupo 71315" clip-path="url(#clip-path-4)">
              <path id="Trazado_158871" data-name="Trazado 158871" d="M140.658,107.383l.917,12.007,2.09-.591Z" transform="translate(-140.658 -107.383)"/>
            </g>
          </g>
        </g>
        <path id="Trazado_158872" data-name="Trazado 158872" d="M200.96,104.91a.8.8,0,0,1-.186-.077l-.527-.259a16.282,16.282,0,0,0-2.093-.821,16.091,16.091,0,0,0-8.149-.413,17.163,17.163,0,0,0-5.249,2.128c-1.77,1.038-3.537,2.355-5.476,3.638a20.956,20.956,0,0,1-6.6,3.107,19.24,19.24,0,0,1-7.822.32A21.337,21.337,0,0,1,161,111.488a20.116,20.116,0,0,1-3.454-1.768,18.829,18.829,0,0,1-2.906-2.363,27.037,27.037,0,0,1-2.337-2.714c-1.411-1.853-2.6-3.71-3.822-5.364a23.681,23.681,0,0,0-3.791-4.242,15.064,15.064,0,0,0-3.983-2.451,10.086,10.086,0,0,0-3.437-.768,9.037,9.037,0,0,0-2.983.425.841.841,0,0,1,.185-.079l.556-.2c.249-.074.565-.133.938-.212a8.8,8.8,0,0,1,1.309-.082,10.052,10.052,0,0,1,3.511.721,15.149,15.149,0,0,1,4.074,2.442,23.6,23.6,0,0,1,3.868,4.26c1.24,1.656,2.441,3.506,3.848,5.339a27.045,27.045,0,0,0,2.316,2.671,18.6,18.6,0,0,0,2.853,2.309,19.852,19.852,0,0,0,3.389,1.728,21.022,21.022,0,0,0,3.783,1.023,18.952,18.952,0,0,0,7.673-.306,20.736,20.736,0,0,0,6.5-3.041c1.933-1.267,3.712-2.58,5.509-3.617a17.279,17.279,0,0,1,5.349-2.12,15.922,15.922,0,0,1,8.248.533,14.22,14.22,0,0,1,2.082.89l.511.292a.823.823,0,0,1,.169.111" transform="translate(-20.552 -14.03)" fill="#fff"/>
        <path id="Trazado_158873" data-name="Trazado 158873" d="M227.047,100.458a3.577,3.577,0,0,1,.075.877,12.351,12.351,0,0,1-.195,2.393,12.775,12.775,0,0,1-1.131,3.384,21.722,21.722,0,0,1-2.343,3.679,17.326,17.326,0,0,1-6.155,4.917,15.277,15.277,0,0,1-2.239.861,3.566,3.566,0,0,1-.858.19c-.022-.068,1.2-.374,2.98-1.285a18.257,18.257,0,0,0,5.98-4.911,22.93,22.93,0,0,0,2.328-3.6,13.35,13.35,0,0,0,1.179-3.283,30.167,30.167,0,0,0,.377-3.218" transform="translate(-32.783 -15.375)" fill="#fff"/>
        <path id="Trazado_158874" data-name="Trazado 158874" d="M238.334,135.381c-.007.011-.1-.041-.272-.15a7.218,7.218,0,0,1-.73-.506,11.741,11.741,0,0,1-2.278-2.345,17.539,17.539,0,0,1-3.174-10.18,35.529,35.529,0,0,1,1.832-10.585c.407-1.314.768-2.366,1.026-3.091a7.36,7.36,0,0,1,.438-1.112,7.437,7.437,0,0,1-.3,1.156l-.912,3.12A38.079,38.079,0,0,0,232.25,122.2a17.86,17.86,0,0,0,3.015,10.03,16.077,16.077,0,0,0,3.069,3.155" transform="translate(-35.488 -16.439)" fill="#fff"/>
        <path id="Trazado_158875" data-name="Trazado 158875" d="M256,102.529a2.994,2.994,0,0,1-.68.376c-.449.217-1.111.507-1.951.816a17.82,17.82,0,0,1-6.871,1.168,11.546,11.546,0,0,1-6.537-2.341,8.17,8.17,0,0,1-1.494-1.513,2.535,2.535,0,0,1-.41-.661,14.871,14.871,0,0,0,2.061,1.967,11.922,11.922,0,0,0,6.4,2.179,19.212,19.212,0,0,0,6.769-1.046c1.683-.551,2.691-1,2.715-.944" transform="translate(-36.433 -15.361)" fill="#fff"/>
        <path id="Trazado_158876" data-name="Trazado 158876" d="M132.6,118.358c-.064.017-.351-1.107-1.011-2.852a32.091,32.091,0,0,0-8-12c-1.356-1.281-2.283-1.978-2.243-2.031a3.47,3.47,0,0,1,.686.443,20.616,20.616,0,0,1,1.733,1.395,28.734,28.734,0,0,1,8.072,12.11,20.521,20.521,0,0,1,.621,2.136,3.477,3.477,0,0,1,.145.8" transform="translate(-18.571 -15.529)" fill="#fff"/>
        <path id="Trazado_158877" data-name="Trazado 158877" d="M138.4,122.852a1.808,1.808,0,0,1-.19.377,7.779,7.779,0,0,1-.673,1.008,11.117,11.117,0,0,1-3.444,2.809,20.4,20.4,0,0,1-6.27,2.048c-2.452.423-5.177.587-7.983,1.041a23.578,23.578,0,0,0-4.013.99,16.531,16.531,0,0,0-3.439,1.692,17.369,17.369,0,0,0-4.68,4.48,17.744,17.744,0,0,0-2.075,3.873c-.379.972-.506,1.54-.548,1.528a1.865,1.865,0,0,1,.079-.414,10.2,10.2,0,0,1,.334-1.162,16.469,16.469,0,0,1,2-3.975,17.23,17.23,0,0,1,4.709-4.616,16.551,16.551,0,0,1,3.5-1.748,23.491,23.491,0,0,1,4.072-1.013c2.835-.458,5.556-.612,7.988-1.013a20.717,20.717,0,0,0,6.2-1.942,11.557,11.557,0,0,0,3.456-2.67c.667-.8.937-1.316.974-1.293" transform="translate(-16.083 -18.802)" fill="#fff"/>
        <path id="Trazado_158878" data-name="Trazado 158878" d="M161.6,125.156a2.828,2.828,0,0,1,.246.7,13.588,13.588,0,0,1,.418,1.973,18.035,18.035,0,0,1,.183,2.991,18.96,18.96,0,0,1-1.57,7.137,18.015,18.015,0,0,1-1.419,2.638,13.585,13.585,0,0,1-1.207,1.615,2.823,2.823,0,0,1-.517.529c-.054-.045.633-.842,1.5-2.283a20.351,20.351,0,0,0,1.328-2.632,20.208,20.208,0,0,0,1.543-7.015,20.409,20.409,0,0,0-.1-2.947c-.184-1.673-.473-2.685-.4-2.7" transform="translate(-24.14 -19.154)" fill="#fff"/>
        <path id="Trazado_158879" data-name="Trazado 158879" d="M212.737,137.524a15.615,15.615,0,0,0-9.725-1.161,4.2,4.2,0,0,1,1.416-.444,11.719,11.719,0,0,1,7.036.84,4.207,4.207,0,0,1,1.272.765" transform="translate(-31.07 -20.77)" fill="#fff"/>
        <path id="Trazado_158880" data-name="Trazado 158880" d="M252.258,53.8l-7.132,17.714,13.43,6.017L262,62.471Z" transform="translate(-37.515 -8.235)" fill="#ffc19d"/>
        <path id="Trazado_158881" data-name="Trazado 158881" d="M265.383,67.309,253.3,52.345c-2.428-3.366-6.307-8.778-6.48-9.242a40.154,40.154,0,0,1-.231-6.776,37.8,37.8,0,0,0-.3-4.714l-9.94,3.768-2.089-7.626-1.357.427s-3.6,6.22-2.487,9.765,5.814,5.136,6.982,5.858,5.577,2.615,10.565,10.142l.8,1.163.005.008,2.02,2.919,0,0L260,71.3a3.35,3.35,0,1,0,5.38-3.993" transform="translate(-35.231 -4.248)" fill="#436e7a"/>
        <path id="Trazado_158882" data-name="Trazado 158882" d="M243.3,32.987l-2.6-7.317.941-.3s4.579,2.8,5.567,6.138Z" transform="translate(-36.839 -3.882)" fill="#436e7a"/>
        <path id="Trazado_158883" data-name="Trazado 158883" d="M240.506,45.267s.042-.016.113-.047l.311-.139,1.171-.529,4.225-1.924-.1-.07a10.326,10.326,0,0,0,.007,1.3,3.687,3.687,0,0,0,.31,1.38c.492.839,1.085,1.659,1.693,2.537,1.226,1.744,2.592,3.627,4.029,5.587a1.718,1.718,0,0,1,.412.823,1.379,1.379,0,0,1-2.382,1.14c-.18-.22-.358-.479-.535-.714l-1.038-1.4-3.6-4.854a4.049,4.049,0,0,0-.889-.863c-.31-.236-.616-.439-.9-.626-.575-.371-1.085-.667-1.5-.9s-.749-.412-.973-.529l-.257-.129a.58.58,0,0,0-.091-.038.461.461,0,0,0,.082.055l.248.146.954.561c.412.246.916.551,1.482.929.283.19.584.4.888.633a3.943,3.943,0,0,1,.854.847l3.563,4.878,1.032,1.408c.181.241.342.48.545.73a1.568,1.568,0,0,0,2.711-1.3,1.906,1.906,0,0,0-.447-.907c-1.436-1.961-2.805-3.839-4.037-5.577-.609-.87-1.213-1.7-1.695-2.51a3.581,3.581,0,0,1-.3-1.314,10.368,10.368,0,0,1-.017-1.282l.006-.122-.108.052-4.241,2.032-1.136.55-.29.141a.916.916,0,0,0-.091.048" transform="translate(-36.808 -6.496)" fill="#25414b"/>
        <g id="Grupo_71320" data-name="Grupo 71320" transform="translate(202.705 31.053)" opacity="0.3">
          <g id="Grupo_71319" data-name="Grupo 71319">
            <g id="Grupo_71318" data-name="Grupo 71318" clip-path="url(#clip-path-5)">
              <path id="Trazado_158884" data-name="Trazado 158884" d="M239.4,40.814l4.46-1.65-.028-2.5-4.5,1.722Z" transform="translate(-239.334 -36.664)"/>
            </g>
          </g>
        </g>
        <path id="Trazado_158885" data-name="Trazado 158885" d="M243.493,36.494a4.535,4.535,0,0,0-.173,1.842,4.552,4.552,0,0,0,.213,1.839,4.561,4.561,0,0,0,.173-1.843,4.546,4.546,0,0,0-.213-1.838" transform="translate(-37.239 -5.585)" fill="#25414b"/>
        <path id="Trazado_158886" data-name="Trazado 158886" d="M241.9,37.081a4.526,4.526,0,0,0-.174,1.842,4.56,4.56,0,0,0,.213,1.838,4.526,4.526,0,0,0,.174-1.842,4.564,4.564,0,0,0-.213-1.838" transform="translate(-36.994 -5.675)" fill="#25414b"/>
        <path id="Trazado_158887" data-name="Trazado 158887" d="M240.369,37.454A4.535,4.535,0,0,0,240.2,39.3a4.552,4.552,0,0,0,.213,1.839,4.561,4.561,0,0,0,.173-1.843,4.546,4.546,0,0,0-.213-1.838" transform="translate(-36.761 -5.732)" fill="#25414b"/>
        <path id="Trazado_158888" data-name="Trazado 158888" d="M245.666,69.923l.483-3.471.332-9.2-.357-6.45a4.3,4.3,0,0,1,3.308,2.943,22.994,22.994,0,0,1,1.209,7.032s9,3.547,5.83,12.036" transform="translate(-37.598 -7.775)" fill="#ffc19d"/>
        <path id="Trazado_158889" data-name="Trazado 158889" d="M259.233,56.146a3.535,3.535,0,0,0-.412-2.082,2.97,2.97,0,0,0-2.01-1.247,5.857,5.857,0,0,0-2.2-.03l1.693,2.36a34.647,34.647,0,0,0-.75,4.32c-.091.75-.086,1.673.562,2.062a1.388,1.388,0,0,0,1.661-.382,4.052,4.052,0,0,0,.762-1.663,15.452,15.452,0,0,0,.689-3.34" transform="translate(-38.968 -8.065)" fill="#ffc19d"/>
        <path id="Trazado_158890" data-name="Trazado 158890" d="M262.235,59.371a3.535,3.535,0,0,0-.412-2.082,2.97,2.97,0,0,0-2.01-1.247,5.857,5.857,0,0,0-2.2-.03l1.693,2.36a34.839,34.839,0,0,0-.75,4.321c-.091.75-.086,1.673.562,2.062a1.388,1.388,0,0,0,1.661-.382,4.053,4.053,0,0,0,.762-1.663,15.454,15.454,0,0,0,.689-3.34" transform="translate(-39.427 -8.559)" fill="#ffc19d"/>
        <path id="Trazado_158891" data-name="Trazado 158891" d="M265.387,62.547a3.535,3.535,0,0,0-.412-2.082,2.97,2.97,0,0,0-2.01-1.247,5.857,5.857,0,0,0-2.2-.03l1.693,2.36a34.681,34.681,0,0,0-.75,4.321c-.091.75-.086,1.673.562,2.062a1.388,1.388,0,0,0,1.661-.382,4.048,4.048,0,0,0,.762-1.663,15.455,15.455,0,0,0,.689-3.34" transform="translate(-39.909 -9.045)" fill="#ffc19d"/>
        <path id="Trazado_158892" data-name="Trazado 158892" d="M259.69,54.8a6.61,6.61,0,0,1,.135,3.147,6.613,6.613,0,0,1-1.005,2.986c-.1-.042.407-1.347.639-3.037s.12-3.084.23-3.1" transform="translate(-39.609 -8.387)" fill="#ff9c6a"/>
        <path id="Trazado_158893" data-name="Trazado 158893" d="M262.858,59.167a5.071,5.071,0,0,1,.012,2.779,5.08,5.08,0,0,1-1.137,2.536c-.1-.053.473-1.147.776-2.612.318-1.463.239-2.693.35-2.7" transform="translate(-40.055 -9.055)" fill="#ff9c6a"/>
        <path id="Trazado_158894" data-name="Trazado 158894" d="M250.31,54.8a12.477,12.477,0,0,1,.387,1.856c.208,1.176.484,2.843.794,4.8l-.113-.136a9.679,9.679,0,0,1,5.874,5.659,9.782,9.782,0,0,1,.5,5.725,3.046,3.046,0,0,1-.241.82,19.638,19.638,0,0,0,.194-3.135,10.072,10.072,0,0,0-.766-3.282,9.625,9.625,0,0,0-5.671-5.463l-.1-.035-.014-.1c-.284-1.962-.514-3.637-.663-4.822a12.46,12.46,0,0,1-.18-1.887" transform="translate(-38.307 -8.387)" fill="#ff9c6a"/>
        <path id="Trazado_158895" data-name="Trazado 158895" d="M246.378,32.309a.679.679,0,0,1-.156.069l-.454.17-1.674.622-5.5,2.094-5.5,2.111-1.67.628-.457.164a.709.709,0,0,1-.163.047.788.788,0,0,1,.152-.075l.447-.19,1.654-.672c1.4-.562,3.336-1.325,5.484-2.152s4.1-1.552,5.521-2.054c.711-.252,1.289-.448,1.69-.578l.464-.144a.719.719,0,0,1,.165-.041" transform="translate(-35.323 -4.945)" fill="#25414b"/>
        <path id="Trazado_158896" data-name="Trazado 158896" d="M176.345,129.319s8.835-2.426,10.347-2.477c1.158-.04,7.863,1.1,10.946,1.631a2.238,2.238,0,0,1,1.891,2.486,1.269,1.269,0,0,1-.054.215,2.04,2.04,0,0,1-1.7,1.3,2.372,2.372,0,0,1,1.292,2.453c-.241,1.75-2.41,1.8-2.41,1.8a2.933,2.933,0,0,1,.262.314,2.107,2.107,0,0,1-1.555,3.34l-.986.071a2.085,2.085,0,0,1,1.006,1.928c-.385,2.293-5.619,1.946-5.619,1.946l-14.06-.269Z" transform="translate(-26.891 -19.412)" fill="#ffc19d"/>
        <path id="Trazado_158897" data-name="Trazado 158897" d="M199.048,125.119a3.768,3.768,0,0,1-1.995,2.868l-7.074-1.363s5.578-1.021,6.469-1.811a6.209,6.209,0,0,1,1.167-.839,1.018,1.018,0,0,1,1.432,1.145" transform="translate(-29.076 -18.957)" fill="#ffc19d"/>
        <path id="Trazado_158898" data-name="Trazado 158898" d="M193.945,127.633a10.579,10.579,0,0,0,3.214.725,13.272,13.272,0,0,0,3.278.263,10.586,10.586,0,0,0-3.214-.724,13.348,13.348,0,0,0-3.278-.264" transform="translate(-29.682 -19.526)" fill="#ff9c6a"/>
        <path id="Trazado_158899" data-name="Trazado 158899" d="M195.119,132.614a10.429,10.429,0,0,0,5.614.651,13.228,13.228,0,0,0-2.8-.4,13.164,13.164,0,0,0-2.815-.252" transform="translate(-29.862 -20.29)" fill="#ff9c6a"/>
        <path id="Trazado_158900" data-name="Trazado 158900" d="M190.926,131.369c-.116.049-.038.457.324.778s.776.35.811.23-.221-.324-.5-.578-.515-.487-.634-.43" transform="translate(-29.213 -20.104)" fill="#ff9c6a"/>
        <path id="Trazado_158901" data-name="Trazado 158901" d="M193.383,137.791a20.694,20.694,0,0,0,6.149.73,20.7,20.7,0,0,0-6.149-.73" transform="translate(-29.596 -21.078)" fill="#ff9c6a"/>
        <path id="Trazado_158902" data-name="Trazado 158902" d="M188.868,134.825c-.055-.025-.187.1-.263.376a1.48,1.48,0,0,0,1,1.773c.275.075.451.027.458-.032.023-.125-.582-.3-.909-.883s-.171-1.188-.29-1.233" transform="translate(-28.858 -20.634)" fill="#ff9c6a"/>
        <path id="Trazado_158903" data-name="Trazado 158903" d="M191.321,142.792a16.862,16.862,0,0,0,5.58.157,16.861,16.861,0,0,0-5.58-.157" transform="translate(-29.281 -21.828)" fill="#ff9c6a"/>
        <path id="Trazado_158904" data-name="Trazado 158904" d="M187,139.458c-.058-.017-.169.125-.2.4a1.747,1.747,0,0,0,.234,1.025c.425.71.975,1.027,1.054.952.108-.1-.3-.584-.647-1.178s-.322-1.162-.437-1.2" transform="translate(-28.587 -21.343)" fill="#ff9c6a"/>
        <path id="Trazado_158905" data-name="Trazado 158905" d="M142.016,46.6a4.476,4.476,0,0,0-5.045-3.533,6.131,6.131,0,0,0-4.708,4.472A9.93,9.93,0,0,0,133,54.22c.738,1.643,1.96,3.268,3.725,3.63a4.839,4.839,0,0,0,4.395-1.754,14.285,14.285,0,0,0,2.342-4.338Z" transform="translate(-20.197 -6.584)" fill="#25414b"/>
        <path id="Trazado_158906" data-name="Trazado 158906" d="M146.691,46.526a1.8,1.8,0,0,0-2.269.5,3.88,3.88,0,0,0-.717,2.394,9.758,9.758,0,0,0,.793,4.121,1.5,1.5,0,0,0,.811.93,1.064,1.064,0,0,0,1.08-.4,2.683,2.683,0,0,0,.476-1.112,12.809,12.809,0,0,0-.351-7.162" transform="translate(-21.993 -7.01)" fill="#41d3a0"/>
        <path id="Trazado_158907" data-name="Trazado 158907" d="M186.851,31.755c3.992-1.955,6.278-3.975,5.946-5.627s-8.358-4.211-10.235-4.908c-4.431-1.645-8.625,2.272-15.626,3.677-13.6,2.731-24.066,7.709-23.381,11.12.33,1.644,3.191,2.623,7.59,2.891" transform="translate(-21.966 -3.187)" fill="#41d3a0"/>
        <g id="Grupo_71323" data-name="Grupo 71323" transform="translate(124.109 20.969)" opacity="0.4">
          <g id="Grupo_71322" data-name="Grupo 71322">
            <g id="Grupo_71321" data-name="Grupo 71321" clip-path="url(#clip-path-6)">
              <path id="Trazado_158908" data-name="Trazado 158908" d="M184.939,32.709c3.539-1.733,5.659-3.545,5.271-4.988-1.08-4.015-10.869-3.511-22.921-1.091s-21.331,6.833-20.723,9.856c.292,1.457,2.829,2.325,6.727,2.562" transform="translate(-146.536 -24.758)"/>
            </g>
          </g>
        </g>
        <path id="Trazado_158909" data-name="Trazado 158909" d="M154.486,36.536a16.989,16.989,0,0,1,14.23-19.814c9-1.346,17.395,4.958,19.231,13.868C189.556,38.4,191,46.3,191.12,49.184c.354,8.712-4.557,12.372-6.568,13.5a11.336,11.336,0,0,1-2.26.693.058.058,0,0,0-.045.07l2.468,9.89c1.226,6.5-2.117,12.536-8.6,13.838-6.508,1.307-11.9-3.448-13.256-9.947Z" transform="translate(-23.602 -2.532)" fill="#ffc19d"/>
        <path id="Trazado_158910" data-name="Trazado 158910" d="M190.409,39.356a1.386,1.386,0,0,1-1.035,1.634,1.325,1.325,0,0,1-1.646-.944,1.387,1.387,0,0,1,1.033-1.635,1.327,1.327,0,0,1,1.648.944" transform="translate(-28.725 -5.872)" fill="#25414b"/>
        <path id="Trazado_158911" data-name="Trazado 158911" d="M190.845,35.869c-.133.212-1.315-.343-2.777-.046-1.464.276-2.386,1.243-2.581,1.1-.093-.064.014-.418.412-.852a3.8,3.8,0,0,1,2.023-1.1,3.646,3.646,0,0,1,2.255.258c.518.254.735.545.668.639" transform="translate(-28.383 -5.341)" fill="#25414b"/>
        <path id="Trazado_158912" data-name="Trazado 158912" d="M173.439,42.764A1.386,1.386,0,0,1,172.4,44.4a1.325,1.325,0,0,1-1.646-.944,1.387,1.387,0,0,1,1.033-1.635,1.327,1.327,0,0,1,1.648.944" transform="translate(-26.128 -6.393)" fill="#25414b"/>
        <path id="Trazado_158913" data-name="Trazado 158913" d="M173.941,39.6c-.133.211-1.317-.344-2.777-.047-1.464.276-2.386,1.244-2.581,1.1-.093-.064.012-.418.413-.852a3.8,3.8,0,0,1,2.021-1.1,3.65,3.65,0,0,1,2.255.258c.518.255.736.545.669.64" transform="translate(-25.796 -5.912)" fill="#25414b"/>
        <path id="Trazado_158914" data-name="Trazado 158914" d="M183.186,49.142a9.907,9.907,0,0,1,2.289-.905c.365-.113.7-.258.716-.526a1.945,1.945,0,0,0-.472-1.057q-.8-1.249-1.675-2.621c-2.346-3.739-4.125-6.845-3.973-6.938s2.176,2.863,4.523,6.6c.569.924,1.113,1.8,1.632,2.648a2.206,2.206,0,0,1,.488,1.426.959.959,0,0,1-.5.669,2.548,2.548,0,0,1-.616.215,9.687,9.687,0,0,1-2.407.487" transform="translate(-27.558 -5.677)" fill="#25414b"/>
        <path id="Trazado_158915" data-name="Trazado 158915" d="M184.862,71.633S179.31,73.23,171.4,70.4c0,0,3.726,7.015,14.131,3.894Z" transform="translate(-26.231 -10.775)" fill="#ff9c6a"/>
        <path id="Trazado_158916" data-name="Trazado 158916" d="M183.1,55.512a2.688,2.688,0,0,0-2.559-.5,2.454,2.454,0,0,0-1.482,1.224A1.556,1.556,0,0,0,179.29,58a1.8,1.8,0,0,0,2.014.1,5.633,5.633,0,0,0,1.645-1.491,1.667,1.667,0,0,0,.331-.516.5.5,0,0,0-.112-.544" transform="translate(-27.378 -8.399)" fill="#ff9c6a"/>
        <path id="Trazado_158917" data-name="Trazado 158917" d="M178.887,53.534c.235-.062.556,1.525,2.142,2.379s3.239.34,3.3.559c.042.095-.315.384-1.025.546a4.032,4.032,0,0,1-2.734-.377,3.508,3.508,0,0,1-1.693-2.015c-.194-.651-.1-1.08.014-1.093" transform="translate(-27.359 -8.193)" fill="#25414b"/>
        <path id="Trazado_158918" data-name="Trazado 158918" d="M173.284,34.089c-.064.427-1.562.531-3.236,1.082-1.685.517-2.967,1.3-3.266.988-.136-.15.03-.573.512-1.07a5.925,5.925,0,0,1,4.955-1.577c.68.128,1.06.376,1.036.577" transform="translate(-25.518 -5.118)" fill="#25414b"/>
        <path id="Trazado_158919" data-name="Trazado 158919" d="M189.38,31.53c-.191.384-1.267.241-2.482.468-1.222.185-2.192.672-2.5.373-.137-.148-.043-.513.342-.917a3.655,3.655,0,0,1,4.012-.678c.5.255.706.569.625.754" transform="translate(-28.213 -4.661)" fill="#25414b"/>
        <path id="Trazado_158920" data-name="Trazado 158920" d="M174.573,23.475a9.506,9.506,0,0,1-6.072,5.37c-1.766.5-3.867.595-4.984,2.05-.816,1.062-.815,2.51-1.005,3.837-.29,2.016.226,4.342-1.316,5.672-1.208,1.042-2.338,1.013-3.079,2.426-.779,1.487-.593,3.407-.289,5.059s.686,4.29-.65,5.306c-1.258-5.99-4.5-12.393-5.753-18.382A7.285,7.285,0,0,1,151.2,32.1c.35-2.029,2.293-3.35,4.135-4.271,5.215-2.608,10.954-3.949,16.632-5.27" transform="translate(-23.132 -3.453)" fill="#25414b"/>
        <path id="Trazado_158921" data-name="Trazado 158921" d="M189.36,22.309S182.932,8.542,182.488,7.9s-5.841-6.154-16.063-5.985l-8.149,1.636S147.454,9.6,145.906,12.838s.3,17.105.3,17.105l21.855-9.557,16.3.669Z" transform="translate(-22.236 -0.292)" fill="#41d3a0"/>
        <path id="Trazado_158922" data-name="Trazado 158922" d="M165.379.5l2.25-.452a2.337,2.337,0,0,1,2.4.959,7.192,7.192,0,0,1,.979,2.189c.672,2.5,4.734,19.765,4.734,19.765l-10.308,1.586L161.447,3.014l-3.314,1.467-.07-.644a1.887,1.887,0,0,1,1.469-2.048Z" transform="translate(-24.189 0)" fill="#41d3a0"/>
        <path id="Trazado_158923" data-name="Trazado 158923" d="M187.571,27.195l-2.086-4.817-16.972-1.76L150.45,30.131l1.136,5.657a64.859,64.859,0,0,1,35.985-8.593" transform="translate(-23.026 -3.155)" fill="#436e7a"/>
        <path id="Trazado_158924" data-name="Trazado 158924" d="M182.753,20.923l.807.52,6.2,2.943a75.425,75.425,0,0,0-22.174.893c-10.978,2.327-22.816,8.567-22.816,8.567L151.176,28a12.8,12.8,0,0,1,8.125-5.769l13.755-3.043a12.8,12.8,0,0,1,9.7,1.736" transform="translate(-22.156 -2.89)" fill="#41d3a0"/>
        <path id="Trazado_158925" data-name="Trazado 158925" d="M188.506,25.737c.009-.019-.129-.1-.4-.232a6.507,6.507,0,0,0-1.248-.474A20,20,0,0,0,182,24.365a52.4,52.4,0,0,0-15.926,2.225c-3.017.833-5.924,1.575-8.505,2.488a67.329,67.329,0,0,0-6.66,2.864c-.922.466-1.737.93-2.432,1.37a4.614,4.614,0,0,0-1.6,1.42,1.907,1.907,0,0,0-.27,1.334c.069.312.188.438.2.429a1.88,1.88,0,0,1,.273-1.633,4.568,4.568,0,0,1,1.576-1.253c.7-.407,1.519-.838,2.444-1.274,1.849-.853,4.119-1.822,6.655-2.718,2.559-.872,5.454-1.593,8.485-2.43A56.563,56.563,0,0,1,181.995,24.8a22.933,22.933,0,0,1,4.8.461c1.118.235,1.682.543,1.713.473" transform="translate(-22.434 -3.726)" fill="#25414b"/>
        <path id="Trazado_158926" data-name="Trazado 158926" d="M193.6,28.2c1.967,4.391,8.815,10.639,2.251,16.7,0,0-2.074-9.947-3.661-13.637a8.026,8.026,0,0,0-1.9-2.99" transform="translate(-29.123 -4.316)" fill="#25414b"/>
        <path id="Trazado_158927" data-name="Trazado 158927" d="M152.963,37.9a8.869,8.869,0,0,0-7.109,9.98,12.776,12.776,0,0,1,.562,3.508,22.9,22.9,0,0,1-1.059,3.307,16.58,16.58,0,0,0,.076,8.075c1.8,5.176,8.37,11.564,14.32,10.369" transform="translate(-22.176 -5.8)" fill="#25414b"/>
        <path id="Trazado_158928" data-name="Trazado 158928" d="M158.7,68.476a3.87,3.87,0,0,0,3.462-1.043A7.119,7.119,0,0,0,164,64.194a12.649,12.649,0,0,0-2.307-11.411,18.561,18.561,0,0,0,.227-17.525l-8.348,2.469Z" transform="translate(-23.503 -5.396)" fill="#25414b"/>
        <path id="Trazado_158929" data-name="Trazado 158929" d="M142.1,53.014a3.79,3.79,0,0,1-1.325,1.19,6.458,6.458,0,0,1-4.184.916,6.323,6.323,0,0,1-3.84-1.9,2.577,2.577,0,0,1-.81-1.585,6.081,6.081,0,0,0,1,1.4,6.556,6.556,0,0,0,3.7,1.716,6.706,6.706,0,0,0,4.008-.776c.939-.515,1.411-1.01,1.456-.964" transform="translate(-20.192 -7.902)" fill="#436e7a"/>
        <path id="Trazado_158930" data-name="Trazado 158930" d="M141.505,51.4a3.607,3.607,0,0,1-1.471.528,7.517,7.517,0,0,1-6.955-2.245,3.6,3.6,0,0,1-.884-1.288c.05-.035.384.458,1.07,1.1a8.108,8.108,0,0,0,6.727,2.172c.934-.123,1.493-.328,1.514-.27" transform="translate(-20.231 -7.406)" fill="#436e7a"/>
        <path id="Trazado_158931" data-name="Trazado 158931" d="M161.82,37.975a3.148,3.148,0,0,1-.045.838,11.237,11.237,0,0,1-.534,2.23,12.547,12.547,0,0,1-11.517,8.5,11.288,11.288,0,0,1-2.288-.147,3.109,3.109,0,0,1-.815-.2,25.033,25.033,0,0,0,3.09.091A12.812,12.812,0,0,0,161,40.955a24.893,24.893,0,0,0,.824-2.98" transform="translate(-22.44 -5.812)" fill="#436e7a"/>
        <path id="Trazado_158932" data-name="Trazado 158932" d="M162.082,52.736a1.83,1.83,0,0,1-.413.494,7.158,7.158,0,0,1-1.4,1.064,11.057,11.057,0,0,1-5.579,1.41,21.939,21.939,0,0,1-5.7-.883c-.71-.194-1.278-.369-1.669-.5a2.274,2.274,0,0,1-.6-.237,17.3,17.3,0,0,1,2.328.483,25.908,25.908,0,0,0,5.631.764,11.663,11.663,0,0,0,5.452-1.267,17.29,17.29,0,0,0,1.941-1.33" transform="translate(-22.456 -8.071)" fill="#436e7a"/>
        <path id="Trazado_158933" data-name="Trazado 158933" d="M189.876,23.28a2.658,2.658,0,0,1-.49-.142L188,22.662l-5.058-1.815-.023-.008-.019-.018L181.6,19.652a7.869,7.869,0,0,0-1.46-1.15,4.678,4.678,0,0,0-1.866-.57,8.2,8.2,0,0,0-2.1.193c-2.9.486-6.062,1.162-9.369,1.927-3.077.714-6.009,1.442-8.692,2.131a5.981,5.981,0,0,0-1.849.681,4.707,4.707,0,0,0-1.36,1.252c-.656,1.024-1.237,2.064-1.793,2.98l-.015.025-.021.015-4.913,3.634-1.351.975a3.176,3.176,0,0,1-.488.318,3.215,3.215,0,0,1,.44-.382l1.307-1.033,4.84-3.733-.036.04c.551-.934,1.1-1.945,1.776-3.024a4.973,4.973,0,0,1,1.442-1.35,6.292,6.292,0,0,1,1.935-.733c2.681-.706,5.614-1.442,8.695-2.157,3.312-.766,6.483-1.433,9.4-1.9a8.434,8.434,0,0,1,2.179-.18,4.954,4.954,0,0,1,1.986.626,8.067,8.067,0,0,1,1.5,1.206l1.289,1.186-.042-.025,5.017,1.925,1.358.541a2.692,2.692,0,0,1,.464.213" transform="translate(-22.394 -2.691)" fill="#25414b"/>
        <path id="Trazado_158934" data-name="Trazado 158934" d="M164.262,18.78a2.7,2.7,0,0,1-.2-.7c-.107-.457-.249-1.118-.417-1.939-.336-1.639-.776-3.908-1.238-6.418l-.639-3.541q-.14-.811-.267-1.547a.657.657,0,0,0-.833-.539l-1.824.739a2.854,2.854,0,0,1-.693.229,2.7,2.7,0,0,1,.635-.36c.425-.211,1.015-.5,1.8-.857a.939.939,0,0,1,1.214.733c.095.489.2,1,.3,1.541.207,1.1.431,2.288.667,3.537.462,2.509.861,4.786,1.132,6.437.136.827.238,1.5.3,1.96a2.867,2.867,0,0,1,.062.727" transform="translate(-24.204 -0.581)" fill="#25414b"/>
        <path id="Trazado_158935" data-name="Trazado 158935" d="M176.343,16.306a10.266,10.266,0,0,1-.739-2.052c-.39-1.288-.843-3.093-1.312-5.087s-.88-3.806-1.158-5.122a12.642,12.642,0,0,1-.374-2.145,12.656,12.656,0,0,1,.628,2.085c.341,1.3.789,3.1,1.262,5.1l1.205,5.1a16.786,16.786,0,0,1,.486,2.121" transform="translate(-26.439 -0.291)" fill="#25414b"/>
        <path id="Trazado_158936" data-name="Trazado 158936" d="M197.183,49.2a11.688,11.688,0,0,0,4.211-1.01,9.009,9.009,0,0,0,3.639-2.859,6.832,6.832,0,0,0,.888-5.447,7.126,7.126,0,0,0-3.2-4.523,45.583,45.583,0,0,0-4.343-1.9,7.422,7.422,0,0,1-2.631-1.876,4.27,4.27,0,0,1-.491-.734.964.964,0,0,1-.112-.287,11.318,11.318,0,0,0,.711.927,7.77,7.77,0,0,0,2.629,1.733,40.039,40.039,0,0,1,4.412,1.845,7.4,7.4,0,0,1,3.386,4.731,7.1,7.1,0,0,1-.971,5.727,9.07,9.07,0,0,1-3.812,2.9,9.965,9.965,0,0,1-3.132.8,6.029,6.029,0,0,1-.879.011.974.974,0,0,1-.3-.036" transform="translate(-29.865 -4.677)" fill="#25414b"/>
        <path id="Trazado_158937" data-name="Trazado 158937" d="M134.6,47.837c-.009.009-.064-.032-.161-.12a2.869,2.869,0,0,1-.387-.425,4.421,4.421,0,0,1-.808-1.952,4.7,4.7,0,0,1,.565-3.081,4.635,4.635,0,0,1,6.876-1.04,4.688,4.688,0,0,1,1.45,2.776,4.417,4.417,0,0,1-.193,2.1,2.9,2.9,0,0,1-.245.521c-.067.113-.107.169-.118.163-.034-.017.1-.258.225-.726a4.691,4.691,0,0,0,.073-2.019,4.54,4.54,0,0,0-1.419-2.565,4.353,4.353,0,0,0-6.358.962,4.533,4.533,0,0,0-.6,2.869,4.691,4.691,0,0,0,.667,1.906c.259.41.457.6.43.627" transform="translate(-20.383 -6.142)" fill="#25414b"/>
        <path id="Trazado_158938" data-name="Trazado 158938" d="M158.171,74.727a.99.99,0,0,1-.3.107c-.2.06-.493.135-.873.226a19.612,19.612,0,0,1-3.288.49,10.74,10.74,0,0,1-4.877-.755,9.316,9.316,0,0,1-4.381-4.126,12.212,12.212,0,0,1-1.482-5.854,17.143,17.143,0,0,1,.729-4.882,22.774,22.774,0,0,1,1.165-3.111c.164-.356.3-.629.4-.811a1.023,1.023,0,0,1,.164-.269A9.433,9.433,0,0,1,145,56.879,28.579,28.579,0,0,0,143.953,60a17.665,17.665,0,0,0-.64,4.808,12.074,12.074,0,0,0,1.465,5.678,9.092,9.092,0,0,0,4.194,3.993,10.75,10.75,0,0,0,4.729.805,23.625,23.625,0,0,0,3.271-.369,9.082,9.082,0,0,1,1.2-.192" transform="translate(-21.881 -8.531)" fill="#25414b"/>
        <path id="Trazado_158939" data-name="Trazado 158939" d="M140.968,55.239a1.222,1.222,0,0,1-.088.338,4.3,4.3,0,0,1-.452.9,5.5,5.5,0,0,1-5.53,2.23,6.356,6.356,0,0,1-2.664-1.247,7.259,7.259,0,0,1-2.03-2.536,8.035,8.035,0,0,1-.754-3.4,9.8,9.8,0,0,1,2.213-6.24,6.2,6.2,0,0,1,4.783-2.425,4.941,4.941,0,0,1,3.386,1.334,2.8,2.8,0,0,1,.757,1.112,6.509,6.509,0,0,0-.855-1.007,4.912,4.912,0,0,0-3.289-1.177,5.972,5.972,0,0,0-4.519,2.381,9.57,9.57,0,0,0-2.106,6.02,7.741,7.741,0,0,0,.711,3.248,6.987,6.987,0,0,0,1.914,2.425,6.1,6.1,0,0,0,2.514,1.213,5.107,5.107,0,0,0,2.427-.067,5.362,5.362,0,0,0,2.924-1.945,9.515,9.515,0,0,0,.658-1.15" transform="translate(-19.812 -6.558)" fill="#25414b"/>
        <path id="Trazado_158940" data-name="Trazado 158940" d="M336.839,314.324H110a12.338,12.338,0,0,1-12.338-12.338V160.337A12.338,12.338,0,0,1,110,148H336.839a12.338,12.338,0,0,1,12.338,12.338v141.65a12.338,12.338,0,0,1-12.338,12.338" transform="translate(-14.947 -22.651)" fill="#436e7a"/>
        <path id="Trazado_158941" data-name="Trazado 158941" d="M344,346.249H100.609A14.553,14.553,0,0,1,86.056,331.7h272.5A14.553,14.553,0,0,1,344,346.249" transform="translate(-13.17 -50.764)" fill="#436e7a"/>
        <rect id="Rectángulo_8638" data-name="Rectángulo 8638" width="237.31" height="140.459" transform="translate(89.466 131.956)" fill="#25414b"/>
        <path id="Trazado_158942" data-name="Trazado 158942" d="M216.869,329.854l3.381,5.379h47.582l3.14-5.379Z" transform="translate(-33.191 -50.483)" fill="#25414b"/>
        <path id="Trazado_158943" data-name="Trazado 158943" d="M336.655,296.669H114.176A2.773,2.773,0,0,1,111.4,293.9V164.187a2.772,2.772,0,0,1,2.772-2.772H336.655a2.771,2.771,0,0,1,2.771,2.771V293.9a2.771,2.771,0,0,1-2.771,2.771" transform="translate(-17.05 -24.704)" fill="#fff"/>
        <path id="Trazado_158944" data-name="Trazado 158944" d="M339.138,298.694H111.116l.244-125.344H339.138Z" transform="translate(-17.006 -26.53)" fill="#fff"/>
        <path id="Trazado_158945" data-name="Trazado 158945" d="M132.826,167.253A1.821,1.821,0,1,1,131,165.432a1.821,1.821,0,0,1,1.821,1.821" transform="translate(-19.771 -25.319)" fill="#25414b"/>
        <path id="Trazado_158946" data-name="Trazado 158946" d="M119.795,167.253a1.821,1.821,0,1,1-1.821-1.821,1.82,1.82,0,0,1,1.821,1.821" transform="translate(-17.777 -25.319)" fill="#25414b"/>
        <path id="Trazado_158947" data-name="Trazado 158947" d="M126.05,167.253a1.821,1.821,0,1,1-1.821-1.821,1.82,1.82,0,0,1,1.821,1.821" transform="translate(-18.734 -25.319)" fill="#25414b"/>
        <path id="Trazado_158948" data-name="Trazado 158948" d="M347.016,329.825c0,.09-55.825.163-124.672.163-68.871,0-124.684-.073-124.684-.163s55.813-.163,124.684-.163c68.847,0,124.672.073,124.672.163" transform="translate(-14.947 -50.453)" fill="#25414b"/>
        <path id="Trazado_158949" data-name="Trazado 158949" d="M269.346,292.427c0,.1-13.676.185-30.542.185s-30.545-.083-30.545-.185,13.673-.185,30.545-.185,30.542.083,30.542.185" transform="translate(-31.873 -44.726)" fill="#f7f7f7"/>
        <rect id="Rectángulo_8639" data-name="Rectángulo 8639" width="68.045" height="51.143" transform="translate(99.627 215.579)" fill="#fff"/>
        <path id="Trazado_158950" data-name="Trazado 158950" d="M117.657,309.207,141.394,277.4l14.74,19.876,9.976-10.642L185.7,309.146Z" transform="translate(-18.007 -42.454)" fill="#f7f7f7"/>
        <path id="Trazado_158951" data-name="Trazado 158951" d="M168.5,271.808a5.358,5.358,0,1,1-5.362-5.353,5.359,5.359,0,0,1,5.362,5.353" transform="translate(-24.149 -40.78)" fill="#f7f7f7"/>
        <rect id="Rectángulo_8640" data-name="Rectángulo 8640" width="68.045" height="51.143" transform="translate(246.445 215.655)" fill="#fff"/>
        <path id="Trazado_158952" data-name="Trazado 158952" d="M291.005,309.3l23.738-31.812,14.74,19.876,9.976-10.642,19.591,22.516Z" transform="translate(-44.537 -42.468)" fill="#f7f7f7"/>
        <path id="Trazado_158953" data-name="Trazado 158953" d="M341.853,271.9a5.358,5.358,0,1,1-5.362-5.353,5.359,5.359,0,0,1,5.362,5.353" transform="translate(-50.679 -40.793)" fill="#f7f7f7"/>
        <path id="Trazado_158954" data-name="Trazado 158954" d="M358.607,241.808a9.81,9.81,0,0,1,1.907-.13c1.178-.034,2.806-.054,4.6-.054l2,.009-.176.175c.013-1.312.036-2.439.066-3.24a5.379,5.379,0,0,1,.11-1.271,5.422,5.422,0,0,1,.109,1.271c.03.8.054,1.928.066,3.24l0,.174h-.177l-2,.009c-1.8,0-3.425-.02-4.6-.054a9.812,9.812,0,0,1-1.907-.13" transform="translate(-54.883 -36.317)" fill="#f7f7f7"/>
        <path id="Trazado_158955" data-name="Trazado 158955" d="M338.507,242.59a49.145,49.145,0,0,1,8.512,0,49.145,49.145,0,0,1-8.512,0" transform="translate(-51.807 -37.099)" fill="#f7f7f7"/>
        <path id="Trazado_158956" data-name="Trazado 158956" d="M318.407,242.59a49.144,49.144,0,0,1,8.512,0,49.144,49.144,0,0,1-8.512,0" transform="translate(-48.731 -37.099)" fill="#f7f7f7"/>
        <path id="Trazado_158957" data-name="Trazado 158957" d="M298.308,242.59a49.144,49.144,0,0,1,8.512,0,49.144,49.144,0,0,1-8.512,0" transform="translate(-45.655 -37.099)" fill="#f7f7f7"/>
        <path id="Trazado_158958" data-name="Trazado 158958" d="M278.208,242.59a49.144,49.144,0,0,1,8.512,0,49.144,49.144,0,0,1-8.512,0" transform="translate(-42.578 -37.099)" fill="#f7f7f7"/>
        <path id="Trazado_158959" data-name="Trazado 158959" d="M258.108,242.59a49.144,49.144,0,0,1,8.512,0,49.144,49.144,0,0,1-8.512,0" transform="translate(-39.502 -37.099)" fill="#f7f7f7"/>
        <path id="Trazado_158960" data-name="Trazado 158960" d="M238.009,242.59a49.144,49.144,0,0,1,8.512,0,49.144,49.144,0,0,1-8.512,0" transform="translate(-36.426 -37.099)" fill="#f7f7f7"/>
        <path id="Trazado_158961" data-name="Trazado 158961" d="M217.909,242.59a49.144,49.144,0,0,1,8.512,0,49.144,49.144,0,0,1-8.512,0" transform="translate(-33.35 -37.099)" fill="#f7f7f7"/>
        <path id="Trazado_158962" data-name="Trazado 158962" d="M197.809,242.59a24.628,24.628,0,0,1,4.256-.185,24.628,24.628,0,0,1,4.256.185,24.731,24.731,0,0,1-4.256.185,24.731,24.731,0,0,1-4.256-.185" transform="translate(-30.274 -37.099)" fill="#f7f7f7"/>
        <path id="Trazado_158963" data-name="Trazado 158963" d="M177.71,242.59a24.628,24.628,0,0,1,4.256-.185,24.628,24.628,0,0,1,4.256.185,24.731,24.731,0,0,1-4.256.185,24.731,24.731,0,0,1-4.256-.185" transform="translate(-27.198 -37.099)" fill="#f7f7f7"/>
        <path id="Trazado_158964" data-name="Trazado 158964" d="M157.61,242.59a24.628,24.628,0,0,1,4.256-.185,24.628,24.628,0,0,1,4.256.185,24.731,24.731,0,0,1-4.256.185,24.731,24.731,0,0,1-4.256-.185" transform="translate(-24.121 -37.099)" fill="#f7f7f7"/>
        <path id="Trazado_158965" data-name="Trazado 158965" d="M137.51,242.59a24.628,24.628,0,0,1,4.256-.185,24.628,24.628,0,0,1,4.256.185,24.731,24.731,0,0,1-4.256.185,24.731,24.731,0,0,1-4.256-.185" transform="translate(-21.045 -37.099)" fill="#f7f7f7"/>
        <path id="Trazado_158966" data-name="Trazado 158966" d="M117.422,242.578s0,0,0,.01l0,0a25.841,25.841,0,0,1,4.246-.18,24.731,24.731,0,0,1,4.256.185,24.628,24.628,0,0,1-4.256.185,26.016,26.016,0,0,1-4.246-.18l0-.005c0-.009,0-.01,0-.01" transform="translate(-17.97 -37.099)" fill="#f7f7f7"/>
        <path id="Trazado_158967" data-name="Trazado 158967" d="M117.39,222.511a49.142,49.142,0,0,1,0,8.512,49.144,49.144,0,0,1,0-8.512" transform="translate(-17.938 -34.054)" fill="#f7f7f7"/>
        <path id="Trazado_158968" data-name="Trazado 158968" d="M117.39,202.411a24.627,24.627,0,0,1,.185,4.256,24.627,24.627,0,0,1-.185,4.256,24.73,24.73,0,0,1-.185-4.256,24.73,24.73,0,0,1,.185-4.256" transform="translate(-17.938 -30.978)" fill="#f7f7f7"/>
        <path id="Trazado_158969" data-name="Trazado 158969" d="M117.39,182.311a24.627,24.627,0,0,1,.185,4.256,24.627,24.627,0,0,1-.185,4.256,24.73,24.73,0,0,1-.185-4.256,24.73,24.73,0,0,1,.185-4.256" transform="translate(-17.938 -27.902)" fill="#f7f7f7"/>
        <path id="Trazado_158970" data-name="Trazado 158970" d="M133.322,179.616a24.731,24.731,0,0,1-4.256.185,24.731,24.731,0,0,1-4.256-.185,24.728,24.728,0,0,1,4.256-.185,24.728,24.728,0,0,1,4.256.185" transform="translate(-19.102 -27.461)" fill="#f7f7f7"/>
        <path id="Trazado_158971" data-name="Trazado 158971" d="M153.422,179.616a24.737,24.737,0,0,1-4.257.185,24.725,24.725,0,0,1-4.255-.185,24.722,24.722,0,0,1,4.255-.185,24.734,24.734,0,0,1,4.257.185" transform="translate(-22.178 -27.461)" fill="#f7f7f7"/>
        <path id="Trazado_158972" data-name="Trazado 158972" d="M173.521,179.616a24.731,24.731,0,0,1-4.256.185,24.731,24.731,0,0,1-4.256-.185,24.728,24.728,0,0,1,4.256-.185,24.728,24.728,0,0,1,4.256.185" transform="translate(-25.254 -27.461)" fill="#f7f7f7"/>
        <path id="Trazado_158973" data-name="Trazado 158973" d="M193.621,179.616a24.731,24.731,0,0,1-4.256.185,24.731,24.731,0,0,1-4.256-.185,24.728,24.728,0,0,1,4.256-.185,24.728,24.728,0,0,1,4.256.185" transform="translate(-28.33 -27.461)" fill="#f7f7f7"/>
        <path id="Trazado_158974" data-name="Trazado 158974" d="M213.72,179.616a24.731,24.731,0,0,1-4.256.185,24.731,24.731,0,0,1-4.256-.185,24.728,24.728,0,0,1,4.256-.185,24.728,24.728,0,0,1,4.256.185" transform="translate(-31.406 -27.461)" fill="#f7f7f7"/>
        <path id="Trazado_158975" data-name="Trazado 158975" d="M233.82,179.616a49.144,49.144,0,0,1-8.512,0,49.14,49.14,0,0,1,8.512,0" transform="translate(-34.482 -27.461)" fill="#f7f7f7"/>
        <path id="Trazado_158976" data-name="Trazado 158976" d="M253.92,179.616a49.144,49.144,0,0,1-8.512,0,49.14,49.14,0,0,1,8.512,0" transform="translate(-37.558 -27.461)" fill="#f7f7f7"/>
        <path id="Trazado_158977" data-name="Trazado 158977" d="M274.019,179.616a49.144,49.144,0,0,1-8.512,0,49.14,49.14,0,0,1,8.512,0" transform="translate(-40.635 -27.461)" fill="#f7f7f7"/>
        <path id="Trazado_158978" data-name="Trazado 158978" d="M294.119,179.616a49.144,49.144,0,0,1-8.512,0,49.14,49.14,0,0,1,8.512,0" transform="translate(-43.711 -27.461)" fill="#f7f7f7"/>
        <path id="Trazado_158979" data-name="Trazado 158979" d="M314.219,179.616a49.144,49.144,0,0,1-8.512,0,49.14,49.14,0,0,1,8.512,0" transform="translate(-46.787 -27.461)" fill="#f7f7f7"/>
        <path id="Trazado_158980" data-name="Trazado 158980" d="M334.318,179.616a49.144,49.144,0,0,1-8.512,0,49.14,49.14,0,0,1,8.512,0" transform="translate(-49.863 -27.461)" fill="#f7f7f7"/>
        <path id="Trazado_158981" data-name="Trazado 158981" d="M354.418,179.616a49.144,49.144,0,0,1-8.512,0,49.14,49.14,0,0,1,8.512,0" transform="translate(-52.939 -27.461)" fill="#f7f7f7"/>
        <path id="Trazado_158982" data-name="Trazado 158982" d="M368.251,185.886a24.622,24.622,0,0,1-.185-4.256c.008-.709.015-1.376.022-2.011l.163.163a10.019,10.019,0,0,1-2.245-.163,10.016,10.016,0,0,1,2.245-.163l.161,0,0,.166c.007.634.014,1.3.022,2.011a24.733,24.733,0,0,1-.185,4.256" transform="translate(-56.015 -27.464)" fill="#f7f7f7"/>
        <path id="Trazado_158983" data-name="Trazado 158983" d="M368.624,205.609a24.623,24.623,0,0,1-.185-4.256,24.623,24.623,0,0,1,.185-4.256,24.733,24.733,0,0,1,.185,4.256,24.733,24.733,0,0,1-.185,4.256" transform="translate(-56.388 -30.165)" fill="#f7f7f7"/>
        <path id="Trazado_158984" data-name="Trazado 158984" d="M368.624,225.709a49.136,49.136,0,0,1,0-8.512,49.152,49.152,0,0,1,0,8.512" transform="translate(-56.388 -33.241)" fill="#f7f7f7"/>
        <path id="Trazado_158985" data-name="Trazado 158985" d="M269.346,312.79c0,.1-13.676.185-30.542.185s-30.545-.082-30.545-.185,13.673-.185,30.545-.185,30.542.083,30.542.185" transform="translate(-31.873 -47.843)" fill="#f7f7f7"/>
        <path id="Trazado_158986" data-name="Trazado 158986" d="M269.346,303.474c0,.1-13.676.185-30.542.185s-30.545-.082-30.545-.185,13.673-.185,30.545-.185,30.542.083,30.542.185" transform="translate(-31.873 -46.417)" fill="#f7f7f7"/>
        <rect id="Rectángulo_8641" data-name="Rectángulo 8641" width="3.675" height="99.112" transform="translate(46.712 196.231)" fill="#25414b"/>
        <path id="Trazado_158987" data-name="Trazado 158987" d="M74.829,206.78a21.367,21.367,0,1,1-21.368-21.368A21.368,21.368,0,0,1,74.829,206.78" transform="translate(-4.912 -28.376)" fill="#41d3a0"/>
        <path id="Trazado_158988" data-name="Trazado 158988" d="M73.047,206.831a1.96,1.96,0,0,1-.035-.311c-.015-.223-.037-.525-.064-.913q-.019-.3-.042-.671c-.027-.246-.08-.512-.125-.8a13.924,13.924,0,0,0-.4-1.981,18.35,18.35,0,0,0-2.136-5.09,19.078,19.078,0,0,0-22.918-8.135,19.853,19.853,0,0,0-2.486,1.094c-.4.218-.788.473-1.187.709a9.731,9.731,0,0,0-1.149.793,17.41,17.41,0,0,0-4.027,4.047,18.436,18.436,0,0,0-2.723,5.249,18.879,18.879,0,0,0,0,12.022,18.445,18.445,0,0,0,2.723,5.25,17.418,17.418,0,0,0,4.028,4.048,9.671,9.671,0,0,0,1.15.793c.4.237.784.491,1.187.71a19.79,19.79,0,0,0,2.486,1.093A19.125,19.125,0,0,0,70.24,216.6a18.361,18.361,0,0,0,2.136-5.089,14.164,14.164,0,0,0,.4-1.981c.044-.29.1-.556.124-.8s.03-.469.042-.672c.027-.387.049-.689.064-.912a1.959,1.959,0,0,1,.035-.311,1.85,1.85,0,0,1,0,.312l-.028.916-.025.676c-.021.247-.069.516-.108.808a13.563,13.563,0,0,1-.374,2,18.219,18.219,0,0,1-2.1,5.16,19.356,19.356,0,0,1-13.025,9.169,19.422,19.422,0,0,1-10.188-.819,20.116,20.116,0,0,1-2.533-1.108c-.41-.221-.8-.479-1.209-.719a10.031,10.031,0,0,1-1.173-.805A17.755,17.755,0,0,1,38.18,218.3a18.755,18.755,0,0,1-2.78-5.349,19.211,19.211,0,0,1,0-12.254,18.767,18.767,0,0,1,2.78-5.347,22.042,22.042,0,0,1,1.906-2.248,21.78,21.78,0,0,1,2.2-1.868,9.981,9.981,0,0,1,1.172-.8c.407-.241.8-.5,1.21-.72a20.168,20.168,0,0,1,2.532-1.107,19.418,19.418,0,0,1,10.187-.819,19.344,19.344,0,0,1,13.025,9.168,18.214,18.214,0,0,1,2.1,5.16,13.675,13.675,0,0,1,.374,2c.038.292.086.562.108.809l.025.676c.012.39.021.693.028.916a1.85,1.85,0,0,1,0,.312" transform="translate(-5.264 -28.69)" fill="#fff"/>
        <rect id="Rectángulo_8642" data-name="Rectángulo 8642" width="22.25" height="4.642" transform="translate(37.424 175.731)" fill="#fff"/>
        <rect id="Rectángulo_8643" data-name="Rectángulo 8643" width="208.778" height="60.61" transform="translate(126.894 167.704) rotate(-4.594)" fill="#fff"/>
        <path id="Trazado_158989" data-name="Trazado 158989" d="M362.75,238.657c-.072-.874-1.838-22.333-4.97-60.407l.125.107L149.816,195.147H149.8l.169-.2c1.674,20.855,3.3,41.154,4.85,60.416l-.193-.165L303.376,243.33l59.374-4.673s-.339.035-1.014.093l-3.009.253-11.668.961-43.543,3.55L154.657,255.558l-.18.014-.014-.18c-1.549-19.261-3.182-39.56-4.859-60.415l-.015-.184.185-.015h.013l208.1-16.652.116-.009.009.116c2.986,38.085,4.67,59.55,4.739,60.424" transform="translate(-22.894 -27.26)" fill="#25414b"/>
        <rect id="Rectángulo_8644" data-name="Rectángulo 8644" width="65.717" height="49.394" transform="translate(132.367 173.194) rotate(-4.07)" fill="#41d3a0"/>
        <path id="Trazado_158990" data-name="Trazado 158990" d="M329.711,248.871a24.647,24.647,0,0,1-4.225.542c-.4-.337-.111-.094-.2-.17v-.025l0-.027,0-.055-.009-.108-.018-.216c-.011-.141-.021-.282-.032-.421-.02-.271-.038-.536-.057-.8-.025-.465-.05-.914-.075-1.352a4.267,4.267,0,0,1,.025-1.253,4.263,4.263,0,0,1,.235,1.231c.049.435.1.882.153,1.345.025.261.051.525.078.8.013.139.025.279.038.421l.019.215.009.109.005.054,0,.027,0,.014v.012c-.089-.075.2.169-.2-.167a24.651,24.651,0,0,1,4.256-.174" transform="translate(-49.75 -37.494)" fill="#f7f7f7"/>
        <path id="Trazado_158991" data-name="Trazado 158991" d="M351.54,247.647a63.331,63.331,0,0,1-9.625.813,63.041,63.041,0,0,1,9.625-.813" transform="translate(-52.328 -37.895)" fill="#f7f7f7"/>
        <path id="Trazado_158992" data-name="Trazado 158992" d="M374.269,245.727a63.329,63.329,0,0,1-9.625.813,63.043,63.043,0,0,1,9.625-.813" transform="translate(-55.807 -37.601)" fill="#f7f7f7"/>
        <path id="Trazado_158993" data-name="Trazado 158993" d="M391.255,239.345a24.643,24.643,0,0,1,.542,4.225c-.337.4-.094.111-.17.2H391.6l-.027,0-.055,0-.108.009-.216.018-.421.032-.8.057-1.352.075a4.264,4.264,0,0,1-1.253-.025,4.255,4.255,0,0,1,1.231-.235l1.345-.153.8-.078.421-.038.215-.019.108-.009.055-.005.027,0,.014,0h.012c-.075.089.169-.2-.167.2a24.652,24.652,0,0,1-.174-4.256" transform="translate(-59.286 -36.631)" fill="#f7f7f7"/>
        <path id="Trazado_158994" data-name="Trazado 158994" d="M390.365,220.6a43.1,43.1,0,0,1,.671,7.938,42.916,42.916,0,0,1-.671-7.938" transform="translate(-59.736 -33.761)" fill="#f7f7f7"/>
        <path id="Trazado_158995" data-name="Trazado 158995" d="M388.782,201.851a43.1,43.1,0,0,1,.671,7.939,42.923,42.923,0,0,1-.671-7.939" transform="translate(-59.494 -30.892)" fill="#f7f7f7"/>
        <path id="Trazado_158996" data-name="Trazado 158996" d="M382.569,187.8a24.64,24.64,0,0,1,4.225-.542c.4.337.111.094.2.17v.025l0,.027,0,.055.009.108.017.216c.012.141.022.282.033.421.019.271.038.536.057.8.025.465.05.915.074,1.352a4.265,4.265,0,0,1-.025,1.253,4.253,4.253,0,0,1-.235-1.231c-.049-.435-.1-.882-.153-1.345-.025-.261-.051-.525-.078-.8-.013-.139-.025-.279-.038-.421l-.019-.215-.009-.109-.005-.054,0-.027,0-.014v-.012c.089.075-.2-.169.2.167a24.653,24.653,0,0,1-4.256.174" transform="translate(-58.55 -28.658)" fill="#f7f7f7"/>
        <path id="Trazado_158997" data-name="Trazado 158997" d="M359.841,189.658a63.308,63.308,0,0,1,9.624-.813,63.332,63.332,0,0,1-9.624.813" transform="translate(-55.072 -28.896)" fill="#f7f7f7"/>
        <path id="Trazado_158998" data-name="Trazado 158998" d="M337.112,191.578a63.31,63.31,0,0,1,9.624-.813,63.335,63.335,0,0,1-9.624.813" transform="translate(-51.593 -29.19)" fill="#f7f7f7"/>
        <path id="Trazado_158999" data-name="Trazado 158999" d="M321.065,197.282a24.645,24.645,0,0,1-.542-4.225c.337-.4.094-.111.17-.2h.025l.027,0,.055,0,.108-.009.216-.018.421-.032.8-.057,1.352-.075a4.265,4.265,0,0,1,1.253.025,4.253,4.253,0,0,1-1.231.235l-1.345.153-.8.078-.421.038-.215.019-.108.009-.055.005-.027,0-.014,0h-.012c.075-.089-.169.2.167-.2a24.651,24.651,0,0,1,.174,4.256" transform="translate(-49.054 -29.482)" fill="#f7f7f7"/>
        <path id="Trazado_159000" data-name="Trazado 159000" d="M322.616,215.434a43.107,43.107,0,0,1-.671-7.939,42.91,42.91,0,0,1,.671,7.939" transform="translate(-49.265 -31.756)" fill="#f7f7f7"/>
        <path id="Trazado_159001" data-name="Trazado 159001" d="M324.2,234.18a43.1,43.1,0,0,1-.671-7.939,42.93,42.93,0,0,1,.671,7.939" transform="translate(-49.507 -34.625)" fill="#f7f7f7"/>
        <path id="Trazado_159002" data-name="Trazado 159002" d="M160.425,256.835l20.717-32.255,15.546,18.152,8.89-10.928,20.4,20.367Z" transform="translate(-24.552 -34.371)" fill="#5d947e"/>
        <path id="Trazado_159003" data-name="Trazado 159003" d="M206.556,217.585a5.174,5.174,0,1,1-5.529-4.794,5.175,5.175,0,0,1,5.529,4.794" transform="translate(-30.031 -32.565)" fill="#5d947e"/>
        <path id="Trazado_159004" data-name="Trazado 159004" d="M304.087,209.006c.009.1-12.734,1.361-28.46,2.813s-28.487,2.546-28.5,2.444,12.731-1.36,28.463-2.813,28.485-2.546,28.494-2.444" transform="translate(-37.822 -31.986)" fill="#25414b"/>
        <path id="Trazado_159005" data-name="Trazado 159005" d="M305.918,220.2c.009.1-12.876,1.374-28.777,2.842s-28.8,2.576-28.813,2.474,12.874-1.374,28.78-2.842,28.8-2.576,28.811-2.474" transform="translate(-38.005 -33.699)" fill="#25414b"/>
        <path id="Trazado_159006" data-name="Trazado 159006" d="M307.752,231.388c.009.1-13.014,1.386-29.084,2.87s-29.112,2.6-29.122,2.5,13.011-1.386,29.088-2.87,29.109-2.6,29.118-2.5" transform="translate(-38.192 -35.412)" fill="#25414b"/>
        <path id="Trazado_159007" data-name="Trazado 159007" d="M308.143,242.482c.009.1-13.03,1.388-29.119,2.874s-29.147,2.607-29.156,2.505,13.027-1.388,29.123-2.874,29.144-2.607,29.153-2.505" transform="translate(-38.241 -37.11)" fill="#25414b"/>
        <rect id="Rectángulo_8645" data-name="Rectángulo 8645" width="30.079" height="2.386" transform="translate(208.035 173.157) rotate(-4.593)" fill="#41d3a0"/>
        <path id="Trazado_159008" data-name="Trazado 159008" d="M357.1,224.658c-.1.008-.489-3.49-.863-7.815s-.6-7.838-.494-7.847.488,3.49.862,7.816.6,7.838.495,7.846" transform="translate(-54.441 -31.986)" fill="#f7f7f7"/>
        <path id="Trazado_159009" data-name="Trazado 159009" d="M362.367,217.794c.007.1-3.361.4-7.52.661s-7.537.395-7.543.293,3.36-.4,7.52-.661,7.536-.395,7.543-.293" transform="translate(-53.153 -33.327)" fill="#f7f7f7"/>
        <path id="Trazado_159010" data-name="Trazado 159010" d="M357.931,171.3s-.171-.054-.5-.178l-1.453-.555-5.587-2.172L329.758,160.3l-69-27.2.149-.006-8.732,4.334L179.832,173.27l-21.94,10.823-5.974,2.925-1.557.753c-.352.168-.537.245-.537.245s.174-.1.52-.279l1.541-.785,5.944-2.988,21.888-10.928L252.01,137.1l8.733-4.332.074-.037.077.03,68.956,27.307,20.594,8.2,5.563,2.233,1.44.588c.324.134.485.211.485.211" transform="translate(-22.93 -20.314)" fill="#25414b"/>
        <path id="Trazado_159011" data-name="Trazado 159011" d="M342.61,60.749a4.747,4.747,0,0,0-8.618-.053l-7.415.612,7.495,14.773,4.694-8.64a4.743,4.743,0,0,0,3.844-6.692" transform="translate(-49.981 -8.872)" fill="#25414b"/>
        <path id="Trazado_159012" data-name="Trazado 159012" d="M292.176,34.68l4.838-2.063-11.67-2.94a4.748,4.748,0,1,0-1.1,6.322l11.083,6.779Z" transform="translate(-42.331 -4.207)" fill="#25414b"/>
        <path id="Trazado_159013" data-name="Trazado 159013" d="M388.423,180.069l-.03-.1L308.331,30.706l-.451-.844-12.617,5.747,60.39,159.166.036.1,35.957,57.169.728-.108.828-.122.653-.1-7.439-11.828,4.343-11.2,11.514,4.263,5.071,16.776.6-.089.766-.113.672-.1Zm5.175,24.186-14.373-3.693,8.337-16.277Zm-15.642-4.019-17.677-4.541,26.091-11.886Zm6.674-22.955-18.363-5.073L373.8,157.09Zm-19.617-5.421-16.167-4.467,23.8-10.84Zm6.532-18.977-16.921-5.9,6.033-14.4Zm-18.131-6.32-14.863-5.183L359.6,131.79Zm4.848-18.444-15.4-6.653,4.561-13.562Zm-16.581-7.161-13.19-5.7,17.839-8.127Zm3.528-17.173-.088.04-13.854-7.49,3.08-12.8ZM331.57,78.355l-12.085-8.116,1.6-11.43Zm-13.264-8.908-9.715-6.525,11.353-5.172ZM308.012,34.435l10.259,19.128L307.72,44.674Zm-1.961,23.851L298.609,38.67l7.815,6.583Zm.42-14.664-8.378-7.057,8.693-3.96Zm1.2,2.684,10.15,8.551-10.532,4.8Zm.654,17.978,9.781,6.57-1.965,14.031Zm10.96,7.362,11.752,7.892-13.734,6.256Zm14.028,10.715L330.1,95.708l-11.93-6.45ZM318.4,90.831l11.4,6.161L326.28,111.6Zm12.558,6.789,12.707,6.869-16.128,7.347Zm-2.819,18.88,13.134,5.673-5.16,15.343Zm14.309,6.181,14.72,6.358-19.909,9.069Zm-4.426,19.868,14.9,5.194-6.784,16.192Zm16.107,5.615,16.118,5.62-22.83,10.4Zm-6.283,20.278,16.587,4.583L356,189.941Zm17.84,4.929,18.025,4.981-26.53,12.086Zm-6.4,23.388,18.069,4.641-6.8,13.277Zm19.338,4.967L393.4,205.52l-21.8,9.93Zm6.939,36.813-9.653-15.348,13.645,5.051Zm4.454-11.487L374.8,221.417l-.37-.589,21.253-9.682.223.737Zm1.2.444,5.285-13.628,5.3,17.549Z" transform="translate(-45.188 -4.57)" fill="#25414b"/>
        <path id="Trazado_159014" data-name="Trazado 159014" d="M280.716,101.078s-.014-.428-.022-1.261-.012-2.075-.021-3.689c-.009-3.246-.022-8.011-.039-14.115-.015-12.224-.037-29.809-.064-51.287v-.131l.131-.014,22.471-2.362.082-.008.055.062,58.481,65.364L446.91,188.91l25.764,28.9,6.991,7.87,1.811,2.053c.407.463.607.707.607.707s-.219-.227-.635-.683l-1.839-2.028-7.042-7.823-25.851-28.821c-21.807-24.366-51.927-58.02-85.2-95.2l-58.446-65.4.137.053L280.731,30.87l.13-.145c-.026,21.478-.048,39.063-.064,51.287-.017,6.1-.03,10.868-.039,14.115-.009,1.614-.016,2.85-.021,3.689s-.022,1.261-.022,1.261" transform="translate(-42.94 -4.317)" fill="#25414b"/>
        <path id="Trazado_159015" data-name="Trazado 159015" d="M281.614,98.282h-2.937a.326.326,0,0,1-.326-.325V90.913a.326.326,0,0,1,.326-.326h2.937a.326.326,0,0,1,.325.326v7.043a.325.325,0,0,1-.325.325" transform="translate(-42.6 -13.864)" fill="#25414b"/>
        <path id="Trazado_159016" data-name="Trazado 159016" d="M285.291,100.606H273.509a1.312,1.312,0,1,1,0-2.625h11.782a1.312,1.312,0,1,1,0,2.625" transform="translate(-41.658 -14.996)" fill="#25414b"/>
        <path id="Trazado_159017" data-name="Trazado 159017" d="M280.893,125.663l-.044-1.68-1.73.738a10.016,10.016,0,0,0-.029,1.865.7.7,0,0,0,.068.292.791.791,0,0,0,.419.29,3.408,3.408,0,0,1,1.783,1.561,2.046,2.046,0,0,1-1.172,2.864,2.121,2.121,0,0,1-2.647-1.418c-.008-.287,0-.7-.4-.738-.577-.056-.823.781-.807,1.223a3.632,3.632,0,0,0,3.506,3.392,3.709,3.709,0,0,0,1.982-.429,3.858,3.858,0,0,0,1.862-2.629c.575-3.318-2.97-5.117-2.789-5.331" transform="translate(-42.291 -18.975)" fill="#25414b"/>
        <path id="Trazado_159018" data-name="Trazado 159018" d="M281.242,121.085l7.529-18.124a2.489,2.489,0,0,0-2.3-3.444H271.414a2.489,2.489,0,0,0-2.3,3.444l7.529,18.124a2.489,2.489,0,0,0,4.6,0" transform="translate(-41.157 -15.231)" fill="#f7f7f7"/>
        <path id="Trazado_159019" data-name="Trazado 159019" d="M272.417,101.035l-1.945,1.945a1.41,1.41,0,0,0,.034.222l.636,1.531,3.7-3.7Z" transform="translate(-41.394 -15.463)" fill="#41d3a0"/>
        <path id="Trazado_159020" data-name="Trazado 159020" d="M279.938,101.035h-2.423l-5.412,5.411.711,1.713Z" transform="translate(-41.644 -15.463)" fill="#41d3a0"/>
        <path id="Trazado_159021" data-name="Trazado 159021" d="M285.885,111.344l1.723-4.146-10.466,10.465.711,1.713Z" transform="translate(-42.415 -16.406)" fill="#41d3a0"/>
        <path id="Trazado_159022" data-name="Trazado 159022" d="M284.42,116.989l-5.6,5.6.19.456a1.513,1.513,0,0,0,.91.868l2.775-2.775Z" transform="translate(-42.672 -17.905)" fill="#41d3a0"/>
        <path id="Trazado_159023" data-name="Trazado 159023" d="M285.043,101.035h-2.424l-8.836,8.836.711,1.713Z" transform="translate(-41.901 -15.463)" fill="#41d3a0"/>
        <path id="Trazado_159024" data-name="Trazado 159024" d="M288.735,102.467a1.563,1.563,0,0,0-.258-.716,1.5,1.5,0,0,0-.861-.588l-12.152,12.151.711,1.713Z" transform="translate(-42.158 -15.483)" fill="#41d3a0"/>
        <path id="Trazado_159025" data-name="Trazado 159025" d="M523.916,267.651H507.522V262.24a2.234,2.234,0,0,1,2.234-2.234h11.925a2.234,2.234,0,0,1,2.234,2.234Z" transform="translate(-77.674 -39.793)" fill="#25414b"/>
        <path id="Trazado_159026" data-name="Trazado 159026" d="M473.2,262.756H470.51V246.77a6.805,6.805,0,0,1,.328-2.089l1.35-4.183a.1.1,0,0,1,.178-.019l1.587,2.8-.419,1.3a6.954,6.954,0,0,0-.337,2.14Z" transform="translate(-72.009 -36.797)" fill="#25414b"/>
        <path id="Trazado_159027" data-name="Trazado 159027" d="M527.146,267.071a5.872,5.872,0,0,0-4.387-3.522l-67.247-.032v-11.2a2.723,2.723,0,0,0-2.723-2.723H420.3a2.723,2.723,0,0,0-2.593,1.889l-.97,3.08h3.614a2.817,2.817,0,0,1,2.17,1.005,2.67,2.67,0,0,1,.572,2.275l-3.48,16.487a2.793,2.793,0,0,1-2.741,2.179h-6.905a10.759,10.759,0,0,0,.19,3.146l.383,1.647-17.793,3.5a.744.744,0,0,0-.581.569l-1.674,4.5a2.654,2.654,0,0,0-.241.647l-.008.023h0c-.36,1.487-.095,3.97.8,3.97h19.061l-.834.937-1.074,3.345H529.3c.03-10.849-.258-27.177-2.15-31.718m-83.915-10.23-1.791,16.193c-.023.206-.054.41-.093.611a7.129,7.129,0,0,1-7.081,5.571l-7.985-.01a2.459,2.459,0,0,1-2.4-2.982l3.756-19.479a2.741,2.741,0,0,1,2.675-2.182h10.879a2.052,2.052,0,0,1,2.04,2.278" transform="translate(-59.701 -38.199)" fill="#41d3a0"/>
        <path id="Trazado_159028" data-name="Trazado 159028" d="M478.505,315.951l-51.527.721c-.335,0-.928-.993-.928-1.327v-5.753a.607.607,0,0,1,.606-.606h51.849a.606.606,0,0,1,.606.606v5.753a.606.606,0,0,1-.606.606" transform="translate(-65.205 -47.289)" fill="#436e7a"/>
        <path id="Trazado_159029" data-name="Trazado 159029" d="M449.327,257.735l-1.791,16.193c-.023.206-.054.41-.093.611a7.129,7.129,0,0,1-7.081,5.571l-7.985-.01a2.459,2.459,0,0,1-2.4-2.982l3.756-19.479a2.742,2.742,0,0,1,2.675-2.182h10.879a2.052,2.052,0,0,1,2.04,2.278" transform="translate(-65.797 -39.096)" fill="#fe5864"/>
      </g>
    </g>
    <g id="Grupo_71330" data-name="Grupo 71330" transform="translate(364.123 216.36)">
      <g id="Grupo_71329" data-name="Grupo 71329" clip-path="url(#clip-path-7)">
        <g id="Grupo_71328" data-name="Grupo 71328" transform="translate(-15.627 44.334)" style="mix-blend-mode: screen;isolation: isolate">
          <g id="Grupo_71327" data-name="Grupo 71327">
            <g id="Grupo_71326" data-name="Grupo 71326" clip-path="url(#clip-path-8)">
              <path id="Trazado_159030" data-name="Trazado 159030" d="M532.613,309.1a2.78,2.78,0,0,0-.167-1.3h-120.8a2.8,2.8,0,0,0-.167,1.3Z" transform="translate(-411.47 -307.801)" fill="#fe5864"/>
            </g>
          </g>
        </g>
        <path id="Trazado_159031" data-name="Trazado 159031" d="M421.289,251.479l-7.274,22.593a10.784,10.784,0,0,0-.277,5.579l3.111,14.443h42.244v-41.78a2.723,2.723,0,0,0-2.723-2.723H423.881a2.724,2.724,0,0,0-2.593,1.889" transform="translate(-427.407 -254.558)" fill="#fe5864"/>
      </g>
    </g>
    <g id="Grupo_71332" data-name="Grupo 71332">
      <g id="Grupo_71331" data-name="Grupo 71331" clip-path="url(#clip-path)">
        <path id="Trazado_159033" data-name="Trazado 159033" d="M432.378,280.1a2.459,2.459,0,0,1-2.4-2.982l3.756-19.479a2.741,2.741,0,0,1,2.675-2.182h10.879a2.052,2.052,0,0,1,2.041,2.278l-1.792,16.193c-.023.206-.054.41-.094.611a7.13,7.13,0,0,1-7.08,5.571Z" transform="translate(-65.797 -39.097)" fill="#436e7a"/>
        <path id="Trazado_159034" data-name="Trazado 159034" d="M413.562,277.445a10.23,10.23,0,0,1,.479-2.336l6.313-19.61h3.614a2.815,2.815,0,0,1,2.169,1.005,2.67,2.67,0,0,1,.572,2.275l-3.479,16.487a2.793,2.793,0,0,1-2.742,2.179Z" transform="translate(-63.294 -39.103)" fill="#436e7a"/>
        <path id="Trazado_159035" data-name="Trazado 159035" d="M532.574,310.852H411.535c-.926,0-.926-3.353,0-3.353H532.574c.926,0,.926,3.353,0,3.353" transform="translate(-62.877 -47.061)" fill="#25414b"/>
        <path id="Trazado_159036" data-name="Trazado 159036" d="M459.791,267.047a.684.684,0,0,1,.012.18c0,.14,0,.313,0,.524q-.015.737-.043,2.017c-.054,1.782-.132,4.308-.227,7.414-.109,3.14-.24,6.863-.384,10.994q-.057,1.553-.118,3.179a7.435,7.435,0,0,1-.711,3.292,4.528,4.528,0,0,1-2.786,2.093,12.652,12.652,0,0,1-3.555.418L427.5,296.7l-7.414-.184-2.016-.069-.524-.027a.652.652,0,0,1-.179-.022.711.711,0,0,1,.18-.015l.524-.01h2.017l7.417.066,24.469.352a12.378,12.378,0,0,0,3.45-.4A4.162,4.162,0,0,0,458,294.471a7.117,7.117,0,0,0,.675-3.132q.067-1.624.13-3.176c.174-4.13.331-7.852.463-10.991.144-3.1.262-5.628.344-7.409q.072-1.277.113-2.014c.015-.212.028-.384.039-.523a.621.621,0,0,1,.025-.178" transform="translate(-63.876 -40.87)" fill="#25414b"/>
        <path id="Trazado_159037" data-name="Trazado 159037" d="M426.7,299.47c-.1,0-.185-3.549-.185-7.926s.082-7.926.185-7.926.185,3.548.185,7.926-.083,7.926-.185,7.926" transform="translate(-65.276 -43.406)" fill="#25414b"/>
        <path id="Trazado_159038" data-name="Trazado 159038" d="M433.052,249.746a6.909,6.909,0,0,1-.132,1.145c-.108.734-.283,1.792-.514,3.1-.462,2.611-1.165,6.206-2.048,10.153s-1.783,7.5-2.479,10.058c-.348,1.279-.641,2.311-.856,3.02a6.87,6.87,0,0,1-.369,1.093,6.847,6.847,0,0,1,.23-1.13c.191-.782.44-1.809.742-3.048.631-2.572,1.487-6.129,2.371-10.074s1.625-7.525,2.152-10.121l.629-3.074a6.875,6.875,0,0,1,.274-1.12" transform="translate(-65.297 -38.222)" fill="#25414b"/>
        <path id="Trazado_159039" data-name="Trazado 159039" d="M449.522,291.653a2.227,2.227,0,0,0,.661-.272,1.224,1.224,0,0,0,.453-.656,1.411,1.411,0,0,0-.127-1.025,1.144,1.144,0,0,0-1.053-.551l-1.607.017-3.68.014a1.094,1.094,0,0,0-1.085,1.01,1.128,1.128,0,0,0,.725,1.231,1.141,1.141,0,0,0,.356.065l.407,0,.779.009,1.4.023c.855.017,1.548.036,2.027.058a2.906,2.906,0,0,1,.743.072,2.9,2.9,0,0,1-.743.072c-.479.022-1.171.041-2.027.058l-1.4.023-.779.009-.409,0a1.452,1.452,0,0,1-1.44-1.653,1.455,1.455,0,0,1,1.446-1.354l3.68.014,1.607.017a1.419,1.419,0,0,1,1.28.728,1.378,1.378,0,0,1,.169.641,1.65,1.65,0,0,1-.072.574,1.34,1.34,0,0,1-.571.715,1.207,1.207,0,0,1-.545.173c-.13.007-.2-.011-.2-.021" transform="translate(-67.755 -44.201)" fill="#fff"/>
        <path id="Trazado_159040" data-name="Trazado 159040" d="M541.175,271.587c0,.1-4.947.185-11.049.185s-11.05-.083-11.05-.185,4.946-.185,11.05-.185,11.049.083,11.049.185" transform="translate(-79.442 -41.537)" fill="#25414b"/>
        <path id="Trazado_159041" data-name="Trazado 159041" d="M541.175,274.183c0,.1-4.947.185-11.049.185s-11.05-.083-11.05-.185,4.946-.185,11.05-.185,11.049.083,11.049.185" transform="translate(-79.442 -41.934)" fill="#25414b"/>
        <path id="Trazado_159042" data-name="Trazado 159042" d="M541.175,276.78c0,.1-4.947.185-11.049.185s-11.05-.082-11.05-.185,4.946-.185,11.05-.185,11.049.083,11.049.185" transform="translate(-79.442 -42.332)" fill="#25414b"/>
        <path id="Trazado_159043" data-name="Trazado 159043" d="M541.175,279.377c0,.1-4.947.185-11.049.185s-11.05-.082-11.05-.185,4.946-.185,11.05-.185,11.049.083,11.049.185" transform="translate(-79.442 -42.729)" fill="#25414b"/>
        <path id="Trazado_159044" data-name="Trazado 159044" d="M541.175,281.974c0,.1-4.947.185-11.049.185s-11.05-.083-11.05-.185,4.946-.185,11.05-.185,11.049.083,11.049.185" transform="translate(-79.442 -43.126)" fill="#25414b"/>
        <path id="Trazado_159045" data-name="Trazado 159045" d="M541.175,284.571c0,.1-4.947.185-11.049.185s-11.05-.083-11.05-.185,4.946-.185,11.05-.185,11.049.083,11.049.185" transform="translate(-79.442 -43.524)" fill="#25414b"/>
        <path id="Trazado_159046" data-name="Trazado 159046" d="M541.175,287.167c0,.1-4.947.185-11.049.185s-11.05-.083-11.05-.185,4.946-.185,11.05-.185,11.049.083,11.049.185" transform="translate(-79.442 -43.921)" fill="#25414b"/>
        <path id="Trazado_159047" data-name="Trazado 159047" d="M394.823,343.439c-6.634,0-12.215-6.4-12.215-13.031a12.6,12.6,0,0,1,12.472-12.23l106.837-4.83a14.358,14.358,0,0,1,13.4,7.472,14.187,14.187,0,0,1,1.192,9.9c-2.8,12.909-13.555,12.749-17.728,12.471s-103.96.247-103.96.247" transform="translate(-58.556 -47.954)" fill="#25414b"/>
        <path id="Trazado_159048" data-name="Trazado 159048" d="M405.206,331.595a9.979,9.979,0,1,1-9.979-9.979,9.979,9.979,0,0,1,9.979,9.979" transform="translate(-58.96 -49.222)" fill="#436e7a"/>
        <path id="Trazado_159049" data-name="Trazado 159049" d="M533.258,328.67a12.908,12.908,0,1,1-12.908-12.908,12.908,12.908,0,0,1,12.908,12.908" transform="translate(-77.661 -48.326)" fill="#436e7a"/>
        <path id="Trazado_159050" data-name="Trazado 159050" d="M504.85,316.242a1.619,1.619,0,0,1-.277.044l-.815.091-3.14.315c-2.725.27-6.675.622-11.557,1.021-9.764.8-23.268,1.731-38.2,2.392s-28.475.917-38.271.976c-4.9.031-8.863.027-11.6,0l-3.154-.037-.82-.02a1.546,1.546,0,0,1-.279-.019,1.61,1.61,0,0,1,.279-.019l.82-.017,3.154-.031,11.6-.116c9.793-.125,23.323-.429,38.257-1.083s28.431-1.547,38.2-2.283l11.565-.9,3.145-.246.818-.055a1.522,1.522,0,0,1,.28-.006" transform="translate(-60.718 -48.399)" fill="#436e7a"/>
        <path id="Trazado_159051" data-name="Trazado 159051" d="M500.786,344.768c0,.1-23.233.185-51.885.185s-51.891-.082-51.891-.185,23.228-.185,51.891-.185,51.885.083,51.885.185" transform="translate(-60.76 -52.737)" fill="#436e7a"/>
        <path id="Trazado_159052" data-name="Trazado 159052" d="M417.339,298.779a24.754,24.754,0,0,1-.736-2.512c-.432-1.556-1.064-3.7-1.7-6.082a49.514,49.514,0,0,1-1.334-6.19,13.864,13.864,0,0,1-.113-1.923,2.567,2.567,0,0,1,.089-.7c.062,0,0,1,.282,2.588.268,1.586.789,3.753,1.433,6.133s1.231,4.535,1.6,6.112c.185.789.324,1.429.4,1.876a2.614,2.614,0,0,1,.084.7" transform="translate(-63.277 -43.062)" fill="#fff"/>
        <path id="Trazado_159053" data-name="Trazado 159053" d="M513.509,337.256a3.213,3.213,0,0,1-.739-.489,8.847,8.847,0,0,1-1.664-1.754,10,10,0,0,1-1.554-3.238,9.37,9.37,0,0,1,1.634-8.4,10.007,10.007,0,0,1,2.656-2.418,8.825,8.825,0,0,1,2.2-1,3.277,3.277,0,0,1,.867-.176,14.2,14.2,0,0,0-2.925,1.4,10.2,10.2,0,0,0-2.526,2.4,9.268,9.268,0,0,0-1.577,8.1,10.221,10.221,0,0,0,1.44,3.176,14.188,14.188,0,0,0,2.189,2.393" transform="translate(-77.929 -48.94)" fill="#fff"/>
        <path id="Trazado_159054" data-name="Trazado 159054" d="M446.037,268.8a132,132,0,0,1-11.3,8.183,131.862,131.862,0,0,1,11.3-8.183" transform="translate(-66.534 -41.138)" fill="#fff"/>
        <path id="Trazado_159055" data-name="Trazado 159055" d="M447.3,265.241a98.087,98.087,0,0,1-9.873,6.9,98.333,98.333,0,0,1,9.873-6.9" transform="translate(-66.946 -40.593)" fill="#fff"/>
        <path id="Trazado_159056" data-name="Trazado 159056" d="M423.6,270.735a26.391,26.391,0,0,1-5.119,3.564,26.464,26.464,0,0,1,5.119-3.564" transform="translate(-64.046 -41.434)" fill="#fff"/>
        <path id="Trazado_159057" data-name="Trazado 159057" d="M425.163,267.406a36.88,36.88,0,0,1-5.825,4.518,36.741,36.741,0,0,1,5.825-4.518" transform="translate(-64.177 -40.924)" fill="#fff"/>
        <path id="Trazado_159058" data-name="Trazado 159058" d="M451.076,287.743a42.656,42.656,0,0,1-7.928,0,42.649,42.649,0,0,1,7.928,0" transform="translate(-67.822 -44.009)" fill="#fff"/>
        <path id="Trazado_159059" data-name="Trazado 159059" d="M393.416,340.336a3.164,3.164,0,0,1-.87-.186,8.091,8.091,0,0,1-2.18-1.072,9.248,9.248,0,0,1-2.521-2.582,8.507,8.507,0,0,1-.6-8.514,9.247,9.247,0,0,1,2.135-2.909,8.086,8.086,0,0,1,2.009-1.367,3.172,3.172,0,0,1,.835-.307,12.193,12.193,0,0,0-2.665,1.863,9.387,9.387,0,0,0-2.006,2.862,8.366,8.366,0,0,0,.576,8.188,9.381,9.381,0,0,0,2.387,2.553,12.174,12.174,0,0,0,2.9,1.472" transform="translate(-59.134 -49.494)" fill="#fff"/>
        <path id="Trazado_159060" data-name="Trazado 159060" d="M409.451,296.875c0,.1-3.848.185-8.593.185s-8.594-.083-8.594-.185,3.847-.185,8.594-.185,8.593.083,8.593.185" transform="translate(-60.034 -45.407)" fill="#fff"/>
        <path id="Trazado_159061" data-name="Trazado 159061" d="M316.959,45.352l-6.472-13.893a8.581,8.581,0,1,0-15.558,7.247L301.4,52.6a.519.519,0,0,0,.689.251l14.617-6.809a.519.519,0,0,0,.252-.689" transform="translate(-45.014 -4.055)" fill="#41d3a0"/>
        <rect id="Rectángulo_8648" data-name="Rectángulo 8648" width="3.646" height="67.021" transform="translate(20.311 228.193)" fill="#f7f7f7"/>
        <path id="Trazado_159062" data-name="Trazado 159062" d="M29.156,266.056a3.675,3.675,0,1,1-3.674-3.674,3.674,3.674,0,0,1,3.674,3.674" transform="translate(-3.337 -40.156)" fill="#41d3a0"/>
        <rect id="Rectángulo_8649" data-name="Rectángulo 8649" width="3.646" height="67.021" transform="translate(92.76 228.193)" fill="#f7f7f7"/>
        <path id="Trazado_159063" data-name="Trazado 159063" d="M114.7,266.056a3.675,3.675,0,1,1-3.674-3.674,3.674,3.674,0,0,1,3.674,3.674" transform="translate(-16.429 -40.156)" fill="#41d3a0"/>
        <rect id="Rectángulo_8650" data-name="Rectángulo 8650" width="93.406" height="16.712" transform="translate(9.904 234.661)" fill="#41d3a0"/>
        <path id="Trazado_159064" data-name="Trazado 159064" d="M22.263,277.064l-.163.277-9.6,16.435h-.811V277.064Z" transform="translate(-1.79 -42.403)" fill="#fff"/>
        <path id="Trazado_159065" data-name="Trazado 159065" d="M47.976,277.064l-9.768,16.712H25.446l3.882-6.639,5.886-10.073Z" transform="translate(-3.894 -42.403)" fill="#fff"/>
        <path id="Trazado_159066" data-name="Trazado 159066" d="M75.84,277.064l-9.768,16.712H53.31l9.767-16.712Z" transform="translate(-8.159 -42.403)" fill="#fff"/>
        <path id="Trazado_159067" data-name="Trazado 159067" d="M103.7,277.068l-9.77,16.709H81.171l9.77-16.709Z" transform="translate(-12.423 -42.404)" fill="#fff"/>
        <path id="Trazado_159068" data-name="Trazado 159068" d="M120,277.068v16.709H109.035l9.77-16.709Z" transform="translate(-16.687 -42.404)" fill="#fff"/>
        <rect id="Rectángulo_8651" data-name="Rectángulo 8651" width="93.406" height="16.712" transform="translate(9.904 260.479)" fill="#41d3a0"/>
        <path id="Trazado_159069" data-name="Trazado 159069" d="M22.263,307.548l-.163.277L12.5,324.26h-.811V307.548Z" transform="translate(-1.79 -47.069)" fill="#fff"/>
        <path id="Trazado_159070" data-name="Trazado 159070" d="M47.976,307.548,38.208,324.26H25.446l3.882-6.639,5.886-10.073Z" transform="translate(-3.894 -47.069)" fill="#fff"/>
        <path id="Trazado_159071" data-name="Trazado 159071" d="M75.84,307.548,66.072,324.26H53.31l9.767-16.712Z" transform="translate(-8.159 -47.069)" fill="#fff"/>
        <path id="Trazado_159072" data-name="Trazado 159072" d="M103.7,307.552l-9.77,16.709H81.171l9.77-16.709Z" transform="translate(-12.423 -47.069)" fill="#fff"/>
        <path id="Trazado_159073" data-name="Trazado 159073" d="M120,307.552v16.709H109.035l9.77-16.709Z" transform="translate(-16.687 -47.069)" fill="#fff"/>
        <path id="Trazado_159074" data-name="Trazado 159074" d="M105.066,293.743s-.006-.1-.009-.289-.006-.473-.01-.835c-.005-.744-.013-1.831-.023-3.248-.013-2.845-.031-7.01-.055-12.34l.1.1-93.4.088H11.66l.185-.185c0,5.725,0,11.348,0,16.712l-.183-.182,66.5.08,19.718.053,5.326.025,1.386.013c.313,0,.479.012.479.012s-.15.008-.455.012l-1.363.013-5.287.025-19.676.052-66.627.081h-.182v-.183c0-5.365,0-10.988,0-16.712v-.185h.19l93.4.087h.1v.1c-.024,5.354-.042,9.539-.055,12.4-.01,1.408-.018,2.487-.023,3.226,0,.355-.008.626-.01.819s-.009.27-.009.27" transform="translate(-1.756 -42.37)" fill="#25414b"/>
        <path id="Trazado_159075" data-name="Trazado 159075" d="M105.066,324.227s-.006-.1-.009-.289-.006-.473-.01-.835c-.005-.744-.013-1.831-.023-3.248-.013-2.845-.031-7.01-.055-12.34l.1.1-93.4.088H11.66l.185-.185c0,5.725,0,11.347,0,16.712l-.183-.182,66.5.08,19.718.052,5.326.025,1.386.013c.313,0,.479.012.479.012s-.15.008-.455.012l-1.363.013-5.287.025-19.676.052-66.627.081h-.182v-.183c0-5.365,0-10.988,0-16.712v-.185h.19l93.4.087h.1v.1c-.024,5.354-.042,9.539-.055,12.4-.01,1.408-.018,2.487-.023,3.226,0,.355-.008.626-.01.819s-.009.27-.009.27" transform="translate(-1.756 -47.035)" fill="#25414b"/>
        <path id="Trazado_159076" data-name="Trazado 159076" d="M465.842,348.846c0,.1-103.148.185-230.357.185-127.254,0-230.379-.083-230.379-.185s103.125-.185,230.379-.185c127.209,0,230.357.083,230.357.185" transform="translate(-0.781 -53.361)" fill="#25414b"/>
      </g>
    </g>
  </g>
</svg>
