<svg id="Grupo_70172" data-name="Grupo 70172" xmlns="http://www.w3.org/2000/svg" width="190" height="64.976" viewBox="0 0 190 64.976">
  <path id="Trazado_243" data-name="Trazado 243" d="M6.786,0H183.214C186.962,0,190,2.239,190,5V35c0,2.761-3.038,5-6.786,5H6.786C3.038,40,0,37.761,0,35V5C0,2.239,3.038,0,6.786,0Z" transform="translate(0 14.125)" fill="#eb9595"/>
  <g id="Grupo_70157" data-name="Grupo 70157" transform="translate(115.567)">
    <path id="Trazado_156578" data-name="Trazado 156578" d="M0,0H28.725c4.507,0,6.505,8.076,6.505,8.076S44.725,11.67,44.725,16V60.439H0Z" transform="translate(8.406 2.417)" fill="#fff"/>
    <g id="Grupo_70156" data-name="Grupo 70156">
      <path id="Trazado_722" data-name="Trazado 722" d="M1502.341,662.327h-27.389a5.358,5.358,0,0,0-5.318,5.384v54.207a5.358,5.358,0,0,0,5.318,5.384H1513.2a5.358,5.358,0,0,0,5.318-5.384V678.7Zm13.185,59.591a2.348,2.348,0,0,1-2.33,2.359h-38.243a2.348,2.348,0,0,1-2.33-2.359V667.711a2.348,2.348,0,0,1,2.33-2.36H1501.1l.015.015v14.578h14.4l.009.009Z" transform="translate(-1462.965 -662.327)" fill="#ac5d5d"/>
      <path id="Trazado_723" data-name="Trazado 723" d="M1467.5,954.253a2.074,2.074,0,0,1-2,2.13h-43.967a2.074,2.074,0,0,1-2-2.13v-21.3a2.074,2.074,0,0,1,2-2.13H1465.5a2.074,2.074,0,0,1,2,2.13Z" transform="translate(-1419.534 -900.928)" fill="#ac5d5d"/>
      <text id="PDF" transform="translate(19.625 46.637)" fill="#f8f8f8" font-size="14" font-family="Montserrat-ExtraBold, Montserrat" font-weight="800" letter-spacing="0.04em" style="isolation: isolate"><tspan x="-15.925" y="0">PDF</tspan></text>
    </g>
  </g>
  <path id="Trazado_161544" data-name="Trazado 161544" d="M.952,0V-10.664H4.233a4.983,4.983,0,0,1,2.516.634,4.418,4.418,0,0,1,1.732,1.8A5.557,5.557,0,0,1,9.1-5.574v.491a5.573,5.573,0,0,1-.612,2.644A4.38,4.38,0,0,1,6.768-.645,5.021,5.021,0,0,1,4.255,0Zm2.2-8.884v7.119H4.211a2.386,2.386,0,0,0,1.97-.842,3.806,3.806,0,0,0,.7-2.41v-.564A3.867,3.867,0,0,0,6.2-8.046a2.378,2.378,0,0,0-1.97-.839ZM14.509.146A3.89,3.89,0,0,1,11.671-.923a3.8,3.8,0,0,1-1.095-2.849v-.205a4.787,4.787,0,0,1,.461-2.135,3.386,3.386,0,0,1,1.307-1.45,3.669,3.669,0,0,1,1.93-.509,3.289,3.289,0,0,1,2.56,1.025,4.167,4.167,0,0,1,.934,2.908v.864H12.722a1.966,1.966,0,0,0,.619,1.245,1.871,1.871,0,0,0,1.307.469,2.285,2.285,0,0,0,1.912-.886L17.6-1.282A3.178,3.178,0,0,1,16.311-.231,4.229,4.229,0,0,1,14.509.146Zm-.242-6.511a1.323,1.323,0,0,0-1.022.427,2.209,2.209,0,0,0-.5,1.221h2.944v-.169a1.576,1.576,0,0,0-.381-1.092A1.365,1.365,0,0,0,14.267-6.365ZM23.561-2.19a.682.682,0,0,0-.385-.612,4.368,4.368,0,0,0-1.234-.4q-2.827-.593-2.827-2.4a2.178,2.178,0,0,1,.875-1.761,3.531,3.531,0,0,1,2.289-.707,3.8,3.8,0,0,1,2.413.71,2.239,2.239,0,0,1,.9,1.846H23.481a1.024,1.024,0,0,0-.293-.751,1.24,1.24,0,0,0-.916-.3,1.267,1.267,0,0,0-.828.242.763.763,0,0,0-.293.615.652.652,0,0,0,.333.568,3.428,3.428,0,0,0,1.124.374,9.183,9.183,0,0,1,1.333.355A2.19,2.19,0,0,1,25.62-2.278a2.067,2.067,0,0,1-.93,1.754,4.013,4.013,0,0,1-2.4.67,4.191,4.191,0,0,1-1.769-.355,2.968,2.968,0,0,1-1.212-.974,2.263,2.263,0,0,1-.439-1.337h2.007a1.105,1.105,0,0,0,.417.864,1.656,1.656,0,0,0,1.04.3,1.533,1.533,0,0,0,.919-.231A.718.718,0,0,0,23.561-2.19Zm7.016.63a1.388,1.388,0,0,0,.952-.322,1.129,1.129,0,0,0,.381-.857H33.9a2.715,2.715,0,0,1-.439,1.476,2.9,2.9,0,0,1-1.183,1.04,3.7,3.7,0,0,1-1.659.37,3.44,3.44,0,0,1-2.681-1.08,4.275,4.275,0,0,1-.981-2.985v-.139a4.226,4.226,0,0,1,.974-2.922A3.4,3.4,0,0,1,30.6-8.071a3.333,3.333,0,0,1,2.384.846A3,3,0,0,1,33.9-4.973H31.911a1.455,1.455,0,0,0-.381-1.005,1.27,1.27,0,0,0-.967-.387,1.275,1.275,0,0,0-1.117.539,3.125,3.125,0,0,0-.377,1.749v.22A3.164,3.164,0,0,0,29.442-2.1,1.291,1.291,0,0,0,30.578-1.56ZM40,0a2.351,2.351,0,0,1-.212-.71,2.561,2.561,0,0,1-2,.857,2.814,2.814,0,0,1-1.93-.674,2.167,2.167,0,0,1-.765-1.7,2.24,2.24,0,0,1,.934-1.934,4.608,4.608,0,0,1,2.7-.681H39.7V-5.3a1.306,1.306,0,0,0-.282-.879,1.109,1.109,0,0,0-.89-.33,1.261,1.261,0,0,0-.839.256.871.871,0,0,0-.3.7H35.265a2.126,2.126,0,0,1,.425-1.274,2.808,2.808,0,0,1,1.2-.919,4.378,4.378,0,0,1,1.743-.333,3.459,3.459,0,0,1,2.325.736,2.575,2.575,0,0,1,.861,2.069v3.435a3.789,3.789,0,0,0,.315,1.707V0Zm-1.75-1.472a1.823,1.823,0,0,0,.864-.209,1.371,1.371,0,0,0,.586-.56V-3.6h-.791q-1.589,0-1.692,1.1l-.007.125a.847.847,0,0,0,.278.652A1.081,1.081,0,0,0,38.246-1.472ZM48.2-5.94A5.751,5.751,0,0,0,47.438-6a1.55,1.55,0,0,0-1.575.813V0H43.746V-7.925h2l.059.945a1.961,1.961,0,0,1,1.765-1.091,2.218,2.218,0,0,1,.659.1Zm.871,1.919a4.644,4.644,0,0,1,.868-2.937,2.812,2.812,0,0,1,2.34-1.113,2.466,2.466,0,0,1,2.029.894l.088-.747h1.919V-.264a3.387,3.387,0,0,1-.472,1.809,3.034,3.034,0,0,1-1.329,1.172,4.673,4.673,0,0,1-2.007.4,4.346,4.346,0,0,1-1.7-.348,3.016,3.016,0,0,1-1.252-.9L50.491.586a2.48,2.48,0,0,0,1.919.886,1.815,1.815,0,0,0,1.311-.45A1.69,1.69,0,0,0,54.19-.256V-.681a2.448,2.448,0,0,1-1.926.828A2.8,2.8,0,0,1,49.953-.97a4.643,4.643,0,0,1-.883-2.963Zm2.117.151a2.907,2.907,0,0,0,.432,1.7,1.373,1.373,0,0,0,1.187.614,1.469,1.469,0,0,0,1.384-.728V-5.636a1.465,1.465,0,0,0-1.37-.728,1.382,1.382,0,0,0-1.2.625A3.278,3.278,0,0,0,51.187-3.87ZM62.832,0a2.351,2.351,0,0,1-.212-.71,2.561,2.561,0,0,1-2,.857,2.814,2.814,0,0,1-1.93-.674,2.167,2.167,0,0,1-.765-1.7,2.24,2.24,0,0,1,.934-1.934,4.608,4.608,0,0,1,2.7-.681h.974V-5.3a1.306,1.306,0,0,0-.282-.879,1.109,1.109,0,0,0-.89-.33,1.261,1.261,0,0,0-.839.256.871.871,0,0,0-.3.7H58.1a2.126,2.126,0,0,1,.425-1.274,2.808,2.808,0,0,1,1.2-.919,4.378,4.378,0,0,1,1.743-.333,3.459,3.459,0,0,1,2.325.736,2.575,2.575,0,0,1,.861,2.069v3.435a3.789,3.789,0,0,0,.315,1.707V0Zm-1.75-1.472a1.823,1.823,0,0,0,.864-.209,1.371,1.371,0,0,0,.586-.56V-3.6h-.791q-1.589,0-1.692,1.1l-.007.125a.847.847,0,0,0,.278.652A1.081,1.081,0,0,0,61.082-1.472ZM71.035-5.94A5.751,5.751,0,0,0,70.274-6a1.55,1.55,0,0,0-1.575.813V0H66.582V-7.925h2l.059.945a1.961,1.961,0,0,1,1.765-1.091,2.218,2.218,0,0,1,.659.1Z" transform="translate(25 39.125)" fill="#903f3f"/>
</svg>
