<svg xmlns="http://www.w3.org/2000/svg" xmlns:xlink="http://www.w3.org/1999/xlink" width="274" height="82.351" viewBox="0 0 274 82.351">
  <defs>
    <clipPath id="clip-path">
      <rect id="Rectángulo_9104" data-name="Rectángulo 9104" width="63.953" height="63.954" fill="none"/>
    </clipPath>
  </defs>
  <g id="Grupo_72219" data-name="Grupo 72219" transform="translate(-600 -7345.546)">
    <rect id="Rectángulo_9106" data-name="Rectángulo 9106" width="274" height="51" rx="8" transform="translate(600 7376.896)" fill="#26cb99"/>
    <path id="Trazado_161546" data-name="Trazado 161546" d="M3.149,10.243V14H.952V3.336h4.16a4.813,4.813,0,0,1,2.113.439,3.238,3.238,0,0,1,1.4,1.249,3.482,3.482,0,0,1,.491,1.842A3.062,3.062,0,0,1,8.046,9.338a4.469,4.469,0,0,1-2.97.9Zm0-1.78H5.112a1.93,1.93,0,0,0,1.329-.41A1.492,1.492,0,0,0,6.9,6.881a1.759,1.759,0,0,0-.461-1.267,1.724,1.724,0,0,0-1.274-.5H3.149Zm12.092-.4A5.751,5.751,0,0,0,14.48,8a1.55,1.55,0,0,0-1.575.813V14H10.788V6.075h2l.059.945a1.961,1.961,0,0,1,1.765-1.091,2.218,2.218,0,0,1,.659.1Zm6.064,5.134a2.654,2.654,0,0,1-2.168.952,2.5,2.5,0,0,1-1.945-.732,3.127,3.127,0,0,1-.685-2.146V6.075h2.117V11.2q0,1.239,1.128,1.239a1.528,1.528,0,0,0,1.479-.748V6.075h2.124V14H21.364Zm7.595.952a3.89,3.89,0,0,1-2.838-1.069,3.8,3.8,0,0,1-1.095-2.849v-.205a4.787,4.787,0,0,1,.461-2.135,3.386,3.386,0,0,1,1.307-1.45,3.669,3.669,0,0,1,1.93-.509,3.289,3.289,0,0,1,2.56,1.025,4.167,4.167,0,0,1,.934,2.908v.864H27.113a1.966,1.966,0,0,0,.619,1.245,1.871,1.871,0,0,0,1.307.469,2.285,2.285,0,0,0,1.912-.886l1.04,1.165A3.178,3.178,0,0,1,30.7,13.769,4.229,4.229,0,0,1,28.9,14.146Zm-.242-6.511a1.323,1.323,0,0,0-1.022.427,2.209,2.209,0,0,0-.5,1.221H30.08V9.114A1.576,1.576,0,0,0,29.7,8.021,1.365,1.365,0,0,0,28.659,7.635ZM40.8,10.111a4.8,4.8,0,0,1-.813,2.97,2.693,2.693,0,0,1-2.271,1.066,2.474,2.474,0,0,1-2.058-.989l-.1.842h-1.9V2.75h2.117V6.786A2.411,2.411,0,0,1,37.7,5.929a2.715,2.715,0,0,1,2.274,1.066,4.806,4.806,0,0,1,.824,3Zm-2.117-.161A3.17,3.17,0,0,0,38.3,8.19a1.287,1.287,0,0,0-1.135-.555,1.4,1.4,0,0,0-1.392.83V11.6a1.415,1.415,0,0,0,1.406.837,1.307,1.307,0,0,0,1.348-1.014A5.245,5.245,0,0,0,38.685,9.949ZM47,14a2.351,2.351,0,0,1-.212-.71,2.561,2.561,0,0,1-2,.857,2.814,2.814,0,0,1-1.93-.674,2.167,2.167,0,0,1-.765-1.7,2.24,2.24,0,0,1,.934-1.934,4.608,4.608,0,0,1,2.7-.681H46.7V8.7a1.306,1.306,0,0,0-.282-.879,1.109,1.109,0,0,0-.89-.33,1.261,1.261,0,0,0-.839.256.871.871,0,0,0-.3.7H42.267a2.126,2.126,0,0,1,.425-1.274,2.808,2.808,0,0,1,1.2-.919,4.378,4.378,0,0,1,1.743-.333,3.459,3.459,0,0,1,2.325.736,2.575,2.575,0,0,1,.861,2.069v3.435a3.789,3.789,0,0,0,.315,1.707V14Zm-1.75-1.472a1.823,1.823,0,0,0,.864-.209,1.371,1.371,0,0,0,.586-.56V10.4h-.791q-1.589,0-1.692,1.1l-.007.125a.847.847,0,0,0,.278.652A1.081,1.081,0,0,0,45.248,12.528Zm9.792-.718a.682.682,0,0,0-.385-.612,4.368,4.368,0,0,0-1.234-.4q-2.827-.593-2.827-2.4a2.178,2.178,0,0,1,.875-1.761,3.531,3.531,0,0,1,2.289-.707,3.8,3.8,0,0,1,2.413.71,2.239,2.239,0,0,1,.9,1.846H54.959a1.024,1.024,0,0,0-.293-.751,1.24,1.24,0,0,0-.916-.3,1.267,1.267,0,0,0-.828.242.763.763,0,0,0-.293.615.652.652,0,0,0,.333.568,3.428,3.428,0,0,0,1.124.374,9.183,9.183,0,0,1,1.333.355A2.19,2.19,0,0,1,57.1,11.722a2.067,2.067,0,0,1-.93,1.754,4.013,4.013,0,0,1-2.4.67A4.191,4.191,0,0,1,52,13.791a2.968,2.968,0,0,1-1.212-.974,2.263,2.263,0,0,1-.439-1.337h2.007a1.105,1.105,0,0,0,.417.864,1.656,1.656,0,0,0,1.04.3,1.533,1.533,0,0,0,.919-.231A.718.718,0,0,0,55.04,11.81ZM71.006,3.336V10.36a3.6,3.6,0,0,1-1.095,2.769,4.221,4.221,0,0,1-2.992,1.018,4.269,4.269,0,0,1-2.966-.989,3.535,3.535,0,0,1-1.121-2.717v-7.1h2.2v7.039a2.032,2.032,0,0,0,.5,1.527,1.926,1.926,0,0,0,1.388.48q1.853,0,1.882-1.948v-7.1Zm3.911,2.739.066.916a2.767,2.767,0,0,1,2.278-1.062,2.3,2.3,0,0,1,1.875.74,3.451,3.451,0,0,1,.63,2.212V14H77.649V8.92a1.379,1.379,0,0,0-.293-.98,1.31,1.31,0,0,0-.974-.3,1.456,1.456,0,0,0-1.34.763V14H72.925V6.075ZM83.9,14H81.779V6.075H83.9ZM81.655,4.024a1.042,1.042,0,0,1,.319-.784,1.373,1.373,0,0,1,1.732,0,1.036,1.036,0,0,1,.322.784,1.039,1.039,0,0,1-.326.791,1.358,1.358,0,0,1-1.721,0A1.039,1.039,0,0,1,81.655,4.024Zm6.826.1V6.075h1.355V7.628H88.481v3.955a.944.944,0,0,0,.168.63.846.846,0,0,0,.645.19,3.376,3.376,0,0,0,.623-.051v1.6a4.358,4.358,0,0,1-1.282.19A2.021,2.021,0,0,1,86.364,11.9V7.628H85.207V6.075h1.157V4.127ZM95.907,14a2.351,2.351,0,0,1-.212-.71,2.561,2.561,0,0,1-2,.857,2.814,2.814,0,0,1-1.93-.674,2.167,2.167,0,0,1-.765-1.7,2.24,2.24,0,0,1,.934-1.934,4.608,4.608,0,0,1,2.7-.681h.974V8.7a1.306,1.306,0,0,0-.282-.879,1.109,1.109,0,0,0-.89-.33,1.261,1.261,0,0,0-.839.256.871.871,0,0,0-.3.7H91.176A2.126,2.126,0,0,1,91.6,7.181a2.808,2.808,0,0,1,1.2-.919,4.378,4.378,0,0,1,1.743-.333,3.459,3.459,0,0,1,2.325.736,2.575,2.575,0,0,1,.861,2.069v3.435a3.789,3.789,0,0,0,.315,1.707V14Zm-1.75-1.472a1.823,1.823,0,0,0,.864-.209,1.371,1.371,0,0,0,.586-.56V10.4h-.791q-1.589,0-1.692,1.1l-.007.125a.847.847,0,0,0,.278.652A1.081,1.081,0,0,0,94.157,12.528ZM104.11,8.06A5.751,5.751,0,0,0,103.348,8a1.55,1.55,0,0,0-1.575.813V14H99.657V6.075h2l.059.945a1.961,1.961,0,0,1,1.765-1.091,2.218,2.218,0,0,1,.659.1ZM107.662,14h-2.124V6.075h2.124Zm-2.249-9.976a1.042,1.042,0,0,1,.319-.784,1.373,1.373,0,0,1,1.732,0,1.036,1.036,0,0,1,.322.784,1.039,1.039,0,0,1-.326.791,1.358,1.358,0,0,1-1.721,0A1.039,1.039,0,0,1,105.413,4.024ZM114.3,14a2.351,2.351,0,0,1-.212-.71,2.561,2.561,0,0,1-2,.857,2.814,2.814,0,0,1-1.93-.674,2.167,2.167,0,0,1-.765-1.7,2.24,2.24,0,0,1,.934-1.934,4.608,4.608,0,0,1,2.7-.681H114V8.7a1.306,1.306,0,0,0-.282-.879,1.109,1.109,0,0,0-.89-.33,1.261,1.261,0,0,0-.839.256.871.871,0,0,0-.3.7h-2.117a2.126,2.126,0,0,1,.425-1.274,2.808,2.808,0,0,1,1.2-.919,4.378,4.378,0,0,1,1.743-.333,3.459,3.459,0,0,1,2.325.736,2.575,2.575,0,0,1,.861,2.069v3.435a3.789,3.789,0,0,0,.315,1.707V14Zm-1.75-1.472a1.823,1.823,0,0,0,.864-.209,1.371,1.371,0,0,0,.586-.56V10.4h-.791q-1.589,0-1.692,1.1l-.007.125a.847.847,0,0,0,.278.652A1.081,1.081,0,0,0,112.547,12.528Zm9.792-.718a.682.682,0,0,0-.385-.612,4.368,4.368,0,0,0-1.234-.4q-2.827-.593-2.827-2.4a2.178,2.178,0,0,1,.875-1.761,3.531,3.531,0,0,1,2.289-.707,3.8,3.8,0,0,1,2.413.71,2.239,2.239,0,0,1,.9,1.846h-2.117a1.024,1.024,0,0,0-.293-.751,1.24,1.24,0,0,0-.916-.3,1.267,1.267,0,0,0-.828.242.763.763,0,0,0-.293.615.652.652,0,0,0,.333.568,3.428,3.428,0,0,0,1.124.374,9.183,9.183,0,0,1,1.333.355,2.19,2.19,0,0,1,1.677,2.131,2.067,2.067,0,0,1-.93,1.754,4.013,4.013,0,0,1-2.4.67,4.191,4.191,0,0,1-1.769-.355,2.968,2.968,0,0,1-1.212-.974,2.263,2.263,0,0,1-.439-1.337h2.007a1.105,1.105,0,0,0,.417.864,1.656,1.656,0,0,0,1.04.3,1.533,1.533,0,0,0,.919-.231A.718.718,0,0,0,122.339,11.81Zm7.426-1.831a4.776,4.776,0,0,1,.831-2.952,2.7,2.7,0,0,1,2.274-1.1,2.427,2.427,0,0,1,1.912.864V2.75h2.124V14h-1.912l-.1-.842a2.491,2.491,0,0,1-2.036.989,2.69,2.69,0,0,1-2.245-1.1A4.93,4.93,0,0,1,129.765,9.979Zm2.117.151a3.146,3.146,0,0,0,.388,1.714,1.263,1.263,0,0,0,1.128.6,1.416,1.416,0,0,0,1.384-.831V8.467a1.4,1.4,0,0,0-1.37-.831Q131.882,7.635,131.882,10.13Zm10.613,4.017a3.89,3.89,0,0,1-2.838-1.069,3.8,3.8,0,0,1-1.095-2.849v-.205a4.787,4.787,0,0,1,.461-2.135,3.386,3.386,0,0,1,1.307-1.45,3.669,3.669,0,0,1,1.93-.509,3.289,3.289,0,0,1,2.56,1.025,4.167,4.167,0,0,1,.934,2.908v.864h-5.046a1.966,1.966,0,0,0,.619,1.245,1.871,1.871,0,0,0,1.307.469,2.285,2.285,0,0,0,1.912-.886l1.04,1.165a3.178,3.178,0,0,1-1.289,1.051A4.229,4.229,0,0,1,142.494,14.146Zm-.242-6.511a1.323,1.323,0,0,0-1.022.427,2.209,2.209,0,0,0-.5,1.221h2.944V9.114a1.576,1.576,0,0,0-.381-1.092A1.365,1.365,0,0,0,142.253,7.635ZM6.482,31.2a1.128,1.128,0,0,0-.439-.956,5.764,5.764,0,0,0-1.582-.7,11.215,11.215,0,0,1-1.809-.729A2.956,2.956,0,0,1,.835,26.17a2.575,2.575,0,0,1,.487-1.542,3.177,3.177,0,0,1,1.4-1.058,5.265,5.265,0,0,1,2.047-.381A4.793,4.793,0,0,1,6.8,23.6a3.242,3.242,0,0,1,1.388,1.168,3.057,3.057,0,0,1,.494,1.714h-2.2a1.438,1.438,0,0,0-.461-1.139,1.9,1.9,0,0,0-1.3-.406,2.026,2.026,0,0,0-1.252.341,1.074,1.074,0,0,0-.447.9,1.029,1.029,0,0,0,.524.872,5.916,5.916,0,0,0,1.542.659,6.661,6.661,0,0,1,2.732,1.4,2.786,2.786,0,0,1,.857,2.08,2.566,2.566,0,0,1-1.047,2.172,4.585,4.585,0,0,1-2.82.787,5.445,5.445,0,0,1-2.241-.45,3.546,3.546,0,0,1-1.542-1.234,3.161,3.161,0,0,1-.531-1.816h2.2q0,1.765,2.109,1.765a2.052,2.052,0,0,0,1.223-.319A1.037,1.037,0,0,0,6.482,31.2ZM10,29.964a4.7,4.7,0,0,1,.454-2.1,3.324,3.324,0,0,1,1.307-1.428,3.814,3.814,0,0,1,1.981-.505,3.609,3.609,0,0,1,2.618.981A3.939,3.939,0,0,1,17.5,29.576l.015.542a4.142,4.142,0,0,1-1.018,2.926,3.539,3.539,0,0,1-2.732,1.1,3.556,3.556,0,0,1-2.736-1.1A4.215,4.215,0,0,1,10,30.06Zm2.117.15a2.962,2.962,0,0,0,.425,1.727,1.526,1.526,0,0,0,2.417.007,3.241,3.241,0,0,0,.432-1.889,2.933,2.933,0,0,0-.432-1.716,1.4,1.4,0,0,0-1.216-.609,1.382,1.382,0,0,0-1.2.605A3.3,3.3,0,0,0,12.121,30.115ZM19.694,34V27.628H18.515V26.075h1.179V25.4a2.736,2.736,0,0,1,.765-2.069A2.964,2.964,0,0,1,22.6,22.6a4.989,4.989,0,0,1,1.077.145l-.022,1.627a2.7,2.7,0,0,0-.645-.066q-1.194,0-1.194,1.13v.642h1.575v1.553H21.818V34Zm7.632-9.873v1.948h1.355v1.553H27.326v3.955a.944.944,0,0,0,.168.63.846.846,0,0,0,.645.19,3.376,3.376,0,0,0,.623-.051v1.6a4.358,4.358,0,0,1-1.282.19A2.021,2.021,0,0,1,25.209,31.9v-4.27H24.052V26.075h1.157V24.127Zm9.726,6.995,1.04-5.046h2.043L38.114,34H36.342l-1.5-4.988L33.339,34H31.574l-2.021-7.925H31.6l1.033,5.039,1.45-5.039h1.531ZM46.075,34a2.351,2.351,0,0,1-.212-.71,2.561,2.561,0,0,1-2,.857,2.814,2.814,0,0,1-1.93-.674,2.167,2.167,0,0,1-.765-1.7A2.24,2.24,0,0,1,42.1,29.84a4.608,4.608,0,0,1,2.7-.681h.974V28.7a1.306,1.306,0,0,0-.282-.879,1.109,1.109,0,0,0-.89-.33,1.261,1.261,0,0,0-.839.256.871.871,0,0,0-.3.7H41.344a2.126,2.126,0,0,1,.425-1.274,2.808,2.808,0,0,1,1.2-.919,4.378,4.378,0,0,1,1.743-.333,3.459,3.459,0,0,1,2.325.736,2.575,2.575,0,0,1,.861,2.069v3.435a3.789,3.789,0,0,0,.315,1.707V34Zm-1.75-1.472a1.823,1.823,0,0,0,.864-.209,1.371,1.371,0,0,0,.586-.56V30.4h-.791q-1.589,0-1.692,1.1l-.007.125a.847.847,0,0,0,.278.652A1.081,1.081,0,0,0,44.325,32.528Zm9.953-4.468A5.75,5.75,0,0,0,53.516,28a1.55,1.55,0,0,0-1.575.813V34H49.825V26.075h2l.059.945a1.961,1.961,0,0,1,1.765-1.091,2.218,2.218,0,0,1,.659.1ZM59.1,34.146a3.89,3.89,0,0,1-2.838-1.069,3.8,3.8,0,0,1-1.095-2.849v-.205a4.787,4.787,0,0,1,.461-2.135,3.386,3.386,0,0,1,1.307-1.45,3.669,3.669,0,0,1,1.93-.509,3.289,3.289,0,0,1,2.56,1.025,4.167,4.167,0,0,1,.934,2.908v.864H57.317a1.966,1.966,0,0,0,.619,1.245,1.871,1.871,0,0,0,1.307.469,2.285,2.285,0,0,0,1.912-.886l1.04,1.165a3.178,3.178,0,0,1-1.289,1.051A4.229,4.229,0,0,1,59.1,34.146Zm-.242-6.511a1.323,1.323,0,0,0-1.022.427,2.209,2.209,0,0,0-.5,1.221h2.944v-.169a1.576,1.576,0,0,0-.381-1.092A1.365,1.365,0,0,0,58.863,27.635Zm5.112,5.325a1.066,1.066,0,0,1,.341-.82,1.323,1.323,0,0,1,1.714,0,1.066,1.066,0,0,1,.341.82,1.051,1.051,0,0,1-.337.809,1.345,1.345,0,0,1-1.721,0A1.051,1.051,0,0,1,63.975,32.96Zm6.533-6.885.066.886a2.785,2.785,0,0,1,2.278-1.033,2.114,2.114,0,0,1,2.1,1.208,2.721,2.721,0,0,1,2.38-1.208,2.364,2.364,0,0,1,1.919.751,3.451,3.451,0,0,1,.63,2.26V34H77.759V28.935a1.515,1.515,0,0,0-.264-.987,1.167,1.167,0,0,0-.93-.312,1.321,1.321,0,0,0-1.318.91L75.254,34H73.137V28.942a1.5,1.5,0,0,0-.271-1,1.178,1.178,0,0,0-.923-.308,1.371,1.371,0,0,0-1.3.749V34H68.523V26.075Zm14.179,4.746-.762.762V34H81.809V22.75h2.117v6.233l.41-.527,2.029-2.38h2.542l-2.864,3.3L89.155,34H86.723Zm8.4.593,1.472-5.339h2.212L94.1,34H92.077L89.4,26.075h2.212Z" transform="translate(608.568 7381.459)" fill="#fff"/>
    <g id="Grupo_72061" data-name="Grupo 72061" transform="translate(-336 1275.546)">
      <rect id="Rectángulo_8069" data-name="Rectángulo 8069" width="85" height="65" transform="translate(1125 6070)" fill="none"/>
      <g id="Grupo_72060" data-name="Grupo 72060" transform="translate(1133.926 6071.045)">
        <g id="Grupo_72060-2" data-name="Grupo 72060" clip-path="url(#clip-path)">
          <path id="Trazado_160819" data-name="Trazado 160819" d="M63.943,83.721q0,15.951.009,31.9,0,6.927,0,13.853a3.229,3.229,0,0,1-3.27,3.29q-28.706,0-57.412,0A3.232,3.232,0,0,1,0,129.611Q0,106.8,0,83.987c0-.089,0-.178.008-.266.2.006.4.016.6.016H63.345c.2,0,.4-.01.6-.016M31.909,117.846H56.085c1.145,0,1.472-.323,1.472-1.453q0-13.453,0-26.907c0-1.176-.313-1.484-1.506-1.484H7.9c-1.194,0-1.5.306-1.5,1.485q0,13.42,0,26.84c0,1.221.3,1.52,1.539,1.52H31.909m6.134,6.4H55.956c.2,0,.4.011.6-.007a1.061,1.061,0,0,0-.032-2.12c-.2-.015-.4,0-.6,0q-17.979,0-35.959.015c-.639,0-.838-.141-.8-.793.058-.892-.374-1.374-1.075-1.359-.673.014-1.094.484-1.022,1.341.06.718-.216.817-.848.809-2.885-.033-5.771-.018-8.657-.012-.872,0-1.321.5-1.181,1.287.1.567.493.84,1.243.84q4.129.005,8.257,0c1.088,0,1.088,0,1.168,1.056a1.063,1.063,0,0,0,2.126.021,1.624,1.624,0,0,0,0-.4c-.095-.557.129-.693.682-.691,6.06.021,12.119.013,18.179.013" transform="translate(0 -68.814)" fill="#fff"/>
          <path id="Trazado_160820" data-name="Trazado 160820" d="M63.944,14.907c-.2.006-.4.016-.6.016H.607c-.2,0-.4-.01-.6-.016,0-3.884-.014-7.768,0-11.652A3.183,3.183,0,0,1,3.312,0q7.99-.01,15.98,0H60.307c2.4,0,3.646,1.252,3.645,3.654q0,5.626-.009,11.252M47.965,10.66q5.224,0,10.448,0c.876,0,1.267-.384,1.273-1.25q.015-1.93,0-3.86c-.005-.9-.388-1.282-1.308-1.282q-10.415,0-20.83,0c-.92,0-1.3.379-1.307,1.284-.007,1.242,0,2.484,0,3.727,0,1.036.356,1.382,1.409,1.382q5.157,0,10.315,0M10.658,7.477A3.254,3.254,0,0,0,7.509,4.265,3.249,3.249,0,0,0,4.264,7.447,3.255,3.255,0,0,0,7.413,10.66a3.25,3.25,0,0,0,3.245-3.183M24.5,10.66a3.254,3.254,0,0,0,3.21-3.152,3.2,3.2,0,0,0-6.395-.092A3.25,3.25,0,0,0,24.5,10.66M19.185,7.478a3.2,3.2,0,0,0-6.394-.039,3.2,3.2,0,1,0,6.394.039" transform="translate(0 0)" fill="#1c9873"/>
          <path id="Trazado_160821" data-name="Trazado 160821" d="M61.428,137.6H37.451c-1.237,0-1.538-.3-1.539-1.52q0-13.42,0-26.84c0-1.179.311-1.485,1.5-1.485H85.569c1.193,0,1.506.308,1.506,1.484q0,13.453,0,26.907c0,1.13-.327,1.453-1.472,1.453H61.428m-5.263-14.924c0,1.709.006,3.417,0,5.126a1.147,1.147,0,0,0,.552,1.127,1.131,1.131,0,0,0,1.247-.118c2.7-1.7,5.419-3.379,8.121-5.08,1.014-.638,1.007-1.478-.013-2.118-2.685-1.687-5.381-3.357-8.065-5.045a1.092,1.092,0,0,0-1.24-.118,1.213,1.213,0,0,0-.607,1.167c.022,1.686.008,3.373.008,5.06" transform="translate(-29.518 -88.57)" fill="#26cb99"/>
          <path id="Trazado_160822" data-name="Trazado 160822" d="M67.411,291.583c-6.06,0-12.119.008-18.179-.013-.553,0-.777.135-.682.691a1.625,1.625,0,0,1,0,.4,1.063,1.063,0,0,1-2.126-.021c-.081-1.056-.081-1.056-1.168-1.056q-4.128,0-8.257,0c-.75,0-1.141-.273-1.243-.84-.14-.782.308-1.286,1.181-1.287,2.886-.006,5.771-.021,8.657.012.632.007.908-.091.848-.809-.072-.857.349-1.327,1.022-1.341.7-.015,1.133.467,1.075,1.359-.042.651.157.794.8.793q17.979-.032,35.959-.016c.2,0,.4-.01.6,0a1.061,1.061,0,0,1,.032,2.12c-.2.018-.4.007-.6.007H67.411" transform="translate(-29.368 -236.156)" fill="#26cb99"/>
          <path id="Trazado_160823" data-name="Trazado 160823" d="M215.24,30.345q-5.158,0-10.315,0c-1.053,0-1.406-.346-1.409-1.382,0-1.242-.006-2.485,0-3.727,0-.905.387-1.284,1.308-1.284q10.415,0,20.83,0c.92,0,1.3.377,1.308,1.282q.011,1.93,0,3.86c-.007.865-.4,1.249-1.273,1.25q-5.224.007-10.448,0" transform="translate(-167.275 -19.685)" fill="#d1fff1"/>
          <path id="Trazado_160824" data-name="Trazado 160824" d="M30.339,27.165a3.2,3.2,0,1,1-3.149-3.212,3.25,3.25,0,0,1,3.149,3.212" transform="translate(-19.681 -19.688)" fill="#26cb99"/>
          <path id="Trazado_160825" data-name="Trazado 160825" d="M122.905,30.348a3.2,3.2,0,1,1,3.21-3.152,3.25,3.25,0,0,1-3.21,3.152" transform="translate(-98.403 -19.688)" fill="#26cb99"/>
          <path id="Trazado_160826" data-name="Trazado 160826" d="M78.228,27.166a3.2,3.2,0,1,1-3.145-3.213,3.258,3.258,0,0,1,3.145,3.213" transform="translate(-59.043 -19.688)" fill="#26cb99"/>
          <path id="Trazado_160827" data-name="Trazado 160827" d="M149.61,162.138c0-1.687.014-3.373-.008-5.06a1.213,1.213,0,0,1,.607-1.167,1.092,1.092,0,0,1,1.24.118c2.684,1.688,5.38,3.358,8.065,5.045,1.02.641,1.027,1.48.013,2.118-2.7,1.7-5.417,3.382-8.121,5.08a1.131,1.131,0,0,1-1.247.118,1.148,1.148,0,0,1-.552-1.127c.01-1.709,0-3.417,0-5.126" transform="translate(-122.964 -128.03)" fill="#fff"/>
        </g>
      </g>
    </g>
  </g>
</svg>
