<svg id="Grupo_72123" data-name="Grupo 72123" xmlns="http://www.w3.org/2000/svg" xmlns:xlink="http://www.w3.org/1999/xlink" width="381.998" height="244.2" viewBox="0 0 381.998 244.2">
  <defs>
    <clipPath id="clip-path">
      <rect id="Rectángulo_9217" data-name="Rectángulo 9217" width="381.998" height="244.2" fill="none"/>
    </clipPath>
    <clipPath id="clip-path-3">
      <rect id="Rectángulo_9108" data-name="Rectángulo 9108" width="182.698" height="48.737" transform="translate(113.013 179.795)" fill="none"/>
    </clipPath>
    <clipPath id="clip-path-5">
      <rect id="Rectángulo_9110" data-name="Rectángulo 9110" width="126.91" height="67.473" transform="translate(92.528 160.919)" fill="none"/>
    </clipPath>
    <clipPath id="clip-path-6">
      <rect id="Rectángulo_9111" data-name="Rectángulo 9111" width="60.372" height="10.58" transform="translate(12.219 194.608)" fill="none"/>
    </clipPath>
    <clipPath id="clip-path-7">
      <rect id="Rectángulo_9112" data-name="Rectángulo 9112" width="13.242" height="14.078" transform="translate(59.825 194.643)" fill="none"/>
    </clipPath>
    <clipPath id="clip-path-8">
      <rect id="Rectángulo_9114" data-name="Rectángulo 9114" width="57.102" height="1.275" transform="translate(15.385 200.65)" fill="none"/>
    </clipPath>
    <clipPath id="clip-path-9">
      <rect id="Rectángulo_9116" data-name="Rectángulo 9116" width="57.102" height="1.275" transform="translate(15.385 197.778)" fill="none"/>
    </clipPath>
    <clipPath id="clip-path-10">
      <rect id="Rectángulo_9118" data-name="Rectángulo 9118" width="57.102" height="1.275" transform="translate(15.385 204.302)" fill="none"/>
    </clipPath>
    <clipPath id="clip-path-11">
      <rect id="Rectángulo_9119" data-name="Rectángulo 9119" width="60.372" height="10.58" transform="translate(18.877 212.202)" fill="none"/>
    </clipPath>
    <clipPath id="clip-path-12">
      <rect id="Rectángulo_9120" data-name="Rectángulo 9120" width="13.242" height="14.078" transform="translate(66.483 212.237)" fill="none"/>
    </clipPath>
    <clipPath id="clip-path-13">
      <rect id="Rectángulo_9122" data-name="Rectángulo 9122" width="57.102" height="1.275" transform="translate(22.043 218.243)" fill="none"/>
    </clipPath>
    <clipPath id="clip-path-14">
      <rect id="Rectángulo_9124" data-name="Rectángulo 9124" width="57.102" height="1.275" transform="translate(22.043 215.372)" fill="none"/>
    </clipPath>
    <clipPath id="clip-path-15">
      <rect id="Rectángulo_9126" data-name="Rectángulo 9126" width="57.102" height="1.275" transform="translate(22.043 221.896)" fill="none"/>
    </clipPath>
    <clipPath id="clip-path-16">
      <rect id="Rectángulo_9127" data-name="Rectángulo 9127" width="379.758" height="15.573" transform="translate(2.24 228.627)" fill="none"/>
    </clipPath>
    <clipPath id="clip-path-21">
      <rect id="Rectángulo_9213" data-name="Rectángulo 9213" width="9.36" height="16.231" transform="translate(320.2 189.987)" fill="none"/>
    </clipPath>
    <clipPath id="clip-path-22">
      <rect id="Rectángulo_9214" data-name="Rectángulo 9214" width="21.75" height="23.335" transform="translate(334.451 182.093)" fill="none"/>
    </clipPath>
    <clipPath id="clip-path-23">
      <rect id="Rectángulo_9215" data-name="Rectángulo 9215" width="16.272" height="37.9" transform="translate(325.57 168.154)" fill="none"/>
    </clipPath>
  </defs>
  <g id="Grupo_72122" data-name="Grupo 72122" clip-path="url(#clip-path)">
    <text id="_" data-name="&lt;/&gt;" transform="translate(155.343 140.626)" fill="#48cf9c" font-size="14.215" font-family="Montserrat-Black, Montserrat" font-weight="800"><tspan x="0" y="0">&lt;/&gt;</tspan></text>
    <g id="Grupo_72066" data-name="Grupo 72066">
      <g id="Grupo_72065" data-name="Grupo 72065" clip-path="url(#clip-path)">
        <path id="Trazado_160828" data-name="Trazado 160828" d="M241.3,88.056c-.833,18.252-18.776,32.239-32.215,33.083-17.757,1.116-30.447-14.9-32.215-33.083-1.532-15.755,4.063-15.52,8.23-22.087,5.049-7.957,14.458-12.353,23.985-12.353,17.792,0,33.336,9.883,32.215,34.44" fill="#8b6239"/>
        <rect id="Rectángulo_9107" data-name="Rectángulo 9107" width="24.97" height="31.26" transform="translate(196.601 119.435)" fill="#f2b5aa"/>
        <path id="Trazado_160829" data-name="Trazado 160829" d="M237.134,101.2c4.454-6.759,10.121-7.055,12.487.938s-5.443,14.572-11.8,12.145-.684-13.083-.684-13.083" fill="#f2b5aa"/>
        <path id="Trazado_160830" data-name="Trazado 160830" d="M242.392,101.378c2.984-.546,4.512,8.343-2.03,8.636l1.345-3.1-1.263-2.58Z" fill="#ec8f98"/>
        <path id="Trazado_160831" data-name="Trazado 160831" d="M239.383,111.234c3.814-4.065,1.061-6.9,1.061-6.9s3.63-7.445,5.085-1.739" fill="none" stroke="#de7f84" stroke-miterlimit="10" stroke-width="0.5"/>
        <path id="Trazado_160832" data-name="Trazado 160832" d="M180.83,101.2c-4.454-6.759-10.121-7.055-12.487.938s5.443,14.572,11.8,12.145.684-13.083.684-13.083" fill="#f2b5aa"/>
        <path id="Trazado_160833" data-name="Trazado 160833" d="M175.572,101.378c-2.983-.546-4.512,8.343,2.03,8.636l-1.345-3.1,1.263-2.58Z" fill="#ec8f98"/>
        <path id="Trazado_160834" data-name="Trazado 160834" d="M178.581,111.234c-3.814-4.065-1.061-6.9-1.061-6.9s-3.631-7.445-5.085-1.739" fill="none" stroke="#de7f84" stroke-miterlimit="10" stroke-width="0.5"/>
        <path id="Trazado_160835" data-name="Trazado 160835" d="M221.571,120.126v11.629c-8.973,12.159-24.97,8.206-24.97,8.206l.28-19.835Z" fill="#de7f84"/>
        <path id="Trazado_160836" data-name="Trazado 160836" d="M209.086,133.451h0A26.989,26.989,0,0,1,182.1,106.462V86.739A18.229,18.229,0,0,1,200.326,68.51h17.52a18.229,18.229,0,0,1,18.229,18.229v19.723a26.989,26.989,0,0,1-26.989,26.989" fill="#f2b5aa"/>
        <path id="Trazado_160837" data-name="Trazado 160837" d="M184.949,69.717s-4.728-7.836,1.193-14.745c0,0,4.253,7.877-1.193,14.745" fill="#8b6239"/>
        <path id="Trazado_160838" data-name="Trazado 160838" d="M187.35,67.857s-6.583,6.357-14.639,2.128c0,0,6.728-5.9,14.639-2.128" fill="#8b6239"/>
        <path id="Trazado_160839" data-name="Trazado 160839" d="M185.442,76.213s17.146-9.039,28.539-2.488S226.656,93.806,237.907,90.3c0,0,8.544-3.761-.855-16.863s-15.83-15.666-28.066-12.818-20.2,5.064-23.544,15.59" fill="#8b6239"/>
        <path id="Trazado_160840" data-name="Trazado 160840" d="M184.786,76.083s5.66-7.5,13.582-9.488,16.686,7.761,16.686,7.761-20.3-2.894-30.268,1.727" fill="#754c24"/>
        <path id="Trazado_160841" data-name="Trazado 160841" d="M182.139,85.522s1.909,13.928,0,22.427c0,0-2.791-21.6,0-22.427" fill="#754c24"/>
        <path id="Trazado_160842" data-name="Trazado 160842" d="M235.88,85.522s-1.909,13.928,0,22.427c0,0,2.79-21.6,0-22.427" fill="#754c24"/>
        <path id="Trazado_160843" data-name="Trazado 160843" d="M295.711,228.342l-182.7.19s3.409-7.13,8.315-16.579c.363-.7.738-1.414,1.118-2.14,6.7-12.779,15.713-28.923,22.748-37.679,8.1-10.08,27.246-17.266,40.248-21.194,7.577-2.286,13.065-3.465,13.065-3.465h20.987s4.929,1.056,11.891,3.118c12.992,3.839,32.415,11.718,41.423,21.541a48.119,48.119,0,0,1,5.582,7.661c11.086,18.423,17.322,48.547,17.322,48.547" fill="#26cb99"/>
        <g id="Grupo_72064" data-name="Grupo 72064" opacity="0.5">
          <g id="Grupo_72063" data-name="Grupo 72063">
            <g id="Grupo_72062" data-name="Grupo 72062" clip-path="url(#clip-path-3)">
              <path id="Trazado_160844" data-name="Trazado 160844" d="M295.711,228.342l-182.7.19s3.409-7.13,8.315-16.579c91.171,26.8,139.216-17.12,150.18-29.009a9.686,9.686,0,0,1,6.838-3.148h.044c11.086,18.423,17.322,48.547,17.322,48.547" fill="#8bebce"/>
            </g>
          </g>
        </g>
        <path id="Trazado_160845" data-name="Trazado 160845" d="M231.384,150.59c-22.615,24.884-45.942.352-45.942.352,7.577-2.289,13.066-3.469,13.066-3.469h20.987s4.928,1.06,11.889,3.117" fill="#f2b5aa"/>
        <line id="Línea_146" data-name="Línea 146" y2="28.377" transform="translate(159.152 200.189)" fill="none" stroke="#f58300" stroke-miterlimit="10" stroke-width="3"/>
        <line id="Línea_147" data-name="Línea 147" x1="7.619" y1="9.715" transform="translate(151.533 208.56)" fill="none" stroke="#f58300" stroke-miterlimit="10" stroke-width="3"/>
        <line id="Línea_148" data-name="Línea 148" y2="28.377" transform="translate(258.504 200.189)" fill="none" stroke="#1c9873" stroke-miterlimit="10" stroke-width="3"/>
        <line id="Línea_149" data-name="Línea 149" y1="8.626" x2="6.765" transform="translate(258.504 209.649)" fill="none" stroke="#1c9873" stroke-miterlimit="10" stroke-width="3"/>
        <path id="Trazado_160846" data-name="Trazado 160846" d="M184.359,161.741s28.042,19.15,47.025-.93" fill="none" stroke="#1c9873" stroke-miterlimit="10" stroke-width="3"/>
      </g>
    </g>
    <text id="x" transform="translate(233.288 201.121)" fill="#fff" font-size="24.802" font-family="Montserrat-Bold, Montserrat" font-weight="700"><tspan x="0" y="0">x</tspan></text>
    <g id="Grupo_72104" data-name="Grupo 72104">
      <g id="Grupo_72103" data-name="Grupo 72103" clip-path="url(#clip-path)">
        <path id="Trazado_160847" data-name="Trazado 160847" d="M184.792,64.477c6.3-26.463,69.375-23.551,57.637,27.972-3.516,15.434-29.224-35.083-51.412-22.69a4.362,4.362,0,0,1-5.112-.612,4.721,4.721,0,0,1-1.113-4.67" fill="#8b6239"/>
        <path id="Trazado_160848" data-name="Trazado 160848" d="M219.438,228.359a.189.189,0,0,1-.061.011,4.18,4.18,0,0,1-.464.023H96.546a5.149,5.149,0,0,1-5.141-5.147l-.017-.056L72.334,169.352a6.32,6.32,0,0,1,5.956-8.432h79.448a6.321,6.321,0,0,1,5.962,4.213l20.535,58.013.033.1H219.03c3.191,0,3.543,4.772.408,5.113" fill="#69acbe"/>
        <path id="Trazado_160849" data-name="Trazado 160849" d="M128.181,193.421c2.009,5.842-.263,11.919-5.074,13.573s-10.34-1.739-12.349-7.581.262-11.919,5.074-13.574,10.34,1.74,12.349,7.582" fill="#fff"/>
        <path id="Trazado_160850" data-name="Trazado 160850" d="M219.031,223.245H184.267s-.01-.035-.03-.1L163.7,165.131a6.32,6.32,0,0,0-5.961-4.21h-2.656s5.936.387,7.42,5.7,21.765,61.66,21.765,61.66l1.5.111H218.91c.161,0,.317-.005.468-.02,3.2-.292,2.862-5.126-.347-5.126" fill="#2f7297"/>
        <g id="Grupo_72069" data-name="Grupo 72069" opacity="0.4">
          <g id="Grupo_72068" data-name="Grupo 72068">
            <g id="Grupo_72067" data-name="Grupo 72067" clip-path="url(#clip-path-5)">
              <path id="Trazado_160851" data-name="Trazado 160851" d="M219.438,228.359a.189.189,0,0,1-.061.011,4.18,4.18,0,0,1-.464.023H96.546a5.123,5.123,0,0,1-4.018-1.939c72.328,6.213,65.21-65.534,65.21-65.534a6.321,6.321,0,0,1,5.962,4.213l20.535,58.013.033.1h34.214c.369,1.693.693,3.4.956,5.113" fill="#2a93a1"/>
            </g>
          </g>
        </g>
        <path id="Trazado_160852" data-name="Trazado 160852" d="M73.933,192.851v1.8c-3.255.372-4.052,3.125-4.052,6.476v1.108c0,3.351.8,6.1,4.052,6.476v1.793H11.691a4.624,4.624,0,0,1-4.624-4.624v-8.4a4.631,4.631,0,0,1,4.624-4.632Z" fill="#9debd1"/>
        <path id="Trazado_160853" data-name="Trazado 160853" d="M72.963,206.868a1.345,1.345,0,0,1-1.264,1.844l-59.48.043V194.608l59.48.044a1.338,1.338,0,0,1,.892.337,1.305,1.305,0,0,1,.372,1.507,12.967,12.967,0,0,0-.476,4.632v1.108a12.967,12.967,0,0,0,.476,4.632" fill="#fff"/>
        <g id="Grupo_72072" data-name="Grupo 72072" opacity="0.4">
          <g id="Grupo_72071" data-name="Grupo 72071">
            <g id="Grupo_72070" data-name="Grupo 72070" clip-path="url(#clip-path-6)">
              <path id="Trazado_160854" data-name="Trazado 160854" d="M72.591,194.989c-1.143.061-53.706,2.779-57.307,7.887a5.093,5.093,0,0,1-3.065,2.312v-10.58l59.48.043a1.336,1.336,0,0,1,.892.338" fill="#89d5e6"/>
            </g>
          </g>
        </g>
        <path id="Trazado_160855" data-name="Trazado 160855" d="M15.284,210.508H12.412a5.343,5.343,0,0,1-5.344-5.344V198.2a5.343,5.343,0,0,1,5.344-5.344h2.872Z" fill="#9debd1"/>
        <g id="Grupo_72075" data-name="Grupo 72075" opacity="0.4">
          <g id="Grupo_72074" data-name="Grupo 72074">
            <g id="Grupo_72073" data-name="Grupo 72073" clip-path="url(#clip-path-7)">
              <path id="Trazado_160856" data-name="Trazado 160856" d="M72.963,206.868a1.345,1.345,0,0,1-1.264,1.844l-11.874.009c9.433-1.073,8.843-8.823,8.843-8.823.1-.372-7.454-4.917-7.324-5.255l10.355.009a1.338,1.338,0,0,1,.892.337,1.305,1.305,0,0,1,.372,1.507,12.967,12.967,0,0,0-.476,4.632v1.108a12.967,12.967,0,0,0,.476,4.632" fill="#89d5e6"/>
            </g>
          </g>
        </g>
        <g id="Grupo_72078" data-name="Grupo 72078" opacity="0.4">
          <g id="Grupo_72077" data-name="Grupo 72077">
            <g id="Grupo_72076" data-name="Grupo 72076" clip-path="url(#clip-path-8)">
              <rect id="Rectángulo_9113" data-name="Rectángulo 9113" width="57.102" height="1.275" transform="translate(15.385 200.65)" fill="#89d5e6"/>
            </g>
          </g>
        </g>
        <g id="Grupo_72081" data-name="Grupo 72081" opacity="0.4">
          <g id="Grupo_72080" data-name="Grupo 72080">
            <g id="Grupo_72079" data-name="Grupo 72079" clip-path="url(#clip-path-9)">
              <rect id="Rectángulo_9115" data-name="Rectángulo 9115" width="57.102" height="1.275" transform="translate(15.385 197.778)" fill="#89d5e6"/>
            </g>
          </g>
        </g>
        <g id="Grupo_72084" data-name="Grupo 72084" opacity="0.4">
          <g id="Grupo_72083" data-name="Grupo 72083">
            <g id="Grupo_72082" data-name="Grupo 72082" clip-path="url(#clip-path-10)">
              <rect id="Rectángulo_9117" data-name="Rectángulo 9117" width="57.102" height="1.275" transform="translate(15.385 204.303)" fill="#89d5e6"/>
            </g>
          </g>
        </g>
        <path id="Trazado_160857" data-name="Trazado 160857" d="M54.094,206.114l-3.036-3.028-3.036,3.028v-8.336h6.072Z" fill="#75d8ba"/>
        <path id="Trazado_160858" data-name="Trazado 160858" d="M80.591,210.445v1.8c-3.255.372-4.052,3.125-4.052,6.476v1.108c0,3.351.8,6.1,4.052,6.476V228.1H18.349a4.624,4.624,0,0,1-4.624-4.624v-8.4a4.631,4.631,0,0,1,4.624-4.632Z" fill="#69d8b3"/>
        <path id="Trazado_160859" data-name="Trazado 160859" d="M79.621,224.462a1.345,1.345,0,0,1-1.264,1.844l-59.481.043V212.2l59.481.044a1.338,1.338,0,0,1,.892.337,1.305,1.305,0,0,1,.372,1.507,12.967,12.967,0,0,0-.476,4.632v1.108a12.97,12.97,0,0,0,.476,4.632" fill="#fff"/>
        <g id="Grupo_72087" data-name="Grupo 72087" opacity="0.4">
          <g id="Grupo_72086" data-name="Grupo 72086">
            <g id="Grupo_72085" data-name="Grupo 72085" clip-path="url(#clip-path-11)">
              <path id="Trazado_160860" data-name="Trazado 160860" d="M79.249,212.583c-1.143.061-53.706,2.779-57.307,7.887a5.093,5.093,0,0,1-3.065,2.312V212.2l59.48.043a1.336,1.336,0,0,1,.892.338" fill="#89d5e6"/>
            </g>
          </g>
        </g>
        <path id="Trazado_160861" data-name="Trazado 160861" d="M21.941,228.1H19.069a5.343,5.343,0,0,1-5.344-5.344v-6.966a5.343,5.343,0,0,1,5.344-5.343h2.872Z" fill="#69d8b3"/>
        <g id="Grupo_72090" data-name="Grupo 72090" opacity="0.4">
          <g id="Grupo_72089" data-name="Grupo 72089">
            <g id="Grupo_72088" data-name="Grupo 72088" clip-path="url(#clip-path-12)">
              <path id="Trazado_160862" data-name="Trazado 160862" d="M79.621,224.462a1.345,1.345,0,0,1-1.264,1.844l-11.874.009c9.433-1.073,8.843-8.823,8.843-8.823.1-.372-7.454-4.917-7.324-5.255l10.355.009a1.338,1.338,0,0,1,.892.337,1.305,1.305,0,0,1,.372,1.507,12.967,12.967,0,0,0-.476,4.632v1.108a12.967,12.967,0,0,0,.476,4.632" fill="#89d5e6"/>
            </g>
          </g>
        </g>
        <g id="Grupo_72093" data-name="Grupo 72093" opacity="0.4">
          <g id="Grupo_72092" data-name="Grupo 72092">
            <g id="Grupo_72091" data-name="Grupo 72091" clip-path="url(#clip-path-13)">
              <rect id="Rectángulo_9121" data-name="Rectángulo 9121" width="57.102" height="1.275" transform="translate(22.043 218.243)" fill="#89d5e6"/>
            </g>
          </g>
        </g>
        <g id="Grupo_72096" data-name="Grupo 72096" opacity="0.4">
          <g id="Grupo_72095" data-name="Grupo 72095">
            <g id="Grupo_72094" data-name="Grupo 72094" clip-path="url(#clip-path-14)">
              <rect id="Rectángulo_9123" data-name="Rectángulo 9123" width="57.102" height="1.275" transform="translate(22.043 215.372)" fill="#89d5e6"/>
            </g>
          </g>
        </g>
        <g id="Grupo_72099" data-name="Grupo 72099" opacity="0.4">
          <g id="Grupo_72098" data-name="Grupo 72098">
            <g id="Grupo_72097" data-name="Grupo 72097" clip-path="url(#clip-path-15)">
              <rect id="Rectángulo_9125" data-name="Rectángulo 9125" width="57.102" height="1.275" transform="translate(22.043 221.896)" fill="#89d5e6"/>
            </g>
          </g>
        </g>
        <path id="Trazado_160863" data-name="Trazado 160863" d="M72.9,224.817l-3.208-3.2-3.208,3.2v-8.808H72.9Z" fill="#7b65d8"/>
        <path id="Trazado_160864" data-name="Trazado 160864" d="M382,235.768v1.291a7.145,7.145,0,0,1-7.147,7.141H9.387a7.151,7.151,0,0,1-6.918-5.336.022.022,0,0,0-.005-.017,7.263,7.263,0,0,1-.224-1.788v-1.291a7.141,7.141,0,0,1,7.147-7.141H374.851A7.145,7.145,0,0,1,382,235.768" fill="#13a87b"/>
        <g id="Grupo_72102" data-name="Grupo 72102" opacity="0.5">
          <g id="Grupo_72101" data-name="Grupo 72101">
            <g id="Grupo_72100" data-name="Grupo 72100" clip-path="url(#clip-path-16)">
              <path id="Trazado_160865" data-name="Trazado 160865" d="M382,235.768v1.291a7.145,7.145,0,0,1-7.147,7.141H9.387a7.151,7.151,0,0,1-6.918-5.336.022.022,0,0,0-.005-.017c-.151-1.146-.224-1.788-.224-1.788,204.935,7.141,372.611-8.432,372.611-8.432A7.145,7.145,0,0,1,382,235.768" fill="#8bebce"/>
            </g>
          </g>
        </g>
        <path id="Trazado_160866" data-name="Trazado 160866" d="M372.884,39.968c0-.046.006-.087.006-.134s-.006-.087-.006-.128a15.707,15.707,0,0,0,2.006-1.093,16.371,16.371,0,0,0,2.1-1.7l-.145-.57a14.881,14.881,0,0,0-.616-1.89c-.128-.3-.28-.6-.425-.9a6.045,6.045,0,0,0-.477-.873l-.3-.5a15.507,15.507,0,0,0-2.681.279,14.347,14.347,0,0,0-2.187.646l-.186-.186a14.387,14.387,0,0,0,.64-2.187,14.83,14.83,0,0,0,.285-2.68l-.5-.3a6.416,6.416,0,0,0-.872-.477c-.3-.145-.594-.3-.9-.424a14.55,14.55,0,0,0-1.884-.617l-.57-.145a16.2,16.2,0,0,0-1.7,2.1,15.058,15.058,0,0,0-1.093,2.007c-.041,0-.087-.012-.128-.012s-.087.012-.134.012a14.406,14.406,0,0,0-1.093-2.007,16.143,16.143,0,0,0-1.692-2.1l-.57.145a14.337,14.337,0,0,0-1.89.617c-.3.128-.6.279-.9.424a6.8,6.8,0,0,0-.872.477l-.5.3a16,16,0,0,0,.285,2.68,14.515,14.515,0,0,0,.645,2.187c-.063.064-.128.122-.185.186a14.552,14.552,0,0,0-2.187-.646,15.57,15.57,0,0,0-2.681-.279l-.308.5a7.334,7.334,0,0,0-.477.873c-.14.3-.291.593-.419.9a13.845,13.845,0,0,0-.616,1.89l-.145.57a15.967,15.967,0,0,0,2.1,1.7,15.314,15.314,0,0,0,2,1.093c0,.041,0,.082,0,.128s0,.088,0,.134a14.752,14.752,0,0,0-2,1.094,15.911,15.911,0,0,0-2.1,1.692l.145.57a13.846,13.846,0,0,0,.616,1.89c.128.3.279.6.419.9a7.65,7.65,0,0,0,.477.866l.308.5a15.47,15.47,0,0,0,2.681-.28,14.434,14.434,0,0,0,2.187-.645c.057.064.122.128.185.186a14.515,14.515,0,0,0-.645,2.187,16.063,16.063,0,0,0-.285,2.68l.5.309a7.574,7.574,0,0,0,.872.471c.3.145.6.3.9.424a13.5,13.5,0,0,0,1.89.617l.57.145a16.143,16.143,0,0,0,1.692-2.1,14.406,14.406,0,0,0,1.093-2.007,1.01,1.01,0,0,0,.134.012.924.924,0,0,0,.128-.012,15.058,15.058,0,0,0,1.093,2.007,16.2,16.2,0,0,0,1.7,2.1l.57-.145a13.686,13.686,0,0,0,1.884-.617c.308-.128.605-.279.9-.424a7.106,7.106,0,0,0,.872-.471l.5-.309a14.888,14.888,0,0,0-.285-2.68,14.387,14.387,0,0,0-.64-2.187c.064-.058.123-.122.186-.186a14.233,14.233,0,0,0,2.187.645,15.408,15.408,0,0,0,2.681.28l.3-.5a6.244,6.244,0,0,0,.477-.866c.145-.3.3-.6.425-.9a14.881,14.881,0,0,0,.616-1.89l.145-.57a16.312,16.312,0,0,0-2.1-1.692,15.118,15.118,0,0,0-2.006-1.094m-9.636,4.478a4.611,4.611,0,1,1,4.611-4.612,4.612,4.612,0,0,1-4.611,4.612" fill="#8bebce"/>
        <path id="Trazado_160867" data-name="Trazado 160867" d="M350.029,46.952H318.912V77.6h8.64" fill="none" stroke="#56dcbc" stroke-miterlimit="10" stroke-width="1" stroke-dasharray="4 4"/>
        <rect id="Rectángulo_9128" data-name="Rectángulo 9128" width="17.107" height="3.057" transform="translate(328.293 93.999)" fill="#8bebce"/>
        <rect id="Rectángulo_9129" data-name="Rectángulo 9129" width="26.3" height="3.057" transform="translate(328.293 99.656)" fill="#8bebce"/>
        <rect id="Rectángulo_9130" data-name="Rectángulo 9130" width="8.958" height="3.057" transform="translate(328.293 105.312)" fill="#8bebce"/>
        <rect id="Rectángulo_9131" data-name="Rectángulo 9131" width="8.958" height="3.057" transform="translate(340.906 105.312)" fill="#8bebce"/>
        <rect id="Rectángulo_9132" data-name="Rectángulo 9132" width="12.863" height="3.057" transform="translate(353.07 105.312)" fill="#8bebce"/>
        <rect id="Rectángulo_9133" data-name="Rectángulo 9133" width="7.811" height="3.057" transform="translate(358.122 99.656)" fill="#8bebce"/>
        <rect id="Rectángulo_9134" data-name="Rectángulo 9134" width="17.107" height="3.057" transform="translate(348.826 93.999)" fill="#8bebce"/>
        <rect id="Rectángulo_9135" data-name="Rectángulo 9135" width="0.571" height="34.076" transform="translate(371.629 74.2)" fill="#6fffeb"/>
        <rect id="Rectángulo_9136" data-name="Rectángulo 9136" width="17.591" height="3.144" transform="translate(328.559 75.451)" fill="#8bebce"/>
        <rect id="Rectángulo_9137" data-name="Rectángulo 9137" width="27.045" height="3.144" transform="translate(328.558 81.268)" fill="#8bebce"/>
        <rect id="Rectángulo_9138" data-name="Rectángulo 9138" width="9.211" height="3.144" transform="translate(328.559 87.084)" fill="#8bebce"/>
        <rect id="Rectángulo_9139" data-name="Rectángulo 9139" width="9.211" height="3.144" transform="translate(341.53 87.084)" fill="#8bebce"/>
        <rect id="Rectángulo_9140" data-name="Rectángulo 9140" width="13.228" height="3.144" transform="translate(354.036 87.084)" fill="#8bebce"/>
        <rect id="Rectángulo_9141" data-name="Rectángulo 9141" width="8.033" height="3.144" transform="translate(359.231 81.268)" fill="#8bebce"/>
        <rect id="Rectángulo_9142" data-name="Rectángulo 9142" width="17.591" height="3.144" transform="translate(349.673 75.451)" fill="#8bebce"/>
        <rect id="Rectángulo_9143" data-name="Rectángulo 9143" width="50.62" height="99.474" transform="translate(255.861 16.858)" fill="#26cb99"/>
        <rect id="Rectángulo_9144" data-name="Rectángulo 9144" width="38.006" height="4.037" transform="translate(261.627 38.013)" fill="#fff"/>
        <rect id="Rectángulo_9145" data-name="Rectángulo 9145" width="25.154" height="4.037" transform="translate(261.628 46.952)" fill="#fff"/>
        <rect id="Rectángulo_9146" data-name="Rectángulo 9146" width="9.116" height="4.037" transform="translate(290.517 46.952)" fill="#9fffdd"/>
        <rect id="Rectángulo_9147" data-name="Rectángulo 9147" width="23.552" height="4.037" transform="translate(276.081 55.89)" fill="#9fffdd"/>
        <rect id="Rectángulo_9148" data-name="Rectángulo 9148" width="11.03" height="4.037" transform="translate(261.628 55.89)" fill="#fff"/>
        <rect id="Rectángulo_9149" data-name="Rectángulo 9149" width="20.089" height="4.037" transform="translate(261.628 64.828)" fill="#fff"/>
        <rect id="Rectángulo_9150" data-name="Rectángulo 9150" width="14.822" height="4.037" transform="translate(284.811 64.828)" fill="#9fffdd"/>
        <rect id="Rectángulo_9151" data-name="Rectángulo 9151" width="26.976" height="4.037" transform="translate(272.657 73.767)" fill="#9fffdd"/>
        <rect id="Rectángulo_9152" data-name="Rectángulo 9152" width="8.154" height="4.037" transform="translate(261.628 73.767)" fill="#fff"/>
        <rect id="Rectángulo_9153" data-name="Rectángulo 9153" width="16.309" height="4.037" transform="translate(261.627 82.705)" fill="#fff"/>
        <rect id="Rectángulo_9154" data-name="Rectángulo 9154" width="19.003" height="4.037" transform="translate(280.63 82.705)" fill="#9fffdd"/>
        <path id="Trazado_160868" data-name="Trazado 160868" d="M298.511,106.527v1.136l-4.16,1.582v-1.093l2.91-1.057-2.91-1.066v-1.084Z" fill="#8effbd"/>
        <path id="Trazado_160869" data-name="Trazado 160869" d="M286.684,104.945v1.084l-2.91,1.066,2.91,1.057v1.093l-4.16-1.582v-1.136Z" fill="#8effbd"/>
        <path id="Trazado_160870" data-name="Trazado 160870" d="M291.6,101.882h1.3l-3.089,8.819h-1.3Z" fill="#8effbd"/>
        <path id="Trazado_160871" data-name="Trazado 160871" d="M279.41,28.9v1.489l-5.452,2.073V31.026l3.814-1.386-3.814-1.4v-1.42Z" fill="#8effbd"/>
        <path id="Trazado_160872" data-name="Trazado 160872" d="M269.386,26.823v1.42l-3.814,1.4,3.814,1.386v1.432l-5.452-2.073V28.9Z" fill="#8effbd"/>
        <text id="HTML" transform="translate(256.189 8.753)" fill="#26cb99" font-size="10.297" font-family="Montserrat-Black, Montserrat" font-weight="800"><tspan x="0" y="0">HTML</tspan></text>
        <path id="Trazado_160873" data-name="Trazado 160873" d="M21.622,118.765a12.659,12.659,0,0,0-3.58-2.469.794.794,0,0,0-.072-.034A12.768,12.768,0,0,0,12,115.138a12.588,12.588,0,0,0-4.211.971c-.086.036-.172.073-.257.111a12.717,12.717,0,1,0,16.787,6.431,12.611,12.611,0,0,0-2.7-3.886M16.3,135.883A8.814,8.814,0,0,1,5.026,123.515c.008-.016.018-.035.029-.054a8.766,8.766,0,0,1,4.064-3.686,8.512,8.512,0,0,1,1.014-.378l.108-.034a8.775,8.775,0,0,1,5.257.105.065.065,0,0,1,.02,0,8.85,8.85,0,0,1,3.754,2.464,8.8,8.8,0,0,1,2.037,3.934A8.831,8.831,0,0,1,16.3,135.883" fill="#20d1b9"/>
        <path id="Trazado_160874" data-name="Trazado 160874" d="M18.043,116.3a12.7,12.7,0,0,1,6.874,7.978l-3.607,1.6a8.8,8.8,0,0,0-5.791-6.4l-.02,0,2.472-3.206" fill="#56dcbc"/>
        <line id="Línea_150" data-name="Línea 150" x1="2.524" y2="3.177" transform="translate(15.519 116.296)" fill="#ffa14d"/>
        <path id="Trazado_160875" data-name="Trazado 160875" d="M15.519,119.473l-.02,0a8.775,8.775,0,0,0-5.257-.105l-.108.034L7.79,116.109A12.575,12.575,0,0,1,12,115.138a12.771,12.771,0,0,1,5.969,1.124" fill="#bceaff"/>
        <line id="Línea_151" data-name="Línea 151" y2="2" transform="translate(13.725 140.54)" fill="none" stroke="#56dcbc" stroke-miterlimit="10" stroke-width="1"/>
        <line id="Línea_152" data-name="Línea 152" y2="12.238" transform="translate(13.725 146.037)" fill="none" stroke="#56dcbc" stroke-miterlimit="10" stroke-width="1" stroke-dasharray="3.497 3.497"/>
        <path id="Trazado_160876" data-name="Trazado 160876" d="M13.725,160.023v2h2" fill="none" stroke="#56dcbc" stroke-miterlimit="10" stroke-width="1"/>
        <line id="Línea_153" data-name="Línea 153" x2="27.276" transform="translate(19.362 162.023)" fill="none" stroke="#56dcbc" stroke-miterlimit="10" stroke-width="1" stroke-dasharray="3.637 3.637"/>
        <path id="Trazado_160877" data-name="Trazado 160877" d="M48.456,162.023h2v-2" fill="none" stroke="#56dcbc" stroke-miterlimit="10" stroke-width="1"/>
        <line id="Línea_154" data-name="Línea 154" y1="12.475" transform="translate(50.456 143.984)" fill="none" stroke="#56dcbc" stroke-miterlimit="10" stroke-width="1" stroke-dasharray="3.564 3.564"/>
        <line id="Línea_155" data-name="Línea 155" y1="2" transform="translate(50.456 140.201)" fill="none" stroke="#56dcbc" stroke-miterlimit="10" stroke-width="1"/>
        <rect id="Rectángulo_9155" data-name="Rectángulo 9155" width="107.759" height="128.474" transform="translate(37.051 10.669)" fill="#8bebce"/>
        <rect id="Rectángulo_9156" data-name="Rectángulo 9156" width="107.759" height="16.306" transform="translate(37.051 4.411)" fill="#20d1b9"/>
        <path id="Trazado_160878" data-name="Trazado 160878" d="M132.34,130.306v1.058l-3.875,1.474V131.82l2.711-.985-2.711-.993v-1.01Z" fill="#7b65d8"/>
        <path id="Trazado_160879" data-name="Trazado 160879" d="M121.323,128.832v1.01l-2.711.993,2.711.985v1.017l-3.875-1.473v-1.058Z" fill="#7b65d8"/>
      </g>
    </g>
    <text id="_2" data-name="/" transform="translate(123.314 133.323)" fill="#7b65d8" font-size="8.723" font-family="Montserrat-Bold, Montserrat" font-weight="700"><tspan x="0" y="0">/</tspan></text>
    <g id="Grupo_72106" data-name="Grupo 72106">
      <g id="Grupo_72105" data-name="Grupo 72105" clip-path="url(#clip-path)">
        <path id="Trazado_160880" data-name="Trazado 160880" d="M62.585,31.112v1.32l-4.832,1.837V33l3.38-1.228-3.38-1.239V29.274Z" fill="#fff"/>
        <path id="Trazado_160881" data-name="Trazado 160881" d="M53.7,29.274v1.259l-3.381,1.238L53.7,33v1.269l-4.832-1.838V31.112Z" fill="#fff"/>
      </g>
    </g>
    <text id="WEB_DEVELOPING" data-name="WEB DEVELOPING" transform="translate(43.589 16.02)" fill="#fff" font-size="7.736" font-family="Montserrat-Bold, Montserrat" font-weight="700"><tspan x="0" y="0" letter-spacing="-0.015em">W</tspan><tspan y="0">EB D</tspan><tspan y="0" letter-spacing="-0.009em">E</tspan><tspan y="0" letter-spacing="-0.015em">V</tspan><tspan y="0">E</tspan><tspan y="0" letter-spacing="-0.012em">L</tspan><tspan y="0">O</tspan><tspan y="0" letter-spacing="-0.01em">P</tspan><tspan y="0">ING</tspan></text>
    <g id="Grupo_72108" data-name="Grupo 72108">
      <g id="Grupo_72107" data-name="Grupo 72107" clip-path="url(#clip-path)">
        <rect id="Rectángulo_9159" data-name="Rectángulo 9159" width="31.676" height="5.801" transform="translate(55.68 42.105)" fill="#d1fff1"/>
        <rect id="Rectángulo_9160" data-name="Rectángulo 9160" width="15.838" height="5.801" transform="translate(91.819 42.105)" fill="#d1fff1"/>
        <rect id="Rectángulo_9161" data-name="Rectángulo 9161" width="21.813" height="5.801" transform="translate(111.305 42.105)" fill="#d1fff1"/>
        <rect id="Rectángulo_9162" data-name="Rectángulo 9162" width="14.784" height="5.801" transform="translate(55.68 52.461)" fill="#d1fff1"/>
        <rect id="Rectángulo_9163" data-name="Rectángulo 9163" width="25.251" height="5.801" transform="translate(74.487 52.461)" fill="#d1fff1"/>
        <rect id="Rectángulo_9164" data-name="Rectángulo 9164" width="29.265" height="5.801" transform="translate(103.853 52.461)" fill="#d1fff1"/>
        <rect id="Rectángulo_9165" data-name="Rectángulo 9165" width="19.46" height="5.801" transform="translate(55.68 62.817)" fill="#d1fff1"/>
        <rect id="Rectángulo_9166" data-name="Rectángulo 9166" width="36.607" height="5.801" transform="translate(78.308 62.817)" fill="#d1fff1"/>
        <rect id="Rectángulo_9167" data-name="Rectángulo 9167" width="14.281" height="5.801" transform="translate(118.837 62.817)" fill="#d1fff1"/>
        <rect id="Rectángulo_9168" data-name="Rectángulo 9168" width="24.539" height="5.801" transform="translate(55.68 73.174)" fill="#d1fff1"/>
        <rect id="Rectángulo_9169" data-name="Rectángulo 9169" width="23.817" height="5.801" transform="translate(83.84 73.174)" fill="#d1fff1"/>
        <rect id="Rectángulo_9170" data-name="Rectángulo 9170" width="21.813" height="5.801" transform="translate(111.305 73.174)" fill="#d1fff1"/>
        <rect id="Rectángulo_9171" data-name="Rectángulo 9171" width="10.761" height="5.801" transform="translate(55.68 83.53)" fill="#d1fff1"/>
        <rect id="Rectángulo_9172" data-name="Rectángulo 9172" width="21.321" height="5.801" transform="translate(70.061 83.53)" fill="#d1fff1"/>
        <rect id="Rectángulo_9173" data-name="Rectángulo 9173" width="38.417" height="5.801" transform="translate(94.701 83.53)" fill="#d1fff1"/>
        <rect id="Rectángulo_9174" data-name="Rectángulo 9174" width="30.774" height="5.801" transform="translate(55.68 93.887)" fill="#d1fff1"/>
        <rect id="Rectángulo_9175" data-name="Rectángulo 9175" width="9.462" height="5.801" transform="translate(90.276 93.887)" fill="#d1fff1"/>
        <rect id="Rectángulo_9176" data-name="Rectángulo 9176" width="29.265" height="5.801" transform="translate(103.853 93.887)" fill="#d1fff1"/>
        <rect id="Rectángulo_9177" data-name="Rectángulo 9177" width="40.068" height="5.801" transform="translate(55.68 104.243)" fill="#d1fff1"/>
        <rect id="Rectángulo_9178" data-name="Rectángulo 9178" width="16.393" height="5.801" transform="translate(99.126 104.243)" fill="#d1fff1"/>
        <rect id="Rectángulo_9179" data-name="Rectángulo 9179" width="14.281" height="5.801" transform="translate(118.837 104.243)" fill="#d1fff1"/>
        <rect id="Rectángulo_9180" data-name="Rectángulo 9180" width="12.269" height="5.801" transform="translate(55.681 114.6)" fill="#d1fff1"/>
        <rect id="Rectángulo_9181" data-name="Rectángulo 9181" width="14.936" height="5.801" transform="translate(71.518 114.6)" fill="#d1fff1"/>
        <rect id="Rectángulo_9182" data-name="Rectángulo 9182" width="42.842" height="5.801" transform="translate(90.276 114.6)" fill="#d1fff1"/>
        <rect id="Rectángulo_9183" data-name="Rectángulo 9183" width="1.18" height="78.296" transform="translate(137.354 42.105)" fill="#d1fff1"/>
        <path id="Trazado_160882" data-name="Trazado 160882" d="M48.62,45.005a2.9,2.9,0,1,1-2.9-2.9,2.9,2.9,0,0,1,2.9,2.9" fill="#d1fff1"/>
        <path id="Trazado_160883" data-name="Trazado 160883" d="M48.62,55.361a2.9,2.9,0,1,1-2.9-2.9,2.9,2.9,0,0,1,2.9,2.9" fill="#d1fff1"/>
        <path id="Trazado_160884" data-name="Trazado 160884" d="M48.62,65.718a2.9,2.9,0,1,1-2.9-2.9,2.9,2.9,0,0,1,2.9,2.9" fill="#d1fff1"/>
        <path id="Trazado_160885" data-name="Trazado 160885" d="M48.62,76.074a2.9,2.9,0,1,1-2.9-2.9,2.9,2.9,0,0,1,2.9,2.9" fill="#d1fff1"/>
        <path id="Trazado_160886" data-name="Trazado 160886" d="M48.62,86.431a2.9,2.9,0,1,1-2.9-2.9,2.9,2.9,0,0,1,2.9,2.9" fill="#d1fff1"/>
        <path id="Trazado_160887" data-name="Trazado 160887" d="M48.62,96.787a2.9,2.9,0,1,1-2.9-2.9,2.9,2.9,0,0,1,2.9,2.9" fill="#d1fff1"/>
        <path id="Trazado_160888" data-name="Trazado 160888" d="M48.62,107.144a2.9,2.9,0,1,1-2.9-2.9,2.9,2.9,0,0,1,2.9,2.9" fill="#d1fff1"/>
        <path id="Trazado_160889" data-name="Trazado 160889" d="M48.62,117.5a2.9,2.9,0,1,1-2.9-2.9,2.9,2.9,0,0,1,2.9,2.9" fill="#d1fff1"/>
        <path id="Trazado_160890" data-name="Trazado 160890" d="M140.01,13.463a2.958,2.958,0,1,1-2.958-2.958,2.958,2.958,0,0,1,2.958,2.958" fill="#d43b5e"/>
        <path id="Trazado_160891" data-name="Trazado 160891" d="M132.7,13.4a2.98,2.98,0,1,1-2.981-2.981A2.981,2.981,0,0,1,132.7,13.4" fill="#fff"/>
        <rect id="Rectángulo_9184" data-name="Rectángulo 9184" width="10.439" height="2.925" transform="translate(159.152 25.776)" fill="#20d1b9"/>
        <rect id="Rectángulo_9185" data-name="Rectángulo 9185" width="31.936" height="2.925" transform="translate(159.152 20.568)" fill="#20d1b9"/>
        <line id="Línea_156" data-name="Línea 156" y2="2" transform="translate(177.603 29.258)" fill="none" stroke="#69d8b3" stroke-miterlimit="10" stroke-width="1"/>
        <line id="Línea_157" data-name="Línea 157" y2="3.834" transform="translate(177.603 33.814)" fill="none" stroke="#69d8b3" stroke-miterlimit="10" stroke-width="1" stroke-dasharray="2.556 2.556"/>
        <path id="Trazado_160892" data-name="Trazado 160892" d="M177.6,38.926v2h2" fill="none" stroke="#69d8b3" stroke-miterlimit="10" stroke-width="1"/>
        <line id="Línea_158" data-name="Línea 158" x2="28.682" transform="translate(183.427 40.926)" fill="none" stroke="#69d8b3" stroke-miterlimit="10" stroke-width="1" stroke-dasharray="3.824 3.824"/>
        <path id="Trazado_160893" data-name="Trazado 160893" d="M214.021,40.926h2v-2" fill="none" stroke="#69d8b3" stroke-miterlimit="10" stroke-width="1"/>
        <line id="Línea_159" data-name="Línea 159" y1="2" transform="translate(216.021 31.89)" fill="none" stroke="#69d8b3" stroke-miterlimit="10" stroke-width="1"/>
      </g>
    </g>
    <text id="CSS" transform="translate(159.152 12.845)" fill="#40fecc" font-size="10.297" font-family="Montserrat-Black, Montserrat" font-weight="800"><tspan x="0" y="0" letter-spacing="-0.009em">C</tspan><tspan y="0">SS</tspan></text>
    <g id="Grupo_72110" data-name="Grupo 72110">
      <g id="Grupo_72109" data-name="Grupo 72109" clip-path="url(#clip-path)">
        <path id="Trazado_160894" data-name="Trazado 160894" d="M224.487,19.978a8.571,8.571,0,0,0-.411-1.124,8.758,8.758,0,0,0-4.356-4.407.144.144,0,0,0-.051-.023,8.786,8.786,0,0,0-7.062-.109c-.058.027-.12.051-.179.078a8.813,8.813,0,1,0,12.059,5.585m-5.973,8.055a6.124,6.124,0,0,1-8.078-3.1,6.448,6.448,0,0,1-.283-.768,6.1,6.1,0,0,1,.539-4.713.175.175,0,0,1,.019-.039,6.067,6.067,0,0,1,2.818-2.558,5.928,5.928,0,0,1,.706-.26.249.249,0,0,1,.073-.023,6.086,6.086,0,0,1,3.648.07l.012,0a6.158,6.158,0,0,1,2.6,1.709,5.964,5.964,0,0,1,1.035,1.6,6.227,6.227,0,0,1,.38,1.132,6.14,6.14,0,0,1-3.473,6.946" fill="#63e9b1"/>
        <path id="Trazado_160895" data-name="Trazado 160895" d="M224.665,24.168h-2.779a6.107,6.107,0,0,0,.1-3.082,6.4,6.4,0,0,0-.38-1.131,6.012,6.012,0,0,0-1.035-1.6,6.164,6.164,0,0,0-2.605-1.71l-.012,0a6.091,6.091,0,0,0-3.647-.069.207.207,0,0,0-.074.023,5.908,5.908,0,0,0-.7.259,6.07,6.07,0,0,0-2.818,2.559.161.161,0,0,0-.02.039,6.1,6.1,0,0,0-.538,4.713h-2.78a8.833,8.833,0,0,1,5.055-9.776c.058-.027.12-.05.178-.077a8.782,8.782,0,0,1,7.063.108.17.17,0,0,1,.05.023,8.762,8.762,0,0,1,4.357,4.408,8.816,8.816,0,0,1,.589,5.314" fill="#9fffdd"/>
        <rect id="Rectángulo_9187" data-name="Rectángulo 9187" width="19.405" height="2.925" transform="translate(171.683 25.776)" fill="#20d1b9"/>
      </g>
    </g>
    <text id="_3" data-name="{ }" transform="translate(8.069 16.858)" fill="#13a87b" font-size="14.757" font-family="Montserrat-Black, Montserrat" font-weight="800"><tspan x="0" y="0">{ }</tspan></text>
    <g id="Grupo_72121" data-name="Grupo 72121">
      <g id="Grupo_72120" data-name="Grupo 72120" clip-path="url(#clip-path)">
        <rect id="Rectángulo_9189" data-name="Rectángulo 9189" width="11.477" height="5.477" transform="translate(7.987 33.383)" fill="#9fffdd"/>
        <rect id="Rectángulo_9190" data-name="Rectángulo 9190" width="11.477" height="5.477" transform="translate(7.987 42.952)" fill="#9fffdd"/>
        <rect id="Rectángulo_9191" data-name="Rectángulo 9191" width="11.477" height="5.477" transform="translate(7.987 52.521)" fill="#63e9b1"/>
        <rect id="Rectángulo_9192" data-name="Rectángulo 9192" width="11.477" height="5.477" transform="translate(7.987 62.09)" fill="#63e9b1"/>
        <rect id="Rectángulo_9193" data-name="Rectángulo 9193" width="11.477" height="5.477" transform="translate(7.987 71.659)" fill="#63e9b1"/>
        <rect id="Rectángulo_9194" data-name="Rectángulo 9194" width="11.477" height="5.477" transform="translate(7.987 81.228)" fill="#63e9b1"/>
        <rect id="Rectángulo_9195" data-name="Rectángulo 9195" width="11.477" height="5.477" transform="translate(7.987 90.797)" fill="#63e9b1"/>
        <path id="Trazado_160896" data-name="Trazado 160896" d="M343.8,141.084c0-.04.005-.075.005-.114s-.005-.075-.005-.11a13.469,13.469,0,0,0,1.716-.935,14.082,14.082,0,0,0,1.8-1.452l-.125-.487a12.444,12.444,0,0,0-.527-1.616c-.109-.259-.238-.513-.363-.766a5.12,5.12,0,0,0-.407-.746l-.259-.428a13.2,13.2,0,0,0-2.293.239,12.137,12.137,0,0,0-1.869.552l-.159-.159a12.537,12.537,0,0,0,.547-1.87,12.72,12.72,0,0,0,.243-2.292l-.427-.259a5.569,5.569,0,0,0-.746-.408c-.254-.124-.508-.253-.771-.363a12.372,12.372,0,0,0-1.611-.527l-.488-.124a13.757,13.757,0,0,0-1.452,1.8,12.939,12.939,0,0,0-.935,1.716c-.034,0-.074-.01-.109-.01s-.075.01-.114.01a12.388,12.388,0,0,0-.935-1.716,13.71,13.71,0,0,0-1.447-1.8l-.488.124a12.2,12.2,0,0,0-1.616.527c-.258.11-.512.239-.771.363a5.9,5.9,0,0,0-.746.408l-.427.259a13.693,13.693,0,0,0,.243,2.292,12.434,12.434,0,0,0,.552,1.87c-.054.054-.109.1-.159.159a12.284,12.284,0,0,0-1.87-.552,13.232,13.232,0,0,0-2.292-.239l-.264.428a6.286,6.286,0,0,0-.407.746c-.12.253-.249.507-.359.766a11.858,11.858,0,0,0-.526,1.616l-.125.487a13.745,13.745,0,0,0,1.8,1.452,13.088,13.088,0,0,0,1.711.935c0,.035-.005.07-.005.11s.005.074.005.114a12.522,12.522,0,0,0-1.711.935,13.78,13.78,0,0,0-1.8,1.447l.125.487a11.858,11.858,0,0,0,.526,1.616c.11.259.239.513.359.771a6.634,6.634,0,0,0,.407.741l.264.428a13.232,13.232,0,0,0,2.292-.239,12.286,12.286,0,0,0,1.87-.552c.05.055.1.109.159.159a12.434,12.434,0,0,0-.552,1.87,13.75,13.75,0,0,0-.243,2.293l.427.263a6.408,6.408,0,0,0,.746.4c.259.124.513.254.771.363a11.506,11.506,0,0,0,1.616.527l.488.124a13.711,13.711,0,0,0,1.447-1.795,12.436,12.436,0,0,0,.935-1.715.863.863,0,0,0,.114.01.79.79,0,0,0,.109-.01,12.992,12.992,0,0,0,.935,1.715,13.758,13.758,0,0,0,1.452,1.795l.488-.124a11.656,11.656,0,0,0,1.611-.527c.263-.109.517-.239.771-.363a6.024,6.024,0,0,0,.746-.4l.427-.263a12.77,12.77,0,0,0-.243-2.293,12.537,12.537,0,0,0-.547-1.87c.054-.05.1-.1.159-.159a12.139,12.139,0,0,0,1.869.552,13.2,13.2,0,0,0,2.293.239l.259-.428a5.338,5.338,0,0,0,.407-.741c.125-.258.254-.512.363-.771a12.443,12.443,0,0,0,.527-1.616l.125-.487a14.119,14.119,0,0,0-1.8-1.447,12.872,12.872,0,0,0-1.716-.935m-8.24,3.829a3.943,3.943,0,1,1,3.943-3.943,3.943,3.943,0,0,1-3.943,3.943" fill="#69d8b3"/>
        <rect id="Rectángulo_9196" data-name="Rectángulo 9196" width="5.207" height="23.451" transform="translate(302.355 126.439)" fill="#69d8b3"/>
        <rect id="Rectángulo_9197" data-name="Rectángulo 9197" width="5.581" height="13.118" transform="translate(294.675 136.772)" fill="#1c9873"/>
        <rect id="Rectángulo_9198" data-name="Rectángulo 9198" width="5.581" height="8.92" transform="translate(286.944 140.97)" fill="#69d8b3"/>
        <line id="Línea_160" data-name="Línea 160" x1="2" transform="translate(283.957 146.154)" fill="none" stroke="#8effbd" stroke-miterlimit="10" stroke-width="1"/>
        <line id="Línea_161" data-name="Línea 161" x1="3.368" transform="translate(278.343 146.154)" fill="none" stroke="#8effbd" stroke-miterlimit="10" stroke-width="1" stroke-dasharray="2.245 2.245"/>
        <path id="Trazado_160897" data-name="Trazado 160897" d="M277.221,146.154h-2v2" fill="none" stroke="#8effbd" stroke-miterlimit="10" stroke-width="1"/>
        <line id="Línea_162" data-name="Línea 162" y2="11.932" transform="translate(275.221 151.563)" fill="none" stroke="#8effbd" stroke-miterlimit="10" stroke-width="1" stroke-dasharray="3.409 3.409"/>
        <path id="Trazado_160898" data-name="Trazado 160898" d="M275.221,165.2v2h2" fill="none" stroke="#8effbd" stroke-miterlimit="10" stroke-width="1"/>
        <line id="Línea_163" data-name="Línea 163" x2="3.861" transform="translate(279.795 167.2)" fill="none" stroke="#8effbd" stroke-miterlimit="10" stroke-width="1" stroke-dasharray="2.574 2.574"/>
        <line id="Línea_164" data-name="Línea 164" x2="2" transform="translate(284.944 167.2)" fill="none" stroke="#8effbd" stroke-miterlimit="10" stroke-width="1"/>
        <rect id="Rectángulo_9199" data-name="Rectángulo 9199" width="14.768" height="2.639" transform="translate(288.712 166.159)" fill="#8effbd"/>
        <rect id="Rectángulo_9200" data-name="Rectángulo 9200" width="10.214" height="2.639" transform="translate(288.712 171.042)" fill="#8effbd"/>
        <rect id="Rectángulo_9201" data-name="Rectángulo 9201" width="12.929" height="2.639" transform="translate(288.712 175.925)" fill="#8effbd"/>
        <rect id="Rectángulo_9202" data-name="Rectángulo 9202" width="3.018" height="2.639" transform="translate(304.316 175.925)" fill="#69d8b3"/>
        <rect id="Rectángulo_9203" data-name="Rectángulo 9203" width="11.105" height="2.639" transform="translate(310.101 175.925)" fill="#69d8b3"/>
        <rect id="Rectángulo_9204" data-name="Rectángulo 9204" width="19.006" height="2.639" transform="translate(302.2 171.042)" fill="#69d8b3"/>
        <rect id="Rectángulo_9205" data-name="Rectángulo 9205" width="14.768" height="2.639" transform="translate(306.438 166.159)" fill="#69d8b3"/>
        <rect id="Rectángulo_9206" data-name="Rectángulo 9206" width="9.731" height="4.644" transform="translate(362.121 139.539)" fill="#8bebce"/>
        <rect id="Rectángulo_9207" data-name="Rectángulo 9207" width="9.731" height="4.644" transform="translate(362.121 147.652)" fill="#8bebce"/>
        <rect id="Rectángulo_9208" data-name="Rectángulo 9208" width="9.731" height="4.644" transform="translate(362.121 155.765)" fill="#8bebce"/>
        <rect id="Rectángulo_9209" data-name="Rectángulo 9209" width="9.731" height="4.644" transform="translate(362.121 163.878)" fill="#8bebce"/>
        <rect id="Rectángulo_9210" data-name="Rectángulo 9210" width="9.731" height="4.644" transform="translate(362.121 171.991)" fill="#8bebce"/>
        <rect id="Rectángulo_9211" data-name="Rectángulo 9211" width="9.731" height="4.644" transform="translate(362.121 180.104)" fill="#8bebce"/>
        <rect id="Rectángulo_9212" data-name="Rectángulo 9212" width="9.731" height="4.644" transform="translate(362.121 188.217)" fill="#8bebce"/>
        <path id="Trazado_160899" data-name="Trazado 160899" d="M329.426,206.168A14.924,14.924,0,0,1,320.2,204c-10.265-6.352-12.407-24.268-12.554-25.614.089.413,1.1,2.6,11.771,9.782q1.332.9,2.443,1.821l.038.029c9.3,7.7,7.527,16.151,7.527,16.151" fill="#008067"/>
        <path id="Trazado_160900" data-name="Trazado 160900" d="M307.638,178.306s9.585,23.521,20.219,26" fill="none" stroke="#006d51" stroke-miterlimit="10" stroke-width="1"/>
        <g id="Grupo_72113" data-name="Grupo 72113" opacity="0.5">
          <g id="Grupo_72112" data-name="Grupo 72112">
            <g id="Grupo_72111" data-name="Grupo 72111" clip-path="url(#clip-path-21)">
              <path id="Trazado_160901" data-name="Trazado 160901" d="M329.426,206.168A14.924,14.924,0,0,1,320.2,204c2.043-4.836,1.66-14.011,1.66-14.011l.038.029c9.3,7.7,7.527,16.151,7.527,16.151" fill="#006d51"/>
            </g>
          </g>
        </g>
        <path id="Trazado_160902" data-name="Trazado 160902" d="M356.671,179.694c-.041.25-.184,1.119-.471,2.4v.005c-1.514,6.782-6.981,25.031-21.687,23.2a11.814,11.814,0,0,1,.248-3.909c.727-3.444,3.066-8.573,10.18-12.873,10.555-6.384,11.623-8.434,11.73-8.823" fill="#008067"/>
        <path id="Trazado_160903" data-name="Trazado 160903" d="M356.2,181.143s-7.548,19.555-20.64,23.543" fill="none" stroke="#006d51" stroke-miterlimit="10" stroke-width="1"/>
        <g id="Grupo_72116" data-name="Grupo 72116" opacity="0.5">
          <g id="Grupo_72115" data-name="Grupo 72115">
            <g id="Grupo_72114" data-name="Grupo 72114" clip-path="url(#clip-path-22)">
              <path id="Trazado_160904" data-name="Trazado 160904" d="M356.2,182.093v0c-1.515,6.782-6.981,25.032-21.687,23.2a11.781,11.781,0,0,1,.248-3.909h.015c12.235.654,21.424-19.3,21.424-19.3" fill="#006d51"/>
            </g>
          </g>
        </g>
        <path id="Trazado_160905" data-name="Trazado 160905" d="M333.724,205.952c-.364.631-5.734-1.6-8.153-8.057h0c-1.453-3.879-1.84-9.283.56-16.5,6.307-18.964,3.708-22.539,3.631-22.639a23.054,23.054,0,0,1,9.142,9.4l.014.025c3.888,7.3,5.405,19.341-5.192,37.772" fill="#009a79"/>
        <path id="Trazado_160906" data-name="Trazado 160906" d="M329.757,158.749s8.223,10.377,5.092,30.114-1.126,17.089-1.126,17.089" fill="none" stroke="#008067" stroke-miterlimit="10" stroke-width="1"/>
        <g id="Grupo_72119" data-name="Grupo 72119" opacity="0.5">
          <g id="Grupo_72118" data-name="Grupo 72118">
            <g id="Grupo_72117" data-name="Grupo 72117" clip-path="url(#clip-path-23)">
              <path id="Trazado_160907" data-name="Trazado 160907" d="M333.724,205.952c-.364.631-5.734-1.6-8.153-8.057,13.54,3.847,13.331-29.74,13.331-29.74l.014.025c3.888,7.3,5.405,19.341-5.192,37.772" fill="#008067"/>
            </g>
          </g>
        </g>
        <path id="Trazado_160908" data-name="Trazado 160908" d="M307.638,178.306l.005.066a.163.163,0,0,1-.005-.066" fill="#008067"/>
        <path id="Trazado_160909" data-name="Trazado 160909" d="M344.132,205.669v15.158a8.028,8.028,0,0,1-8.029,8.029h-7.129a8.021,8.021,0,0,1-6.857-3.851h0a8,8,0,0,1-1.17-4.178V205.669Z" fill="#8bebce"/>
        <path id="Trazado_160910" data-name="Trazado 160910" d="M344.583,203.7H320.494a.983.983,0,1,0,0,1.966h24.089a.983.983,0,0,0,0-1.966" fill="#8bebce"/>
        <path id="Trazado_160911" data-name="Trazado 160911" d="M344.132,205.669v15.158a8.028,8.028,0,0,1-8.029,8.029h-7.129a8.021,8.021,0,0,1-6.857-3.851c16.983,5.334,20.671-7.154,20.015-12.107s-6.774-7.229-6.774-7.229Z" fill="#13a87b"/>
        <path id="Trazado_160912" data-name="Trazado 160912" d="M217.585,94.954c.38.149,2.293-.992,5.251-1.4,2.95-.436,5.285.1,5.566-.148.14-.111-.277-.418-1.3-.664a12.592,12.592,0,0,0-4.5-.125,11.276,11.276,0,0,0-4.13,1.363c-.833.512-1.07.913-.885.977" fill="#1a2e35"/>
        <path id="Trazado_160913" data-name="Trazado 160913" d="M199.192,95.121c-.38.149-2.293-.992-5.251-1.4-2.95-.436-5.285.1-5.566-.148-.14-.111.277-.418,1.3-.664a12.592,12.592,0,0,1,4.505-.125,11.276,11.276,0,0,1,4.13,1.363c.833.512,1.07.913.885.977" fill="#1a2e35"/>
        <path id="Trazado_160914" data-name="Trazado 160914" d="M218.116,101.438a2.417,2.417,0,0,0,2.225,2.535,2.311,2.311,0,0,0,2.581-2.071,2.418,2.418,0,0,0-2.222-2.537,2.314,2.314,0,0,0-2.584,2.073" fill="#1a2e35"/>
        <path id="Trazado_160915" data-name="Trazado 160915" d="M211.285,118.268c.006-.156-1.715-.375-4.5-.6-.705-.041-1.375-.151-1.515-.624a3.573,3.573,0,0,1,.375-2.1q.876-2.591,1.835-5.435c2.539-7.733,4.343-14.08,4.031-14.179s-2.624,6.088-5.163,13.821q-.915,2.86-1.746,5.463a4.065,4.065,0,0,0-.24,2.768,1.762,1.762,0,0,0,1.2.975,4.8,4.8,0,0,0,1.2.111c2.791.025,4.519-.04,4.522-.2" fill="#1a2e35"/>
        <path id="Trazado_160916" data-name="Trazado 160916" d="M220.863,82.933c.21.692,2.643.472,5.471.947,2.837.417,5.092,1.375,5.5.78.18-.285-.192-.943-1.091-1.642a9.374,9.374,0,0,0-8.355-1.316c-1.062.391-1.61.9-1.521,1.231" fill="#754c24"/>
        <path id="Trazado_160917" data-name="Trazado 160917" d="M192.045,85.163c.249.573,2.633.245,5.449.484,2.822.189,5.1.869,5.465.342.16-.252-.246-.787-1.175-1.327a9.88,9.88,0,0,0-4.07-1.167,10.219,10.219,0,0,0-4.244.538c-1.024.392-1.533.858-1.425,1.13" fill="#754c24"/>
        <path id="Trazado_160918" data-name="Trazado 160918" d="M205.373,126.03c.058-.331,2.455.384,5.1-.569a13.728,13.728,0,0,0,3.168-1.74c.785-.545,1.318-.863,1.405-.756s-.273.586-.968,1.285a9.005,9.005,0,0,1-3.279,2.125,7.313,7.313,0,0,1-3.923.284c-.988-.2-1.529-.524-1.5-.629" fill="#1a2e35"/>
        <path id="Trazado_160919" data-name="Trazado 160919" d="M193.62,99.3a2.419,2.419,0,0,0,2.225,2.536,2.312,2.312,0,0,0,2.581-2.072,2.418,2.418,0,0,0-2.222-2.537A2.313,2.313,0,0,0,193.62,99.3" fill="#1a2e35"/>
        <circle id="Elipse_30" data-name="Elipse 30" cx="10.853" cy="10.853" r="10.853" transform="translate(182.092 108.072) rotate(-76.717)" fill="none" stroke="#fff" stroke-miterlimit="10" stroke-width="2"/>
        <circle id="Elipse_31" data-name="Elipse 31" cx="10.853" cy="10.853" r="10.853" transform="translate(209.968 108.072) rotate(-76.717)" fill="none" stroke="#fff" stroke-miterlimit="10" stroke-width="2"/>
        <line id="Línea_165" data-name="Línea 165" x2="5.733" transform="translate(206.22 101.848)" fill="none" stroke="#fff" stroke-miterlimit="10" stroke-width="2"/>
      </g>
    </g>
  </g>
</svg>
