<svg xmlns="http://www.w3.org/2000/svg" xmlns:xlink="http://www.w3.org/1999/xlink" width="420" height="351.684" viewBox="0 0 420 351.684">
  <defs>
    <clipPath id="clip-path">
      <rect id="Rectángulo_9254" data-name="Rectángulo 9254" width="315.547" height="297.43" fill="none"/>
    </clipPath>
    <clipPath id="clip-path-3">
      <rect id="Rectángulo_9242" data-name="Rectángulo 9242" width="200.227" height="266.822" fill="none"/>
    </clipPath>
    <clipPath id="clip-path-4">
      <rect id="Rectángulo_9245" data-name="Rectángulo 9245" width="5.041" height="269.411" fill="none"/>
    </clipPath>
    <clipPath id="clip-path-5">
      <rect id="Rectángulo_9247" data-name="Rectángulo 9247" width="70.529" height="68.795" fill="none"/>
    </clipPath>
    <clipPath id="clip-path-6">
      <rect id="Rectángulo_9248" data-name="Rectángulo 9248" width="31.685" height="31.443" fill="none"/>
    </clipPath>
    <clipPath id="clip-path-7">
      <rect id="Rectángulo_9249" data-name="Rectángulo 9249" width="31.392" height="31.109" fill="none"/>
    </clipPath>
    <clipPath id="clip-path-8">
      <rect id="Rectángulo_9251" data-name="Rectángulo 9251" width="26.76" height="4.857" fill="none"/>
    </clipPath>
    <clipPath id="clip-path-9">
      <rect id="Rectángulo_9252" data-name="Rectángulo 9252" width="46.884" height="14.092" fill="none"/>
    </clipPath>
  </defs>
  <g id="Grupo_72216" data-name="Grupo 72216" transform="translate(-180 -610.316)">
    <path id="Rectángulo_9019" data-name="Rectángulo 9019" d="M0,0H360a60,60,0,0,1,60,60V351.684a0,0,0,0,1,0,0H0a0,0,0,0,1,0,0V0A0,0,0,0,1,0,0Z" transform="translate(180 610.316)" fill="#fcefef"/>
    <g id="Grupo_72168" data-name="Grupo 72168" transform="translate(232.227 639.636)">
      <g id="Grupo_72167" data-name="Grupo 72167" clip-path="url(#clip-path)">
        <rect id="Rectángulo_9231" data-name="Rectángulo 9231" width="52.643" height="54.876" transform="translate(260.813 82.196)" fill="#e1c4c3"/>
        <rect id="Rectángulo_9232" data-name="Rectángulo 9232" width="52.643" height="54.876" transform="translate(257.248 82.196)" fill="#fadad8"/>
        <path id="Trazado_161190" data-name="Trazado 161190" d="M431.653,175.983H378.978V121.075h52.675Zm-52.643-.033h52.61V121.108h-52.61Z" transform="translate(-121.746 -38.895)" fill="#e1c4c3"/>
        <rect id="Rectángulo_9233" data-name="Rectángulo 9233" width="38.489" height="40.122" transform="translate(264.325 89.573)" fill="#fadad8"/>
        <g id="Grupo_72166" data-name="Grupo 72166">
          <g id="Grupo_72165" data-name="Grupo 72165" clip-path="url(#clip-path)">
            <path id="Trazado_161191" data-name="Trazado 161191" d="M386.1,191.47a6.3,6.3,0,0,1-.95,1.1c-.615.649-1.478,1.527-2.447,2.48s-1.858,1.8-2.514,2.407a6.147,6.147,0,0,1-1.112.926,6.147,6.147,0,0,1,.944-1.1c.615-.649,1.481-1.529,2.452-2.485s1.863-1.808,2.519-2.412a6.015,6.015,0,0,1,1.108-.922" transform="translate(-121.778 -61.509)" fill="#e1c4c3"/>
            <path id="Trazado_161192" data-name="Trazado 161192" d="M446.133,191.325a6.3,6.3,0,0,1,1.1.95c.649.615,1.527,1.478,2.48,2.447s1.8,1.858,2.407,2.514a6.147,6.147,0,0,1,.927,1.112,6.1,6.1,0,0,1-1.1-.944c-.648-.615-1.529-1.481-2.485-2.452s-1.808-1.863-2.412-2.52a6.035,6.035,0,0,1-.922-1.107" transform="translate(-143.319 -61.462)" fill="#e1c4c3"/>
            <path id="Trazado_161193" data-name="Trazado 161193" d="M445.977,128.85a6.294,6.294,0,0,1,.95-1.1c.615-.649,1.479-1.527,2.447-2.48s1.858-1.8,2.515-2.407a6.062,6.062,0,0,1,1.112-.926,6.206,6.206,0,0,1-.945,1.1c-.615.648-1.481,1.529-2.452,2.485s-1.862,1.808-2.52,2.412a6.011,6.011,0,0,1-1.107.922" transform="translate(-143.269 -39.17)" fill="#e1c4c3"/>
            <path id="Trazado_161194" data-name="Trazado 161194" d="M386,128.945a6.3,6.3,0,0,1-1.1-.95c-.649-.615-1.527-1.479-2.48-2.447s-1.8-1.858-2.407-2.514a6.174,6.174,0,0,1-.927-1.112,6.145,6.145,0,0,1,1.1.944c.649.615,1.529,1.481,2.485,2.452s1.808,1.863,2.412,2.52a6,6,0,0,1,.922,1.107" transform="translate(-121.778 -39.167)" fill="#e1c4c3"/>
            <path id="Trazado_161195" data-name="Trazado 161195" d="M427.73,172.008a1.91,1.91,0,0,1-.008-.195c0-.137,0-.321-.009-.56,0-.5-.009-1.227-.017-2.166-.01-1.9-.022-4.666-.039-8.177-.018-7.027-.045-17.038-.076-29.024l.149.148-38.38.022h0l.17-.17c-.009,14.726-.017,28.5-.024,40.122l-.147-.146,27.793.075,7.806.038,2.065.017.534.008a1.732,1.732,0,0,1,.186.008,1.244,1.244,0,0,1-.17.008l-.518.008-2.038.017-7.773.039-27.886.075H389.2v-.147c-.007-11.619-.016-25.4-.024-40.122v-.17h.174l38.38.022h.149v.149c-.031,12.025-.057,22.069-.075,29.119-.017,3.5-.03,6.251-.039,8.143-.007.927-.013,1.641-.017,2.137,0,.232-.007.411-.008.544a1.424,1.424,0,0,1-.009.179" transform="translate(-125.022 -42.314)" fill="#e1c4c3"/>
            <rect id="Rectángulo_9234" data-name="Rectángulo 9234" width="12.843" height="12.843" transform="translate(277.147 103.212)" fill="#eccac9"/>
            <rect id="Rectángulo_9235" data-name="Rectángulo 9235" width="174.837" height="256.689" transform="translate(87.033 6.668) rotate(-1.598)" fill="#e1c4c3"/>
            <rect id="Rectángulo_9236" data-name="Rectángulo 9236" width="256.689" height="174.837" transform="translate(63.34 256.303) rotate(-86.858)" fill="#f5d4d2"/>
            <rect id="Rectángulo_9237" data-name="Rectángulo 9237" width="256.689" height="174.837" transform="translate(86.524 267.061) rotate(-85.133)" fill="#eccac9"/>
            <path id="Trazado_161196" data-name="Trazado 161196" d="M16.693,336.589a20.488,20.488,0,0,0-8.765-3.017,5.844,5.844,0,0,0-4.146.762.854.854,0,0,0-.427.758.926.926,0,0,0,.405.518,12.533,12.533,0,0,0,12.933.979" transform="translate(-1.075 -107.139)" fill="#e1c4c3"/>
            <path id="Trazado_161197" data-name="Trazado 161197" d="M18.27,331.179a42.723,42.723,0,0,1-5.661-4.981,14.318,14.318,0,0,1-3.549-6.563,2.648,2.648,0,0,1,.28-2.2c4.513,3.524,8.057,8.083,8.93,13.741" transform="translate(-2.876 -101.977)" fill="#e1c4c3"/>
            <path id="Trazado_161198" data-name="Trazado 161198" d="M22.8,331.577a20.472,20.472,0,0,1,.1-7.433,10.051,10.051,0,0,1,3.959-6.133,8.769,8.769,0,0,1-.1,5.827,28.327,28.327,0,0,1-3.926,8.266" transform="translate(-7.234 -102.161)" fill="#e1c4c3"/>
            <path id="Trazado_161199" data-name="Trazado 161199" d="M24.229,349.676a12.953,12.953,0,0,0-7.029,3.557,13.3,13.3,0,0,0-4.021,6.9c2.634-.162,4.869-2.02,6.49-4.1s2.744-4.368,4.524-6.316" transform="translate(-4.234 -112.333)" fill="#e1c4c3"/>
            <path id="Trazado_161200" data-name="Trazado 161200" d="M30.3,343.782a17.337,17.337,0,0,1,2-16.4,20.876,20.876,0,0,1-2,16.4" transform="translate(-9.346 -105.172)" fill="#e1c4c3"/>
            <path id="Trazado_161201" data-name="Trazado 161201" d="M33.727,361.787a12.535,12.535,0,0,0-11.987,6.9c-.149.3-.28.674-.081.94a.891.891,0,0,0,.795.233,10.43,10.43,0,0,0,6.183-3.193,59.284,59.284,0,0,1,5.142-4.888" transform="translate(-6.926 -116.216)" fill="#e1c4c3"/>
            <path id="Trazado_161202" data-name="Trazado 161202" d="M38.736,353.379a22.326,22.326,0,0,1-.223-12.471c.439-1.605,1.177-3.3,2.661-4.048a.52.52,0,0,1,.407-.071.539.539,0,0,1,.257.3,7.513,7.513,0,0,1,.627,3.578,22.457,22.457,0,0,1-.561,3.622c-.468,2.213-.716,4.592-1.93,6.5a13.336,13.336,0,0,0-.772,1.428c-.23.485-.231.656-.442,1.042" transform="translate(-12.122 -108.187)" fill="#e1c4c3"/>
            <path id="Trazado_161203" data-name="Trazado 161203" d="M61.8,358.134a16.078,16.078,0,0,1,2.818-13.221c.2-.263.47-.546.8-.514.506.047.637.721.615,1.229A23.893,23.893,0,0,1,61.8,358.134" transform="translate(-19.716 -110.637)" fill="#e1c4c3"/>
            <path id="Trazado_161204" data-name="Trazado 161204" d="M64.061,363.878a19.23,19.23,0,0,0,15.781-3.21A12.777,12.777,0,0,0,71.3,359.62a12.186,12.186,0,0,0-7.238,4.258" transform="translate(-20.58 -115.427)" fill="#e1c4c3"/>
            <path id="Trazado_161205" data-name="Trazado 161205" d="M65.794,357.843a18.237,18.237,0,0,1,14.322-8.281,8.822,8.822,0,0,1-4.685,5.179,26.006,26.006,0,0,1-6.875,2.01,4.849,4.849,0,0,0-2.763,1.092" transform="translate(-21.136 -112.297)" fill="#e1c4c3"/>
            <path id="Trazado_161206" data-name="Trazado 161206" d="M61.466,333.111a41.592,41.592,0,0,0,1.832-8.388,13.965,13.965,0,0,0-1.671-8.3,18.263,18.263,0,0,0-.244,16.972" transform="translate(-19.085 -101.652)" fill="#e1c4c3"/>
            <path id="Trazado_161207" data-name="Trazado 161207" d="M76.187,328.733c3.241-5.89,9.853-10.6,16.544-11.254-2.581,6.426-9.62,11.392-16.544,11.254" transform="translate(-24.475 -101.99)" fill="#e1c4c3"/>
            <path id="Trazado_161208" data-name="Trazado 161208" d="M73.183,335.3c4.833.736,8.951,3.823,13.468,5.695a6.033,6.033,0,0,0,3.044.583,2.384,2.384,0,0,0,1.493-4.216,6.506,6.506,0,0,0-2.211-1.341,24.573,24.573,0,0,0-15.378-.857" transform="translate(-23.51 -107.405)" fill="#e1c4c3"/>
            <path id="Trazado_161209" data-name="Trazado 161209" d="M69.062,340.644a5.708,5.708,0,0,1,2.335,1.618,25.191,25.191,0,0,0,10.213,5.246c.39.1.9.136,1.095-.217.169-.308-.045-.681-.264-.955a14.055,14.055,0,0,0-6.166-4.186c-2.357-.878-4.4-1.936-7.212-1.708" transform="translate(-22.186 -109.357)" fill="#e1c4c3"/>
            <path id="Trazado_161210" data-name="Trazado 161210" d="M64.412,310.342a19.329,19.329,0,0,0,14.818,5.042,1.013,1.013,0,0,0,.675-.242c.373-.406-.075-1.032-.509-1.371a17.072,17.072,0,0,0-14.984-3.428" transform="translate(-20.692 -99.529)" fill="#e1c4c3"/>
            <path id="Trazado_161211" data-name="Trazado 161211" d="M69.925,306.667a20.651,20.651,0,0,1,18.491-3.051,14.678,14.678,0,0,1-8.811,3.868,27.877,27.877,0,0,1-9.68-.817" transform="translate(-22.463 -97.224)" fill="#e1c4c3"/>
            <path id="Trazado_161212" data-name="Trazado 161212" d="M66.552,288.521c-.428-4.349-.15-7.781-.452-12.15-.024-.349-.1-.769-.426-.895-.455-.175-.834.383-.983.848a13.926,13.926,0,0,0,1.854,12.1" transform="translate(-20.577 -88.486)" fill="#e1c4c3"/>
            <path id="Trazado_161213" data-name="Trazado 161213" d="M67.273,288.949a25.565,25.565,0,0,0,7.2-7c1.423-1.947,2.622-4.279,2.3-6.668a6.9,6.9,0,0,0-5.2,2.581,14.5,14.5,0,0,0-2.648,5.329c-.577,1.913-.981,3.88-1.658,5.76" transform="translate(-21.611 -88.433)" fill="#e1c4c3"/>
            <path id="Trazado_161214" data-name="Trazado 161214" d="M77.656,287.367a58.079,58.079,0,0,0,17.727-10.453c-2.117-.853-4.542-.343-6.659.512a21,21,0,0,0-11.161,9.893" transform="translate(-24.917 -88.818)" fill="#e1c4c3"/>
            <path id="Trazado_161215" data-name="Trazado 161215" d="M70.205,296.5a36.059,36.059,0,0,0,9.843.048,41.784,41.784,0,0,0,9.19-3.054,1.08,1.08,0,0,0,.624-.474.719.719,0,0,0-.224-.787,1.9,1.9,0,0,0-.783-.367,17.02,17.02,0,0,0-9.931.593,46.088,46.088,0,0,0-8.719,4.04" transform="translate(-22.553 -93.602)" fill="#e1c4c3"/>
            <path id="Trazado_161216" data-name="Trazado 161216" d="M41.9,303.989a17.411,17.411,0,0,1-.159-14.411,11.011,11.011,0,0,1,1.275,7.165c-.248,2.462-1,5-1.047,7.47" transform="translate(-12.933 -93.027)" fill="#e1c4c3"/>
            <path id="Trazado_161217" data-name="Trazado 161217" d="M22.465,304.18A20.1,20.1,0,0,0,7.53,310.543a13.955,13.955,0,0,0,8.178-1.516,41.629,41.629,0,0,0,7.008-4.691" transform="translate(-2.419 -97.717)" fill="#e1c4c3"/>
            <path id="Trazado_161218" data-name="Trazado 161218" d="M14.05,301.1c-2.727-.221-5.351-.559-7.973.245A9.562,9.562,0,0,0,0,306.5a14.4,14.4,0,0,0,7.475-1.412A42.96,42.96,0,0,0,14.05,301.1" transform="translate(0 -96.645)" fill="#e1c4c3"/>
            <path id="Trazado_161219" data-name="Trazado 161219" d="M26.213,299.381c-2.453-1.607-4.973-3.244-7.829-3.91s-6.166-.174-8.159,1.979c2.313,1.357,5.118,1.517,7.8,1.515s5.968-.033,8.5.862" transform="translate(-3.285 -94.831)" fill="#e1c4c3"/>
            <path id="Trazado_161220" data-name="Trazado 161220" d="M31.549,293.437c-4.194-4.119-5.784-11.516-4.1-17.147a26.127,26.127,0,0,1,4.1,17.147" transform="translate(-8.606 -88.758)" fill="#e1c4c3"/>
            <path id="Trazado_161221" data-name="Trazado 161221" d="M50.793,277.956c.791-1.839,1.347-3.769,2.057-5.64a16.2,16.2,0,0,1,2.933-5.2,7.72,7.72,0,0,1,5.194-2.692A20.918,20.918,0,0,1,50.9,277.985" transform="translate(-16.317 -84.946)" fill="#e1c4c3"/>
            <path id="Trazado_161222" data-name="Trazado 161222" d="M42.583,284.446c-1.309-1.8-2.822-4.247-4.6-5.592a7.689,7.689,0,0,0-6.253-1.642,14.566,14.566,0,0,0,10.849,7.234" transform="translate(-10.195 -89.004)" fill="#e1c4c3"/>
            <path id="Trazado_161223" data-name="Trazado 161223" d="M47.282,278.186a31.1,31.1,0,0,1-2.069-6.7,10.454,10.454,0,0,1,1.049-6.813c2.3,4.351,3.044,9.023,1.138,13.563" transform="translate(-14.476 -85.026)" fill="#e1c4c3"/>
            <path id="Trazado_161224" data-name="Trazado 161224" d="M50.824,260.308c1.3-4.314,5.254-7.491,9.519-8.948a3.547,3.547,0,0,1,1.668-.25,1.449,1.449,0,0,1,1.231,1.027c.155.734-.451,1.391-1.021,1.879a32.407,32.407,0,0,1-11.4,6.293" transform="translate(-16.327 -80.661)" fill="#e1c4c3"/>
            <path id="Trazado_161225" data-name="Trazado 161225" d="M50.861,252.612a30.9,30.9,0,0,1,1.244-8.239,10.416,10.416,0,0,1,5.185-6.261c.432,2.809-.808,5.6-2.3,8.021s-3.3,4.7-4.195,7.4" transform="translate(-16.317 -76.493)" fill="#e1c4c3"/>
            <path id="Trazado_161226" data-name="Trazado 161226" d="M46.964,255.138c-1.078-3.144-1.189-7.138-3.072-9.876-1.316-1.915-3.424-3.219-4.557-5.247a7.984,7.984,0,0,0,.265,5.957,17.239,17.239,0,0,0,3.483,4.986c1.393,1.488,2.586,2.607,3.881,4.181" transform="translate(-12.489 -77.104)" fill="#e1c4c3"/>
            <path id="Trazado_161227" data-name="Trazado 161227" d="M50.747,354.368c-.083,0-.156-20.974-.162-46.841s.058-46.845.141-46.845.156,20.969.162,46.845-.058,46.841-.141,46.841" transform="translate(-16.25 -83.744)" fill="#e1c4c3"/>
            <path id="Trazado_161228" data-name="Trazado 161228" d="M69.139,306.144a4.42,4.42,0,0,1-.789.3l-2.17.732c-1.83.623-4.344,1.526-7.072,2.644-2.7,1.159-5.249,2.1-6.7,3.356a4.934,4.934,0,0,0-1.347,1.781c-.207.493-.245.794-.273.789a.634.634,0,0,1,.01-.22,3.4,3.4,0,0,1,.153-.612,4.736,4.736,0,0,1,1.314-1.9,11.789,11.789,0,0,1,2.907-1.806c1.163-.542,2.452-1.108,3.82-1.671,2.737-1.121,5.27-1.995,7.121-2.567.924-.288,1.679-.5,2.2-.641a4.457,4.457,0,0,1,.823-.183" transform="translate(-16.314 -98.347)" fill="#e1c4c3"/>
            <path id="Trazado_161229" data-name="Trazado 161229" d="M75.831,284.4a1.286,1.286,0,0,1-.221.236l-.673.632-2.513,2.283L64.061,295c-3.264,2.906-6.085,5.682-8.04,7.772-.979,1.045-1.75,1.909-2.276,2.513l-.607.694a1.333,1.333,0,0,1-.227.23,1.276,1.276,0,0,1,.179-.269c.127-.168.312-.42.565-.731.5-.629,1.248-1.517,2.209-2.582a105.934,105.934,0,0,1,8-7.854c3.276-2.9,6.257-5.5,8.423-7.381l2.577-2.21.711-.59a1.305,1.305,0,0,1,.261-.19" transform="translate(-16.997 -91.365)" fill="#e1c4c3"/>
            <path id="Trazado_161230" data-name="Trazado 161230" d="M64.144,300.933c-.086-.038.6-1.613,1.276-3.6s1.008-3.671,1.095-3.657a12.267,12.267,0,0,1-.808,3.754,24.552,24.552,0,0,1-1.015,2.521,3.912,3.912,0,0,1-.548.986" transform="translate(-20.604 -94.342)" fill="#e1c4c3"/>
            <path id="Trazado_161231" data-name="Trazado 161231" d="M45.1,315.824a3.74,3.74,0,0,1-.5-.584l-1.289-1.653c-1.083-1.4-2.579-3.331-4.256-5.444s-3.22-4.01-4.337-5.382l-1.317-1.63a3.807,3.807,0,0,1-.455-.622,3.716,3.716,0,0,1,.544.546c.336.364.812.9,1.391,1.569,1.16,1.338,2.729,3.215,4.41,5.331s3.151,4.071,4.191,5.5c.52.716.934,1.3,1.212,1.711a3.8,3.8,0,0,1,.408.654" transform="translate(-10.582 -96.538)" fill="#e1c4c3"/>
            <path id="Trazado_161232" data-name="Trazado 161232" d="M43.944,312.471a7.388,7.388,0,0,1-1.684-3.152,9.008,9.008,0,0,1-.381-3.177l.134.011c-.06.242-.1.371-.128.367s-.025-.139-.005-.388l.134.011a14.464,14.464,0,0,0,.538,3.091,23.548,23.548,0,0,0,1.393,3.238" transform="translate(-13.447 -98.344)" fill="#e1c4c3"/>
            <path id="Trazado_161233" data-name="Trazado 161233" d="M32.99,305.246a5.414,5.414,0,0,0-1.176-.683,7.852,7.852,0,0,0-3.263-.259,20.15,20.15,0,0,0-3.287.53,9.862,9.862,0,0,1-1.352.324,4.693,4.693,0,0,1,1.294-.531A14.989,14.989,0,0,1,28.528,304a7.122,7.122,0,0,1,3.367.363,2.081,2.081,0,0,1,1.095.882" transform="translate(-7.682 -97.646)" fill="#e1c4c3"/>
            <path id="Trazado_161234" data-name="Trazado 161234" d="M29.438,302.614c-.023.047-.685-.274-1.8-.656a18.123,18.123,0,0,0-9.076-.692c-1.161.208-1.864.426-1.879.375a1.719,1.719,0,0,1,.477-.2,11.306,11.306,0,0,1,1.36-.381,16.018,16.018,0,0,1,9.191.7A11.166,11.166,0,0,1,29,302.34a1.7,1.7,0,0,1,.441.274" transform="translate(-5.359 -96.595)" fill="#e1c4c3"/>
            <path id="Trazado_161235" data-name="Trazado 161235" d="M49.684,289.318a74.294,74.294,0,0,1-2.333-9.2,37.339,37.339,0,0,1,1.313,4.563,37.212,37.212,0,0,1,1.019,4.637" transform="translate(-15.209 -89.988)" fill="#e1c4c3"/>
            <path id="Trazado_161236" data-name="Trazado 161236" d="M49.212,291.33a21.932,21.932,0,0,0-1.456-2.731,12,12,0,0,0-2.142-2.211,2.008,2.008,0,0,1,.827.427A6.657,6.657,0,0,1,48,288.425a6.053,6.053,0,0,1,1.207,2.906" transform="translate(-14.653 -92)" fill="#e1c4c3"/>
            <path id="Trazado_161237" data-name="Trazado 161237" d="M41.73,367.747c-.033,0-.094-.5-.331-1.395a19.888,19.888,0,0,0-1.4-3.631,50.288,50.288,0,0,0-7.436-10.477c-1.66-1.9-3.271-3.686-4.638-5.4a37.916,37.916,0,0,1-3.317-4.783,22.977,22.977,0,0,1-1.674-3.551c-.153-.436-.267-.779-.329-1.015a1.687,1.687,0,0,1-.086-.362c.027-.009.18.48.525,1.336a25.966,25.966,0,0,0,1.749,3.483,40.229,40.229,0,0,0,3.349,4.717c1.372,1.694,2.986,3.475,4.649,5.375a47.6,47.6,0,0,1,7.4,10.582,18.056,18.056,0,0,1,1.323,3.7,10.071,10.071,0,0,1,.186,1.052,1.75,1.75,0,0,1,.031.371" transform="translate(-7.233 -108.304)" fill="#e1c4c3"/>
            <path id="Trazado_161238" data-name="Trazado 161238" d="M67.385,354.674a7.592,7.592,0,0,1-.868.487,18.984,18.984,0,0,0-2.251,1.489,25.788,25.788,0,0,0-2.957,2.7c-1.038,1.1-2.107,2.37-3.2,3.734-2.182,2.737-4.222,5.159-5.444,7.092-.62.959-1.071,1.767-1.366,2.335a7.573,7.573,0,0,1-.478.874.814.814,0,0,1,.08-.246c.064-.156.152-.39.292-.68a22.112,22.112,0,0,1,1.291-2.4,78.133,78.133,0,0,1,5.389-7.168c1.093-1.366,2.175-2.642,3.233-3.737a23.985,23.985,0,0,1,3.03-2.675,15.815,15.815,0,0,1,2.325-1.421c.287-.145.522-.233.677-.3a.834.834,0,0,1,.245-.083" transform="translate(-16.326 -113.938)" fill="#e1c4c3"/>
            <path id="Trazado_161239" data-name="Trazado 161239" d="M70.285,363.605a12.593,12.593,0,0,1-1.835.267,24.2,24.2,0,0,0-4.351.857,13.072,13.072,0,0,0-3.9,2.045c-.9.694-1.322,1.268-1.363,1.234a1.4,1.4,0,0,1,.271-.422,6.967,6.967,0,0,1,.956-.978,11.8,11.8,0,0,1,3.939-2.167,19.689,19.689,0,0,1,4.423-.782,10.11,10.11,0,0,1,1.856-.053" transform="translate(-18.902 -116.801)" fill="#e1c4c3"/>
            <path id="Trazado_161240" data-name="Trazado 161240" d="M59.626,366.178c-.1-.054.731-1.317,1.372-3.015.6-1.715.742-3.218.85-3.2a2.889,2.889,0,0,1-.03.984,10.577,10.577,0,0,1-.536,2.32,11.193,11.193,0,0,1-1.064,2.127,2.956,2.956,0,0,1-.593.785" transform="translate(-19.152 -115.638)" fill="#e1c4c3"/>
            <path id="Trazado_161241" data-name="Trazado 161241" d="M72.753,330.669a1.388,1.388,0,0,1-.294.156l-.862.392c-.377.162-.836.368-1.353.639s-1.123.542-1.753.921l-1,.569c-.347.2-.69.436-1.055.664-.738.449-1.477,1-2.266,1.562a38.875,38.875,0,0,0-8.727,9.031c-.536.808-1.061,1.565-1.483,2.319-.216.372-.441.724-.629,1.077l-.534,1.019c-.356.643-.612,1.256-.861,1.784s-.444.99-.593,1.373l-.362.875a1.418,1.418,0,0,1-.146.3,1.319,1.319,0,0,1,.088-.32l.31-.9c.132-.391.307-.865.548-1.4s.479-1.16.825-1.812q.249-.5.521-1.035c.183-.358.4-.715.617-1.093.416-.763.937-1.531,1.47-2.35a37.478,37.478,0,0,1,8.791-9.1c.8-.561,1.549-1.108,2.3-1.548.371-.226.719-.46,1.072-.656l1.017-.555c.64-.369,1.255-.633,1.783-.886s.993-.449,1.379-.6c.359-.138.652-.249.886-.34a1.353,1.353,0,0,1,.316-.1" transform="translate(-16.329 -106.227)" fill="#e1c4c3"/>
            <path id="Trazado_161242" data-name="Trazado 161242" d="M63.815,342.574a2.111,2.111,0,0,1,.721-1.073,4.546,4.546,0,0,1,2.9-1.115,7.946,7.946,0,0,1,3.056.6,4.341,4.341,0,0,1,1.155.561,7.154,7.154,0,0,1-1.226-.359,9.238,9.238,0,0,0-2.976-.5,4.73,4.73,0,0,0-2.774.974,8.428,8.428,0,0,0-.861.911" transform="translate(-20.499 -109.348)" fill="#e1c4c3"/>
            <path id="Trazado_161243" data-name="Trazado 161243" d="M60.926,343.992a7.753,7.753,0,0,0,.64-5.484,1.786,1.786,0,0,1,.34.781,5.547,5.547,0,0,1-.469,4.02c-.256.464-.482.7-.511.682" transform="translate(-19.57 -108.745)" fill="#e1c4c3"/>
            <path id="Trazado_161244" data-name="Trazado 161244" d="M29.482,386.664c.452,8.015,2.867,16.167,6.583,24.409H52.22a70.189,70.189,0,0,0,6.192-24.409Z" transform="translate(-9.471 -124.215)" fill="#e1c4c3"/>
            <path id="Trazado_161245" data-name="Trazado 161245" d="M57,405.7c0,.083-5.319.151-11.879.151s-11.881-.068-11.881-.151,5.318-.151,11.881-.151S57,405.618,57,405.7" transform="translate(-10.678 -130.283)" fill="#fadad8"/>
            <path id="Trazado_161246" data-name="Trazado 161246" d="M57.172,409.979c0,.084-4.987.151-11.137.151s-11.138-.068-11.138-.151,4.985-.151,11.138-.151,11.137.068,11.137.151" transform="translate(-11.211 -131.657)" fill="#fadad8"/>
            <path id="Trazado_161247" data-name="Trazado 161247" d="M39.492,394.418a45.819,45.819,0,0,1,0,7.443,45.82,45.82,0,0,1,0-7.443" transform="translate(-12.638 -126.706)" fill="#fadad8"/>
            <path id="Trazado_161248" data-name="Trazado 161248" d="M52.245,394.418a49.133,49.133,0,0,1,0,7.707,49.131,49.131,0,0,1,0-7.707" transform="translate(-16.735 -126.706)" fill="#fadad8"/>
            <path id="Trazado_161249" data-name="Trazado 161249" d="M64.217,394.321a51.113,51.113,0,0,1,0,7.861,51.113,51.113,0,0,1,0-7.861" transform="translate(-20.581 -126.675)" fill="#fadad8"/>
            <path id="Trazado_161250" data-name="Trazado 161250" d="M58.158,394.346c0,.083-6.239.151-13.933.151s-13.935-.068-13.935-.151,6.238-.151,13.935-.151,13.933.068,13.933.151" transform="translate(-9.731 -126.635)" fill="#fadad8"/>
            <rect id="Rectángulo_9238" data-name="Rectángulo 9238" width="64.766" height="93.876" transform="translate(6.371 24.636)" fill="#e1c4c3"/>
            <rect id="Rectángulo_9239" data-name="Rectángulo 9239" width="64.766" height="93.876" transform="translate(3.127 24.636)" fill="#f5d4d2"/>
            <rect id="Rectángulo_9240" data-name="Rectángulo 9240" width="48.673" height="73.541" transform="translate(11.174 34.803)" fill="#fff"/>
            <path id="Trazado_161251" data-name="Trazado 161251" d="M65.051,124.733s-.006-.124-.01-.36-.005-.589-.009-1.043c0-.924-.011-2.277-.02-4.034-.01-3.525-.025-8.661-.043-15.149-.02-12.968-.047-31.331-.079-52.955l.162.162-48.667.014h-.005l.176-.176c-.014,27.743-.026,53.321-.036,73.541l-.14-.141,35.427.074,9.788.036,2.569.016c.582,0,.888.015.888.015s-.286.01-.859.015l-2.543.016-9.756.035-35.514.074h-.141v-.141c-.01-20.219-.022-45.8-.036-73.541v-.176h.182l48.667.014h.162v.162c-.033,21.668-.06,40.067-.079,53.061-.018,6.473-.033,11.6-.043,15.112-.009,1.742-.015,3.085-.02,4,0,.446-.007.786-.009,1.025s-.009.341-.009.341" transform="translate(-5.205 -16.389)" fill="#e1c4c3"/>
            <path id="Trazado_161252" data-name="Trazado 161252" d="M96.119,36.3a11.181,11.181,0,0,1-1.155,1.677c-.752,1.006-1.82,2.375-3.039,3.855s-2.358,2.79-3.2,3.722A11.128,11.128,0,0,1,87.3,47a12.2,12.2,0,0,1,1.236-1.616L91.654,41.6l3.115-3.785a12.039,12.039,0,0,1,1.35-1.523" transform="translate(-28.044 -11.66)" fill="#e1c4c3"/>
            <path id="Trazado_161253" data-name="Trazado 161253" d="M88.536,159.274a60.27,60.27,0,0,0,8.489,10.617" transform="translate(-28.442 -51.167)" fill="#fff"/>
            <path id="Trazado_161254" data-name="Trazado 161254" d="M97.025,169.891a9.663,9.663,0,0,1-1.48-1.347,47.463,47.463,0,0,1-6.022-7.531,9.668,9.668,0,0,1-.988-1.74,13.417,13.417,0,0,1,1.194,1.6c.714,1,1.717,2.373,2.888,3.838s2.288,2.744,3.109,3.661a13.4,13.4,0,0,1,1.3,1.517" transform="translate(-28.441 -51.166)" fill="#e1c4c3"/>
            <path id="Trazado_161255" data-name="Trazado 161255" d="M4.593,169.539l8.483-10.467" transform="translate(-1.475 -51.102)" fill="#fff"/>
            <path id="Trazado_161256" data-name="Trazado 161256" d="M13.075,159.072a64.533,64.533,0,0,1-4.1,5.344,64.74,64.74,0,0,1-4.379,5.123A64.348,64.348,0,0,1,8.7,164.195a64.545,64.545,0,0,1,4.378-5.123" transform="translate(-1.474 -51.102)" fill="#e1c4c3"/>
            <path id="Trazado_161257" data-name="Trazado 161257" d="M4.606,36.3a58.351,58.351,0,0,1,4.117,4.922,58.4,58.4,0,0,1,3.842,5.142,58.821,58.821,0,0,1-4.118-4.923A58.741,58.741,0,0,1,4.606,36.3" transform="translate(-1.479 -11.659)" fill="#e1c4c3"/>
            <rect id="Rectángulo_9241" data-name="Rectángulo 9241" width="16.297" height="46.273" transform="translate(28.384 49.735)" fill="#e1c4c3"/>
            <path id="Trazado_161258" data-name="Trazado 161258" d="M310.684,422.77c0,.1-67.84.177-151.505.177-83.695,0-151.52-.079-151.52-.177s67.825-.176,151.52-.176c83.666,0,151.505.079,151.505.176" transform="translate(-2.46 -135.758)" fill="#2a3135"/>
            <path id="Trazado_161259" data-name="Trazado 161259" d="M292.215,295.858H99.29V29.036H292.215a7.3,7.3,0,0,1,7.3,7.3V288.556a7.3,7.3,0,0,1-7.3,7.3" transform="translate(-31.897 -9.328)" fill="#c85f5e"/>
            <g id="Grupo_72146" data-name="Grupo 72146" transform="translate(67.393 19.708)" opacity="0.3">
              <g id="Grupo_72145" data-name="Grupo 72145">
                <g id="Grupo_72144" data-name="Grupo 72144" clip-path="url(#clip-path-3)">
                  <path id="Trazado_161260" data-name="Trazado 161260" d="M292.215,295.858H99.29V29.036H292.215a7.3,7.3,0,0,1,7.3,7.3V288.556a7.3,7.3,0,0,1-7.3,7.3" transform="translate(-99.29 -29.036)" fill="#c85f5e"/>
                </g>
              </g>
            </g>
            <rect id="Rectángulo_9243" data-name="Rectángulo 9243" width="107.041" height="258.557" transform="translate(155.031 27.973)" fill="#e1e1e1"/>
            <path id="Trazado_161261" data-name="Trazado 161261" d="M277.358,294.863H98.065V25.939H277.358a7.3,7.3,0,0,1,7.3,7.3v254.32a7.3,7.3,0,0,1-7.3,7.3" transform="translate(-31.503 -8.333)" fill="#eb9595"/>
            <path id="Trazado_161262" data-name="Trazado 161262" d="M126.233,295.35c-.1,0-.176-60.314-.176-134.7,0-74.41.079-134.712.176-134.712s.176,60.3.176,134.712c0,74.384-.079,134.7-.176,134.7" transform="translate(-40.496 -8.333)" fill="#1a2e35"/>
            <path id="Trazado_161263" data-name="Trazado 161263" d="M133.66,295.35c-.1,0-.176-60.314-.176-134.7,0-74.41.079-134.712.176-134.712s.176,60.3.176,134.712c0,74.384-.079,134.7-.176,134.7" transform="translate(-42.882 -8.333)" fill="#1a2e35"/>
            <path id="Trazado_161264" data-name="Trazado 161264" d="M192.554,131.049l-.045-8.426-4.088,6.859h-2l-4.066-6.632v8.2H178.2v-15.9h3.7l5.587,9.176,5.451-9.176h3.7l.045,15.9Z" transform="translate(-57.247 -36.992)" fill="#fff"/>
            <path id="Trazado_161265" data-name="Trazado 161265" d="M219.875,127.96h-6.722l-1.25,3.088h-4.588l7.018-15.9h4.429l7.041,15.9h-4.679Zm-1.317-3.316-2.044-5.088-2.044,5.088Z" transform="translate(-66.6 -36.992)" fill="#fff"/>
            <path id="Trazado_161266" data-name="Trazado 161266" d="M251.557,115.15v15.9h-3.7l-7.018-8.472v8.472h-4.406v-15.9h3.7l7.018,8.471V115.15Z" transform="translate(-75.953 -36.992)" fill="#fff"/>
            <path id="Trazado_161267" data-name="Trazado 161267" d="M263.2,123.962V115.15h4.5v8.676c0,2.726,1.136,3.816,3.02,3.816,1.862,0,3-1.09,3-3.816V115.15h4.43v8.812c0,4.747-2.771,7.4-7.473,7.4s-7.472-2.657-7.472-7.4" transform="translate(-84.553 -36.992)" fill="#fff"/>
            <path id="Trazado_161268" data-name="Trazado 161268" d="M298.955,127.96h-6.722l-1.25,3.088h-4.588l7.018-15.9h4.43l7.041,15.9H300.2Zm-1.317-3.316-2.044-5.088-2.044,5.088Z" transform="translate(-92.004 -36.992)" fill="#fff"/>
            <path id="Trazado_161269" data-name="Trazado 161269" d="M315.51,115.15h4.5v12.333h7.586v3.566H315.51Z" transform="translate(-101.357 -36.992)" fill="#fff"/>
            <g id="Grupo_72149" data-name="Grupo 72149" transform="translate(85.738 17.606)" opacity="0.3">
              <g id="Grupo_72148" data-name="Grupo 72148">
                <g id="Grupo_72147" data-name="Grupo 72147" clip-path="url(#clip-path-4)">
                  <rect id="Rectángulo_9244" data-name="Rectángulo 9244" width="5.041" height="269.411"/>
                </g>
              </g>
            </g>
            <path id="Trazado_161270" data-name="Trazado 161270" d="M289.885,56.722V25.94h29.643V57.292L304.991,71.829Z" transform="translate(-93.125 -8.333)" fill="#964747"/>
            <path id="Trazado_161271" data-name="Trazado 161271" d="M376.825,41.213c.1,0,.176,57.26.176,127.877,0,70.642-.079,127.889-.176,127.889s-.176-57.247-.176-127.889c0-70.617.079-127.877.176-127.877" transform="translate(-120.998 -13.24)" fill="#1a2e35"/>
            <path id="Trazado_161272" data-name="Trazado 161272" d="M381.3,41.213c.1,0,.176,57.26.176,127.877,0,70.642-.079,127.889-.176,127.889s-.176-57.247-.176-127.889c0-70.617.079-127.877.176-127.877" transform="translate(-122.434 -13.24)" fill="#1a2e35"/>
            <path id="Trazado_161273" data-name="Trazado 161273" d="M376.909,96.021h7.428l6.784,5.146-6.082,6.082h-8.129Z" transform="translate(-121.082 -30.847)" fill="#964747"/>
            <rect id="Rectángulo_9246" data-name="Rectángulo 9246" width="14.022" height="9.338" transform="translate(258.861 87.22)" fill="#eb9595"/>
            <g id="Grupo_72152" data-name="Grupo 72152" transform="translate(134.761 138.203)" opacity="0.3">
              <g id="Grupo_72151" data-name="Grupo 72151">
                <g id="Grupo_72150" data-name="Grupo 72150" clip-path="url(#clip-path-5)">
                  <path id="Trazado_161274" data-name="Trazado 161274" d="M268.4,263.612l-8.377,8.167a2.218,2.218,0,0,1-3.081.015L199.227,216.57a2.217,2.217,0,0,1-.069-3.135L207.9,204.3a2.217,2.217,0,0,1,3.154-.051l57.352,56.193a2.218,2.218,0,0,1,0,3.172" transform="translate(-198.543 -203.614)"/>
                </g>
              </g>
            </g>
            <path id="Trazado_161275" data-name="Trazado 161275" d="M219.979,210.025a35.832,35.832,0,0,1-4.892,5.088,35.823,35.823,0,0,1,4.892-5.088" transform="translate(-69.095 -67.469)" fill="#1a2e35"/>
            <path id="Trazado_161276" data-name="Trazado 161276" d="M233.494,223.043a35.829,35.829,0,0,1-4.892,5.088,35.824,35.824,0,0,1,4.892-5.088" transform="translate(-73.437 -71.651)" fill="#1a2e35"/>
            <path id="Trazado_161277" data-name="Trazado 161277" d="M225.633,215.982a64.248,64.248,0,0,1-6.584,6.78,64.249,64.249,0,0,1,6.584-6.78" transform="translate(-70.368 -69.383)" fill="#1a2e35"/>
            <path id="Trazado_161278" data-name="Trazado 161278" d="M239.522,229.87a64.253,64.253,0,0,1-6.584,6.78,64.069,64.069,0,0,1,6.584-6.78" transform="translate(-74.83 -73.845)" fill="#1a2e35"/>
            <path id="Trazado_161279" data-name="Trazado 161279" d="M246.708,236.257a35.821,35.821,0,0,1-4.892,5.088,35.83,35.83,0,0,1,4.892-5.088" transform="translate(-77.682 -75.896)" fill="#1a2e35"/>
            <path id="Trazado_161280" data-name="Trazado 161280" d="M252.735,243.084a64.247,64.247,0,0,1-6.584,6.78,64.067,64.067,0,0,1,6.584-6.78" transform="translate(-79.075 -78.09)" fill="#1a2e35"/>
            <path id="Trazado_161281" data-name="Trazado 161281" d="M259.921,249.47a35.828,35.828,0,0,1-4.892,5.088,35.823,35.823,0,0,1,4.892-5.088" transform="translate(-81.927 -80.141)" fill="#1a2e35"/>
            <path id="Trazado_161282" data-name="Trazado 161282" d="M265.949,256.3a64.254,64.254,0,0,1-6.584,6.78,64.074,64.074,0,0,1,6.584-6.78" transform="translate(-83.32 -82.334)" fill="#1a2e35"/>
            <path id="Trazado_161283" data-name="Trazado 161283" d="M273.135,262.684a35.825,35.825,0,0,1-4.892,5.088,35.83,35.83,0,0,1,4.892-5.088" transform="translate(-86.172 -84.386)" fill="#1a2e35"/>
            <path id="Trazado_161284" data-name="Trazado 161284" d="M279.162,269.511a64.35,64.35,0,0,1-6.585,6.78,63.985,63.985,0,0,1,6.585-6.78" transform="translate(-87.565 -86.579)" fill="#1a2e35"/>
            <path id="Trazado_161285" data-name="Trazado 161285" d="M286.348,275.9a35.832,35.832,0,0,1-4.892,5.088,35.828,35.828,0,0,1,4.892-5.088" transform="translate(-90.416 -88.631)" fill="#1a2e35"/>
            <g id="Grupo_72155" data-name="Grupo 72155" transform="translate(174.16 137.472)" opacity="0.3">
              <g id="Grupo_72154" data-name="Grupo 72154">
                <g id="Grupo_72153" data-name="Grupo 72153" clip-path="url(#clip-path-6)">
                  <path id="Trazado_161286" data-name="Trazado 161286" d="M256.589,226.407l8.082,7.574,5.452-5.343s8.74,2.687,14.356-3.489c5.1-5.612,3.585-13.779,3.585-13.779l-9.4,8.3-7.962-7.963,8.4-8.706a14.432,14.432,0,0,0-14.645,4.658C259.392,213.377,262,220.9,262,220.9Z" transform="translate(-256.589 -202.537)"/>
                </g>
              </g>
            </g>
            <g id="Grupo_72158" data-name="Grupo 72158" transform="translate(132.74 175.89)" opacity="0.3">
              <g id="Grupo_72157" data-name="Grupo 72157">
                <g id="Grupo_72156" data-name="Grupo 72156" clip-path="url(#clip-path-7)">
                  <path id="Trazado_161287" data-name="Trazado 161287" d="M226.957,266.69c-.2-.352-8.068-7.553-8.068-7.553l-5.112,5.009s-9.606-1.909-14.356,3.489c-5.323,6.05-3.584,13.779-3.584,13.779l9.4-8.3,7.962,7.963-8.4,8.706a14.431,14.431,0,0,0,14.645-4.657c5.055-5.72,2.446-13.246,2.446-13.246Z" transform="translate(-195.565 -259.138)"/>
                </g>
              </g>
            </g>
            <path id="Trazado_161288" data-name="Trazado 161288" d="M285.828,378.239c0,.1-25.48.176-56.9.176s-56.908-.079-56.908-.176,25.474-.176,56.908-.176,56.9.079,56.9.176" transform="translate(-55.261 -121.452)" fill="#fff"/>
            <path id="Trazado_161289" data-name="Trazado 161289" d="M276.3,386.222c0,.1-16.756.176-37.42.176s-37.423-.079-37.423-.176,16.752-.176,37.423-.176,37.42.079,37.42.176" transform="translate(-64.718 -124.017)" fill="#fff"/>
            <rect id="Rectángulo_9250" data-name="Rectángulo 9250" width="8.968" height="8.969" transform="translate(169.179 267.415)" fill="#e1e1e1"/>
            <path id="Trazado_161290" data-name="Trazado 161290" d="M103.475,403.939l-1.885,13.719s13.312,6.523,13.211,9.093l-26.732-2.7,2.059-21.5Z" transform="translate(-28.292 -129.32)" fill="#375a64"/>
            <path id="Trazado_161291" data-name="Trazado 161291" d="M95.565,421.858a1.1,1.1,0,0,0-.881,1.17,1.055,1.055,0,0,0,1.152.883,1.157,1.157,0,0,0,.926-1.243,1.1,1.1,0,0,0-1.3-.786" transform="translate(-30.415 -135.513)" fill="#e1e1e1"/>
            <g id="Grupo_72161" data-name="Grupo 72161" transform="translate(59.777 292.573)" opacity="0.6">
              <g id="Grupo_72160" data-name="Grupo 72160">
                <g id="Grupo_72159" data-name="Grupo 72159" clip-path="url(#clip-path-8)">
                  <path id="Trazado_161292" data-name="Trazado 161292" d="M88.07,433.2l.293-2.158,25.52,3.394s1.138.638.919,1.463Z" transform="translate(-88.07 -431.046)" fill="#fff"/>
                </g>
              </g>
            </g>
            <path id="Trazado_161293" data-name="Trazado 161293" d="M107.426,424.589c-.018.13-.676.124-1.361.478-.694.337-1.082.869-1.2.805-.118-.038.155-.8.992-1.214s1.607-.187,1.566-.07" transform="translate(-33.681 -136.344)" fill="#1a2e35"/>
            <path id="Trazado_161294" data-name="Trazado 161294" d="M111.684,426.763c.017.13-.571.295-1.07.8s-.686,1.078-.816,1.059c-.124.008-.138-.766.495-1.385s1.4-.6,1.391-.477" transform="translate(-35.251 -137.074)" fill="#1a2e35"/>
            <path id="Trazado_161295" data-name="Trazado 161295" d="M114.4,430.957c-.121.016-.238-.654.17-1.336s1.046-.9,1.091-.789c.062.115-.373.458-.7,1.023s-.432,1.1-.563,1.1" transform="translate(-36.715 -137.753)" fill="#1a2e35"/>
            <path id="Trazado_161296" data-name="Trazado 161296" d="M107.449,419.705c-.067.113-.648-.127-1.39-.151s-1.342.15-1.4.031c-.067-.1.543-.529,1.418-.487s1.445.511,1.37.607" transform="translate(-33.621 -134.634)" fill="#1a2e35"/>
            <path id="Trazado_161297" data-name="Trazado 161297" d="M55.761,265.793s-4.909,34.833-2.439,40.529c1.909,4.4,5.288,6.316,9.608,7.428A153.036,153.036,0,0,0,79.175,316.5l3.368-20.071-7.62-1.66,7.014-24.974-12.414-8.5Z" transform="translate(-16.906 -83.94)" fill="#1a2e35"/>
            <path id="Trazado_161298" data-name="Trazado 161298" d="M92.9,269.152l-6.145,96.228,16.974.86,7.57-47.733s8.059-39.365,8.613-44.184,0-15.03,0-15.03Z" transform="translate(-27.87 -83.297)" fill="#1a2e35"/>
            <path id="Trazado_161299" data-name="Trazado 161299" d="M92.69,284.892a.825.825,0,0,1,.007.189c0,.145-.006.327-.012.554-.02.512-.046,1.224-.079,2.127-.085,1.848-.219,4.519-.419,7.819-.388,6.6-1.033,15.71-1.7,25.773-.3,5.035-.6,9.83-.861,14.2-.315,4.364-.742,8.278-1.068,11.567s-.572,5.951-.715,7.793c-.071.9-.126,1.61-.166,2.121-.02.226-.035.407-.048.552a.687.687,0,0,1-.029.187.741.741,0,0,1-.007-.189c0-.145.007-.327.014-.554.013-.487.045-1.2.1-2.127.1-1.847.3-4.516.6-7.808s.7-7.208.992-11.565c.263-4.356.489-9.164.834-14.2.7-10.05,1.339-19.148,1.8-25.766.223-3.278.4-5.939.53-7.81.063-.9.111-1.612.147-2.124.019-.225.034-.407.047-.552a.668.668,0,0,1,.028-.187" transform="translate(-28.14 -91.521)" fill="#375a64"/>
            <path id="Trazado_161300" data-name="Trazado 161300" d="M86.325,297.207a3.2,3.2,0,0,1-.105.757c-.089.483-.239,1.177-.442,2.031-.405,1.708-1.049,4.049-1.911,6.587s-1.779,4.787-2.5,6.388c-.359.8-.663,1.442-.887,1.879a3.172,3.172,0,0,1-.378.664,3.193,3.193,0,0,1,.252-.721l.783-1.921c.658-1.622,1.534-3.876,2.394-6.4s1.537-4.848,2-6.536q.324-1.18.55-2a3.18,3.18,0,0,1,.239-.726" transform="translate(-25.732 -95.477)" fill="#375a64"/>
            <path id="Trazado_161301" data-name="Trazado 161301" d="M71.806,142.519l-4.082,3.252s-12.963,2.313-14.073,4.335l4.2,26.035,3.274,22.313s-4.9,13.162-5.035,18.717,0,10.162,0,10.162h2.43a21.955,21.955,0,0,1,15.183,6.1l4.472-4.064.874,7.723s17.552,1.083,22.023-2.3S111.6,224.216,111.6,224.216s1.046-18.013-4.3-27.113-6.633-10.98-6.633-10.98,1.9-15.695,1.9-16.236,1.626-21.949,1.626-21.949l-13.468-3.387-3.9-2.98Z" transform="translate(-17.235 -45.48)" fill="#375a64"/>
            <g id="Grupo_72164" data-name="Grupo 72164" transform="translate(43.365 146.529)" opacity="0.3">
              <g id="Grupo_72163" data-name="Grupo 72163">
                <g id="Grupo_72162" data-name="Grupo 72162" clip-path="url(#clip-path-9)">
                  <path id="Trazado_161302" data-name="Trazado 161302" d="M63.967,223.564a7.527,7.527,0,0,0,6.234,1.914c1.505-.206,2.951-.852,4.47-.83,2.21.033,4.117,1.446,6.047,2.524a22.229,22.229,0,0,0,13.788,2.6c5.446-.754,10.4-3.5,15.017-6.486a3.351,3.351,0,0,0,.916-.763,2.1,2.1,0,0,0-.118-2.434,3.559,3.559,0,0,0-2.226-1.249,13.62,13.62,0,0,0-4.675.346,29.318,29.318,0,0,1-9.975-.089c-4.18-.763-8.169-2.431-12.38-3A24.29,24.29,0,0,0,67.2,218.35a7.7,7.7,0,0,0-2.493,1.746,4.686,4.686,0,0,0-.741,3.468" transform="translate(-63.889 -215.881)"/>
                </g>
              </g>
            </g>
            <path id="Trazado_161303" data-name="Trazado 161303" d="M85.582,163.809a.907.907,0,0,1,.028.207c.012.157.028.357.047.609.035.56.083,1.345.145,2.343.112,2.061.271,5,.468,8.621.362,7.3.861,17.35,1.41,28.448.132,2.778.26,5.49.383,8.11s.25,5.15.246,7.566c0,1.208-.036,2.386-.111,3.529s-.219,2.238-.2,3.3c.007,2.13.179,4.136.143,5.955.07,1.811.269,3.452.42,4.89s.307,2.668.426,3.689c.109.994.2,1.776.258,2.334.022.251.04.451.054.608a.95.95,0,0,1,.006.208.9.9,0,0,1-.042-.2c-.023-.155-.052-.354-.09-.6-.077-.555-.185-1.334-.323-2.325-.134-1.019-.3-2.253-.485-3.683-.17-1.439-.387-3.073-.474-4.9.02-1.829-.166-3.806-.187-5.964-.022-1.079.114-2.2.186-3.324s.1-2.308.1-3.51c0-2.4-.138-4.929-.266-7.549s-.257-5.332-.391-8.111c-.51-11.1-.971-21.149-1.307-28.453-.149-3.624-.27-6.564-.356-8.626-.033-1-.06-1.786-.079-2.346,0-.253-.008-.453-.012-.611a.909.909,0,0,1,.008-.208" transform="translate(-27.491 -52.624)" fill="#1a2e35"/>
            <path id="Trazado_161304" data-name="Trazado 161304" d="M55.391,159.023l-.4,27.241,2,4.75L55.3,203.989l-6.861-3.845a9.734,9.734,0,0,1-4.983-9.523c0-.031.007-.061.011-.092.63-5.28,1.676-13.7,2.552-19.041,1.355-8.264,2.3-14.768,4.335-17.342Z" transform="translate(-13.942 -49.519)" fill="#375a64"/>
            <path id="Trazado_161305" data-name="Trazado 161305" d="M126.438,150.945s3.929-.813,5.961,8.671,3.658,26.013,3.658,26.013a1.337,1.337,0,0,1,.813,2.053s-.271,8.931-1.355,10.01L124.2,191.01l-1.288-1.88Z" transform="translate(-39.486 -48.485)" fill="#375a64"/>
            <path id="Trazado_161306" data-name="Trazado 161306" d="M60.986,222.335l15.2-1.692,1.165-7.39-14.9-1.2Z" transform="translate(-19.592 -68.122)" fill="#b16052"/>
            <path id="Trazado_161307" data-name="Trazado 161307" d="M84.782,154.867a4.625,4.625,0,0,1-.507.776l-1.488,2.036-2.235,3a.47.47,0,0,1-.337.2.571.571,0,0,1-.354-.111,4.126,4.126,0,0,1-.427-.382,9.767,9.767,0,0,1-.8-.816,14.269,14.269,0,0,1-1.446-1.912,14.746,14.746,0,0,1-2.215-7.992,12.676,12.676,0,0,1,.291-2.518,4.7,4.7,0,0,1,.269-.889,22.583,22.583,0,0,0-.31,3.409,15.191,15.191,0,0,0,2.265,7.8,14.46,14.46,0,0,0,1.405,1.869,9.615,9.615,0,0,0,.771.8,4.368,4.368,0,0,0,.381.352c.136.076.164.086.248-.014.842-1.121,1.638-2.113,2.293-2.951l1.577-1.968a4.679,4.679,0,0,1,.616-.692" transform="translate(-24.084 -46.985)" fill="#1a2e35"/>
            <path id="Trazado_161308" data-name="Trazado 161308" d="M102.21,145.962a.818.818,0,0,1,.041.275c.02.181.027.447.028.792a11.1,11.1,0,0,1-.436,2.884,30.083,30.083,0,0,1-1.575,4.019,39.8,39.8,0,0,1-2.513,4.65c-.492.8-.988,1.564-1.472,2.3l-.359.547a3.142,3.142,0,0,1-.409.553.532.532,0,0,1-.425.132.717.717,0,0,1-.36-.183,3.8,3.8,0,0,1-.411-.5L91.735,158l-1.718-2.338a6.124,6.124,0,0,1-.592-.886,6.123,6.123,0,0,1,.7.8l1.807,2.268,2.645,3.394c.237.322.524.7.717.491a3.211,3.211,0,0,0,.342-.485l.356-.549c.479-.739.971-1.506,1.461-2.3a43.067,43.067,0,0,0,2.517-4.6,33.232,33.232,0,0,0,1.632-3.956,15.618,15.618,0,0,0,.607-3.88" transform="translate(-28.727 -46.89)" fill="#1a2e35"/>
            <path id="Trazado_161309" data-name="Trazado 161309" d="M70.037,161.519c.014.057-.718.18-1.81.686a9.2,9.2,0,0,0-3.62,3.012l-.1.146-.147-.109a9.074,9.074,0,0,0-1.172-.758,9.531,9.531,0,0,0-5.525-1.063,19.755,19.755,0,0,0-2.332.511,2.2,2.2,0,0,1,.58-.3,8.488,8.488,0,0,1,1.719-.462,9.245,9.245,0,0,1,5.726,1,9.03,9.03,0,0,1,1.218.795l-.249.037A8.818,8.818,0,0,1,68.136,162a7.473,7.473,0,0,1,1.381-.422,1.5,1.5,0,0,1,.521-.055" transform="translate(-17.774 -51.885)" fill="#1a2e35"/>
            <path id="Trazado_161310" data-name="Trazado 161310" d="M119.489,163.305a5.831,5.831,0,0,0-2.525-.694,7.06,7.06,0,0,0-2.785.527,18.392,18.392,0,0,0-3.1,1.677l-.322.2-.136.086-.1-.127a7.744,7.744,0,0,0-5.207-2.853,11.968,11.968,0,0,0-2.526.076,2.183,2.183,0,0,1,.66-.2,6.725,6.725,0,0,1,1.889-.115,7.69,7.69,0,0,1,2.733.72,7.534,7.534,0,0,1,2.731,2.161l-.234-.041.322-.2a17.27,17.27,0,0,1,3.177-1.683,7,7,0,0,1,2.913-.472,4.74,4.74,0,0,1,1.921.519,1.794,1.794,0,0,1,.592.425" transform="translate(-33.02 -51.998)" fill="#1a2e35"/>
            <path id="Trazado_161311" data-name="Trazado 161311" d="M106.884,251.09a1.241,1.241,0,0,1-.263.22l-.8.577-.582.411c-.218.142-.465.279-.726.435a19.664,19.664,0,0,1-1.809,1l-1.082.525c-.377.178-.789.321-1.206.493-.828.358-1.754.624-2.72.929a30.246,30.246,0,0,1-13.065.776c-1-.189-1.947-.343-2.812-.6-.434-.121-.86-.214-1.256-.347l-1.136-.393a19.512,19.512,0,0,1-1.913-.774c-.278-.124-.54-.231-.772-.346l-.626-.339-.859-.478a1.253,1.253,0,0,1-.288-.188,1.332,1.332,0,0,1,.322.125l.887.418.636.309c.236.106.5.2.779.318.563.218,1.187.508,1.918.719l1.132.369c.4.125.819.21,1.25.324.859.243,1.8.385,2.79.563a31.124,31.124,0,0,0,12.927-.768c.958-.293,1.878-.546,2.7-.889.415-.164.825-.3,1.2-.47l1.081-.5c.7-.3,1.286-.658,1.819-.941.264-.147.514-.275.736-.408l.6-.382.831-.52a1.287,1.287,0,0,1,.3-.162" transform="translate(-24.084 -80.662)" fill="#1a2e35"/>
            <path id="Trazado_161312" data-name="Trazado 161312" d="M103.56,236.987a6.631,6.631,0,0,1-.788.782,12.583,12.583,0,0,1-.984.853c-.4.316-.836.7-1.367,1.054-.519.375-1.092.78-1.74,1.165-.631.415-1.344.787-2.088,1.193a31.48,31.48,0,0,1-10.472,3.276c-.843.09-1.642.191-2.4.21-.751.052-1.453.046-2.093.034-.64.008-1.218-.054-1.724-.088a12.7,12.7,0,0,1-1.3-.14,6.7,6.7,0,0,1-1.093-.193,6.615,6.615,0,0,1,1.107.057c.354.035.787.071,1.293.079s1.078.058,1.714.035c.635,0,1.33-.012,2.074-.077.746-.031,1.536-.141,2.369-.239a33.079,33.079,0,0,0,10.368-3.243c.74-.394,1.453-.753,2.083-1.153.648-.371,1.224-.76,1.748-1.119.536-.342.981-.706,1.388-1s.746-.572,1.017-.8a6.613,6.613,0,0,1,.878-.678" transform="translate(-24.903 -76.131)" fill="#1a2e35"/>
            <path id="Trazado_161313" data-name="Trazado 161313" d="M56.1,164.846a4.558,4.558,0,0,1,.166.9c.087.653.2,1.484.331,2.476l1.083,8.169c.453,3.151.863,6,1.173,8.157.142.992.26,1.821.354,2.473a4.6,4.6,0,0,1,.086.915,4.529,4.529,0,0,1-.221-.892c-.121-.578-.28-1.417-.464-2.456-.371-2.078-.836-4.958-1.277-8.149s-.774-6.088-.981-8.189c-.1-1.05-.179-1.9-.219-2.49a4.563,4.563,0,0,1-.029-.918" transform="translate(-18.018 -52.957)" fill="#1a2e35"/>
            <path id="Trazado_161314" data-name="Trazado 161314" d="M126.176,156.749a1.285,1.285,0,0,1,.005.346c-.015.266-.033.593-.054.986-.053.857-.148,2.094-.278,3.622-.26,3.056-.675,7.273-1.227,11.921s-1.139,8.845-1.6,11.877c-.231,1.516-.43,2.741-.579,3.585-.071.389-.13.71-.179.972a1.265,1.265,0,0,1-.086.335,1.307,1.307,0,0,1,.016-.345c.031-.265.068-.588.113-.981.117-.9.276-2.12.468-3.6.4-3.039.947-7.239,1.5-11.884s1.006-8.854,1.329-11.9c.16-1.484.292-2.7.39-3.61.048-.392.088-.716.12-.98a1.3,1.3,0,0,1,.066-.34" transform="translate(-39.246 -50.355)" fill="#1a2e35"/>
            <path id="Trazado_161315" data-name="Trazado 161315" d="M106.918,188.946,87.5,200.651l-5.016-1.415L59.457,194.8,54.7,209.9l18.119,1.709,7.991,3.828,3.859-1.672,16.849-11.576Z" transform="translate(-17.572 -60.699)" fill="#eb9595"/>
            <path id="Trazado_161316" data-name="Trazado 161316" d="M93.15,220.922a16.888,16.888,0,0,1,.911-2.171c.6-1.325,1.417-3.154,2.294-5.187s1.644-3.887,2.2-5.229a16.822,16.822,0,0,1,.954-2.152,2.247,2.247,0,0,1-.157.615c-.123.388-.315.944-.563,1.628-.5,1.368-1.229,3.24-2.108,5.279s-1.739,3.855-2.393,5.154c-.326.65-.6,1.172-.8,1.527a2.221,2.221,0,0,1-.339.537" transform="translate(-29.923 -66.236)" fill="#1a2e35"/>
            <path id="Trazado_161317" data-name="Trazado 161317" d="M92.341,209.281a19.753,19.753,0,0,1,1.926-4.914,19.822,19.822,0,0,1-1.926,4.914" transform="translate(-29.66 -65.652)" fill="#1a2e35"/>
            <path id="Trazado_161318" data-name="Trazado 161318" d="M99.07,199.534a5.465,5.465,0,0,1,2.342-3.221c1.76-.9,16.341-8.489,16.341-8.489l1.729,1.782-17.73,10.685Z" transform="translate(-31.826 -60.338)" fill="#e1e1e1"/>
            <path id="Trazado_161319" data-name="Trazado 161319" d="M64.661,197.247l2.952-1.48s8.361-.9,13.2,0,7.361,3.61,7.2,6.19Z" transform="translate(-20.772 -62.761)" fill="#e1e1e1"/>
            <path id="Trazado_161320" data-name="Trazado 161320" d="M103.556,207.289a6.412,6.412,0,0,0-3.344,3.344c-1.157,2.572-1.929,3.859-3.344,4.759s-2.186,1.543-3.859.772-4.382-3.3-5.663-3.506c-.762-.123-1.025,1.062-1.025,1.062s-3.344-2.228-4.5-1.822-.129,1.307.643,2.207a13.148,13.148,0,0,1,1.286,1.8c.252-.107-2.325-2.53-3.912-2.025a.926.926,0,0,0-.725,1.2l1.936,1.423s-1.029,1.842-.128,2.228,7.331,4.888,8.746,4.888,7.846,1.158,10.547.514,5.715-1.567,5.715-1.567,10.62-3.449,13.835-7.565l-9.646-5.917s-6.431,8.36-6.817,7.46a8.879,8.879,0,0,1-.386-4.759c.386-1.929,1.762-5.125.643-4.5" transform="translate(-25.4 -66.566)" fill="#b16052"/>
            <path id="Trazado_161321" data-name="Trazado 161321" d="M98.076,222.938a3.951,3.951,0,0,1-1.493-.437,25.186,25.186,0,0,1-3.185-1.949,13.717,13.717,0,0,1-2.9-2.384c-.622-.751-.807-1.351-.748-1.366a11.169,11.169,0,0,0,.935,1.2,17.487,17.487,0,0,0,2.9,2.252c1.235.793,2.26,1.607,3.1,2.023.834.434,1.4.606,1.385.662" transform="translate(-28.829 -69.647)" fill="#7f4842"/>
            <path id="Trazado_161322" data-name="Trazado 161322" d="M94.759,226.722a6.625,6.625,0,0,1-1.366-.8c-.815-.538-1.916-1.318-3.094-2.23s-2.209-1.785-2.933-2.439a6.639,6.639,0,0,1-1.117-1.123,7.49,7.49,0,0,1,1.277.931l2.989,2.351,3.022,2.306a7.513,7.513,0,0,1,1.221,1" transform="translate(-27.707 -70.716)" fill="#7f4842"/>
            <path id="Trazado_161323" data-name="Trazado 161323" d="M87.99,226.09c-.083.067-1.241-1.337-2.938-2.782s-3.254-2.382-3.2-2.474a14.967,14.967,0,0,1,6.139,5.256" transform="translate(-26.294 -70.941)" fill="#7f4842"/>
            <path id="Trazado_161324" data-name="Trazado 161324" d="M91.864,171.885c-.031,0-.037-.171-.127-.452a1.923,1.923,0,0,0-.707-.975,1.8,1.8,0,0,0-1.685-.223,1.762,1.762,0,0,0,0,3.3,1.8,1.8,0,0,0,1.685-.223,1.926,1.926,0,0,0,.707-.975c.09-.282.1-.453.127-.452s.06.172.007.486a1.919,1.919,0,0,1-.69,1.14,2.037,2.037,0,0,1-1.948.331,2.074,2.074,0,0,1,0-3.914,2.037,2.037,0,0,1,1.948.331,1.917,1.917,0,0,1,.69,1.14c.053.314.012.487-.007.486" transform="translate(-28.22 -54.552)" fill="#1a2e35"/>
            <path id="Trazado_161325" data-name="Trazado 161325" d="M92.865,190.968c-.031,0-.037-.171-.127-.452a1.92,1.92,0,0,0-.707-.975,1.8,1.8,0,0,0-1.685-.223,1.762,1.762,0,0,0,0,3.3,1.8,1.8,0,0,0,1.685-.223,1.923,1.923,0,0,0,.707-.975c.09-.281.1-.453.127-.452s.06.172.007.486a1.919,1.919,0,0,1-.69,1.14,2.036,2.036,0,0,1-1.948.331,2.074,2.074,0,0,1,0-3.914,2.037,2.037,0,0,1,1.948.331,1.915,1.915,0,0,1,.69,1.14c.053.314.012.487-.007.486" transform="translate(-28.542 -60.683)" fill="#1a2e35"/>
            <path id="Trazado_161326" data-name="Trazado 161326" d="M94.74,236.183c-.03,0-.037-.171-.127-.452a1.92,1.92,0,0,0-.707-.975,1.8,1.8,0,0,0-1.685-.223,1.762,1.762,0,0,0,0,3.3,1.8,1.8,0,0,0,1.685-.223,1.923,1.923,0,0,0,.707-.975c.09-.281.1-.453.127-.452s.06.172.007.486a1.919,1.919,0,0,1-.69,1.14,2.036,2.036,0,0,1-1.948.331,2.074,2.074,0,0,1,0-3.914,2.037,2.037,0,0,1,1.948.331,1.917,1.917,0,0,1,.69,1.14c.053.314.012.487-.007.486" transform="translate(-29.144 -75.208)" fill="#1a2e35"/>
            <path id="Trazado_161327" data-name="Trazado 161327" d="M94.305,253.985c-.03,0-.037-.171-.127-.452a1.92,1.92,0,0,0-.707-.975,1.8,1.8,0,0,0-1.685-.223,1.762,1.762,0,0,0,0,3.3,1.8,1.8,0,0,0,1.685-.223,1.923,1.923,0,0,0,.707-.975c.09-.281.1-.453.127-.452s.06.172.007.485a1.918,1.918,0,0,1-.69,1.141,2.036,2.036,0,0,1-1.948.331,2.074,2.074,0,0,1,0-3.914,2.037,2.037,0,0,1,1.948.331,1.917,1.917,0,0,1,.69,1.14c.053.314.012.487-.007.486" transform="translate(-29.005 -80.927)" fill="#1a2e35"/>
            <path id="Trazado_161328" data-name="Trazado 161328" d="M70.932,90.648a9.669,9.669,0,0,1,4.633-5.862,12.206,12.206,0,0,1,8.2-.99A25.874,25.874,0,0,1,91.529,87,12.684,12.684,0,0,1,95.237,89.9c1.792,2.254,2.038,5.328,2.211,8.2.139,2.324.259,4.759-.723,6.87a7.157,7.157,0,0,1-4.812,3.895" transform="translate(-22.787 -26.827)" fill="#1a2e35"/>
            <path id="Trazado_161329" data-name="Trazado 161329" d="M104.036,101.6a15.369,15.369,0,0,0,3.7-11.421,5.4,5.4,0,0,0-1.567-3.728c-.54-.454-1.216-.722-1.767-1.163-1.005-.8-1.5-2.1-2.454-2.967a3.905,3.905,0,0,0-6.37,1.817c-.5,1.746.248,3.58.984,5.241q1.705,3.849,3.411,7.7a10.216,10.216,0,0,0,1.567,2.733,3.456,3.456,0,0,0,2.771,1.272" transform="translate(-30.651 -26.123)" fill="#1a2e35"/>
            <path id="Trazado_161330" data-name="Trazado 161330" d="M70.991,90.562a13.242,13.242,0,0,0-1.165,16.488A111.469,111.469,0,0,1,75.744,88.6" transform="translate(-21.68 -28.463)" fill="#1a2e35"/>
            <path id="Trazado_161331" data-name="Trazado 161331" d="M68.895,99.527c.3-4.575,3.343-10.183,7.9-9.691l10.548,2.691a7.823,7.823,0,0,1,5.885,7.2c.012.174.03-.038.027.093l-.712,25.827-9.816,11.081L76,126.371c0-2.228,0-4,0-3.989s-5.844-.984-7.038-8.613c-.594-3.795-.39-9.158-.058-14.242" transform="translate(-22.03 -28.85)" fill="#b16052"/>
            <path id="Trazado_161332" data-name="Trazado 161332" d="M82.373,100.609a11.11,11.11,0,0,1-4.471.454c0-.056,1.009-.058,2.24-.185s2.219-.322,2.231-.269" transform="translate(-25.026 -32.318)" fill="#7f4842"/>
            <path id="Trazado_161333" data-name="Trazado 161333" d="M80.67,100.2a5.427,5.427,0,0,1-2.767.149,9.49,9.49,0,0,1,1.383-.082,9.506,9.506,0,0,1,1.384-.067" transform="translate(-25.026 -32.185)" fill="#7f4842"/>
            <path id="Trazado_161334" data-name="Trazado 161334" d="M86.16,122.082c-.052.006-.117-.3-.426-.5s-.612-.149-.626-.2c-.007-.022.065-.076.206-.094a.827.827,0,0,1,.853.568c.037.137.016.225-.007.226" transform="translate(-27.341 -38.962)" fill="#7f4842"/>
            <path id="Trazado_161335" data-name="Trazado 161335" d="M73.2,112.445a.978.978,0,0,0,.941.989.936.936,0,0,0,1.011-.88.979.979,0,0,0-.94-.99.937.937,0,0,0-1.011.88" transform="translate(-23.514 -35.839)" fill="#1a2e35"/>
            <path id="Trazado_161336" data-name="Trazado 161336" d="M71.016,108.414c.121.128.863-.419,1.916-.414s1.822.533,1.937.4c.056-.057-.067-.287-.4-.533a2.687,2.687,0,0,0-1.551-.482,2.581,2.581,0,0,0-1.525.489c-.324.248-.434.479-.375.536" transform="translate(-22.809 -34.499)" fill="#1a2e35"/>
            <path id="Trazado_161337" data-name="Trazado 161337" d="M87.657,112.445a.978.978,0,0,0,.941.989.936.936,0,0,0,1.011-.88.979.979,0,0,0-.94-.99.936.936,0,0,0-1.011.88" transform="translate(-28.159 -35.839)" fill="#1a2e35"/>
            <path id="Trazado_161338" data-name="Trazado 161338" d="M86.259,108.737c.121.128.865-.419,1.917-.414s1.822.534,1.937.4c.056-.057-.066-.287-.4-.533a2.685,2.685,0,0,0-1.55-.482,2.581,2.581,0,0,0-1.525.489c-.324.248-.434.479-.375.536" transform="translate(-27.706 -34.603)" fill="#1a2e35"/>
            <path id="Trazado_161339" data-name="Trazado 161339" d="M79.345,116.559a6.969,6.969,0,0,0-1.709-.312c-.269-.029-.523-.082-.568-.266a1.372,1.372,0,0,1,.181-.8q.382-.974.8-2.045a35.2,35.2,0,0,0,1.8-5.349,35.161,35.161,0,0,0-2.224,5.192l-.766,2.057a1.558,1.558,0,0,0-.141,1.055.674.674,0,0,0,.441.394,1.814,1.814,0,0,0,.456.064,6.851,6.851,0,0,0,1.733.006" transform="translate(-24.628 -34.627)" fill="#1a2e35"/>
            <path id="Trazado_161340" data-name="Trazado 161340" d="M89.618,133.8s-2.482,5.239-10.115,4.508l0-1.794A19.219,19.219,0,0,0,89.618,133.8" transform="translate(-25.54 -42.983)" fill="#7f4842"/>
            <path id="Trazado_161341" data-name="Trazado 161341" d="M81.21,124.112a1.9,1.9,0,0,1,1.7-.7,1.731,1.731,0,0,1,1.194.644,1.1,1.1,0,0,1,.081,1.254,1.273,1.273,0,0,1-1.381.346,3.993,3.993,0,0,1-1.344-.806,1.18,1.18,0,0,1-.3-.312.351.351,0,0,1,0-.392" transform="translate(-26.055 -39.642)" fill="#7f4842"/>
            <path id="Trazado_161342" data-name="Trazado 161342" d="M83.583,121.793c-.171-.01-.176,1.132-1.156,1.941s-2.2.68-2.2.84c-.016.071.271.223.785.238a2.847,2.847,0,0,0,1.841-.637,2.48,2.48,0,0,0,.9-1.628c.045-.478-.082-.761-.16-.755" transform="translate(-25.771 -39.126)" fill="#1a2e35"/>
            <path id="Trazado_161343" data-name="Trazado 161343" d="M85.89,104.31c.1.286,1.154.153,2.389.3,1.237.127,2.232.49,2.4.234.074-.123-.1-.392-.5-.671a4.188,4.188,0,0,0-3.646-.411c-.453.182-.682.407-.637.542" transform="translate(-27.59 -33.257)" fill="#1a2e35"/>
            <path id="Trazado_161344" data-name="Trazado 161344" d="M71.591,103.9c.184.24.91-.007,1.782-.017.872-.04,1.61.164,1.78-.086.075-.121-.041-.36-.363-.588a2.581,2.581,0,0,0-2.87.082c-.309.246-.411.491-.329.608" transform="translate(-22.99 -33.028)" fill="#1a2e35"/>
            <path id="Trazado_161345" data-name="Trazado 161345" d="M72.034,91.162A3.354,3.354,0,0,1,75,89.263a6.5,6.5,0,0,1,3.518,1.026c4.543,2.625,7.1,7.84,11.585,10.557a18.314,18.314,0,0,1,3.261,2.068,3.237,3.237,0,0,1,1.028,3.48,10.674,10.674,0,0,0,1.558-2.634,3.6,3.6,0,0,0-.126-2.973c-.388-.673-1.074-1.186-1.262-1.941a10.254,10.254,0,0,1,.067-2.04,4.445,4.445,0,0,0-.7-1.945,19.8,19.8,0,0,0-7.291-7.671,12.912,12.912,0,0,0-6.695-1.731,9.875,9.875,0,0,0-6.369,2.528c-1,.936-2.059,1.9-1.539,3.175" transform="translate(-23.097 -27.452)" fill="#1a2e35"/>
            <path id="Trazado_161346" data-name="Trazado 161346" d="M94.287,106.726c-.008-.007.088-.1.238-.311a3.33,3.33,0,0,0,.493-1,5.656,5.656,0,0,0-.419-3.992c-.344-.8-.831-1.622-1.329-2.522a29.518,29.518,0,0,1-1.4-2.976,21.271,21.271,0,0,0-1.6-3.233,12.71,12.71,0,0,0-2.526-2.9,13.414,13.414,0,0,0-6.7-3.084,9.871,9.871,0,0,0-5.941.8,6.488,6.488,0,0,0-2.858,2.851,5.728,5.728,0,0,0-.394,1.046c-.061.249-.089.381-.1.38a.382.382,0,0,1,.01-.1c.011-.065.022-.163.05-.289a5.174,5.174,0,0,1,.364-1.068,6.467,6.467,0,0,1,2.862-2.938,9.933,9.933,0,0,1,6.027-.857,13.5,13.5,0,0,1,6.792,3.112A12.792,12.792,0,0,1,90.43,92.6a21.194,21.194,0,0,1,1.6,3.263,29.671,29.671,0,0,0,1.374,2.969c.489.9.973,1.733,1.314,2.545a5.666,5.666,0,0,1,.366,4.067,3.166,3.166,0,0,1-.531,1,2.031,2.031,0,0,1-.268.288" transform="translate(-23.054 -27.76)" fill="#375a64"/>
            <path id="Trazado_161347" data-name="Trazado 161347" d="M105.322,102.44a.993.993,0,0,1,0-.218c.007-.162.015-.368.025-.621.02-.54.045-1.321.015-2.284a19.545,19.545,0,0,0-.369-3.355,8.941,8.941,0,0,0-1.634-3.736,20.67,20.67,0,0,0-2.926-2.914c-.965-.835-1.865-1.549-2.646-2.113s-1.444-.978-1.909-1.252l-.538-.312a1.008,1.008,0,0,1-.183-.117.913.913,0,0,1,.2.083c.13.059.317.155.556.282a20.432,20.432,0,0,1,1.949,1.207c.8.553,1.708,1.259,2.682,2.09a20.028,20.028,0,0,1,2.963,2.932,8.981,8.981,0,0,1,1.654,3.815,18.6,18.6,0,0,1,.333,3.387c.014.969-.032,1.752-.075,2.291-.02.27-.043.479-.06.62a.927.927,0,0,1-.035.214" transform="translate(-30.568 -27.473)" fill="#375a64"/>
            <path id="Trazado_161348" data-name="Trazado 161348" d="M105.027,83.3a3.193,3.193,0,0,1,.211.865,10.108,10.108,0,0,1-.255,4.269,3.207,3.207,0,0,1-.313.834,22.019,22.019,0,0,0,.481-2.967,21.974,21.974,0,0,0-.125-3" transform="translate(-33.624 -26.76)" fill="#375a64"/>
            <path id="Trazado_161349" data-name="Trazado 161349" d="M111.422,91.624a1.624,1.624,0,0,1-.258.635,4.118,4.118,0,0,1-2.617,1.922,1.635,1.635,0,0,1-.684.057,5.132,5.132,0,0,1,.65-.185,4.741,4.741,0,0,0,2.539-1.865,5.216,5.216,0,0,1,.371-.565" transform="translate(-34.651 -29.434)" fill="#375a64"/>
            <path id="Trazado_161350" data-name="Trazado 161350" d="M112.231,99.131a3.752,3.752,0,0,1-3.02-.085c.016-.062.678.142,1.506.172s1.5-.149,1.514-.088" transform="translate(-35.084 -31.815)" fill="#375a64"/>
            <path id="Trazado_161351" data-name="Trazado 161351" d="M97.936,109.741c-.181-.091-.092-.595-.068-1.412a3.932,3.932,0,0,0-.16-1.339,1.872,1.872,0,0,0-.14-.308,1.336,1.336,0,0,0-.089-.136c-.026-.042-.083-.119-.126-.177a6.078,6.078,0,0,0-.629-.732,1.923,1.923,0,0,0-.657-.463c-.083-.028-.1,0-.066.012l-.267.052-.288.067a5.049,5.049,0,0,0-1.085.409c-.179.092-.36.2-.544.313l-.139.089-.237.14a5.075,5.075,0,0,1-.485.23,4.9,4.9,0,0,1-2.146.362,3.545,3.545,0,0,1-1.284-.324l-.166-.083-.132-.078c-.086-.054-.177-.1-.258-.164a4.534,4.534,0,0,1-.473-.379,6.238,6.238,0,0,1-1.307-1.782c-.309-.6-.541-1.2-.762-1.734a20.11,20.11,0,0,0-3.278-5.38,21.641,21.641,0,0,0-3.824-3.545,12.333,12.333,0,0,0-3.006-1.725c-.76-.284-1.256-.358-1.286-.562-.033-.175.453-.493,1.45-.521a8.42,8.42,0,0,1,3.873,1.106,17.775,17.775,0,0,1,4.711,3.5,19.08,19.08,0,0,1,3.961,6.054c.236.576.439,1.1.658,1.541a3.809,3.809,0,0,0,.691,1.031,1.856,1.856,0,0,0,.183.16,1.072,1.072,0,0,0,.094.066l.047.033.022.012a.824.824,0,0,0,.31.093,2.441,2.441,0,0,0,1-.109c.08-.026.155-.056.227-.086l.1-.048.192-.1a8.5,8.5,0,0,1,.8-.371,6.952,6.952,0,0,1,1.66-.443q.2-.029.394-.045l.19-.015.216-.012a2.229,2.229,0,0,1,1.208.287,3.846,3.846,0,0,1,1.222,1.13,6.725,6.725,0,0,1,.656,1.117c.044.1.079.17.125.286a2.928,2.928,0,0,1,.117.331,3.257,3.257,0,0,1,.113.631,4,4,0,0,1-.323,1.858c-.4.9-.839,1.25-1,1.163" transform="translate(-24.104 -29.095)" fill="#1a2e35"/>
            <path id="Trazado_161352" data-name="Trazado 161352" d="M103.358,112.377c.08-.219,4.059-1.655,4.112,2.575.051,4.108-4.094,3.3-4.1,3.181s-.01-5.756-.01-5.756" transform="translate(-33.204 -35.969)" fill="#b16052"/>
            <path id="Trazado_161353" data-name="Trazado 161353" d="M105.215,117.2c.018-.013.072.05.193.1a.717.717,0,0,0,.536.006,1.771,1.771,0,0,0,.8-1.6,2.368,2.368,0,0,0-.21-1.023.827.827,0,0,0-.544-.544.364.364,0,0,0-.421.2c-.054.115-.027.2-.049.2s-.089-.069-.057-.238a.453.453,0,0,1,.159-.259.541.541,0,0,1,.4-.109,1,1,0,0,1,.753.63,2.433,2.433,0,0,1,.259,1.143,1.858,1.858,0,0,1-1.028,1.784.767.767,0,0,1-.656-.1c-.128-.1-.151-.192-.136-.2" transform="translate(-33.799 -36.604)" fill="#7f4842"/>
            <path id="Trazado_161354" data-name="Trazado 161354" d="M96.807,105.362c-.012.006-.047-.106-.174-.278a1.612,1.612,0,0,0-.738-.544,2.953,2.953,0,0,0-1.453-.128,6.844,6.844,0,0,0-1.844.663,4.863,4.863,0,0,1-2.339.593,3.759,3.759,0,0,1-2.427-1.3,7.613,7.613,0,0,1-1.455-2.694c-.342-1.006-.649-2.051-1.064-3.09a15.872,15.872,0,0,0-3.236-5.34,9.122,9.122,0,0,0-4.349-2.568,7.975,7.975,0,0,0-1.947-.248,7.025,7.025,0,0,0-1.473.177A11.95,11.95,0,0,0,73.1,91a.292.292,0,0,1,.073-.042l.223-.107a5.066,5.066,0,0,1,.894-.318,6.748,6.748,0,0,1,1.489-.211,7.949,7.949,0,0,1,1.98.223A9.182,9.182,0,0,1,82.2,93.125a15.871,15.871,0,0,1,3.287,5.392c.417,1.045.726,2.1,1.063,3.1a7.491,7.491,0,0,0,1.409,2.638,3.614,3.614,0,0,0,2.312,1.26,4.775,4.775,0,0,0,2.272-.559,6.861,6.861,0,0,1,1.884-.647,3,3,0,0,1,1.495.164,1.593,1.593,0,0,1,.741.59.994.994,0,0,1,.115.22.279.279,0,0,1,.028.079" transform="translate(-23.484 -29.017)" fill="#375a64"/>
            <path id="Trazado_161355" data-name="Trazado 161355" d="M95.3,102.907a1.605,1.605,0,0,1-.248-.138c-.157-.1-.4-.233-.689-.438a14.091,14.091,0,0,1-2.218-2.019,39.494,39.494,0,0,1-2.712-3.523,32.37,32.37,0,0,0-3.391-4.222,12.927,12.927,0,0,0-2.188-1.729,10.671,10.671,0,0,0-2.363-1.072,11.692,11.692,0,0,0-4.352-.534,11.22,11.22,0,0,0-2.915.572c-.338.1-.587.216-.761.282a1.6,1.6,0,0,1-.269.1,1.7,1.7,0,0,1,.253-.13,7.064,7.064,0,0,1,.752-.316,10.65,10.65,0,0,1,2.93-.635,11.617,11.617,0,0,1,4.414.5,10.708,10.708,0,0,1,2.406,1.081,12.885,12.885,0,0,1,2.224,1.752,31.4,31.4,0,0,1,3.4,4.256,42.239,42.239,0,0,0,2.671,3.536,15.268,15.268,0,0,0,2.162,2.048c.281.212.516.355.666.465a1.594,1.594,0,0,1,.228.17" transform="translate(-23.514 -28.611)" fill="#375a64"/>
            <path id="Trazado_161356" data-name="Trazado 161356" d="M105.6,119.8a.811.811,0,1,1-.193.062" transform="translate(-33.711 -38.483)" fill="#fff"/>
            <path id="Trazado_161357" data-name="Trazado 161357" d="M105.368,119.849a1.106,1.106,0,0,0-.369.552.7.7,0,0,0,.16.645.718.718,0,0,0,1.263-.4.7.7,0,0,0-.242-.619,1.111,1.111,0,0,0-.621-.236c0-.01.063-.042.193-.045a.839.839,0,0,1,.512.18.821.821,0,0,1,.33.741.883.883,0,0,1-1.565.5.822.822,0,0,1-.16-.795.836.836,0,0,1,.314-.443c.107-.073.179-.084.183-.075" transform="translate(-33.677 -38.467)" fill="#1a2e35"/>
            <path id="Trazado_161358" data-name="Trazado 161358" d="M430.851,350.882a7.5,7.5,0,0,1,3.887-4.964c2.074-.894,4.478-.385,6.6.386s4.209,1.8,6.464,1.943,4.8-.931,5.475-3.086c.635-2.027-.587-4.189-2.118-5.661a13.362,13.362,0,0,0-21.892,5.256" transform="translate(-137.902 -107.87)" fill="#1a2e35"/>
            <path id="Trazado_161359" data-name="Trazado 161359" d="M404.032,359.11c-3.308-3.143-3.143-8.614-1.493-12.868s5.252-7.521,9.275-9.674a29.371,29.371,0,0,1,25.6-.83,12.15,12.15,0,0,0-9.824,5.769c-1.813,3.011-2.215,6.665-3.713,9.845a15.5,15.5,0,0,1-19.845,7.758" transform="translate(-128.947 -107.04)" fill="#375a64"/>
            <path id="Trazado_161360" data-name="Trazado 161360" d="M400.558,317.775c-3.663-4.324-4.151-11.264-3.611-16.9s1.847-11.318.958-16.914c-.527-3.315-1.814-6.481-2.248-9.809s.181-7.094,2.76-9.242c2.965-2.47,7.633-1.887,10.716.432S414,271.3,415.31,274.93c2.868,7.977,3.922,16.822,1.565,24.964s-7.886,15.423-16,17.881" transform="translate(-127.063 -84.587)" fill="#375a64"/>
            <path id="Trazado_161361" data-name="Trazado 161361" d="M400.339,377.055a2.626,2.626,0,0,1-.019-.5c0-.327,0-.809.022-1.43.044-1.24.161-3.035.436-5.238a69.517,69.517,0,0,1,1.4-7.671,35.326,35.326,0,0,1,3.5-8.885,36.948,36.948,0,0,1,5.724-7.648,36.3,36.3,0,0,1,6-4.984c.916-.632,1.8-1.111,2.565-1.555.782-.409,1.465-.745,2.024-1.013l1.32-.55a2.64,2.64,0,0,1,.469-.169,2.708,2.708,0,0,1-.441.235l-1.289.608c-.548.286-1.218.639-1.987,1.062-.749.458-1.621.949-2.522,1.59a37.74,37.74,0,0,0-11.556,12.6c-3.365,5.886-4.289,12.076-4.962,16.417-.307,2.191-.461,3.977-.546,5.212-.037.591-.067,1.064-.089,1.424a2.648,2.648,0,0,1-.052.5" transform="translate(-128.602 -108.394)" fill="#1a2e35"/>
            <path id="Trazado_161362" data-name="Trazado 161362" d="M350.873,318.426c-6.777,4.089-6.756,7.811-5.624,11.324s5.292,5.953,8.74,4.638a10.7,10.7,0,0,0,4.567-4.14,19.148,19.148,0,0,1,4.03-4.747c1.69-1.223,4.14-1.691,5.838-.479" transform="translate(-110.729 -102.294)" fill="#1a2e35"/>
            <path id="Trazado_161363" data-name="Trazado 161363" d="M346.329,320.683c1.772-2.448,6.149-3.157,8.913-1.936s4.789,3.645,6.6,6.063,3.576,4.973,6.086,6.654,6.017,2.292,8.519.6a7.322,7.322,0,0,0,2.894-5.011,16.681,16.681,0,0,0-.4-5.909c-.6-2.842-1.574-5.81-3.849-7.616-2.534-2.012-6.052-2.108-9.287-2a34.789,34.789,0,0,0-10.963,1.687c-3.484,1.286-7.039,4.065-8.518,7.472" transform="translate(-111.258 -100.068)" fill="#375a64"/>
            <path id="Trazado_161364" data-name="Trazado 161364" d="M383.786,363.657a3.646,3.646,0,0,1-.046-.586l-.063-1.682c-.045-1.495-.108-3.6-.186-6.185-.084-2.611-.193-5.719-.382-9.167s-.451-7.236-.973-11.18a36.077,36.077,0,0,0-1.121-5.675,29.563,29.563,0,0,0-2.074-4.966,26.876,26.876,0,0,0-5.473-7.251A21.094,21.094,0,0,0,368.4,313.5a15.76,15.76,0,0,0-1.539-.667,3.539,3.539,0,0,1-.539-.235,3.747,3.747,0,0,1,.563.168,12.638,12.638,0,0,1,1.573.609,20.232,20.232,0,0,1,5.175,3.4,26.634,26.634,0,0,1,5.592,7.284,29.429,29.429,0,0,1,2.116,5.015,35.851,35.851,0,0,1,1.141,5.731c.525,3.962.772,7.758.949,11.21s.254,6.564.307,9.177.069,4.728.073,6.19q0,1.059,0,1.683a3.659,3.659,0,0,1-.025.587" transform="translate(-117.682 -100.423)" fill="#1a2e35"/>
            <path id="Trazado_161365" data-name="Trazado 161365" d="M395.072,356.943a18.977,18.977,0,0,1-.752-2.908,30.506,30.506,0,0,1-.318-8.18,54.26,54.26,0,0,1,2.578-11.868c1.39-4.361,3.278-9.024,4.89-14.035a64.574,64.574,0,0,0,1.946-7.422,66.358,66.358,0,0,0,.962-7.081,103.978,103.978,0,0,0,.221-12.113c-.115-3.451-.3-6.242-.407-8.17-.054-.945-.1-1.689-.126-2.222-.01-.238-.018-.428-.024-.579a.8.8,0,0,1,0-.2.829.829,0,0,1,.033.2c.016.149.035.339.06.576.046.532.11,1.274.192,2.217.153,1.927.373,4.716.519,8.171a99.7,99.7,0,0,1-.146,12.149,65.217,65.217,0,0,1-.948,7.121,63.771,63.771,0,0,1-1.949,7.464c-1.619,5.029-3.515,9.685-4.916,14.027a55.208,55.208,0,0,0-2.639,11.791,31.633,31.633,0,0,0,.2,8.133c.165.949.316,1.684.448,2.174l.134.563a.825.825,0,0,1,.035.2" transform="translate(-126.53 -90.646)" fill="#1a2e35"/>
            <path id="Trazado_161366" data-name="Trazado 161366" d="M404.991,393.947H373.172l-.727-6.124h32.546Z" transform="translate(-119.648 -124.588)" fill="#1a2e35"/>
            <path id="Trazado_161367" data-name="Trazado 161367" d="M378.546,395.818l3.978,18.373h17.29l3.722-18.373Z" transform="translate(-121.608 -127.156)" fill="#1a2e35"/>
            <path id="Trazado_161368" data-name="Trazado 161368" d="M405.6,396.738c0,.1-7,.157-15.624.134s-15.625-.123-15.624-.221,6.995-.157,15.625-.132,15.623.122,15.623.22" transform="translate(-120.262 -127.379)" fill="#375a64"/>
            <path id="Trazado_161369" data-name="Trazado 161369" d="M402.361,408.975a14.008,14.008,0,0,0-2.809-1.59,9.916,9.916,0,0,0-3.4-.677,12,12,0,0,0-4.18.769c-1.45.49-2.8,1.06-4.127,1.374a9.816,9.816,0,0,1-3.572.1,7.294,7.294,0,0,1-2.292-.734,4.3,4.3,0,0,1-.55-.355c-.119-.092-.177-.144-.17-.154a8.425,8.425,0,0,0,3.048,1,10.016,10.016,0,0,0,3.464-.173c1.27-.318,2.624-.9,4.086-1.391a11.91,11.91,0,0,1,4.3-.76,9.735,9.735,0,0,1,3.487.772,8.937,8.937,0,0,1,2.073,1.218,5.155,5.155,0,0,1,.492.43c.107.105.158.164.15.173" transform="translate(-122.479 -130.548)" fill="#375a64"/>
            <path id="Trazado_161370" data-name="Trazado 161370" d="M402.349,410.8a14.921,14.921,0,0,0-2.7-1.569,9.136,9.136,0,0,0-3.28-.67,11.828,11.828,0,0,0-4.044.73c-1.4.468-2.717,1.011-3.975,1.349a10.2,10.2,0,0,1-3.432.38,5.774,5.774,0,0,1-2.248-.61,3.938,3.938,0,0,1-.533-.343c-.115-.089-.171-.14-.164-.15.019-.027.267.147.757.369a6.2,6.2,0,0,0,2.2.484,10.5,10.5,0,0,0,3.33-.444c1.227-.347,2.532-.9,3.951-1.37a11.731,11.731,0,0,1,4.163-.72,8.988,8.988,0,0,1,3.369.766,8.813,8.813,0,0,1,1.985,1.21,5.37,5.37,0,0,1,.472.42c.1.1.152.159.144.168" transform="translate(-122.709 -131.142)" fill="#fff"/>
            <path id="Trazado_161371" data-name="Trazado 161371" d="M402.513,407.059a16.132,16.132,0,0,0-2.885-1.679,10.587,10.587,0,0,0-3.487-.833,11.293,11.293,0,0,0-4.313.762,38.705,38.705,0,0,1-4.273,1.393,10.851,10.851,0,0,1-3.688,0,8.192,8.192,0,0,1-2.366-.757,4.233,4.233,0,0,1-.572-.361c-.124-.094-.184-.147-.176-.157.019-.027.284.157.808.394a9.2,9.2,0,0,0,2.344.635,11.145,11.145,0,0,0,3.587-.074,43.785,43.785,0,0,0,4.222-1.408,11.268,11.268,0,0,1,4.447-.753,10.355,10.355,0,0,1,3.568.929,10.151,10.151,0,0,1,2.121,1.286,5.534,5.534,0,0,1,.508.444c.11.108.164.169.155.178" transform="translate(-122.316 -129.849)" fill="#fff"/>
          </g>
        </g>
        <text id="DE_USUARIO" data-name="DE USUARIO" transform="translate(103.82 118.612)" fill="#fff" font-size="24" font-family="Roboto-Light, Roboto" font-weight="300"><tspan x="0" y="0">DE US</tspan><tspan y="0" letter-spacing="-0.01em">U</tspan><tspan y="0">ARIO</tspan></text>
      </g>
    </g>
  </g>
</svg>
