<svg id="Grupo_72189" data-name="Grupo 72189" xmlns="http://www.w3.org/2000/svg" xmlns:xlink="http://www.w3.org/1999/xlink" width="100.336" height="100.337" viewBox="0 0 100.336 100.337">
  <defs>
    <clipPath id="clip-path">
      <rect id="Rectángulo_9385" data-name="Rectángulo 9385" width="100.336" height="100.337" transform="translate(0 0)" fill="none"/>
    </clipPath>
  </defs>
  <g id="Grupo_72189-2" data-name="Grupo 72189" clip-path="url(#clip-path)">
    <path id="Trazado_161442" data-name="Trazado 161442" d="M100.336,50.17A50.168,50.168,0,1,1,50.168,0a50.167,50.167,0,0,1,50.168,50.17" fill="#26cb99"/>
    <rect id="Rectángulo_9369" data-name="Rectángulo 9369" width="27.974" height="27.974" transform="translate(21.963 21.732)" fill="#fff"/>
    <rect id="Rectángulo_9370" data-name="Rectángulo 9370" width="27.974" height="7.631" transform="translate(21.963 41.845)" fill="#303e41"/>
    <rect id="Rectángulo_9371" data-name="Rectángulo 9371" width="14.796" height="1.271" transform="translate(33.369 43.753)" fill="#fff"/>
    <rect id="Rectángulo_9372" data-name="Rectángulo 9372" width="18.495" height="4.625" transform="translate(25.74 25.662)" fill="#ed6b5a"/>
    <rect id="Rectángulo_9373" data-name="Rectángulo 9373" width="27.974" height="27.974" transform="translate(50.399 21.732)" fill="#fff"/>
    <rect id="Rectángulo_9374" data-name="Rectángulo 9374" width="27.974" height="7.631" transform="translate(50.399 41.845)" fill="#303e41"/>
    <rect id="Rectángulo_9375" data-name="Rectángulo 9375" width="14.796" height="1.271" transform="translate(61.805 43.753)" fill="#ed6b5a"/>
    <rect id="Rectángulo_9376" data-name="Rectángulo 9376" width="18.495" height="4.625" transform="translate(54.176 25.662)" fill="#f8a06d"/>
    <path id="Trazado_161443" data-name="Trazado 161443" d="M50.631,50.4H21.27V21.039H50.631ZM22.657,49.012H49.244V22.426H22.657Z" fill="#303e41"/>
    <path id="Trazado_161444" data-name="Trazado 161444" d="M79.067,50.4H49.706V21.039H79.067ZM51.093,49.012H77.68V22.426H51.093Z" fill="#303e41"/>
    <rect id="Rectángulo_9377" data-name="Rectángulo 9377" width="27.974" height="27.974" transform="translate(21.963 50.631)" fill="#fff"/>
    <rect id="Rectángulo_9378" data-name="Rectángulo 9378" width="27.974" height="7.628" transform="translate(21.963 70.745)" fill="#303e41"/>
    <rect id="Rectángulo_9379" data-name="Rectángulo 9379" width="14.796" height="1.272" transform="translate(33.369 72.652)" fill="#ed6b5a"/>
    <rect id="Rectángulo_9380" data-name="Rectángulo 9380" width="18.495" height="4.623" transform="translate(25.74 54.562)" fill="#f6a09c"/>
    <rect id="Rectángulo_9381" data-name="Rectángulo 9381" width="27.974" height="27.974" transform="translate(50.399 50.631)" fill="#fff"/>
    <rect id="Rectángulo_9382" data-name="Rectángulo 9382" width="27.974" height="7.628" transform="translate(50.399 70.745)" fill="#303e41"/>
    <rect id="Rectángulo_9383" data-name="Rectángulo 9383" width="14.796" height="1.272" transform="translate(61.805 72.652)" fill="#fff"/>
    <rect id="Rectángulo_9384" data-name="Rectángulo 9384" width="18.495" height="4.623" transform="translate(54.176 54.562)" fill="#6eb9e0"/>
    <path id="Trazado_161445" data-name="Trazado 161445" d="M50.631,79.3H21.27V49.937H50.631ZM22.657,77.912H49.244V51.324H22.657Z" fill="#303e41"/>
    <path id="Trazado_161446" data-name="Trazado 161446" d="M79.067,79.3H49.706V49.937H79.067ZM51.093,77.912H77.68V51.324H51.093Z" fill="#303e41"/>
  </g>
</svg>
