<svg id="Grupo_70790" data-name="Grupo 70790" xmlns="http://www.w3.org/2000/svg" xmlns:xlink="http://www.w3.org/1999/xlink" width="400" height="357.899" viewBox="0 0 400 357.899">
  <defs>
    <clipPath id="clip-path">
      <rect id="Rectángulo_8409" data-name="Rectángulo 8409" width="400" height="357.9" fill="none"/>
    </clipPath>
    <clipPath id="clip-path-3">
      <rect id="Rectángulo_8390" data-name="Rectángulo 8390" width="55.809" height="74.097" fill="none"/>
    </clipPath>
    <clipPath id="clip-path-4">
      <rect id="Rectángulo_8389" data-name="Rectángulo 8389" width="2.357" height="9.607" fill="none"/>
    </clipPath>
    <clipPath id="clip-path-5">
      <rect id="Rectángulo_8392" data-name="Rectángulo 8392" width="83.95" height="111.459" fill="none"/>
    </clipPath>
    <clipPath id="clip-path-6">
      <rect id="Rectángulo_8391" data-name="Rectángulo 8391" width="3.546" height="14.451" fill="none"/>
    </clipPath>
    <clipPath id="clip-path-7">
      <rect id="Rectángulo_8395" data-name="Rectángulo 8395" width="21.477" height="25.179" fill="none"/>
    </clipPath>
    <clipPath id="clip-path-8">
      <rect id="Rectángulo_8393" data-name="Rectángulo 8393" width="9.754" height="8.091" fill="none"/>
    </clipPath>
    <clipPath id="clip-path-9">
      <rect id="Rectángulo_8394" data-name="Rectángulo 8394" width="10.468" height="18.822" fill="none"/>
    </clipPath>
    <clipPath id="clip-path-10">
      <rect id="Rectángulo_8396" data-name="Rectángulo 8396" width="233.426" height="354.774" fill="none"/>
    </clipPath>
    <clipPath id="clip-path-11">
      <rect id="Rectángulo_8397" data-name="Rectángulo 8397" width="150.118" height="82.179" fill="none"/>
    </clipPath>
    <clipPath id="clip-path-12">
      <rect id="Rectángulo_8398" data-name="Rectángulo 8398" width="38.382" height="65.96" fill="none"/>
    </clipPath>
    <clipPath id="clip-path-13">
      <rect id="Rectángulo_8399" data-name="Rectángulo 8399" width="163.618" height="89.918" fill="none"/>
    </clipPath>
    <clipPath id="clip-path-14">
      <rect id="Rectángulo_8400" data-name="Rectángulo 8400" width="129.608" height="71.785" fill="none"/>
    </clipPath>
    <clipPath id="clip-path-15">
      <rect id="Rectángulo_8401" data-name="Rectángulo 8401" width="27.17" height="13.64" fill="none"/>
    </clipPath>
    <clipPath id="clip-path-17">
      <rect id="Rectángulo_8403" data-name="Rectángulo 8403" width="27.17" height="13.639" fill="none"/>
    </clipPath>
    <clipPath id="clip-path-19">
      <rect id="Rectángulo_8405" data-name="Rectángulo 8405" width="95.264" height="52.131" fill="none"/>
    </clipPath>
    <clipPath id="clip-path-20">
      <rect id="Rectángulo_8406" data-name="Rectángulo 8406" width="73.038" height="39.663" fill="none"/>
    </clipPath>
    <clipPath id="clip-path-21">
      <rect id="Rectángulo_8407" data-name="Rectángulo 8407" width="63.601" height="96.288" fill="none"/>
    </clipPath>
  </defs>
  <g id="Grupo_70789" data-name="Grupo 70789" clip-path="url(#clip-path)">
    <g id="Grupo_70788" data-name="Grupo 70788">
      <g id="Grupo_70787" data-name="Grupo 70787" clip-path="url(#clip-path)">
        <path id="Trazado_157934" data-name="Trazado 157934" d="M440.2,262.034c-9-5.2-16.3-17.787-16.3-28.118,0-3.832,1.015-6.8,2.741-8.763-4.941.358-8.283,4.495-8.283,11.475,0,10.331,7.3,22.92,16.3,28.118,5.657,3.266,10.623,2.816,13.542-.52a14.152,14.152,0,0,1-8-2.193" transform="translate(-101.376 -54.559)" fill="#9fe8d2"/>
        <path id="Trazado_157935" data-name="Trazado 157935" d="M452.268,253.49a32.21,32.21,0,0,0-.278-3.952l6.589-.833a59.585,59.585,0,0,0-2.986-9.976l-7.509-2.271a52.711,52.711,0,0,0-4.673-8.06l1.8-7.578a60.218,60.218,0,0,0-7.191-7.578l-4.041,5.228a32.58,32.58,0,0,0-3.3-2.228,25.359,25.359,0,0,0-3.3-1.587l-4.041-9.895a20.017,20.017,0,0,0-7.191-.725l1.8,9.654a10.307,10.307,0,0,0-4.673,2.665l-7.508-6.4a19.579,19.579,0,0,0-2.987,6.527l6.589,8.442a25,25,0,0,0-.279,3.63,32.208,32.208,0,0,0,.279,3.951l-6.589.834a59.49,59.49,0,0,0,2.987,9.976l7.508,2.271a52.811,52.811,0,0,0,4.673,8.06l-1.8,7.577a60.171,60.171,0,0,0,7.191,7.578l4.041-5.227a32.78,32.78,0,0,0,3.3,2.227,25.457,25.457,0,0,0,3.3,1.587l4.041,9.895a20.017,20.017,0,0,0,7.191.725l-1.8-9.654a10.314,10.314,0,0,0,4.673-2.664l7.509,6.4a19.612,19.612,0,0,0,2.986-6.527l-6.589-8.442a24.983,24.983,0,0,0,.278-3.629m-21.386,6.121c-9-5.2-16.3-17.787-16.3-28.118s7.3-14.492,16.3-9.294,16.3,17.786,16.3,28.117-7.3,14.492-16.3,9.294" transform="translate(-97.599 -49.424)" fill="#b5f0ee"/>
        <path id="Trazado_157936" data-name="Trazado 157936" d="M440.26,210.125l-4.041-9.895-6.315,3.627,4.041,9.895Z" transform="translate(-104.174 -48.52)" fill="#9fe8d2"/>
        <path id="Trazado_157937" data-name="Trazado 157937" d="M435.238,216.916a25.358,25.358,0,0,1,3.3,1.587,32.693,32.693,0,0,1,3.3,2.227l4.041-5.226h0s-.683-.429-1.029-.628a25.31,25.31,0,0,0-3.3-1.587Z" transform="translate(-105.467 -51.684)" fill="#d9fffd"/>
        <path id="Trazado_157938" data-name="Trazado 157938" d="M433.919,199.974a20.017,20.017,0,0,0-7.191-.725l-6.315,3.627a20.019,20.019,0,0,1,7.191.725Z" transform="translate(-101.874 -48.264)" fill="#d9fffd"/>
        <path id="Trazado_157939" data-name="Trazado 157939" d="M462.8,219a60.225,60.225,0,0,0-7.191-7.578l-6.314,3.628a60.218,60.218,0,0,1,7.191,7.578Z" transform="translate(-108.872 -51.232)" fill="#d9fffd"/>
        <path id="Trazado_157940" data-name="Trazado 157940" d="M458.207,225.053l-1.8,7.577L462.723,229l1.8-7.577Z" transform="translate(-110.597 -53.656)" fill="#9fe8d2"/>
        <path id="Trazado_157941" data-name="Trazado 157941" d="M456.408,235.053a52.754,52.754,0,0,1,4.673,8.061l6.314-3.627a52.681,52.681,0,0,0-4.673-8.061Z" transform="translate(-110.597 -56.079)" fill="#9fe8d2"/>
        <path id="Trazado_157942" data-name="Trazado 157942" d="M462.576,245.692l7.509,2.271,6.315-3.628-7.509-2.27Z" transform="translate(-112.091 -58.657)" fill="#d9fffd"/>
        <path id="Trazado_157943" data-name="Trazado 157943" d="M472.486,248.688a59.516,59.516,0,0,1,2.986,9.976l6.315-3.627a59.592,59.592,0,0,0-2.987-9.976Z" transform="translate(-114.493 -59.383)" fill="#9fe8d2"/>
        <path id="Trazado_157944" data-name="Trazado 157944" d="M418.891,214.448l-.524-2.808-5.342-4.554-6.315,3.627,7.509,6.4a10.313,10.313,0,0,1,4.673-2.665" transform="translate(-98.554 -50.181)" fill="#9fe8d2"/>
        <path id="Trazado_157945" data-name="Trazado 157945" d="M475.472,284.1a19.62,19.62,0,0,1-2.986,6.527L478.8,287a19.62,19.62,0,0,0,2.987-6.527Z" transform="translate(-114.493 -67.965)" fill="#9fe8d2"/>
        <path id="Trazado_157946" data-name="Trazado 157946" d="M474.046,267.8a24.979,24.979,0,0,0,.279-3.629c0-.38-.025-.768-.045-1.153l-6.548.828a32.223,32.223,0,0,1,.278,3.952,24.991,24.991,0,0,1-.278,3.629Z" transform="translate(-113.34 -63.735)" fill="#9fe8d2"/>
        <path id="Trazado_157947" data-name="Trazado 157947" d="M467.73,272.96l6.589,8.442,6.315-3.627-6.59-8.442Z" transform="translate(-113.34 -65.265)" fill="#d9fffd"/>
        <path id="Trazado_157948" data-name="Trazado 157948" d="M461.081,285.432a10.314,10.314,0,0,1-4.673,2.664l1.8,9.654,6.314-3.627-1.276-6.846Z" transform="translate(-110.597 -69.166)" fill="#9fe8d2"/>
        <path id="Trazado_157949" data-name="Trazado 157949" d="M409.121,237.815l-6.352,3.728,6.589-.833c-.121-.974-.2-1.939-.237-2.894" transform="translate(-97.599 -57.627)" fill="#d9fffd"/>
        <path id="Trazado_157950" data-name="Trazado 157950" d="M433.945,282.64l-4.041,5.228,6.361-3.621c-.783-.5-1.559-1.033-2.32-1.607" transform="translate(-104.174 -68.489)" fill="#9fe8d2"/>
        <g id="Grupo_70735" data-name="Grupo 70735" transform="translate(305.488 154.508)" style="mix-blend-mode: color-dodge;isolation: isolate">
          <g id="Grupo_70734" data-name="Grupo 70734">
            <g id="Grupo_70733" data-name="Grupo 70733" clip-path="url(#clip-path-3)">
              <path id="Trazado_157951" data-name="Trazado 157951" d="M421.487,217.346l-.018-.1c-.3.116-.589.254-.875.4.294-.106.586-.217.893-.3" transform="translate(-407.406 -207.152)" fill="#fff"/>
              <path id="Trazado_157952" data-name="Trazado 157952" d="M408.658,241.783l-5.47.692c.021.106.051.213.073.319l5.43-.687c-.014-.108-.02-.215-.033-.324" transform="translate(-403.188 -213.097)" fill="#fff"/>
              <path id="Trazado_157953" data-name="Trazado 157953" d="M456.152,224.192l-1.8,7.577a52.727,52.727,0,0,1,4.673,8.061l7.509,2.27a59.776,59.776,0,0,1,2.913,9.657l.744-.123a59.636,59.636,0,0,0-2.986-9.976l-7.509-2.27a52.757,52.757,0,0,0-4.673-8.061l1.8-7.577a60.226,60.226,0,0,0-7.191-7.578l-.247.833a60.511,60.511,0,0,1,6.767,7.187" transform="translate(-414.382 -206.891)" fill="#fff"/>
              <path id="Trazado_157954" data-name="Trazado 157954" d="M434.534,265.124c-9-5.2-16.3-17.787-16.3-28.118,0-4.563,1.432-7.908,3.8-9.782-2.737,1.762-4.42,5.276-4.42,10.225,0,10.331,7.3,22.919,16.3,28.117,4.545,2.624,8.653,2.856,11.609,1.119-.218.067-.448.111-.675.161-2.809,1.02-6.4.539-10.315-1.722" transform="translate(-406.683 -209.569)" fill="#fff"/>
              <path id="Trazado_157955" data-name="Trazado 157955" d="M458.009,287.907a10.221,10.221,0,0,0,2.969-1.664l-.277-.236a10.309,10.309,0,0,1-2.693,1.9" transform="translate(-416.472 -223.814)" fill="#fff"/>
              <path id="Trazado_157956" data-name="Trazado 157956" d="M414.006,218.433c-.274.011,0-.214.277-.437l-7.231-6.162c-.2.284-.389.593-.049.631Z" transform="translate(-404.067 -205.84)" fill="#fff"/>
              <g id="Grupo_70732" data-name="Grupo 70732" transform="translate(40.084 64.49)" style="mix-blend-mode: color-dodge;isolation: isolate">
                <g id="Grupo_70731" data-name="Grupo 70731">
                  <g id="Grupo_70730" data-name="Grupo 70730" clip-path="url(#clip-path-4)">
                    <path id="Trazado_157957" data-name="Trazado 157957" d="M456.152,289.405l1.722,9.239c-.2-.01.193-.015.574-.05l-1.781-9.557c-.36.139-.724.268-.514.368" transform="translate(-456.091 -289.038)" fill="#fff"/>
                  </g>
                </g>
              </g>
              <path id="Trazado_157958" data-name="Trazado 157958" d="M468.229,268.131a31.082,31.082,0,0,0-.246-3.628l-.655.049a32.064,32.064,0,0,1,.279,3.952,24.873,24.873,0,0,1-.279,3.629l6.59,8.442a20.182,20.182,0,0,1-2.406,5.631l.042.523a19.607,19.607,0,0,0,2.987-6.527l-6.59-8.442a24.873,24.873,0,0,0,.279-3.629" transform="translate(-418.73 -218.603)" fill="#fff"/>
              <path id="Trazado_157959" data-name="Trazado 157959" d="M427.43,205.014l4.041,9.895a25.459,25.459,0,0,1,3.3,1.587,32.48,32.48,0,0,1,3.3,2.228l.127-.628a30.949,30.949,0,0,0-2.837-1.891,25.4,25.4,0,0,0-3.3-1.587l-4.041-9.895a20.021,20.021,0,0,0-7.191-.726l.077.415a23.565,23.565,0,0,1,6.521.6" transform="translate(-407.464 -203.923)" fill="#fff"/>
              <path id="Trazado_157960" data-name="Trazado 157960" d="M433.143,283.215l-3.379,4.372c.142.127.28.264.424.39l3.422-4.426c-.155-.114-.313-.219-.467-.336" transform="translate(-409.628 -223.137)" fill="#fff"/>
            </g>
          </g>
        </g>
        <path id="Trazado_157961" data-name="Trazado 157961" d="M433.587,153.765c-13.543-7.819-24.522-26.755-24.522-42.3,0-5.764,1.527-10.224,4.123-13.181-7.433.538-12.46,6.76-12.46,17.261,0,15.54,10.979,34.476,24.522,42.3,8.508,4.912,15.979,4.237,20.369-.782-3.553.26-7.652-.77-12.032-3.3" transform="translate(-97.104 -23.817)" fill="#9fe8d2"/>
        <path id="Trazado_157962" data-name="Trazado 157962" d="M451.738,140.912a48.372,48.372,0,0,0-.419-5.945l9.911-1.254a89.611,89.611,0,0,0-4.491-15.005l-11.294-3.416a79.433,79.433,0,0,0-7.03-12.125l2.706-11.4A90.558,90.558,0,0,0,430.3,80.37l-6.08,7.864a49.281,49.281,0,0,0-4.969-3.35,38.211,38.211,0,0,0-4.969-2.387l-6.08-14.885a30.123,30.123,0,0,0-10.817-1.091L400.1,81.044a15.506,15.506,0,0,0-7.029,4.009l-11.295-9.626a29.494,29.494,0,0,0-4.492,9.818l9.912,12.7a37.525,37.525,0,0,0-.42,5.46,48.381,48.381,0,0,0,.42,5.944L377.28,110.6a89.623,89.623,0,0,0,4.492,15.006l11.294,3.416a79.318,79.318,0,0,0,7.03,12.124l-2.706,11.4a90.462,90.462,0,0,0,10.817,11.4l6.08-7.864a49.318,49.318,0,0,0,4.969,3.35,38.327,38.327,0,0,0,4.969,2.387L430.3,176.7a30.084,30.084,0,0,0,10.817,1.091l-2.706-14.522a15.521,15.521,0,0,0,7.03-4.007l11.294,9.626a29.5,29.5,0,0,0,4.491-9.819l-9.911-12.7a37.523,37.523,0,0,0,.419-5.46m-32.17,9.208c-13.543-7.819-24.521-26.755-24.521-42.3s10.978-21.8,24.521-13.98,24.521,26.754,24.521,42.294-10.978,21.8-24.521,13.981" transform="translate(-91.422 -16.093)" fill="#b5f0ee"/>
        <path id="Trazado_157963" data-name="Trazado 157963" d="M433.676,75.68,427.6,60.8l-9.5,5.456,6.079,14.884Z" transform="translate(-101.313 -14.732)" fill="#9fe8d2"/>
        <path id="Trazado_157964" data-name="Trazado 157964" d="M426.122,85.9a38.326,38.326,0,0,1,4.97,2.387,49.145,49.145,0,0,1,4.969,3.35l6.079-7.862h0s-1.027-.645-1.547-.945a38.273,38.273,0,0,0-4.969-2.387Z" transform="translate(-103.258 -19.492)" fill="#d9fffd"/>
        <path id="Trazado_157965" data-name="Trazado 157965" d="M424.137,60.412A30.125,30.125,0,0,0,413.32,59.32l-9.5,5.456a30.122,30.122,0,0,1,10.817,1.091Z" transform="translate(-97.854 -14.348)" fill="#d9fffd"/>
        <path id="Trazado_157966" data-name="Trazado 157966" d="M467.578,89.033a90.551,90.551,0,0,0-10.817-11.4l-9.5,5.456a90.651,90.651,0,0,1,10.816,11.4Z" transform="translate(-108.381 -18.812)" fill="#d9fffd"/>
        <path id="Trazado_157967" data-name="Trazado 157967" d="M460.673,98.135l-2.706,11.4,9.5-5.456,2.706-11.4Z" transform="translate(-110.974 -22.458)" fill="#9fe8d2"/>
        <path id="Trazado_157968" data-name="Trazado 157968" d="M457.967,113.178A79.3,79.3,0,0,1,465,125.3l9.5-5.456a79.371,79.371,0,0,0-7.03-12.125Z" transform="translate(-110.974 -26.103)" fill="#9fe8d2"/>
        <path id="Trazado_157969" data-name="Trazado 157969" d="M467.245,129.181l11.294,3.416,9.5-5.457-11.294-3.415Z" transform="translate(-113.222 -29.981)" fill="#d9fffd"/>
        <path id="Trazado_157970" data-name="Trazado 157970" d="M482.151,133.689a89.628,89.628,0,0,1,4.492,15.005l9.5-5.456a89.631,89.631,0,0,0-4.492-15.005Z" transform="translate(-116.835 -31.073)" fill="#9fe8d2"/>
        <path id="Trazado_157971" data-name="Trazado 157971" d="M401.533,82.182l-.787-4.223-8.037-6.851-9.5,5.456L394.5,86.19a15.512,15.512,0,0,1,7.029-4.008" transform="translate(-92.859 -17.231)" fill="#9fe8d2"/>
        <path id="Trazado_157972" data-name="Trazado 157972" d="M486.642,186.96a29.5,29.5,0,0,1-4.492,9.819l9.5-5.456a29.505,29.505,0,0,0,4.492-9.819Z" transform="translate(-116.834 -43.982)" fill="#9fe8d2"/>
        <path id="Trazado_157973" data-name="Trazado 157973" d="M484.5,162.443a37.527,37.527,0,0,0,.419-5.46c0-.572-.037-1.154-.068-1.734L475,156.5a48.345,48.345,0,0,1,.419,5.944A37.519,37.519,0,0,1,475,167.9Z" transform="translate(-115.101 -37.62)" fill="#9fe8d2"/>
        <path id="Trazado_157974" data-name="Trazado 157974" d="M475,170.2l9.911,12.7,9.5-5.456-9.911-12.7Z" transform="translate(-115.101 -39.921)" fill="#d9fffd"/>
        <path id="Trazado_157975" data-name="Trazado 157975" d="M465,188.96a15.513,15.513,0,0,1-7.03,4.007l2.706,14.522,9.5-5.456-1.919-10.3Z" transform="translate(-110.974 -45.789)" fill="#9fe8d2"/>
        <path id="Trazado_157976" data-name="Trazado 157976" d="M386.835,117.334l-9.555,5.608,9.912-1.254c-.183-1.466-.295-2.917-.357-4.354" transform="translate(-91.422 -28.432)" fill="#d9fffd"/>
        <path id="Trazado_157977" data-name="Trazado 157977" d="M424.178,184.76l-6.079,7.864,9.569-5.446c-1.178-.755-2.344-1.554-3.49-2.418" transform="translate(-101.314 -44.771)" fill="#9fe8d2"/>
        <g id="Grupo_70741" data-name="Grupo 70741" transform="translate(286.336 50.274)" style="mix-blend-mode: color-dodge;isolation: isolate">
          <g id="Grupo_70740" data-name="Grupo 70740">
            <g id="Grupo_70739" data-name="Grupo 70739" clip-path="url(#clip-path-5)">
              <path id="Trazado_157978" data-name="Trazado 157978" d="M405.438,86.543l-.027-.147c-.452.174-.886.382-1.316.595.442-.16.881-.326,1.343-.448" transform="translate(-384.256 -71.209)" fill="#fff"/>
              <path id="Trazado_157979" data-name="Trazado 157979" d="M386.14,123.3l-8.229,1.042c.033.16.076.32.109.48l8.169-1.034c-.02-.164-.03-.324-.049-.487" transform="translate(-377.911 -80.152)" fill="#fff"/>
              <path id="Trazado_157980" data-name="Trazado 157980" d="M457.582,96.841l-2.706,11.4a79.371,79.371,0,0,1,7.03,12.125l11.294,3.415a89.972,89.972,0,0,1,4.383,14.526l1.118-.185a89.612,89.612,0,0,0-4.491-15.005L462.915,119.7a79.429,79.429,0,0,0-7.03-12.125l2.706-11.4a90.5,90.5,0,0,0-10.817-11.4l-.371,1.252a91.13,91.13,0,0,1,10.179,10.811" transform="translate(-394.75 -70.817)" fill="#fff"/>
              <path id="Trazado_157981" data-name="Trazado 157981" d="M425.062,158.412c-13.543-7.819-24.522-26.755-24.522-42.3,0-6.865,2.154-11.895,5.717-14.716-4.116,2.65-6.648,7.937-6.648,15.381,0,15.54,10.979,34.476,24.522,42.3,6.837,3.948,13.015,4.3,17.462,1.684-.328.1-.674.166-1.015.241-4.227,1.534-9.626.811-15.517-2.59" transform="translate(-383.169 -74.845)" fill="#fff"/>
              <path id="Trazado_157982" data-name="Trazado 157982" d="M460.374,192.685a15.4,15.4,0,0,0,4.468-2.5l-.417-.356a15.478,15.478,0,0,1-4.051,2.859" transform="translate(-397.893 -96.272)" fill="#fff"/>
              <path id="Trazado_157983" data-name="Trazado 157983" d="M394.184,88.178c-.412.017,0-.322.417-.657l-10.877-9.27c-.308.427-.586.893-.075.949Z" transform="translate(-379.233 -69.235)" fill="#fff"/>
              <g id="Grupo_70738" data-name="Grupo 70738" transform="translate(60.295 97.007)" style="mix-blend-mode: color-dodge;isolation: isolate">
                <g id="Grupo_70737" data-name="Grupo 70737">
                  <g id="Grupo_70736" data-name="Grupo 70736" clip-path="url(#clip-path-6)">
                    <path id="Trazado_157984" data-name="Trazado 157984" d="M457.582,194.937l2.59,13.9c-.3-.015.292-.023.863-.076l-2.679-14.375c-.541.208-1.09.4-.774.553" transform="translate(-457.489 -194.384)" fill="#fff"/>
                  </g>
                </g>
              </g>
              <path id="Trazado_157985" data-name="Trazado 157985" d="M475.748,162.935a46.819,46.819,0,0,0-.37-5.458l-.986.074a48.38,48.38,0,0,1,.419,5.945,37.518,37.518,0,0,1-.419,5.459l9.912,12.7a30.313,30.313,0,0,1-3.619,8.47l.064.787a29.5,29.5,0,0,0,4.491-9.819l-9.911-12.7a37.527,37.527,0,0,0,.419-5.46" transform="translate(-401.29 -88.433)" fill="#fff"/>
              <path id="Trazado_157986" data-name="Trazado 157986" d="M414.377,67.993l6.08,14.885a38.316,38.316,0,0,1,4.969,2.387,49.28,49.28,0,0,1,4.969,3.35l.19-.944a46.338,46.338,0,0,0-4.266-2.846,38.177,38.177,0,0,0-4.97-2.387l-6.079-14.884a30.124,30.124,0,0,0-10.817-1.091l.116.624a35.462,35.462,0,0,1,9.809.905" transform="translate(-384.342 -66.352)" fill="#fff"/>
              <path id="Trazado_157987" data-name="Trazado 157987" d="M422.97,185.625l-5.083,6.576c.214.192.422.4.638.587l5.147-6.659c-.233-.171-.47-.33-.7-.5" transform="translate(-387.598 -95.254)" fill="#fff"/>
            </g>
          </g>
        </g>
        <path id="Trazado_157988" data-name="Trazado 157988" d="M448.881,58.77c.075-1.571,1.153-2.256,2.409-1.531a4.934,4.934,0,0,1,2.139,4.157c-.075,1.57-1.154,2.256-2.409,1.531a4.93,4.93,0,0,1-2.139-4.157" transform="translate(-108.772 -13.8)" fill="#eb9595"/>
        <path id="Trazado_157989" data-name="Trazado 157989" d="M439.606,306.914c.05-1.045.767-1.5,1.6-1.018a3.284,3.284,0,0,1,1.423,2.765c-.05,1.045-.768,1.5-1.6,1.018a3.278,3.278,0,0,1-1.423-2.765" transform="translate(-106.524 -74.078)" fill="#eb9595"/>
        <path id="Trazado_157990" data-name="Trazado 157990" d="M500.014,205.13a.587.587,0,0,1-.507-.883l2.815-4.826a.587.587,0,1,1,1.013.592l-2.056,3.526,4.152-1.279a.587.587,0,0,1,.346,1.122l-5.59,1.721a.59.59,0,0,1-.173.026" transform="translate(-121.021 -48.253)" fill="#eb9595"/>
        <path id="Trazado_157991" data-name="Trazado 157991" d="M433.594,234.854a13.465,13.465,0,0,1,5.233,6.319,13.974,13.974,0,0,0,1.735-.589,4.633,4.633,0,0,1,4.029.618,13.681,13.681,0,0,1,6.208,10.708c0,7.19-12.309,9.681-12.309,9.681s-11.705-15.647-11.705-22.837c0-1.962-.833-2.567.286-3.21.1-.055,2.323-1.24,2.426-1.284a4.594,4.594,0,0,1,4.1.593" transform="translate(-103.346 -56.703)" fill="#c85f5e"/>
        <path id="Trazado_157992" data-name="Trazado 157992" d="M431.146,236.33a13.67,13.67,0,0,1,5.5,7c1.037-1.672,3.109-2.028,5.5-.649a13.681,13.681,0,0,1,6.208,10.708c0,7.19-11.706,9.32-11.706,9.32s-11.706-15.647-11.706-22.838c0-3.934,2.779-5.519,6.208-3.539" transform="translate(-102.971 -57.061)" fill="#eb9595"/>
        <g id="Grupo_70750" data-name="Grupo 70750" transform="translate(324.068 178.333)" style="mix-blend-mode: color-dodge;isolation: isolate">
          <g id="Grupo_70749" data-name="Grupo 70749">
            <g id="Grupo_70748" data-name="Grupo 70748" clip-path="url(#clip-path-7)">
              <g id="Grupo_70744" data-name="Grupo 70744" opacity="0.7">
                <g id="Grupo_70743" data-name="Grupo 70743">
                  <g id="Grupo_70742" data-name="Grupo 70742" clip-path="url(#clip-path-8)">
                    <path id="Trazado_157993" data-name="Trazado 157993" d="M431.476,236.451a14.166,14.166,0,0,1,5.775,7.007c.211-.34-.079-.213.212-.441a13.555,13.555,0,0,0-5.344-6.619c-1.874-1.081-3.3-1.337-4.41-.651a4.82,4.82,0,0,1,3.767.7" transform="translate(-427.71 -235.367)" fill="#fff"/>
                  </g>
                </g>
              </g>
              <g id="Grupo_70747" data-name="Grupo 70747" transform="translate(11.009 6.358)" opacity="0.7">
                <g id="Grupo_70746" data-name="Grupo 70746">
                  <g id="Grupo_70745" data-name="Grupo 70745" clip-path="url(#clip-path-9)">
                    <path id="Trazado_157994" data-name="Trazado 157994" d="M446.5,244.658c-1.87-1.08-3.329-1.1-4.26-.523a4.8,4.8,0,0,1,3.754.7,13.68,13.68,0,0,1,6.208,10.708c0,3.341-2.527,5.587-5.233,7.037,3.023-1.417,5.739-3.5,5.739-7.214a13.68,13.68,0,0,0-6.208-10.708" transform="translate(-442.24 -243.758)" fill="#fff"/>
                  </g>
                </g>
              </g>
            </g>
          </g>
        </g>
        <path id="Trazado_157995" data-name="Trazado 157995" d="M490.358,170.808l-.789-.869c6.318-5.736,9.657-15.086,9.657-27.04,0-29.747-21.092-66.126-47.016-81.093l.587-1.017c26.248,15.154,47.6,51.989,47.6,82.11,0,12.294-3.472,21.945-10.042,27.909" transform="translate(-109.579 -14.73)" fill="#eb9595"/>
        <path id="Trazado_157996" data-name="Trazado 157996" d="M526.954,178.8h-.009a.588.588,0,0,1-.578-.6q.009-.58.008-1.168a.587.587,0,1,1,1.174,0q0,.6-.008,1.185a.588.588,0,0,1-.587.578" transform="translate(-127.549 -42.758)" fill="#b5f0ee"/>
        <path id="Trazado_157997" data-name="Trazado 157997" d="M482.455,220.97a.587.587,0,0,1,0-1.174c.765-.006,1.534-.037,2.289-.094a.587.587,0,1,1,.087,1.171c-.78.058-1.577.09-2.367.1Zm-3.491-.135c-.017,0-.033,0-.05,0q-1.16-.1-2.349-.264a.587.587,0,0,1-.5-.663.6.6,0,0,1,.663-.5q1.155.164,2.284.258a.587.587,0,0,1-.048,1.172m9.282-.4a.587.587,0,0,1-.1-1.165c.752-.138,1.5-.3,2.231-.5a.587.587,0,0,1,.3,1.135c-.757.2-1.537.373-2.318.516a.728.728,0,0,1-.107.009m5.594-1.59a.587.587,0,0,1-.216-1.133c.705-.28,1.406-.59,2.083-.923a.587.587,0,0,1,.518,1.052c-.7.348-1.434.671-2.168.962a.57.57,0,0,1-.217.041m5.155-2.678a.587.587,0,0,1-.324-1.077c.636-.42,1.259-.87,1.852-1.335a.587.587,0,1,1,.724.924c-.617.485-1.267.952-1.929,1.39a.579.579,0,0,1-.323.1m4.5-3.682a.587.587,0,0,1-.415-1c.536-.536,1.056-1.1,1.549-1.676a.587.587,0,1,1,.892.763c-.511.6-1.053,1.184-1.611,1.743a.585.585,0,0,1-.414.172M507.2,208a.587.587,0,0,1-.485-.918c.43-.627.843-1.277,1.229-1.932a.587.587,0,1,1,1.011.6c-.4.677-.827,1.349-1.27,2a.589.589,0,0,1-.485.255m2.881-5.054a.573.573,0,0,1-.25-.056.587.587,0,0,1-.281-.781q.484-1.024.919-2.1a.587.587,0,1,1,1.089.439q-.449,1.112-.946,2.166a.586.586,0,0,1-.531.336m2.109-5.423a.571.571,0,0,1-.177-.027.586.586,0,0,1-.383-.736q.34-1.083.638-2.212a.587.587,0,0,1,1.135.3q-.3,1.156-.655,2.265a.585.585,0,0,1-.559.411m1.425-5.646a.579.579,0,0,1-.114-.011.586.586,0,0,1-.464-.688q.218-1.117.4-2.272a.587.587,0,0,1,1.16.177q-.181,1.18-.4,2.319a.587.587,0,0,1-.575.475m.83-5.764a.5.5,0,0,1-.058,0,.587.587,0,0,1-.528-.64q.11-1.135.183-2.3a.57.57,0,0,1,.623-.549.586.586,0,0,1,.549.623q-.074,1.188-.186,2.342a.587.587,0,0,1-.583.531" transform="translate(-115.358 -44.251)" fill="#b5f0ee"/>
        <path id="Trazado_157998" data-name="Trazado 157998" d="M471.661,231.411a.6.6,0,0,1-.126-.014c-.386-.085-.771-.176-1.158-.272a.587.587,0,0,1,.283-1.14q.567.141,1.127.265a.587.587,0,0,1-.126,1.16" transform="translate(-113.873 -55.726)" fill="#b5f0ee"/>
        <path id="Trazado_157999" data-name="Trazado 157999" d="M372.752,108.5a.587.587,0,0,1-.577-.483c-.07-.389-.139-.777-.2-1.165a.587.587,0,1,1,1.158-.192q.1.573.2,1.149a.588.588,0,0,1-.474.682.618.618,0,0,1-.105.009" transform="translate(-90.134 -25.727)" fill="#b5f0ee"/>
        <path id="Trazado_158000" data-name="Trazado 158000" d="M480.551,102.225a.588.588,0,0,1-.544-.367q-.442-1.1-.909-2.188a.587.587,0,1,1,1.08-.461q.469,1.1.918,2.209a.587.587,0,0,1-.324.764.58.58,0,0,1-.221.043M478.2,96.76a.587.587,0,0,1-.534-.343q-.492-1.076-1-2.148a.587.587,0,0,1,1.059-.507q.516,1.081,1.012,2.168a.587.587,0,0,1-.29.777.6.6,0,0,1-.244.053M475.611,91.4a.588.588,0,0,1-.524-.321q-.535-1.056-1.09-2.1a.587.587,0,1,1,1.036-.549q.56,1.057,1.1,2.121a.588.588,0,0,1-.524.853m-2.8-5.245a.585.585,0,0,1-.511-.3q-.581-1.033-1.176-2.057a.586.586,0,1,1,1.013-.59q.6,1.031,1.186,2.072a.586.586,0,0,1-.511.874M371.6,85.617a.587.587,0,0,1-.581-.51q-.156-1.19-.284-2.375a.587.587,0,1,1,1.167-.126q.127,1.169.282,2.347a.587.587,0,0,1-.505.658.54.54,0,0,1-.078.005m98.2-4.582a.587.587,0,0,1-.5-.279q-.622-1.009-1.258-2.006a.586.586,0,1,1,.988-.632q.643,1,1.269,2.021a.587.587,0,0,1-.5.895M371.006,79.7a.588.588,0,0,1-.585-.548q-.081-1.2-.128-2.39a.587.587,0,0,1,.564-.609h.023a.586.586,0,0,1,.586.564q.045,1.173.127,2.357a.587.587,0,0,1-.546.625l-.042,0m95.567-3.663a.585.585,0,0,1-.486-.258q-.664-.981-1.34-1.95a.587.587,0,0,1,.963-.672q.681.976,1.349,1.965a.586.586,0,0,1-.486.915m-95.756-2.276h0a.586.586,0,0,1-.584-.589q0-1.214.047-2.4a.588.588,0,0,1,.586-.565h.022a.587.587,0,0,1,.565.608q-.043,1.163-.047,2.356a.587.587,0,0,1-.587.585m92.334-2.576a.586.586,0,0,1-.472-.239q-.7-.952-1.421-1.891a.587.587,0,0,1,.933-.713q.722.947,1.432,1.907a.588.588,0,0,1-.473.936m-92.073-3.358-.052,0a.586.586,0,0,1-.534-.635q.1-1.21.248-2.384a.587.587,0,0,1,1.165.143q-.141,1.151-.243,2.342a.588.588,0,0,1-.583.536m88.446-1.343a.588.588,0,0,1-.458-.219q-.741-.921-1.5-1.825a.587.587,0,1,1,.9-.753q.764.913,1.512,1.843a.587.587,0,0,1-.458.955M455.7,61.953a.584.584,0,0,1-.44-.2q-.782-.886-1.577-1.754a.587.587,0,1,1,.865-.793q.8.875,1.593,1.771a.587.587,0,0,1-.44.975m-83.84-.009a.558.558,0,0,1-.106-.01.588.588,0,0,1-.473-.683q.221-1.2.484-2.353a.587.587,0,0,1,1.144.262q-.258,1.129-.473,2.3a.588.588,0,0,1-.577.482M451.666,57.6a.587.587,0,0,1-.421-.178q-.829-.851-1.665-1.682a.587.587,0,1,1,.825-.834q.847.839,1.682,1.7a.587.587,0,0,1-.421,1m-78.42-1.425a.613.613,0,0,1-.171-.025.588.588,0,0,1-.391-.733q.356-1.168.759-2.284a.586.586,0,1,1,1.1.4q-.393,1.088-.738,2.227a.587.587,0,0,1-.561.416m74.175-2.734a.587.587,0,0,1-.4-.158q-.867-.809-1.747-1.593a.587.587,0,0,1,.782-.876q.889.793,1.765,1.61a.587.587,0,0,1-.4,1.017m-72.08-2.819a.587.587,0,0,1-.533-.832q.509-1.112,1.074-2.161a.587.587,0,0,1,1.033.556q-.547,1.017-1.041,2.094a.585.585,0,0,1-.533.342M442.964,49.5a.584.584,0,0,1-.376-.136q-.909-.76-1.832-1.494a.587.587,0,1,1,.732-.918q.932.742,1.852,1.511a.587.587,0,0,1-.377,1.038m-4.671-3.675a.583.583,0,0,1-.349-.115q-.955-.7-1.918-1.38a.587.587,0,0,1,.674-.961q.975.684,1.941,1.4a.587.587,0,0,1-.349,1.059m-60.061-.393a.587.587,0,0,1-.487-.915c.454-.674.932-1.333,1.421-1.956a.587.587,0,0,1,.924.725c-.472.6-.933,1.236-1.371,1.887a.588.588,0,0,1-.487.259M433.4,42.454a.588.588,0,0,1-.317-.093q-1-.64-2-1.249a.587.587,0,1,1,.608-1q1.019.615,2.031,1.265a.587.587,0,0,1-.317,1.081M381.977,40.84a.587.587,0,0,1-.417-1c.568-.574,1.162-1.129,1.769-1.653a.587.587,0,1,1,.765.89c-.582.5-1.154,1.037-1.7,1.588a.585.585,0,0,1-.417.174m46.318-1.421a.579.579,0,0,1-.281-.072q-1.049-.572-2.089-1.1a.587.587,0,0,1,.53-1.048q1.055.533,2.121,1.114a.587.587,0,0,1-.28,1.1m-41.743-2.35a.587.587,0,0,1-.324-1.077c.673-.446,1.371-.866,2.076-1.251a.587.587,0,0,1,.562,1.03c-.676.368-1.345.772-1.989,1.2a.587.587,0,0,1-.325.1m36.416-.282a.585.585,0,0,1-.237-.05q-1.092-.483-2.172-.913a.587.587,0,1,1,.436-1.09q1.1.438,2.21.929a.587.587,0,0,1-.237,1.124m-5.542-2.14a.573.573,0,0,1-.183-.03q-1.133-.374-2.25-.687a.587.587,0,0,1,.319-1.13q1.14.322,2.3.7a.587.587,0,0,1-.183,1.145m-25.615-.31A.586.586,0,0,1,391.6,33.2c.742-.292,1.511-.558,2.29-.792a.587.587,0,0,1,.336,1.124c-.746.224-1.485.48-2.2.76a.591.591,0,0,1-.214.04m19.882-1.229a.645.645,0,0,1-.119-.011q-1.166-.239-2.31-.411a.587.587,0,0,1,.174-1.162q1.175.177,2.372.422a.587.587,0,0,1-.117,1.162m-14.174-.367a.587.587,0,0,1-.1-1.165c.784-.139,1.59-.251,2.4-.333a.587.587,0,0,1,.119,1.168c-.776.079-1.553.186-2.309.32a.6.6,0,0,1-.1.009m8.287-.43h-.036c-.789-.05-1.57-.075-2.339-.075a.587.587,0,1,1,0-1.174q1.192,0,2.412.077a.587.587,0,0,1-.036,1.173" transform="translate(-89.714 -7.527)" fill="#b5f0ee"/>
        <path id="Trazado_158001" data-name="Trazado 158001" d="M517.8,130.189a.587.587,0,0,1-.552-.386l-.405-1.1a.587.587,0,0,1,1.1-.409l.408,1.1a.587.587,0,0,1-.552.788" transform="translate(-125.233 -30.996)" fill="#b5f0ee"/>
        <path id="Trazado_158002" data-name="Trazado 158002" d="M489.69,245.772a.589.589,0,0,1-.545-.367q-.218-.54-.443-1.079a.587.587,0,1,1,1.082-.454q.228.546.451,1.093a.587.587,0,0,1-.545.807" transform="translate(-118.411 -59.008)" fill="#eb9595"/>
        <path id="Trazado_158003" data-name="Trazado 158003" d="M464.15,301.809h0c-.783,0-1.582-.044-2.374-.118a.588.588,0,0,1-.53-.64.609.609,0,0,1,.639-.53c.758.072,1.521.11,2.269.114a.587.587,0,0,1,0,1.174m3.474-.245a.587.587,0,0,1-.086-1.167,20.021,20.021,0,0,0,2.21-.458.587.587,0,1,1,.3,1.135,21.583,21.583,0,0,1-2.339.483.592.592,0,0,1-.088.007m-9.239-.409a.578.578,0,0,1-.124-.014c-.75-.161-1.521-.358-2.293-.58a.587.587,0,1,1,.325-1.128c.746.216,1.492.405,2.215.562a.587.587,0,0,1-.124,1.16M473.17,299.9a.587.587,0,0,1-.25-1.118,18,18,0,0,0,1.971-1.083.586.586,0,1,1,.628.99,18.805,18.805,0,0,1-2.1,1.155.587.587,0,0,1-.249.056m-20.338-.445a.575.575,0,0,1-.214-.04q-1.074-.423-2.17-.921a.587.587,0,1,1,.489-1.068q1.064.486,2.11.9a.587.587,0,0,1-.214,1.133m25.127-2.8a.587.587,0,0,1-.4-1.017,19.483,19.483,0,0,0,1.56-1.628.587.587,0,0,1,.892.761,20.514,20.514,0,0,1-1.655,1.727.579.579,0,0,1-.4.157m3.65-4.5a.586.586,0,0,1-.5-.893c.386-.632.753-1.3,1.089-1.99a.587.587,0,0,1,1.055.516c-.353.72-.737,1.421-1.142,2.085a.586.586,0,0,1-.5.281m2.444-5.258a.6.6,0,0,1-.19-.032.586.586,0,0,1-.364-.746c.242-.7.464-1.439.66-2.184a.587.587,0,1,1,1.135.3c-.2.771-.434,1.533-.686,2.264a.585.585,0,0,1-.555.4m1.4-5.633a.526.526,0,0,1-.1-.008.586.586,0,0,1-.483-.675q.184-1.107.308-2.27a.587.587,0,0,1,1.167.124q-.127,1.2-.317,2.338a.587.587,0,0,1-.577.491M486,275.48h-.02a.588.588,0,0,1-.568-.606q.026-.79.026-1.6l0-.7a.587.587,0,0,1,.579-.595.618.618,0,0,1,.595.579l0,.712q0,.832-.025,1.641a.588.588,0,0,1-.587.568m-.136-5.811a.587.587,0,0,1-.584-.543q-.086-1.142-.216-2.3a.587.587,0,0,1,1.168-.13q.131,1.172.22,2.336a.588.588,0,0,1-.541.63.458.458,0,0,1-.046,0m-.7-5.772a.588.588,0,0,1-.578-.489q-.189-1.132-.418-2.269a.587.587,0,1,1,1.151-.231q.232,1.157.426,2.3a.588.588,0,0,1-.482.677.552.552,0,0,1-.1.008m-1.191-5.69a.588.588,0,0,1-.57-.443q-.279-1.118-.595-2.234a.587.587,0,1,1,1.13-.318q.319,1.133.6,2.265a.588.588,0,0,1-.427.713.624.624,0,0,1-.143.017m-1.62-5.585a.586.586,0,0,1-.557-.4q-.361-1.093-.752-2.184a.587.587,0,0,1,1.106-.4q.4,1.106.761,2.215a.585.585,0,0,1-.374.741.573.573,0,0,1-.183.03" transform="translate(-109.069 -60.398)" fill="#eb9595"/>
        <path id="Trazado_158004" data-name="Trazado 158004" d="M446.2,311.659a.581.581,0,0,1-.283-.072q-.516-.284-1.036-.583a.587.587,0,0,1,.585-1.018q.509.293,1.015.571a.587.587,0,0,1-.281,1.1" transform="translate(-107.733 -75.097)" fill="#eb9595"/>
        <path id="Trazado_158005" data-name="Trazado 158005" d="M488,245.879h-.036a.588.588,0,0,1-.549-.623l.195-3.131a.587.587,0,0,1,.936-.435l2.641,1.957a.587.587,0,0,1-.7.943l-1.774-1.314-.127,2.053a.587.587,0,0,1-.586.55" transform="translate(-118.109 -58.538)" fill="#eb9595"/>
        <path id="Trazado_158006" data-name="Trazado 158006" d="M199.3,107.721c-.021-3.854-5.449-6.988-12.124-7s-12.069,3.1-12.049,6.955c.019,3.527,4.571,6.443,10.459,6.923l.011,1.953c-1.116.17-1.94.752-1.936,1.452l.036,6.668c0,.835,1.18,1.514,2.627,1.516l1.981,0c1.446,0,2.615-.672,2.61-1.507l-.036-6.668c0-.7-.833-1.284-1.952-1.459l-.011-1.953c5.883-.458,10.4-3.358,10.384-6.885" transform="translate(-42.436 -24.407)" fill="#fff"/>
        <path id="Trazado_158007" data-name="Trazado 158007" d="M328.305,357.1,118.45,235.864c-8.125-4.691-14.71-17.275-14.71-28.108V16.854c0-10.833,6.586-15.812,14.71-11.121L328.305,126.964c8.125,4.69,14.71,17.274,14.71,28.108v190.9c0,10.833-6.586,15.812-14.71,11.121" transform="translate(-25.138 -0.961)" fill="#d9fffd"/>
        <path id="Trazado_158008" data-name="Trazado 158008" d="M335.9,123,126.045,1.765C122.831-.09,119.857-.433,117.437.5c-.308.119-6.056,3.089-6.346,3.249a.085.085,0,0,0-.014.008c2.506-1.217,5.686-.99,9.151,1.012L330.083,126c8.125,4.69,14.71,17.275,14.71,28.108v190.9c0,6.761-2.565,11.24-6.47,12.513a2.431,2.431,0,0,0,1.289-.438c.186-.108,6.286-3.41,6.464-3.535,2.794-1.956,4.534-5.978,4.534-11.546V151.1c0-10.833-6.586-23.417-14.71-28.108" transform="translate(-26.916 0)" fill="#6ed1b8"/>
        <path id="Trazado_158009" data-name="Trazado 158009" d="M334.252,124.04,124.4,2.808c-3.214-1.856-6.188-2.2-8.608-1.263-.308.119-4.409,2.3-4.7,2.458a.086.086,0,0,0-.014.009c2.506-1.218,5.686-.99,9.151,1.011L330.082,126.254Z" transform="translate(-26.916 -0.253)" fill="#84dbc3"/>
        <g id="Grupo_70753" data-name="Grupo 70753" transform="translate(85.157 2.669)" style="mix-blend-mode: screen;isolation: isolate">
          <g id="Grupo_70752" data-name="Grupo 70752">
            <g id="Grupo_70751" data-name="Grupo 70751" clip-path="url(#clip-path-10)">
              <path id="Trazado_158010" data-name="Trazado 158010" d="M331.107,126.5,121.252,5.272c-3.332-1.924-6.394-2.2-8.86-1.132a10.859,10.859,0,0,1,7.1,1.662L329.342,127.032c8.125,4.691,14.71,17.275,14.71,28.108v190.9c0,6.391-2.3,10.721-5.85,12.254,4.538-.72,7.615-5.383,7.615-12.783V154.61c0-10.833-6.587-23.417-14.711-28.108" transform="translate(-112.392 -3.522)" fill="#fff"/>
            </g>
          </g>
        </g>
        <path id="Trazado_158011" data-name="Trazado 158011" d="M114.644,43.376v173.93c0,8.5,4.044,16.8,10.582,20.954L332.842,358.183l.344.2a2.816,2.816,0,0,0,4.21-2.443V172.057Z" transform="translate(-27.78 -10.511)" fill="#2d6e5e"/>
        <path id="Trazado_158012" data-name="Trazado 158012" d="M337.1,356.815c-.149-.083-.267-.152-.344-.2L129.139,236.7c-6.537-4.156-10.582-12.459-10.582-20.954V45.636l-3.913-2.26v173.93c0,8.5,4.044,16.8,10.582,20.954L332.842,358.184l.344.2a2.808,2.808,0,0,0,4.037-1.515c-.041-.021-.083-.027-.124-.051" transform="translate(-27.781 -10.511)" fill="#1e463d"/>
        <path id="Trazado_158013" data-name="Trazado 158013" d="M393.212,184.732a8.921,8.921,0,0,0,4.049,6.984c2.236,1.29,4.048.257,4.048-2.309a8.919,8.919,0,0,0-4.048-6.983c-2.237-1.291-4.049-.258-4.049,2.308" transform="translate(-95.283 -44.07)" fill="#ffb92d"/>
        <path id="Trazado_158014" data-name="Trazado 158014" d="M379.43,176.726a8.918,8.918,0,0,0,4.049,6.983c2.236,1.291,4.048.258,4.048-2.308a8.919,8.919,0,0,0-4.048-6.983c-2.237-1.291-4.049-.258-4.049,2.308" transform="translate(-91.943 -42.13)" fill="#eb9595"/>
        <path id="Trazado_158015" data-name="Trazado 158015" d="M365.648,168.72A8.922,8.922,0,0,0,369.7,175.7c2.236,1.29,4.049.257,4.049-2.309a8.92,8.92,0,0,0-4.049-6.983c-2.236-1.291-4.048-.258-4.048,2.308" transform="translate(-88.604 -40.19)" fill="#47ba8d"/>
        <path id="Trazado_158016" data-name="Trazado 158016" d="M289.605,159.049l-15.227-8.791c-1.539-.888-2.786-.177-2.786,1.588a6.137,6.137,0,0,0,2.786,4.8l15.227,8.791c1.538.888,2.785.177,2.785-1.588a6.138,6.138,0,0,0-2.785-4.8m25.069,14.474-15.228-8.791c-1.538-.889-2.785-.177-2.785,1.587a6.139,6.139,0,0,0,2.785,4.805l15.228,8.791c1.538.888,2.785.177,2.785-1.588a6.138,6.138,0,0,0-2.785-4.8M339.743,188,324.516,179.2c-1.538-.888-2.785-.177-2.785,1.588a6.138,6.138,0,0,0,2.785,4.8l15.227,8.791c1.539.889,2.786.177,2.786-1.588a6.137,6.137,0,0,0-2.786-4.8m25.069,14.474-15.227-8.791c-1.539-.889-2.786-.177-2.786,1.588a6.136,6.136,0,0,0,2.786,4.8l15.227,8.791c1.538.888,2.785.177,2.785-1.588a6.138,6.138,0,0,0-2.785-4.8" transform="translate(-65.812 -36.318)" fill="#9fe8d2"/>
        <path id="Trazado_158017" data-name="Trazado 158017" d="M215.623,177.166V242.7l7.168-4.2V172.784Z" transform="translate(-52.25 -41.869)" fill="#39ab95"/>
        <path id="Trazado_158018" data-name="Trazado 158018" d="M169.932,152.285v65.533L26.955,135.825V70.107Z" transform="translate(-6.532 -16.988)" fill="#6ed1b8"/>
        <path id="Trazado_158019" data-name="Trazado 158019" d="M26.955,68.726,169.931,150.9l7.141-4.382L34.05,64.41Z" transform="translate(-6.532 -15.608)" fill="#9fe8d2"/>
        <g id="Grupo_70756" data-name="Grupo 70756" transform="translate(20.423 53.119)" opacity="0.7">
          <g id="Grupo_70755" data-name="Grupo 70755">
            <g id="Grupo_70754" data-name="Grupo 70754" clip-path="url(#clip-path-11)">
              <path id="Trazado_158020" data-name="Trazado 158020" d="M26.955,70.107l142.977,82.179,7.141-4.382-7.161,3.384Z" transform="translate(-26.955 -70.107)" fill="#fff"/>
            </g>
          </g>
        </g>
        <path id="Trazado_158021" data-name="Trazado 158021" d="M173.59,224.595v-2.782L128.465,196.16v2.783Z" transform="translate(-31.13 -47.533)" fill="#fff"/>
        <path id="Trazado_158022" data-name="Trazado 158022" d="M102.674,127.854v2.782l75.851,43.392v-2.782Z" transform="translate(-24.88 -30.982)" fill="#fff"/>
        <path id="Trazado_158023" data-name="Trazado 158023" d="M129.381,173.8l-26.707-15.42v2.783l26.707,15.42Z" transform="translate(-24.88 -38.378)" fill="#fff"/>
        <path id="Trazado_158024" data-name="Trazado 158024" d="M161.776,207.761v2.782l11.033,5.97V213.73Z" transform="translate(-39.201 -50.345)" fill="#fff"/>
        <path id="Trazado_158025" data-name="Trazado 158025" d="M145.742,167.981l-43.068-24.866V145.9l43.068,24.866Z" transform="translate(-24.88 -34.68)" fill="#fff"/>
        <path id="Trazado_158026" data-name="Trazado 158026" d="M118.449,159.854l-15.775-9.108v2.783l15.775,9.107Z" transform="translate(-24.88 -36.529)" fill="#fff"/>
        <path id="Trazado_158027" data-name="Trazado 158027" d="M118.2,185.386l30.277,17.48v-2.783L118.2,182.6Z" transform="translate(-28.642 -44.248)" fill="#fff"/>
        <path id="Trazado_158028" data-name="Trazado 158028" d="M127.109,164.854v2.782l42.508,24.141V189Z" transform="translate(-30.801 -39.947)" fill="#fff"/>
        <path id="Trazado_158029" data-name="Trazado 158029" d="M141.537,180.815V183.6l21.252,12.27v-2.782Z" transform="translate(-34.297 -43.815)" fill="#fff"/>
        <path id="Trazado_158030" data-name="Trazado 158030" d="M111.7,178.849l-9.025-5.211v2.782l9.025,5.211Z" transform="translate(-24.88 -42.076)" fill="#fff"/>
        <path id="Trazado_158031" data-name="Trazado 158031" d="M163.131,180.8l30.043,16.944v-2.782l-30.043-16.944Z" transform="translate(-39.53 -43.138)" fill="#fff"/>
        <path id="Trazado_158032" data-name="Trazado 158032" d="M186.827,201.586l12.089,6.98v-2.782l-12.089-6.98Z" transform="translate(-45.272 -48.174)" fill="#fff"/>
        <path id="Trazado_158033" data-name="Trazado 158033" d="M102.674,138.267l75.851,43.392v-2.783l-75.851-43.392Z" transform="translate(-24.88 -32.83)" fill="#fff"/>
        <path id="Trazado_158034" data-name="Trazado 158034" d="M173.2,201.879l22.412,12.54v-2.783L173.2,199.1Z" transform="translate(-41.97 -48.245)" fill="#fff"/>
        <path id="Trazado_158035" data-name="Trazado 158035" d="M119.476,190.97l-16.8-9.7v2.783l16.8,9.7Z" transform="translate(-24.88 -43.925)" fill="#fff"/>
        <path id="Trazado_158036" data-name="Trazado 158036" d="M191.636,234.886l8.445,4.876v-2.783l-8.445-4.876Z" transform="translate(-46.437 -56.243)" fill="#fff"/>
        <path id="Trazado_158037" data-name="Trazado 158037" d="M179.952,220.509l17.3,9.987v-2.782l-17.3-9.988Z" transform="translate(-43.606 -52.759)" fill="#fff"/>
        <path id="Trazado_158038" data-name="Trazado 158038" d="M102.674,168.79l75.851,43.392V209.4l-75.851-43.392Z" transform="translate(-24.88 -40.227)" fill="#fff"/>
        <path id="Trazado_158039" data-name="Trazado 158039" d="M71.258,108.414,46.322,93.989c-4.36-2.517-7.894.155-7.894,5.967V128.82c0,5.813,3.534,12.565,7.894,15.082l24.936,14.425c4.36,2.517,7.894-.155,7.894-5.967V123.5c0-5.813-3.534-12.565-7.894-15.082" transform="translate(-9.312 -22.546)" fill="#39ab95"/>
        <path id="Trazado_158040" data-name="Trazado 158040" d="M74.339,156,49.4,141.575c-4.36-2.516-7.894-9.269-7.894-15.082V97.629a9.461,9.461,0,0,1,.976-4.505c-2.419.4-4.057,2.9-4.057,6.852V128.84c0,5.813,3.534,12.565,7.894,15.082l24.936,14.425c2.981,1.721,5.574,1.014,6.918-1.462A5.81,5.81,0,0,1,74.339,156" transform="translate(-9.312 -22.566)" fill="#34947c"/>
        <path id="Trazado_158041" data-name="Trazado 158041" d="M45.694,119.066,20.758,104.641c-4.36-2.517-7.894.155-7.894,5.967v28.864c0,5.813,3.534,12.565,7.894,15.082l24.936,14.425c4.36,2.517,7.894-.155,7.894-5.967V134.148c0-5.813-3.534-12.565-7.894-15.082" transform="translate(-3.117 -25.127)" fill="#47ba8d"/>
        <path id="Trazado_158042" data-name="Trazado 158042" d="M50.616,115.919,25.68,101.494a5.156,5.156,0,0,0-4.931-.533l-.043-.047-4.314,2.533.016.053c1.39-.827,3.208-.774,5.2.379L46.548,118.3c4.36,2.518,7.894,9.27,7.894,15.083V162.25c0,2.825-.84,4.9-2.2,6.005l2.406-1.584a7.1,7.1,0,0,0,3.86-6.806V131c0-5.813-3.534-12.565-7.894-15.082" transform="translate(-3.972 -24.365)" fill="#31a17d"/>
        <g id="Grupo_70759" data-name="Grupo 70759" transform="translate(12.531 78.199)" opacity="0.7">
          <g id="Grupo_70758" data-name="Grupo 70758">
            <g id="Grupo_70757" data-name="Grupo 70757" clip-path="url(#clip-path-12)">
              <path id="Trazado_158043" data-name="Trazado 158043" d="M47.027,118.578,22.091,104.154c-2.165-1.25-4.126-1.218-5.552-.158a5.332,5.332,0,0,1,4.592.675l24.936,14.425c4.36,2.518,7.894,9.27,7.894,15.083v28.864c0,2.925-.9,5.053-2.341,6.126,2-.757,3.3-3.117,3.3-6.643V133.661c0-5.814-3.534-12.566-7.894-15.083" transform="translate(-16.539 -103.208)" fill="#fff"/>
            </g>
          </g>
        </g>
        <path id="Trazado_158044" data-name="Trazado 158044" d="M21.593,115.457V148.5l27.042,15.619V131.076ZM46.9,161.115,23.327,147.5V118.46L46.9,132.076Z" transform="translate(-5.232 -27.977)" fill="#fff"/>
        <path id="Trazado_158045" data-name="Trazado 158045" d="M47.259,141.79c0,2.165-1.529,3.037-3.416,1.947a7.526,7.526,0,0,1-3.416-5.892c0-2.165,1.53-3.037,3.416-1.947a7.526,7.526,0,0,1,3.416,5.892" transform="translate(-9.796 -32.817)" fill="#fff"/>
        <path id="Trazado_158046" data-name="Trazado 158046" d="M22.789,144.568l7.041-9.1,7.149,18.09,5.2-4.225,5.741,15.6-.108,1.579L22.9,153.189Z" transform="translate(-5.522 -32.827)" fill="#fff"/>
        <path id="Trazado_158047" data-name="Trazado 158047" d="M448.53,140.48c0,4.491-1.549,7.671-4.068,9.21-.076.046-4.3,2.669-4.381,2.712-2.62,1.465-.945-1.86-4.924-4.157-8.01-4.625-14.5-15.825-14.5-25.016,0-4.545-4.2-4.582-1.628-6.1.071-.042,4.8-2.744,4.876-2.784,2.614-1.415,6.186-1.154,10.125,1.12,8.01,4.625,14.5,15.825,14.5,25.016" transform="translate(-101.336 -27.497)" fill="#ffb92d"/>
        <path id="Trazado_158048" data-name="Trazado 158048" d="M430.573,118.739c-3.84-2.217-7.328-2.515-9.923-1.218,2.419-.677,5.419-.171,8.67,1.706,8.01,4.625,14.5,15.825,14.5,25.016,0,4.786-1.763,8.078-4.581,9.488,3.541-.99,5.833-4.513,5.833-9.975,0-9.191-6.493-20.391-14.5-25.016" transform="translate(-101.932 -28.291)" fill="#fff"/>
        <path id="Trazado_158049" data-name="Trazado 158049" d="M442.693,144.213c0,9.191-6.493,12.893-14.5,8.269s-14.5-15.825-14.5-25.016,6.493-12.894,14.5-8.269,14.5,15.825,14.5,25.016" transform="translate(-100.244 -28.401)" fill="#ffc33a"/>
        <path id="Trazado_158050" data-name="Trazado 158050" d="M428.1,132.718c0,1.292-.912,1.812-2.038,1.162a4.493,4.493,0,0,1-2.038-3.516c0-1.292.913-1.812,2.038-1.162a4.488,4.488,0,0,1,2.038,3.515" transform="translate(-102.749 -31.241)" fill="#d99127"/>
        <path id="Trazado_158051" data-name="Trazado 158051" d="M438.979,139c0,1.292-.912,1.812-2.038,1.162a4.493,4.493,0,0,1-2.038-3.516c0-1.292.913-1.812,2.038-1.162A4.488,4.488,0,0,1,438.979,139" transform="translate(-105.385 -32.763)" fill="#d99127"/>
        <path id="Trazado_158052" data-name="Trazado 158052" d="M421.989,140.953l1.9.322a13.856,13.856,0,0,0,5.836,8.092c2.537,1.465,4.858.982,5.776-1.2l1.881,1.924c-1.217,2.894-4.294,3.535-7.657,1.593-3.466-2-6.575-6.313-7.737-10.73" transform="translate(-102.256 -34.156)" fill="#d99127"/>
        <path id="Trazado_158053" data-name="Trazado 158053" d="M426.658,133.474a4.49,4.49,0,0,1-2.038-3.515,1.7,1.7,0,0,1,.274-.993c-.524.12-.87.618-.87,1.41a4.492,4.492,0,0,0,2.038,3.515c.759.438,1.413.334,1.764-.169a1.632,1.632,0,0,1-1.168-.248" transform="translate(-102.749 -31.251)" fill="#b0761f"/>
        <path id="Trazado_158054" data-name="Trazado 158054" d="M437.537,139.755a4.491,4.491,0,0,1-2.038-3.516,1.7,1.7,0,0,1,.274-.993c-.524.12-.87.618-.87,1.409a4.493,4.493,0,0,0,2.038,3.516c.759.438,1.413.334,1.764-.169a1.632,1.632,0,0,1-1.168-.248" transform="translate(-105.385 -32.773)" fill="#b0761f"/>
        <path id="Trazado_158055" data-name="Trazado 158055" d="M439.778,150.711l-.233-.239a3.482,3.482,0,0,1-.871,1.246,3.06,3.06,0,0,0,1.1-1.008" transform="translate(-106.299 -36.462)" fill="#b0761f"/>
        <path id="Trazado_158056" data-name="Trazado 158056" d="M430.321,151.265a18.289,18.289,0,0,1-7.578-10.185l-.754-.128c1.162,4.417,4.27,8.728,7.737,10.73,2.532,1.462,4.9,1.459,6.436.134-1.518.882-3.616.734-5.841-.551" transform="translate(-102.256 -34.155)" fill="#b0761f"/>
        <path id="Trazado_158057" data-name="Trazado 158057" d="M448.827,337.981v80.031l7.168-4.2V333.6Z" transform="translate(-108.759 -80.837)" fill="#39ab95"/>
        <path id="Trazado_158058" data-name="Trazado 158058" d="M398.818,310.625v80.031L242.341,300.924V220.708Z" transform="translate(-58.724 -53.482)" fill="#6ed1b8"/>
        <path id="Trazado_158059" data-name="Trazado 158059" d="M242.342,219.327l156.477,89.918,7.141-4.382L249.436,215.011Z" transform="translate(-58.724 -52.101)" fill="#9fe8d2"/>
        <g id="Grupo_70762" data-name="Grupo 70762" transform="translate(183.617 167.225)" opacity="0.7">
          <g id="Grupo_70761" data-name="Grupo 70761">
            <g id="Grupo_70760" data-name="Grupo 70760" clip-path="url(#clip-path-13)">
              <path id="Trazado_158060" data-name="Trazado 158060" d="M242.342,220.708l156.477,89.918,7.141-4.382-7.161,3.384Z" transform="translate(-242.341 -220.707)" fill="#fff"/>
            </g>
          </g>
        </g>
        <path id="Trazado_158061" data-name="Trazado 158061" d="M420.618,371.01c0,15.561-10.993,21.83-24.555,14s-24.555-26.792-24.555-42.353,10.994-21.83,24.555-14,24.555,26.792,24.555,42.353" transform="translate(-90.024 -78.823)" fill="#39ab95"/>
        <path id="Trazado_158062" data-name="Trazado 158062" d="M398.41,383.606c-13.561-7.83-24.555-26.792-24.555-42.353,0-5.806,1.532-10.317,4.155-13.285-4.035,2.691-6.5,7.971-6.5,15.339,0,15.561,10.993,34.524,24.554,42.353,8.5,4.908,15.993,4.275,20.4-.714-4.487,2.992-10.912,2.782-18.053-1.34" transform="translate(-90.024 -79.473)" fill="#34947c"/>
        <path id="Trazado_158063" data-name="Trazado 158063" d="M298.751,276.783l-5.28-3.048v59.5l5.28,3.048Zm7.6-2.984-5.28-3.048v66.805l5.28,3.048Zm7.828,13.441-5.28-3.048v57.838l5.28,3.048Zm-36.365,4.191v32.6l5.28,3.048v-32.6Zm13.106-9.061-5.28-3.048V328.5l5.28,3.048Zm30.937,21.389-5.28-3.048V346.5l5.28,3.047Zm7.529,18.882-5.28-3.048V350.9l5.28,3.048Zm-54.122-36.86-5.28-3.048v36.574l5.28,3.048Zm-20.935,2.159V310.1l5.28,3.048V290.988Zm13.107-8.692-5.28-3.048v38.374l5.28,3.048Z" transform="translate(-61.63 -65.608)" fill="#39ab95"/>
        <path id="Trazado_158064" data-name="Trazado 158064" d="M298.752,303.306l-5.279-3.048V336.4l5.279,3.048Zm7.6-16.433-5.28-3.047v56.9l5.28,3.048Zm7.827,14.1-5.28-3.048V345.2l5.28,3.048Zm-36.365,1.549v24.677l5.28,3.048V305.566Zm13.107-.968-5.28-3.048v33.165l5.28,3.048Zm-15.657-9.61-5.28-3.048v33.583l5.28,3.048Zm-20.934,14.91v6.418l5.28,3.048V309.9Zm13.106.013-5.279-3.048V317.74l5.279,3.048Zm54.42,8.585-5.28-3.048v37.27l5.28,3.048Zm7.529,15-5.28-3.048v26.664l5.28,3.048Z" transform="translate(-61.63 -68.776)" fill="#b5f0ee"/>
        <path id="Trazado_158065" data-name="Trazado 158065" d="M331.635,306.137l-5.279-3.048v-.66l5.279,3.048Z" transform="translate(-79.082 -73.284)" fill="#fff"/>
        <path id="Trazado_158066" data-name="Trazado 158066" d="M321.3,287.533l-5.28-3.048v-.66l5.28,3.048Z" transform="translate(-76.579 -68.776)" fill="#fff"/>
        <path id="Trazado_158067" data-name="Trazado 158067" d="M351.706,345.049,346.426,342v-.66l5.28,3.048Z" transform="translate(-83.946 -82.714)" fill="#fff"/>
        <path id="Trazado_158068" data-name="Trazado 158068" d="M311.269,309.221l-5.28-3.048v-.66l5.28,3.048Z" transform="translate(-74.147 -74.032)" fill="#fff"/>
        <path id="Trazado_158069" data-name="Trazado 158069" d="M341.769,325.247l-5.28-3.048v-.66l5.28,3.048Z" transform="translate(-81.538 -77.915)" fill="#fff"/>
        <path id="Trazado_158070" data-name="Trazado 158070" d="M269.944,313.916l-5.28-3.048v-.66l5.28,3.048Z" transform="translate(-64.133 -75.169)" fill="#fff"/>
        <path id="Trazado_158071" data-name="Trazado 158071" d="M280.274,294.22l-5.28-3.048v-.66l5.28,3.048Z" transform="translate(-66.637 -70.397)" fill="#fff"/>
        <path id="Trazado_158072" data-name="Trazado 158072" d="M259.613,317.262v.66l-5.28-3.048v-.66Z" transform="translate(-61.63 -76.14)" fill="#fff"/>
        <path id="Trazado_158073" data-name="Trazado 158073" d="M300.938,306.9l-5.28-3.048v-.66l5.28,3.048Z" transform="translate(-71.644 -73.47)" fill="#fff"/>
        <path id="Trazado_158074" data-name="Trazado 158074" d="M290.608,312.2l-5.28-3.048v-.66l5.28,3.048Z" transform="translate(-69.141 -74.755)" fill="#fff"/>
        <path id="Trazado_158075" data-name="Trazado 158075" d="M370.515,347.08c.322-11.762,8.872-16.439,19.36-10.382,5.4,3.117,10.286,8.489,13.8,14.622l3.87-.973c-4.407-8-10.7-15.048-17.674-19.076-13.2-7.621-23.952-1.6-24.112,13.414l3.1,2.811Z" transform="translate(-88.632 -79.473)" fill="#ffb92d"/>
        <path id="Trazado_158076" data-name="Trazado 158076" d="M399.134,390.193a16.662,16.662,0,0,1-9.722-2.584c-9.935-5.736-18.138-19.094-19.251-30.8l-4.734-2.387c.007.086-1.583.408-1.574.493,1.369,14.572,13.19,30.979,25.56,38.121,4.492,2.593,7.533,3.957,11.137,3.574.152-.017,1.468-.391,1.618-.412Z" transform="translate(-88.169 -85.883)" fill="#ffb92d"/>
        <path id="Trazado_158077" data-name="Trazado 158077" d="M417.087,363.17a37.031,37.031,0,0,1,3.753,15.269c0,7.031-2.864,11.646-7.315,13.156l3,5.935c5.51-1.895,9.046-7.64,9.046-16.361a46.046,46.046,0,0,0-4.637-18.967Z" transform="translate(-100.205 -87.769)" fill="#ffb92d"/>
        <path id="Trazado_158078" data-name="Trazado 158078" d="M401.023,369.331a16.528,16.528,0,0,1-3.4-4.071c-.562-.942-.542-1.962,0-2.281a4.355,4.355,0,0,0,1.736-1.937c.6.164,1.335-.055,1.335-.872a3.23,3.23,0,0,0-.861-2.2c-.146-3.568-1.365-7.234-5.468-9.6a5.1,5.1,0,0,0-3.323-.937c-.188.036-1.815.464-1.974.543-1.112.553-.088,1.748-.171,3.683-.492-.11-.861.373-.861,1.206a3.946,3.946,0,0,0,1.335,2.414,19.375,19.375,0,0,0,1.736,3.94c.547.95.567,1.994,0,2.286a4.483,4.483,0,0,1-3.4.145,2.546,2.546,0,0,0-1.421-.058c-.12.033-1.581.412-1.69.467-.763.38.108.936.108,2.231v3.679a2.48,2.48,0,0,0,1.125,1.94L401.6,380.343c.273.158,1.821-.392,2.016-.466a.738.738,0,0,0,.407-.758v-3.679a8.762,8.762,0,0,0-3-6.108" transform="translate(-93.121 -84.179)" fill="#ffb92d"/>
        <path id="Trazado_158079" data-name="Trazado 158079" d="M369.116,347.48c.322-11.762,8.872-16.439,19.36-10.383,5.4,3.117,10.286,8.489,13.8,14.622l3.87-.973c-4.407-8-10.7-15.048-17.674-19.076-13.2-7.621-23.952-1.6-24.112,13.414Z" transform="translate(-88.293 -79.57)" fill="#fff"/>
        <path id="Trazado_158080" data-name="Trazado 158080" d="M398.238,390.592a16.662,16.662,0,0,1-9.722-2.584c-9.935-5.736-18.138-19.094-19.251-30.8l-4.734-2.387c1.271,14.632,11.543,31.43,23.985,38.614,4.681,2.7,9.052,3.683,12.756,3.163Z" transform="translate(-88.333 -85.98)" fill="#fff"/>
        <path id="Trazado_158081" data-name="Trazado 158081" d="M415.688,363.57a37.031,37.031,0,0,1,3.753,15.269c0,7.031-2.864,11.646-7.315,13.156l3,5.935c5.51-1.895,9.046-7.64,9.046-16.361a46.045,46.045,0,0,0-4.637-18.967Z" transform="translate(-99.866 -87.866)" fill="#fff"/>
        <path id="Trazado_158082" data-name="Trazado 158082" d="M399.759,369.731a16.53,16.53,0,0,1-3.4-4.071c-.562-.942-.542-1.962,0-2.281a4.355,4.355,0,0,0,1.736-1.937c.6.164,1.335-.055,1.335-.872a3.231,3.231,0,0,0-.861-2.2c-.146-3.568-1.365-7.234-5.468-9.6s-5.323-.111-5.468,3.289c-.492-.11-.861.373-.861,1.206a3.946,3.946,0,0,0,1.335,2.414,19.374,19.374,0,0,0,1.736,3.94c.547.95.567,1.994,0,2.286a4.483,4.483,0,0,1-3.4.146c-1.722-.521-3,.518-3,2.64v3.679a2.48,2.48,0,0,0,1.125,1.94l17.064,9.851c.621.359,1.125.072,1.125-.641v-3.679a8.762,8.762,0,0,0-3-6.108" transform="translate(-92.917 -84.276)" fill="#fff"/>
        <path id="Trazado_158083" data-name="Trazado 158083" d="M368.316,347.68c.322-11.762,8.872-16.438,19.36-10.382,5.4,3.118,10.286,8.49,13.8,14.622l3.869-.973c-4.407-8-10.7-15.048-17.674-19.076-13.2-7.62-23.952-1.6-24.112,13.414Z" transform="translate(-88.099 -79.619)" fill="#ffca40"/>
        <path id="Trazado_158084" data-name="Trazado 158084" d="M397.439,390.792a16.662,16.662,0,0,1-9.722-2.584c-9.935-5.736-18.138-19.094-19.251-30.8l-4.734-2.387c1.271,14.632,11.543,31.43,23.985,38.614,4.681,2.7,9.052,3.682,12.756,3.162Z" transform="translate(-88.139 -86.029)" fill="#ffca40"/>
        <path id="Trazado_158085" data-name="Trazado 158085" d="M414.888,363.77a37.031,37.031,0,0,1,3.753,15.269c0,7.031-2.864,11.646-7.315,13.156l3,5.935c5.51-1.895,9.046-7.64,9.046-16.361a46.045,46.045,0,0,0-4.637-18.967Z" transform="translate(-99.672 -87.914)" fill="#ffca40"/>
        <path id="Trazado_158086" data-name="Trazado 158086" d="M398.959,369.931a16.528,16.528,0,0,1-3.4-4.071c-.562-.942-.542-1.962,0-2.281a4.355,4.355,0,0,0,1.736-1.937c.6.164,1.335-.055,1.335-.872a3.23,3.23,0,0,0-.861-2.2c-.146-3.568-1.365-7.234-5.468-9.6s-5.323-.111-5.468,3.289c-.493-.11-.861.373-.861,1.206a3.946,3.946,0,0,0,1.335,2.414,19.377,19.377,0,0,0,1.736,3.94c.547.95.567,1.994,0,2.286a4.483,4.483,0,0,1-3.4.145c-1.722-.521-3,.518-3,2.64v3.679a2.48,2.48,0,0,0,1.125,1.94l17.064,9.851c.621.359,1.125.072,1.125-.641v-3.679a8.762,8.762,0,0,0-3-6.108" transform="translate(-92.723 -84.325)" fill="#ffca40"/>
        <path id="Trazado_158087" data-name="Trazado 158087" d="M243.487,311.8v33.512l5.62-3.088v-33.7Z" transform="translate(-59.002 -74.761)" fill="#31a17d"/>
        <path id="Trazado_158088" data-name="Trazado 158088" d="M203.861,289.886V323.4L79.846,251.8V218.1Z" transform="translate(-19.348 -52.85)" fill="#47ba8d"/>
        <path id="Trazado_158089" data-name="Trazado 158089" d="M79.846,217.075,203.86,288.859l5.594-3.275L85.394,213.867Z" transform="translate(-19.348 -51.824)" fill="#6acfa8"/>
        <g id="Grupo_70765" data-name="Grupo 70765" transform="translate(60.498 165.251)" opacity="0.7">
          <g id="Grupo_70764" data-name="Grupo 70764">
            <g id="Grupo_70763" data-name="Grupo 70763" clip-path="url(#clip-path-14)">
              <path id="Trazado_158090" data-name="Trazado 158090" d="M79.846,218.1,203.86,289.886l5.594-3.275-5.478,2.394Z" transform="translate(-79.846 -218.101)" fill="#fff"/>
            </g>
          </g>
        </g>
        <path id="Trazado_158091" data-name="Trazado 158091" d="M199.512,316.536,87.922,251.409V231.663l111.59,65.127Z" transform="translate(-21.305 -56.136)" fill="#fff"/>
        <path id="Trazado_158092" data-name="Trazado 158092" d="M94.094,239.028l2.257,1.3,1.043,10.779.042.024,1.107-9.537,2.555,1.475,1.107,10.815.042.025,1.043-9.574,2.023,1.168L103.8,258.768l-2.917-1.684-1.065-9.179-.042-.024-1.065,7.949-3.109-1.795Z" transform="translate(-22.801 -57.921)" fill="#34947c"/>
        <path id="Trazado_158093" data-name="Trazado 158093" d="M111.725,249.277l2.257,1.3,1.043,10.779.043.024,1.107-9.537,2.555,1.475,1.107,10.815.042.025,1.043-9.574,2.023,1.168-1.512,13.261-2.917-1.684-1.065-9.179-.042-.024-1.065,7.949-3.109-1.795Z" transform="translate(-27.073 -60.405)" fill="#34947c"/>
        <path id="Trazado_158094" data-name="Trazado 158094" d="M129.5,259.385l2.257,1.3,1.043,10.778.043.025,1.107-9.537,2.555,1.474,1.107,10.816.042.025L138.7,264.7l2.023,1.168-1.512,13.261-2.917-1.684-1.065-9.179-.042-.024-1.065,7.949-3.109-1.795Z" transform="translate(-31.38 -62.854)" fill="#34947c"/>
        <path id="Trazado_158095" data-name="Trazado 158095" d="M273.334,194.77V220.9l3.941-2.171V192.4Z" transform="translate(-66.234 -46.621)" fill="#31a17d"/>
        <path id="Trazado_158096" data-name="Trazado 158096" d="M265.934,191.166v26.127l-23.258-13.437V177.527Z" transform="translate(-58.805 -43.018)" fill="#47ba8d"/>
        <path id="Trazado_158097" data-name="Trazado 158097" d="M242.677,176.79l23.258,13.64,3.912-2.373-23.309-13.569Z" transform="translate(-58.805 -42.282)" fill="#6acfa8"/>
        <g id="Grupo_70768" data-name="Grupo 70768" transform="translate(183.871 134.509)" opacity="0.7">
          <g id="Grupo_70767" data-name="Grupo 70767">
            <g id="Grupo_70766" data-name="Grupo 70766" clip-path="url(#clip-path-15)">
              <path id="Trazado_158098" data-name="Trazado 158098" d="M242.677,177.527l23.258,13.64,3.912-2.373-4.109,1.115Z" transform="translate(-242.676 -177.527)" fill="#fff"/>
            </g>
          </g>
        </g>
        <path id="Trazado_158099" data-name="Trazado 158099" d="M313.617,218.01v26.127l3.941-2.171V215.637Z" transform="translate(-75.996 -52.253)" fill="#31a17d"/>
        <path id="Trazado_158100" data-name="Trazado 158100" d="M306.217,214.406v26.127L282.96,227.1V200.767Z" transform="translate(-68.567 -48.65)" fill="#47ba8d"/>
        <path id="Trazado_158101" data-name="Trazado 158101" d="M282.959,200.031l23.258,13.64,3.912-2.373L286.82,197.729Z" transform="translate(-68.567 -47.914)" fill="#6acfa8"/>
        <g id="Grupo_70771" data-name="Grupo 70771" transform="translate(214.393 152.117)" opacity="0.7">
          <g id="Grupo_70770" data-name="Grupo 70770">
            <g id="Grupo_70769" data-name="Grupo 70769" clip-path="url(#clip-path-15)">
              <path id="Trazado_158102" data-name="Trazado 158102" d="M282.959,200.767l23.258,13.64,3.912-2.373-4.109,1.115Z" transform="translate(-282.959 -200.767)" fill="#fff"/>
            </g>
          </g>
        </g>
        <path id="Trazado_158103" data-name="Trazado 158103" d="M353.642,240.992v26.127l3.941-2.171V238.619Z" transform="translate(-85.694 -57.822)" fill="#31a17d"/>
        <path id="Trazado_158104" data-name="Trazado 158104" d="M346.242,237.388v26.127l-23.258-13.437V223.749Z" transform="translate(-78.265 -54.219)" fill="#47ba8d"/>
        <path id="Trazado_158105" data-name="Trazado 158105" d="M322.984,223.012l23.258,13.64,3.912-2.373-23.309-13.569Z" transform="translate(-78.265 -53.482)" fill="#6acfa8"/>
        <g id="Grupo_70774" data-name="Grupo 70774" transform="translate(244.719 169.53)" opacity="0.7">
          <g id="Grupo_70773" data-name="Grupo 70773">
            <g id="Grupo_70772" data-name="Grupo 70772" clip-path="url(#clip-path-17)">
              <path id="Trazado_158106" data-name="Trazado 158106" d="M322.984,223.749l23.258,13.64,3.912-2.373-4.109,1.115Z" transform="translate(-322.984 -223.749)" fill="#fff"/>
            </g>
          </g>
        </g>
        <path id="Trazado_158107" data-name="Trazado 158107" d="M393.15,263.457v26.127l3.941-2.171V261.084Z" transform="translate(-95.268 -63.266)" fill="#31a17d"/>
        <path id="Trazado_158108" data-name="Trazado 158108" d="M385.75,259.854v26.127l-23.258-13.437V246.214Z" transform="translate(-87.839 -59.662)" fill="#47ba8d"/>
        <path id="Trazado_158109" data-name="Trazado 158109" d="M362.492,245.478l23.258,13.64,3.912-2.373-23.309-13.569Z" transform="translate(-87.839 -58.926)" fill="#6acfa8"/>
        <g id="Grupo_70777" data-name="Grupo 70777" transform="translate(274.653 186.552)" opacity="0.7">
          <g id="Grupo_70776" data-name="Grupo 70776">
            <g id="Grupo_70775" data-name="Grupo 70775" clip-path="url(#clip-path-15)">
              <path id="Trazado_158110" data-name="Trazado 158110" d="M362.492,246.214l23.258,13.64,3.912-2.373-4.109,1.115Z" transform="translate(-362.492 -246.214)" fill="#fff"/>
            </g>
          </g>
        </g>
        <path id="Trazado_158111" data-name="Trazado 158111" d="M341.151,251.913A10.43,10.43,0,0,1,339,249.337c-.355-.6-.343-1.241,0-1.443a2.745,2.745,0,0,0,1.1-1.225c.377.1.846-.034.846-.552a2.04,2.04,0,0,0-.545-1.392,6.846,6.846,0,0,0-3.46-6.077c-2.6-1.5-3.368-.07-3.46,2.081-.311-.069-.545.236-.545.764a2.5,2.5,0,0,0,.845,1.528,12.261,12.261,0,0,0,1.1,2.494c.346.6.358,1.261,0,1.446a2.837,2.837,0,0,1-2.152.092c-1.09-.33-1.9.327-1.9,1.671v2.328a1.566,1.566,0,0,0,.712,1.227l10.8,6.234c.392.227.711.046.711-.4v-2.328a5.544,5.544,0,0,0-1.9-3.866" transform="translate(-80.167 -57.679)" fill="#fff"/>
        <path id="Trazado_158112" data-name="Trazado 158112" d="M368.038,274.976l3.769,2.176v-6.759l-3.769-2.176Zm5.968,3.446,3.77,2.176v-12.39l-3.77-2.177Zm5.969-14.577v18.023l3.769,2.176V266.021Z" transform="translate(-89.183 -63.935)" fill="#fff"/>
        <path id="Trazado_158113" data-name="Trazado 158113" d="M302.036,227.762a8.729,8.729,0,0,0-.075-1.068l1.781-.226a16.108,16.108,0,0,0-.807-2.7l-2.029-.614a14.249,14.249,0,0,0-1.263-2.178l.486-2.048a16.345,16.345,0,0,0-1.943-2.048l-1.093,1.413a8.866,8.866,0,0,0-.893-.6,7.056,7.056,0,0,0-.893-.429l-1.093-2.674a5.421,5.421,0,0,0-1.943-.2l.486,2.609a2.782,2.782,0,0,0-1.263.72L289.466,216a5.3,5.3,0,0,0-.807,1.764l1.781,2.281a6.674,6.674,0,0,0-.076.981,8.606,8.606,0,0,0,.076,1.068l-1.781.225a16.109,16.109,0,0,0,.807,2.7l2.029.614a14.22,14.22,0,0,0,1.263,2.178l-.486,2.048a16.237,16.237,0,0,0,1.943,2.048l1.093-1.413a8.739,8.739,0,0,0,.893.6,6.958,6.958,0,0,0,.893.429l1.093,2.674a5.4,5.4,0,0,0,1.943.2l-.486-2.609a2.782,2.782,0,0,0,1.263-.72l2.029,1.729a5.293,5.293,0,0,0,.807-1.764l-1.781-2.281a6.784,6.784,0,0,0,.075-.981m-5.836-.68a5.163,5.163,0,0,1-2.344-4.043c0-1.486,1.049-2.084,2.344-1.337a5.165,5.165,0,0,1,2.344,4.043c0,1.486-1.049,2.084-2.344,1.337" transform="translate(-69.948 -51.948)" fill="#fff"/>
        <path id="Trazado_158114" data-name="Trazado 158114" d="M248.364,191.231l7.487,11.7,7.486-3.053.006.01a2.852,2.852,0,0,0-.889-.865l-13.208-7.625a1.127,1.127,0,0,0-.889-.161l.007,0" transform="translate(-60.182 -46.331)" fill="#fff"/>
        <path id="Trazado_158115" data-name="Trazado 158115" d="M263.175,199.924l-7.509,4.281-2.126-3.667-5.361,2.187-.023-.035,4.983-2.841-4.983-8.6a.94.94,0,0,0-.562.991v8.946a3.232,3.232,0,0,0,1.468,2.531l13.208,7.625c.81.468,1.467.094,1.467-.836v-8.946a3.084,3.084,0,0,0-.561-1.64m-.023,11.445-5.361-8.375.4-.228,4.984,8.6-.023.008" transform="translate(-59.997 -46.344)" fill="#fff"/>
        <path id="Trazado_158116" data-name="Trazado 158116" d="M118.747,295.327v33.512l5.292-3.01v-33.7Z" transform="translate(-28.775 -70.789)" fill="#39ab95"/>
        <path id="Trazado_158117" data-name="Trazado 158117" d="M90,279.677v33.512L0,261.244v-33.7Z" transform="translate(0 -55.139)" fill="#6ed1b8"/>
        <path id="Trazado_158118" data-name="Trazado 158118" d="M0,226.544l90,52.131,5.264-3.2L5.218,223.413Z" transform="translate(0 -54.137)" fill="#9fe8d2"/>
        <g id="Grupo_70780" data-name="Grupo 70780" transform="translate(0 172.406)" opacity="0.7">
          <g id="Grupo_70779" data-name="Grupo 70779">
            <g id="Grupo_70778" data-name="Grupo 70778" clip-path="url(#clip-path-19)">
              <path id="Trazado_158119" data-name="Trazado 158119" d="M0,227.545l90,52.131,5.264-3.2-5.478,2.2Z" transform="translate(0 -227.545)" fill="#fff"/>
            </g>
          </g>
        </g>
        <path id="Trazado_158120" data-name="Trazado 158120" d="M37.02,257.828l-16.453-9.5c-1.009-.583-1.828-.116-1.828,1.043v11.144a4.03,4.03,0,0,0,1.828,3.153L30.851,269.6l5.142,8.869v-5.9l1.028.594c1.01.583,1.828.116,1.828-1.043V260.981a4.029,4.029,0,0,0-1.828-3.153m-11.6,2.086c-.536.305-1.4-.2-1.939-1.119s-.536-1.92,0-2.225,1.4.2,1.939,1.12.536,1.919,0,2.225m4.456,2.573c-.535.3-1.4-.2-1.939-1.12s-.535-1.919,0-2.225,1.4.2,1.939,1.119.536,1.92,0,2.225m4.456,2.572c-.535.305-1.4-.2-1.939-1.119s-.535-1.92,0-2.225,1.4.2,1.939,1.12.536,1.919,0,2.224m-16.965-5.336v-9.046l-6.284-3.629c-1.01-.583-1.828-.116-1.828,1.043v11.144a4.028,4.028,0,0,0,1.828,3.153l1.028.593v5.9l5.142-2.931,10.283,5.937c1.01.583,1.828.117,1.828-1.042v-.525l-8.8-5.079a7.058,7.058,0,0,1-3.2-5.518" transform="translate(-2.243 -59.804)" fill="#fff"/>
        <path id="Trazado_158121" data-name="Trazado 158121" d="M53.257,268.754v2.782l43,24.825v-2.782Z" transform="translate(-12.905 -65.124)" fill="#fff"/>
        <path id="Trazado_158122" data-name="Trazado 158122" d="M82.655,301l-29.4-16.989V286.8l29.4,16.989Z" transform="translate(-12.905 -68.822)" fill="#fff"/>
        <path id="Trazado_158123" data-name="Trazado 158123" d="M53.257,279.167l43,24.825v-2.783l-43-24.825Z" transform="translate(-12.905 -66.973)" fill="#fff"/>
        <g id="Grupo_70783" data-name="Grupo 70783" transform="translate(78.163 261.442)" opacity="0.2">
          <g id="Grupo_70782" data-name="Grupo 70782">
            <g id="Grupo_70781" data-name="Grupo 70781" clip-path="url(#clip-path-20)">
              <path id="Trazado_158124" data-name="Trazado 158124" d="M174.944,378.209,147,362.518c2.414-1.77,3.83-3.876,3.83-6.141,0-6.252-10.67-11.32-23.832-11.32s-23.832,5.068-23.832,11.32,10.67,11.32,23.832,11.32a48.019,48.019,0,0,0,7.819-.636l30.1,16.9c1.943,1.122,5.338.982,7.581-.314,2.485-1.262,5.438-3.679,2.456-5.439" transform="translate(-103.161 -345.056)" fill="#a1d1c6"/>
            </g>
          </g>
        </g>
        <path id="Trazado_158125" data-name="Trazado 158125" d="M193.929,383.661a6.4,6.4,0,1,1-8.666-2.6,6.4,6.4,0,0,1,8.666,2.6" transform="translate(-44.078 -92.154)" fill="#1e463d"/>
        <path id="Trazado_158126" data-name="Trazado 158126" d="M166.631,331.649l-13.849,7.462,20.658,38.111h0c.01.019.017.039.028.058,1.2,2.227,5.273,2.362,9.1.3s5.952-5.536,4.751-7.763c-.01-.019-.022-.036-.033-.055h0Z" transform="translate(-37.022 -80.365)" fill="#34947c"/>
        <path id="Trazado_158127" data-name="Trazado 158127" d="M166.544,331.122c1.2,2.227-.927,5.7-4.751,7.763s-7.9,1.926-9.1-.3.927-5.7,4.751-7.764,7.9-1.925,9.1.3" transform="translate(-36.92 -79.81)" fill="#39ab95"/>
        <path id="Trazado_158128" data-name="Trazado 158128" d="M156.456,318.3l-8.237,4.438,5.858,10.87h0c.006.011.011.023.017.034.714,1.324,3.136,1.4,5.411.179s3.54-3.293,2.826-4.618l-.019-.032h0Z" transform="translate(-35.916 -77.132)" fill="#1e463d"/>
        <path id="Trazado_158129" data-name="Trazado 158129" d="M116.684,201.324c-10.256-5.921-19.556-6.6-26.362-2.915-.191.1-9.957,5.553-10.265,6.025,6.925-5.224,17.177-5.145,28.619,1.461,20.857,12.042,37.764,41.2,37.764,65.137,0,12.212-4.4,20.7-11.486,24.487a8.559,8.559,0,0,0,1.843-.81c.2-.113,6.862-4.148,7.058-4.269,6.558-4.008,10.593-12.289,10.593-23.979,0-23.933-16.908-53.1-37.764-65.137" transform="translate(-19.399 -47.528)" fill="#9fe8d2"/>
        <path id="Trazado_158130" data-name="Trazado 158130" d="M105.751,207.357c-20.857-12.042-37.764-2.4-37.764,21.531s16.908,53.1,37.764,65.137,37.764,2.4,37.764-21.531-16.907-53.1-37.764-65.137m-.567,80.953c-17.7-10.218-32.046-34.965-32.046-55.275s14.347-28.489,32.046-18.271,32.046,34.965,32.046,55.275-14.347,28.489-32.046,18.271" transform="translate(-16.475 -48.99)" fill="#d9fffd"/>
        <path id="Trazado_158131" data-name="Trazado 158131" d="M113.466,287.414c-17.7-10.218-32.046-34.965-32.046-55.275,0-8.284,2.389-14.548,6.418-18.371-7.914,2.126-13.051,9.929-13.051,22.078,0,20.309,14.348,45.056,32.046,55.274,10.479,6.05,19.782,5.648,25.629.1-5.317,1.428-11.884.3-19-3.807" transform="translate(-18.122 -51.8)" fill="#9fe8d2"/>
        <g id="Grupo_70786" data-name="Grupo 70786" transform="translate(65.252 152.282)" style="mix-blend-mode: screen;isolation: isolate">
          <g id="Grupo_70785" data-name="Grupo 70785">
            <g id="Grupo_70784" data-name="Grupo 70784" clip-path="url(#clip-path-21)">
              <path id="Trazado_158132" data-name="Trazado 158132" d="M111.958,206.164c-10-5.772-19.081-6.55-25.837-3.172,6.3-1.761,15.56-.808,24.025,4.079,20.857,12.041,37.764,41.2,37.764,65.137,0,12.46-6.039,21.4-13.377,25.066,9.219-2.578,15.188-11.752,15.188-25.972,0-23.933-16.907-53.1-37.764-65.137" transform="translate(-86.121 -200.985)" fill="#fff"/>
            </g>
          </g>
        </g>
      </g>
    </g>
  </g>
</svg>
