<svg id="Grupo_72179" data-name="Grupo 72179" xmlns="http://www.w3.org/2000/svg" xmlns:xlink="http://www.w3.org/1999/xlink" width="100.141" height="100.141" viewBox="0 0 100.141 100.141">
  <defs>
    <clipPath id="clip-path">
      <rect id="Rectángulo_9309" data-name="Rectángulo 9309" width="100.141" height="100.141" transform="translate(0 0)" fill="none"/>
    </clipPath>
  </defs>
  <g id="Grupo_72179-2" data-name="Grupo 72179" clip-path="url(#clip-path)">
    <path id="Trazado_161406" data-name="Trazado 161406" d="M100.141,50.072A50.07,50.07,0,1,1,50.071,0a50.07,50.07,0,0,1,50.07,50.072" fill="#26cb99"/>
    <path id="Trazado_161407" data-name="Trazado 161407" d="M78.56,63.418a1.336,1.336,0,0,1-1.333,1.338H18.5a1.337,1.337,0,0,1-1.334-1.338v-43.2A1.333,1.333,0,0,1,18.5,18.88H77.227a1.332,1.332,0,0,1,1.333,1.333Z" fill="#0c2c48"/>
    <rect id="Rectángulo_9292" data-name="Rectángulo 9292" width="23.065" height="7.779" transform="translate(36.332 63.486)" fill="#bababa"/>
    <path id="Trazado_161408" data-name="Trazado 161408" d="M65.113,76.7V74.2a3.34,3.34,0,0,0-3.339-3.34H33.952a3.339,3.339,0,0,0-3.338,3.34v2.5Z" fill="#fff"/>
    <rect id="Rectángulo_9293" data-name="Rectángulo 9293" width="54.809" height="33.945" transform="translate(20.459 21.614)" fill="#fff"/>
    <rect id="Rectángulo_9294" data-name="Rectángulo 9294" width="54.809" height="6.493" transform="translate(20.459 21.614)" fill="#6eb9e0"/>
    <path id="Trazado_161409" data-name="Trazado 161409" d="M17.167,54.445v8.973A1.337,1.337,0,0,0,18.5,64.756H77.226a1.335,1.335,0,0,0,1.333-1.338V54.445Z" fill="#fff"/>
    <path id="Trazado_161410" data-name="Trazado 161410" d="M49.56,59.249a1.7,1.7,0,1,1-1.7-1.694,1.7,1.7,0,0,1,1.7,1.694" fill="#0c2c48"/>
    <path id="Trazado_161411" data-name="Trazado 161411" d="M24.108,24.642a.8.8,0,0,1,.8-.841.779.779,0,0,1,.788.841.793.793,0,0,1-.814.841.785.785,0,0,1-.775-.841" fill="#fff"/>
    <path id="Trazado_161412" data-name="Trazado 161412" d="M26.873,24.642a.8.8,0,0,1,.8-.841.779.779,0,0,1,.787.841.792.792,0,0,1-.814.841.784.784,0,0,1-.774-.841" fill="#fff"/>
    <path id="Trazado_161413" data-name="Trazado 161413" d="M29.637,24.642a.8.8,0,0,1,.8-.841.779.779,0,0,1,.787.841.8.8,0,1,1-1.588,0" fill="#fff"/>
    <path id="Trazado_161414" data-name="Trazado 161414" d="M75.825,54.723H19.9V21.06H75.825ZM21.016,53.611h53.7V22.171h-53.7Z" fill="#0c2c48"/>
    <rect id="Rectángulo_9295" data-name="Rectángulo 9295" width="12.798" height="20.679" transform="translate(23.242 30.52)" fill="#6eb9e0"/>
    <rect id="Rectángulo_9296" data-name="Rectángulo 9296" width="30.955" height="3.337" transform="translate(40.067 30.52)" fill="#6eb9e0"/>
    <rect id="Rectángulo_9297" data-name="Rectángulo 9297" width="30.447" height="1.583" transform="translate(40.067 36.548)" fill="#a4a8ad"/>
    <rect id="Rectángulo_9298" data-name="Rectángulo 9298" width="30.447" height="1.583" transform="translate(40.067 40.072)" fill="#a4a8ad"/>
    <rect id="Rectángulo_9299" data-name="Rectángulo 9299" width="24.612" height="1.583" transform="translate(40.067 43.596)" fill="#a4a8ad"/>
    <rect id="Rectángulo_9300" data-name="Rectángulo 9300" width="20.298" height="1.58" transform="translate(40.067 47.123)" fill="#a4a8ad"/>
    <path id="Rectángulo_9301" data-name="Rectángulo 9301" d="M.779,0H23.57a.778.778,0,0,1,.778.778v41.45a.778.778,0,0,1-.778.778H.778A.778.778,0,0,1,0,42.228V.779A.779.779,0,0,1,.779,0Z" transform="translate(58.999 37.943)" fill="#0c2c48"/>
    <rect id="Rectángulo_9302" data-name="Rectángulo 9302" width="21.187" height="33.693" transform="translate(60.577 42.503)" fill="#fff"/>
    <path id="Trazado_161415" data-name="Trazado 161415" d="M72.677,78.56a1.5,1.5,0,1,1-1.5-1.506,1.5,1.5,0,0,1,1.5,1.506" fill="#fff"/>
    <rect id="Rectángulo_9303" data-name="Rectángulo 9303" width="21.189" height="5.577" transform="translate(60.577 42.503)" fill="#6eb9e0"/>
    <rect id="Rectángulo_9304" data-name="Rectángulo 9304" width="21.189" height="3.298" transform="translate(60.577 72.899)" fill="#6eb9e0"/>
    <rect id="Rectángulo_9305" data-name="Rectángulo 9305" width="14.837" height="1.867" transform="translate(63.851 52.112)" fill="#a4a8ad"/>
    <rect id="Rectángulo_9306" data-name="Rectángulo 9306" width="14.837" height="1.869" transform="translate(63.851 56.27)" fill="#a4a8ad"/>
    <rect id="Rectángulo_9307" data-name="Rectángulo 9307" width="11.993" height="1.867" transform="translate(63.851 60.43)" fill="#a4a8ad"/>
    <rect id="Rectángulo_9308" data-name="Rectángulo 9308" width="9.891" height="1.867" transform="translate(63.851 64.59)" fill="#a4a8ad"/>
    <path id="Trazado_161416" data-name="Trazado 161416" d="M67.112,45.319a.907.907,0,0,1,.911-.96.888.888,0,0,1,.9.96.9.9,0,0,1-.928.958.892.892,0,0,1-.883-.958" fill="#fff"/>
    <path id="Trazado_161417" data-name="Trazado 161417" d="M70.265,45.319a.908.908,0,0,1,.914-.96.888.888,0,0,1,.9.96.908.908,0,1,1-1.813,0" fill="#fff"/>
    <path id="Trazado_161418" data-name="Trazado 161418" d="M73.418,45.319a.91.91,0,0,1,.917-.96.888.888,0,0,1,.9.96.909.909,0,1,1-1.815,0" fill="#fff"/>
  </g>
</svg>
