<svg id="Grupo_72180" data-name="Grupo 72180" xmlns="http://www.w3.org/2000/svg" xmlns:xlink="http://www.w3.org/1999/xlink" width="100.141" height="100.141" viewBox="0 0 100.141 100.141">
  <defs>
    <clipPath id="clip-path">
      <rect id="Rectángulo_9340" data-name="Rectángulo 9340" width="100.141" height="100.141" transform="translate(0 0)" fill="none"/>
    </clipPath>
  </defs>
  <g id="Grupo_72180-2" data-name="Grupo 72180" clip-path="url(#clip-path)">
    <path id="Trazado_161419" data-name="Trazado 161419" d="M100.141,50.072A50.07,50.07,0,1,1,50.071,0a50.07,50.07,0,0,1,50.07,50.072" fill="#26cb99"/>
    <line id="Línea_170" data-name="Línea 170" y2="54.803" transform="translate(50.07 23.782)" fill="none" stroke="#0c2c48" stroke-miterlimit="10" stroke-width="1.4"/>
    <rect id="Rectángulo_9310" data-name="Rectángulo 9310" width="63.392" height="13.842" transform="translate(18.375 17.08)" fill="#fff"/>
    <rect id="Rectángulo_9311" data-name="Rectángulo 9311" width="4.322" height="4.322" transform="translate(20.431 18.997)" fill="#6eb9e0"/>
    <rect id="Rectángulo_9312" data-name="Rectángulo 9312" width="4.322" height="4.322" transform="translate(26.143 18.997)" fill="#6eb9e0"/>
    <rect id="Rectángulo_9313" data-name="Rectángulo 9313" width="4.322" height="4.322" transform="translate(31.855 18.997)" fill="#6eb9e0"/>
    <rect id="Rectángulo_9314" data-name="Rectángulo 9314" width="4.322" height="4.322" transform="translate(20.431 25.017)" fill="#0c2c48"/>
    <rect id="Rectángulo_9315" data-name="Rectángulo 9315" width="4.322" height="4.322" transform="translate(26.143 25.017)" fill="#0c2c48"/>
    <rect id="Rectángulo_9316" data-name="Rectángulo 9316" width="4.322" height="4.322" transform="translate(31.855 25.017)" fill="#0c2c48"/>
    <rect id="Rectángulo_9317" data-name="Rectángulo 9317" width="2.47" height="10.497" transform="translate(67.669 18.997)" fill="#0c2c48"/>
    <rect id="Rectángulo_9318" data-name="Rectángulo 9318" width="2.47" height="10.497" transform="translate(72.455 18.997)" fill="#0c2c48"/>
    <rect id="Rectángulo_9319" data-name="Rectángulo 9319" width="2.47" height="10.497" transform="translate(77.24 18.997)" fill="#0c2c48"/>
    <path id="Trazado_161420" data-name="Trazado 161420" d="M54.393,23.782a3.86,3.86,0,1,1-3.859-3.859,3.859,3.859,0,0,1,3.859,3.859" fill="#6eb9e0"/>
    <rect id="Rectángulo_9320" data-name="Rectángulo 9320" width="63.392" height="13.842" transform="translate(18.375 36.994)" fill="#fff"/>
    <rect id="Rectángulo_9321" data-name="Rectángulo 9321" width="4.322" height="4.322" transform="translate(20.431 38.911)" fill="#f8a06d"/>
    <rect id="Rectángulo_9322" data-name="Rectángulo 9322" width="4.322" height="4.322" transform="translate(26.143 38.911)" fill="#f8a06d"/>
    <rect id="Rectángulo_9323" data-name="Rectángulo 9323" width="4.322" height="4.322" transform="translate(31.855 38.911)" fill="#f8a06d"/>
    <rect id="Rectángulo_9324" data-name="Rectángulo 9324" width="4.322" height="4.322" transform="translate(20.431 44.932)" fill="#ed6b5a"/>
    <rect id="Rectángulo_9325" data-name="Rectángulo 9325" width="4.322" height="4.322" transform="translate(26.143 44.932)" fill="#ed6b5a"/>
    <rect id="Rectángulo_9326" data-name="Rectángulo 9326" width="4.322" height="4.322" transform="translate(31.855 44.932)" fill="#ed6b5a"/>
    <rect id="Rectángulo_9327" data-name="Rectángulo 9327" width="2.47" height="10.497" transform="translate(67.669 38.911)" fill="#2384ab"/>
    <rect id="Rectángulo_9328" data-name="Rectángulo 9328" width="2.47" height="10.497" transform="translate(72.455 38.911)" fill="#2384ab"/>
    <rect id="Rectángulo_9329" data-name="Rectángulo 9329" width="2.47" height="10.497" transform="translate(77.24 38.911)" fill="#2384ab"/>
    <path id="Trazado_161421" data-name="Trazado 161421" d="M54.393,43.7a3.86,3.86,0,1,1-3.859-3.859A3.859,3.859,0,0,1,54.393,43.7" fill="#50646f"/>
    <rect id="Rectángulo_9330" data-name="Rectángulo 9330" width="63.392" height="13.842" transform="translate(18.375 56.908)" fill="#fff"/>
    <rect id="Rectángulo_9331" data-name="Rectángulo 9331" width="4.322" height="4.322" transform="translate(20.431 58.825)" fill="#ed6b5a"/>
    <rect id="Rectángulo_9332" data-name="Rectángulo 9332" width="4.322" height="4.322" transform="translate(26.143 58.825)" fill="#ed6b5a"/>
    <rect id="Rectángulo_9333" data-name="Rectángulo 9333" width="4.322" height="4.322" transform="translate(31.855 58.825)" fill="#ed6b5a"/>
    <rect id="Rectángulo_9334" data-name="Rectángulo 9334" width="4.322" height="4.322" transform="translate(20.431 64.846)" fill="#0c2c48"/>
    <rect id="Rectángulo_9335" data-name="Rectángulo 9335" width="4.322" height="4.322" transform="translate(26.143 64.846)" fill="#0c2c48"/>
    <rect id="Rectángulo_9336" data-name="Rectángulo 9336" width="4.322" height="4.322" transform="translate(31.855 64.846)" fill="#0c2c48"/>
    <rect id="Rectángulo_9337" data-name="Rectángulo 9337" width="2.47" height="10.497" transform="translate(67.669 58.825)" fill="#f8a06d"/>
    <rect id="Rectángulo_9338" data-name="Rectángulo 9338" width="2.47" height="10.497" transform="translate(72.455 58.825)" fill="#f8a06d"/>
    <rect id="Rectángulo_9339" data-name="Rectángulo 9339" width="2.47" height="10.497" transform="translate(77.24 58.825)" fill="#f8a06d"/>
    <path id="Trazado_161422" data-name="Trazado 161422" d="M54.393,63.61a3.86,3.86,0,1,1-3.859-3.859,3.859,3.859,0,0,1,3.859,3.859" fill="#f6a09c"/>
    <line id="Línea_171" data-name="Línea 171" x1="54.803" transform="translate(22.669 78.971)" fill="none" stroke="#0c2c48" stroke-miterlimit="10" stroke-width="1.4"/>
    <path id="Trazado_161423" data-name="Trazado 161423" d="M53.93,79.2a3.86,3.86,0,1,1-3.859-3.859A3.859,3.859,0,0,1,53.93,79.2" fill="#f8a06d"/>
  </g>
</svg>
