<svg id="Grupo_72207" data-name="Grupo 72207" xmlns="http://www.w3.org/2000/svg" xmlns:xlink="http://www.w3.org/1999/xlink" width="294.503" height="255.959" viewBox="0 0 294.503 255.959">
  <defs>
    <clipPath id="clip-path">
      <rect id="Rectángulo_8226" data-name="Rectángulo 8226" width="294.503" height="255.959" fill="none"/>
    </clipPath>
    <clipPath id="clip-path-3">
      <rect id="Rectángulo_8224" data-name="Rectángulo 8224" width="5.296" height="2.084" fill="none"/>
    </clipPath>
  </defs>
  <g id="Grupo_70343" data-name="Grupo 70343" clip-path="url(#clip-path)">
    <g id="Grupo_70342" data-name="Grupo 70342">
      <g id="Grupo_70341" data-name="Grupo 70341" clip-path="url(#clip-path)">
        <path id="Trazado_157085" data-name="Trazado 157085" d="M296.622,323.756c0,3.994-62.767,7.232-140.194,7.232S16.235,327.75,16.235,323.756,79,316.524,156.429,316.524s140.194,3.238,140.194,7.232" transform="translate(-3.848 -75.029)" fill="#ced3e6"/>
        <path id="Trazado_157086" data-name="Trazado 157086" d="M261.69,319.677H75.648V311.62A12.148,12.148,0,0,1,87.8,299.472H249.542A12.148,12.148,0,0,1,261.69,311.62Z" transform="translate(-17.932 -70.987)" fill="#fff"/>
        <rect id="Rectángulo_8221" data-name="Rectángulo 8221" width="67.437" height="43.293" transform="translate(116.495 185.191)" fill="#fff"/>
        <path id="Trazado_157087" data-name="Trazado 157087" d="M152.688,284.393l67.437-5.4.01-7.894-67.437.08Z" transform="translate(-36.193 -64.262)" fill="#ced3e6"/>
        <path id="Trazado_157088" data-name="Trazado 157088" d="M294.5,29.737V199.515a9.011,9.011,0,0,1-9.011,9.01H9.011A9.011,9.011,0,0,1,0,199.515V29.737a9.011,9.011,0,0,1,9.011-9.011H285.493c.135,0,.268,0,.4.009.1,0,.2.009.292.018h.011c.069,0,.139.011.209.02.117.009.231.025.348.04.076.009.15.021.227.036.036,0,.072.011.108.018.074.011.146.024.22.043a9.012,9.012,0,0,1,7.2,8.826" transform="translate(0 -4.913)" fill="#fff"/>
        <path id="Trazado_157089" data-name="Trazado 157089" d="M201.129,248.956a6.228,6.228,0,1,1-6.229-6.229,6.229,6.229,0,0,1,6.229,6.229" transform="translate(-44.723 -57.536)" fill="#ced3e6"/>
        <path id="Trazado_157090" data-name="Trazado 157090" d="M287.308,20.911c-.074-.018-.147-.031-.221-.043-.036-.007-.072-.014-.108-.018-.076-.015-.15-.027-.227-.036-.117-.015-.232-.031-.349-.04-.069-.009-.139-.015-.209-.02h-.011c-.1-.009-.194-.014-.292-.018-.133-.007-.266-.008-.4-.008H9.011A9.011,9.011,0,0,0,0,29.737V186.96H294.5V29.737a9.012,9.012,0,0,0-7.195-8.826m-4.486,150.345a2.45,2.45,0,0,1-2.451,2.451H14.132a2.45,2.45,0,0,1-2.451-2.451V34.859a2.45,2.45,0,0,1,2.451-2.451H280.371a2.45,2.45,0,0,1,2.451,2.451Z" transform="translate(0 -4.913)" fill="#39393b"/>
        <path id="Trazado_157091" data-name="Trazado 157091" d="M286.451,38.488v136.4A2.45,2.45,0,0,1,284,177.335H17.761a2.45,2.45,0,0,1-2.451-2.451V38.488a2.45,2.45,0,0,1,2.451-2.451H284a2.45,2.45,0,0,1,2.451,2.451" transform="translate(-3.629 -8.542)" fill="#ced3e6"/>
        <path id="Trazado_157092" data-name="Trazado 157092" d="M286.451,38.488V51.359H15.31V38.488a2.45,2.45,0,0,1,2.451-2.451H284a2.45,2.45,0,0,1,2.451,2.451" transform="translate(-3.629 -8.542)" fill="#fff"/>
        <path id="Trazado_157093" data-name="Trazado 157093" d="M341.871,45.162a2.082,2.082,0,1,1-2.082-2.082,2.082,2.082,0,0,1,2.082,2.082" transform="translate(-80.051 -10.212)" fill="#df615c"/>
        <path id="Trazado_157094" data-name="Trazado 157094" d="M350.715,45.162a2.082,2.082,0,1,1-2.082-2.082,2.082,2.082,0,0,1,2.082,2.082" transform="translate(-82.147 -10.212)" fill="#21b573"/>
        <path id="Trazado_157095" data-name="Trazado 157095" d="M260.187,47.327H48.2a1.862,1.862,0,0,1-1.857-1.858v-.69A1.862,1.862,0,0,1,48.2,42.922H260.187a1.863,1.863,0,0,1,1.858,1.857v.69a1.863,1.863,0,0,1-1.858,1.858" transform="translate(-10.985 -10.174)" fill="#d2dcec"/>
        <path id="Trazado_157096" data-name="Trazado 157096" d="M26.812,45.059V47.1a.374.374,0,0,1-.561.324L24.486,46.4l-1.766-1.02a.373.373,0,0,1,0-.647l1.766-1.02L26.252,42.7a.374.374,0,0,1,.561.324Z" transform="translate(-5.341 -10.109)"/>
        <path id="Trazado_157097" data-name="Trazado 157097" d="M32.208,45.059V47.1a.374.374,0,0,0,.561.324L34.534,46.4l1.766-1.02a.373.373,0,0,0,0-.647l-1.766-1.02L32.769,42.7a.374.374,0,0,0-.561.324Z" transform="translate(-7.635 -10.109)"/>
        <path id="Trazado_157098" data-name="Trazado 157098" d="M355.624,46.927,355.5,46.8a.5.5,0,0,1,0-.706l2.828-2.828a.5.5,0,0,1,.706,0l.125.125a.5.5,0,0,1,0,.706l-2.828,2.828a.5.5,0,0,1-.706,0" transform="translate(-84.233 -10.221)" fill="#39393b"/>
        <path id="Trazado_157099" data-name="Trazado 157099" d="M359.033,46.927l.125-.125a.5.5,0,0,0,0-.706l-2.828-2.828a.5.5,0,0,0-.706,0l-.125.125a.5.5,0,0,0,0,.706l2.828,2.828a.5.5,0,0,0,.706,0" transform="translate(-84.233 -10.221)" fill="#39393b"/>
        <path id="Trazado_157100" data-name="Trazado 157100" d="M259.7,177.573H60.382a4.9,4.9,0,0,1-4.9-4.9V65.092a4.9,4.9,0,0,1,4.9-4.9H259.7a4.9,4.9,0,0,1,4.9,4.9V172.673a4.9,4.9,0,0,1-4.9,4.9" transform="translate(-13.152 -14.268)" fill="#fff"/>
        <path id="Trazado_157101" data-name="Trazado 157101" d="M115.337,164.236H66.93a2.3,2.3,0,0,1-2.3-2.3V136.78a2.3,2.3,0,0,1,2.3-2.3h48.407a2.3,2.3,0,0,1,2.3,2.3v25.157a2.3,2.3,0,0,1-2.3,2.3" transform="translate(-15.32 -31.877)" fill="#ced3e6"/>
        <path id="Trazado_157102" data-name="Trazado 157102" d="M300.318,99.109H251.91a2.3,2.3,0,0,1-2.3-2.3V71.653a2.3,2.3,0,0,1,2.3-2.3h48.408a2.3,2.3,0,0,1,2.3,2.3V96.81a2.3,2.3,0,0,1-2.3,2.3" transform="translate(-59.168 -16.44)" fill="#ced3e6"/>
        <path id="Trazado_157103" data-name="Trazado 157103" d="M116.394,105.026H65.745a1.218,1.218,0,0,1-1.218-1.218V103.7a1.218,1.218,0,0,1,1.218-1.218h50.65a1.218,1.218,0,0,1,1.218,1.218v.111a1.218,1.218,0,0,1-1.218,1.218" transform="translate(-15.296 -24.292)" fill="#ced3e6"/>
        <path id="Trazado_157104" data-name="Trazado 157104" d="M116.394,90.9H65.745a1.218,1.218,0,0,1-1.218-1.218v-.111a1.218,1.218,0,0,1,1.218-1.218h50.65a1.218,1.218,0,0,1,1.218,1.218v.111a1.218,1.218,0,0,1-1.218,1.218" transform="translate(-15.296 -20.944)" fill="#ced3e6"/>
        <path id="Trazado_157105" data-name="Trazado 157105" d="M116.394,119.151H65.745a1.218,1.218,0,0,1-1.218-1.218v-.111a1.218,1.218,0,0,1,1.218-1.218h50.65a1.218,1.218,0,0,1,1.218,1.218v.111a1.218,1.218,0,0,1-1.218,1.218" transform="translate(-15.296 -27.64)" fill="#ced3e6"/>
        <path id="Trazado_157106" data-name="Trazado 157106" d="M301.4,138.12H250.828a1.218,1.218,0,0,1-1.218-1.218v-.111a1.218,1.218,0,0,1,1.218-1.218H301.4a1.218,1.218,0,0,1,1.218,1.218v.111a1.218,1.218,0,0,1-1.218,1.218" transform="translate(-59.168 -32.136)" fill="#ced3e6"/>
        <path id="Trazado_157107" data-name="Trazado 157107" d="M301.4,124H250.828a1.218,1.218,0,0,1-1.218-1.218v-.111a1.218,1.218,0,0,1,1.218-1.218H301.4a1.218,1.218,0,0,1,1.218,1.218v.111A1.218,1.218,0,0,1,301.4,124" transform="translate(-59.168 -28.788)" fill="#ced3e6"/>
        <path id="Trazado_157108" data-name="Trazado 157108" d="M301.4,152.245H250.828a1.218,1.218,0,0,1-1.218-1.218v-.111a1.218,1.218,0,0,1,1.218-1.218H301.4a1.218,1.218,0,0,1,1.218,1.218v.111a1.218,1.218,0,0,1-1.218,1.218" transform="translate(-59.168 -35.484)" fill="#ced3e6"/>
        <path id="Trazado_157109" data-name="Trazado 157109" d="M55.482,190.15H264.6v17.144a1.086,1.086,0,0,1-1.086,1.084H56.568a1.086,1.086,0,0,1-1.086-1.084Z" transform="translate(-13.152 -45.073)" fill="#39393b"/>
        <path id="Trazado_157110" data-name="Trazado 157110" d="M309.489,198.1v-1.546h1.934v-1.375H308.8a.687.687,0,0,0-.687.687V198.1Z" transform="translate(-73.036 -46.265)" fill="#fff"/>
        <path id="Trazado_157111" data-name="Trazado 157111" d="M309.489,202.611h-1.375v2.351a.688.688,0,0,0,.687.687h2.622v-1.375h-1.934Z" transform="translate(-73.036 -48.027)" fill="#fff"/>
        <path id="Trazado_157112" data-name="Trazado 157112" d="M317.156,198.1h1.375v-2.233a.687.687,0,0,0-.687-.687h-2.521v1.375h1.833Z" transform="translate(-74.745 -46.265)" fill="#fff"/>
        <path id="Trazado_157113" data-name="Trazado 157113" d="M317.156,202.611v1.663h-1.833v1.375h2.521a.688.688,0,0,0,.687-.687v-2.351Z" transform="translate(-74.745 -48.027)" fill="#fff"/>
        <rect id="Rectángulo_8222" data-name="Rectángulo 8222" width="209.115" height="3.428" transform="translate(42.33 141.649)" fill="#ced3e6"/>
        <path id="Trazado_157114" data-name="Trazado 157114" d="M75.394,64.884h2.359v5.168h3.159v1.83H75.394Z" transform="translate(-17.871 -15.38)" fill="#39393b"/>
        <rect id="Rectángulo_8223" data-name="Rectángulo 8223" width="2.359" height="6.998" transform="translate(63.689 49.504)" fill="#39393b"/>
        <path id="Trazado_157115" data-name="Trazado 157115" d="M95.3,64.884l-2.959,7H90.025l-2.959-7h2.539l1.669,4.089,1.709-4.089Z" transform="translate(-20.638 -15.38)" fill="#39393b"/>
        <path id="Trazado_157116" data-name="Trazado 157116" d="M103.981,70.1v1.779H98.162v-7h5.689v1.78h-3.369v.819h2.96v1.7h-2.96v.92Z" transform="translate(-23.269 -15.38)" fill="#39393b"/>
        <path id="Trazado_157117" data-name="Trazado 157117" d="M68.515,68.5a2.877,2.877,0,1,1-2.877-2.877A2.877,2.877,0,0,1,68.515,68.5" transform="translate(-14.877 -15.556)" fill="#df615c"/>
        <path id="Trazado_157118" data-name="Trazado 157118" d="M292.283,169.64a2.527,2.527,0,1,1-2.528-2.527,2.527,2.527,0,0,1,2.528,2.527" transform="translate(-68.085 -39.613)" fill="#df615c"/>
        <path id="Trazado_157119" data-name="Trazado 157119" d="M293.8,177.875h-9.448a4.887,4.887,0,0,1,4.652-3l.071,0,.072,0a4.889,4.889,0,0,1,4.653,3" transform="translate(-67.403 -41.452)" fill="#df615c"/>
        <path id="Trazado_157120" data-name="Trazado 157120" d="M306.122,168.42v1.585l-2.547,6.067h-2.82l2.426-5.651h-1.476v1.115h-2.132V168.42Z" transform="translate(-71.012 -39.923)" fill="#39393b"/>
        <path id="Trazado_157121" data-name="Trazado 157121" d="M314.908,174.017v2h-6.133v-1.585l2.766-2.557c.525-.492.6-.787.6-1.05,0-.372-.251-.6-.743-.6a1.251,1.251,0,0,0-1.126.71l-1.946-.973a3.509,3.509,0,0,1,3.312-1.771c1.814,0,3.094.94,3.094,2.393a3.013,3.013,0,0,1-1.312,2.438l-1.093.995Z" transform="translate(-73.086 -39.868)" fill="#39393b"/>
        <path id="Trazado_157122" data-name="Trazado 157122" d="M266.9,91.028s1.883,6.061,6.606,6.535c3.815.381,6.8-3.647,7.805-5.21.24-.375.368-.607.368-.607a6.269,6.269,0,0,0,.688-.073c.96-.146,2.642-.582,3.146-1.858C286.229,88,282.6,87.33,282.6,87.33s1.559-1.839.951-2.933c-.6-1.075-3.019-.98-3.019-.98s2.338-2.028,1.274-3.365c-1.6-2.008-3.925.771-4.118.934.141-.216,6.136-9.326,4.226-9.692-1.667-.319-7.179,7.034-8.652,9.049-.234.319-.365.5-.365.5s-.114-.064-.313-.159c-.941-.455-3.8-1.628-5.284.012-1.8,1.982-.4,10.328-.4,10.328" transform="translate(-63.143 -16.897)" fill="#ea9b7a"/>
        <path id="Trazado_157123" data-name="Trazado 157123" d="M281.231,92.551a3.878,3.878,0,0,0-1.45,1.955,1.145,1.145,0,0,0,.295,1.086,2.172,2.172,0,0,0,.866.465,11.938,11.938,0,0,0,3.057.4c.242-.375.368-.607.368-.607a6.132,6.132,0,0,0,.689-.072.36.36,0,0,0-.2-.05c-1.363.031-3.728-.119-4.263-.658a.423.423,0,0,1-.1-.421,4.391,4.391,0,0,1,2.416-2.262.365.365,0,0,0-.191-.7c-.894.141-3.381.332-4.16-.452-.114-.114-.1-.186-.089-.224a1.231,1.231,0,0,1,.479-.578,9.021,9.021,0,0,1,2.035-1.106.35.35,0,0,0,.171-.14.355.355,0,0,0,.037-.334.367.367,0,0,0-.475-.208,9.858,9.858,0,0,0-2.05,1.083,3.118,3.118,0,0,0-.7.668,1.266,1.266,0,0,0-.221.465.95.95,0,0,0,.288.891,4.645,4.645,0,0,0,3.188.793" transform="translate(-65.835 -21.008)" fill="#d46a43"/>
        <path id="Trazado_157124" data-name="Trazado 157124" d="M277.392,86.769a.359.359,0,0,1,.086.4,2.359,2.359,0,0,0-.237,1.154.421.421,0,0,0,.236.362,1.457,1.457,0,0,0,.637.082,10.814,10.814,0,0,0,2.488-.539.36.36,0,0,1-.171.139,8.988,8.988,0,0,0-2.035,1.106c-.087.009-.173.014-.256.018a2.769,2.769,0,0,1-.721-.054,1.294,1.294,0,0,1-.251-.087,1.14,1.14,0,0,1-.65-.917,3.053,3.053,0,0,1,.286-1.552.358.358,0,0,1,.579-.119l.009.008" transform="translate(-65.542 -20.542)" fill="#d46a43"/>
        <path id="Trazado_157125" data-name="Trazado 157125" d="M269.041,87.16a12.019,12.019,0,0,0,2.6,1.266,4.115,4.115,0,0,0,2.168.209,1.827,1.827,0,0,0,1.208-.925c.934-1.7-.331-3.583-1.17-4.552-.234.319-.365.5-.365.5s-.114-.064-.312-.159c.716.794,1.963,2.475,1.205,3.855a1.1,1.1,0,0,1-.742.566c-1.26.313-3.454-.886-4.192-1.374a.366.366,0,0,0-.4.61" transform="translate(-63.735 -19.712)" fill="#d46a43"/>
        <path id="Trazado_157126" data-name="Trazado 157126" d="M273.6,98.683a.366.366,0,0,0,.386-.593,3.293,3.293,0,0,1-.932-2.638c.278-2.407,3.161-4.447,3.191-4.468a.366.366,0,0,0-.42-.6c-.13.091-3.182,2.254-3.5,4.984a3.994,3.994,0,0,0,1.113,3.211.366.366,0,0,0,.159.1" transform="translate(-64.546 -21.409)" fill="#d46a43"/>
        <path id="Trazado_157127" data-name="Trazado 157127" d="M208.873,61.909l3.715,9.4q.835,2.36,1.695,4.7T216,80.688c.584,1.545,1.16,3.086,1.749,4.607s1.2,3.021,1.809,4.478,1.227,2.886,1.845,4.156c.306.63.615,1.222.874,1.683l.175.3.072.122a.223.223,0,0,1,.021.054.652.652,0,0,1,.038.133c.011.064-.012.1.015.156s.111.14.307.226a5.787,5.787,0,0,0,2.282.25,18.426,18.426,0,0,0,3.614-.592,39.678,39.678,0,0,0,4.071-1.3,74.55,74.55,0,0,0,8.431-3.88c2.815-1.484,4.882-2.685,7.62-4.4a12.253,12.253,0,0,0,7.907,8.9,98.924,98.924,0,0,1-8.4,6.824,76.994,76.994,0,0,1-9.458,5.922,49.107,49.107,0,0,1-5.416,2.454,34.458,34.458,0,0,1-6.3,1.758,24.134,24.134,0,0,1-3.7.357,20.46,20.46,0,0,1-4.173-.354,17.63,17.63,0,0,1-4.479-1.5,16.982,16.982,0,0,1-4.1-2.839,17.9,17.9,0,0,1-1.654-1.774l-.36-.458-.3-.4c-.1-.137-.183-.256-.274-.384s-.182-.256-.259-.374c-.658-.971-1.2-1.857-1.7-2.723-1-1.724-1.849-3.363-2.668-5s-1.562-3.252-2.3-4.866-1.446-3.221-2.124-4.835-1.352-3.222-2-4.835-1.277-3.23-1.9-4.848-1.223-3.241-1.814-4.869l-.874-2.449-.426-1.232c-.144-.417-.279-.816-.426-1.261Z" transform="translate(-45.448 -14.675)" fill="#21b573"/>
        <path id="Trazado_157128" data-name="Trazado 157128" d="M227.312,111.751a.468.468,0,0,0,.375-.188,20.275,20.275,0,0,1,3.368-3.51.469.469,0,0,0-.546-.763A20.8,20.8,0,0,0,226.938,111a.469.469,0,0,0,.375.75" transform="translate(-53.771 -25.412)" fill="#217c58"/>
        <path id="Trazado_157129" data-name="Trazado 157129" d="M231.427,112.322a.47.47,0,0,0,.459-.57,8.6,8.6,0,0,1-.007-3.521.469.469,0,0,0-.9-.258,9.417,9.417,0,0,0-.007,3.982.468.468,0,0,0,.457.367" transform="translate(-54.697 -25.513)" fill="#217c58"/>
        <path id="Trazado_157130" data-name="Trazado 157130" d="M210.719,169.008c-8.68,5-29.669,7.572-43.36,2.134-5.023-1.994-5.9-3.22-5.523-12.238q.021-.5.047-1.006c.037-.71.084-1.418.134-2.12.025-.34.053-.679.079-1.015.1-1.259.225-2.493.357-3.678.037-.328.074-.65.111-.97a54.928,54.928,0,0,1,1.275-6.848c.083-.332.166-.646.246-.941.484-1.8.879-2.881.879-2.881a57.051,57.051,0,0,0,6.767.655c.324.014.646.025.97.033,11.84.313,23.888-2.369,29.472-3.82.337-.087.649-.171.937-.248,1.451-.39,2.27-.645,2.27-.645s.512.9,1.232,2.375c.132.274.272.566.415.877a49.13,49.13,0,0,1,3.413,9.673c.011.045.021.092.031.136.069.318.14.639.207.961l.041.194c.566,2.68,1.083,5.491,1.434,8.178v0c.047.346.088.689.128,1.028.685,5.9.787,8.811-1.562,10.164" transform="translate(-38.343 -32.1)" fill="#39393b"/>
        <path id="Trazado_157131" data-name="Trazado 157131" d="M223.276,149.836c-.021-.01-.043-.021-.064-.033a13.668,13.668,0,0,1-4.656-4.346q-.27-.394-.532-.815h0a29.849,29.849,0,0,1-3.292-8.129c.337-.087.649-.171.937-.249a28.579,28.579,0,0,0,3.234,7.949c.172.281.355.552.539.815A12.956,12.956,0,0,0,223,148.546c.011.044.021.091.031.136.069.318.14.639.207.961.014.064.027.127.041.194" transform="translate(-50.9 -32.3)" fill="#585859"/>
        <path id="Trazado_157132" data-name="Trazado 157132" d="M172.78,141.587a27.077,27.077,0,0,1-2.26,8.622c-.148.308-.3.607-.464.9a13.068,13.068,0,0,1-3.359,4.044,10.468,10.468,0,0,1-4.6,2.084c.025-.34.053-.679.08-1.016a9.493,9.493,0,0,0,3.942-1.847,11.984,11.984,0,0,0,2.935-3.456c.167-.288.328-.585.479-.892a25.658,25.658,0,0,0,2.278-8.468c.324.014.645.025.97.033" transform="translate(-38.424 -33.554)" fill="#585859"/>
        <path id="Trazado_157133" data-name="Trazado 157133" d="M207.674,139.411c-.669.294-1.389.6-2.157.912-.3.121-.6.243-.914.362a64.876,64.876,0,0,1-16.639,4.189c-.243.023-.485.048-.728.069a90.914,90.914,0,0,1-16.37-.166c-.344-.034-.684-.065-1.017-.1-2.029-.208-3.849-.446-5.364-.671.083-.331.167-.645.246-.941,1.554.229,3.426.474,5.514.683l1,.1a88.154,88.154,0,0,0,16.619.068,63.921,63.921,0,0,0,16.266-4.079h0c.311-.12.611-.24.906-.36.791-.318,1.533-.635,2.219-.937.132.273.272.566.415.877" transform="translate(-38.99 -32.838)" fill="#585859"/>
        <path id="Trazado_157134" data-name="Trazado 157134" d="M228.936,217.21c-1.268-19.577-4.144-37.727-8.358-52.437L197.3,175.612a130.237,130.237,0,0,0,8.422,41.6Z" transform="translate(-46.769 -39.058)" fill="#39393b"/>
        <path id="Trazado_157135" data-name="Trazado 157135" d="M210.5,222.417a151.7,151.7,0,0,1-7.952-35.23.485.485,0,0,0-.968.068,152.708,152.708,0,0,0,7.894,35.162Z" transform="translate(-47.783 -44.264)" fill="#585859"/>
        <path id="Trazado_157136" data-name="Trazado 157136" d="M183.475,217.548c1.435-13.906,3.093-30.988,3.3-37.6L161.063,166.2s-4.53,15.644-1.56,51.349Z" transform="translate(-37.569 -39.396)" fill="#39393b"/>
        <path id="Trazado_157137" data-name="Trazado 157137" d="M187.8,222.245l4.313-35.613a.551.551,0,1,0-1.094-.133l-4.33,35.746Z" transform="translate(-44.254 -44.093)" fill="#585859"/>
        <path id="Trazado_157138" data-name="Trazado 157138" d="M197.727,171.917a.486.486,0,0,0,.536.424h0a.485.485,0,0,0,.423-.539c-.216-1.807-.423-3.66-.619-5.512q-.053-.489-.1-.978c-.629-6.056-1.139-12.02-1.476-16.233-.026-.341-.053-.671-.078-.99-.072-.925-.135-1.746-.188-2.441-.326,0-.652.005-.974,0,.053.694.117,1.523.191,2.457.024.318.051.649.078.99.334,4.177.838,10.089,1.462,16.108.034.332.069.665.1,1,.2,1.92.418,3.842.642,5.713" transform="translate(-46.283 -34.524)" fill="#585859"/>
        <path id="Trazado_157139" data-name="Trazado 157139" d="M195.212,165.794a12.342,12.342,0,0,0,1.781.375,9.379,9.379,0,0,0,.986.085,6.679,6.679,0,0,0,.925-.034,3.254,3.254,0,0,0,1.559-.536,2.06,2.06,0,0,0,.835-1.7c.037-1.907-.514-9.664-.929-15.147-.024-.337-.049-.666-.073-.986-.067-.877-.13-1.674-.182-2.351-.323.015-.647.03-.97.041.053.681.115,1.488.182,2.377q.035.476.076.985c.411,5.47.964,13.214.926,15.064a1.084,1.084,0,0,1-.436.935,3.315,3.315,0,0,1-2.015.375c-.333-.018-.671-.056-.987-.1a11.287,11.287,0,0,1-1.4-.307.485.485,0,0,0-.278.929" transform="translate(-46.191 -34.489)" fill="#585859"/>
        <path id="Trazado_157140" data-name="Trazado 157140" d="M156.92,55.276l37.109-.957c-1.151-1.611-1.045-16.989-1.559-20.165-.53-3.277-.121-9.776.369-15.084A16.861,16.861,0,0,0,175.284.645c-.154.007-.309.016-.465.026-15.6.993-16.747,14.359-15.3,22.452,1.324,7.371,2.253,27.456-2.6,32.154" transform="translate(-37.197 -0.148)" fill="#39393b"/>
        <path id="Trazado_157141" data-name="Trazado 157141" d="M167.476,135.426l2.992,12.547c7.475-.6,16.32-1.679,22.98-5.121,0,0,8.874,2.985,13.374,1.592l-3.294-9.017Z" transform="translate(-39.699 -32.102)" fill="#fff"/>
        <path id="Trazado_157142" data-name="Trazado 157142" d="M206.483,125.247c-8.619-.057-13.8-1.174-18.5-5.024-8.817,9.162-30.6,9.513-30.6,9.513,2.181-7.037,2.891-19.476,2.891-19.476-.174-1.293-.265-2.635-.4-4a26.837,26.837,0,0,0-.672-4.1c-2.149-6.205-4.665-10.654-6.9-17.064-.144-.417-.292-.828-.441-1.245-.1-.271-.2-.54-.3-.811-.735-2.005-1.524-4-2.353-5.93-3.606-8.4-4.188-17.874,4.486-20.765.631-.21,1.251-.411,1.856-.6,4.1-1.3,7.522-2.149,8.475-2.378l.261-.063,18.21,1.508,1.732.144c2.545.285,5.242.212,6.946.587,1.5.33,2.406.249,3.933.7,3.589,1.062,3.488,5.886,4.6,11.884.018.1.037.205.056.312.008.032.015.069.021.1.2,1.021.43,2.029.692,3.025.294,1.115.623,2.216.967,3.291,2.1,6.586,4.63,9.609,4.2,13.754-.394,3.752-4.221,8.872-5.238,9.963-.235.252-.374.386-.374.386,0,.018,0,.037.008.057.015.148.032.307.054.472.077.633.188,1.384.328,2.235.314,3.169.761,6.04,1.269,8.6q.413,2.068.871,3.862a51.261,51.261,0,0,0,3.915,11.064" transform="translate(-34.781 -12.635)" fill="#21b573"/>
        <path id="Trazado_157143" data-name="Trazado 157143" d="M217.961,131.9c-2.462,1.307-4.455,2.175-4.455,2.175l-1.839-3.46a36.378,36.378,0,0,0,5.424-2.577,11.847,11.847,0,0,1,.87,3.861" transform="translate(-50.174 -30.35)" fill="#217c58"/>
        <path id="Trazado_157144" data-name="Trazado 157144" d="M167.653,128.841s8.287,3.516,14.418,4.111l-.936,3.806s-10.046-1.659-14.072-4.521Z" transform="translate(-39.601 -30.541)" fill="#217c58"/>
        <path id="Trazado_157145" data-name="Trazado 157145" d="M217.526,101.789a.468.468,0,0,0,.34-.146c.225-.237,5.485-5.85,3.652-10.973-.509-1.423-1.1-2.86-1.73-4.382-1.9-4.62-4.064-9.857-4.618-16.649a.469.469,0,1,0-.935.076c.566,6.938,2.755,12.247,4.686,16.93.623,1.512,1.212,2.94,1.714,4.341,1.639,4.579-3.4,9.957-3.449,10.011a.469.469,0,0,0,.34.792" transform="translate(-50.782 -16.405)" fill="#217c58"/>
        <path id="Trazado_157146" data-name="Trazado 157146" d="M197.861,85.362a1.022,1.022,0,1,1-1.022-1.022,1.022,1.022,0,0,1,1.022,1.022" transform="translate(-46.417 -19.992)" fill="#217c58"/>
        <path id="Trazado_157147" data-name="Trazado 157147" d="M199.853,97.229a1.022,1.022,0,1,1-1.022-1.022,1.022,1.022,0,0,1,1.022,1.022" transform="translate(-46.889 -22.805)" fill="#217c58"/>
        <path id="Trazado_157148" data-name="Trazado 157148" d="M201.052,109.291a1.022,1.022,0,1,1-1.022-1.022,1.022,1.022,0,0,1,1.022,1.022" transform="translate(-47.173 -25.664)" fill="#217c58"/>
        <path id="Trazado_157149" data-name="Trazado 157149" d="M201.567,121.7a1.022,1.022,0,1,1-1.022-1.022,1.023,1.023,0,0,1,1.022,1.022" transform="translate(-47.295 -28.605)" fill="#217c58"/>
        <path id="Trazado_157150" data-name="Trazado 157150" d="M201.507,134.6a1.022,1.022,0,1,1-1.022-1.022,1.023,1.023,0,0,1,1.022,1.022" transform="translate(-47.281 -31.664)" fill="#217c58"/>
        <path id="Trazado_157151" data-name="Trazado 157151" d="M190.873,55.227a23.726,23.726,0,0,1,6.727.378l-.3,10.388-2.364.508,1.991,1.959-2.387,6.97s-3.263-11.6-3.667-20.2" transform="translate(-45.245 -13.071)" fill="#217c58"/>
        <path id="Trazado_157152" data-name="Trazado 157152" d="M167.5,53.3l-7.237,1.979,8.5,11.293,6.371-.507-2.234,4.871L187.283,75s-16.665-15.825-18-21.545Z" transform="translate(-37.989 -12.635)" fill="#217c58"/>
        <path id="Trazado_157153" data-name="Trazado 157153" d="M171.4,54.411s4.156,8.85,18.525,20.848A113.844,113.844,0,0,0,186.262,55.7s-8.456,2.945-14.864-1.293" transform="translate(-40.628 -12.898)" fill="#fff"/>
        <path id="Trazado_157154" data-name="Trazado 157154" d="M193.657,89.032c-4.733,0-14.389-6.778-14.8-7.067a.388.388,0,1,1,.448-.635c.1.069,9.863,6.924,14.35,6.924,4.293,0,5.245-4.689,5.254-4.736a.388.388,0,1,1,.763.146c-.01.053-1.089,5.367-6.017,5.367" transform="translate(-42.358 -19.262)" fill="#217c58"/>
        <path id="Trazado_157155" data-name="Trazado 157155" d="M186.257,55.054l.195,2.453c.362,4.571-2.888,5.868-7.621,3.446-3.739-1.913-6.912-4.772-7.432-6.542Z" transform="translate(-40.628 -12.898)" fill="#ea9b7a"/>
        <path id="Trazado_157156" data-name="Trazado 157156" d="M181.971,115.4a.42.42,0,0,0,.365.21.412.412,0,0,0,.208-.054,24.245,24.245,0,0,1,15.253-2.262,26.261,26.261,0,0,0,10.644.117c-.021-.166-.04-.323-.055-.472,0-.021,0-.04-.006-.059,0,0,.139-.135.372-.385a25.056,25.056,0,0,1-10.794-.027,24.656,24.656,0,0,0-15.831,2.358.42.42,0,0,0-.156.574" transform="translate(-43.121 -26.559)" fill="#217c58"/>
        <path id="Trazado_157157" data-name="Trazado 157157" d="M200.3,15.262s2.1,8.247.755,9.685-3.334-1.65-3.334-1.65.98-7.7,2.579-8.035" transform="translate(-46.869 -3.618)" fill="#39393b"/>
        <path id="Trazado_157158" data-name="Trazado 157158" d="M198.069,29.22s2.171-2.566,3.4,0,.283,7.759-3.021,6.909Z" transform="translate(-46.951 -6.656)" fill="#d46a43"/>
        <path id="Trazado_157159" data-name="Trazado 157159" d="M194.735,37.635a3.527,3.527,0,1,0,1.7-.324c-.085-.218-.157-.441-.251-.655l.041,0a4.193,4.193,0,1,1-2.073.552Z" transform="translate(-45.521 -8.689)" fill="#fff"/>
        <path id="Trazado_157160" data-name="Trazado 157160" d="M186.262,45.64v7.076s-3.73,6.109-14.864-1.293c2.11-2.354,2.173-6.9,1.321-9.619a15.524,15.524,0,0,0,2.165,1.151q.414.185.887.385c2.783,1.168,6.969,2.573,10.491,2.3" transform="translate(-40.628 -9.909)" fill="#ea9b7a"/>
        <path id="Trazado_157161" data-name="Trazado 157161" d="M187.345,46V49.31c-3.027-.674-8.334-2.325-11.379-6q.414.185.887.385c2.783,1.168,6.969,2.573,10.491,2.3" transform="translate(-41.711 -10.267)" fill="#39393b"/>
        <path id="Trazado_157162" data-name="Trazado 157162" d="M192.4,35.661c-5.945,6.149-19.139-1.19-19.563-1.428l-.01-.007q-.184-.825-.33-1.637a43.071,43.071,0,0,1-.428-12.859,9.736,9.736,0,0,1,6.316-9.68c4.15-1.511,7.87.313,10.106,1,3.375,1.041,5.5,5.4,5.517,11.617.024,7.627-.132,11.465-1.608,12.992" transform="translate(-40.718 -2.244)" fill="#ea9b7a"/>
        <path id="Trazado_157163" data-name="Trazado 157163" d="M193.367,14.517q-2.06.285-4.233.452l-.8-3.8-.256,3.876c-2.668.18-5.442.25-8.284.254l-.354-4-.779,4c-2.1-.01-4.241-.052-6.394-.111-1.721-7.971,6.918-11.445,14.187-9.788s6.909,9.117,6.909,9.117" transform="translate(-40.783 -1.184)" fill="#39393b"/>
        <path id="Trazado_157164" data-name="Trazado 157164" d="M176.991,15.227s-2.678,3.571-1.212,6.886.446,6.567-.255,8.99c0,0-1.518-5.338-5.1-6.336s-1.727-10.784,6.561-9.541" transform="translate(-39.988 -3.584)" fill="#39393b"/>
        <path id="Trazado_157165" data-name="Trazado 157165" d="M191.7,39.1a3.344,3.344,0,0,0,1.459-.1.254.254,0,0,0-.163-.481,2.71,2.71,0,0,1-2.268-.344.254.254,0,1,0-.3.41,2.858,2.858,0,0,0,1.272.52" transform="translate(-45.114 -9.035)" fill="#d46a43"/>
        <path id="Trazado_157166" data-name="Trazado 157166" d="M194.826,34s-4.134,1.444-7.24-.605c0,0,1.09,2.8,3.767,3.059A3.4,3.4,0,0,0,194.826,34" transform="translate(-44.466 -7.916)" fill="#fff"/>
        <path id="Trazado_157167" data-name="Trazado 157167" d="M187.226,19.363s1.234.122.8,1.253-2.908-.115-4.679,1.968c0,0-.753-2.712,3.879-3.22" transform="translate(-43.45 -4.59)" fill="#39393b"/>
        <path id="Trazado_157168" data-name="Trazado 157168" d="M195.495,19.363s-1.234.122-.8,1.253,2.908-.115,4.679,1.968c0,0,.753-2.712-3.879-3.22" transform="translate(-46.129 -4.59)" fill="#39393b"/>
        <g id="Grupo_70340" data-name="Grupo 70340" transform="translate(137.809 22.113)" opacity="0.8">
          <g id="Grupo_70339" data-name="Grupo 70339">
            <g id="Grupo_70338" data-name="Grupo 70338" clip-path="url(#clip-path-3)">
              <path id="Trazado_157169" data-name="Trazado 157169" d="M185.92,30.024c0,.576-1.186,1.043-2.647,1.043s-2.647-.467-2.647-1.043,1.185-1.042,2.647-1.042,2.647.467,2.647,1.042" transform="translate(-180.624 -28.983)" fill="#d46a43"/>
            </g>
          </g>
        </g>
        <path id="Trazado_157170" data-name="Trazado 157170" d="M200.683,31.036a6.167,6.167,0,0,1-.638.031c-1.461,0-2.647-.467-2.647-1.042s1.186-1.043,2.647-1.043c.2,0,.39.008.575.026Z" transform="translate(-46.792 -6.87)" fill="#d46a43"/>
        <path id="Trazado_157171" data-name="Trazado 157171" d="M187.463,26.325c0,.79-.359,1.431-.8,1.431s-.8-.641-.8-1.431.359-1.431.8-1.431.8.641.8,1.431" transform="translate(-44.057 -5.901)" fill="#39393b"/>
        <path id="Trazado_157172" data-name="Trazado 157172" d="M197.713,26.325c0,.79-.359,1.431-.8,1.431s-.8-.641-.8-1.431.359-1.431.8-1.431.8.641.8,1.431" transform="translate(-46.487 -5.901)" fill="#39393b"/>
        <path id="Trazado_157173" data-name="Trazado 157173" d="M193.67,29.431a2.875,2.875,0,0,0,.657-.069.326.326,0,0,0,.227-.423l-1.2-3.447a.325.325,0,0,0-.614.214l1.072,3.069a2.557,2.557,0,0,1-1.332-.287.325.325,0,1,0-.308.573,3.174,3.174,0,0,0,1.5.369" transform="translate(-45.511 -5.991)" fill="#39393b"/>
        <path id="Trazado_157174" data-name="Trazado 157174" d="M175.633,37.724c-.038.089-1.077,2.5-2.572,3.207l0,0-.008-.008q-.183-.825-.33-1.637a6.042,6.042,0,0,0,2.913-1.563" transform="translate(-40.942 -8.942)" fill="#39393b"/>
        <path id="Trazado_157175" data-name="Trazado 157175" d="M172.775,29.849s-3.161-4.246-5.476-.909c-1.908,2.75,1.685,10.069,5.548,7.395Z" transform="translate(-39.532 -6.557)" fill="#ea9b7a"/>
        <path id="Trazado_157176" data-name="Trazado 157176" d="M169.51,38.792a3.553,3.553,0,1,0,3.024.037,3.508,3.508,0,0,0-1.325-.345c-.085-.218-.158-.441-.251-.655l.041,0a4.145,4.145,0,0,1,1.636.333,4.187,4.187,0,1,1-5.823,3.854,4.256,4.256,0,0,1,2.139-3.663,4.531,4.531,0,0,0,.558.44" transform="translate(-39.541 -8.967)" fill="#fff"/>
        <path id="Trazado_157177" data-name="Trazado 157177" d="M172.929,35.792l.036,0a.324.324,0,0,0,.288-.359,6.083,6.083,0,0,0-3.562-4.912.325.325,0,1,0-.241.6,5.433,5.433,0,0,1,3.157,4.379.325.325,0,0,0,.323.29" transform="translate(-40.118 -7.229)" fill="#39393b"/>
        <path id="Trazado_157178" data-name="Trazado 157178" d="M169.995,34.421a.324.324,0,0,0,.2-.072c.283-.23,1.141-.793,1.7-.649a.325.325,0,1,0,.161-.63,3.128,3.128,0,0,0-2.272.774.325.325,0,0,0,.205.578" transform="translate(-40.219 -7.828)" fill="#39393b"/>
        <path id="Trazado_157179" data-name="Trazado 157179" d="M140.292,118.6s1.038,2.239-.16,7.137a27.957,27.957,0,0,1-3.207,7.965s-5.021-7.623,3.367-15.1" transform="translate(-32.104 -28.114)" fill="#217c58"/>
        <path id="Trazado_157180" data-name="Trazado 157180" d="M112.762,100.126c.012.246.03.493.052.736s.066.482.106.722c.021.118.04.24.066.355l.081.346a12.187,12.187,0,0,0,.914,2.524c.186.364.385.739.591,1.059.1.162.208.331.316.488l.322.451a16.313,16.313,0,0,0,2.689,2.824,25.219,25.219,0,0,0,2.663,1.931c.436.282.871.536,1.3.786s.858.484,1.284.711c.855.446,1.695.859,2.535,1.242,1.678.767,3.343,1.415,5,2.007s3.316,1.112,4.968,1.592,3.305.931,4.959,1.336,3.314.774,4.979,1.125a19.588,19.588,0,0,0,2.3.272c1.329.1,2.77.174,3.714.333.227-1.372-.932-2.48-.7-3.852.267-1.6.534-3.211.826-4.813l-.665-1.433c-1.006-.24-2.018-.5-3.027-.774l-.091-.025q-2.205-.6-4.379-1.31-2.213-.714-4.376-1.522c-1.434-.544-2.84-1.125-4.206-1.739s-2.685-1.267-3.915-1.96c-.613-.346-1.212-.7-1.763-1.071-.274-.185-.546-.369-.8-.558s-.5-.382-.725-.575a9.219,9.219,0,0,1-.927-.88c-.077-.082-.147-.163-.211-.241l-.011-.014.236-.324.424-.581c.22-.3.436-.606.677-.915.471-.615.93-1.227,1.409-1.844l1.457-1.849c.992-1.231,1.974-2.472,2.988-3.7l.756-.926.767-.923,1.073-1.3.456-.552.557-.67.982-1.18,1.553-1.843q1.548-1.847,3.112-3.687l6.23-7.353.04-.047a7.357,7.357,0,0,0-11.158-9.592l-1.635,1.878-1.6,1.875q-.8.938-1.589,1.886c-.528.629-1.058,1.26-1.582,1.9q-1.571,1.9-3.128,3.82l-1.546,1.928-.205.259-1.334,1.682c-.513.645-1.022,1.3-1.529,1.955l-.759.983-.341.449-.415.545c-1.008,1.316-2.009,2.655-3,4l-1.478,2.053c-.491.69-.978,1.4-1.466,2.1-.244.344-.487.713-.729,1.08l-.726,1.1-.182.275-.046.068-.023.035-.035.056-.151.246c-.1.164-.2.33-.3.5-.049.08-.1.173-.143.264l-.14.272c-.092.183-.185.36-.272.552s-.166.4-.247.6l-.118.3c-.037.1-.073.213-.109.32-.069.214-.137.432-.2.649s-.111.457-.161.686-.1.46-.129.706-.063.481-.087.722-.029.491-.036.738l0,.368c0,.124.008.246.014.37" transform="translate(-26.726 -14.316)" fill="#ea9b7a"/>
        <path id="Trazado_157181" data-name="Trazado 157181" d="M153.433,124.066a3.267,3.267,0,0,0-2.658-.859s-3.46,5.869-1.666,10.9a3.394,3.394,0,0,0,2.488.584s-1.677-6.053,1.836-10.628" transform="translate(-35.223 -29.193)"/>
        <path id="Trazado_157182" data-name="Trazado 157182" d="M146.126,129.916a3.5,3.5,0,1,0,3.3-3.688,3.5,3.5,0,0,0-3.3,3.688" transform="translate(-34.637 -29.92)"/>
        <path id="Trazado_157183" data-name="Trazado 157183" d="M150.04,132.607a2.616,2.616,0,1,0-2.758-2.466,2.619,2.619,0,0,0,2.758,2.466" transform="translate(-34.911 -30.194)" fill="#fff"/>
        <path id="Trazado_157184" data-name="Trazado 157184" d="M158.636,135.826c1.329.1,2.77.174,3.714.333.227-1.372-.932-2.48-.7-3.852.267-1.6.534-3.211.826-4.812l-.665-1.434c-1.006-.24-2.018-.5-3.026-.774l-.092-.024c-.41,2.28-1.054,7.059-.054,10.564" transform="translate(-37.477 -29.692)" fill="#d46a43"/>
        <path id="Trazado_157185" data-name="Trazado 157185" d="M150.374,65.716a6.956,6.956,0,0,1-1.4,6.6c-2.948,3.4-8.578,9.979-11.7,14.108-4.36,5.769-9.876,13.007-9.876,13.007a81.117,81.117,0,0,0,6.748,5.328,13.736,13.736,0,0,0-3.367,15.1s-12.227-6.719-18.417-13.176c-4.52-4.716-3.266-10.6.863-16.228C115.307,87.62,131.38,69.3,137.087,62.9a7.888,7.888,0,0,1,8.425-2.28,7.461,7.461,0,0,1,4.862,5.1" transform="translate(-25.956 -14.27)" fill="#21b573"/>
        <path id="Trazado_157186" data-name="Trazado 157186" d="M159.161,124.927s.48-2.8,1.2-5.486a4.755,4.755,0,0,1,1.824-2.937,24.068,24.068,0,0,1,.69,5.225,2.224,2.224,0,0,1,1.913-.381c1.235.249,5.5,1.154,5.551,2.137.125,2.25-5.213,1.181-5.213,1.181s5.713,1.077,5.569,2.653c-.117,1.276-5.291,1.518-5.291,1.518s4.987.046,4.389,1.836c-.636,1.9-5.261.7-5.261.7s3.332,1.6,3.01,2.271c-.463.967-2.438,1.238-5.63.461-3.268-.8-2.754-9.182-2.754-9.182" transform="translate(-37.721 -27.617)" fill="#ea9b7a"/>
        <path id="Trazado_157187" data-name="Trazado 157187" d="M151.291,86.181a.441.441,0,0,1-.4-.72l7.384-8.766a.441.441,0,0,1,.675.568l-7.384,8.766a.444.444,0,0,1-.271.152" transform="translate(-35.742 -18.143)" fill="#217c58"/>
        <path id="Trazado_157188" data-name="Trazado 157188" d="M160.946,80.388l-2.791.428a.441.441,0,0,1-.134-.872l2.792-.428a.441.441,0,1,1,.133.872" transform="translate(-37.369 -18.848)" fill="#217c58"/>
        <path id="Trazado_157189" data-name="Trazado 157189" d="M122.567,112.713a.286.286,0,0,0,.4.059c2.105-1.565,5.852-1.731,7.707-1.708-.076-.082-.146-.163-.211-.24l-.011-.013.237-.325c-.168,0-.351,0-.548,0a16.139,16.139,0,0,0-4.427-2.246.287.287,0,0,0-.186.543,19.88,19.88,0,0,1,3.719,1.725c-2.042.089-4.834.476-6.622,1.805a.287.287,0,0,0-.06.4" transform="translate(-29.04 -25.653)" fill="#217c58"/>
      </g>
    </g>
  </g>
</svg>
