<svg xmlns="http://www.w3.org/2000/svg" xmlns:xlink="http://www.w3.org/1999/xlink" width="111.294" height="84.352" viewBox="0 0 111.294 84.352">
  <defs>
    <clipPath id="clip-path">
      <rect id="Rectángulo_9432" data-name="Rectángulo 9432" width="111.294" height="84.352" transform="translate(0 0)" fill="none"/>
    </clipPath>
  </defs>
  <g id="Grupo_72195" data-name="Grupo 72195" transform="translate(0 0)">
    <g id="Grupo_72194" data-name="Grupo 72194" clip-path="url(#clip-path)">
      <path id="Trazado_161473" data-name="Trazado 161473" d="M0,7.183a2.226,2.226,0,0,1,.156-.906A9.155,9.155,0,0,1,9.173.007Q38.4-.01,67.638,0q17.007,0,34.014,0c5.911,0,9.641,3.729,9.641,9.628q0,32.545,0,65.089c0,5.9-3.73,9.631-9.64,9.631q-45.859,0-91.719,0c-5.136,0-7.986-2.018-9.7-6.855A1.443,1.443,0,0,0,0,77.17V7.183M55.716,22.156H5.287a8.122,8.122,0,0,1-.869-.005c-.606-.065-.886.166-.805.791a3.489,3.489,0,0,1,0,.434q0,25.647,0,51.294a6.438,6.438,0,0,0,.4,2.771c1.1,2.392,3.015,3.317,5.59,3.314q34.073-.036,68.144-.014,12.009,0,24.019,0a6.005,6.005,0,0,0,3.145-.663,5.557,5.557,0,0,0,2.779-5.272q-.035-25.7.016-51.4c0-1.107-.35-1.273-1.344-1.271q-25.323.045-50.646.021m-.065-3.641q25.426,0,50.852.017c.858,0,1.206-.159,1.183-1.112-.065-2.751,0-5.505-.029-8.257a5.22,5.22,0,0,0-5.51-5.527q-46.506-.013-93.012,0a5.215,5.215,0,0,0-5.5,5.536c-.021,2.644-.006,5.288-.006,7.931,0,1.411,0,1.412,1.387,1.412H55.651" fill="#13a87b"/>
      <path id="Trazado_161474" data-name="Trazado 161474" d="M55.716,22.156q25.323,0,50.646-.022c1,0,1.347.165,1.344,1.272q-.06,25.7-.015,51.4a5.557,5.557,0,0,1-2.78,5.272,6.006,6.006,0,0,1-3.145.664q-12.009-.009-24.019,0-34.071,0-68.144.014c-2.575,0-4.491-.922-5.59-3.314a6.427,6.427,0,0,1-.4-2.771q0-25.647,0-51.294a3.506,3.506,0,0,0,0-.435c-.081-.624.2-.855.805-.79a8.123,8.123,0,0,0,.869.005H55.716m-27.9,29.953q0,8.961,0,17.922c0,2.116.977,2.821,2.98,2.14a35.655,35.655,0,0,1,23.626,0,3.555,3.555,0,0,0,2.424,0,35.705,35.705,0,0,1,23.628,0c2.023.685,3.006-.006,3.006-2.112q0-17.976,0-35.952c0-1.57-.27-1.962-1.736-2.466a39.079,39.079,0,0,0-25.041-.37,3.283,3.283,0,0,1-2.1.007,38.952,38.952,0,0,0-25.039.353c-1.48.509-1.752.9-1.753,2.453q0,9.015,0,18.03" fill="#fdfdfe"/>
      <path id="Trazado_161475" data-name="Trazado 161475" d="M55.651,18.515H5.016c-1.386,0-1.387,0-1.387-1.412,0-2.643-.015-5.287.006-7.931a5.215,5.215,0,0,1,5.5-5.536q46.506-.015,93.012,0a5.22,5.22,0,0,1,5.51,5.527c.025,2.752-.036,5.506.029,8.257.023.953-.325,1.113-1.183,1.112q-25.426-.034-50.852-.017" fill="#d1fff1"/>
      <path id="Trazado_161476" data-name="Trazado 161476" d="M27.811,52.109q0-9.015,0-18.03c0-1.554.273-1.944,1.753-2.453A38.959,38.959,0,0,1,54.6,31.273a3.276,3.276,0,0,0,2.1-.007,39.079,39.079,0,0,1,25.041.37c1.466.5,1.735.9,1.736,2.466q0,17.976,0,35.952c0,2.107-.983,2.8-3.006,2.112a35.711,35.711,0,0,0-23.628,0,3.555,3.555,0,0,1-2.424,0,35.668,35.668,0,0,0-23.626,0c-2,.681-2.979-.023-2.98-2.14q0-8.961,0-17.922m26.068-.646c0-5.216-.017-10.432.019-15.647a1.16,1.16,0,0,0-1-1.349,36.193,36.193,0,0,0-20.651.04,1.045,1.045,0,0,0-.909,1.2q.03,15.7,0,31.4c0,.825.161,1.089,1.041.848a38.6,38.6,0,0,1,20.369-.042c1.011.267,1.153,0,1.147-.911-.031-5.179-.015-10.359-.015-15.538m26.057-.005c0-5.212-.018-10.424.019-15.636a1.161,1.161,0,0,0-1.007-1.347A36.352,36.352,0,0,0,58.2,34.51c-.675.2-.812.519-.811,1.146q.023,15.744-.006,31.489c0,.912.273,1,1.076.783a39.386,39.386,0,0,1,20.259-.059c1.212.307,1.214.308,1.215-.992q0-7.71,0-15.419" fill="#1c9873"/>
      <path id="Trazado_161477" data-name="Trazado 161477" d="M53.879,51.462c0,5.18-.016,10.359.015,15.538.006.915-.136,1.178-1.147.911a38.615,38.615,0,0,0-20.369.043c-.881.24-1.043-.024-1.042-.848q.031-15.7,0-31.4a1.045,1.045,0,0,1,.908-1.2A36.2,36.2,0,0,1,52.9,34.466a1.162,1.162,0,0,1,1,1.35c-.037,5.215-.019,10.431-.019,15.646M42.548,57.42a28.72,28.72,0,0,0-5.378.392,1.54,1.54,0,0,0-1.3,1.735,1.632,1.632,0,0,0,1.367,1.707,3.328,3.328,0,0,0,1.077-.005,34.076,34.076,0,0,1,7.89,0c1.418.165,2.329-.359,2.489-1.453.171-1.177-.568-2.014-2.023-2.127a31.88,31.88,0,0,0-4.122-.248m-.2-17.639c-1.622.137-3.249.227-4.863.426a1.711,1.711,0,0,0-1.6,1.942,1.688,1.688,0,0,0,1.9,1.535,48.4,48.4,0,0,1,9,0,1.633,1.633,0,0,0,1.889-1.523,1.668,1.668,0,0,0-1.558-1.958c-1.579-.189-3.169-.287-4.764-.425m-.092,8.914a29.108,29.108,0,0,0-4.7.239,1.79,1.79,0,1,0,.322,3.565,35.925,35.925,0,0,1,8.762-.009,1.792,1.792,0,1,0,.334-3.561,29.847,29.847,0,0,0-4.716-.234" fill="#8bebce"/>
      <path id="Trazado_161478" data-name="Trazado 161478" d="M79.936,51.458q0,7.708,0,15.419c0,1.3,0,1.3-1.214.992a39.386,39.386,0,0,0-20.259.059c-.8.217-1.078.128-1.076-.783q.039-15.744.006-31.489c0-.628.136-.948.811-1.146a36.352,36.352,0,0,1,20.745-.035,1.161,1.161,0,0,1,1.007,1.347c-.037,5.211-.019,10.424-.019,15.636M68.5,57.422a41.07,41.07,0,0,0-4.141.234c-.214.01-.424.087-.639.116a1.557,1.557,0,0,0-1.352,1.09c-.532,1.477.512,2.594,2.284,2.4a35.008,35.008,0,0,1,8-.005,4.092,4.092,0,0,0,.758.028,1.805,1.805,0,0,0,1.723-1.651,1.653,1.653,0,0,0-1.378-1.818,26.668,26.668,0,0,0-5.259-.389m.244-17.646c-1.6.134-3.224.225-4.837.424a1.719,1.719,0,0,0-1.621,1.922,1.738,1.738,0,0,0,1.985,1.562,46.312,46.312,0,0,1,8.881,0,1.75,1.75,0,0,0,.373-3.479c-1.576-.2-3.165-.292-4.781-.432m-.113,8.917a28.417,28.417,0,0,0-4.681.241,1.718,1.718,0,0,0-1.634,2.013,1.679,1.679,0,0,0,2.077,1.527,37.343,37.343,0,0,1,8.552-.01,1.822,1.822,0,0,0,2.189-1.579,1.857,1.857,0,0,0-1.764-1.958,30,30,0,0,0-4.739-.234" fill="#8bebce"/>
      <path id="Trazado_161479" data-name="Trazado 161479" d="M42.548,57.42a31.724,31.724,0,0,1,4.122.248c1.455.113,2.193.949,2.022,2.127-.158,1.094-1.071,1.618-2.489,1.453a34.068,34.068,0,0,0-7.889,0,3.334,3.334,0,0,1-1.078.005,1.631,1.631,0,0,1-1.366-1.707,1.54,1.54,0,0,1,1.3-1.735,28.731,28.731,0,0,1,5.379-.392" fill="#303e41"/>
      <path id="Trazado_161480" data-name="Trazado 161480" d="M42.351,39.781c1.595.138,3.185.236,4.764.425a1.668,1.668,0,0,1,1.558,1.958,1.632,1.632,0,0,1-1.889,1.523,48.4,48.4,0,0,0-9,0,1.688,1.688,0,0,1-1.9-1.535,1.711,1.711,0,0,1,1.6-1.942c1.614-.2,3.241-.289,4.863-.426" fill="#303e41"/>
      <path id="Trazado_161481" data-name="Trazado 161481" d="M42.259,48.695a29.847,29.847,0,0,1,4.716.234,1.792,1.792,0,1,1-.334,3.561,35.925,35.925,0,0,0-8.762.009,1.79,1.79,0,1,1-.322-3.565,29.108,29.108,0,0,1,4.7-.239" fill="#303e41"/>
      <path id="Trazado_161482" data-name="Trazado 161482" d="M68.5,57.423a26.668,26.668,0,0,1,5.259.389,1.652,1.652,0,0,1,1.378,1.818,1.8,1.8,0,0,1-1.723,1.65,4.006,4.006,0,0,1-.758-.027,34.951,34.951,0,0,0-8,0c-1.772.2-2.816-.917-2.284-2.4a1.554,1.554,0,0,1,1.352-1.089c.215-.03.425-.107.639-.116a41.069,41.069,0,0,1,4.141-.234" fill="#303e41"/>
      <path id="Trazado_161483" data-name="Trazado 161483" d="M68.742,39.776c1.616.141,3.206.23,4.781.432a1.591,1.591,0,0,1,1.5,1.975,1.575,1.575,0,0,1-1.874,1.5,46.393,46.393,0,0,0-8.881,0,1.739,1.739,0,0,1-1.986-1.563A1.72,1.72,0,0,1,63.906,40.2c1.612-.2,3.237-.289,4.836-.424" fill="#303e41"/>
      <path id="Trazado_161484" data-name="Trazado 161484" d="M68.629,48.693a30,30,0,0,1,4.739.234,1.857,1.857,0,0,1,1.764,1.958,1.822,1.822,0,0,1-2.189,1.579,37.343,37.343,0,0,0-8.552.01,1.679,1.679,0,0,1-2.077-1.527,1.718,1.718,0,0,1,1.634-2.013,28.417,28.417,0,0,1,4.681-.241" fill="#303e41"/>
      <path id="Trazado_161485" data-name="Trazado 161485" d="M13.328,14.284h0a2.539,2.539,0,1,1,2.538-2.538,2.538,2.538,0,0,1-2.538,2.538" fill="#1c9873"/>
      <path id="Trazado_161486" data-name="Trazado 161486" d="M20.905,14.284h0a2.539,2.539,0,1,1,2.538-2.538,2.538,2.538,0,0,1-2.538,2.538" fill="#13a87b"/>
      <path id="Trazado_161487" data-name="Trazado 161487" d="M28.8,14.284h0a2.539,2.539,0,1,1,2.538-2.538A2.538,2.538,0,0,1,28.8,14.284" fill="#26cb99"/>
    </g>
  </g>
</svg>
