<svg id="Grupo_72201" data-name="Grupo 72201" xmlns="http://www.w3.org/2000/svg" xmlns:xlink="http://www.w3.org/1999/xlink" width="110.341" height="125.24" viewBox="0 0 110.341 125.24">
  <defs>
    <clipPath id="clip-path">
      <rect id="Rectángulo_9435" data-name="Rectángulo 9435" width="110.341" height="125.24" transform="translate(0 0)" fill="none"/>
    </clipPath>
  </defs>
  <g id="Grupo_72200" data-name="Grupo 72200" clip-path="url(#clip-path)">
    <path id="Trazado_161519" data-name="Trazado 161519" d="M59.549,0a26.822,26.822,0,0,0,4.359.7c22.1,4.256,37.135,16.945,43.886,38.376,8.757,27.8-5.753,56.992-32.945,67.525A52.73,52.73,0,0,1,45.8,109.357a3.048,3.048,0,0,0-2.472.529c-6.8,4.621-13.632,9.194-20.454,13.781-.236.159-.469.324-.711.474-1.142.713-2.313,1.61-3.7.74a4.4,4.4,0,0,1-2.188-4.568c.241-1.774.558-3.538.835-5.307.856-5.469,1.684-10.943,2.587-16.4a1.98,1.98,0,0,0-.754-2.077A55.154,55.154,0,0,1,5.588,79.1,52.683,52.683,0,0,1,.561,47.868C3.345,28.7,13.526,14.676,30.657,5.732A52.923,52.923,0,0,1,49.533.26c.25-.027.595.135.721-.26ZM19.915,87.831a37.517,37.517,0,0,0,5.57,5.282A4.258,4.258,0,0,1,27.1,97.428q-.948,5.907-1.758,11.835a24.3,24.3,0,0,0-.53,4.529c.463-.31.8-.531,1.129-.755,5.132-3.456,10.277-6.893,15.385-10.385a3.487,3.487,0,0,1,2.875-.585,49.888,49.888,0,0,0,17.72.674,46.543,46.543,0,0,0,27.113-13.59,46.838,46.838,0,0,0,13.844-33.167A43.993,43.993,0,0,0,100.624,41.1c-.488-1.418-.859-2.89-1.481-4.246C91.549,20.308,78.792,10.553,60.712,8.11a45.448,45.448,0,0,0-27.023,4.723,46.244,46.244,0,0,0-22.63,24.328,47.167,47.167,0,0,0-.2,36.309,43.754,43.754,0,0,0,9.056,14.361" fill="#1c9873"/>
    <path id="Trazado_161520" data-name="Trazado 161520" d="M100.623,41.1a44.024,44.024,0,0,1,2.255,14.887A46.85,46.85,0,0,1,89.034,89.152a46.556,46.556,0,0,1-27.115,13.589,49.859,49.859,0,0,1-17.719-.673,3.487,3.487,0,0,0-2.875.585c-5.107,3.491-10.252,6.929-15.384,10.385l-1.13.754a24.3,24.3,0,0,1,.531-4.529q.812-5.927,1.757-11.835a4.257,4.257,0,0,0-1.614-4.314,37.573,37.573,0,0,1-5.57-5.283c-.244-7.393.422-14.646,3.085-21.636a54.118,54.118,0,0,1,6.3-11.908,60.77,60.77,0,0,1,4.9-6.031,23.25,23.25,0,0,1,4.538-3.979q-.057.975-.111,1.951c-.129,2.365,1.156,3.934,3.37,4.111,2.159.174,3.634-1.114,3.921-3.42.039-.323.113-.645.127-.969a9,9,0,0,1,10.286-8.333,8.6,8.6,0,0,1,7.238,5.449,8.876,8.876,0,0,1-1.18,9.227,8.726,8.726,0,0,1-6.7,3.5c-3.181.2-4.217,1.342-4.219,4.563,0,3.669-.01,7.338.005,11.007.008,2.48,1.4,3.976,3.647,3.964a3.7,3.7,0,0,0,3.69-4c.016-2.2.12-4.411-.036-6.6-.1-1.49.424-2.063,1.8-2.527a16.617,16.617,0,0,0,10.1-21.216,17.818,17.818,0,0,0-6.34-8.169,52.112,52.112,0,0,1,10.049-.344,62.281,62.281,0,0,1,7.213.883,51.506,51.506,0,0,1,17.918,7.314,1.551,1.551,0,0,0,1.1.43M55.143,78.662a3.709,3.709,0,0,0-3.665,3.515,4,4,0,0,0,3.744,3.931,3.933,3.933,0,0,0,3.592-3.784,3.739,3.739,0,0,0-3.671-3.662" fill="#d1fff1"/>
    <path id="Trazado_161521" data-name="Trazado 161521" d="M38.739,44.276A23.248,23.248,0,0,0,34.2,48.255a60.753,60.753,0,0,0-4.9,6.031A54.163,54.163,0,0,0,23,66.194c-2.663,6.99-3.329,14.243-3.084,21.637A43.757,43.757,0,0,1,10.858,73.47a47.167,47.167,0,0,1,.2-36.309,46.237,46.237,0,0,1,22.63-24.328A45.454,45.454,0,0,1,60.712,8.109c18.08,2.444,30.837,12.2,38.43,28.741.623,1.357.994,2.828,1.482,4.247a1.556,1.556,0,0,1-1.1-.431,51.492,51.492,0,0,0-17.918-7.313,62.082,62.082,0,0,0-7.214-.884,52.086,52.086,0,0,0-10.047.344c-.219-.1-.445-.19-.655-.307-5.828-3.263-11.661-3.259-17.367.2a16.189,16.189,0,0,0-7.584,11.572" fill="#8bebce"/>
    <path id="Trazado_161522" data-name="Trazado 161522" d="M38.739,44.276A16.189,16.189,0,0,1,46.323,32.7c5.706-3.457,11.539-3.461,17.367-.2.21.117.436.2.655.307a17.823,17.823,0,0,1,6.339,8.169A16.616,16.616,0,0,1,60.579,62.2c-1.376.464-1.906,1.037-1.8,2.527.155,2.19.051,4.4.036,6.6a3.7,3.7,0,0,1-3.691,4c-2.245.011-3.638-1.484-3.647-3.965-.014-3.669-.006-7.337,0-11.006,0-3.222,1.037-4.362,4.219-4.564a8.732,8.732,0,0,0,6.7-3.5,8.878,8.878,0,0,0,1.18-9.228,8.6,8.6,0,0,0-7.239-5.448,9,9,0,0,0-10.286,8.332c-.014.325-.087.646-.127.97-.286,2.305-1.762,3.593-3.921,3.42-2.213-.178-3.5-1.747-3.37-4.112.035-.65.074-1.3.111-1.951" fill="#1c9873"/>
    <path id="Trazado_161523" data-name="Trazado 161523" d="M55.143,78.662a3.739,3.739,0,0,1,3.671,3.662,3.933,3.933,0,0,1-3.592,3.784,4,4,0,0,1-3.744-3.931,3.709,3.709,0,0,1,3.665-3.515" fill="#1c9873"/>
  </g>
</svg>
