<svg id="Grupo_72203" data-name="Grupo 72203" xmlns="http://www.w3.org/2000/svg" xmlns:xlink="http://www.w3.org/1999/xlink" width="117.207" height="127.039" viewBox="0 0 117.207 127.039">
  <defs>
    <clipPath id="clip-path">
      <rect id="Rectángulo_9436" data-name="Rectángulo 9436" width="117.207" height="127.039" fill="none"/>
    </clipPath>
  </defs>
  <g id="Grupo_72202" data-name="Grupo 72202" clip-path="url(#clip-path)">
    <path id="Trazado_161524" data-name="Trazado 161524" d="M80.958,0c3.011.976,4.681,2.932,4.519,6.21-.026.517.2.7.669.841A33.066,33.066,0,0,1,92.53,9.712.841.841,0,0,0,93.7,9.534c3.077-2.832,5.9-2.757,8.867.2,1.759,1.753,3.526,3.5,5.269,5.268a5.517,5.517,0,0,1,.058,8.254c-.542.556-.7.953-.29,1.676a26.842,26.842,0,0,1,2.418,5.815,1.123,1.123,0,0,0,1.259.984c3.714.047,5.909,2.3,5.922,5.993q.014,3.849,0,7.7c-.013,3.683-2.236,5.969-5.922,5.994a1.113,1.113,0,0,0-1.257.973,28.263,28.263,0,0,1-2.469,5.929,1.045,1.045,0,0,0,.244,1.477c2.589,2.659,2.556,5.808-.041,8.429Q105,71,102.223,73.754c-2.577,2.541-5.734,2.566-8.341.031a1.118,1.118,0,0,0-1.583-.243A28.628,28.628,0,0,1,86.367,76a1.051,1.051,0,0,0-.91,1.182c-.05,3.791-2.29,5.967-6.066,5.982-2.566.011-5.133.018-7.7,0a5.543,5.543,0,0,1-5.914-5.887c-.006-.734-.195-1.092-.927-1.3a26.257,26.257,0,0,1-5.819-2.4,1.2,1.2,0,0,0-1.693.219c-2.6,2.535-5.769,2.486-8.338-.061q-2.822-2.8-5.62-5.62a5.506,5.506,0,0,1-.006-8.247,1.182,1.182,0,0,0,.244-1.683,27.474,27.474,0,0,1-2.444-5.938.982.982,0,0,0-1.112-.829c-3.894-.078-6.023-2.272-6.03-6.138,0-2.566-.012-5.133,0-7.7a5.509,5.509,0,0,1,5.807-5.857c.785-.008,1.166-.2,1.385-.987a26.058,26.058,0,0,1,2.41-5.817,1.114,1.114,0,0,0-.2-1.589c-2.589-2.659-2.541-5.8.063-8.425,1.867-1.879,3.733-3.76,5.621-5.618a5.479,5.479,0,0,1,8.155-.007,1.223,1.223,0,0,0,1.773.265,27.879,27.879,0,0,1,5.82-2.409c.456-.133.944-.207.9-.932C65.586,2.93,67.276.981,70.278,0Zm4.524,71.056a31.284,31.284,0,0,0,6.546-3.035,2.5,2.5,0,0,1,3.476.387c.571.539,1.148,1.079,1.664,1.67.605.691,1.09.67,1.73.006q2.541-2.636,5.182-5.175c.686-.658.793-1.164.034-1.82a22.879,22.879,0,0,1-1.758-1.752,2.357,2.357,0,0,1-.39-3.163A34.922,34.922,0,0,0,106,48.491a2.425,2.425,0,0,1,2.606-2.013c.91-.028,1.821-.018,2.731,0,.626.01.9-.275.9-.9-.007-2.648-.012-5.3,0-7.946,0-.691-.3-.973-.973-.957-.869.019-1.739.027-2.607-.005a2.465,2.465,0,0,1-2.686-2.084,34.523,34.523,0,0,0-3.98-9.57,2.4,2.4,0,0,1,.406-3.265c.622-.664,1.276-1.3,1.928-1.935.429-.418.5-.807.041-1.265q-2.865-2.839-5.707-5.7a.762.762,0,0,0-1.263-.01c-.664.682-1.333,1.361-2.023,2.016a2.4,2.4,0,0,1-3.169.377A32.756,32.756,0,0,0,82.528,11.2a2.465,2.465,0,0,1-2-2.5c-.048-.908-.037-1.822-.006-2.731.025-.751-.3-1.021-1.037-1.014-2.566.027-5.132.033-7.7,0-.829-.011-1.1.326-1.067,1.11.04.867.041,1.74,0,2.607a2.46,2.46,0,0,1-1.976,2.522,33.931,33.931,0,0,0-9.688,4.01,2.381,2.381,0,0,1-3.258-.418c-.661-.625-1.3-1.277-1.934-1.928-.418-.428-.8-.5-1.263-.037q-2.838,2.868-5.707,5.706a.763.763,0,0,0,0,1.264c.653.634,1.305,1.271,1.928,1.934A2.446,2.446,0,0,1,49.2,25.1a33.481,33.481,0,0,0-3.923,9.458,2.474,2.474,0,0,1-2.668,2.113c-.868.036-1.739.031-2.607,0-.753-.024-1.02.312-1.013,1.045.023,2.566.028,5.132,0,7.7-.009.824.339,1.1,1.121,1.066.868-.04,1.739-.036,2.607,0a2.442,2.442,0,0,1,2.524,1.967,33.829,33.829,0,0,0,4.073,9.794,2.356,2.356,0,0,1-.4,3.066c-.569.6-1.134,1.212-1.756,1.754-.721.629-.755,1.134-.026,1.816,1.36,1.271,2.644,2.622,3.962,3.938,2.106,2.106,2.107,2.1,4.258-.032,1.58-1.568,2.323-1.659,4.256-.539a27.43,27.43,0,0,0,6.149,2.782c0-3.2-.044-6.3.026-9.39a1.774,1.774,0,0,0-1.152-1.875,21.942,21.942,0,0,1-6.208-33.83c1.978-2.247,4.181-4.275,7.146-5.162a3.832,3.832,0,0,1,5.07,2.851,7.779,7.779,0,0,1,.283,2.327c-.2,4.22-.037,8.441-.082,12.662a7.734,7.734,0,0,0,.18,1.721,5.236,5.236,0,0,0,4.39,4c1.749.151,3.866-1.4,4.615-3.373A6.431,6.431,0,0,0,80.4,38.65c0-3.6.013-7.2-.009-10.8a18.341,18.341,0,0,1,.074-3.834,3.985,3.985,0,0,1,5.279-3.235,8.148,8.148,0,0,1,1.928.825,21.964,21.964,0,0,1-1.366,38.318c-.492.264-.855.494-.846,1.184.044,3.267.019,6.534.019,9.949M65.865,26.044c-.545.371-.957.62-1.333.914a17.021,17.021,0,0,0,3.84,29.117c2.036.865,2.354,1.342,2.355,3.549,0,5.711.03,11.422-.025,17.133-.011,1.169.366,1.5,1.5,1.465,2.273-.076,4.554-.089,6.826,0,1.249.051,1.522-.424,1.511-1.578-.05-5.669.017-11.34-.046-17.008a3.378,3.378,0,0,1,2.354-3.583,16.992,16.992,0,0,0,3.765-29.17c-.361-.28-.687-.7-1.24-.654,0,4.139,0,8.234,0,12.329a11.773,11.773,0,0,1-.681,4.135c-1.518,4.091-6.015,7.106-9.8,6.565a10.238,10.238,0,0,1-9.013-10.441c-.036-4.178-.007-8.356-.007-12.777" fill="#1c9873"/>
    <path id="Trazado_161525" data-name="Trazado 161525" d="M84.914,116.247c.59,1.753.344,2.588-1.106,3.639-1.4,1.018-2.83,2.009-4.236,3.027A19.834,19.834,0,0,1,61.3,126.077c-10.444-3.077-21-5.757-31.522-8.579-2.15-.577-4.364-.15-6.545-.265-.436-.023-.515.3-.664.6a6.577,6.577,0,0,1-6.474,3.916c-3.061-.044-6.124,0-9.185-.013a6.549,6.549,0,0,1-6.893-6.829q-.027-12.784,0-25.569A6.608,6.608,0,0,1,6.81,82.5q4.777-.042,9.557,0a6.424,6.424,0,0,1,6.085,3.746,1.277,1.277,0,0,0,1.321.8,15.593,15.593,0,0,0,6.762-1.188,30.32,30.32,0,0,1,10.582-2.384c6.084-.214,11.271,2.111,15.943,5.807a12.228,12.228,0,0,1,1.884,1.609,5.172,5.172,0,0,0,4.6,1.763c3.677-.136,7.364,0,11.045-.054a9.311,9.311,0,0,1,6.824,2.406c.593.556.962.151,1.4-.075q9.195-4.713,18.38-9.444a9.792,9.792,0,0,1,7.663-.917,8.283,8.283,0,0,1,6.011,6.624,8.536,8.536,0,0,1-3.2,8.742c-3,2.389-6.2,4.54-9.351,6.739a2.5,2.5,0,0,1-3.288-.385c-.979-1.784-.747-2.8.935-4.007,2.721-1.951,5.472-3.86,8.163-5.851a4.1,4.1,0,0,0,1.425-5.45c-1.057-1.8-3.186-2.334-5.455-1.357-.189.082-.376.168-.559.262q-9.2,4.722-18.4,9.433a1.156,1.156,0,0,0-.768,1.4,9.07,9.07,0,0,1-7.744,10.122,11.455,11.455,0,0,1-1.85.148q-10.363.015-20.728.006c-.207,0-.415.007-.621-.008a2.528,2.528,0,0,1-2.522-2.53,2.419,2.419,0,0,1,2.587-2.422c6.951-.017,13.9-.007,20.853-.009,3.2,0,5.145-1.617,5.128-4.256s-1.918-4.184-5.173-4.186c-3.31,0-6.632-.177-9.927.048a11.021,11.021,0,0,1-9.249-3.4A19.521,19.521,0,0,0,45.5,88.878c-4.6-1.055-8.967-.038-13.2,1.617a18.5,18.5,0,0,1-8.08,1.5c-.855-.058-1.121.2-1.115,1.086q.058,9.061,0,18.122c-.006.878.237,1.077,1.094,1.092,2.262.04,4.526-.24,6.781.378,10.665,2.924,21.374,5.686,32.009,8.708a14.417,14.417,0,0,0,13.148-2.151c1.542-1.111,3.106-2.193,4.66-3.286,1.71-1.2,2.667-1.131,4.122.307M18.151,102.171c0-4.217.007-8.433,0-12.65,0-1.456-.569-2.04-2.013-2.048q-4.527-.028-9.054,0c-1.526.007-2.1.577-2.1,2.1q-.01,12.588,0,25.175c0,1.458.569,2.01,2.031,2.016q4.464.018,8.929,0c1.745,0,2.2-.459,2.207-2.195q.009-6.2,0-12.4" fill="#1c9873"/>
    <path id="Trazado_161526" data-name="Trazado 161526" d="M84.914,116.247c-1.455-1.438-2.412-1.51-4.122-.307-1.555,1.094-3.118,2.175-4.66,3.287a14.421,14.421,0,0,1-13.148,2.151c-10.636-3.023-21.345-5.785-32.009-8.708-2.255-.619-4.52-.339-6.781-.378-.858-.016-1.1-.215-1.095-1.093q.061-9.06,0-18.121c-.005-.886.261-1.145,1.116-1.087a18.485,18.485,0,0,0,8.08-1.5c4.238-1.655,8.6-2.671,13.2-1.617a19.521,19.521,0,0,1,9.626,5.354,11.021,11.021,0,0,0,9.249,3.4c3.295-.225,6.617-.048,9.927-.047,3.254,0,5.157,1.541,5.173,4.185s-1.928,4.255-5.129,4.256c-6.951,0-13.9-.008-20.852.009a2.42,2.42,0,0,0-2.588,2.423,2.528,2.528,0,0,0,2.523,2.529c.206.015.414.008.62.008q10.365,0,20.729-.006a11.455,11.455,0,0,0,1.85-.148,9.07,9.07,0,0,0,7.744-10.122,1.156,1.156,0,0,1,.767-1.4q9.21-4.693,18.4-9.432c.183-.094.371-.181.56-.262,2.269-.978,4.4-.448,5.455,1.356a4.1,4.1,0,0,1-1.426,5.451c-2.691,1.99-5.442,3.9-8.162,5.85-1.682,1.206-1.914,2.224-.935,4.008a15.643,15.643,0,0,0-4.973,3.569c-1.2-1.312-2.4-1.587-3.559-.816-1.229.817-1.425,2.062-.582,3.69a22.725,22.725,0,0,0-5,3.511" fill="#fddad3"/>
    <path id="Trazado_161527" data-name="Trazado 161527" d="M89.913,112.737c-.843-1.628-.647-2.874.581-3.691,1.158-.77,2.359-.495,3.56.816.453,1.543.2,2.589-.792,3.277s-2.087.557-3.349-.4" fill="#1c9873"/>
    <path id="Trazado_161528" data-name="Trazado 161528" d="M85.482,71.055c0-3.415.024-6.682-.02-9.949-.009-.691.354-.921.847-1.184A21.964,21.964,0,0,0,87.675,21.6a8.073,8.073,0,0,0-1.929-.825,3.985,3.985,0,0,0-5.278,3.235,18.273,18.273,0,0,0-.075,3.834c.023,3.6.007,7.2.009,10.8a6.41,6.41,0,0,1-.375,2.312c-.75,1.975-2.866,3.524-4.615,3.373a5.239,5.239,0,0,1-4.391-4.005,7.842,7.842,0,0,1-.18-1.721c.046-4.22-.12-8.441.083-12.661a7.755,7.755,0,0,0-.284-2.328,3.831,3.831,0,0,0-5.069-2.851c-2.965.888-5.168,2.916-7.147,5.162a21.942,21.942,0,0,0,6.209,33.831,1.774,1.774,0,0,1,1.151,1.875c-.07,3.092-.026,6.186-.026,9.389a27.468,27.468,0,0,1-6.149-2.781c-1.932-1.12-2.676-1.029-4.255.539C53.2,70.92,53.2,70.92,51.1,68.815c-1.317-1.316-2.6-2.668-3.961-3.939-.729-.682-.695-1.187.026-1.815.622-.542,1.186-1.154,1.756-1.754a2.357,2.357,0,0,0,.4-3.066,33.785,33.785,0,0,1-4.073-9.794,2.443,2.443,0,0,0-2.524-1.967c-.868-.036-1.74-.039-2.607,0-.782.036-1.131-.241-1.121-1.065.029-2.566.025-5.132,0-7.7-.007-.733.26-1.07,1.013-1.046.868.028,1.739.033,2.607,0a2.472,2.472,0,0,0,2.667-2.112A33.512,33.512,0,0,1,49.2,25.1a2.446,2.446,0,0,0-.385-3.372c-.623-.663-1.276-1.3-1.929-1.934a.763.763,0,0,1,0-1.264q2.866-2.839,5.706-5.706c.462-.467.845-.391,1.263.037.637.651,1.273,1.3,1.935,1.928a2.381,2.381,0,0,0,3.258.418,33.925,33.925,0,0,1,9.687-4.01,2.46,2.46,0,0,0,1.976-2.522c.042-.868.042-1.74,0-2.607-.036-.784.237-1.122,1.066-1.11,2.566.034,5.132.029,7.7,0,.742-.007,1.061.262,1.036,1.014-.03.909-.042,1.822.006,2.73a2.466,2.466,0,0,0,2,2.5,32.745,32.745,0,0,1,9.679,4.024,2.4,2.4,0,0,0,3.169-.377c.69-.656,1.359-1.334,2.023-2.016a.764.764,0,0,1,1.264.009q2.839,2.867,5.707,5.706c.462.458.388.847-.041,1.265-.652.636-1.306,1.271-1.928,1.935a2.394,2.394,0,0,0-.407,3.265,34.5,34.5,0,0,1,3.98,9.569,2.466,2.466,0,0,0,2.686,2.085c.868.032,1.739.024,2.607,0,.677-.015.977.266.973.958-.016,2.649-.011,5.3,0,7.946,0,.622-.277.906-.9.9-.91-.014-1.822-.024-2.731,0A2.426,2.426,0,0,0,106,48.491a34.873,34.873,0,0,1-4.03,9.681,2.36,2.36,0,0,0,.39,3.164,22.892,22.892,0,0,0,1.759,1.752c.758.655.652,1.162-.034,1.82q-2.643,2.534-5.183,5.175c-.64.663-1.125.685-1.729-.006-.517-.591-1.093-1.131-1.665-1.67a2.5,2.5,0,0,0-3.476-.387,31.354,31.354,0,0,1-6.545,3.035" fill="#d1fff1"/>
    <path id="Trazado_161529" data-name="Trazado 161529" d="M65.865,26.044c0,4.421-.029,8.6.007,12.777a10.238,10.238,0,0,0,9.013,10.441c3.788.541,8.285-2.474,9.8-6.565a11.773,11.773,0,0,0,.681-4.135c0-4.1,0-8.19,0-12.329.553-.05.879.374,1.24.654a16.992,16.992,0,0,1-3.765,29.17A3.378,3.378,0,0,0,80.49,59.64c.063,5.668,0,11.339.046,17.008.011,1.154-.262,1.629-1.511,1.578-2.272-.093-4.553-.08-6.826,0-1.131.038-1.508-.3-1.5-1.465.055-5.711.026-11.422.025-17.133,0-2.207-.319-2.684-2.355-3.549a17.021,17.021,0,0,1-3.84-29.117c.376-.294.788-.543,1.333-.914" fill="#8bebce"/>
    <path id="Trazado_161530" data-name="Trazado 161530" d="M18.151,102.171q0,6.2,0,12.4c0,1.736-.462,2.192-2.207,2.195q-4.464.009-8.929,0c-1.462-.006-2.029-.558-2.031-2.016q-.013-12.586,0-25.175c0-1.527.572-2.1,2.1-2.1q4.527-.021,9.054,0c1.444.008,2.01.592,2.013,2.048.011,4.217,0,8.433,0,12.65" fill="#d1fff1"/>
  </g>
</svg>
