<svg xmlns="http://www.w3.org/2000/svg" xmlns:xlink="http://www.w3.org/1999/xlink" width="1284" height="473.333" viewBox="0 0 1284 473.333">
  <defs>
    <clipPath id="clip-path">
      <rect id="Rect치ngulo_9021" data-name="Rect치ngulo 9021" width="1004.9" height="214.515" fill="none"/>
    </clipPath>
    <clipPath id="clip-path-2">
      <rect id="Rect치ngulo_9022" data-name="Rect치ngulo 9022" width="985.477" height="171.333" fill="none"/>
    </clipPath>
  </defs>
  <g id="Grupo_72211" data-name="Grupo 72211" transform="translate(-136 -3711)">
    <g id="Grupo_71898" data-name="Grupo 71898" transform="translate(136 3711)" opacity="0.5">
      <g id="Grupo_71897" data-name="Grupo 71897" clip-path="url(#clip-path)">
        <path id="Trazado_160151" data-name="Trazado 160151" d="M4.381,34.881V8.366H0V4.74A7.513,7.513,0,0,0,3.541,3.333,7.05,7.05,0,0,0,5.986.434H9.612V34.881Z" fill="#e1e1e1"/>
        <path id="Trazado_160152" data-name="Trazado 160152" d="M30.613,27.1A8.2,8.2,0,0,1,22.4,35.315,8.206,8.206,0,0,1,14.164,27.1V8.233A7.91,7.91,0,0,1,16.582,2.4,7.959,7.959,0,0,1,22.4,0a7.877,7.877,0,0,1,5.826,2.418,7.974,7.974,0,0,1,2.389,5.816ZM25.231,8.12a3,3,0,0,0-3-2.984,2.843,2.843,0,0,0-2.1.878,2.891,2.891,0,0,0-.869,2.106v18.9a2.891,2.891,0,0,0,.869,2.106,2.843,2.843,0,0,0,2.1.878,3,3,0,0,0,3-2.984Z" fill="#e1e1e1"/>
        <path id="Trazado_160153" data-name="Trazado 160153" d="M39.187,34.881V8.366H34.806V4.74a7.513,7.513,0,0,0,3.541-1.407,7.05,7.05,0,0,0,2.445-2.9h3.626V34.881Z" fill="#e1e1e1"/>
        <path id="Trazado_160154" data-name="Trazado 160154" d="M53.049,34.881V8.366H48.667V4.74a7.513,7.513,0,0,0,3.541-1.407,7.05,7.05,0,0,0,2.445-2.9h3.626V34.881Z" fill="#e1e1e1"/>
        <path id="Trazado_160155" data-name="Trazado 160155" d="M66.91,34.881V8.366H62.529V4.74A7.513,7.513,0,0,0,66.07,3.333a7.05,7.05,0,0,0,2.445-2.9h3.626V34.881Z" fill="#e1e1e1"/>
        <path id="Trazado_160156" data-name="Trazado 160156" d="M93.141,27.1a8.224,8.224,0,1,1-16.449,0V8.233A7.91,7.91,0,0,1,79.11,2.4,7.959,7.959,0,0,1,84.926,0a7.877,7.877,0,0,1,5.826,2.418,7.974,7.974,0,0,1,2.389,5.816ZM87.759,8.12a3,3,0,0,0-3-2.984,2.843,2.843,0,0,0-2.1.878,2.891,2.891,0,0,0-.869,2.106v18.9a2.891,2.891,0,0,0,.869,2.106,2.843,2.843,0,0,0,2.1.878,3,3,0,0,0,3-2.984Z" fill="#e1e1e1"/>
        <path id="Trazado_160157" data-name="Trazado 160157" d="M114.066,27.1a8.225,8.225,0,1,1-16.449,0V8.233A7.91,7.91,0,0,1,100.035,2.4,7.959,7.959,0,0,1,105.851,0a7.877,7.877,0,0,1,5.826,2.418,7.974,7.974,0,0,1,2.389,5.816ZM108.684,8.12a3,3,0,0,0-3-2.984,2.843,2.843,0,0,0-2.1.878,2.891,2.891,0,0,0-.869,2.106v18.9a2.891,2.891,0,0,0,.869,2.106,2.843,2.843,0,0,0,2.1.878,3,3,0,0,0,3-2.984Z" fill="#e1e1e1"/>
        <path id="Trazado_160158" data-name="Trazado 160158" d="M134.991,27.1a8.224,8.224,0,1,1-16.449,0V8.233A7.91,7.91,0,0,1,120.96,2.4,7.959,7.959,0,0,1,126.776,0,7.877,7.877,0,0,1,132.6,2.417a7.974,7.974,0,0,1,2.389,5.816ZM129.609,8.12a3,3,0,0,0-3-2.984,2.843,2.843,0,0,0-2.1.878,2.891,2.891,0,0,0-.869,2.106v18.9a2.891,2.891,0,0,0,.869,2.106,2.843,2.843,0,0,0,2.1.878,3,3,0,0,0,3-2.984Z" fill="#e1e1e1"/>
        <path id="Trazado_160159" data-name="Trazado 160159" d="M143.565,34.881V8.366h-4.381V4.74a7.513,7.513,0,0,0,3.541-1.407,7.05,7.05,0,0,0,2.445-2.9H148.8V34.881Z" fill="#e1e1e1"/>
        <path id="Trazado_160160" data-name="Trazado 160160" d="M169.8,27.1a7.879,7.879,0,0,1-2.416,5.826A8.224,8.224,0,0,1,153.348,27.1V8.233A7.91,7.91,0,0,1,155.766,2.4a8.239,8.239,0,0,1,11.642.019A7.973,7.973,0,0,1,169.8,8.233ZM164.415,8.12a3,3,0,0,0-3-2.984,2.844,2.844,0,0,0-2.1.878,2.89,2.89,0,0,0-.868,2.106v18.9a2.89,2.89,0,0,0,.868,2.106,2.844,2.844,0,0,0,2.1.878,3,3,0,0,0,3-2.984Z" fill="#e1e1e1"/>
        <path id="Trazado_160161" data-name="Trazado 160161" d="M178.371,34.881V8.366H173.99V4.74a7.513,7.513,0,0,0,3.541-1.407,7.05,7.05,0,0,0,2.445-2.9H183.6V34.881Z" fill="#e1e1e1"/>
        <path id="Trazado_160162" data-name="Trazado 160162" d="M204.6,27.1a8.225,8.225,0,1,1-16.449,0V8.233A7.91,7.91,0,0,1,190.571,2.4,7.959,7.959,0,0,1,196.387,0a7.877,7.877,0,0,1,5.826,2.418A7.974,7.974,0,0,1,204.6,8.233ZM199.22,8.12a3,3,0,0,0-3-2.984,2.843,2.843,0,0,0-2.1.878,2.891,2.891,0,0,0-.869,2.106v18.9a2.891,2.891,0,0,0,.869,2.106,2.843,2.843,0,0,0,2.1.878,3,3,0,0,0,3-2.984Z" fill="#e1e1e1"/>
        <path id="Trazado_160163" data-name="Trazado 160163" d="M213.176,34.881V8.366h-4.381V4.74a7.513,7.513,0,0,0,3.541-1.407,7.05,7.05,0,0,0,2.445-2.9h3.626V34.881Z" fill="#e1e1e1"/>
        <path id="Trazado_160164" data-name="Trazado 160164" d="M239.407,27.1a8.225,8.225,0,1,1-16.449,0V8.233A7.91,7.91,0,0,1,225.376,2.4,7.959,7.959,0,0,1,231.192,0a7.877,7.877,0,0,1,5.826,2.418,7.974,7.974,0,0,1,2.389,5.816ZM234.025,8.12a3,3,0,0,0-3-2.984,2.843,2.843,0,0,0-2.1.878,2.891,2.891,0,0,0-.869,2.106v18.9a2.891,2.891,0,0,0,.869,2.106,2.843,2.843,0,0,0,2.1.878,3,3,0,0,0,3-2.984Z" fill="#e1e1e1"/>
        <path id="Trazado_160165" data-name="Trazado 160165" d="M260.332,27.1a8.225,8.225,0,1,1-16.449,0V8.233A7.91,7.91,0,0,1,246.3,2.4,7.959,7.959,0,0,1,252.117,0a7.877,7.877,0,0,1,5.826,2.418,7.974,7.974,0,0,1,2.389,5.816ZM254.95,8.12a3,3,0,0,0-3-2.984,2.843,2.843,0,0,0-2.1.878,2.891,2.891,0,0,0-.869,2.106v18.9a2.891,2.891,0,0,0,.869,2.106,2.843,2.843,0,0,0,2.1.878,3,3,0,0,0,3-2.984Z" fill="#e1e1e1"/>
        <path id="Trazado_160166" data-name="Trazado 160166" d="M281.257,27.1a8.224,8.224,0,1,1-16.449,0V8.233A7.91,7.91,0,0,1,267.226,2.4,7.959,7.959,0,0,1,273.042,0a7.877,7.877,0,0,1,5.826,2.418,7.974,7.974,0,0,1,2.389,5.816ZM275.875,8.12a3,3,0,0,0-3-2.984,2.843,2.843,0,0,0-2.1.878,2.891,2.891,0,0,0-.869,2.106v18.9a2.891,2.891,0,0,0,.869,2.106,2.843,2.843,0,0,0,2.1.878,3,3,0,0,0,3-2.984Z" fill="#e1e1e1"/>
        <path id="Trazado_160167" data-name="Trazado 160167" d="M289.831,34.881V8.366H285.45V4.74a7.512,7.512,0,0,0,3.541-1.407,7.05,7.05,0,0,0,2.445-2.9h3.626V34.881Z" fill="#e1e1e1"/>
        <path id="Trazado_160168" data-name="Trazado 160168" d="M316.062,27.1a8.225,8.225,0,1,1-16.449,0V8.233A7.91,7.91,0,0,1,302.031,2.4,7.959,7.959,0,0,1,307.847,0a7.877,7.877,0,0,1,5.826,2.418,7.974,7.974,0,0,1,2.389,5.816ZM310.68,8.12a3,3,0,0,0-3-2.984,2.843,2.843,0,0,0-2.1.878,2.891,2.891,0,0,0-.869,2.106v18.9a2.891,2.891,0,0,0,.869,2.106,2.843,2.843,0,0,0,2.1.878,3,3,0,0,0,3-2.984Z" fill="#e1e1e1"/>
        <path id="Trazado_160169" data-name="Trazado 160169" d="M324.637,34.881V8.366h-4.381V4.74A7.512,7.512,0,0,0,323.8,3.333a7.05,7.05,0,0,0,2.445-2.9h3.626V34.881Z" fill="#e1e1e1"/>
        <path id="Trazado_160170" data-name="Trazado 160170" d="M350.868,27.1a8.225,8.225,0,1,1-16.449,0V8.233A7.91,7.91,0,0,1,336.837,2.4,7.959,7.959,0,0,1,342.653,0a7.877,7.877,0,0,1,5.826,2.418,7.974,7.974,0,0,1,2.389,5.816ZM345.486,8.12a3,3,0,0,0-3-2.984,2.843,2.843,0,0,0-2.1.878,2.891,2.891,0,0,0-.869,2.106v18.9a2.891,2.891,0,0,0,.869,2.106,2.843,2.843,0,0,0,2.1.878,3,3,0,0,0,3-2.984Z" fill="#e1e1e1"/>
        <path id="Trazado_160171" data-name="Trazado 160171" d="M359.442,34.881V8.366h-4.381V4.74A7.512,7.512,0,0,0,358.6,3.333a7.05,7.05,0,0,0,2.445-2.9h3.626V34.881Z" fill="#e1e1e1"/>
        <path id="Trazado_160172" data-name="Trazado 160172" d="M385.673,27.1a8.225,8.225,0,1,1-16.449,0V8.233A7.91,7.91,0,0,1,371.642,2.4,7.959,7.959,0,0,1,377.458,0a7.877,7.877,0,0,1,5.826,2.418,7.974,7.974,0,0,1,2.389,5.816ZM380.291,8.12a3,3,0,0,0-3-2.984,2.843,2.843,0,0,0-2.1.878,2.891,2.891,0,0,0-.869,2.106v18.9a2.891,2.891,0,0,0,.869,2.106,2.843,2.843,0,0,0,2.1.878,3,3,0,0,0,3-2.984Z" fill="#e1e1e1"/>
        <path id="Trazado_160173" data-name="Trazado 160173" d="M394.247,34.881V8.366h-4.381V4.74a7.513,7.513,0,0,0,3.541-1.407,7.05,7.05,0,0,0,2.445-2.9h3.626V34.881Z" fill="#e1e1e1"/>
        <path id="Trazado_160174" data-name="Trazado 160174" d="M420.479,27.1a8.225,8.225,0,1,1-16.449,0V8.233A7.91,7.91,0,0,1,406.448,2.4,7.959,7.959,0,0,1,412.264,0a7.877,7.877,0,0,1,5.826,2.418,7.974,7.974,0,0,1,2.389,5.816ZM415.1,8.12a3,3,0,0,0-3-2.984,2.843,2.843,0,0,0-2.1.878,2.891,2.891,0,0,0-.869,2.106v18.9A2.891,2.891,0,0,0,410,29.13a2.843,2.843,0,0,0,2.1.878,3,3,0,0,0,3-2.984Z" fill="#e1e1e1"/>
        <path id="Trazado_160175" data-name="Trazado 160175" d="M429.053,34.881V8.366h-4.381V4.74a7.513,7.513,0,0,0,3.541-1.407,7.05,7.05,0,0,0,2.445-2.9h3.626V34.881Z" fill="#e1e1e1"/>
        <path id="Trazado_160176" data-name="Trazado 160176" d="M455.284,27.1a8.225,8.225,0,1,1-16.449,0V8.233A7.91,7.91,0,0,1,441.253,2.4,7.96,7.96,0,0,1,447.069,0a7.877,7.877,0,0,1,5.826,2.418,7.974,7.974,0,0,1,2.389,5.816ZM449.9,8.12a3,3,0,0,0-3-2.984,2.842,2.842,0,0,0-2.1.878,2.891,2.891,0,0,0-.869,2.106v18.9a2.891,2.891,0,0,0,.869,2.106,2.842,2.842,0,0,0,2.1.878,3,3,0,0,0,3-2.984Z" fill="#e1e1e1"/>
        <path id="Trazado_160177" data-name="Trazado 160177" d="M463.858,34.881V8.366h-4.381V4.74a7.513,7.513,0,0,0,3.541-1.407,7.05,7.05,0,0,0,2.445-2.9h3.626V34.881Z" fill="#e1e1e1"/>
        <path id="Trazado_160178" data-name="Trazado 160178" d="M490.089,27.1a8.224,8.224,0,1,1-16.449,0V8.233A7.91,7.91,0,0,1,476.058,2.4,7.959,7.959,0,0,1,481.874,0,7.877,7.877,0,0,1,487.7,2.417a7.974,7.974,0,0,1,2.389,5.816ZM484.707,8.12a3,3,0,0,0-3-2.984,2.843,2.843,0,0,0-2.1.878,2.891,2.891,0,0,0-.869,2.106v18.9a2.891,2.891,0,0,0,.869,2.106,2.843,2.843,0,0,0,2.1.878,3,3,0,0,0,3-2.984Z" fill="#e1e1e1"/>
        <path id="Trazado_160179" data-name="Trazado 160179" d="M498.664,34.881V8.366h-4.381V4.74a7.513,7.513,0,0,0,3.541-1.407,7.05,7.05,0,0,0,2.445-2.9h3.626V34.881Z" fill="#e1e1e1"/>
        <path id="Trazado_160180" data-name="Trazado 160180" d="M524.9,27.1a8.225,8.225,0,1,1-16.449,0V8.233A7.91,7.91,0,0,1,510.864,2.4,7.959,7.959,0,0,1,516.68,0a7.877,7.877,0,0,1,5.826,2.418A7.974,7.974,0,0,1,524.9,8.233ZM519.513,8.12a3,3,0,0,0-3-2.984,2.843,2.843,0,0,0-2.1.878,2.891,2.891,0,0,0-.869,2.106v18.9a2.891,2.891,0,0,0,.869,2.106,2.843,2.843,0,0,0,2.1.878,3,3,0,0,0,3-2.984Z" fill="#e1e1e1"/>
        <path id="Trazado_160181" data-name="Trazado 160181" d="M533.469,34.881V8.366h-4.381V4.74a7.513,7.513,0,0,0,3.541-1.407,7.05,7.05,0,0,0,2.445-2.9H538.7V34.881Z" fill="#e1e1e1"/>
        <path id="Trazado_160182" data-name="Trazado 160182" d="M559.7,27.1a8.225,8.225,0,1,1-16.449,0V8.233A7.91,7.91,0,0,1,545.669,2.4,7.959,7.959,0,0,1,551.485,0a7.877,7.877,0,0,1,5.826,2.418A7.974,7.974,0,0,1,559.7,8.233ZM554.318,8.12a3,3,0,0,0-3-2.984,2.843,2.843,0,0,0-2.1.878,2.891,2.891,0,0,0-.869,2.106v18.9a2.891,2.891,0,0,0,.869,2.106,2.843,2.843,0,0,0,2.1.878,3,3,0,0,0,3-2.984Z" fill="#e1e1e1"/>
        <path id="Trazado_160183" data-name="Trazado 160183" d="M568.274,34.881V8.366h-4.381V4.74a7.513,7.513,0,0,0,3.541-1.407,7.051,7.051,0,0,0,2.445-2.9h3.626V34.881Z" fill="#e1e1e1"/>
        <path id="Trazado_160184" data-name="Trazado 160184" d="M594.506,27.1a8.224,8.224,0,1,1-16.449,0V8.233A7.91,7.91,0,0,1,580.475,2.4,7.96,7.96,0,0,1,586.291,0a7.877,7.877,0,0,1,5.826,2.418,7.974,7.974,0,0,1,2.389,5.816ZM589.124,8.12a3,3,0,0,0-3-2.984,2.842,2.842,0,0,0-2.1.878,2.891,2.891,0,0,0-.869,2.106v18.9a2.891,2.891,0,0,0,.869,2.106,2.842,2.842,0,0,0,2.1.878,3,3,0,0,0,3-2.984Z" fill="#e1e1e1"/>
        <path id="Trazado_160185" data-name="Trazado 160185" d="M615.43,27.1a8.224,8.224,0,1,1-16.448,0V8.233A7.909,7.909,0,0,1,601.4,2.4,7.96,7.96,0,0,1,607.216,0a7.879,7.879,0,0,1,5.826,2.418,7.973,7.973,0,0,1,2.388,5.816ZM610.049,8.12a3,3,0,0,0-3-2.984,2.844,2.844,0,0,0-2.1.878,2.89,2.89,0,0,0-.868,2.106v18.9a2.89,2.89,0,0,0,.868,2.106,2.844,2.844,0,0,0,2.1.878,3,3,0,0,0,3-2.984Z" fill="#e1e1e1"/>
        <path id="Trazado_160186" data-name="Trazado 160186" d="M636.355,27.1a8.224,8.224,0,1,1-16.449,0V8.233A7.91,7.91,0,0,1,622.324,2.4,7.96,7.96,0,0,1,628.14,0a7.877,7.877,0,0,1,5.826,2.418,7.974,7.974,0,0,1,2.389,5.816ZM630.973,8.12a3,3,0,0,0-3-2.984,2.842,2.842,0,0,0-2.1.878,2.891,2.891,0,0,0-.869,2.106v18.9a2.891,2.891,0,0,0,.869,2.106,2.842,2.842,0,0,0,2.1.878,3,3,0,0,0,3-2.984Z" fill="#e1e1e1"/>
        <path id="Trazado_160187" data-name="Trazado 160187" d="M657.28,27.1a8.225,8.225,0,1,1-16.449,0V8.233A7.91,7.91,0,0,1,643.249,2.4,7.959,7.959,0,0,1,649.065,0a7.877,7.877,0,0,1,5.826,2.418,7.974,7.974,0,0,1,2.389,5.816ZM651.9,8.12a3,3,0,0,0-3-2.984,2.843,2.843,0,0,0-2.1.878,2.891,2.891,0,0,0-.869,2.106v18.9a2.891,2.891,0,0,0,.869,2.106,2.843,2.843,0,0,0,2.1.878,3,3,0,0,0,3-2.984Z" fill="#e1e1e1"/>
        <path id="Trazado_160188" data-name="Trazado 160188" d="M678.205,27.1a8.225,8.225,0,1,1-16.449,0V8.233A7.91,7.91,0,0,1,664.174,2.4,7.959,7.959,0,0,1,669.99,0a7.877,7.877,0,0,1,5.826,2.418,7.974,7.974,0,0,1,2.389,5.816ZM672.823,8.12a3,3,0,0,0-3-2.984,2.843,2.843,0,0,0-2.1.878,2.891,2.891,0,0,0-.869,2.106v18.9a2.891,2.891,0,0,0,.869,2.106,2.843,2.843,0,0,0,2.1.878,3,3,0,0,0,3-2.984Z" fill="#e1e1e1"/>
        <path id="Trazado_160189" data-name="Trazado 160189" d="M699.13,27.1a8.224,8.224,0,1,1-16.449,0V8.233A7.91,7.91,0,0,1,685.1,2.4,7.959,7.959,0,0,1,690.915,0a7.877,7.877,0,0,1,5.826,2.418,7.974,7.974,0,0,1,2.389,5.816ZM693.748,8.12a3,3,0,0,0-3-2.984,2.843,2.843,0,0,0-2.1.878,2.891,2.891,0,0,0-.869,2.106v18.9a2.891,2.891,0,0,0,.869,2.106,2.843,2.843,0,0,0,2.1.878,3,3,0,0,0,3-2.984Z" fill="#e1e1e1"/>
        <path id="Trazado_160190" data-name="Trazado 160190" d="M720.054,27.1a8.225,8.225,0,1,1-16.449,0V8.233A7.91,7.91,0,0,1,706.023,2.4,7.959,7.959,0,0,1,711.839,0a7.877,7.877,0,0,1,5.826,2.418,7.974,7.974,0,0,1,2.389,5.816ZM714.672,8.12a3,3,0,0,0-3-2.984,2.843,2.843,0,0,0-2.1.878A2.891,2.891,0,0,0,708.7,8.12v18.9a2.891,2.891,0,0,0,.869,2.106,2.843,2.843,0,0,0,2.1.878,3,3,0,0,0,3-2.984Z" fill="#e1e1e1"/>
        <path id="Trazado_160191" data-name="Trazado 160191" d="M728.629,34.881V8.366h-4.381V4.74a7.513,7.513,0,0,0,3.541-1.407,7.05,7.05,0,0,0,2.445-2.9h3.626V34.881Z" fill="#e1e1e1"/>
        <path id="Trazado_160192" data-name="Trazado 160192" d="M742.49,34.881V8.366h-4.381V4.74a7.513,7.513,0,0,0,3.541-1.407,7.05,7.05,0,0,0,2.445-2.9h3.626V34.881Z" fill="#e1e1e1"/>
        <path id="Trazado_160193" data-name="Trazado 160193" d="M756.352,34.881V8.366h-4.381V4.74a7.513,7.513,0,0,0,3.541-1.407,7.05,7.05,0,0,0,2.445-2.9h3.626V34.881Z" fill="#e1e1e1"/>
        <path id="Trazado_160194" data-name="Trazado 160194" d="M770.214,34.881V8.366h-4.381V4.74a7.513,7.513,0,0,0,3.541-1.407,7.05,7.05,0,0,0,2.445-2.9h3.626V34.881Z" fill="#e1e1e1"/>
        <path id="Trazado_160195" data-name="Trazado 160195" d="M784.076,34.881V8.366H779.7V4.74a7.513,7.513,0,0,0,3.541-1.407,7.051,7.051,0,0,0,2.445-2.9h3.626V34.881Z" fill="#e1e1e1"/>
        <path id="Trazado_160196" data-name="Trazado 160196" d="M797.937,34.881V8.366h-4.381V4.74A7.513,7.513,0,0,0,797.1,3.333a7.05,7.05,0,0,0,2.445-2.9h3.626V34.881Z" fill="#e1e1e1"/>
        <path id="Trazado_160197" data-name="Trazado 160197" d="M824.169,27.1a8.225,8.225,0,1,1-16.449,0V8.233A7.91,7.91,0,0,1,810.138,2.4,7.959,7.959,0,0,1,815.954,0a7.877,7.877,0,0,1,5.826,2.418,7.974,7.974,0,0,1,2.389,5.816ZM818.787,8.12a3,3,0,0,0-3-2.984,2.843,2.843,0,0,0-2.1.878,2.891,2.891,0,0,0-.869,2.106v18.9a2.891,2.891,0,0,0,.869,2.106,2.843,2.843,0,0,0,2.1.878,3,3,0,0,0,3-2.984Z" fill="#e1e1e1"/>
        <path id="Trazado_160198" data-name="Trazado 160198" d="M845.093,27.1a8.225,8.225,0,1,1-16.449,0V8.233A7.91,7.91,0,0,1,831.062,2.4,7.959,7.959,0,0,1,836.878,0,7.877,7.877,0,0,1,842.7,2.417a7.974,7.974,0,0,1,2.389,5.816ZM839.711,8.12a3,3,0,0,0-3-2.984,2.843,2.843,0,0,0-2.1.878,2.891,2.891,0,0,0-.869,2.106v18.9a2.891,2.891,0,0,0,.869,2.106,2.843,2.843,0,0,0,2.1.878,3,3,0,0,0,3-2.984Z" fill="#e1e1e1"/>
        <path id="Trazado_160199" data-name="Trazado 160199" d="M853.668,34.881V8.366h-4.381V4.74a7.513,7.513,0,0,0,3.541-1.407,7.05,7.05,0,0,0,2.445-2.9H858.9V34.881Z" fill="#e1e1e1"/>
        <path id="Trazado_160200" data-name="Trazado 160200" d="M879.9,27.1a8.224,8.224,0,1,1-16.449,0V8.233A7.91,7.91,0,0,1,865.868,2.4,7.96,7.96,0,0,1,871.684,0a7.877,7.877,0,0,1,5.826,2.418A7.974,7.974,0,0,1,879.9,8.233ZM874.517,8.12a3,3,0,0,0-3-2.984,2.842,2.842,0,0,0-2.1.878,2.891,2.891,0,0,0-.869,2.106v18.9a2.891,2.891,0,0,0,.869,2.106,2.842,2.842,0,0,0,2.1.878,3,3,0,0,0,3-2.984Z" fill="#e1e1e1"/>
        <path id="Trazado_160201" data-name="Trazado 160201" d="M888.473,34.881V8.366h-4.381V4.74a7.513,7.513,0,0,0,3.541-1.407,7.05,7.05,0,0,0,2.445-2.9H893.7V34.881Z" fill="#e1e1e1"/>
        <path id="Trazado_160202" data-name="Trazado 160202" d="M902.335,34.881V8.366h-4.381V4.74a7.513,7.513,0,0,0,3.541-1.407,7.05,7.05,0,0,0,2.445-2.9h3.626V34.881Z" fill="#e1e1e1"/>
        <path id="Trazado_160203" data-name="Trazado 160203" d="M916.2,34.881V8.366h-4.381V4.74a7.513,7.513,0,0,0,3.541-1.407A7.051,7.051,0,0,0,917.8.434h3.626V34.881Z" fill="#e1e1e1"/>
        <path id="Trazado_160204" data-name="Trazado 160204" d="M930.058,34.881V8.366h-4.381V4.74a7.513,7.513,0,0,0,3.541-1.407,7.051,7.051,0,0,0,2.445-2.9h3.626V34.881Z" fill="#e1e1e1"/>
        <path id="Trazado_160205" data-name="Trazado 160205" d="M956.289,27.1a8.224,8.224,0,1,1-16.449,0V8.233A7.91,7.91,0,0,1,942.258,2.4,7.959,7.959,0,0,1,948.074,0,7.877,7.877,0,0,1,953.9,2.417a7.974,7.974,0,0,1,2.389,5.816ZM950.907,8.12a3,3,0,0,0-3-2.984,2.843,2.843,0,0,0-2.1.878,2.891,2.891,0,0,0-.869,2.106v18.9a2.891,2.891,0,0,0,.869,2.106,2.843,2.843,0,0,0,2.1.878,3,3,0,0,0,3-2.984Z" fill="#e1e1e1"/>
        <path id="Trazado_160206" data-name="Trazado 160206" d="M964.864,34.881V8.366h-4.381V4.74a7.513,7.513,0,0,0,3.541-1.407,7.05,7.05,0,0,0,2.445-2.9h3.626V34.881Z" fill="#e1e1e1"/>
        <path id="Trazado_160207" data-name="Trazado 160207" d="M991.095,27.1a8.224,8.224,0,1,1-16.449,0V8.233A7.91,7.91,0,0,1,977.064,2.4,7.959,7.959,0,0,1,982.88,0a7.877,7.877,0,0,1,5.826,2.418,7.974,7.974,0,0,1,2.389,5.816ZM985.713,8.12a3,3,0,0,0-3-2.984,2.843,2.843,0,0,0-2.1.878,2.891,2.891,0,0,0-.869,2.106v18.9a2.891,2.891,0,0,0,.869,2.106,2.843,2.843,0,0,0,2.1.878,3,3,0,0,0,3-2.984Z" fill="#e1e1e1"/>
        <path id="Trazado_160208" data-name="Trazado 160208" d="M999.669,34.881V8.366h-4.381V4.74a7.512,7.512,0,0,0,3.541-1.407,7.05,7.05,0,0,0,2.445-2.9h3.626V34.881Z" fill="#e1e1e1"/>
        <path id="Trazado_160209" data-name="Trazado 160209" d="M85.221,146.459a8.224,8.224,0,1,1-16.449,0V127.592a8.225,8.225,0,1,1,16.449,0Zm-5.382-18.98a3,3,0,0,0-3-2.984,2.843,2.843,0,0,0-2.1.878,2.891,2.891,0,0,0-.869,2.106v18.9a2.891,2.891,0,0,0,.869,2.106,2.843,2.843,0,0,0,2.1.878,3,3,0,0,0,3-2.984Z" fill="#e1e1e1"/>
        <path id="Trazado_160210" data-name="Trazado 160210" d="M93.795,154.24V127.725H89.414V124.1a7.513,7.513,0,0,0,3.541-1.407,7.05,7.05,0,0,0,2.445-2.9h3.626V154.24Z" fill="#e1e1e1"/>
        <path id="Trazado_160211" data-name="Trazado 160211" d="M120.026,146.459a8.224,8.224,0,1,1-16.449,0V127.592a8.225,8.225,0,1,1,16.449,0Zm-5.382-18.98a3,3,0,0,0-3-2.984,2.843,2.843,0,0,0-2.1.878,2.891,2.891,0,0,0-.869,2.106v18.9a2.891,2.891,0,0,0,.869,2.106,2.843,2.843,0,0,0,2.1.878,3,3,0,0,0,3-2.984Z" fill="#e1e1e1"/>
        <path id="Trazado_160212" data-name="Trazado 160212" d="M128.6,154.24V127.725h-4.381V124.1a7.513,7.513,0,0,0,3.541-1.407,7.05,7.05,0,0,0,2.445-2.9h3.626V154.24Z" fill="#e1e1e1"/>
        <path id="Trazado_160213" data-name="Trazado 160213" d="M154.832,146.459a8.225,8.225,0,1,1-16.449,0V127.592a8.225,8.225,0,1,1,16.449,0Zm-5.382-18.98a3,3,0,0,0-3-2.984,2.843,2.843,0,0,0-2.1.878,2.891,2.891,0,0,0-.869,2.106v18.9a2.891,2.891,0,0,0,.869,2.106,2.843,2.843,0,0,0,2.1.878,3,3,0,0,0,3-2.984Z" fill="#e1e1e1"/>
        <path id="Trazado_160214" data-name="Trazado 160214" d="M163.406,154.24V127.725h-4.381V124.1a7.513,7.513,0,0,0,3.541-1.407,7.05,7.05,0,0,0,2.445-2.9h3.626V154.24Z" fill="#e1e1e1"/>
        <path id="Trazado_160215" data-name="Trazado 160215" d="M189.637,146.459a8.224,8.224,0,1,1-16.449,0V127.592a8.225,8.225,0,1,1,16.449,0Zm-5.382-18.98a3,3,0,0,0-3-2.984,2.843,2.843,0,0,0-2.1.878,2.891,2.891,0,0,0-.869,2.106v18.9a2.891,2.891,0,0,0,.869,2.106,2.842,2.842,0,0,0,2.1.878,3,3,0,0,0,3-2.984Z" fill="#e1e1e1"/>
        <path id="Trazado_160216" data-name="Trazado 160216" d="M210.562,146.459a8.224,8.224,0,1,1-16.449,0V127.592a8.225,8.225,0,1,1,16.449,0Zm-5.382-18.98a3,3,0,0,0-3-2.984,2.843,2.843,0,0,0-2.1.878,2.891,2.891,0,0,0-.869,2.106v18.9a2.891,2.891,0,0,0,.869,2.106,2.843,2.843,0,0,0,2.1.878,3,3,0,0,0,3-2.984Z" fill="#e1e1e1"/>
        <path id="Trazado_160217" data-name="Trazado 160217" d="M231.487,146.459a8.225,8.225,0,1,1-16.449,0V127.592a8.225,8.225,0,1,1,16.449,0Zm-5.382-18.98a3,3,0,0,0-3-2.984,2.843,2.843,0,0,0-2.1.878,2.891,2.891,0,0,0-.869,2.106v18.9a2.891,2.891,0,0,0,.869,2.106,2.843,2.843,0,0,0,2.1.878,3,3,0,0,0,3-2.984Z" fill="#e1e1e1"/>
        <path id="Trazado_160218" data-name="Trazado 160218" d="M240.061,154.24V127.725H235.68V124.1a7.513,7.513,0,0,0,3.541-1.407,7.05,7.05,0,0,0,2.445-2.9h3.626V154.24Z" fill="#e1e1e1"/>
        <path id="Trazado_160219" data-name="Trazado 160219" d="M266.292,146.459a8.224,8.224,0,1,1-16.449,0V127.592a8.225,8.225,0,1,1,16.449,0Zm-5.382-18.98a3,3,0,0,0-3-2.984,2.843,2.843,0,0,0-2.1.878,2.891,2.891,0,0,0-.869,2.106v18.9a2.891,2.891,0,0,0,.869,2.106,2.843,2.843,0,0,0,2.1.878,3,3,0,0,0,3-2.984Z" fill="#e1e1e1"/>
        <path id="Trazado_160220" data-name="Trazado 160220" d="M274.866,154.24V127.725h-4.381V124.1a7.513,7.513,0,0,0,3.541-1.407,7.05,7.05,0,0,0,2.445-2.9H280.1V154.24Z" fill="#e1e1e1"/>
        <path id="Trazado_160221" data-name="Trazado 160221" d="M301.1,146.459a8.225,8.225,0,1,1-16.45,0V127.592a8.225,8.225,0,1,1,16.45,0Zm-5.382-18.98a3,3,0,0,0-3-2.984,2.844,2.844,0,0,0-2.1.878,2.9,2.9,0,0,0-.869,2.106v18.9a2.9,2.9,0,0,0,.869,2.106,2.844,2.844,0,0,0,2.1.878,3,3,0,0,0,3-2.984Z" fill="#e1e1e1"/>
        <path id="Trazado_160222" data-name="Trazado 160222" d="M309.672,154.24V127.725h-4.381V124.1a7.513,7.513,0,0,0,3.541-1.407,7.05,7.05,0,0,0,2.445-2.9H314.9V154.24Z" fill="#e1e1e1"/>
        <path id="Trazado_160223" data-name="Trazado 160223" d="M335.9,146.459a8.225,8.225,0,1,1-16.449,0V127.592a8.225,8.225,0,1,1,16.449,0Zm-5.382-18.98a3,3,0,0,0-3-2.984,2.843,2.843,0,0,0-2.1.878,2.891,2.891,0,0,0-.869,2.106v18.9a2.891,2.891,0,0,0,.869,2.106,2.843,2.843,0,0,0,2.1.878,3,3,0,0,0,3-2.984Z" fill="#e1e1e1"/>
        <path id="Trazado_160224" data-name="Trazado 160224" d="M344.477,154.24V127.725H340.1V124.1a7.512,7.512,0,0,0,3.541-1.407,7.05,7.05,0,0,0,2.445-2.9h3.626V154.24Z" fill="#e1e1e1"/>
        <path id="Trazado_160225" data-name="Trazado 160225" d="M370.708,146.459a8.225,8.225,0,1,1-16.449,0V127.592a8.225,8.225,0,1,1,16.449,0Zm-5.382-18.98a3,3,0,0,0-3-2.984,2.843,2.843,0,0,0-2.1.878,2.891,2.891,0,0,0-.869,2.106v18.9a2.891,2.891,0,0,0,.869,2.106,2.843,2.843,0,0,0,2.1.878,3,3,0,0,0,3-2.984Z" fill="#e1e1e1"/>
        <path id="Trazado_160226" data-name="Trazado 160226" d="M391.633,146.459a8.225,8.225,0,1,1-16.449,0V127.592a8.225,8.225,0,1,1,16.449,0Zm-5.382-18.98a3,3,0,0,0-3-2.984,2.842,2.842,0,0,0-2.1.878,2.891,2.891,0,0,0-.869,2.106v18.9a2.891,2.891,0,0,0,.869,2.106,2.842,2.842,0,0,0,2.1.878,3,3,0,0,0,3-2.984Z" fill="#e1e1e1"/>
        <path id="Trazado_160227" data-name="Trazado 160227" d="M412.558,146.459a8.225,8.225,0,1,1-16.449,0V127.592a8.225,8.225,0,1,1,16.449,0Zm-5.382-18.98a3,3,0,0,0-3-2.984,2.843,2.843,0,0,0-2.1.878,2.891,2.891,0,0,0-.869,2.106v18.9a2.891,2.891,0,0,0,.869,2.106,2.843,2.843,0,0,0,2.1.878,3,3,0,0,0,3-2.984Z" fill="#e1e1e1"/>
        <path id="Trazado_160228" data-name="Trazado 160228" d="M433.483,146.459a8.225,8.225,0,1,1-16.449,0V127.592a8.225,8.225,0,1,1,16.449,0Zm-5.382-18.98a3,3,0,0,0-3-2.984,2.842,2.842,0,0,0-2.1.878,2.891,2.891,0,0,0-.869,2.106v18.9a2.891,2.891,0,0,0,.869,2.106,2.842,2.842,0,0,0,2.1.878,3,3,0,0,0,3-2.984Z" fill="#e1e1e1"/>
        <path id="Trazado_160229" data-name="Trazado 160229" d="M454.408,146.459a8.225,8.225,0,1,1-16.45,0V127.592a8.225,8.225,0,1,1,16.45,0Zm-5.382-18.98a3,3,0,0,0-3-2.984,2.843,2.843,0,0,0-2.1.878,2.9,2.9,0,0,0-.869,2.106v18.9a2.9,2.9,0,0,0,.869,2.106,2.843,2.843,0,0,0,2.1.878,3,3,0,0,0,3-2.984Z" fill="#e1e1e1"/>
        <path id="Trazado_160230" data-name="Trazado 160230" d="M475.332,146.459a8.225,8.225,0,1,1-16.449,0V127.592a8.225,8.225,0,1,1,16.449,0Zm-5.382-18.98a3,3,0,0,0-3-2.984,2.842,2.842,0,0,0-2.1.878,2.891,2.891,0,0,0-.869,2.106v18.9a2.891,2.891,0,0,0,.869,2.106,2.842,2.842,0,0,0,2.1.878,3,3,0,0,0,3-2.984Z" fill="#e1e1e1"/>
        <path id="Trazado_160231" data-name="Trazado 160231" d="M496.257,146.459a8.224,8.224,0,1,1-16.449,0V127.592a8.225,8.225,0,1,1,16.449,0Zm-5.382-18.98a3,3,0,0,0-3-2.984,2.843,2.843,0,0,0-2.1.878,2.891,2.891,0,0,0-.869,2.106v18.9a2.891,2.891,0,0,0,.869,2.106,2.843,2.843,0,0,0,2.1.878,3,3,0,0,0,3-2.984Z" fill="#e1e1e1"/>
        <path id="Trazado_160232" data-name="Trazado 160232" d="M504.831,154.24V127.725H500.45V124.1a7.512,7.512,0,0,0,3.541-1.407,7.05,7.05,0,0,0,2.445-2.9h3.626V154.24Z" fill="#e1e1e1"/>
        <path id="Trazado_160233" data-name="Trazado 160233" d="M518.693,154.24V127.725h-4.381V124.1a7.513,7.513,0,0,0,3.541-1.407,7.05,7.05,0,0,0,2.445-2.9h3.626V154.24Z" fill="#e1e1e1"/>
        <path id="Trazado_160234" data-name="Trazado 160234" d="M532.555,154.24V127.725h-4.381V124.1a7.513,7.513,0,0,0,3.541-1.407,7.05,7.05,0,0,0,2.445-2.9h3.626V154.24Z" fill="#e1e1e1"/>
        <path id="Trazado_160235" data-name="Trazado 160235" d="M546.416,154.24V127.725h-4.381V124.1a7.513,7.513,0,0,0,3.541-1.407,7.05,7.05,0,0,0,2.445-2.9h3.626V154.24Z" fill="#e1e1e1"/>
        <path id="Trazado_160236" data-name="Trazado 160236" d="M560.278,154.24V127.725H555.9V124.1a7.513,7.513,0,0,0,3.541-1.407,7.05,7.05,0,0,0,2.445-2.9h3.626V154.24Z" fill="#e1e1e1"/>
        <path id="Trazado_160237" data-name="Trazado 160237" d="M574.14,154.24V127.725h-4.381V124.1a7.513,7.513,0,0,0,3.541-1.407,7.05,7.05,0,0,0,2.445-2.9h3.626V154.24Z" fill="#e1e1e1"/>
        <path id="Trazado_160238" data-name="Trazado 160238" d="M600.371,146.459a8.224,8.224,0,1,1-16.449,0V127.592a8.225,8.225,0,1,1,16.449,0Zm-5.382-18.98a3,3,0,0,0-3-2.984,2.843,2.843,0,0,0-2.1.878,2.891,2.891,0,0,0-.869,2.106v18.9a2.891,2.891,0,0,0,.869,2.106,2.843,2.843,0,0,0,2.1.878,3,3,0,0,0,3-2.984Z" fill="#e1e1e1"/>
        <path id="Trazado_160239" data-name="Trazado 160239" d="M621.3,146.459a8.225,8.225,0,1,1-16.449,0V127.592a8.225,8.225,0,1,1,16.449,0Zm-5.382-18.98a3,3,0,0,0-3-2.984,2.843,2.843,0,0,0-2.1.878,2.891,2.891,0,0,0-.869,2.106v18.9a2.891,2.891,0,0,0,.869,2.106,2.843,2.843,0,0,0,2.1.878,3,3,0,0,0,3-2.984Z" fill="#e1e1e1"/>
        <path id="Trazado_160240" data-name="Trazado 160240" d="M629.87,154.24V127.725h-4.381V124.1a7.513,7.513,0,0,0,3.541-1.407,7.05,7.05,0,0,0,2.445-2.9H635.1V154.24Z" fill="#e1e1e1"/>
        <path id="Trazado_160241" data-name="Trazado 160241" d="M656.1,146.459a8.225,8.225,0,1,1-16.449,0V127.592a8.225,8.225,0,1,1,16.449,0Zm-5.382-18.98a3,3,0,0,0-3-2.984,2.843,2.843,0,0,0-2.1.878,2.891,2.891,0,0,0-.869,2.106v18.9a2.891,2.891,0,0,0,.869,2.106,2.843,2.843,0,0,0,2.1.878,3,3,0,0,0,3-2.984Z" fill="#e1e1e1"/>
        <path id="Trazado_160242" data-name="Trazado 160242" d="M664.675,154.24V127.725h-4.381V124.1a7.513,7.513,0,0,0,3.541-1.407,7.051,7.051,0,0,0,2.445-2.9h3.626V154.24Z" fill="#e1e1e1"/>
        <path id="Trazado_160243" data-name="Trazado 160243" d="M678.537,154.24V127.725h-4.381V124.1a7.513,7.513,0,0,0,3.541-1.407,7.051,7.051,0,0,0,2.445-2.9h3.626V154.24Z" fill="#e1e1e1"/>
        <path id="Trazado_160244" data-name="Trazado 160244" d="M692.4,154.24V127.725h-4.381V124.1a7.513,7.513,0,0,0,3.541-1.407,7.051,7.051,0,0,0,2.445-2.9h3.626V154.24Z" fill="#e1e1e1"/>
        <path id="Trazado_160245" data-name="Trazado 160245" d="M706.261,154.24V127.725H701.88V124.1a7.513,7.513,0,0,0,3.541-1.407,7.051,7.051,0,0,0,2.445-2.9h3.626V154.24Z" fill="#e1e1e1"/>
        <path id="Trazado_160246" data-name="Trazado 160246" d="M732.492,146.459a8.224,8.224,0,1,1-16.449,0V127.592a8.225,8.225,0,1,1,16.449,0Zm-5.382-18.98a3,3,0,0,0-3-2.984,2.843,2.843,0,0,0-2.1.878,2.891,2.891,0,0,0-.869,2.106v18.9a2.891,2.891,0,0,0,.869,2.106,2.843,2.843,0,0,0,2.1.878,3,3,0,0,0,3-2.984Z" fill="#e1e1e1"/>
        <path id="Trazado_160247" data-name="Trazado 160247" d="M741.066,154.24V127.725h-4.381V124.1a7.513,7.513,0,0,0,3.541-1.407,7.05,7.05,0,0,0,2.445-2.9H746.3V154.24Z" fill="#e1e1e1"/>
        <path id="Trazado_160248" data-name="Trazado 160248" d="M767.3,146.459a8.224,8.224,0,1,1-16.448,0V127.592a8.224,8.224,0,1,1,16.448,0Zm-5.381-18.98a3,3,0,0,0-3-2.984,2.844,2.844,0,0,0-2.1.878,2.89,2.89,0,0,0-.868,2.106v18.9a2.89,2.89,0,0,0,.868,2.106,2.844,2.844,0,0,0,2.1.878,3,3,0,0,0,3-2.984Z" fill="#e1e1e1"/>
        <path id="Trazado_160249" data-name="Trazado 160249" d="M775.872,154.24V127.725h-4.381V124.1a7.512,7.512,0,0,0,3.541-1.407,7.05,7.05,0,0,0,2.445-2.9H781.1V154.24Z" fill="#e1e1e1"/>
        <path id="Trazado_160250" data-name="Trazado 160250" d="M85.221,206.3a8.224,8.224,0,1,1-16.449,0V187.433a8.225,8.225,0,1,1,16.449,0Zm-5.382-18.98a3,3,0,0,0-3-2.984,2.843,2.843,0,0,0-2.1.878,2.891,2.891,0,0,0-.869,2.106v18.9a2.891,2.891,0,0,0,.869,2.106,2.843,2.843,0,0,0,2.1.878,3,3,0,0,0,3-2.984Z" fill="#e1e1e1"/>
        <path id="Trazado_160251" data-name="Trazado 160251" d="M93.795,214.081V187.566H89.414V183.94a7.513,7.513,0,0,0,3.541-1.407,7.05,7.05,0,0,0,2.445-2.9h3.626v34.447Z" fill="#e1e1e1"/>
        <path id="Trazado_160252" data-name="Trazado 160252" d="M120.026,206.3a8.224,8.224,0,1,1-16.449,0V187.433a8.225,8.225,0,1,1,16.449,0Zm-5.382-18.98a3,3,0,0,0-3-2.984,2.843,2.843,0,0,0-2.1.878,2.891,2.891,0,0,0-.869,2.106v18.9a2.891,2.891,0,0,0,.869,2.106,2.843,2.843,0,0,0,2.1.878,3,3,0,0,0,3-2.984Z" fill="#e1e1e1"/>
        <path id="Trazado_160253" data-name="Trazado 160253" d="M128.6,214.081V187.566h-4.381V183.94a7.513,7.513,0,0,0,3.541-1.407,7.05,7.05,0,0,0,2.445-2.9h3.626v34.447Z" fill="#e1e1e1"/>
        <path id="Trazado_160254" data-name="Trazado 160254" d="M154.832,206.3a8.225,8.225,0,1,1-16.449,0V187.433a8.225,8.225,0,1,1,16.449,0Zm-5.382-18.98a3,3,0,0,0-3-2.984,2.843,2.843,0,0,0-2.1.878,2.891,2.891,0,0,0-.869,2.106v18.9a2.891,2.891,0,0,0,.869,2.106,2.843,2.843,0,0,0,2.1.878,3,3,0,0,0,3-2.984Z" fill="#e1e1e1"/>
        <path id="Trazado_160255" data-name="Trazado 160255" d="M163.406,214.081V187.566h-4.381V183.94a7.513,7.513,0,0,0,3.541-1.407,7.05,7.05,0,0,0,2.445-2.9h3.626v34.447Z" fill="#e1e1e1"/>
        <path id="Trazado_160256" data-name="Trazado 160256" d="M189.637,206.3a8.224,8.224,0,1,1-16.449,0V187.433a8.225,8.225,0,1,1,16.449,0Zm-5.382-18.98a3,3,0,0,0-3-2.984,2.842,2.842,0,0,0-2.1.878,2.891,2.891,0,0,0-.869,2.106v18.9a2.891,2.891,0,0,0,.869,2.106,2.843,2.843,0,0,0,2.1.878,3,3,0,0,0,3-2.984Z" fill="#e1e1e1"/>
        <path id="Trazado_160257" data-name="Trazado 160257" d="M210.562,206.3a8.224,8.224,0,1,1-16.449,0V187.433a8.225,8.225,0,1,1,16.449,0Zm-5.382-18.98a3,3,0,0,0-3-2.984,2.843,2.843,0,0,0-2.1.878,2.891,2.891,0,0,0-.869,2.106v18.9a2.891,2.891,0,0,0,.869,2.106,2.843,2.843,0,0,0,2.1.878,3,3,0,0,0,3-2.984Z" fill="#e1e1e1"/>
        <path id="Trazado_160258" data-name="Trazado 160258" d="M231.487,206.3a8.225,8.225,0,1,1-16.449,0V187.433a8.225,8.225,0,1,1,16.449,0ZM226.1,187.32a3,3,0,0,0-3-2.984,2.843,2.843,0,0,0-2.1.878,2.891,2.891,0,0,0-.869,2.106v18.9a2.891,2.891,0,0,0,.869,2.106,2.843,2.843,0,0,0,2.1.878,3,3,0,0,0,3-2.984Z" fill="#e1e1e1"/>
        <path id="Trazado_160259" data-name="Trazado 160259" d="M240.061,214.081V187.566H235.68V183.94a7.513,7.513,0,0,0,3.541-1.407,7.05,7.05,0,0,0,2.445-2.9h3.626v34.447Z" fill="#e1e1e1"/>
        <path id="Trazado_160260" data-name="Trazado 160260" d="M266.292,206.3a8.224,8.224,0,1,1-16.449,0V187.433a8.225,8.225,0,1,1,16.449,0Zm-5.382-18.98a3,3,0,0,0-3-2.984,2.843,2.843,0,0,0-2.1.878,2.891,2.891,0,0,0-.869,2.106v18.9a2.891,2.891,0,0,0,.869,2.106,2.843,2.843,0,0,0,2.1.878,3,3,0,0,0,3-2.984Z" fill="#e1e1e1"/>
        <path id="Trazado_160261" data-name="Trazado 160261" d="M274.866,214.081V187.566h-4.381V183.94a7.513,7.513,0,0,0,3.541-1.407,7.05,7.05,0,0,0,2.445-2.9H280.1v34.447Z" fill="#e1e1e1"/>
        <path id="Trazado_160262" data-name="Trazado 160262" d="M301.1,206.3a8.225,8.225,0,1,1-16.45,0V187.433a8.225,8.225,0,1,1,16.45,0Zm-5.382-18.98a3,3,0,0,0-3-2.984,2.844,2.844,0,0,0-2.1.878,2.9,2.9,0,0,0-.869,2.106v18.9a2.9,2.9,0,0,0,.869,2.106,2.844,2.844,0,0,0,2.1.878,3,3,0,0,0,3-2.984Z" fill="#e1e1e1"/>
        <path id="Trazado_160263" data-name="Trazado 160263" d="M309.672,214.081V187.566h-4.381V183.94a7.513,7.513,0,0,0,3.541-1.407,7.05,7.05,0,0,0,2.445-2.9H314.9v34.447Z" fill="#e1e1e1"/>
        <path id="Trazado_160264" data-name="Trazado 160264" d="M335.9,206.3a8.225,8.225,0,1,1-16.449,0V187.433a8.225,8.225,0,1,1,16.449,0Zm-5.382-18.98a3,3,0,0,0-3-2.984,2.843,2.843,0,0,0-2.1.878,2.891,2.891,0,0,0-.869,2.106v18.9a2.891,2.891,0,0,0,.869,2.106,2.843,2.843,0,0,0,2.1.878,3,3,0,0,0,3-2.984Z" fill="#e1e1e1"/>
        <path id="Trazado_160265" data-name="Trazado 160265" d="M344.477,214.081V187.566H340.1V183.94a7.513,7.513,0,0,0,3.541-1.407,7.05,7.05,0,0,0,2.445-2.9h3.626v34.447Z" fill="#e1e1e1"/>
        <path id="Trazado_160266" data-name="Trazado 160266" d="M370.708,206.3a8.225,8.225,0,1,1-16.449,0V187.433a8.225,8.225,0,1,1,16.449,0Zm-5.382-18.98a3,3,0,0,0-3-2.984,2.843,2.843,0,0,0-2.1.878,2.891,2.891,0,0,0-.869,2.106v18.9a2.891,2.891,0,0,0,.869,2.106,2.843,2.843,0,0,0,2.1.878,3,3,0,0,0,3-2.984Z" fill="#e1e1e1"/>
        <path id="Trazado_160267" data-name="Trazado 160267" d="M379.282,214.081V187.566H374.9V183.94a7.513,7.513,0,0,0,3.541-1.407,7.05,7.05,0,0,0,2.445-2.9h3.626v34.447Z" fill="#e1e1e1"/>
        <path id="Trazado_160268" data-name="Trazado 160268" d="M405.514,206.3a8.225,8.225,0,1,1-16.449,0V187.433a8.225,8.225,0,1,1,16.449,0Zm-5.382-18.98a3,3,0,0,0-3-2.984,2.843,2.843,0,0,0-2.1.878,2.891,2.891,0,0,0-.869,2.106v18.9a2.891,2.891,0,0,0,.869,2.106,2.843,2.843,0,0,0,2.1.878,3,3,0,0,0,3-2.984Z" fill="#e1e1e1"/>
        <path id="Trazado_160269" data-name="Trazado 160269" d="M414.088,214.081V187.566h-4.381V183.94a7.513,7.513,0,0,0,3.541-1.407,7.05,7.05,0,0,0,2.445-2.9h3.626v34.447Z" fill="#e1e1e1"/>
        <path id="Trazado_160270" data-name="Trazado 160270" d="M440.319,206.3a8.225,8.225,0,1,1-16.449,0V187.433a8.225,8.225,0,1,1,16.449,0Zm-5.382-18.98a3,3,0,0,0-3-2.984,2.842,2.842,0,0,0-2.1.878,2.891,2.891,0,0,0-.869,2.106v18.9a2.891,2.891,0,0,0,.869,2.106,2.842,2.842,0,0,0,2.1.878,3,3,0,0,0,3-2.984Z" fill="#e1e1e1"/>
        <path id="Trazado_160271" data-name="Trazado 160271" d="M448.893,214.081V187.566h-4.381V183.94a7.513,7.513,0,0,0,3.541-1.407,7.05,7.05,0,0,0,2.445-2.9h3.626v34.447Z" fill="#e1e1e1"/>
        <path id="Trazado_160272" data-name="Trazado 160272" d="M475.125,206.3a8.225,8.225,0,1,1-16.449,0V187.433a8.225,8.225,0,1,1,16.449,0Zm-5.382-18.98a3,3,0,0,0-3-2.984,2.842,2.842,0,0,0-2.1.878,2.891,2.891,0,0,0-.869,2.106v18.9a2.891,2.891,0,0,0,.869,2.106,2.842,2.842,0,0,0,2.1.878,3,3,0,0,0,3-2.984Z" fill="#e1e1e1"/>
        <path id="Trazado_160273" data-name="Trazado 160273" d="M483.7,214.081V187.566h-4.381V183.94a7.513,7.513,0,0,0,3.541-1.407,7.05,7.05,0,0,0,2.445-2.9h3.626v34.447Z" fill="#e1e1e1"/>
        <path id="Trazado_160274" data-name="Trazado 160274" d="M509.93,206.3a8.225,8.225,0,1,1-16.449,0V187.433a8.225,8.225,0,1,1,16.449,0Zm-5.382-18.98a3,3,0,0,0-3-2.984,2.843,2.843,0,0,0-2.1.878,2.891,2.891,0,0,0-.869,2.106v18.9a2.891,2.891,0,0,0,.869,2.106,2.843,2.843,0,0,0,2.1.878,3,3,0,0,0,3-2.984Z" fill="#e1e1e1"/>
        <path id="Trazado_160275" data-name="Trazado 160275" d="M518.5,214.081V187.566h-4.381V183.94a7.513,7.513,0,0,0,3.541-1.407,7.05,7.05,0,0,0,2.445-2.9h3.626v34.447Z" fill="#e1e1e1"/>
        <path id="Trazado_160276" data-name="Trazado 160276" d="M544.735,206.3a8.224,8.224,0,1,1-16.449,0V187.433a8.225,8.225,0,1,1,16.449,0Zm-5.382-18.98a3,3,0,0,0-3-2.984,2.842,2.842,0,0,0-2.1.878,2.891,2.891,0,0,0-.869,2.106v18.9a2.891,2.891,0,0,0,.869,2.106,2.842,2.842,0,0,0,2.1.878,3,3,0,0,0,3-2.984Z" fill="#e1e1e1"/>
        <path id="Trazado_160277" data-name="Trazado 160277" d="M565.66,206.3a8.224,8.224,0,1,1-16.449,0V187.433a8.225,8.225,0,1,1,16.449,0Zm-5.382-18.98a3,3,0,0,0-3-2.984,2.842,2.842,0,0,0-2.1.878,2.891,2.891,0,0,0-.869,2.106v18.9a2.891,2.891,0,0,0,.869,2.106,2.842,2.842,0,0,0,2.1.878,3,3,0,0,0,3-2.984Z" fill="#e1e1e1"/>
        <path id="Trazado_160278" data-name="Trazado 160278" d="M586.585,206.3a8.225,8.225,0,1,1-16.449,0V187.433a8.225,8.225,0,1,1,16.449,0ZM581.2,187.32a3,3,0,0,0-3-2.984,2.843,2.843,0,0,0-2.1.878,2.891,2.891,0,0,0-.869,2.106v18.9a2.891,2.891,0,0,0,.869,2.106,2.843,2.843,0,0,0,2.1.878,3,3,0,0,0,3-2.984Z" fill="#e1e1e1"/>
        <path id="Trazado_160279" data-name="Trazado 160279" d="M607.51,206.3a8.225,8.225,0,1,1-16.449,0V187.433a8.225,8.225,0,1,1,16.449,0Zm-5.382-18.98a3,3,0,0,0-3-2.984,2.843,2.843,0,0,0-2.1.878,2.891,2.891,0,0,0-.869,2.106v18.9a2.891,2.891,0,0,0,.869,2.106,2.843,2.843,0,0,0,2.1.878,3,3,0,0,0,3-2.984Z" fill="#e1e1e1"/>
        <path id="Trazado_160280" data-name="Trazado 160280" d="M628.435,206.3a8.224,8.224,0,1,1-16.449,0V187.433a8.225,8.225,0,1,1,16.449,0Zm-5.382-18.98a3,3,0,0,0-3-2.984,2.843,2.843,0,0,0-2.1.878,2.891,2.891,0,0,0-.869,2.106v18.9a2.891,2.891,0,0,0,.869,2.106,2.843,2.843,0,0,0,2.1.878,3,3,0,0,0,3-2.984Z" fill="#e1e1e1"/>
        <path id="Trazado_160281" data-name="Trazado 160281" d="M649.359,206.3a8.225,8.225,0,1,1-16.449,0V187.433a8.225,8.225,0,1,1,16.449,0Zm-5.382-18.98a3,3,0,0,0-3-2.984,2.843,2.843,0,0,0-2.1.878,2.891,2.891,0,0,0-.869,2.106v18.9a2.891,2.891,0,0,0,.869,2.106,2.843,2.843,0,0,0,2.1.878,3,3,0,0,0,3-2.984Z" fill="#e1e1e1"/>
        <path id="Trazado_160282" data-name="Trazado 160282" d="M670.284,206.3a8.224,8.224,0,1,1-16.449,0V187.433a8.225,8.225,0,1,1,16.449,0ZM664.9,187.32a3,3,0,0,0-3-2.984,2.843,2.843,0,0,0-2.1.878,2.891,2.891,0,0,0-.869,2.106v18.9a2.891,2.891,0,0,0,.869,2.106,2.843,2.843,0,0,0,2.1.878,3,3,0,0,0,3-2.984Z" fill="#e1e1e1"/>
        <path id="Trazado_160283" data-name="Trazado 160283" d="M678.858,214.081V187.566h-4.381V183.94a7.513,7.513,0,0,0,3.541-1.407,7.05,7.05,0,0,0,2.445-2.9h3.626v34.447Z" fill="#e1e1e1"/>
        <path id="Trazado_160284" data-name="Trazado 160284" d="M692.72,214.081V187.566h-4.381V183.94a7.513,7.513,0,0,0,3.541-1.407,7.05,7.05,0,0,0,2.445-2.9h3.626v34.447Z" fill="#e1e1e1"/>
        <path id="Trazado_160285" data-name="Trazado 160285" d="M706.582,214.081V187.566H702.2V183.94a7.513,7.513,0,0,0,3.541-1.407,7.05,7.05,0,0,0,2.445-2.9h3.626v34.447Z" fill="#e1e1e1"/>
        <path id="Trazado_160286" data-name="Trazado 160286" d="M720.443,214.081V187.566h-4.381V183.94a7.513,7.513,0,0,0,3.541-1.407,7.05,7.05,0,0,0,2.445-2.9h3.626v34.447Z" fill="#e1e1e1"/>
        <path id="Trazado_160287" data-name="Trazado 160287" d="M734.3,214.081V187.566h-4.381V183.94a7.513,7.513,0,0,0,3.541-1.407,7.05,7.05,0,0,0,2.445-2.9h3.626v34.447Z" fill="#e1e1e1"/>
        <path id="Trazado_160288" data-name="Trazado 160288" d="M748.167,214.081V187.566h-4.381V183.94a7.513,7.513,0,0,0,3.541-1.407,7.05,7.05,0,0,0,2.445-2.9H753.4v34.447Z" fill="#e1e1e1"/>
        <path id="Trazado_160289" data-name="Trazado 160289" d="M774.4,206.3a8.225,8.225,0,1,1-16.449,0V187.433a8.225,8.225,0,1,1,16.449,0Zm-5.382-18.98a3,3,0,0,0-3-2.984,2.843,2.843,0,0,0-2.1.878,2.891,2.891,0,0,0-.869,2.106v18.9a2.891,2.891,0,0,0,.869,2.106,2.843,2.843,0,0,0,2.1.878,3,3,0,0,0,3-2.984Z" fill="#e1e1e1"/>
        <path id="Trazado_160290" data-name="Trazado 160290" d="M795.323,206.3a8.224,8.224,0,1,1-16.449,0V187.433a8.225,8.225,0,1,1,16.449,0Zm-5.382-18.98a3,3,0,0,0-3-2.984,2.843,2.843,0,0,0-2.1.878,2.891,2.891,0,0,0-.869,2.106v18.9a2.891,2.891,0,0,0,.869,2.106,2.843,2.843,0,0,0,2.1.878,3,3,0,0,0,3-2.984Z" fill="#e1e1e1"/>
        <path id="Trazado_160291" data-name="Trazado 160291" d="M803.9,214.081V187.566h-4.381V183.94a7.513,7.513,0,0,0,3.541-1.407,7.05,7.05,0,0,0,2.445-2.9h3.626v34.447Z" fill="#e1e1e1"/>
        <path id="Trazado_160292" data-name="Trazado 160292" d="M830.128,206.3a8.224,8.224,0,1,1-16.448,0V187.433a8.224,8.224,0,1,1,16.448,0Zm-5.381-18.98a3,3,0,0,0-3-2.984,2.844,2.844,0,0,0-2.1.878,2.89,2.89,0,0,0-.868,2.106v18.9a2.89,2.89,0,0,0,.868,2.106,2.844,2.844,0,0,0,2.1.878,3,3,0,0,0,3-2.984Z" fill="#e1e1e1"/>
        <path id="Trazado_160293" data-name="Trazado 160293" d="M838.7,214.081V187.566h-4.381V183.94a7.512,7.512,0,0,0,3.541-1.407,7.05,7.05,0,0,0,2.445-2.9h3.626v34.447Z" fill="#e1e1e1"/>
        <path id="Trazado_160294" data-name="Trazado 160294" d="M852.564,214.081V187.566h-4.381V183.94a7.513,7.513,0,0,0,3.541-1.407,7.05,7.05,0,0,0,2.445-2.9h3.626v34.447Z" fill="#e1e1e1"/>
        <path id="Trazado_160295" data-name="Trazado 160295" d="M866.426,214.081V187.566h-4.381V183.94a7.513,7.513,0,0,0,3.541-1.407,7.05,7.05,0,0,0,2.445-2.9h3.626v34.447Z" fill="#e1e1e1"/>
        <path id="Trazado_160296" data-name="Trazado 160296" d="M880.288,214.081V187.566h-4.381V183.94a7.513,7.513,0,0,0,3.541-1.407,7.05,7.05,0,0,0,2.445-2.9h3.626v34.447Z" fill="#e1e1e1"/>
        <path id="Trazado_160297" data-name="Trazado 160297" d="M906.519,206.3a8.224,8.224,0,1,1-16.449,0V187.433a8.225,8.225,0,1,1,16.449,0Zm-5.382-18.98a3,3,0,0,0-3-2.984,2.842,2.842,0,0,0-2.1.878,2.891,2.891,0,0,0-.869,2.106v18.9a2.891,2.891,0,0,0,.869,2.106,2.842,2.842,0,0,0,2.1.878,3,3,0,0,0,3-2.984Z" fill="#e1e1e1"/>
        <path id="Trazado_160298" data-name="Trazado 160298" d="M915.093,214.081V187.566h-4.381V183.94a7.513,7.513,0,0,0,3.541-1.407,7.05,7.05,0,0,0,2.445-2.9h3.626v34.447Z" fill="#e1e1e1"/>
        <path id="Trazado_160299" data-name="Trazado 160299" d="M941.325,206.3a8.225,8.225,0,1,1-16.449,0V187.433a8.225,8.225,0,1,1,16.449,0Zm-5.382-18.98a3,3,0,0,0-3-2.984,2.843,2.843,0,0,0-2.1.878,2.891,2.891,0,0,0-.869,2.106v18.9a2.891,2.891,0,0,0,.869,2.106,2.843,2.843,0,0,0,2.1.878,3,3,0,0,0,3-2.984Z" fill="#e1e1e1"/>
        <path id="Trazado_160300" data-name="Trazado 160300" d="M949.9,214.081V187.566h-4.381V183.94a7.513,7.513,0,0,0,3.541-1.407,7.051,7.051,0,0,0,2.445-2.9h3.626v34.447Z" fill="#e1e1e1"/>
      </g>
    </g>
    <g id="Grupo_71900" data-name="Grupo 71900" transform="translate(434.523 4013)" opacity="0.5">
      <g id="Grupo_71899" data-name="Grupo 71899" clip-path="url(#clip-path-2)">
        <path id="Trazado_160301" data-name="Trazado 160301" d="M4.381,34.881V8.366H0V4.74A7.513,7.513,0,0,0,3.541,3.333,7.05,7.05,0,0,0,5.986.434H9.612V34.881Z" fill="#e1e1e1"/>
        <path id="Trazado_160302" data-name="Trazado 160302" d="M30.613,27.1A8.2,8.2,0,0,1,22.4,35.316,8.206,8.206,0,0,1,14.164,27.1V8.234A7.91,7.91,0,0,1,16.582,2.4,7.959,7.959,0,0,1,22.4,0a7.877,7.877,0,0,1,5.826,2.418,7.974,7.974,0,0,1,2.389,5.816ZM25.231,8.121a3,3,0,0,0-3-2.984,2.843,2.843,0,0,0-2.1.878,2.891,2.891,0,0,0-.869,2.106v18.9a2.891,2.891,0,0,0,.869,2.106,2.843,2.843,0,0,0,2.1.878,3,3,0,0,0,3-2.984Z" fill="#e1e1e1"/>
        <path id="Trazado_160303" data-name="Trazado 160303" d="M39.187,34.881V8.366H34.806V4.74a7.513,7.513,0,0,0,3.541-1.407,7.05,7.05,0,0,0,2.445-2.9h3.626V34.881Z" fill="#e1e1e1"/>
        <path id="Trazado_160304" data-name="Trazado 160304" d="M53.049,34.881V8.366H48.667V4.74a7.513,7.513,0,0,0,3.541-1.407,7.05,7.05,0,0,0,2.445-2.9h3.626V34.881Z" fill="#e1e1e1"/>
        <path id="Trazado_160305" data-name="Trazado 160305" d="M66.91,34.881V8.366H62.529V4.74A7.513,7.513,0,0,0,66.07,3.333a7.05,7.05,0,0,0,2.445-2.9h3.626V34.881Z" fill="#e1e1e1"/>
        <path id="Trazado_160306" data-name="Trazado 160306" d="M93.141,27.1a8.224,8.224,0,1,1-16.449,0V8.234A7.91,7.91,0,0,1,79.11,2.4,7.959,7.959,0,0,1,84.926,0a7.877,7.877,0,0,1,5.826,2.418,7.974,7.974,0,0,1,2.389,5.816ZM87.759,8.121a3,3,0,0,0-3-2.984,2.843,2.843,0,0,0-2.1.878,2.891,2.891,0,0,0-.869,2.106v18.9a2.891,2.891,0,0,0,.869,2.106,2.843,2.843,0,0,0,2.1.878,3,3,0,0,0,3-2.984Z" fill="#e1e1e1"/>
        <path id="Trazado_160307" data-name="Trazado 160307" d="M114.066,27.1a8.225,8.225,0,1,1-16.449,0V8.234A7.91,7.91,0,0,1,100.035,2.4,7.959,7.959,0,0,1,105.851,0a7.877,7.877,0,0,1,5.826,2.418,7.974,7.974,0,0,1,2.389,5.816Zm-5.382-18.98a3,3,0,0,0-3-2.984,2.843,2.843,0,0,0-2.1.878,2.891,2.891,0,0,0-.869,2.106v18.9a2.891,2.891,0,0,0,.869,2.106,2.843,2.843,0,0,0,2.1.878,3,3,0,0,0,3-2.984Z" fill="#e1e1e1"/>
        <path id="Trazado_160308" data-name="Trazado 160308" d="M134.991,27.1a8.224,8.224,0,1,1-16.449,0V8.234A7.91,7.91,0,0,1,120.96,2.4,7.959,7.959,0,0,1,126.776,0,7.877,7.877,0,0,1,132.6,2.418a7.974,7.974,0,0,1,2.389,5.816Zm-5.382-18.98a3,3,0,0,0-3-2.984,2.843,2.843,0,0,0-2.1.878,2.891,2.891,0,0,0-.869,2.106v18.9a2.891,2.891,0,0,0,.869,2.106,2.843,2.843,0,0,0,2.1.878,3,3,0,0,0,3-2.984Z" fill="#e1e1e1"/>
        <path id="Trazado_160309" data-name="Trazado 160309" d="M143.565,34.881V8.366h-4.381V4.74a7.513,7.513,0,0,0,3.541-1.407,7.05,7.05,0,0,0,2.445-2.9H148.8V34.881Z" fill="#e1e1e1"/>
        <path id="Trazado_160310" data-name="Trazado 160310" d="M169.8,27.1a7.879,7.879,0,0,1-2.416,5.826A8.224,8.224,0,0,1,153.348,27.1V8.234A7.91,7.91,0,0,1,155.766,2.4a8.239,8.239,0,0,1,11.642.019A7.973,7.973,0,0,1,169.8,8.234Zm-5.381-18.98a3,3,0,0,0-3-2.984,2.844,2.844,0,0,0-2.1.878,2.89,2.89,0,0,0-.868,2.106v18.9a2.89,2.89,0,0,0,.868,2.106,2.844,2.844,0,0,0,2.1.878,3,3,0,0,0,3-2.984Z" fill="#e1e1e1"/>
        <path id="Trazado_160311" data-name="Trazado 160311" d="M178.371,34.881V8.366H173.99V4.74a7.513,7.513,0,0,0,3.541-1.407,7.05,7.05,0,0,0,2.445-2.9H183.6V34.881Z" fill="#e1e1e1"/>
        <path id="Trazado_160312" data-name="Trazado 160312" d="M204.6,27.1a8.225,8.225,0,1,1-16.449,0V8.234A7.91,7.91,0,0,1,190.571,2.4,7.959,7.959,0,0,1,196.387,0a7.877,7.877,0,0,1,5.826,2.418A7.974,7.974,0,0,1,204.6,8.234ZM199.22,8.121a3,3,0,0,0-3-2.984,2.843,2.843,0,0,0-2.1.878,2.891,2.891,0,0,0-.869,2.106v18.9a2.891,2.891,0,0,0,.869,2.106,2.843,2.843,0,0,0,2.1.878,3,3,0,0,0,3-2.984Z" fill="#e1e1e1"/>
        <path id="Trazado_160313" data-name="Trazado 160313" d="M213.176,34.881V8.366h-4.381V4.74a7.513,7.513,0,0,0,3.541-1.407,7.05,7.05,0,0,0,2.445-2.9h3.626V34.881Z" fill="#e1e1e1"/>
        <path id="Trazado_160314" data-name="Trazado 160314" d="M239.407,27.1a8.225,8.225,0,1,1-16.449,0V8.234A7.91,7.91,0,0,1,225.376,2.4,7.959,7.959,0,0,1,231.192,0a7.877,7.877,0,0,1,5.826,2.418,7.974,7.974,0,0,1,2.389,5.816Zm-5.382-18.98a3,3,0,0,0-3-2.984,2.843,2.843,0,0,0-2.1.878,2.891,2.891,0,0,0-.869,2.106v18.9a2.891,2.891,0,0,0,.869,2.106,2.843,2.843,0,0,0,2.1.878,3,3,0,0,0,3-2.984Z" fill="#e1e1e1"/>
        <path id="Trazado_160315" data-name="Trazado 160315" d="M260.332,27.1a8.225,8.225,0,1,1-16.449,0V8.234A7.91,7.91,0,0,1,246.3,2.4,7.959,7.959,0,0,1,252.117,0a7.877,7.877,0,0,1,5.826,2.418,7.974,7.974,0,0,1,2.389,5.816ZM254.95,8.121a3,3,0,0,0-3-2.984,2.843,2.843,0,0,0-2.1.878,2.891,2.891,0,0,0-.869,2.106v18.9a2.891,2.891,0,0,0,.869,2.106,2.843,2.843,0,0,0,2.1.878,3,3,0,0,0,3-2.984Z" fill="#e1e1e1"/>
        <path id="Trazado_160316" data-name="Trazado 160316" d="M281.257,27.1a8.224,8.224,0,1,1-16.449,0V8.234A7.91,7.91,0,0,1,267.226,2.4,7.959,7.959,0,0,1,273.042,0a7.877,7.877,0,0,1,5.826,2.418,7.974,7.974,0,0,1,2.389,5.816Zm-5.382-18.98a3,3,0,0,0-3-2.984,2.843,2.843,0,0,0-2.1.878,2.891,2.891,0,0,0-.869,2.106v18.9a2.891,2.891,0,0,0,.869,2.106,2.843,2.843,0,0,0,2.1.878,3,3,0,0,0,3-2.984Z" fill="#e1e1e1"/>
        <path id="Trazado_160317" data-name="Trazado 160317" d="M289.831,34.881V8.366H285.45V4.74a7.512,7.512,0,0,0,3.541-1.407,7.05,7.05,0,0,0,2.445-2.9h3.626V34.881Z" fill="#e1e1e1"/>
        <path id="Trazado_160318" data-name="Trazado 160318" d="M316.062,27.1a8.225,8.225,0,1,1-16.449,0V8.234A7.91,7.91,0,0,1,302.031,2.4,7.959,7.959,0,0,1,307.847,0a7.877,7.877,0,0,1,5.826,2.418,7.974,7.974,0,0,1,2.389,5.816ZM310.68,8.121a3,3,0,0,0-3-2.984,2.843,2.843,0,0,0-2.1.878,2.891,2.891,0,0,0-.869,2.106v18.9a2.891,2.891,0,0,0,.869,2.106,2.843,2.843,0,0,0,2.1.878,3,3,0,0,0,3-2.984Z" fill="#e1e1e1"/>
        <path id="Trazado_160319" data-name="Trazado 160319" d="M324.637,34.881V8.366h-4.381V4.74A7.512,7.512,0,0,0,323.8,3.333a7.05,7.05,0,0,0,2.445-2.9h3.626V34.881Z" fill="#e1e1e1"/>
        <path id="Trazado_160320" data-name="Trazado 160320" d="M350.868,27.1a8.225,8.225,0,1,1-16.449,0V8.234A7.91,7.91,0,0,1,336.837,2.4,7.959,7.959,0,0,1,342.653,0a7.877,7.877,0,0,1,5.826,2.418,7.974,7.974,0,0,1,2.389,5.816Zm-5.382-18.98a3,3,0,0,0-3-2.984,2.843,2.843,0,0,0-2.1.878,2.891,2.891,0,0,0-.869,2.106v18.9a2.891,2.891,0,0,0,.869,2.106,2.843,2.843,0,0,0,2.1.878,3,3,0,0,0,3-2.984Z" fill="#e1e1e1"/>
        <path id="Trazado_160321" data-name="Trazado 160321" d="M359.442,34.881V8.366h-4.381V4.74A7.512,7.512,0,0,0,358.6,3.333a7.05,7.05,0,0,0,2.445-2.9h3.626V34.881Z" fill="#e1e1e1"/>
        <path id="Trazado_160322" data-name="Trazado 160322" d="M385.673,27.1a8.225,8.225,0,1,1-16.449,0V8.234A7.91,7.91,0,0,1,371.642,2.4,7.959,7.959,0,0,1,377.458,0a7.877,7.877,0,0,1,5.826,2.418,7.974,7.974,0,0,1,2.389,5.816Zm-5.382-18.98a3,3,0,0,0-3-2.984,2.843,2.843,0,0,0-2.1.878,2.891,2.891,0,0,0-.869,2.106v18.9a2.891,2.891,0,0,0,.869,2.106,2.843,2.843,0,0,0,2.1.878,3,3,0,0,0,3-2.984Z" fill="#e1e1e1"/>
        <path id="Trazado_160323" data-name="Trazado 160323" d="M394.247,34.881V8.366h-4.381V4.74a7.513,7.513,0,0,0,3.541-1.407,7.05,7.05,0,0,0,2.445-2.9h3.626V34.881Z" fill="#e1e1e1"/>
        <path id="Trazado_160324" data-name="Trazado 160324" d="M420.479,27.1a8.225,8.225,0,1,1-16.449,0V8.234A7.91,7.91,0,0,1,406.448,2.4,7.959,7.959,0,0,1,412.264,0a7.877,7.877,0,0,1,5.826,2.418,7.974,7.974,0,0,1,2.389,5.816ZM415.1,8.121a3,3,0,0,0-3-2.984,2.843,2.843,0,0,0-2.1.878,2.891,2.891,0,0,0-.869,2.106v18.9A2.891,2.891,0,0,0,410,29.131a2.843,2.843,0,0,0,2.1.878,3,3,0,0,0,3-2.984Z" fill="#e1e1e1"/>
        <path id="Trazado_160325" data-name="Trazado 160325" d="M429.053,34.881V8.366h-4.381V4.74a7.513,7.513,0,0,0,3.541-1.407,7.05,7.05,0,0,0,2.445-2.9h3.626V34.881Z" fill="#e1e1e1"/>
        <path id="Trazado_160326" data-name="Trazado 160326" d="M455.284,27.1a8.225,8.225,0,1,1-16.449,0V8.234A7.91,7.91,0,0,1,441.253,2.4,7.96,7.96,0,0,1,447.069,0a7.877,7.877,0,0,1,5.826,2.418,7.974,7.974,0,0,1,2.389,5.816ZM449.9,8.121a3,3,0,0,0-3-2.984,2.842,2.842,0,0,0-2.1.878,2.891,2.891,0,0,0-.869,2.106v18.9a2.891,2.891,0,0,0,.869,2.106,2.842,2.842,0,0,0,2.1.878,3,3,0,0,0,3-2.984Z" fill="#e1e1e1"/>
        <path id="Trazado_160327" data-name="Trazado 160327" d="M476.209,27.1a8.225,8.225,0,1,1-16.449,0V8.234A7.91,7.91,0,0,1,462.178,2.4,7.959,7.959,0,0,1,467.994,0a7.877,7.877,0,0,1,5.826,2.418,7.974,7.974,0,0,1,2.389,5.816Zm-5.382-18.98a3,3,0,0,0-3-2.984,2.843,2.843,0,0,0-2.1.878,2.891,2.891,0,0,0-.869,2.106v18.9a2.891,2.891,0,0,0,.869,2.106,2.843,2.843,0,0,0,2.1.878,3,3,0,0,0,3-2.984Z" fill="#e1e1e1"/>
        <path id="Trazado_160328" data-name="Trazado 160328" d="M497.134,27.1a8.225,8.225,0,1,1-16.449,0V8.234A7.91,7.91,0,0,1,483.1,2.4,7.959,7.959,0,0,1,488.919,0a7.877,7.877,0,0,1,5.826,2.418,7.974,7.974,0,0,1,2.389,5.816Zm-5.382-18.98a3,3,0,0,0-3-2.984,2.842,2.842,0,0,0-2.1.878,2.891,2.891,0,0,0-.869,2.106v18.9a2.891,2.891,0,0,0,.869,2.106,2.842,2.842,0,0,0,2.1.878,3,3,0,0,0,3-2.984Z" fill="#e1e1e1"/>
        <path id="Trazado_160329" data-name="Trazado 160329" d="M505.708,34.881V8.366h-4.381V4.74a7.513,7.513,0,0,0,3.541-1.407,7.05,7.05,0,0,0,2.445-2.9h3.626V34.881Z" fill="#e1e1e1"/>
        <path id="Trazado_160330" data-name="Trazado 160330" d="M519.57,34.881V8.366h-4.381V4.74a7.512,7.512,0,0,0,3.541-1.407,7.05,7.05,0,0,0,2.445-2.9H524.8V34.881Z" fill="#e1e1e1"/>
        <path id="Trazado_160331" data-name="Trazado 160331" d="M533.431,34.881V8.366H529.05V4.74a7.513,7.513,0,0,0,3.541-1.407,7.05,7.05,0,0,0,2.445-2.9h3.626V34.881Z" fill="#e1e1e1"/>
        <path id="Trazado_160332" data-name="Trazado 160332" d="M547.293,34.881V8.366h-4.381V4.74a7.513,7.513,0,0,0,3.541-1.407A7.05,7.05,0,0,0,548.9.434h3.626V34.881Z" fill="#e1e1e1"/>
        <path id="Trazado_160333" data-name="Trazado 160333" d="M561.155,34.881V8.366h-4.381V4.74a7.513,7.513,0,0,0,3.541-1.407,7.05,7.05,0,0,0,2.445-2.9h3.626V34.881Z" fill="#e1e1e1"/>
        <path id="Trazado_160334" data-name="Trazado 160334" d="M587.386,27.1a8.224,8.224,0,1,1-16.449,0V8.234A7.91,7.91,0,0,1,573.355,2.4,7.96,7.96,0,0,1,579.171,0,7.877,7.877,0,0,1,585,2.418a7.974,7.974,0,0,1,2.389,5.816ZM582,8.121a3,3,0,0,0-3-2.984,2.842,2.842,0,0,0-2.1.878,2.891,2.891,0,0,0-.869,2.106v18.9a2.891,2.891,0,0,0,.869,2.106,2.842,2.842,0,0,0,2.1.878,3,3,0,0,0,3-2.984Z" fill="#e1e1e1"/>
        <path id="Trazado_160335" data-name="Trazado 160335" d="M595.96,34.881V8.366h-4.381V4.74a7.513,7.513,0,0,0,3.541-1.407,7.05,7.05,0,0,0,2.445-2.9h3.626V34.881Z" fill="#e1e1e1"/>
        <path id="Trazado_160336" data-name="Trazado 160336" d="M622.191,27.1a8.224,8.224,0,1,1-16.449,0V8.234A7.91,7.91,0,0,1,608.16,2.4,7.96,7.96,0,0,1,613.976,0,7.877,7.877,0,0,1,619.8,2.418a7.974,7.974,0,0,1,2.389,5.816Zm-5.382-18.98a3,3,0,0,0-3-2.984,2.842,2.842,0,0,0-2.1.878,2.891,2.891,0,0,0-.869,2.106v18.9a2.891,2.891,0,0,0,.869,2.106,2.842,2.842,0,0,0,2.1.878,3,3,0,0,0,3-2.984Z" fill="#e1e1e1"/>
        <path id="Trazado_160337" data-name="Trazado 160337" d="M630.766,34.881V8.366h-4.381V4.74a7.513,7.513,0,0,0,3.541-1.407,7.05,7.05,0,0,0,2.445-2.9H636V34.881Z" fill="#e1e1e1"/>
        <path id="Trazado_160338" data-name="Trazado 160338" d="M657,27.1a8.225,8.225,0,1,1-16.449,0V8.234A7.91,7.91,0,0,1,642.966,2.4,7.959,7.959,0,0,1,648.782,0a7.877,7.877,0,0,1,5.826,2.418A7.974,7.974,0,0,1,657,8.234Zm-5.382-18.98a3,3,0,0,0-3-2.984,2.843,2.843,0,0,0-2.1.878,2.891,2.891,0,0,0-.869,2.106v18.9a2.891,2.891,0,0,0,.869,2.106,2.843,2.843,0,0,0,2.1.878,3,3,0,0,0,3-2.984Z" fill="#e1e1e1"/>
        <path id="Trazado_160339" data-name="Trazado 160339" d="M665.571,34.881V8.366H661.19V4.74a7.513,7.513,0,0,0,3.541-1.407,7.051,7.051,0,0,0,2.445-2.9H670.8V34.881Z" fill="#e1e1e1"/>
        <path id="Trazado_160340" data-name="Trazado 160340" d="M691.8,27.1a8.224,8.224,0,1,1-16.449,0V8.234A7.91,7.91,0,0,1,677.771,2.4,7.959,7.959,0,0,1,683.587,0a7.877,7.877,0,0,1,5.826,2.418A7.974,7.974,0,0,1,691.8,8.234ZM686.42,8.121a3,3,0,0,0-3-2.984,2.843,2.843,0,0,0-2.1.878,2.891,2.891,0,0,0-.869,2.106v18.9a2.891,2.891,0,0,0,.869,2.106,2.843,2.843,0,0,0,2.1.878,3,3,0,0,0,3-2.984Z" fill="#e1e1e1"/>
        <path id="Trazado_160341" data-name="Trazado 160341" d="M712.727,27.1a8.224,8.224,0,1,1-16.449,0V8.234A7.91,7.91,0,0,1,698.7,2.4,7.959,7.959,0,0,1,704.512,0a7.877,7.877,0,0,1,5.826,2.418,7.974,7.974,0,0,1,2.389,5.816Zm-5.382-18.98a3,3,0,0,0-3-2.984,2.843,2.843,0,0,0-2.1.878,2.891,2.891,0,0,0-.869,2.106v18.9a2.891,2.891,0,0,0,.869,2.106,2.843,2.843,0,0,0,2.1.878,3,3,0,0,0,3-2.984Z" fill="#e1e1e1"/>
        <path id="Trazado_160342" data-name="Trazado 160342" d="M733.652,27.1a8.224,8.224,0,1,1-16.449,0V8.234A7.91,7.91,0,0,1,719.621,2.4,7.96,7.96,0,0,1,725.437,0a7.877,7.877,0,0,1,5.826,2.418,7.974,7.974,0,0,1,2.389,5.816ZM728.27,8.121a3,3,0,0,0-3-2.984,2.842,2.842,0,0,0-2.1.878,2.891,2.891,0,0,0-.869,2.106v18.9a2.891,2.891,0,0,0,.869,2.106,2.842,2.842,0,0,0,2.1.878,3,3,0,0,0,3-2.984Z" fill="#e1e1e1"/>
        <path id="Trazado_160343" data-name="Trazado 160343" d="M754.577,27.1a8.225,8.225,0,1,1-16.449,0V8.234A7.91,7.91,0,0,1,740.546,2.4,7.959,7.959,0,0,1,746.362,0a7.877,7.877,0,0,1,5.826,2.418,7.974,7.974,0,0,1,2.389,5.816ZM749.2,8.121a3,3,0,0,0-3-2.984,2.843,2.843,0,0,0-2.1.878,2.891,2.891,0,0,0-.869,2.106v18.9a2.891,2.891,0,0,0,.869,2.106,2.843,2.843,0,0,0,2.1.878,3,3,0,0,0,3-2.984Z" fill="#e1e1e1"/>
        <path id="Trazado_160344" data-name="Trazado 160344" d="M763.151,34.881V8.366H758.77V4.74a7.512,7.512,0,0,0,3.541-1.407,7.05,7.05,0,0,0,2.445-2.9h3.626V34.881Z" fill="#e1e1e1"/>
        <path id="Trazado_160345" data-name="Trazado 160345" d="M777.013,34.881V8.366h-4.381V4.74a7.512,7.512,0,0,0,3.541-1.407,7.05,7.05,0,0,0,2.445-2.9h3.626V34.881Z" fill="#e1e1e1"/>
        <path id="Trazado_160346" data-name="Trazado 160346" d="M790.874,34.881V8.366h-4.381V4.74a7.513,7.513,0,0,0,3.541-1.407,7.05,7.05,0,0,0,2.445-2.9H796.1V34.881Z" fill="#e1e1e1"/>
        <path id="Trazado_160347" data-name="Trazado 160347" d="M817.106,27.1a8.225,8.225,0,1,1-16.449,0V8.234A7.91,7.91,0,0,1,803.075,2.4,7.959,7.959,0,0,1,808.891,0a7.877,7.877,0,0,1,5.826,2.418,7.974,7.974,0,0,1,2.389,5.816Zm-5.382-18.98a3,3,0,0,0-3-2.984,2.843,2.843,0,0,0-2.1.878,2.891,2.891,0,0,0-.869,2.106v18.9a2.891,2.891,0,0,0,.869,2.106,2.843,2.843,0,0,0,2.1.878,3,3,0,0,0,3-2.984Z" fill="#e1e1e1"/>
        <path id="Trazado_160348" data-name="Trazado 160348" d="M825.68,34.881V8.366H821.3V4.74a7.513,7.513,0,0,0,3.541-1.407,7.05,7.05,0,0,0,2.445-2.9h3.626V34.881Z" fill="#e1e1e1"/>
        <path id="Trazado_160349" data-name="Trazado 160349" d="M851.911,27.1a8.225,8.225,0,1,1-16.449,0V8.234A7.91,7.91,0,0,1,837.88,2.4,7.959,7.959,0,0,1,843.7,0a7.877,7.877,0,0,1,5.826,2.418,7.974,7.974,0,0,1,2.389,5.816Zm-5.382-18.98a3,3,0,0,0-3-2.984,2.843,2.843,0,0,0-2.1.878,2.891,2.891,0,0,0-.869,2.106v18.9a2.891,2.891,0,0,0,.869,2.106,2.843,2.843,0,0,0,2.1.878,3,3,0,0,0,3-2.984Z" fill="#e1e1e1"/>
        <path id="Trazado_160350" data-name="Trazado 160350" d="M860.485,34.881V8.366H856.1V4.74a7.513,7.513,0,0,0,3.541-1.407,7.051,7.051,0,0,0,2.445-2.9h3.626V34.881Z" fill="#e1e1e1"/>
        <path id="Trazado_160351" data-name="Trazado 160351" d="M886.716,27.1a8.224,8.224,0,1,1-16.449,0V8.234A7.91,7.91,0,0,1,872.685,2.4,7.959,7.959,0,0,1,878.5,0a7.877,7.877,0,0,1,5.826,2.418,7.974,7.974,0,0,1,2.389,5.816Zm-5.382-18.98a3,3,0,0,0-3-2.984,2.843,2.843,0,0,0-2.1.878,2.891,2.891,0,0,0-.869,2.106v18.9a2.891,2.891,0,0,0,.869,2.106,2.843,2.843,0,0,0,2.1.878,3,3,0,0,0,3-2.984Z" fill="#e1e1e1"/>
        <path id="Trazado_160352" data-name="Trazado 160352" d="M907.641,27.1a8.224,8.224,0,1,1-16.449,0V8.234A7.91,7.91,0,0,1,893.61,2.4,7.959,7.959,0,0,1,899.426,0a7.877,7.877,0,0,1,5.826,2.418,7.974,7.974,0,0,1,2.389,5.816Zm-5.382-18.98a3,3,0,0,0-3-2.984,2.843,2.843,0,0,0-2.1.878,2.891,2.891,0,0,0-.869,2.106v18.9a2.891,2.891,0,0,0,.869,2.106,2.843,2.843,0,0,0,2.1.878,3,3,0,0,0,3-2.984Z" fill="#e1e1e1"/>
        <path id="Trazado_160353" data-name="Trazado 160353" d="M928.566,27.1a8.224,8.224,0,1,1-16.449,0V8.234A7.91,7.91,0,0,1,914.535,2.4,7.96,7.96,0,0,1,920.351,0a7.877,7.877,0,0,1,5.826,2.418,7.974,7.974,0,0,1,2.389,5.816Zm-5.382-18.98a3,3,0,0,0-3-2.984,2.842,2.842,0,0,0-2.1.878,2.891,2.891,0,0,0-.869,2.106v18.9a2.891,2.891,0,0,0,.869,2.106,2.842,2.842,0,0,0,2.1.878,3,3,0,0,0,3-2.984Z" fill="#e1e1e1"/>
        <path id="Trazado_160354" data-name="Trazado 160354" d="M949.491,27.1a8.225,8.225,0,1,1-16.449,0V8.234A7.91,7.91,0,0,1,935.46,2.4,7.959,7.959,0,0,1,941.276,0,7.877,7.877,0,0,1,947.1,2.418a7.974,7.974,0,0,1,2.389,5.816Zm-5.382-18.98a3,3,0,0,0-3-2.984,2.843,2.843,0,0,0-2.1.878,2.891,2.891,0,0,0-.869,2.106v18.9a2.891,2.891,0,0,0,.869,2.106,2.843,2.843,0,0,0,2.1.878,3,3,0,0,0,3-2.984Z" fill="#e1e1e1"/>
        <path id="Trazado_160355" data-name="Trazado 160355" d="M970.416,27.1a8.225,8.225,0,1,1-16.449,0V8.234A7.91,7.91,0,0,1,956.385,2.4,7.959,7.959,0,0,1,962.2,0a7.877,7.877,0,0,1,5.826,2.418,7.974,7.974,0,0,1,2.389,5.816Zm-5.382-18.98a3,3,0,0,0-3-2.984,2.843,2.843,0,0,0-2.1.878,2.891,2.891,0,0,0-.869,2.106v18.9a2.891,2.891,0,0,0,.869,2.106,2.843,2.843,0,0,0,2.1.878,3,3,0,0,0,3-2.984Z" fill="#e1e1e1"/>
        <path id="Trazado_160356" data-name="Trazado 160356" d="M83.1,163.118a8.224,8.224,0,1,1-16.449,0V144.251a8.225,8.225,0,1,1,16.449,0Zm-5.382-18.98a3,3,0,0,0-3-2.984,2.843,2.843,0,0,0-2.1.878,2.891,2.891,0,0,0-.869,2.106v18.9a2.891,2.891,0,0,0,.869,2.106,2.843,2.843,0,0,0,2.1.878,3,3,0,0,0,3-2.984Z" fill="#e1e1e1"/>
        <path id="Trazado_160357" data-name="Trazado 160357" d="M91.674,170.9V144.384H87.292v-3.626a7.512,7.512,0,0,0,3.541-1.407,7.05,7.05,0,0,0,2.445-2.9H96.9V170.9Z" fill="#e1e1e1"/>
        <path id="Trazado_160358" data-name="Trazado 160358" d="M117.9,163.118a8.224,8.224,0,1,1-16.449,0V144.251a8.225,8.225,0,1,1,16.449,0Zm-5.382-18.98a3,3,0,0,0-3-2.984,2.843,2.843,0,0,0-2.1.878,2.891,2.891,0,0,0-.869,2.106v18.9a2.891,2.891,0,0,0,.869,2.106,2.842,2.842,0,0,0,2.1.878,3,3,0,0,0,3-2.984Z" fill="#e1e1e1"/>
        <path id="Trazado_160359" data-name="Trazado 160359" d="M126.479,170.9V144.384H122.1v-3.626a7.512,7.512,0,0,0,3.541-1.407,7.05,7.05,0,0,0,2.445-2.9h3.626V170.9Z" fill="#e1e1e1"/>
        <path id="Trazado_160360" data-name="Trazado 160360" d="M152.71,163.118a8.225,8.225,0,1,1-16.449,0V144.251a8.225,8.225,0,1,1,16.449,0Zm-5.382-18.98a3,3,0,0,0-3-2.984,2.843,2.843,0,0,0-2.1.878,2.891,2.891,0,0,0-.869,2.106v18.9a2.891,2.891,0,0,0,.869,2.106,2.842,2.842,0,0,0,2.1.878,3,3,0,0,0,3-2.984Z" fill="#e1e1e1"/>
        <path id="Trazado_160361" data-name="Trazado 160361" d="M161.284,170.9V144.384H156.9v-3.626a7.512,7.512,0,0,0,3.541-1.407,7.05,7.05,0,0,0,2.445-2.9h3.626V170.9Z" fill="#e1e1e1"/>
        <path id="Trazado_160362" data-name="Trazado 160362" d="M187.516,163.118a8.225,8.225,0,1,1-16.449,0V144.251a8.225,8.225,0,1,1,16.449,0Zm-5.382-18.98a3,3,0,0,0-3-2.984,2.843,2.843,0,0,0-2.1.878,2.891,2.891,0,0,0-.869,2.106v18.9a2.891,2.891,0,0,0,.869,2.106,2.842,2.842,0,0,0,2.1.878,3,3,0,0,0,3-2.984Z" fill="#e1e1e1"/>
        <path id="Trazado_160363" data-name="Trazado 160363" d="M208.44,163.118a8.225,8.225,0,1,1-16.449,0V144.251a8.225,8.225,0,1,1,16.449,0Zm-5.382-18.98a3,3,0,0,0-3-2.984,2.843,2.843,0,0,0-2.1.878,2.891,2.891,0,0,0-.869,2.106v18.9a2.891,2.891,0,0,0,.869,2.106,2.842,2.842,0,0,0,2.1.878,3,3,0,0,0,3-2.984Z" fill="#e1e1e1"/>
        <path id="Trazado_160364" data-name="Trazado 160364" d="M229.365,163.118a8.225,8.225,0,1,1-16.449,0V144.251a8.225,8.225,0,1,1,16.449,0Zm-5.382-18.98a3,3,0,0,0-3-2.984,2.843,2.843,0,0,0-2.1.878,2.891,2.891,0,0,0-.869,2.106v18.9a2.891,2.891,0,0,0,.869,2.106,2.842,2.842,0,0,0,2.1.878,3,3,0,0,0,3-2.984Z" fill="#e1e1e1"/>
        <path id="Trazado_160365" data-name="Trazado 160365" d="M237.939,170.9V144.384h-4.381v-3.626a7.512,7.512,0,0,0,3.541-1.407,7.05,7.05,0,0,0,2.445-2.9h3.626V170.9Z" fill="#e1e1e1"/>
        <path id="Trazado_160366" data-name="Trazado 160366" d="M264.171,163.118a8.224,8.224,0,1,1-16.449,0V144.251a8.225,8.225,0,1,1,16.449,0Zm-5.382-18.98a3,3,0,0,0-3-2.984,2.843,2.843,0,0,0-2.1.878,2.891,2.891,0,0,0-.869,2.106v18.9a2.891,2.891,0,0,0,.869,2.106,2.842,2.842,0,0,0,2.1.878,3,3,0,0,0,3-2.984Z" fill="#e1e1e1"/>
        <path id="Trazado_160367" data-name="Trazado 160367" d="M272.745,170.9V144.384h-4.381v-3.626a7.513,7.513,0,0,0,3.541-1.407,7.05,7.05,0,0,0,2.445-2.9h3.626V170.9Z" fill="#e1e1e1"/>
        <path id="Trazado_160368" data-name="Trazado 160368" d="M298.976,163.118a8.225,8.225,0,1,1-16.449,0V144.251a8.225,8.225,0,1,1,16.449,0Zm-5.382-18.98a3,3,0,0,0-3-2.984,2.843,2.843,0,0,0-2.1.878,2.891,2.891,0,0,0-.869,2.106v18.9a2.891,2.891,0,0,0,.869,2.106,2.843,2.843,0,0,0,2.1.878,3,3,0,0,0,3-2.984Z" fill="#e1e1e1"/>
        <path id="Trazado_160369" data-name="Trazado 160369" d="M307.55,170.9V144.384h-4.381v-3.626a7.512,7.512,0,0,0,3.541-1.407,7.05,7.05,0,0,0,2.445-2.9h3.626V170.9Z" fill="#e1e1e1"/>
        <path id="Trazado_160370" data-name="Trazado 160370" d="M333.781,163.118a8.225,8.225,0,1,1-16.449,0V144.251a8.225,8.225,0,1,1,16.449,0Zm-5.382-18.98a3,3,0,0,0-3-2.984,2.843,2.843,0,0,0-2.1.878,2.891,2.891,0,0,0-.869,2.106v18.9a2.891,2.891,0,0,0,.869,2.106,2.843,2.843,0,0,0,2.1.878,3,3,0,0,0,3-2.984Z" fill="#e1e1e1"/>
        <path id="Trazado_160371" data-name="Trazado 160371" d="M342.356,170.9V144.384h-4.381v-3.626a7.512,7.512,0,0,0,3.541-1.407,7.05,7.05,0,0,0,2.445-2.9h3.626V170.9Z" fill="#e1e1e1"/>
        <path id="Trazado_160372" data-name="Trazado 160372" d="M368.587,163.118a8.225,8.225,0,1,1-16.449,0V144.251a8.225,8.225,0,1,1,16.449,0Zm-5.382-18.98a3,3,0,0,0-3-2.984,2.843,2.843,0,0,0-2.1.878,2.891,2.891,0,0,0-.869,2.106v18.9a2.891,2.891,0,0,0,.869,2.106,2.843,2.843,0,0,0,2.1.878,3,3,0,0,0,3-2.984Z" fill="#e1e1e1"/>
        <path id="Trazado_160373" data-name="Trazado 160373" d="M389.512,163.118a8.225,8.225,0,1,1-16.449,0V144.251a8.225,8.225,0,1,1,16.449,0Zm-5.382-18.98a3,3,0,0,0-3-2.984,2.843,2.843,0,0,0-2.1.878,2.891,2.891,0,0,0-.869,2.106v18.9a2.891,2.891,0,0,0,.869,2.106,2.842,2.842,0,0,0,2.1.878,3,3,0,0,0,3-2.984Z" fill="#e1e1e1"/>
        <path id="Trazado_160374" data-name="Trazado 160374" d="M410.436,163.118a8.225,8.225,0,1,1-16.449,0V144.251a8.225,8.225,0,1,1,16.449,0Zm-5.382-18.98a3,3,0,0,0-3-2.984,2.843,2.843,0,0,0-2.1.878,2.891,2.891,0,0,0-.869,2.106v18.9a2.891,2.891,0,0,0,.869,2.106,2.843,2.843,0,0,0,2.1.878,3,3,0,0,0,3-2.984Z" fill="#e1e1e1"/>
        <path id="Trazado_160375" data-name="Trazado 160375" d="M431.361,163.118a8.225,8.225,0,1,1-16.449,0V144.251a8.225,8.225,0,1,1,16.449,0Zm-5.382-18.98a3,3,0,0,0-3-2.984,2.843,2.843,0,0,0-2.1.878,2.891,2.891,0,0,0-.869,2.106v18.9a2.891,2.891,0,0,0,.869,2.106,2.843,2.843,0,0,0,2.1.878,3,3,0,0,0,3-2.984Z" fill="#e1e1e1"/>
        <path id="Trazado_160376" data-name="Trazado 160376" d="M452.286,163.118a8.225,8.225,0,1,1-16.449,0V144.251a8.225,8.225,0,1,1,16.449,0Zm-5.382-18.98a3,3,0,0,0-3-2.984,2.843,2.843,0,0,0-2.1.878,2.891,2.891,0,0,0-.869,2.106v18.9a2.891,2.891,0,0,0,.869,2.106,2.843,2.843,0,0,0,2.1.878,3,3,0,0,0,3-2.984Z" fill="#e1e1e1"/>
        <path id="Trazado_160377" data-name="Trazado 160377" d="M473.211,163.118a8.225,8.225,0,1,1-16.449,0V144.251a8.225,8.225,0,1,1,16.449,0Zm-5.382-18.98a3,3,0,0,0-3-2.984,2.842,2.842,0,0,0-2.1.878,2.891,2.891,0,0,0-.869,2.106v18.9a2.891,2.891,0,0,0,.869,2.106,2.842,2.842,0,0,0,2.1.878,3,3,0,0,0,3-2.984Z" fill="#e1e1e1"/>
        <path id="Trazado_160378" data-name="Trazado 160378" d="M494.136,163.118a8.224,8.224,0,1,1-16.449,0V144.251a8.225,8.225,0,1,1,16.449,0Zm-5.382-18.98a3,3,0,0,0-3-2.984,2.843,2.843,0,0,0-2.1.878,2.891,2.891,0,0,0-.869,2.106v18.9a2.891,2.891,0,0,0,.869,2.106,2.843,2.843,0,0,0,2.1.878,3,3,0,0,0,3-2.984Z" fill="#e1e1e1"/>
        <path id="Trazado_160379" data-name="Trazado 160379" d="M502.71,170.9V144.384h-4.381v-3.626a7.512,7.512,0,0,0,3.541-1.407,7.05,7.05,0,0,0,2.445-2.9h3.626V170.9Z" fill="#e1e1e1"/>
        <path id="Trazado_160380" data-name="Trazado 160380" d="M516.571,170.9V144.384H512.19v-3.626a7.513,7.513,0,0,0,3.541-1.407,7.051,7.051,0,0,0,2.445-2.9H521.8V170.9Z" fill="#e1e1e1"/>
        <path id="Trazado_160381" data-name="Trazado 160381" d="M530.433,170.9V144.384h-4.381v-3.626a7.513,7.513,0,0,0,3.541-1.407,7.051,7.051,0,0,0,2.445-2.9h3.626V170.9Z" fill="#e1e1e1"/>
        <path id="Trazado_160382" data-name="Trazado 160382" d="M544.295,170.9V144.384h-4.381v-3.626a7.513,7.513,0,0,0,3.541-1.407,7.051,7.051,0,0,0,2.445-2.9h3.626V170.9Z" fill="#e1e1e1"/>
        <path id="Trazado_160383" data-name="Trazado 160383" d="M558.157,170.9V144.384h-4.381v-3.626a7.513,7.513,0,0,0,3.541-1.407,7.051,7.051,0,0,0,2.445-2.9h3.626V170.9Z" fill="#e1e1e1"/>
        <path id="Trazado_160384" data-name="Trazado 160384" d="M572.018,170.9V144.384h-4.381v-3.626a7.512,7.512,0,0,0,3.541-1.407,7.05,7.05,0,0,0,2.445-2.9h3.626V170.9Z" fill="#e1e1e1"/>
        <path id="Trazado_160385" data-name="Trazado 160385" d="M598.25,163.118a8.224,8.224,0,1,1-16.449,0V144.251a8.225,8.225,0,1,1,16.449,0Zm-5.382-18.98a3,3,0,0,0-3-2.984,2.843,2.843,0,0,0-2.1.878,2.891,2.891,0,0,0-.869,2.106v18.9a2.891,2.891,0,0,0,.869,2.106,2.843,2.843,0,0,0,2.1.878,3,3,0,0,0,3-2.984Z" fill="#e1e1e1"/>
        <path id="Trazado_160386" data-name="Trazado 160386" d="M619.174,163.118a8.225,8.225,0,1,1-16.449,0V144.251a8.225,8.225,0,1,1,16.449,0Zm-5.382-18.98a3,3,0,0,0-3-2.984,2.843,2.843,0,0,0-2.1.878,2.891,2.891,0,0,0-.869,2.106v18.9a2.891,2.891,0,0,0,.869,2.106,2.843,2.843,0,0,0,2.1.878,3,3,0,0,0,3-2.984Z" fill="#e1e1e1"/>
        <path id="Trazado_160387" data-name="Trazado 160387" d="M627.749,170.9V144.384h-4.381v-3.626a7.512,7.512,0,0,0,3.541-1.407,7.05,7.05,0,0,0,2.445-2.9h3.626V170.9Z" fill="#e1e1e1"/>
        <path id="Trazado_160388" data-name="Trazado 160388" d="M653.98,163.118a8.224,8.224,0,1,1-16.449,0V144.251a8.225,8.225,0,1,1,16.449,0Zm-5.382-18.98a3,3,0,0,0-3-2.984,2.842,2.842,0,0,0-2.1.878,2.891,2.891,0,0,0-.869,2.106v18.9a2.891,2.891,0,0,0,.869,2.106,2.842,2.842,0,0,0,2.1.878,3,3,0,0,0,3-2.984Z" fill="#e1e1e1"/>
        <path id="Trazado_160389" data-name="Trazado 160389" d="M662.554,170.9V144.384h-4.381v-3.626a7.512,7.512,0,0,0,3.541-1.407,7.05,7.05,0,0,0,2.445-2.9h3.626V170.9Z" fill="#e1e1e1"/>
        <path id="Trazado_160390" data-name="Trazado 160390" d="M676.416,170.9V144.384h-4.381v-3.626a7.512,7.512,0,0,0,3.541-1.407,7.05,7.05,0,0,0,2.445-2.9h3.626V170.9Z" fill="#e1e1e1"/>
        <path id="Trazado_160391" data-name="Trazado 160391" d="M690.278,170.9V144.384H685.9v-3.626a7.512,7.512,0,0,0,3.541-1.407,7.05,7.05,0,0,0,2.445-2.9h3.626V170.9Z" fill="#e1e1e1"/>
        <path id="Trazado_160392" data-name="Trazado 160392" d="M704.139,170.9V144.384h-4.381v-3.626a7.512,7.512,0,0,0,3.541-1.407,7.05,7.05,0,0,0,2.445-2.9h3.626V170.9Z" fill="#e1e1e1"/>
        <path id="Trazado_160393" data-name="Trazado 160393" d="M730.371,163.118a8.224,8.224,0,1,1-16.449,0V144.251a8.225,8.225,0,1,1,16.449,0Zm-5.382-18.98a3,3,0,0,0-3-2.984,2.843,2.843,0,0,0-2.1.878,2.891,2.891,0,0,0-.869,2.106v18.9a2.891,2.891,0,0,0,.869,2.106,2.843,2.843,0,0,0,2.1.878,3,3,0,0,0,3-2.984Z" fill="#e1e1e1"/>
        <path id="Trazado_160394" data-name="Trazado 160394" d="M738.945,170.9V144.384h-4.381v-3.626a7.512,7.512,0,0,0,3.541-1.407,7.05,7.05,0,0,0,2.445-2.9h3.626V170.9Z" fill="#e1e1e1"/>
        <path id="Trazado_160395" data-name="Trazado 160395" d="M765.176,163.118a8.225,8.225,0,1,1-16.449,0V144.251a8.225,8.225,0,1,1,16.449,0Zm-5.382-18.98a3,3,0,0,0-3-2.984,2.843,2.843,0,0,0-2.1.878,2.891,2.891,0,0,0-.869,2.106v18.9a2.891,2.891,0,0,0,.869,2.106,2.843,2.843,0,0,0,2.1.878,3,3,0,0,0,3-2.984Z" fill="#e1e1e1"/>
        <path id="Trazado_160396" data-name="Trazado 160396" d="M773.75,170.9V144.384h-4.381v-3.626a7.512,7.512,0,0,0,3.541-1.407,7.05,7.05,0,0,0,2.445-2.9h3.626V170.9Z" fill="#e1e1e1"/>
        <path id="Trazado_160397" data-name="Trazado 160397" d="M289.6,91.136a8.225,8.225,0,1,1-16.449,0V72.269a8.225,8.225,0,1,1,16.449,0Zm-5.382-18.98a3,3,0,0,0-3-2.984,2.842,2.842,0,0,0-2.1.878,2.891,2.891,0,0,0-.869,2.106v18.9a2.891,2.891,0,0,0,.869,2.106,2.842,2.842,0,0,0,2.1.878,3,3,0,0,0,3-2.984Z" fill="#e1e1e1"/>
        <path id="Trazado_160398" data-name="Trazado 160398" d="M298.169,98.916V72.4h-4.381V68.775a7.513,7.513,0,0,0,3.541-1.407,7.05,7.05,0,0,0,2.445-2.9H303.4V98.916Z" fill="#e1e1e1"/>
        <path id="Trazado_160399" data-name="Trazado 160399" d="M324.4,91.136a8.225,8.225,0,1,1-16.449,0V72.269a8.225,8.225,0,1,1,16.449,0Zm-5.382-18.98a3,3,0,0,0-3-2.984,2.842,2.842,0,0,0-2.1.878,2.891,2.891,0,0,0-.869,2.106v18.9a2.891,2.891,0,0,0,.869,2.106,2.842,2.842,0,0,0,2.1.878,3,3,0,0,0,3-2.984Z" fill="#e1e1e1"/>
        <path id="Trazado_160400" data-name="Trazado 160400" d="M332.974,98.916V72.4h-4.381V68.775a7.513,7.513,0,0,0,3.541-1.407,7.05,7.05,0,0,0,2.445-2.9H338.2V98.916Z" fill="#e1e1e1"/>
        <path id="Trazado_160401" data-name="Trazado 160401" d="M359.206,91.136a8.225,8.225,0,1,1-16.449,0V72.269a8.225,8.225,0,1,1,16.449,0Zm-5.382-18.98a3,3,0,0,0-3-2.984,2.842,2.842,0,0,0-2.1.878,2.891,2.891,0,0,0-.869,2.106v18.9a2.891,2.891,0,0,0,.869,2.106,2.842,2.842,0,0,0,2.1.878,3,3,0,0,0,3-2.984Z" fill="#e1e1e1"/>
        <path id="Trazado_160402" data-name="Trazado 160402" d="M367.78,98.916V72.4H363.4V68.775a7.513,7.513,0,0,0,3.541-1.407,7.05,7.05,0,0,0,2.445-2.9h3.626V98.916Z" fill="#e1e1e1"/>
        <path id="Trazado_160403" data-name="Trazado 160403" d="M394.011,91.136a8.224,8.224,0,1,1-16.449,0V72.269a8.225,8.225,0,1,1,16.449,0Zm-5.382-18.98a3,3,0,0,0-3-2.984,2.843,2.843,0,0,0-2.1.878,2.891,2.891,0,0,0-.869,2.106v18.9a2.891,2.891,0,0,0,.869,2.106,2.843,2.843,0,0,0,2.1.878,3,3,0,0,0,3-2.984Z" fill="#e1e1e1"/>
        <path id="Trazado_160404" data-name="Trazado 160404" d="M414.936,91.136a8.225,8.225,0,1,1-16.449,0V72.269a8.225,8.225,0,1,1,16.449,0Zm-5.382-18.98a3,3,0,0,0-3-2.984,2.843,2.843,0,0,0-2.1.878,2.891,2.891,0,0,0-.869,2.106v18.9a2.891,2.891,0,0,0,.869,2.106,2.843,2.843,0,0,0,2.1.878,3,3,0,0,0,3-2.984Z" fill="#e1e1e1"/>
        <path id="Trazado_160405" data-name="Trazado 160405" d="M435.861,91.136a8.225,8.225,0,1,1-16.449,0V72.269a8.225,8.225,0,1,1,16.449,0Zm-5.382-18.98a3,3,0,0,0-3-2.984,2.843,2.843,0,0,0-2.1.878,2.891,2.891,0,0,0-.869,2.106v18.9a2.891,2.891,0,0,0,.869,2.106,2.843,2.843,0,0,0,2.1.878,3,3,0,0,0,3-2.984Z" fill="#e1e1e1"/>
        <path id="Trazado_160406" data-name="Trazado 160406" d="M444.435,98.916V72.4h-4.381V68.775a7.513,7.513,0,0,0,3.541-1.407,7.05,7.05,0,0,0,2.445-2.9h3.626V98.916Z" fill="#e1e1e1"/>
        <path id="Trazado_160407" data-name="Trazado 160407" d="M470.666,91.136a8.224,8.224,0,1,1-16.449,0V72.269a8.225,8.225,0,1,1,16.449,0Zm-5.382-18.98a3,3,0,0,0-3-2.984,2.843,2.843,0,0,0-2.1.878,2.891,2.891,0,0,0-.869,2.106v18.9a2.891,2.891,0,0,0,.869,2.106,2.843,2.843,0,0,0,2.1.878,3,3,0,0,0,3-2.984Z" fill="#e1e1e1"/>
        <path id="Trazado_160408" data-name="Trazado 160408" d="M479.24,98.916V72.4h-4.381V68.775a7.512,7.512,0,0,0,3.541-1.407,7.05,7.05,0,0,0,2.445-2.9h3.626V98.916Z" fill="#e1e1e1"/>
        <path id="Trazado_160409" data-name="Trazado 160409" d="M505.471,91.136a7.879,7.879,0,0,1-2.416,5.826,8.225,8.225,0,0,1-14.033-5.826V72.269a8.225,8.225,0,1,1,16.449,0Zm-5.381-18.98a3,3,0,0,0-3-2.984,2.843,2.843,0,0,0-2.1.878,2.891,2.891,0,0,0-.869,2.106v18.9a2.891,2.891,0,0,0,.869,2.106,2.843,2.843,0,0,0,2.1.878,3,3,0,0,0,3-2.984Z" fill="#e1e1e1"/>
        <path id="Trazado_160410" data-name="Trazado 160410" d="M514.046,98.916V72.4h-4.381V68.775a7.513,7.513,0,0,0,3.541-1.407,7.05,7.05,0,0,0,2.445-2.9h3.626V98.916Z" fill="#e1e1e1"/>
        <path id="Trazado_160411" data-name="Trazado 160411" d="M540.277,91.136a8.224,8.224,0,1,1-16.449,0V72.269a8.225,8.225,0,1,1,16.449,0ZM534.9,72.156a3,3,0,0,0-3-2.984,2.842,2.842,0,0,0-2.1.878,2.891,2.891,0,0,0-.869,2.106v18.9a2.891,2.891,0,0,0,.869,2.106,2.842,2.842,0,0,0,2.1.878,3,3,0,0,0,3-2.984Z" fill="#e1e1e1"/>
        <path id="Trazado_160412" data-name="Trazado 160412" d="M548.851,98.916V72.4H544.47V68.775a7.512,7.512,0,0,0,3.541-1.407,7.05,7.05,0,0,0,2.445-2.9h3.626V98.916Z" fill="#e1e1e1"/>
        <path id="Trazado_160413" data-name="Trazado 160413" d="M575.082,91.136a8.224,8.224,0,1,1-16.449,0V72.269a8.225,8.225,0,1,1,16.449,0ZM569.7,72.156a3,3,0,0,0-3-2.984,2.843,2.843,0,0,0-2.1.878,2.891,2.891,0,0,0-.869,2.106v18.9a2.891,2.891,0,0,0,.869,2.106,2.843,2.843,0,0,0,2.1.878,3,3,0,0,0,3-2.984Z" fill="#e1e1e1"/>
        <path id="Trazado_160414" data-name="Trazado 160414" d="M596.007,91.136a8.225,8.225,0,1,1-16.449,0V72.269a8.225,8.225,0,1,1,16.449,0Zm-5.382-18.98a3,3,0,0,0-3-2.984,2.843,2.843,0,0,0-2.1.878,2.891,2.891,0,0,0-.869,2.106v18.9a2.891,2.891,0,0,0,.869,2.106,2.843,2.843,0,0,0,2.1.878,3,3,0,0,0,3-2.984Z" fill="#e1e1e1"/>
        <path id="Trazado_160415" data-name="Trazado 160415" d="M616.932,91.136a8.225,8.225,0,1,1-16.449,0V72.269a8.225,8.225,0,1,1,16.449,0Zm-5.382-18.98a3,3,0,0,0-3-2.984,2.843,2.843,0,0,0-2.1.878,2.891,2.891,0,0,0-.869,2.106v18.9a2.891,2.891,0,0,0,.869,2.106,2.843,2.843,0,0,0,2.1.878,3,3,0,0,0,3-2.984Z" fill="#e1e1e1"/>
        <path id="Trazado_160416" data-name="Trazado 160416" d="M637.857,91.136a8.224,8.224,0,1,1-16.449,0V72.269a8.225,8.225,0,1,1,16.449,0Zm-5.382-18.98a3,3,0,0,0-3-2.984,2.843,2.843,0,0,0-2.1.878,2.891,2.891,0,0,0-.869,2.106v18.9a2.891,2.891,0,0,0,.869,2.106,2.843,2.843,0,0,0,2.1.878,3,3,0,0,0,3-2.984Z" fill="#e1e1e1"/>
        <path id="Trazado_160417" data-name="Trazado 160417" d="M658.781,91.136a8.225,8.225,0,1,1-16.449,0V72.269a8.225,8.225,0,1,1,16.449,0ZM653.4,72.156a3,3,0,0,0-3-2.984,2.843,2.843,0,0,0-2.1.878,2.891,2.891,0,0,0-.869,2.106v18.9a2.891,2.891,0,0,0,.869,2.106,2.843,2.843,0,0,0,2.1.878,3,3,0,0,0,3-2.984Z" fill="#e1e1e1"/>
        <path id="Trazado_160418" data-name="Trazado 160418" d="M679.706,91.136a8.224,8.224,0,1,1-16.449,0V72.269a8.225,8.225,0,1,1,16.449,0Zm-5.382-18.98a3,3,0,0,0-3-2.984,2.843,2.843,0,0,0-2.1.878,2.891,2.891,0,0,0-.869,2.106v18.9a2.891,2.891,0,0,0,.869,2.106,2.843,2.843,0,0,0,2.1.878,3,3,0,0,0,3-2.984Z" fill="#e1e1e1"/>
        <path id="Trazado_160419" data-name="Trazado 160419" d="M700.631,91.136a8.224,8.224,0,1,1-16.449,0V72.269a8.225,8.225,0,1,1,16.449,0Zm-5.382-18.98a3,3,0,0,0-3-2.984,2.842,2.842,0,0,0-2.1.878,2.891,2.891,0,0,0-.869,2.106v18.9a2.891,2.891,0,0,0,.869,2.106,2.842,2.842,0,0,0,2.1.878,3,3,0,0,0,3-2.984Z" fill="#e1e1e1"/>
        <path id="Trazado_160420" data-name="Trazado 160420" d="M709.205,98.916V72.4h-4.381V68.775a7.512,7.512,0,0,0,3.541-1.407,7.05,7.05,0,0,0,2.445-2.9h3.626V98.916Z" fill="#e1e1e1"/>
        <path id="Trazado_160421" data-name="Trazado 160421" d="M723.067,98.916V72.4h-4.381V68.775a7.512,7.512,0,0,0,3.541-1.407,7.05,7.05,0,0,0,2.445-2.9H728.3V98.916Z" fill="#e1e1e1"/>
        <path id="Trazado_160422" data-name="Trazado 160422" d="M736.929,98.916V72.4h-4.381V68.775a7.512,7.512,0,0,0,3.541-1.407,7.05,7.05,0,0,0,2.445-2.9h3.626V98.916Z" fill="#e1e1e1"/>
        <path id="Trazado_160423" data-name="Trazado 160423" d="M750.791,98.916V72.4h-4.382V68.775a7.516,7.516,0,0,0,3.542-1.407,7.057,7.057,0,0,0,2.445-2.9h3.625V98.916Z" fill="#e1e1e1"/>
        <path id="Trazado_160424" data-name="Trazado 160424" d="M764.652,98.916V72.4h-4.381V68.775a7.512,7.512,0,0,0,3.541-1.407,7.05,7.05,0,0,0,2.445-2.9h3.626V98.916Z" fill="#e1e1e1"/>
        <path id="Trazado_160425" data-name="Trazado 160425" d="M778.514,98.916V72.4h-4.381V68.775a7.512,7.512,0,0,0,3.541-1.407,7.05,7.05,0,0,0,2.445-2.9h3.626V98.916Z" fill="#e1e1e1"/>
        <path id="Trazado_160426" data-name="Trazado 160426" d="M804.745,91.136a8.224,8.224,0,1,1-16.449,0V72.269a8.225,8.225,0,1,1,16.449,0Zm-5.382-18.98a3,3,0,0,0-3-2.984,2.843,2.843,0,0,0-2.1.878,2.891,2.891,0,0,0-.869,2.106v18.9a2.891,2.891,0,0,0,.869,2.106,2.843,2.843,0,0,0,2.1.878,3,3,0,0,0,3-2.984Z" fill="#e1e1e1"/>
        <path id="Trazado_160427" data-name="Trazado 160427" d="M825.67,91.136a8.224,8.224,0,1,1-16.449,0V72.269a8.225,8.225,0,1,1,16.449,0Zm-5.382-18.98a3,3,0,0,0-3-2.984,2.842,2.842,0,0,0-2.1.878,2.891,2.891,0,0,0-.869,2.106v18.9a2.891,2.891,0,0,0,.869,2.106,2.842,2.842,0,0,0,2.1.878,3,3,0,0,0,3-2.984Z" fill="#e1e1e1"/>
        <path id="Trazado_160428" data-name="Trazado 160428" d="M834.244,98.916V72.4h-4.381V68.775a7.512,7.512,0,0,0,3.541-1.407,7.05,7.05,0,0,0,2.445-2.9h3.626V98.916Z" fill="#e1e1e1"/>
        <path id="Trazado_160429" data-name="Trazado 160429" d="M860.475,91.136a8.224,8.224,0,1,1-16.449,0V72.269a8.225,8.225,0,1,1,16.449,0Zm-5.382-18.98a3,3,0,0,0-3-2.984,2.842,2.842,0,0,0-2.1.878,2.891,2.891,0,0,0-.869,2.106v18.9a2.891,2.891,0,0,0,.869,2.106,2.842,2.842,0,0,0,2.1.878,3,3,0,0,0,3-2.984Z" fill="#e1e1e1"/>
        <path id="Trazado_160430" data-name="Trazado 160430" d="M869.05,98.916V72.4h-4.381V68.775a7.513,7.513,0,0,0,3.541-1.407,7.051,7.051,0,0,0,2.445-2.9h3.626V98.916Z" fill="#e1e1e1"/>
        <path id="Trazado_160431" data-name="Trazado 160431" d="M882.911,98.916V72.4H878.53V68.775a7.513,7.513,0,0,0,3.541-1.407,7.05,7.05,0,0,0,2.445-2.9h3.626V98.916Z" fill="#e1e1e1"/>
        <path id="Trazado_160432" data-name="Trazado 160432" d="M896.773,98.916V72.4h-4.381V68.775a7.512,7.512,0,0,0,3.541-1.407,7.05,7.05,0,0,0,2.445-2.9H902V98.916Z" fill="#e1e1e1"/>
        <path id="Trazado_160433" data-name="Trazado 160433" d="M910.635,98.916V72.4h-4.381V68.775a7.512,7.512,0,0,0,3.541-1.407,7.05,7.05,0,0,0,2.445-2.9h3.626V98.916Z" fill="#e1e1e1"/>
        <path id="Trazado_160434" data-name="Trazado 160434" d="M936.866,91.136a8.225,8.225,0,1,1-16.449,0V72.269a8.225,8.225,0,1,1,16.449,0Zm-5.382-18.98a3,3,0,0,0-3-2.984,2.843,2.843,0,0,0-2.1.878,2.891,2.891,0,0,0-.869,2.106v18.9a2.891,2.891,0,0,0,.869,2.106,2.843,2.843,0,0,0,2.1.878,3,3,0,0,0,3-2.984Z" fill="#e1e1e1"/>
        <path id="Trazado_160435" data-name="Trazado 160435" d="M945.44,98.916V72.4h-4.381V68.775a7.512,7.512,0,0,0,3.541-1.407,7.05,7.05,0,0,0,2.445-2.9h3.626V98.916Z" fill="#e1e1e1"/>
        <path id="Trazado_160436" data-name="Trazado 160436" d="M971.671,91.136a8.225,8.225,0,1,1-16.449,0V72.269a8.225,8.225,0,1,1,16.449,0Zm-5.382-18.98a3,3,0,0,0-3-2.984,2.843,2.843,0,0,0-2.1.878,2.891,2.891,0,0,0-.869,2.106v18.9a2.891,2.891,0,0,0,.869,2.106,2.843,2.843,0,0,0,2.1.878,3,3,0,0,0,3-2.984Z" fill="#e1e1e1"/>
        <path id="Trazado_160437" data-name="Trazado 160437" d="M980.246,98.916V72.4h-4.381V68.775a7.512,7.512,0,0,0,3.541-1.407,7.05,7.05,0,0,0,2.445-2.9h3.626V98.916Z" fill="#e1e1e1"/>
      </g>
    </g>
  </g>
</svg>
