<svg id="Grupo_72205" data-name="Grupo 72205" xmlns="http://www.w3.org/2000/svg" xmlns:xlink="http://www.w3.org/1999/xlink" width="96.807" height="113.063" viewBox="0 0 96.807 113.063">
  <defs>
    <clipPath id="clip-path">
      <rect id="Rectángulo_9437" data-name="Rectángulo 9437" width="96.807" height="113.063" fill="none"/>
    </clipPath>
  </defs>
  <g id="Grupo_72204" data-name="Grupo 72204" clip-path="url(#clip-path)">
    <path id="Trazado_161531" data-name="Trazado 161531" d="M89.919,113.063H20.586c-.3-.419-.8-.3-1.19-.37A23.43,23.43,0,0,1,.03,89.495q-.064-34.22,0-68.439A17.835,17.835,0,0,1,17.988,3.138c5.556-.027,11.112-.007,16.667,0,1.464,0,1.842.29,2.284,1.7A1.933,1.933,0,0,1,34.7,6.464c-2.758-.051-5.52.041-8.276-.044-1.058-.033-1.235.321-1.233,1.282q.04,28.533-.006,57.065c0,1.031.288,1.244,1.27,1.243q29.468-.044,58.937-.02c2.736,0,5.534-.33,8.091,1.624V66.294q0-25.5,0-50.994c0-.478,0-.957-.028-1.434a7.883,7.883,0,0,0-5.271-6.824,6.49,6.49,0,0,0-2.431-.582c-.863-.147-1.214.073-1.2,1.067.06,4.192.026,8.384.025,12.577,0,3.53.014,7.061-.006,10.591a4.213,4.213,0,0,1-2.391,4.038,4.263,4.263,0,0,1-4.571-.415c-2.8-1.895-5.642-3.719-8.444-5.607a1.089,1.089,0,0,0-1.438-.016c-2.861,1.933-5.751,3.822-8.634,5.719a4.309,4.309,0,0,1-6.576-2.164,6.43,6.43,0,0,1-.2-2.074c0-7.466-.033-14.931.029-22.4.009-1.168-.339-1.48-1.411-1.346a20.5,20.5,0,0,1-2.091.062c-2.2-.016-4.4-.06-6.6-.039A1.788,1.788,0,0,1,40.168,4.83c.314-1.322.763-1.691,2.145-1.694q5.022-.013,10.044,0a1.258,1.258,0,0,0,1.2-.532A6.235,6.235,0,0,1,58.88,0q9.548,0,19.1,0a6.236,6.236,0,0,1,5.319,2.606,1.149,1.149,0,0,0,1.094.534,12.915,12.915,0,0,1,3.5.3c5.461,1.3,8.9,5.754,8.9,11.592q.018,19.925,0,39.85c0,6.438.023,12.878-.011,19.317a8.167,8.167,0,0,1-5.553,7.821,14.081,14.081,0,0,1-3.366.507A6.98,6.98,0,0,0,82,91.993a6.89,6.89,0,0,0,6.648,4.562,8.251,8.251,0,0,1,8.118,7.4,8.127,8.127,0,0,1-6.639,8.907c-.079.017-.138.134-.207.2M62.8,80.83c-.422,1.429-.75,1.663-2.412,1.663q-17.988,0-35.977,0a8.852,8.852,0,0,0-3.772.631,7.107,7.107,0,0,0-3.979,7.841,6.98,6.98,0,0,0,6.9,5.551q28.362.03,56.725.008c.161,0,.373.083.463-.154a10.561,10.561,0,0,1-.007-13.763c-.341-.22-.716-.1-1.068-.105-3.826-.01-7.652,0-11.478-.01-1.448,0-1.832-.317-2.171-1.658.364-1.379.749-1.677,2.279-1.679q9.6-.009,19.206-.006a15,15,0,0,0,1.762-.069,4.912,4.912,0,0,0,4.218-4.541,5.114,5.114,0,0,0-5.459-5.269c-21.376.069-42.754.034-64.13.037a24.233,24.233,0,0,0-3.409.218A20.23,20.23,0,0,0,23.8,109.746q32.12.017,64.241,0c.294,0,.59.008.883-.014a4.941,4.941,0,0,0,4.326-6.439c-.718-2.208-2.564-3.438-5.2-3.439q-25.387,0-50.775,0c-4.709,0-9.419.026-14.128-.029a9.513,9.513,0,0,1-7.2-3.319,9.826,9.826,0,0,1-1.914-10.972c1.79-4.251,5.221-6.358,9.816-6.372,12.252-.038,24.5-.015,36.756-.009,1.4,0,1.768.3,2.193,1.675M3.333,77.362c4.815-7.382,11.445-10.553,17.462-11.2,1.013-.108,1.121-.489,1.12-1.352Q21.881,36.276,21.9,7.738c0-.257-.012-.516,0-.772.019-.375-.144-.526-.52-.52a32.71,32.71,0,0,0-6.272.292A14.475,14.475,0,0,0,3.341,21.127Q3.307,48.78,3.333,76.434v.928m52.3-58.891q0,5.9,0,11.808c0,.544-.1,1.151.5,1.468.586.306,1.039-.047,1.51-.359,3.093-2.05,6.22-4.052,9.284-6.145a2.347,2.347,0,0,1,3.008,0c3.069,2.086,6.188,4.1,9.278,6.153.473.314.93.662,1.51.344s.535-.91.535-1.464q0-11.753-.006-23.506c0-2.265-1.234-3.449-3.506-3.451q-9.269-.006-18.538,0c-2.435,0-3.573,1.126-3.579,3.565-.009,3.862,0,7.725,0,11.587" transform="translate(0 0)" fill="#1c9873"/>
    <path id="Trazado_161532" data-name="Trazado 161532" d="M38.377,5.113l3.229-.006a1.79,1.79,0,0,0,2.08,1.628c2.2-.022,4.4.022,6.6.038,0,8.13-.025,16.26.023,24.388a7.3,7.3,0,0,0,3,6.073,7.428,7.428,0,0,0,9.191.236c2.236-1.473,4.5-2.907,6.716-4.4a1.016,1.016,0,0,1,1.293-.036c2.2,1.455,4.439,2.857,6.6,4.368a7.375,7.375,0,0,0,7.886.713,7.153,7.153,0,0,0,4.367-6.817c.029-7.577.008-15.155.017-22.732,0-.421-.161-.895.244-1.245a7.883,7.883,0,0,1,5.271,6.824c.028.478.028.956.028,1.435q0,25.5,0,50.993v1.32c-2.557-1.955-5.355-1.624-8.091-1.625q-29.468-.006-58.937.02c-.983,0-1.272-.212-1.27-1.242q.052-28.533.006-57.065c0-.962.175-1.316,1.233-1.283,2.757.085,5.518-.006,8.276.044a1.933,1.933,0,0,0,2.237-1.627m5.866,51.112c1.065.095,2.554-.432,3.638.213.7.416.821,1.8,1.218,2.738a1.658,1.658,0,1,0,3.1-1.141c-2.069-5.527-4.167-11.044-6.255-16.565a1.969,1.969,0,0,0-1.911-1.4,1.942,1.942,0,0,0-1.94,1.357q-3.181,8.322-6.348,16.648a1.652,1.652,0,1,0,3.077,1.179c.33-.775.622-1.568.9-2.364a.86.86,0,0,1,.968-.673c1.1.041,2.206.012,3.558.012m31.968.875a1.942,1.942,0,0,1,.5-1.039q4.231-6.516,8.48-13.021a1.779,1.779,0,0,0-1.62-3c-3.274.013-6.547.006-9.821.006-.111,0-.221,0-.331,0a1.655,1.655,0,0,0-1.741,1.725,1.588,1.588,0,0,0,1.748,1.579c2.023.023,4.046.008,6.069.008H81c-.344.547-.571.919-.809,1.283-2.808,4.31-5.628,8.611-8.419,12.931-.989,1.529-.309,2.8,1.494,2.84,1.25.029,2.5.008,3.752.007,2.427,0,4.856.006,7.283-.012a1.583,1.583,0,0,0,1.688-1.548,1.659,1.659,0,0,0-1.623-1.739,10.438,10.438,0,0,0-1.1-.017H76.211M62.359,48.61c-1.655,0-3.309-.012-4.963,0-1.161.011-1.817.6-1.835,1.594a1.625,1.625,0,0,0,1.76,1.7q5.017.047,10.035,0a1.651,1.651,0,0,0,1.79-1.684,1.612,1.612,0,0,0-1.825-1.613c-1.654-.017-3.308,0-4.963,0" transform="translate(-1.438 -0.276)" fill="#8bebce"/>
    <path id="Trazado_161533" data-name="Trazado 161533" d="M62.984,84.785c-.425-1.372-.789-1.674-2.192-1.675-12.252-.007-24.5-.029-36.757.009-4.6.014-8.027,2.121-9.816,6.372a9.824,9.824,0,0,0,1.913,10.972,9.516,9.516,0,0,0,7.2,3.318c4.709.056,9.419.029,14.128.029q25.387,0,50.775,0c2.64,0,4.487,1.231,5.2,3.439a4.941,4.941,0,0,1-4.325,6.439c-.293.022-.588.014-.884.014q-32.12,0-64.241,0a20.23,20.23,0,0,1-3.314-40.224,24.212,24.212,0,0,1,3.408-.218c21.376,0,42.754.032,64.13-.037a5.114,5.114,0,0,1,5.459,5.269,4.912,4.912,0,0,1-4.218,4.541,14.99,14.99,0,0,1-1.762.069q-9.6.007-19.206.006c-1.529,0-1.915.3-2.279,1.679l-3.222,0" transform="translate(-0.188 -3.955)" fill="#d1fff1"/>
    <path id="Trazado_161534" data-name="Trazado 161534" d="M3.522,77.729V76.8q0-27.653.009-55.306A14.477,14.477,0,0,1,15.295,7.1a32.637,32.637,0,0,1,6.272-.291c.377-.006.539.146.521.519-.012.257,0,.516,0,.773q0,28.537.017,57.073c0,.862-.107,1.243-1.12,1.352-6.017.644-12.647,3.816-17.462,11.2" transform="translate(-0.19 -0.368)" fill="#8bebce"/>
    <path id="Trazado_161535" data-name="Trazado 161535" d="M63.739,85.445l3.222,0c.34,1.342.724,1.655,2.171,1.658,3.826.011,7.652,0,11.478.01.352,0,.728-.115,1.068.105a10.562,10.562,0,0,0,.007,13.763c-.09.237-.3.154-.463.154q-28.362.006-56.724-.007a6.98,6.98,0,0,1-6.9-5.552,7.106,7.106,0,0,1,3.978-7.841,8.852,8.852,0,0,1,3.772-.631q17.988.006,35.977,0c1.663,0,1.99-.234,2.412-1.663" transform="translate(-0.943 -4.615)" fill="#fdfdfd"/>
    <path id="Trazado_161536" data-name="Trazado 161536" d="M58.809,18.66c0-3.862-.007-7.725,0-11.587.006-2.44,1.144-3.565,3.579-3.565q9.27,0,18.538,0c2.272,0,3.5,1.186,3.5,3.451q.023,11.752.007,23.506c0,.554.045,1.147-.535,1.464s-1.037-.03-1.51-.344c-3.091-2.055-6.209-4.067-9.279-6.153a2.346,2.346,0,0,0-3.007,0c-3.064,2.093-6.191,4.1-9.284,6.145-.471.311-.924.665-1.51.359-.607-.317-.5-.924-.5-1.468q-.006-5.9,0-11.808" transform="translate(-3.176 -0.189)" fill="#26cb99"/>
    <path id="Trazado_161537" data-name="Trazado 161537" d="M90.973,7.408c-.4.35-.243.824-.244,1.244-.009,7.578.012,15.156-.016,22.733A7.151,7.151,0,0,1,86.346,38.2a7.373,7.373,0,0,1-7.886-.712c-2.163-1.511-4.4-2.914-6.6-4.368a1.017,1.017,0,0,0-1.293.035c-2.219,1.5-4.48,2.933-6.716,4.405a7.428,7.428,0,0,1-9.191-.236,7.293,7.293,0,0,1-3-6.073c-.048-8.13-.022-16.259-.023-24.388a20.483,20.483,0,0,0,2.09-.062c1.073-.134,1.422.178,1.411,1.346-.062,7.465-.033,14.93-.029,22.4a6.43,6.43,0,0,0,.2,2.074,4.31,4.31,0,0,0,6.576,2.165c2.883-1.9,5.772-3.788,8.633-5.72a1.089,1.089,0,0,1,1.438.016c2.8,1.888,5.648,3.712,8.445,5.607a4.261,4.261,0,0,0,4.571.415,4.213,4.213,0,0,0,2.391-4.037c.02-3.53.007-7.062.007-10.592,0-4.192.034-8.385-.026-12.577-.014-.994.337-1.214,1.2-1.067a6.486,6.486,0,0,1,2.431.582" transform="translate(-2.789 -0.366)" fill="#7fd6b9"/>
    <path id="Trazado_161538" data-name="Trazado 161538" d="M44.756,58.221c-1.352,0-2.457.028-3.558-.012a.86.86,0,0,0-.968.672c-.277.8-.569,1.589-.9,2.365a1.652,1.652,0,1,1-3.077-1.179Q39.4,51.733,42.6,43.418a1.943,1.943,0,0,1,1.941-1.357,1.97,1.97,0,0,1,1.911,1.4C48.54,48.987,50.64,54.5,52.708,60.031a1.659,1.659,0,1,1-3.1,1.141c-.4-.941-.517-2.321-1.217-2.738-1.084-.646-2.574-.118-3.638-.213m-.244-10.508c-.879,2.291-1.7,4.432-2.521,6.569-.2.518.026.63.5.623,1.321-.017,2.641-.021,3.961,0,.531.009.76-.116.542-.684-.814-2.113-1.616-4.232-2.483-6.51" transform="translate(-1.951 -2.272)" fill="#303e41"/>
    <path id="Trazado_161539" data-name="Trazado 161539" d="M78.763,59.095c2.364,0,4.707,0,7.05,0a10.451,10.451,0,0,1,1.1.017,1.659,1.659,0,0,1,1.623,1.739A1.583,1.583,0,0,1,86.852,62.4c-2.428.018-4.856.01-7.283.011-1.252,0-2.5.023-3.753-.006-1.8-.042-2.481-1.311-1.494-2.84,2.793-4.319,5.612-8.621,8.419-12.931.237-.365.464-.736.809-1.283h-1.5c-2.023,0-4.046.015-6.069-.008a1.589,1.589,0,0,1-1.748-1.579,1.657,1.657,0,0,1,1.741-1.725c.111-.007.221,0,.331,0,3.274,0,6.548.008,9.822-.006a1.779,1.779,0,0,1,1.62,3q-4.256,6.5-8.48,13.021a1.935,1.935,0,0,0-.5,1.039" transform="translate(-3.99 -2.27)" fill="#303e41"/>
    <path id="Trazado_161540" data-name="Trazado 161540" d="M64.011,51.094c1.655,0,3.309-.012,4.963,0A1.612,1.612,0,0,1,70.8,52.711a1.65,1.65,0,0,1-1.79,1.683q-5.017.045-10.035,0a1.624,1.624,0,0,1-1.76-1.7c.018-.992.674-1.583,1.835-1.594,1.654-.016,3.308,0,4.963,0" transform="translate(-3.09 -2.76)" fill="#303e41"/>
    <path id="Trazado_161541" data-name="Trazado 161541" d="M44.843,48.036c.867,2.278,1.669,4.4,2.483,6.51.218.568-.011.693-.542.684-1.32-.023-2.64-.019-3.961,0-.476.007-.7-.105-.5-.623.826-2.137,1.642-4.278,2.521-6.569" transform="translate(-2.282 -2.595)" fill="#8bebce"/>
  </g>
</svg>
