<svg id="Grupo_72199" data-name="Grupo 72199" xmlns="http://www.w3.org/2000/svg" xmlns:xlink="http://www.w3.org/1999/xlink" width="112.218" height="112.1" viewBox="0 0 112.218 112.1">
  <defs>
    <clipPath id="clip-path">
      <rect id="Rectángulo_9434" data-name="Rectángulo 9434" width="112.218" height="112.1" fill="none"/>
    </clipPath>
  </defs>
  <g id="Grupo_72198" data-name="Grupo 72198" transform="translate(0 0)" clip-path="url(#clip-path)">
    <path id="Trazado_161508" data-name="Trazado 161508" d="M30.842,112.059c-1.826.083-2.546-.544-2.488-2.355a10.478,10.478,0,0,0-.954-4.628c-2.3-5.268-4.53-10.568-6.772-15.863a9.242,9.242,0,0,1-.205-6.839q2.137-6.166,4.306-12.32c.191-.542.315-.883-.4-1.259-4.3-2.277-6.515-5.922-6.191-10.761.328-4.887,3.046-8.195,7.642-9.926.142-.054.287-.1.435-.152-.07-.451-.445-.647-.709-.912q-4.45-4.479-8.916-8.941c-1.454-1.456-1.449-2.223.033-3.707q4.418-4.426,8.839-8.85c.262-.263.62-.461.728-.861-6.364-3.074-8.9-7.209-7.927-12.924A11.249,11.249,0,0,1,40.14,10.693c.424-.076.624-.444.89-.709q4.516-4.5,9.018-9c1.306-1.3,2.168-1.308,3.474-.006,3.671,3.66,7.325,7.335,11,10.988.665.662,1.246,1.338.954,2.344s-1.141,1.259-2.062,1.455a7.414,7.414,0,0,0-5.857,7.775A7.472,7.472,0,0,0,72.2,25.121c.13-.448.171-.924.328-1.361a1.822,1.822,0,0,1,2.86-.868,6.743,6.743,0,0,1,.769.717q5.376,5.37,10.747,10.745c1.538,1.538,1.544,2.3.032,3.811q-4.418,4.426-8.839,8.85c-.268.269-.518.555-.839.9a11.216,11.216,0,0,1,.7,21.387,1.251,1.251,0,0,0-1.006,1.462c.043,3,.021,6,.017,9-.006,4.183-2.95,6.666-7.124,6.072a13.954,13.954,0,0,1-7.64-3.625,10.674,10.674,0,0,0,1.335,4.463,19.861,19.861,0,0,1,2,5.572,16.865,16.865,0,0,1-1.4,10.353,17.693,17.693,0,0,1-.828,1.671,8.858,8.858,0,0,0-1.341,5.433c.122,1.8-.653,2.437-2.477,2.354a2.685,2.685,0,0,1-1.274-2.417,12.666,12.666,0,0,1,1.991-7.531,13.44,13.44,0,0,0,.07-13.593,17.829,17.829,0,0,1-2.036-8.648c.038-7.245.006-14.489.017-21.734a5.771,5.771,0,0,0-1.335-3.883,5.594,5.594,0,0,0-9.885,3.693q-.022,12.619-.007,25.239A5.684,5.684,0,0,1,47,84.348,1.8,1.8,0,0,1,45.22,85.9a1.834,1.834,0,0,1-1.885-1.572,6.512,6.512,0,0,1-.032-1.049q0-8.7-.009-17.411c0-.411.147-.862-.194-1.228-.923-.987-1.844-1.975-2.871-3.075l-.28.731A11.073,11.073,0,0,1,29.44,69.975a.99.99,0,0,0-1.033.824c-1.486,4.3-3,8.584-4.479,12.882a5.55,5.55,0,0,0,.154,4.1c2.254,5.291,4.464,10.6,6.775,15.868a13.823,13.823,0,0,1,1.25,5.988,2.522,2.522,0,0,1-1.264,2.421M66.451,34.238c-.428,0-.856.011-1.284.013A11.211,11.211,0,0,1,59.306,13.39c.26-.158.515-.326.845-.537C57.7,10.414,55.3,8.025,52.9,5.634c-1.1-1.093-1.1-1.1-2.159-.037Q45.45,10.882,40.162,16.172a1.986,1.986,0,0,1-2.409.615,1.93,1.93,0,0,1-1.032-2.152,8.491,8.491,0,0,0-.045-1.978,7.471,7.471,0,1,0-6.913,8.554c1.08-.062,2.051-.028,2.563,1.107.528,1.168-.209,1.9-.946,2.634C27.822,28.5,24.28,32.065,20.7,35.593c-.537.529-.562.819-.01,1.365,3.358,3.308,6.675,6.655,10.006,9.99.44.441.9.866,1.307,1.336a1.721,1.721,0,0,1,.313,1.955,1.754,1.754,0,0,1-1.758,1.105c-.428-.011-.856-.043-1.284-.043a7.468,7.468,0,1,0,7.456,6.852c-.046-1.037,0-1.962,1.115-2.434,1.066-.45,1.769.137,2.454.833.937.951,1.894,1.881,3.01,2.985,0-.9-.02-1.517,0-2.135a9.366,9.366,0,0,1,7.246-8.674,9.6,9.6,0,0,1,8.129,1.9,11,11,0,0,1,3.528,7.047c.616-.476,1.009-1.125,1.557-1.592a1.847,1.847,0,0,1,3.091,1.163,7.912,7.912,0,0,1-.046,1.28,7.466,7.466,0,1,0,9.15-7.023,11.563,11.563,0,0,0-2.9-.158,1.82,1.82,0,0,1-1.948-2.175,2.69,2.69,0,0,1,.948-1.432q5.367-5.379,10.726-10.764c.308-.311.913-.556.278-1.181-2.63-2.587-5.228-5.209-7.914-7.893a11.672,11.672,0,0,1-8.707,6.335M63.394,61.662c-.582.8-1.407,1.07-1.4,2.036.035,3.229-.066,6.462.048,9.689A9.342,9.342,0,0,0,70.9,82.16c1.561.055,2.323-.644,2.331-2.2.015-3.035-.027-6.071.026-9.106.013-.79-.3-.982-.984-1.074a9.836,9.836,0,0,1-3.594-1.3,11.538,11.538,0,0,1-5.28-6.814" transform="translate(3.455 0)" fill="#1c9873"/>
    <path id="Trazado_161509" data-name="Trazado 161509" d="M29.366,102.542a2.517,2.517,0,0,0,1.264-2.421,13.787,13.787,0,0,0-1.25-5.988c-2.311-5.266-4.522-10.577-6.775-15.868a5.55,5.55,0,0,1-.154-4.1c1.482-4.3,2.993-8.585,4.479-12.882a.991.991,0,0,1,1.033-.824,11.069,11.069,0,0,0,10.509-7.676l.28-.731c1.027,1.1,1.949,2.09,2.871,3.076.342.364.194.816.194,1.226q.017,8.707.009,17.411a6.676,6.676,0,0,0,.032,1.05,1.835,1.835,0,0,0,1.887,1.571,1.8,1.8,0,0,0,1.783-1.554,5.681,5.681,0,0,0,.039-1.165q0-12.619.007-25.239a5.6,5.6,0,0,1,9.886-3.693,5.778,5.778,0,0,1,1.334,3.883c-.011,7.245.021,14.489-.017,21.734A17.842,17.842,0,0,0,58.813,79a13.443,13.443,0,0,1-.068,13.593,12.667,12.667,0,0,0-1.992,7.531,2.684,2.684,0,0,0,1.274,2.417q-10.836.022-21.672.04c-2.329,0-4.66-.026-6.989-.04" transform="translate(4.93 9.517)" fill="#febbaa"/>
    <path id="Trazado_161510" data-name="Trazado 161510" d="M16.367,48.424a1.982,1.982,0,0,1-1.038,1.664c-3.2,1.848-6.386,3.713-9.6,5.529a1.821,1.821,0,0,1-2.611-.706,1.786,1.786,0,0,1,.752-2.505c3.218-1.89,6.443-3.771,9.7-5.594a1.863,1.863,0,0,1,2.8,1.612" transform="translate(0.639 10.371)" fill="#1c9873"/>
    <path id="Trazado_161511" data-name="Trazado 161511" d="M91.357,53.976a1.866,1.866,0,0,1-2.386,1.832,5.4,5.4,0,0,1-1.039-.521q-4.349-2.5-8.689-5.012c-1.3-.753-1.691-1.751-1.126-2.765s1.651-1.23,2.93-.5c3.005,1.714,6,3.452,9,5.17a2.2,2.2,0,0,1,1.308,1.8" transform="translate(17.344 10.374)" fill="#1c9873"/>
    <path id="Trazado_161512" data-name="Trazado 161512" d="M16.345,14.287a1.873,1.873,0,0,1-2.887,1.535C11.551,14.78,9.686,13.657,7.8,12.57c-1.277-.737-2.567-1.456-3.828-2.219A1.868,1.868,0,1,1,5.812,7.113c3.14,1.782,6.259,3.6,9.391,5.4a2.073,2.073,0,0,1,1.142,1.774" transform="translate(0.64 1.513)" fill="#1c9873"/>
    <path id="Trazado_161513" data-name="Trazado 161513" d="M91.353,8.687a1.922,1.922,0,0,1-1.02,1.624c-3.194,1.845-6.378,3.706-9.589,5.522a1.86,1.86,0,1,1-1.78-3.26c3.149-1.846,6.3-3.683,9.482-5.477a1.881,1.881,0,0,1,2.906,1.591" transform="translate(17.348 1.516)" fill="#1c9873"/>
    <path id="Trazado_161514" data-name="Trazado 161514" d="M7.527,32.7c-1.788,0-3.575.012-5.364,0C.814,32.688-.022,31.935,0,30.8a1.886,1.886,0,0,1,2.118-1.829q5.363-.02,10.727,0a1.883,1.883,0,0,1,2.106,1.841c.015,1.136-.823,1.879-2.178,1.892-1.749.015-3.5,0-5.247,0" transform="translate(0 6.45)" fill="#1c9873"/>
    <path id="Trazado_161515" data-name="Trazado 161515" d="M87.019,28.961c1.749,0,3.5-.009,5.247,0,1.38.01,2.212.7,2.233,1.835s-.814,1.9-2.167,1.9q-5.306.02-10.611,0c-1.354,0-2.189-.756-2.173-1.893s.845-1.833,2.224-1.843c1.749-.011,3.5,0,5.247,0" transform="translate(17.719 6.45)" fill="#1c9873"/>
    <path id="Trazado_161516" data-name="Trazado 161516" d="M57.82,49.755a9.6,9.6,0,0,0-8.129-1.9,9.366,9.366,0,0,0-7.246,8.674c-.023.619,0,1.239,0,2.135-1.116-1.1-2.074-2.033-3.01-2.985-.685-.7-1.388-1.283-2.454-.831-1.118.472-1.162,1.4-1.116,2.433a7.468,7.468,0,1,1-7.455-6.851c.428,0,.856.031,1.284.042a1.752,1.752,0,0,0,1.758-1.105,1.721,1.721,0,0,0-.313-1.955c-.406-.471-.867-.9-1.307-1.336-3.331-3.334-6.648-6.682-10.006-9.99-.553-.544-.527-.834.01-1.363,3.577-3.529,7.118-7.094,10.676-10.643.737-.734,1.475-1.465.946-2.634-.512-1.133-1.483-1.168-2.563-1.105a7.424,7.424,0,1,1,6.913-8.556,8.5,8.5,0,0,1,.045,1.98,1.929,1.929,0,0,0,1.032,2.152,1.988,1.988,0,0,0,2.409-.616Q44.57,10,49.87,4.722c1.063-1.06,1.063-1.056,2.159.037,2.4,2.392,4.8,4.78,7.251,7.219-.33.21-.584.379-.845.537A11.212,11.212,0,0,0,64.3,33.377c.428,0,.856-.01,1.284-.015A3.267,3.267,0,0,1,65.4,34.5,62.514,62.514,0,0,1,58.618,49.17a.967.967,0,0,1-.8.586" transform="translate(4.325 0.876)" fill="#d1fff1"/>
    <path id="Trazado_161517" data-name="Trazado 161517" d="M50.825,45.548a.967.967,0,0,0,.8-.586A62.514,62.514,0,0,0,58.4,30.3a3.267,3.267,0,0,0,.185-1.141,11.673,11.673,0,0,0,8.707-6.334c2.685,2.684,5.283,5.3,7.914,7.892.636.626.031.871-.278,1.181Q69.576,37.286,64.2,42.658a2.69,2.69,0,0,0-.948,1.432A1.82,1.82,0,0,0,65.2,46.265a11.563,11.563,0,0,1,2.9.158,7.479,7.479,0,1,1-9.15,7.025A7.787,7.787,0,0,0,59,52.166,1.846,1.846,0,0,0,55.909,51c-.548.467-.94,1.116-1.557,1.592a11,11,0,0,0-3.528-7.047" transform="translate(11.321 5.083)" fill="#8bebce"/>
    <path id="Trazado_161518" data-name="Trazado 161518" d="M54.927,50.429a11.538,11.538,0,0,0,5.28,6.814,9.836,9.836,0,0,0,3.594,1.3c.688.092,1,.284.984,1.074-.053,3.035-.011,6.071-.026,9.106-.007,1.559-.769,2.258-2.331,2.2a9.342,9.342,0,0,1-8.85-8.773c-.114-3.227-.012-6.46-.048-9.689-.011-.966.814-1.237,1.4-2.036" transform="translate(11.922 11.233)" fill="#e3a799"/>
  </g>
</svg>
